<svg width="64" height="66" viewBox="0 0 64 66" fill="none" xmlns="http://www.w3.org/2000/svg">
<mask id="mask0_185_2653" style="mask-type:luminance" maskUnits="userSpaceOnUse" x="0" y="0" width="64" height="66">
<path d="M0.881104 0.675781H63.1189V65.389H0.881104V0.675781Z" fill="white"/>
</mask>
<g mask="url(#mask0_185_2653)">
<path d="M60.6441 30.9863C60.4259 30.8332 60.2118 30.6753 59.9749 30.5041C60.7688 27.5991 59.7331 25.4687 57.2348 23.9085C57.3255 23.7242 57.4232 23.5503 57.4987 23.3674C57.7405 22.8381 57.9546 22.2984 58.1417 21.7476C58.1999 21.5405 58.2435 21.3298 58.2726 21.1158C58.3017 20.9024 58.3163 20.6876 58.3156 20.4721C58.3156 20.2567 58.3003 20.0419 58.2705 19.8285C58.2407 19.6151 58.1964 19.4045 58.1375 19.1974C58.0786 18.9895 58.0059 18.7872 57.9193 18.5898C57.8327 18.3923 57.7329 18.2018 57.6207 18.0182C57.5077 17.8346 57.383 17.6593 57.2459 17.4923C57.1094 17.3261 56.9618 17.1695 56.8031 17.0233C56.6452 16.8771 56.4775 16.742 56.3008 16.6187C56.1235 16.4954 55.9392 16.3852 55.7473 16.2868C55.5554 16.1891 55.3572 16.1046 55.1535 16.034C54.9499 15.9633 54.7427 15.9065 54.5314 15.8642C54.3194 15.822 54.1067 15.7942 53.8912 15.7818C53.6758 15.7686 53.461 15.77 53.2462 15.7866C53.0308 15.8032 52.8181 15.8344 52.6074 15.8802C52.3968 15.9266 52.1904 15.9862 51.9881 16.0603C51.6105 16.1975 51.235 16.3409 50.8449 16.4864C50.6516 16.1067 50.432 15.743 50.1874 15.3945C49.9117 15.0453 49.593 14.7405 49.232 14.48C48.8898 14.277 48.5316 14.1065 48.1582 13.968C48.0958 13.6202 48.0529 13.3153 47.9857 13.016C47.8242 12.2983 47.4965 11.6671 47.0019 11.1233C46.8862 10.984 46.758 10.8593 46.616 10.7478C46.4732 10.6369 46.3215 10.542 46.1587 10.463C45.9966 10.3847 45.8275 10.3238 45.6523 10.2815C45.477 10.2385 45.2996 10.215 45.1188 10.2108C44.9165 10.2053 44.7142 10.1866 44.4253 10.1686C44.1897 7.84764 43.3784 5.90498 41.6138 4.44452C39.8492 2.98406 37.8421 2.4118 35.6217 2.87321C35.4997 2.74504 35.4263 2.67299 35.3591 2.59539C33.8584 0.868202 31.9816 0.33404 29.7978 0.910464C26.9296 1.66702 25.2474 3.57573 24.6391 6.44122C24.4687 7.24142 24.432 8.06934 24.3204 8.8827C24.2906 9.10163 24.3558 9.37322 24.0544 9.50208C23.7128 9.35243 23.365 9.2208 23.0096 9.10787C22.454 8.93674 21.888 8.81619 21.3108 8.74622C19.6127 8.60558 18.1641 9.22773 16.874 10.2974C14.4353 12.3205 13.4571 16.1088 14.1769 18.7858C14.2372 19.0103 14.2815 19.2389 14.33 19.4516C14.0661 19.6941 13.825 19.9574 13.6067 20.2421C13.1148 21.0167 12.4539 21.4809 11.5241 21.5315C8.77987 22.3192 7.04852 24.0679 6.44369 26.8869C6.38688 27.1516 6.31829 27.4135 6.25455 27.6774C6.05918 27.7287 5.89706 27.7869 5.73009 27.8139C5.20286 27.9095 4.70472 28.0855 4.23499 28.3418C3.76526 28.5989 3.34749 28.9231 2.98238 29.3146C1.81914 30.4778 1.22747 31.9078 1.04734 33.5234C1.00785 33.8123 0.996074 34.1033 1.01132 34.395C1.02656 34.686 1.06951 34.9742 1.13879 35.2575C1.20877 35.5409 1.30368 35.8159 1.42493 36.0813C1.54617 36.3473 1.69166 36.5995 1.86002 36.8379C2.07617 37.1427 2.2861 37.451 2.47385 37.7212C2.39071 38.1771 2.33182 38.6364 2.29788 39.0992C2.28887 39.5793 2.32143 40.0567 2.39487 40.5313C2.41219 40.6712 2.43644 40.8105 2.46692 40.9483C2.49741 41.0869 2.53413 41.2234 2.57708 41.3578C2.62004 41.4922 2.66923 41.6252 2.72396 41.7555C2.77938 41.8857 2.84035 42.0132 2.90755 42.1372C2.97407 42.2619 3.04612 42.3832 3.12441 42.5016C3.20269 42.6194 3.28583 42.7337 3.37382 42.8439C3.4625 42.954 3.55603 43.06 3.65372 43.1619C3.7521 43.2637 3.85463 43.3607 3.96202 43.4536C4.06872 43.5457 4.17957 43.633 4.29527 43.7154C4.41027 43.7972 4.52875 43.8741 4.65068 43.9455C4.77262 44.0168 4.89802 44.0819 5.02619 44.1422C5.15436 44.2018 5.2853 44.2558 5.41832 44.3036C5.55134 44.3514 5.68644 44.393 5.82293 44.4284C5.9601 44.4637 6.09797 44.4928 6.23792 44.5156C6.37718 44.5385 6.51782 44.5544 6.65846 44.5641C6.7998 44.5745 6.94113 44.578 7.08247 44.5745C7.42125 44.5676 7.76004 44.5738 8.10991 44.5738C8.21592 44.7276 8.32053 44.8627 8.40783 45.0075C8.5547 45.2507 8.72444 45.4752 8.91843 45.683C9.11242 45.8902 9.32511 46.0752 9.5579 46.238C9.78999 46.4008 10.0366 46.538 10.2978 46.6495C10.5583 46.7611 10.8285 46.8442 11.1063 46.8996C11.4396 46.9841 11.7777 47.0368 12.1206 47.0569C12.4636 47.077 12.8051 47.0652 13.146 47.0202C13.4869 46.9751 13.8201 46.8982 14.1457 46.7902C14.472 46.6814 14.7845 46.5428 15.0845 46.3752C15.4108 46.1943 15.7371 46.0135 16.0551 45.8375C17.0694 46.3447 18.0747 46.2719 19.0938 46.0094C20.3215 45.6934 21.3406 45.0214 22.2745 44.1963C22.4755 44.0189 22.6715 43.8339 22.8697 43.6524C23.717 44.1124 24.522 44.5628 25.3396 44.9902C26.7328 45.7184 27.6404 46.7985 27.8593 48.3926C27.8642 48.4266 27.8718 48.4599 27.8774 48.4938C28.1399 50.1157 28.4399 51.7327 28.6533 53.3608C28.8272 54.5532 28.8563 55.749 28.7413 56.9482C28.6533 57.7755 28.4122 58.5549 28.018 59.2872C27.718 59.8449 27.2968 60.1698 26.622 60.1428C26.2104 60.1317 25.8031 60.1678 25.3998 60.2509C24.7188 60.4165 24.123 60.7393 23.6124 61.2188C22.7394 61.9982 21.7847 62.6598 20.7483 63.2023C20.5972 63.2827 20.4656 63.3873 20.3534 63.5161C20.318 63.5653 20.2938 63.6194 20.2813 63.679C20.2695 63.7385 20.2702 63.7974 20.2834 63.857C20.2966 63.9159 20.3215 63.9699 20.3582 64.0177C20.3949 64.0662 20.44 64.105 20.4933 64.1341C20.6146 64.1972 20.7427 64.236 20.8785 64.2512C22.1304 64.3364 23.3297 64.1972 24.4389 63.5258C25.9936 62.585 26.0414 62.7942 27.3183 63.2196C27.445 63.2737 27.576 63.3125 27.7111 63.3367C28.1171 63.3755 28.5619 63.512 28.9228 63.3963C29.1986 63.3069 29.4812 63.2681 29.7708 63.2813C30.0604 63.2944 30.3389 63.3575 30.605 63.4711C30.799 63.5432 30.9985 63.5903 31.2043 63.6117C31.5798 63.6609 31.9421 63.7586 32.2913 63.9055C32.6405 64.0524 32.964 64.2422 33.2619 64.4764C33.5065 64.6641 33.767 64.8283 34.0427 64.9683C34.3164 65.111 34.6046 65.2115 34.9081 65.269C35.6903 65.3895 36.0817 64.9087 35.8593 64.1591C35.7769 63.8806 35.4893 63.6596 35.6106 63.3027C36.4738 63.2272 37.3232 63.3041 38.1588 63.5328C38.7968 63.7046 39.4412 63.7358 40.0931 63.6256C40.5081 63.557 40.921 63.3963 41.0062 62.9217C41.0741 62.54 40.779 62.2961 40.5053 62.0834C40.319 61.9317 40.1187 61.8007 39.9053 61.6899C39.383 61.4356 38.8585 61.1827 38.3181 60.9707C37.6495 60.7088 36.9602 60.4982 36.2868 60.2488C34.7106 59.6655 34.3781 59.1812 34.2991 57.5316C34.2416 56.3358 34.1397 55.1421 34.0538 53.9477C34.0365 53.7086 34.0109 53.4689 33.9714 53.2334C33.9464 53.1239 33.9312 53.0137 33.9243 52.9022C33.918 52.7906 33.9208 52.6791 33.9326 52.5683C33.9444 52.4567 33.9651 52.3472 33.9956 52.2399C34.0254 52.1318 34.0642 52.0272 34.1113 51.926C34.1591 51.8249 34.2146 51.7279 34.2776 51.6364C34.3413 51.5443 34.412 51.4577 34.4896 51.3773C34.5672 51.2969 34.651 51.2235 34.7411 51.157C34.8312 51.0905 34.9261 51.0323 35.0251 50.981C35.4332 50.7302 35.8531 50.5009 36.2847 50.2937C37.2505 49.8538 38.2343 49.4547 39.2014 49.019C40.0432 48.64 40.8912 48.2672 41.7046 47.8315C43.1872 47.0368 44.311 45.8507 45.2206 44.4505C45.3294 44.2836 45.443 44.1207 45.5192 44.0078H47.7972C48.4935 45.0824 49.6235 45.5133 50.89 45.6588C51.5024 45.7315 52.1169 45.7613 52.7335 45.7496C53.0252 45.7433 53.3141 45.7094 53.5996 45.6484C53.8857 45.5881 54.1628 45.5008 54.4323 45.3879C54.7011 45.2743 54.9575 45.1371 55.2014 44.9757C55.4445 44.8149 55.6711 44.632 55.8796 44.4277C56.2877 44.0328 56.6417 43.5942 56.9417 43.112C57.241 42.6298 57.4779 42.1185 57.6511 41.5781C57.7384 41.3287 57.8438 41.0869 57.9504 40.8153C58.2407 40.8153 58.4811 40.8361 58.7167 40.8119C58.9433 40.7911 59.1663 40.7537 59.3867 40.6996C59.607 40.6456 59.8217 40.5749 60.0317 40.489C60.2416 40.4024 60.4439 40.3006 60.6386 40.1842C60.8333 40.0671 61.0182 39.9368 61.1935 39.7927C61.3681 39.6479 61.5316 39.4913 61.6833 39.3223C61.8351 39.1539 61.9729 38.9745 62.0976 38.7847C62.2224 38.5955 62.3325 38.3974 62.4281 38.1916C62.523 37.9852 62.602 37.7732 62.6658 37.5556C62.805 37.0956 62.8979 36.6272 62.9457 36.1492C63.1424 34.0049 62.4447 32.2466 60.6441 30.9863ZM44.4689 44.2094C43.8863 45.0436 43.1969 45.7773 42.4002 46.4105C41.6041 47.0437 40.734 47.5502 39.7896 47.9298C38.4587 48.473 37.1507 49.0716 35.8316 49.6453C35.2011 49.9224 34.6198 50.2813 34.0891 50.7212C33.9395 50.8376 33.8065 50.9699 33.6887 51.1189C33.5716 51.2671 33.4739 51.4279 33.3956 51.6004C33.3174 51.7729 33.2612 51.9523 33.2266 52.1387C33.192 52.3251 33.1802 52.5128 33.1913 52.702C33.2051 53.1128 33.2522 53.5216 33.2848 53.9317C33.3811 55.1601 33.4781 56.3884 33.5744 57.6168C33.5896 57.8219 33.5966 58.0276 33.6035 58.2327C33.6069 58.4655 33.6416 58.6941 33.7081 58.9179C33.7739 59.141 33.8688 59.3516 33.9928 59.5491C34.1162 59.7465 34.2644 59.9239 34.4369 60.0812C34.6088 60.2377 34.7993 60.3687 35.0071 60.474C35.4007 60.6825 35.8073 60.8606 36.2272 61.0081C37.0586 61.3255 37.9045 61.606 38.731 61.9351C39.4647 62.2275 39.5305 62.2968 39.9788 62.7776C39.8139 62.8753 39.6351 62.9342 39.4446 62.9536C39.2534 62.973 39.067 62.9522 38.8855 62.8905C37.7431 62.6266 36.5868 62.5316 35.4173 62.6065C35.2281 62.6148 35.0445 62.5891 34.8651 62.5289C34.6864 62.4686 34.5235 62.3785 34.3787 62.258C33.6721 61.7231 32.8982 61.3158 32.0571 61.0365C31.816 61.1924 31.8624 61.3636 32.0114 61.4696C32.5116 61.825 33.0194 62.1742 33.5439 62.4942C33.9056 62.709 34.2291 62.9709 34.5145 63.2806C34.8 63.5903 35.0342 63.9339 35.2184 64.3129C35.2136 64.3364 35.206 64.3593 35.1949 64.3808C35.1845 64.4029 35.1713 64.423 35.1554 64.4417C35.1402 64.4598 35.1221 64.4764 35.1027 64.4902C35.0826 64.5048 35.0619 64.5166 35.039 64.5256C35.0168 64.5339 34.9933 64.5401 34.969 64.5436C34.9455 64.5471 34.9212 64.5471 34.897 64.5443C34.8727 64.5415 34.8492 64.536 34.827 64.5277C34.8041 64.5193 34.7827 64.5083 34.7626 64.4944C34.3878 64.3281 34.0303 64.1314 33.6894 63.9041C32.9897 63.3797 32.2075 63.0575 31.3414 62.9369C30.9632 62.9044 30.598 62.8143 30.2482 62.6667C29.8976 62.5192 29.5782 62.3217 29.2907 62.0737C29.2062 62.0141 29.1133 61.9815 29.0101 61.9767C28.9512 61.9691 28.8854 62.0162 28.7856 62.0529C28.83 62.2642 28.875 62.4797 28.9346 62.761C28.4392 62.7367 27.9591 62.6383 27.4942 62.4658C27.2344 62.3785 26.976 62.2871 26.7107 62.2192C26.3933 62.1305 26.0705 62.1049 25.7428 62.1423C25.4158 62.1804 25.1068 62.2781 24.8179 62.4367C24.4264 62.6487 24.0447 62.8794 23.6442 63.0741C23.2202 63.2799 22.7921 63.5071 22.2489 63.3914C22.3023 63.2937 22.3667 63.2044 22.4422 63.1226C23.0346 62.657 23.6422 62.2109 24.2269 61.7363C24.8629 61.2208 25.5717 60.8779 26.3933 60.943C27.7 61.0469 28.4372 60.3645 28.9214 59.2622C29.2942 58.4426 29.5076 57.5835 29.563 56.685C29.6371 55.2086 29.5574 53.7398 29.3246 52.28C29.0946 50.8258 28.8023 49.382 28.5563 47.9305C28.2903 46.3578 27.3799 45.2667 26.0386 44.4879C25.6832 44.2822 25.3181 44.093 24.953 43.9053C23.8306 43.3095 22.7644 42.627 21.7536 41.858C21.3801 41.6065 21.06 41.2989 20.7947 40.9345C21.5762 40.6768 22.3085 40.435 23.1239 40.1655C23.2175 40.268 23.374 40.4384 23.5292 40.6102C24.3003 41.4936 25.1761 42.2557 26.1564 42.8986C26.9788 43.4231 27.86 43.7806 28.8563 43.7577C29.0163 43.7376 29.1722 43.703 29.3253 43.6524C29.2533 43.1799 28.7801 43.3108 28.6083 42.9963C28.3422 41.7451 28.0651 40.4405 27.7769 39.084C27.9508 38.9897 28.1288 38.9045 28.3118 38.8283C28.7274 38.678 29.1501 38.545 29.6066 38.3925C29.8574 38.5879 29.872 38.9052 29.944 39.1886C30.411 41.0135 30.8682 42.8404 31.3373 44.6639C31.4391 45.0609 31.5936 45.4447 31.6934 45.8424C31.78 46.1867 31.8236 46.5414 31.8839 46.8809C32.1375 46.919 32.2199 46.7458 32.3135 46.6149C32.8026 45.9027 33.1684 45.1323 33.4095 44.303C33.7434 43.2249 34.0607 42.1427 34.4016 41.0079C34.8762 40.8361 35.3833 40.6525 35.9729 40.4398C36.0048 40.613 36.02 40.7883 36.018 40.9643C35.7914 42.8113 35.3224 44.5939 34.6108 46.3135C34.2665 47.1345 33.9083 47.9499 33.5688 48.773C33.5141 49.0016 33.4802 49.2337 33.467 49.4693C33.776 49.1153 33.9804 48.9705 34.0607 48.7744C34.3247 48.128 34.8457 47.8876 35.4699 47.7137C36.4911 47.4296 37.4978 47.0908 38.5086 46.7708C38.7047 46.7091 38.8911 46.617 39.0878 46.5615C40.4922 46.1625 41.5404 45.257 42.4757 44.1914C42.8581 43.7556 43.2343 43.3143 43.6424 42.8418C44.0241 43.1293 44.3733 43.3926 44.6913 43.6323C44.7779 43.9233 44.5812 44.0515 44.4689 44.2094ZM23.6401 39.6881C23.9491 39.3001 24.2241 38.9551 24.5103 38.5962C25.3527 38.7452 26.1855 38.8927 27.0259 39.0417C27.3016 40.2749 27.5739 41.4929 27.851 42.733C26.6317 42.5862 25.1892 41.5351 23.6401 39.6881ZM31.0872 40.7647C31.489 40.8576 31.8735 40.976 32.2663 41.0301C32.6703 41.0855 33.0832 41.0793 33.5591 41.1028C33.4871 41.804 33.1989 42.4192 33.0104 43.0545C32.8171 43.7051 32.6952 44.3847 32.3453 45.0069C31.9276 44.2801 31.1537 41.6799 31.0872 40.7647ZM38.2689 45.9415C37.3398 46.5255 35.9618 46.9661 35.0771 46.9516C35.3653 46.1826 35.6459 45.4322 35.9196 44.702C36.7219 45.1253 37.4625 45.5161 38.2689 45.9415ZM61.7693 37.6727C61.2143 39.1338 59.7857 40.1606 58.0883 40.2798C58.0301 40.1364 57.9948 39.9881 57.9823 39.8343C58.0952 38.1875 57.39 36.9182 56.1817 35.8783C56.0431 35.7744 55.8976 35.6809 55.7466 35.597C56.4581 34.307 56.8378 33.0662 56.3888 31.7491C56.1276 30.9836 55.7764 30.2242 54.8882 29.7829C54.8667 29.9235 54.8688 30.0628 54.8944 30.2027C55.1383 30.7279 55.4695 31.2219 55.6468 31.7671C56.0951 33.1465 55.8713 34.4026 54.7843 35.4377C54.7351 35.4848 54.6589 35.5257 54.6436 35.5825C54.6111 35.7009 54.5577 35.8665 54.6118 35.942C54.7129 36.03 54.83 36.0674 54.9637 36.0536C55.0967 36.028 55.2235 35.9843 55.3441 35.9226C56.4574 36.8185 57.1606 38.2124 57.1246 39.5717C57.1177 39.9493 57.0761 40.3234 56.9985 40.6934C56.9209 41.0633 56.8094 41.4229 56.6639 41.7714C56.5177 42.1206 56.341 42.4524 56.1325 42.7677C55.924 43.0829 55.6877 43.3753 55.4231 43.6455C55.2471 43.8339 55.0545 44.0037 54.8452 44.154C54.636 44.305 54.4143 44.4339 54.1808 44.542C53.9467 44.6494 53.7042 44.7339 53.4534 44.7949C53.2033 44.8558 52.949 44.8918 52.6913 44.9029C51.8308 44.9556 50.98 44.8849 50.1389 44.6923C49.8452 44.6431 49.5681 44.5468 49.3062 44.4041C49.045 44.2614 48.8143 44.0799 48.6141 43.8589C48.6986 43.4425 49.3103 43.5762 49.3838 43.0801C49.2778 43.0275 49.1655 42.997 49.0478 42.988C48.5725 43.0476 48.1028 43.148 47.6268 43.2055C47.0102 43.2866 46.3977 43.2596 45.7901 43.1259C45.5698 43.0843 45.3585 43.0157 45.1555 42.9215C44.9525 42.8266 44.7648 42.7074 44.5923 42.5654C44.419 42.4233 44.2666 42.2619 44.1343 42.0811C44.002 41.9003 43.8946 41.7056 43.8114 41.4977C43.6542 41.1271 43.4332 40.7647 43.4948 40.2943C44.1191 39.9084 45.0149 39.9853 45.5913 39.172C45.2989 39.226 45.1396 39.2551 44.9795 39.2842C44.4419 39.384 43.9071 39.501 43.366 39.5779C43.2475 39.6022 43.1276 39.6091 43.0071 39.5994C42.8865 39.5897 42.7701 39.5627 42.6572 39.5191C42.5443 39.4761 42.4397 39.4179 42.3427 39.3445C42.2464 39.271 42.1625 39.1858 42.0905 39.0888C42.015 38.9738 41.9242 38.8727 41.8175 38.7861C41.7275 38.7306 41.6332 38.7216 41.5349 38.7583C41.4496 38.8207 41.4053 38.9045 41.4032 39.0098C41.4198 39.2191 41.4857 39.4117 41.6 39.5876C41.715 39.7636 41.8653 39.9015 42.0503 40.0006C42.2921 40.1336 42.5422 40.2493 42.7999 40.3477C42.944 40.931 43.0902 41.5227 43.2503 42.1725C42.4244 43.0275 41.7178 44.0383 40.7471 44.8191C40.6259 44.9265 40.4935 45.0179 40.3494 45.0935C40.206 45.169 40.055 45.2258 39.897 45.2639C39.7398 45.302 39.5797 45.3207 39.4176 45.3193C39.2555 45.3186 39.0954 45.2978 38.9382 45.2577C37.8879 45.0172 36.9075 44.6632 36.2071 43.8194C36.3865 42.5619 36.5604 41.3481 36.7447 40.0574C37.1535 39.7207 37.6585 39.3632 38.0916 38.9329C38.5183 38.4874 38.9146 38.017 39.2818 37.521C39.676 37.0582 39.9795 36.5427 40.1936 35.9732C39.9483 35.7418 39.8437 35.9067 39.7335 36.03C39.0255 36.8198 38.3534 37.6457 37.6031 38.3925C37.1389 38.8546 36.6193 39.2426 36.0436 39.5565C35.4679 39.8696 34.8596 40.0962 34.2194 40.2347C32.9952 40.5112 31.8396 40.3996 30.7061 39.6583C30.5599 39.1193 30.3999 38.529 30.2239 37.8792C31.162 36.9667 31.8008 35.8374 32.4111 34.6728C33.7095 34.8626 34.7134 34.2703 35.6979 33.6322C35.8572 33.529 36.0727 33.4285 35.9507 33.0939C35.8323 33.0987 35.7159 33.116 35.6009 33.1451C35.0861 33.3308 34.5804 33.5428 34.0621 33.7188C33.0686 34.0562 32.1728 33.9578 31.4599 33.0932C31.3477 32.9622 31.2153 32.8569 31.0636 32.7766C31.0186 32.7537 30.9715 32.7461 30.9216 32.753C30.8717 32.7599 30.8288 32.7807 30.792 32.8154C30.7553 32.85 30.7325 32.8923 30.7221 32.9415C30.7124 32.9906 30.7172 33.0384 30.7373 33.0842C30.8759 33.3578 31.0373 33.6176 31.2209 33.8629C31.417 34.0867 31.6262 34.2973 31.8472 34.4961C31.7689 34.6673 31.6761 34.8301 31.5694 34.9853C31.0311 35.6504 30.4997 36.3231 29.9281 36.9584C29.7445 37.1642 29.5401 37.3464 29.315 37.505C29.0898 37.6637 28.8494 37.7953 28.5944 37.8993C28.3388 38.0032 28.0755 38.0773 27.8032 38.1209C27.5316 38.1646 27.258 38.1771 26.9829 38.1584C26.2472 38.1445 25.5308 38.0198 24.8338 37.7849V36.6633C24.6405 36.7713 24.4916 36.8053 24.4348 36.896C24.2761 37.1607 24.1348 37.433 24.0101 37.715C23.0408 39.8128 20.9582 40.5029 18.852 39.3964C18.7647 39.041 19.0786 38.7812 19.125 38.4535C19.1673 38.1535 19.2144 37.8528 19.2289 37.5508C19.2317 37.4863 19.1084 37.3789 19.0273 37.3589C18.9255 37.3457 18.8347 37.372 18.755 37.4364C18.6788 37.5071 18.6283 37.593 18.604 37.6942C18.365 38.6212 17.8253 39.359 17.1685 40.0297C17.0646 40.1793 16.9814 40.3393 16.9191 40.5105C17.3188 40.5694 17.5211 40.3816 17.7352 40.2389C17.9341 40.1066 18.1301 39.9701 18.3394 39.8274C18.6802 40.0158 19.0114 40.1911 19.3328 40.3816C19.4534 40.4467 19.5546 40.5347 19.6342 40.6463C20.2273 41.5947 21.049 42.3118 21.9413 42.9603C22.0251 43.042 22.0993 43.1328 22.163 43.2319C21.1487 44.1866 20.079 45.0242 18.6941 45.3387C18.1114 45.4717 17.51 45.6837 16.8588 45.3498C17.1477 44.7928 17.7962 44.5932 17.9819 44.0272C17.8294 43.8291 17.6798 43.906 17.5405 44.0106C16.7237 44.6417 15.8459 45.1711 14.9058 45.5978C14.5372 45.7807 14.1561 45.9318 13.7626 46.0516C12.0645 46.4819 10.4981 46.2879 9.20734 44.975C9.09094 44.8323 8.98633 44.6805 8.89418 44.5212C9.3944 44.2108 10.0221 44.2863 10.3761 43.8589C10.3491 43.6365 10.2071 43.6295 10.0727 43.6455C9.63065 43.6967 9.19001 43.7605 8.748 43.8159C7.92285 43.9087 7.10533 43.8672 6.29404 43.6905C6.12499 43.6607 5.95803 43.6205 5.79452 43.5679C5.63032 43.5159 5.47098 43.4529 5.31578 43.3794C5.16059 43.306 5.01095 43.2215 4.86684 43.1279C4.72343 43.0337 4.58625 42.9305 4.45669 42.8176C4.32644 42.7046 4.2052 42.5841 4.09158 42.4545C3.97865 42.3257 3.87403 42.1892 3.77912 42.0458C3.6849 41.9023 3.59968 41.7534 3.52555 41.5989C3.45072 41.4437 3.38698 41.2844 3.33433 41.1208C3.03018 40.2784 2.94289 39.4137 3.07245 38.5276C3.42024 38.3066 3.69875 38.8671 4.07841 38.5041C2.93596 37.4676 2.0734 36.258 1.83923 34.7102C1.68196 33.6682 1.91406 32.6664 2.29649 31.6965C2.99139 29.9326 4.77816 28.495 6.20259 28.5455C6.24 28.7167 6.28573 28.903 6.32037 29.0915C6.38827 29.4621 6.4333 29.8369 6.5199 30.2021C6.57325 30.4009 6.65569 30.5866 6.76724 30.7598C6.78525 30.7993 6.81088 30.8339 6.84345 30.8623C6.87601 30.8914 6.91342 30.9129 6.9543 30.9261C6.99586 30.9399 7.03813 30.9448 7.08177 30.9406C7.12542 30.9371 7.1663 30.9247 7.2044 30.9032C7.30902 30.8152 7.35959 30.7023 7.35613 30.5651C7.3201 30.3635 7.27161 30.1646 7.21202 29.9693C6.84552 28.0391 7.05545 26.2184 8.2367 24.5819C8.63091 24.0346 9.10549 23.569 9.65975 23.1845C10.214 22.8007 10.8161 22.5194 11.4666 22.3407C11.7957 22.2458 12.1296 22.1695 12.467 22.1127C12.7421 22.0691 12.995 21.97 13.2264 21.8148C13.4571 21.6603 13.6455 21.4649 13.791 21.2273C14.0487 20.8324 14.3196 20.4458 14.5746 20.071C15.0374 20.2137 15.1808 20.7465 15.6769 20.7077C15.8896 20.4167 15.663 20.1818 15.5383 19.9678C15.151 19.3477 14.9141 18.6743 14.8282 17.9482C14.5753 15.2739 15.2674 12.9177 17.2724 11.0519C17.5793 10.7492 17.9188 10.4887 18.2902 10.2697C18.6615 10.0501 19.0536 9.87897 19.4666 9.75635C19.8795 9.63302 20.3014 9.56236 20.7323 9.54226C21.1633 9.52287 21.5894 9.55612 22.012 9.64134C22.7477 9.77505 23.4988 9.87274 24.1846 10.2434C24.3738 11.2251 24.5602 12.1902 24.7555 13.2038C24.5117 13.3541 24.2415 13.4962 23.9976 13.6749C22.7914 14.5562 22.0757 15.7007 22.1284 17.2429C22.1214 17.4334 22.1498 17.6191 22.2136 17.7986C22.2773 17.978 22.3722 18.1401 22.4976 18.2828C22.6265 18.3771 22.7637 18.4554 22.9106 18.517C22.9542 18.3341 22.9736 18.1491 22.9688 17.9614C22.6667 16.494 23.2099 15.3453 24.29 14.3941C24.5144 14.1959 24.7431 14.004 25.0112 13.7747C25.2509 14.0373 25.4483 14.2541 25.6319 14.4557C25.9208 14.3587 25.8633 14.1654 25.8322 14.0213C25.758 13.6874 25.6666 13.3583 25.5564 13.0341C25.3139 12.335 25.1574 11.6173 25.0853 10.8808C25.0139 10.1443 25.0292 9.40994 25.1324 8.67763C25.2384 7.93216 25.2987 7.1756 25.4664 6.44468C25.9991 4.13068 27.364 2.53373 29.6496 1.78757C29.9655 1.67464 30.2897 1.59497 30.6216 1.54855C30.9542 1.50282 31.2874 1.49104 31.622 1.5146C31.9567 1.53746 32.2851 1.59497 32.6079 1.68642C32.9308 1.77718 33.2404 1.90119 33.5377 2.05708C33.9014 2.24691 34.2589 2.44852 34.6101 2.6619C34.7633 2.77345 34.9067 2.89608 35.0411 3.02979C34.6864 3.45656 34.0344 3.53624 33.8384 4.17294C33.97 4.21451 34.1044 4.23321 34.2423 4.23113C34.4418 4.18056 34.6337 4.10851 34.8173 4.01567C36.3831 3.25911 37.9537 3.36442 39.482 4.07733C41.8452 5.1796 43.1505 7.09454 43.5121 9.64965C43.711 11.0893 43.6653 12.5207 43.3743 13.9437C43.3528 14.1169 43.3431 14.2901 43.3452 14.4647C43.9756 14.1273 43.993 14.0698 44.4163 11.0332C44.5735 10.9674 44.7364 10.9258 44.9054 10.9092C45.0744 10.8933 45.2421 10.9016 45.4084 10.9362C45.5754 10.9709 45.7326 11.029 45.8816 11.1108C46.0305 11.1932 46.1636 11.2951 46.2813 11.4177C46.5259 11.6373 46.7289 11.8902 46.8917 12.1757C47.0545 12.4611 47.1674 12.7646 47.2319 13.0874C47.3067 13.4899 47.3545 13.8987 47.3975 14.3061C47.3995 14.3754 47.4134 14.4419 47.439 14.5056C47.4647 14.57 47.5007 14.6275 47.5471 14.6788C47.5935 14.7301 47.6476 14.7716 47.7085 14.8035C47.7695 14.8354 47.8346 14.8555 47.9032 14.8638C47.9365 14.8721 47.9704 14.8776 48.0044 14.8811C48.9043 14.9324 49.4295 15.5095 49.7995 16.2356C49.965 16.5473 50.0925 16.8743 50.1812 17.2166C50.2692 17.5588 50.3163 17.9066 50.3225 18.26C50.3288 18.6126 50.2934 18.9618 50.2172 19.3068C50.141 19.6518 50.0253 19.983 49.8708 20.301C49.5494 20.9453 49.1655 21.5502 48.7187 22.1141C48.5171 22.3961 48.2732 22.6358 47.9884 22.8326C47.703 23.03 47.3926 23.1727 47.0573 23.2607C46.9354 23.3037 46.8183 23.357 46.7053 23.4208C46.8231 23.7 47.0324 23.6951 47.2395 23.666C47.5471 23.6189 47.8402 23.5254 48.118 23.3854C48.3965 23.2462 48.6459 23.0667 48.8676 22.8485C50.3981 21.4227 51.334 19.7454 51.0354 17.5651C51.0327 17.4923 51.0361 17.4196 51.0472 17.3475C51.2038 17.0053 51.5585 16.9256 51.8668 16.7988C52.9954 16.3374 54.1199 16.2723 55.2408 16.848C56.9576 17.73 57.8098 19.3685 57.4495 21.2841C57.2694 22.0504 57.0429 22.8021 56.7699 23.5399C56.7075 23.7332 56.5842 23.9064 56.5045 24.0956C56.3736 24.4066 56.463 24.6533 56.8142 24.7073C57.4911 24.8106 57.8902 25.2602 58.292 25.7341C58.5407 26.0091 58.7513 26.3105 58.9245 26.6382C59.0971 26.9659 59.2266 27.3095 59.3125 27.6705C59.3991 28.0308 59.4386 28.3959 59.4331 28.7665C59.4268 29.1372 59.3749 29.5009 59.2772 29.8584C59.2363 30.0247 59.1892 30.1896 59.1587 30.3579C59.1393 30.4418 59.1331 30.527 59.14 30.6136C59.1462 30.6995 59.1663 30.7826 59.1989 30.863C59.2315 30.9434 59.2751 31.0168 59.3298 31.0833C59.3853 31.1498 59.449 31.2066 59.5218 31.2538C59.7171 31.3916 59.9277 31.508 60.128 31.6397C61.542 32.5653 62.16 33.9183 62.1697 35.5624C62.1676 36.2905 62.0346 36.9944 61.7693 37.6727ZM14.6487 24.1475C14.4942 24.4732 14.2122 24.5029 13.9573 24.5653C13.6878 24.6283 13.4363 24.7316 13.2007 24.8764C12.9659 25.0219 12.7601 25.1999 12.5834 25.4126C11.8913 26.2398 11.6814 27.1544 12.122 28.2303C12.3396 28.0952 12.5294 27.9636 12.7324 27.8569C12.767 27.8319 12.8058 27.8132 12.8474 27.8014C12.889 27.7897 12.9312 27.7848 12.9749 27.7876C13.0178 27.7911 13.0594 27.8014 13.0989 27.8188C13.1384 27.8361 13.1737 27.8596 13.2049 27.8901C13.2354 27.9206 13.2582 27.9559 13.2742 27.9954C13.2901 28.0356 13.2977 28.0772 13.2977 28.1201C13.297 28.1624 13.288 28.204 13.2714 28.2435C13.2548 28.283 13.2305 28.3176 13.2 28.3474C13.1599 28.4028 13.1162 28.4555 13.0684 28.5047C12.907 28.6716 12.7656 28.8538 12.6444 29.052C12.5238 29.2501 12.4262 29.4587 12.3513 29.6783C12.2772 29.8986 12.228 30.1238 12.2038 30.3545C12.1795 30.5852 12.1809 30.8159 12.2079 31.0466C12.21 31.1478 12.1996 31.2475 12.1774 31.3466C12.1726 31.3743 12.14 31.3979 12.0209 31.5517C11.371 30.7182 11.4583 29.8757 11.7472 29.0056C11.5934 28.5892 11.4327 28.1756 11.2872 27.7571C10.6796 26.0077 12.298 24.1025 13.7384 23.8753C14.0889 23.8198 14.4028 23.833 14.6487 24.1475ZM33.3444 16.2757C33.4878 16.2231 33.6444 16.2037 33.9672 16.1296C33.8564 16.318 33.7275 16.4926 33.5799 16.654C32.0918 17.8131 30.4512 18.0916 28.6672 17.4681C27.9723 17.2249 27.4402 16.7441 26.9407 16.2259C26.8679 16.1497 26.825 16.0596 26.8125 15.955C26.8153 15.8559 26.8478 15.7679 26.9109 15.691C26.9677 15.6474 27.0287 15.6391 27.0952 15.664C27.3051 15.7748 27.5019 15.9051 27.6868 16.054C28.909 17.1341 30.3237 17.2388 31.8174 16.8508C32.3405 16.715 32.8338 16.4649 33.3444 16.2757ZM47.0289 29.7573C47.1959 31.0508 46.8889 32.1974 45.9529 33.141C45.9363 33.1583 45.8906 33.1472 45.7202 33.1597C45.6945 32.6158 45.989 32.2064 46.0867 31.7519C46.2148 31.2912 46.3104 30.8235 46.3728 30.3496C46.3735 29.8674 46.3402 29.388 46.2723 28.9113C46.4227 28.9342 46.5363 28.9183 46.6028 28.9675C46.7261 29.0631 46.8245 29.1802 46.8986 29.3173C46.9728 29.4552 47.0164 29.6014 47.0289 29.7573ZM11.3883 39.7782C11.0745 39.8017 10.762 39.799 10.4489 39.7692C10.2951 39.747 10.1489 39.7013 10.0103 39.6313C9.87105 39.562 9.74704 39.4726 9.63688 39.3625C9.52742 39.253 9.43735 39.129 9.36738 38.9897C9.2974 38.8512 9.25168 38.705 9.22881 38.5512C9.15537 38.1895 9.0951 37.805 9.29671 37.4558C9.35491 37.3713 9.43527 37.3256 9.53712 37.3187C9.64242 37.327 9.7221 37.3762 9.77683 37.4662C9.83988 37.6609 9.87867 37.8605 9.89253 38.0648C9.94865 38.766 10.3366 39.181 10.99 39.3805C11.1396 39.4262 11.3398 39.4027 11.3883 39.7782ZM48.1104 32.1295C48.56 32.701 48.4928 33.2082 48.3529 33.7022C48.312 33.8587 48.2531 34.0084 48.1755 34.1511C48.0986 34.2931 48.0051 34.4241 47.8956 34.5439C47.7868 34.6631 47.6642 34.7677 47.5298 34.8578C47.3947 34.9472 47.2513 35.0199 47.0989 35.0746C47.112 34.8619 47.0795 34.7185 47.1335 34.6271C47.5146 34.007 47.7633 33.3377 47.8811 32.62C47.9392 32.4482 48.0155 32.2847 48.1104 32.1295ZM21.7037 24.5487C21.7681 24.6159 21.8582 24.7364 21.8353 24.796C21.5603 25.5235 21.2665 26.2447 20.8986 27.1634C20.5695 26.0313 20.7109 25.2553 21.2526 24.672C21.3282 24.6013 21.4155 24.5521 21.5145 24.5237C21.5817 24.5016 21.6448 24.5099 21.7037 24.5487ZM43.1983 23.4603C43.9521 23.6979 44.5819 23.896 45.2664 24.1115C45.2068 24.2293 45.1791 24.3879 45.0904 24.4371C44.9172 24.5411 44.7294 24.5999 44.5278 24.6145C43.8974 24.6277 43.5336 24.3173 43.1983 23.4603ZM25.7123 23.4021C25.8017 23.9591 25.5647 24.708 24.937 25.6655C24.7146 24.9512 24.8885 24.4538 25.0825 23.9639C25.1989 23.6716 25.2751 23.6217 25.7123 23.4021ZM23.8666 24.5438C23.5867 25.1667 23.2376 25.7472 22.8184 26.287C22.5392 25.6946 22.727 25.29 22.9182 24.9152C23.0664 24.6554 23.2528 24.4254 23.4766 24.2258C23.5299 24.1732 23.7253 24.2244 23.8265 24.2806C23.8763 24.3076 23.9006 24.4745 23.8666 24.5438ZM11.953 37.6866C12.4442 38.1577 12.8716 38.5671 13.3552 39.0306C13.2652 39.0916 13.1744 39.2073 13.085 39.2066C12.3063 39.1997 11.8955 38.8671 11.7611 38.1189C11.7403 38.0046 11.8712 37.8625 11.953 37.6866ZM14.4014 33.5317C13.9497 33.8587 13.7737 33.6654 13.6365 33.4825C13.3816 33.1444 13.3947 32.9415 13.6573 32.3311C14.0487 32.6719 13.9289 33.2359 14.4014 33.5317ZM31.6629 5.75602C31.8361 5.37151 32.1396 5.15951 32.6841 5.07914C32.6578 5.28283 32.5878 5.47128 32.4742 5.64309C32.3606 5.81491 32.2151 5.95278 32.037 6.05671C31.9629 6.10867 31.7932 6.06779 31.692 6.01791C31.6477 5.99574 31.6303 5.82946 31.6629 5.75602Z" fill="white"/>
</g>
</svg>
