<svg width="246" height="195" viewBox="0 0 246 195" fill="none" xmlns="http://www.w3.org/2000/svg">
<mask id="mask0_126_852" style="mask-type:luminance" maskUnits="userSpaceOnUse" x="0" y="-1" width="246" height="196">
<path d="M0.914062 0.398438H244.624V193.98H0.914062V0.398438Z" fill="white" stroke="white"/>
</mask>
<g mask="url(#mask0_126_852)">
<path d="M244.715 1.20695C244.643 1.08474 244.54 0.990303 244.412 0.92642C244.282 0.862537 244.146 0.840317 244.001 0.859759C170.964 11.1838 87.1799 11.0671 1.71023 0.529235C1.49914 0.504238 1.31305 0.559788 1.15195 0.701441C0.990857 0.843094 0.913086 1.01808 0.913086 1.23195C0.913086 2.14297 2.78791 5.5482 8.34293 14.7334C9.01787 15.8472 9.55115 16.7277 9.69836 16.9916C9.82057 17.2138 10.0067 17.336 10.2594 17.3554C12.2065 17.5165 14.1396 17.6665 16.07 17.8193C16.2922 18.0526 16.7338 18.5331 17.3226 19.183C24.9275 27.5461 28.4827 30.8486 30.002 30.9541C37.5485 31.4846 45.9532 31.9207 55.2135 32.2595C55.1329 34.3732 54.8746 40.9282 54.5108 49.9273C42.2897 49.9412 31.1102 49.9912 20.3751 50.0829C20.189 50.0829 20.0279 50.1495 19.8918 50.2801C19.7557 50.4078 19.6835 50.5661 19.6724 50.755C19.453 54.8102 19.1641 62.0067 19.7057 64.637C19.7391 64.8009 19.8224 64.937 19.9529 65.0453C20.0835 65.1509 20.2335 65.2036 20.4001 65.2036L53.8886 65.1731C52.6943 94.1564 51.0111 133.197 50.1167 145.427C50.1167 145.432 50.1167 145.438 50.1167 145.446H50.114L48.5947 179.471H48.3502C46.4949 179.471 44.9089 181.057 44.6645 183.165C44.4617 184.892 44.2229 187.103 44.0201 189.084C43.9451 189.728 44.0034 190.361 44.1951 190.983C44.3895 191.606 44.6978 192.161 45.1255 192.65C45.4505 193.025 45.8394 193.316 46.2893 193.528C46.7421 193.736 47.2142 193.841 47.7114 193.847C51.9999 193.853 57.3022 193.861 62.0212 193.861C64.657 193.861 67.1123 193.861 69.1066 193.853C69.5843 193.847 70.0426 193.747 70.4787 193.553C70.9148 193.358 71.2925 193.086 71.6175 192.733C72.0397 192.272 72.3535 191.747 72.5618 191.158C72.7701 190.567 72.8562 189.961 72.8174 189.336C72.7729 188.428 72.7257 187.517 72.6757 186.606C72.6202 185.573 72.5674 184.542 72.5146 183.512C72.423 181.579 71.2203 180.007 69.6427 179.584L71.0675 145.507C72.048 120.468 72.6452 104.38 73.2229 88.8208C73.5006 81.3632 73.7812 73.7806 74.1089 65.1536L86.2827 65.1398L86.3077 67.945L85.1523 68.6589C85.0134 68.7422 84.919 68.8588 84.8607 69.0088L82.7303 74.5916C82.6609 74.775 82.6664 74.9527 82.7442 75.1305C82.822 75.3082 82.9525 75.4332 83.133 75.5054L84.2218 75.936L83.1941 77.7386C83.1442 77.8274 83.1136 77.9219 83.1053 78.0219C83.0942 78.1246 83.1053 78.2218 83.1386 78.3191C83.1719 78.4135 83.2219 78.4996 83.2914 78.5718C83.3608 78.6468 83.4413 78.7051 83.5358 78.744L84.844 79.2995L83.933 80.8327C83.883 80.9216 83.8496 81.016 83.8385 81.116C83.8274 81.216 83.8385 81.316 83.8691 81.4132C83.8996 81.5104 83.9496 81.5965 84.0163 81.6715C84.0857 81.7465 84.1663 81.8048 84.2607 81.8465L85.2356 82.2715L83.8802 84.8407C83.7941 85.0101 83.7746 85.1851 83.8274 85.3656C83.8774 85.5489 83.9857 85.6878 84.1468 85.7822L86.205 87.0043C86.2883 87.0543 86.38 87.0849 86.4744 87.0988C86.5716 87.1099 86.666 87.1043 86.7605 87.0793C86.8521 87.0516 86.9382 87.0071 87.0132 86.946C87.0882 86.8877 87.1493 86.8127 87.1938 86.7266L90.4407 80.6216C90.4851 80.5355 90.5101 80.4466 90.5212 80.3522C90.5296 80.2578 90.5185 80.1661 90.4907 80.0744C90.4629 79.9828 90.4157 79.9022 90.3546 79.83C90.2935 79.7578 90.2213 79.6995 90.1352 79.655L89.0797 79.1162L89.7713 77.4553C89.8407 77.283 89.8463 77.1108 89.7796 76.9359C89.7158 76.7609 89.6019 76.6331 89.4352 76.547L88.2381 75.9498L89.1325 74.0278C89.1769 73.9361 89.1991 73.8389 89.1991 73.7362C89.2019 73.6334 89.1797 73.5362 89.1408 73.4417C89.0991 73.3501 89.0408 73.2695 88.963 73.2001C88.8881 73.1334 88.8019 73.0834 88.7047 73.0529L87.4715 72.664L88.5075 70.3559C88.5881 70.1754 88.5936 69.9949 88.5214 69.8115L87.8243 67.995C87.7993 67.9339 87.7659 67.8756 87.7243 67.8228L87.7021 65.1398L100.848 65.1286L100.873 67.945L99.7176 68.6589C99.5787 68.7422 99.4815 68.8588 99.4259 69.0088L97.2956 74.5916C97.2261 74.775 97.2317 74.9527 97.3095 75.1305C97.3872 75.3082 97.5178 75.4332 97.6983 75.5054L98.7871 75.9387L97.7594 77.7386C97.7094 77.8274 97.6789 77.9219 97.6705 78.0219C97.6594 78.1246 97.6733 78.2218 97.7039 78.3191C97.7372 78.4135 97.7872 78.4996 97.8566 78.5746C97.9261 78.6468 98.0066 78.7051 98.1011 78.744L99.4093 79.2995L98.4982 80.8327C98.4483 80.9216 98.4149 81.016 98.4038 81.116C98.3927 81.2188 98.4038 81.316 98.4344 81.4132C98.4649 81.5104 98.5149 81.5965 98.5844 81.6715C98.651 81.7465 98.7316 81.8048 98.826 81.8465L99.8009 82.2715L98.4483 84.8434C98.3594 85.0101 98.3399 85.1851 98.3927 85.3656C98.4427 85.5489 98.551 85.6878 98.7121 85.785L100.773 87.0043C100.884 87.071 101.004 87.1043 101.134 87.1043C101.42 87.1043 101.629 86.9793 101.762 86.7266L105.006 80.6188C105.05 80.5355 105.078 80.4466 105.087 80.3522C105.095 80.255 105.084 80.1633 105.056 80.0717C105.028 79.9828 104.984 79.8995 104.92 79.8272C104.859 79.755 104.787 79.6967 104.7 79.655L103.648 79.1134L104.337 77.4525C104.409 77.2803 104.412 77.1081 104.345 76.9331C104.281 76.7581 104.164 76.6276 103.998 76.5442L102.801 75.9471L103.698 74.025C103.739 73.9334 103.762 73.8362 103.764 73.7334C103.764 73.6306 103.745 73.5334 103.703 73.439C103.662 73.3473 103.603 73.2668 103.528 73.1973C103.451 73.1307 103.364 73.0807 103.267 73.0501L102.037 72.6613L103.07 70.3532C103.151 70.1726 103.156 69.9921 103.087 69.806L102.387 67.9923C102.362 67.9312 102.328 67.8728 102.287 67.8201L102.265 65.1231L113.533 65.112L113.558 67.9423L112.402 68.6561C112.266 68.7394 112.169 68.8561 112.111 69.0061L109.98 74.5889C109.911 74.7722 109.917 74.9499 109.994 75.1277C110.072 75.3055 110.203 75.4304 110.383 75.5027L111.472 75.936L110.447 77.7358C110.394 77.8247 110.367 77.9191 110.355 78.0191C110.347 78.1219 110.358 78.2191 110.392 78.3163C110.422 78.4107 110.475 78.4968 110.542 78.5718C110.611 78.644 110.692 78.7024 110.786 78.7412L112.097 79.2967L111.186 80.8299C111.133 80.9188 111.103 81.0132 111.091 81.1132C111.078 81.216 111.089 81.3132 111.119 81.4104C111.15 81.5076 111.2 81.5937 111.269 81.6687C111.339 81.7437 111.419 81.8021 111.511 81.8437L112.486 82.2687L111.133 84.8407C111.044 85.0073 111.025 85.1823 111.078 85.3628C111.13 85.5462 111.236 85.685 111.4 85.7822L113.458 87.0016C113.569 87.0682 113.688 87.1016 113.819 87.1016C113.886 87.1016 113.95 87.0932 114.011 87.0766C114.208 87.021 114.352 86.9044 114.447 86.7238L117.691 80.6188C117.735 80.5355 117.763 80.4439 117.771 80.3494C117.78 80.255 117.771 80.1633 117.741 80.0717C117.713 79.98 117.669 79.8995 117.608 79.8272C117.546 79.755 117.471 79.6967 117.388 79.6523L116.333 79.1134L117.021 77.4525C117.094 77.2803 117.096 77.1053 117.033 76.9331C116.966 76.7581 116.852 76.6276 116.685 76.5442L115.488 75.9471L116.383 74.025C116.424 73.9334 116.447 73.8362 116.449 73.7334C116.449 73.6306 116.43 73.5334 116.388 73.439C116.347 73.3445 116.288 73.264 116.213 73.1973C116.138 73.1279 116.049 73.0779 115.952 73.0473L114.722 72.6613L115.758 70.3504C115.838 70.1726 115.841 69.9893 115.772 69.806L115.074 67.9923C115.049 67.9284 115.016 67.8701 114.972 67.8173L114.949 65.1092L129.809 65.0953L129.831 67.9423L128.676 68.6533C128.54 68.7394 128.443 68.8561 128.387 69.0061L126.257 74.5889C126.187 74.7694 126.19 74.9499 126.271 75.1277C126.348 75.3055 126.476 75.4304 126.657 75.5027L127.745 75.9332L126.721 77.7358C126.671 77.8247 126.64 77.9191 126.632 78.0191C126.621 78.1191 126.632 78.2191 126.665 78.3135C126.698 78.4107 126.748 78.4968 126.818 78.569C126.884 78.644 126.968 78.7024 127.059 78.7412L128.37 79.2967L127.459 80.8299C127.407 80.916 127.376 81.0105 127.365 81.1132C127.354 81.2132 127.362 81.3132 127.395 81.4104C127.426 81.5076 127.476 81.5937 127.543 81.6687C127.612 81.7437 127.693 81.8021 127.787 81.8437L128.762 82.2687L127.407 84.8379C127.318 85.0073 127.301 85.1795 127.351 85.3628C127.404 85.5434 127.509 85.685 127.673 85.7795L129.731 87.0016C129.842 87.0682 129.965 87.1016 130.095 87.1016C130.379 87.1016 130.59 86.9738 130.72 86.721L133.967 80.6161C134.012 80.5327 134.037 80.4411 134.048 80.3466C134.056 80.2522 134.045 80.1606 134.017 80.0689C133.987 79.9772 133.942 79.8967 133.881 79.8245C133.82 79.7523 133.748 79.6939 133.662 79.6495L132.606 79.1107L133.298 77.4497C133.367 77.2775 133.373 77.1025 133.306 76.9275C133.242 76.7553 133.126 76.6248 132.959 76.5415L131.762 75.9443L132.656 74.0222C132.701 73.9306 132.723 73.8334 132.723 73.7306C132.726 73.6278 132.703 73.5306 132.664 73.4362C132.623 73.3418 132.564 73.2612 132.487 73.1945C132.412 73.1251 132.323 73.0751 132.226 73.0446L130.995 72.6585L132.031 70.3476C132.112 70.1698 132.117 69.9865 132.045 69.8032L131.348 67.9895C131.323 67.9256 131.29 67.8673 131.248 67.8145L131.223 65.0925L144.372 65.0787L144.394 67.9395L143.238 68.6505C143.102 68.7366 143.005 68.8533 142.95 69.0033L140.819 74.5861C140.75 74.7666 140.755 74.9472 140.833 75.1249C140.911 75.3027 141.041 75.4277 141.222 75.4999L142.311 75.9304L141.283 77.733C141.233 77.8219 141.203 77.9163 141.194 78.0163C141.183 78.1163 141.194 78.2163 141.228 78.3107C141.261 78.4079 141.311 78.494 141.38 78.5663C141.45 78.6413 141.53 78.6996 141.625 78.7385L142.933 79.294L142.022 80.8272C141.972 80.9133 141.939 81.0077 141.927 81.1105C141.916 81.2105 141.927 81.3104 141.958 81.4077C141.989 81.5049 142.039 81.591 142.105 81.666C142.175 81.741 142.255 81.7993 142.35 81.8409L143.325 82.2659L141.969 84.8351C141.883 85.0045 141.864 85.1767 141.916 85.3601C141.966 85.5406 142.075 85.6822 142.236 85.7767L144.294 86.9988C144.377 87.0488 144.469 87.0793 144.563 87.0932C144.661 87.1043 144.755 87.0988 144.849 87.071C144.944 87.046 145.027 87.0016 145.102 86.9405C145.177 86.8794 145.238 86.8071 145.285 86.721L148.53 80.6161C148.574 80.53 148.602 80.4411 148.61 80.3466C148.618 80.2522 148.607 80.1578 148.58 80.0689C148.552 79.9772 148.507 79.8967 148.446 79.8217C148.382 79.7495 148.31 79.6912 148.227 79.6495L147.188 79.1162L147.877 77.4553C147.949 77.283 147.952 77.1108 147.888 76.9359C147.821 76.7609 147.707 76.6303 147.541 76.547L146.344 75.9498L147.238 74.0278C147.282 73.9361 147.305 73.8389 147.305 73.7362C147.305 73.6334 147.285 73.5362 147.244 73.4417C147.205 73.3501 147.144 73.2695 147.069 73.2001C146.994 73.1334 146.905 73.0834 146.808 73.0529L145.577 72.664L146.613 70.3559C146.694 70.1754 146.696 69.9949 146.627 69.8115L145.93 67.995C145.905 67.9339 145.872 67.8756 145.827 67.8228L145.805 65.0842L157.076 65.0731L157.098 67.945L155.946 68.6589C155.807 68.7422 155.709 68.8588 155.654 69.0088L153.524 74.5916C153.454 74.775 153.46 74.9527 153.537 75.1305C153.615 75.3082 153.746 75.4332 153.926 75.5054L155.015 75.9387L153.987 77.7386C153.937 77.8274 153.907 77.9219 153.899 78.0219C153.887 78.1246 153.899 78.2218 153.932 78.3191C153.965 78.4135 154.015 78.4996 154.085 78.5746C154.154 78.6468 154.235 78.7051 154.329 78.744L155.637 79.2995L154.726 80.8327C154.676 80.9216 154.643 81.016 154.632 81.116C154.621 81.2188 154.632 81.316 154.662 81.4132C154.693 81.5104 154.743 81.5965 154.812 81.6715C154.879 81.7465 154.96 81.8048 155.054 81.8465L156.029 82.2715L154.673 84.8434C154.587 85.0101 154.568 85.1851 154.621 85.3656C154.671 85.5489 154.779 85.6878 154.94 85.785L156.998 87.0043C157.112 87.071 157.232 87.1043 157.362 87.1043C157.426 87.1043 157.49 87.096 157.551 87.0793C157.745 87.0238 157.893 86.9071 157.987 86.7294L161.231 80.6216C161.276 80.5383 161.303 80.4466 161.312 80.3522C161.32 80.2578 161.312 80.1661 161.281 80.0744C161.253 79.9828 161.209 79.9022 161.148 79.83C161.087 79.7578 161.012 79.6995 160.928 79.655L159.873 79.1162L160.562 77.4553C160.634 77.283 160.637 77.1081 160.573 76.9359C160.506 76.7609 160.39 76.6303 160.223 76.547L159.026 75.9498L159.923 74.0278C159.965 73.9361 159.987 73.8389 159.99 73.7362C159.99 73.6334 159.97 73.5362 159.929 73.4417C159.887 73.3473 159.829 73.2668 159.754 73.2001C159.676 73.1307 159.59 73.0807 159.492 73.0501L158.262 72.664L159.295 70.3559C159.376 70.1754 159.381 69.9921 159.312 69.8088L158.612 67.995C158.587 67.9312 158.554 67.8728 158.512 67.8201L158.49 65.0703L170.902 65.0592C171.23 73.7028 171.511 81.2966 171.788 88.7625C172.366 104.333 172.966 120.434 173.947 145.504L175.371 179.634C174.972 179.782 174.605 179.984 174.266 180.243C173.927 180.501 173.636 180.804 173.391 181.151C173.147 181.498 172.958 181.876 172.827 182.279C172.697 182.684 172.63 183.101 172.625 183.526C172.577 184.551 172.522 185.581 172.469 186.609C172.419 187.523 172.372 188.436 172.325 189.35C172.286 189.972 172.372 190.581 172.58 191.169C172.788 191.758 173.102 192.283 173.524 192.744C173.847 193.097 174.227 193.369 174.663 193.566C175.099 193.761 175.555 193.861 176.033 193.866C177.891 193.869 180.254 193.872 183.107 193.872C186.987 193.872 191.775 193.869 197.431 193.861C197.928 193.855 198.4 193.747 198.853 193.539C199.303 193.33 199.691 193.039 200.016 192.664C200.444 192.172 200.752 191.617 200.947 190.997C201.138 190.375 201.197 189.742 201.122 189.095C200.914 187.07 200.672 184.859 200.477 183.179C200.233 181.07 198.647 179.482 196.792 179.482H196.181L194.895 145.446C194.895 145.438 194.892 145.429 194.892 145.421C194 133.178 192.312 94.0342 191.117 65.037L224.528 65.0064C224.631 65.0064 224.728 64.9842 224.82 64.9426C224.911 64.9009 224.992 64.8426 225.058 64.7676C225.128 64.6898 225.175 64.6037 225.206 64.5065C225.236 64.4093 225.245 64.3093 225.233 64.2093C225.167 63.6816 225.281 59.2653 225.358 56.0406C225.417 53.7408 225.467 51.7549 225.467 50.9078C225.467 50.7106 225.395 50.5439 225.256 50.405C225.111 50.2745 224.945 50.2051 224.75 50.1995C213.923 50.2939 202.713 50.3412 190.517 50.3523C190.128 40.7171 189.859 33.8038 189.787 31.9957C198.908 31.754 207.071 31.4957 213.934 31.2624C214.121 31.2569 214.282 31.1874 214.412 31.0541L227.228 18.2692C229.158 18.1081 231.091 17.9415 233.027 17.7693C233.233 17.7498 233.397 17.6609 233.524 17.4971C234.383 16.3999 237.191 12.4475 239.907 8.62846C242.096 5.5482 244.162 2.64015 244.662 1.99854C244.748 1.88466 244.798 1.7569 244.809 1.61247C244.818 1.46803 244.787 1.33471 244.715 1.20695ZM87.5048 74.1611L86.6605 75.9776C86.5799 76.1498 86.5688 76.3276 86.6327 76.5109C86.6966 76.6914 86.8132 76.8248 86.9855 76.9109L88.2076 77.5219L87.5215 79.1801C87.4493 79.3495 87.4465 79.5217 87.5104 79.6967C87.5743 79.8717 87.6882 79.9995 87.852 80.0828L88.8492 80.5938L86.2939 85.4045L85.455 84.9073L86.8494 82.2604C86.8966 82.1742 86.9216 82.0798 86.9299 81.9826C86.9382 81.8826 86.9243 81.7882 86.891 81.6937C86.8605 81.6021 86.8105 81.5188 86.7438 81.4465C86.6744 81.3743 86.5966 81.3188 86.5049 81.2799L85.5689 80.8688L86.4827 79.3273C86.5355 79.2384 86.5688 79.144 86.5799 79.0412C86.591 78.9384 86.5799 78.8412 86.5494 78.744C86.5161 78.644 86.4661 78.5579 86.3966 78.4829C86.3272 78.4079 86.2466 78.3496 86.1522 78.3107L84.8273 77.7497L85.8633 75.9304C85.9133 75.8415 85.9439 75.7443 85.9522 75.6415C85.9633 75.5388 85.9494 75.4416 85.9161 75.3443C85.8828 75.2471 85.83 75.161 85.7578 75.086C85.6856 75.011 85.6023 74.9555 85.5078 74.9194L84.3079 74.4444L86.1022 69.7421L86.8105 69.306L87.0938 70.0448L85.8522 72.8113C85.8133 72.9057 85.7911 73.0029 85.7911 73.1029C85.7911 73.2029 85.8133 73.3001 85.8522 73.3945C85.8939 73.4862 85.9522 73.5667 86.03 73.6334C86.105 73.7001 86.1911 73.7501 86.2883 73.7806L87.5048 74.1611ZM102.073 74.1611L101.229 75.9776C101.145 76.1498 101.137 76.3276 101.201 76.5109C101.265 76.6914 101.381 76.8248 101.554 76.9109L102.776 77.5219L102.087 79.1801C102.017 79.3495 102.015 79.5217 102.076 79.6967C102.14 79.8717 102.253 79.9995 102.42 80.0828L103.417 80.5938L100.859 85.4045L100.023 84.9073L101.417 82.2604C101.465 82.1742 101.49 82.0798 101.498 81.9826C101.504 81.8826 101.492 81.7882 101.459 81.6937C101.426 81.6021 101.376 81.5188 101.309 81.4465C101.242 81.3743 101.165 81.3188 101.073 81.2799L100.134 80.8688L101.051 79.3273C101.104 79.2384 101.134 79.144 101.145 79.0412C101.159 78.9384 101.148 78.8412 101.115 78.744C101.084 78.6468 101.034 78.5579 100.965 78.4829C100.895 78.4079 100.815 78.3496 100.72 78.3107L99.3954 77.7497L100.429 75.9304C100.481 75.8415 100.512 75.7443 100.52 75.6415C100.529 75.5388 100.518 75.4416 100.484 75.3443C100.448 75.2471 100.395 75.161 100.326 75.086C100.254 75.011 100.17 74.9555 100.073 74.9194L98.876 74.4444L100.67 69.7421L101.376 69.306L101.659 70.0448L100.42 72.8113C100.379 72.9057 100.359 73.0029 100.359 73.1029C100.359 73.2029 100.379 73.3001 100.42 73.3945C100.462 73.4862 100.52 73.5667 100.595 73.6334C100.673 73.7001 100.759 73.7501 100.854 73.7806L102.073 74.1611ZM114.763 74.1611L113.916 75.9776C113.836 76.1498 113.827 76.3276 113.891 76.5109C113.955 76.6914 114.072 76.8248 114.244 76.9109L115.466 77.5219L114.777 79.1801C114.708 79.3495 114.702 79.5217 114.766 79.6967C114.83 79.8717 114.944 79.9995 115.111 80.0828L116.108 80.5938L113.55 85.4045L112.714 84.9073L114.108 82.2604C114.152 82.1742 114.18 82.0798 114.188 81.9826C114.194 81.8826 114.183 81.7882 114.15 81.6937C114.116 81.6021 114.066 81.5188 114 81.4465C113.933 81.3743 113.855 81.3188 113.763 81.2799L112.825 80.8688L113.741 79.3273C113.794 79.2384 113.825 79.144 113.836 79.0412C113.847 78.9384 113.836 78.8385 113.805 78.7412C113.772 78.644 113.722 78.5579 113.652 78.4829C113.583 78.4079 113.502 78.3496 113.408 78.3107L112.083 77.7497L113.116 75.9304C113.169 75.8415 113.2 75.7443 113.208 75.6415C113.216 75.5388 113.205 75.4416 113.169 75.3443C113.136 75.2471 113.083 75.161 113.014 75.086C112.941 75.011 112.858 74.9555 112.761 74.9194L111.564 74.4444L113.358 69.7421L114.063 69.306L114.347 70.0448L113.108 72.8113C113.066 72.9057 113.047 73.0029 113.047 73.1029C113.047 73.2029 113.066 73.3001 113.108 73.3945C113.15 73.4862 113.208 73.5667 113.283 73.6334C113.361 73.7001 113.447 73.7501 113.541 73.7806L114.763 74.1611ZM131.042 74.1611L130.195 75.9776C130.115 76.1498 130.106 76.3276 130.17 76.5109C130.231 76.6914 130.351 76.8248 130.523 76.9109L131.745 77.5219L131.056 79.1801C130.984 79.3495 130.981 79.5217 131.045 79.6967C131.109 79.8717 131.223 79.9995 131.387 80.0828L132.384 80.5938L129.829 85.4045L128.99 84.9073L130.387 82.2604C130.431 82.1742 130.459 82.0798 130.465 81.9826C130.473 81.8826 130.462 81.7882 130.429 81.6937C130.395 81.6021 130.345 81.5188 130.279 81.4465C130.212 81.3743 130.134 81.3188 130.042 81.2799L129.104 80.8688L130.02 79.3273C130.073 79.2384 130.104 79.144 130.115 79.0412C130.126 78.9384 130.115 78.8412 130.084 78.744C130.054 78.644 130.001 78.5579 129.934 78.4829C129.865 78.4079 129.781 78.3496 129.687 78.3107L128.362 77.7497L129.398 75.9304C129.448 75.8415 129.479 75.7443 129.49 75.6415C129.498 75.5388 129.484 75.4416 129.451 75.3443C129.418 75.2471 129.365 75.161 129.293 75.086C129.223 75.011 129.137 74.9555 129.043 74.9194L127.845 74.4444L129.637 69.7421L130.345 69.306L130.629 70.0448L129.39 72.8085C129.348 72.9001 129.326 72.9973 129.326 73.1001C129.326 73.2001 129.348 73.2973 129.39 73.389C129.431 73.4834 129.49 73.5612 129.565 73.6306C129.64 73.6973 129.726 73.7445 129.823 73.775L131.042 74.1611ZM145.608 74.1611L144.763 75.9776C144.683 76.1498 144.674 76.3276 144.738 76.5109C144.799 76.6914 144.919 76.8248 145.091 76.9109L146.313 77.5219L145.624 79.1801C145.552 79.3495 145.549 79.5217 145.613 79.6967C145.677 79.8717 145.791 79.9995 145.955 80.0828L146.952 80.5938L144.397 85.4045L143.558 84.9073L144.955 82.2604C144.999 82.1742 145.027 82.0798 145.033 81.9826C145.041 81.8826 145.027 81.7882 144.997 81.6937C144.963 81.6021 144.913 81.5188 144.847 81.4465C144.78 81.3743 144.699 81.3188 144.611 81.2799L143.672 80.8688L144.588 79.3273C144.641 79.2384 144.672 79.144 144.683 79.0412C144.694 78.9384 144.686 78.8412 144.652 78.744C144.622 78.644 144.572 78.5579 144.502 78.4829C144.433 78.4079 144.349 78.3496 144.255 78.3107L142.93 77.7497L143.966 75.9304C144.016 75.8415 144.047 75.7443 144.058 75.6415C144.066 75.5388 144.052 75.4416 144.019 75.3443C143.986 75.2471 143.933 75.161 143.861 75.086C143.791 75.011 143.708 74.9555 143.611 74.9194L142.414 74.4444L144.205 69.7421L144.913 69.306L145.197 70.0448L143.958 72.8113C143.916 72.9057 143.894 73.0029 143.894 73.1029C143.894 73.2029 143.916 73.3001 143.958 73.3945C143.999 73.4862 144.058 73.5667 144.133 73.6334C144.208 73.7001 144.294 73.7501 144.391 73.7806L145.608 74.1611ZM158.298 74.1611L157.454 75.9776C157.373 76.1498 157.365 76.3276 157.426 76.5109C157.49 76.6914 157.609 76.8248 157.779 76.9109L159.004 77.5219L158.315 79.1801C158.243 79.3495 158.24 79.5217 158.304 79.6967C158.368 79.8717 158.481 79.9995 158.645 80.0828L159.642 80.5938L157.087 85.4045L156.248 84.9073L157.643 82.2604C157.69 82.1742 157.715 82.0798 157.723 81.9826C157.732 81.8826 157.718 81.7882 157.684 81.6937C157.654 81.6021 157.604 81.5188 157.534 81.4465C157.468 81.3743 157.39 81.3188 157.298 81.2799L156.362 80.8688L157.276 79.3273C157.329 79.2384 157.362 79.144 157.373 79.0412C157.384 78.9384 157.373 78.8385 157.34 78.7412C157.309 78.644 157.259 78.5579 157.19 78.4829C157.12 78.4079 157.037 78.3496 156.943 78.3107L155.618 77.7497L156.657 75.9304C156.707 75.8415 156.737 75.7443 156.745 75.6415C156.754 75.5388 156.743 75.4388 156.709 75.3416C156.673 75.2444 156.62 75.161 156.551 75.086C156.479 75.011 156.396 74.9555 156.301 74.9194L155.101 74.4444L156.895 69.7421L157.604 69.306L157.887 70.0448L156.645 72.8113C156.607 72.9029 156.584 73.0001 156.584 73.1029C156.584 73.2029 156.607 73.3001 156.645 73.3918C156.687 73.4862 156.745 73.564 156.823 73.6334C156.898 73.7001 156.984 73.7473 157.082 73.7778L158.298 74.1611ZM18.3725 18.2276L18.1503 17.9831C49.914 20.4496 79.7334 21.8994 108.628 22.3438C108.628 25.0519 108.614 28.246 108.595 31.7263C96.6206 31.7124 85.4356 31.6013 75.0366 31.3902C74.9255 31.3152 74.8005 31.2819 74.6672 31.2902C73.3368 31.3041 56.1439 30.8569 55.969 30.8541C55.9301 30.8513 55.8912 30.8541 55.8523 30.8597C46.3893 30.518 37.8068 30.0764 30.0992 29.5348C29.3826 29.4737 26.7662 27.4572 18.3725 18.2276ZM75.3504 32.8206C85.6467 33.0234 96.7262 33.1345 108.586 33.1456C108.572 35.6176 108.556 38.209 108.539 40.856C108.52 43.9196 108.503 47.0248 108.486 50.069C98.4149 50.0218 86.6272 49.9662 74.6866 49.9412C74.8894 44.7 75.1088 39.0367 75.3504 32.8206ZM117.355 22.4716C122.204 22.4883 127.609 22.5049 129.634 22.5021L129.929 63.4177C125.446 63.501 114.988 63.4455 109.861 63.4094C109.864 56.7267 109.911 48.6663 109.961 40.8643C110.003 33.9483 110.044 27.3989 110.047 22.4494C111.614 22.4521 114.366 22.4633 117.355 22.4716ZM21.0056 63.7843C20.739 61.7123 20.7556 57.3349 21.0556 51.4966C31.5657 51.4077 42.5119 51.3605 54.4552 51.3494C54.2997 55.1352 54.1302 59.3153 53.9497 63.751L21.0056 63.7843ZM51.5055 146.238C53.2026 146.326 57.0022 146.371 60.7768 146.371C64.3876 146.371 67.9567 146.329 69.6149 146.246L68.2261 179.471C64.3126 179.471 57.9271 179.471 52.822 179.471H50.0195L51.5055 146.238ZM71.0981 183.581C71.1481 184.614 71.2008 185.648 71.2592 186.684C71.3064 187.592 71.3536 188.5 71.4008 189.408C71.4314 189.839 71.3758 190.258 71.2342 190.664C71.0925 191.072 70.8787 191.436 70.5898 191.758C70.1926 192.194 69.6982 192.422 69.1094 192.433C63.5377 192.447 54.4024 192.439 47.717 192.43C47.0976 192.417 46.5865 192.172 46.1838 191.7C45.8949 191.358 45.6838 190.972 45.5533 190.542C45.4227 190.114 45.3839 189.675 45.4366 189.228C45.6366 187.256 45.8783 185.051 46.0782 183.329C46.2393 181.94 47.217 180.89 48.353 180.89H52.822C58.1826 180.89 64.9598 180.89 68.8011 180.89C70.0176 180.89 71.0259 182.073 71.0981 183.581ZM71.8036 88.7681C71.2314 104.197 70.637 120.148 69.6732 144.829C66.8429 144.974 54.5302 144.979 51.586 144.838C53.0137 124.359 56.2995 40.9504 56.6328 32.3095C62.1156 32.504 67.8817 32.6623 73.9311 32.7901C72.9673 57.4238 72.3757 73.3529 71.8036 88.7681ZM74.6339 51.3633C86.591 51.3883 98.3927 51.4411 108.481 51.4911C108.458 55.8101 108.442 59.9736 108.442 63.701L74.1617 63.7343C74.3089 59.8514 74.4644 55.7545 74.6339 51.3633ZM131.351 63.6788L131.265 51.6077C145.716 51.6827 157.987 51.7355 170.403 51.7633C170.566 55.9712 170.716 59.9069 170.855 63.6399L131.351 63.6788ZM173.216 88.7125C172.641 73.2945 172.05 57.3544 171.086 32.7067C174.233 32.654 185.423 32.3679 188.387 32.2929C188.72 40.8337 191.998 124.162 193.431 144.768H175.346C174.383 120.093 173.788 104.139 173.216 88.7125ZM196.8 180.904C197.936 180.904 198.914 181.954 199.075 183.345C199.269 185.02 199.511 187.225 199.716 189.245C199.769 189.689 199.73 190.128 199.6 190.558C199.469 190.989 199.258 191.375 198.969 191.717C198.567 192.189 198.055 192.43 197.436 192.444C187.62 192.458 180.424 192.461 176.046 192.45C175.455 192.436 174.96 192.211 174.563 191.772C174.274 191.453 174.061 191.086 173.919 190.681C173.777 190.272 173.722 189.853 173.752 189.422C173.797 188.511 173.844 187.6 173.894 186.689C173.949 185.656 174.005 184.626 174.052 183.595C174.127 182.09 175.135 180.907 176.352 180.907C180.193 180.907 186.97 180.907 192.331 180.907L196.8 180.904ZM192.331 179.484C187.168 179.484 180.699 179.487 176.796 179.484L175.402 146.188H193.509L194.767 179.484H192.331ZM224.05 51.6272C224.034 52.6604 223.992 54.2963 223.95 56.0073C223.859 59.6097 223.797 62.2817 223.806 63.5899L191.067 63.6205C190.895 59.3986 190.734 55.4129 190.587 51.7744C202.491 51.766 213.46 51.716 224.047 51.6299L224.05 51.6272ZM170.35 50.3412C157.948 50.3162 145.691 50.2606 131.253 50.1856L131.131 33.0595C144.594 32.9484 157.618 32.7401 169.658 32.4845C169.911 38.995 170.141 44.8972 170.35 50.3439V50.3412ZM213.61 29.8514C193.95 30.5208 163.823 31.3652 131.12 31.6402L131.056 22.4827C162.75 22.3883 193.62 21.044 225.036 18.4498L213.61 29.8514ZM238.749 7.80354C236.335 11.2004 233.616 15.0251 232.591 16.3805C230.797 16.5388 229.005 16.6944 227.217 16.8444L226.933 16.5583L226.594 16.8999C156.857 22.7521 89.9491 22.4521 10.7455 15.9694C10.4983 15.5528 10.0817 14.864 9.55949 13.9974C7.90131 11.256 3.87669 4.61218 2.67403 2.07631C44.5673 7.24804 86.6188 9.87001 128.831 9.93945C168.564 9.93945 206.819 7.45913 242.532 2.50127C241.621 3.76504 240.251 5.68986 238.749 7.80354Z" fill="black" stroke="black"/>
</g>
<path d="M112.139 61.1401C114.789 61.1623 118.636 61.1873 121.955 61.1873C124.344 61.1873 126.463 61.1734 127.671 61.1345C127.863 61.129 128.027 61.0567 128.16 60.9179C128.293 60.779 128.36 60.6151 128.36 60.4207L128.14 25.0491C128.138 24.8519 128.065 24.6824 127.924 24.5463C127.782 24.4075 127.613 24.3408 127.416 24.3436C126.771 24.3575 122.172 24.338 118.114 24.3214C115.561 24.313 113.236 24.3047 112.281 24.3047C112.186 24.3047 112.098 24.3214 112.009 24.3575C111.923 24.3936 111.848 24.4463 111.781 24.513C111.714 24.5769 111.662 24.6547 111.625 24.7408C111.589 24.8296 111.573 24.9185 111.573 25.013C111.573 29.207 111.542 34.9315 111.509 40.992C111.473 47.7441 111.437 54.7268 111.437 60.429C111.437 60.6235 111.503 60.7901 111.642 60.929C111.778 61.0679 111.945 61.1373 112.139 61.1401ZM112.928 41.0003C112.959 35.2703 112.989 29.8486 112.992 25.724C114.153 25.7268 116.056 25.7351 118.105 25.7434C121.438 25.7573 125.135 25.7768 126.721 25.7684L126.932 59.7347C123.799 59.7958 117.139 59.7596 112.853 59.7263C112.859 54.163 112.895 47.4747 112.928 41.0003Z" fill="black" stroke="black"/>
<path d="M117.767 34.9046H121.411C121.689 34.9046 121.955 34.8519 122.214 34.7435C122.469 34.638 122.697 34.488 122.891 34.2908C123.089 34.0936 123.241 33.8686 123.347 33.6103C123.453 33.3548 123.505 33.0881 123.505 32.8076V32.7298C123.505 32.4521 123.453 32.1854 123.347 31.9271C123.241 31.6716 123.089 31.4438 122.891 31.2494C122.697 31.0522 122.469 30.8995 122.214 30.7939C121.955 30.6884 121.689 30.6328 121.411 30.6328H117.767C117.489 30.6328 117.22 30.6884 116.964 30.7939C116.706 30.8995 116.481 31.0522 116.284 31.2494C116.087 31.4438 115.937 31.6716 115.831 31.9271C115.723 32.1854 115.67 32.4521 115.67 32.7298V32.8076C115.67 33.0854 115.723 33.3548 115.831 33.6103C115.937 33.8658 116.087 34.0936 116.284 34.2908C116.481 34.488 116.706 34.638 116.964 34.7435C117.22 34.8519 117.489 34.9046 117.767 34.9046ZM117.089 32.7298C117.089 32.5437 117.156 32.3826 117.289 32.2521C117.42 32.1188 117.578 32.0549 117.767 32.0521H121.411C121.597 32.0549 121.755 32.1188 121.889 32.2521C122.019 32.3826 122.086 32.5437 122.086 32.7298V32.8076C122.086 32.9937 122.019 33.1548 121.889 33.2853C121.755 33.4187 121.597 33.4853 121.411 33.4853H117.767C117.578 33.4853 117.42 33.4187 117.289 33.2853C117.156 33.1548 117.089 32.9937 117.089 32.8076V32.7298Z" fill="black" stroke="black"/>
<path d="M121.722 39.1797H118.075C117.797 39.1825 117.53 39.2352 117.275 39.3408C117.016 39.4463 116.792 39.5991 116.594 39.7963C116.397 39.9907 116.247 40.2185 116.139 40.474C116.033 40.7323 115.98 40.999 115.98 41.2767V41.3573C115.98 41.635 116.033 41.9017 116.139 42.16C116.244 42.4155 116.397 42.6432 116.594 42.8405C116.789 43.0349 117.016 43.1876 117.272 43.2932C117.53 43.4015 117.797 43.4543 118.075 43.4543H121.722C121.999 43.4543 122.266 43.4015 122.522 43.2932C122.78 43.1876 123.005 43.0377 123.202 42.8405C123.399 42.6432 123.549 42.4183 123.655 42.16C123.763 41.9044 123.816 41.6378 123.816 41.36V41.2767C123.816 40.999 123.763 40.7323 123.655 40.474C123.549 40.2185 123.399 39.9907 123.202 39.7963C123.005 39.5991 122.78 39.4463 122.522 39.3408C122.266 39.2352 121.999 39.1825 121.722 39.1797ZM122.397 41.3573C122.397 41.5461 122.33 41.7044 122.199 41.835C122.066 41.9683 121.908 42.035 121.722 42.035H118.075C117.889 42.035 117.73 41.9683 117.597 41.8378C117.466 41.7044 117.4 41.5461 117.4 41.36V41.2767C117.4 41.0906 117.466 40.9323 117.597 40.799C117.73 40.6684 117.889 40.6018 118.075 40.6018H121.722C121.908 40.6018 122.066 40.6684 122.199 40.799C122.33 40.9323 122.397 41.0906 122.397 41.2767V41.3573Z" fill="black" stroke="black"/>
<path d="M123.816 51.6982V51.6177C123.816 51.3399 123.76 51.0733 123.655 50.8178C123.549 50.5594 123.396 50.3345 123.199 50.1373C123.005 49.9401 122.777 49.7901 122.521 49.6818C122.263 49.5762 121.996 49.5234 121.719 49.5234H118.075C117.797 49.5234 117.527 49.5762 117.272 49.6818C117.016 49.7901 116.789 49.9401 116.591 50.1373C116.397 50.3345 116.244 50.5594 116.139 50.8178C116.03 51.0733 115.978 51.3399 115.978 51.6177V51.6982C115.978 51.976 116.03 52.2426 116.139 52.4982C116.244 52.7565 116.397 52.9814 116.591 53.1786C116.789 53.3758 117.016 53.5258 117.272 53.6342C117.527 53.7397 117.797 53.7925 118.075 53.7925H121.719C121.996 53.7925 122.263 53.7397 122.521 53.6342C122.777 53.5258 123.005 53.3758 123.199 53.1786C123.396 52.9814 123.549 52.7565 123.655 52.4982C123.76 52.2426 123.816 51.976 123.816 51.6982ZM122.394 51.6982C122.394 51.8843 122.327 52.0426 122.196 52.176C122.066 52.3065 121.905 52.3732 121.719 52.3732H118.075C117.888 52.3732 117.727 52.3065 117.597 52.176C117.464 52.0426 117.397 51.8843 117.397 51.6982V51.6177C117.397 51.4316 117.464 51.2733 117.597 51.14C117.727 51.0094 117.888 50.9427 118.075 50.9427H121.719C121.905 50.9427 122.066 51.0094 122.196 51.14C122.327 51.2733 122.394 51.4316 122.394 51.6177V51.6982Z" fill="black" stroke="black"/>
</svg>
