<svg width="229" height="153" viewBox="0 0 229 153" fill="none" xmlns="http://www.w3.org/2000/svg">
<path d="M152.237 119.022L152.311 118.955C154.164 117.28 154.507 115.068 153.856 112.997C153.197 110.901 151.524 108.993 149.419 108.072L149.419 108.072C144.239 105.802 137.934 108.523 135.445 113.501L135.445 113.501C134.17 116.049 133.805 119.252 134.347 122.295C134.89 125.339 136.328 128.154 138.578 129.968C141.237 132.111 144.687 132.984 148.261 132.974C151.833 132.963 155.477 132.067 158.457 130.732L152.237 119.022ZM152.237 119.022C151.795 119.359 151.264 119.256 150.888 118.881C150.692 118.686 150.588 118.455 150.577 118.251C150.566 118.068 150.626 117.848 150.879 117.618C151.677 116.896 152.113 116.069 152.225 115.203C152.337 114.346 152.124 113.514 151.74 112.779C150.983 111.329 149.498 110.135 148.052 109.627L152.237 119.022ZM157.345 129.107C153.281 130.928 148.173 131.523 143.969 130.261C141.858 129.627 139.954 128.518 138.539 126.838C137.121 125.153 136.229 122.934 136.083 120.142C135.859 115.872 137.859 111.456 142.175 109.84C143.958 109.166 146.151 108.957 148.052 109.627L157.345 129.107ZM157.345 129.107C157.918 128.85 158.479 129.118 158.767 129.609M157.345 129.107L158.767 129.609M158.767 129.609C158.908 129.85 158.943 130.086 158.903 130.262M158.767 129.609L158.903 130.262M158.903 130.262C158.869 130.413 158.766 130.593 158.457 130.732L158.903 130.262Z" fill="black" stroke="black" stroke-width="1.33333"/>
<path d="M176.491 131.924L176.4 131.96C176.134 132.045 175.961 131.997 175.844 131.925C175.693 131.832 175.549 131.643 175.475 131.373C175.325 130.819 175.528 130.227 176.108 129.996L176.632 129.787L176.513 129.235C176.083 127.254 175.557 125.629 174.921 124.381C174.288 123.138 173.517 122.21 172.569 121.712C171.595 121.201 170.526 121.192 169.424 121.61C168.346 122.018 167.225 122.836 166.061 123.999C165.87 124.184 165.682 124.368 165.495 124.55C165.211 124.827 164.928 125.103 164.641 125.38L164.641 125.38L164.632 125.389C162.759 127.267 161.332 129.551 160.264 131.909L160.264 131.909C158.781 135.187 158.466 138.526 159.43 141.438C160.397 144.362 162.626 146.778 166.075 148.233L166.075 148.233C170.394 150.055 176.066 150.413 181.152 149.153C185.643 148.041 189.772 145.638 192.077 141.756L192.188 141.894C192.557 142.351 192.938 142.776 193.33 143.171C191.534 145.66 188.89 147.651 185.796 149.084C181.662 150.997 176.778 151.884 172.196 151.636C167.605 151.388 163.389 150.005 160.525 147.457C157.692 144.937 156.118 141.222 156.875 136.115L156.875 136.115C157.465 132.126 159.879 127.248 163.32 123.727C166.762 120.203 171.093 118.165 175.552 119.489L175.552 119.489C178.765 120.442 180.533 122.95 180.745 125.497C180.957 128.031 179.637 130.664 176.491 131.924ZM195.026 140.171C194.214 140.383 193.4 140.599 192.583 140.818C192.692 140.594 192.796 140.366 192.894 140.134C193.033 139.803 193.363 139.484 193.714 139.355C193.88 139.295 194.025 139.286 194.142 139.313C194.251 139.338 194.379 139.403 194.51 139.566L194.51 139.566C194.68 139.776 194.851 139.977 195.026 140.171ZM195.066 142.968C195.421 142.387 195.736 141.783 196.008 141.154L225.162 128.46L225.761 128.752C225.761 128.752 225.761 128.752 225.761 128.752C225.911 128.446 226.101 128.336 226.268 128.3C226.458 128.26 226.702 128.299 226.942 128.439C227.429 128.725 227.677 129.267 227.405 129.825L227.404 129.826C224.801 135.17 218.667 141.08 211.924 144.076C208.561 145.57 205.094 146.317 201.875 145.945C199.436 145.663 197.118 144.736 195.066 142.968ZM193.906 141.845C194.013 141.816 194.12 141.788 194.226 141.76C194.177 141.849 194.127 141.937 194.076 142.025C194.019 141.966 193.963 141.906 193.906 141.845Z" fill="black" stroke="black" stroke-width="1.33333"/>
<path d="M198.534 119.985C201.989 117.565 206.846 118.064 209.89 121.175C210.586 121.884 211.153 122.707 211.676 123.499C211.761 123.628 211.845 123.756 211.928 123.883C212.365 124.55 212.779 125.182 213.247 125.756C214.8 127.662 216.197 129.093 218.306 130.175L218.306 130.175C221.581 131.856 224.932 132.233 227.34 129.67L227.34 129.67C227.573 129.422 227.634 129.175 227.614 128.955C227.593 128.719 227.474 128.473 227.28 128.278C227.085 128.083 226.85 127.975 226.637 127.961C226.445 127.949 226.217 128.009 225.983 128.257C225.983 128.257 225.983 128.257 225.983 128.257L225.498 127.799C221.712 131.817 217.125 126.284 213.196 121.544C211.257 119.205 209.478 117.059 208.033 116.348C204.836 114.774 201.465 115.051 198.641 116.603L198.534 119.985ZM198.534 119.985C198.632 119.101 198.674 118.223 198.663 117.356C201.38 115.748 204.656 115.428 207.739 116.946L198.534 119.985ZM153.191 111.362L153.122 111.436C152.914 111.629 152.714 111.677 152.544 111.667C152.335 111.654 152.102 111.548 151.907 111.352C151.514 110.957 151.425 110.396 151.842 109.945L151.842 109.945C159.908 101.223 171.454 95.2067 183.288 98.8859C191.516 101.445 196.906 108.507 197.307 116.643C196.633 117.104 195.997 117.636 195.41 118.23C195.881 107.74 186.66 99.8262 176.311 99.7491L176.31 99.7491C166.957 99.6834 159.214 104.853 153.191 111.362ZM195.918 119.637C196.354 119.145 196.824 118.695 197.32 118.292C197.297 118.973 197.239 119.66 197.146 120.351C196.991 120.261 196.836 120.171 196.682 120.081C196.427 119.933 196.172 119.786 195.918 119.637ZM196.015 121.236C196.261 121.379 196.507 121.522 196.753 121.665C196.737 121.686 196.721 121.706 196.704 121.727C196.524 121.955 196.359 122.015 196.233 122.026C196.09 122.038 195.908 121.991 195.714 121.857C195.32 121.584 195.085 121.104 195.124 120.718C195.42 120.89 195.717 121.063 196.015 121.236Z" fill="black" stroke="black" stroke-width="1.33333"/>
<path d="M28.8325 47.2887C29.2172 50.9748 30.7774 52.9391 32.7943 53.7943C34.9448 54.7063 37.805 54.4432 40.7667 53.2699C43.7117 52.1033 46.6526 50.0751 48.8975 47.6266C51.1484 45.1716 52.6461 42.3547 52.8218 39.6199C53.1092 35.1472 51.9085 31.7453 49.8081 29.2241C47.6977 26.6908 44.6331 24.9926 41.111 24.0291C34.0467 22.0966 25.327 23.172 19.4205 26.1429C4.22024 33.7894 -3.62204 51.6606 3.0816 67.6212C9.62262 83.1927 28.4173 89.2843 42.9117 80.792C43.2047 80.6198 43.3241 80.4051 43.3615 80.2002C43.4022 79.9775 43.3532 79.7154 43.2148 79.4778C43.0763 79.2402 42.8734 79.0698 42.6616 78.9967C42.4672 78.9297 42.2228 78.9282 41.9281 79.1008C41.928 79.1008 41.928 79.1008 41.928 79.1008L41.591 78.5256L28.8325 47.2887ZM28.8325 47.2887L28.8014 46.8882C28.7751 46.5486 28.8833 46.3595 29.0082 46.2455C29.1505 46.1157 29.3799 46.0267 29.6578 46.0274C30.2244 46.0288 30.7151 46.3735 30.7635 46.9916L30.7635 46.992C30.9462 49.3137 31.8067 50.861 33.1864 51.7001C34.5317 52.5183 36.2221 52.569 37.88 52.2506C41.1913 51.6146 44.8185 49.4221 46.6312 47.6529C49.779 44.5856 51.5901 40.8422 50.5696 36.1413C48.9269 28.5539 41.463 24.7675 34.5014 24.5228L28.8325 47.2887ZM34.5012 24.5227C23.1787 24.1213 12.0197 31.2269 6.48637 40.8125L34.5012 24.5227Z" fill="black" stroke="black" stroke-width="1.33333"/>
<path d="M57.6386 78.8327L57.7056 78.7721C59.0376 77.5658 59.625 76.3133 59.7274 75.1583C59.8301 73.998 59.4503 72.8582 58.7059 71.8698C57.2041 69.876 54.2806 68.5894 51.2995 69.1769L57.6386 78.8327ZM57.6386 78.8327C57.1941 79.1755 56.6625 79.072 56.2867 78.6971C56.0909 78.5018 55.9866 78.271 55.9754 78.0664C55.9653 77.8832 56.0249 77.6624 56.2784 77.433L56.8096 76.9524L56.292 76.4571C53.8756 74.1443 51.6696 72.8189 49.7053 72.7739C47.6259 72.7263 46.0884 74.0955 45.0328 76.4338L45.0229 76.4557L45.0147 76.4781C44.8133 77.0259 44.6121 77.5686 44.4102 78.1131C44.2309 78.5964 44.0512 79.0811 43.8705 79.5719L43.8552 79.6133L43.8456 79.6563C42.9034 83.8548 44.3188 88.2166 47.2691 91.234L47.2693 91.2342C52.3445 96.4205 59.2163 96.2899 65.4911 94.8138C74.5599 92.6811 84.0894 88.9021 89.0269 80.2236L89.027 80.2235C89.1952 79.9277 89.4053 79.8097 89.6037 79.7724C89.8206 79.7316 90.0795 79.7789 90.3175 79.9177C90.5551 80.0564 90.7288 80.2615 90.8049 80.4782C90.8751 80.6781 90.8777 80.9264 90.7093 81.2225C88.7646 84.6416 85.2298 88.0306 80.8583 90.8617C76.4939 93.6881 71.3418 95.928 66.2135 97.0771C61.0791 98.2276 56.0191 98.2742 51.8066 96.7764C47.6215 95.2884 44.231 92.2641 42.3989 87.1599L57.6386 78.8327ZM43.0466 76.1037C41.4529 79.566 41.1582 83.699 42.3988 87.1597L43.0466 76.1037ZM43.0466 76.1037C44.6375 72.6475 47.4867 69.9293 51.2993 69.1769L43.0466 76.1037Z" fill="black" stroke="black" stroke-width="1.33333"/>
<path d="M89.4677 81.0583L89.4077 80.942C89.2155 80.4372 89.4513 79.9651 89.8984 79.7033C90.1367 79.5637 90.386 79.5216 90.5859 79.5626C90.7648 79.5992 90.9624 79.7125 91.1191 80.015C95.4034 88.3028 103.651 94.4931 113.355 94.5103H113.355C119.391 94.5203 123.602 92.4757 126.681 89.1053C129.73 85.7683 131.627 81.1776 133.164 76.1744L133.164 76.1739C133.264 75.849 133.448 75.6746 133.648 75.5831C133.864 75.4845 134.137 75.4664 134.402 75.5391C134.668 75.612 134.878 75.7625 134.995 75.9407C135.101 76.102 135.161 76.3292 135.061 76.655C133.411 82.0263 131.456 86.7298 128.42 90.2045C125.408 93.6506 121.297 95.9285 115.229 96.3841L115.228 96.3841C104.334 97.2051 94.3906 90.5883 89.4677 81.0583Z" fill="black" stroke="black" stroke-width="1.33333"/>
<path d="M133.238 76.6679L133.141 76.6156C132.912 76.4639 132.818 76.2852 132.785 76.1188C132.744 75.911 132.788 75.6575 132.928 75.4196C133.209 74.9388 133.725 74.7145 134.262 75.0049C144.446 80.5091 154.804 77.6988 163.09 71.3468C171.361 65.0057 177.68 55.0672 179.916 46.0228L179.917 46.0224C179.998 45.6908 180.167 45.5252 180.342 45.4402C180.535 45.3464 180.793 45.3246 181.059 45.3979C181.324 45.4711 181.549 45.626 181.683 45.8202C181.807 46.0004 181.876 46.2443 181.794 46.5749L181.794 46.5749C179.36 56.4194 172.477 66.8392 163.542 73.3398C154.623 79.8295 143.757 82.3572 133.238 76.6679Z" fill="black" stroke="black" stroke-width="1.33333"/>
<path d="M102.086 39.1804L103.995 38.703L104.007 38.7003L105.75 38.2643L105.247 38.9768C106.67 39.423 107.858 39.9223 108.799 40.481C109.928 41.152 110.754 41.9418 111.158 42.8827C111.573 43.8498 111.499 44.8751 111.025 45.9023C110.56 46.9091 109.707 47.9342 108.527 48.9817C107.132 50.2413 105.612 51.3157 103.966 52.2071L103.965 52.2077C101.081 53.7619 98.3081 54.0144 95.8555 53.0886C93.4185 52.1687 91.4024 50.1252 89.9307 47.2895C86.3287 40.3597 87.9825 31.1938 93.168 25.5687L93.1681 25.5686C98.5232 19.7605 107.159 18.1001 114.538 19.8501L114.538 19.8502C121.696 21.5487 126.58 26.523 131.345 31.4394C139.057 39.3885 147.53 45.4459 158.244 48.4599L158.065 49.0947L158.244 48.4599C166.453 50.7698 175.176 51.973 181.853 46.3396C182.113 46.1202 182.17 45.9125 182.163 45.7469C182.155 45.5574 182.057 45.3334 181.859 45.1371C181.457 44.7367 180.861 44.6302 180.385 45.0311C175.497 49.1552 168.611 49.2825 161.99 47.7574C155.345 46.2267 148.789 42.9943 144.364 40.1406L102.086 39.1804ZM102.086 39.1804C101.894 39.0475 101.772 38.8806 101.723 38.7217C101.674 38.5636 101.676 38.3483 101.872 38.0697L101.872 38.0696C104.296 34.6228 108.882 33.9057 111.847 37.1627L111.847 37.163C113.946 39.4664 114.134 42.228 113.239 44.8959C112.336 47.5877 110.34 50.1263 108.191 51.8035C104.823 54.4314 101.616 55.4397 98.7712 55.3215C95.9259 55.2031 93.369 53.9549 91.304 51.9333C87.1571 47.8735 85.0461 40.7322 86.7455 33.7497L86.7456 33.7496C90.384 18.7961 107.986 13.4069 121.065 20.2071L121.065 20.2072C125.543 22.5339 129.149 26.055 132.761 29.7553C133.068 30.0696 133.375 30.3852 133.683 30.7015C136.972 34.0854 140.332 37.5407 144.364 40.1406L102.086 39.1804Z" fill="black" stroke="black" stroke-width="1.33333"/>
<path d="M37.6331 23.8572L37.6189 23.9589C37.5593 24.2173 37.436 24.3331 37.3248 24.3924C37.1748 24.4724 36.9437 24.501 36.6732 24.4256C36.1184 24.271 35.7002 23.7877 35.7873 23.1637L35.7873 23.1635C36.6964 16.64 41.4986 11.1523 47.7117 7.20702C53.9165 3.26699 61.4115 0.944241 67.4793 0.692547L67.4794 0.692543C80.5535 0.148584 92.8247 8.21215 96.2242 20.9684L96.2242 20.9686C96.3123 21.2987 96.2465 21.5371 96.1286 21.7107C96.0006 21.8993 95.7811 22.0523 95.5156 22.1251C95.2499 22.1979 94.9863 22.1771 94.7854 22.0814C94.6015 21.9938 94.4279 21.8251 94.3406 21.4973C91.1189 9.38555 79.6097 2.16043 67.4248 2.65168L67.4496 3.26664L67.4248 2.65168C61.7904 2.87905 54.8089 5.06374 49.0173 8.71474C43.2364 12.3591 38.5121 17.5503 37.6331 23.8572Z" fill="black" stroke="black" stroke-width="1.33333"/>
</svg>
