<svg width="32" height="31" viewBox="0 0 32 31" fill="none" xmlns="http://www.w3.org/2000/svg">
<path d="M13.3965 14.8352C13.8988 14.0525 14.1639 13.6661 14.8666 12.992L18.2898 9.76738C20.4793 7.70799 22.676 5.65955 24.9119 3.6503L26.5482 2.17738C27.2451 1.54826 27.9437 0.771205 28.9291 0.665672C30.6612 0.454819 31.9097 2.33884 31.086 3.87997C30.9006 4.22682 30.6177 4.52679 30.3661 4.82707L29.3669 6.00327C26.8592 8.91243 24.3084 11.7128 21.6357 14.4677L19.9056 16.2306C19.3475 16.791 17.8756 18.2856 17.1606 18.3104C16.8376 18.3216 16.6221 18.1038 16.404 17.8998L14.6986 16.2006C14.3099 15.8141 13.7493 15.2549 13.3965 14.8352Z" fill="#322554"/>
<path d="M15.6732 21.723C14.7201 21.995 14.1641 21.3323 13.5555 20.7407L12.1561 19.3706C11.2788 18.5043 9.55201 17.3652 10.4086 16.0046C10.6352 15.6447 10.9742 15.2182 11.4064 15.1179C12.3196 15.0289 12.9139 15.9756 13.5204 16.5711L15.352 18.3815C15.8903 18.9153 17.2942 19.9912 16.8647 20.8177C16.6382 21.2535 16.1323 21.5846 15.6732 21.723Z" fill="#322554"/>
<path d="M5.64413 30.2076C4.797 30.385 3.20127 30.3182 2.32234 30.3182C1.87982 30.3182 0.70373 30.5336 0.655374 29.8427C0.628845 29.4637 1.04917 29.2028 1.26988 28.9594C2.84434 27.223 2.93861 25.7864 3.25861 23.6757C3.66042 21.0253 5.33716 18.8331 8.16487 18.6239C9.6016 18.5085 10.3231 19.3895 11.2151 20.2571C12.0873 21.1056 13.0726 21.8216 13.2294 23.1047C13.6137 26.2484 10.576 28.8701 7.86071 29.755C7.14046 29.9898 6.39524 30.1208 5.64413 30.2076Z" fill="#322554"/>
</svg>
