<svg width="183" height="222" viewBox="0 0 183 222" fill="none" xmlns="http://www.w3.org/2000/svg">
<path d="M3.24173 72.0291C7.1234 68.6678 11.8583 67.0162 16.5351 65.3517C15.3231 63.2024 14.2274 61.1145 12.9637 59.1365C12.7051 58.7325 11.7678 58.4966 11.2152 58.5936C7.8797 59.1624 4.56686 59.8476 1.24433 60.5004C0.840329 60.5812 0.439557 60.6814 0 60.6362C3.75239 58.6065 7.88293 57.9019 11.9359 57.3234C11.6612 54.8799 11.073 52.5238 11.2184 50.2129C11.3897 47.5206 12.2171 44.8736 12.7181 42.2007C12.815 41.6771 12.9249 40.9919 12.6793 40.5976C7.64053 32.4529 7.04907 23.6326 9.03677 14.5829C9.97729 10.3037 11.7097 6.20227 13.0186 2.00063C13.3774 0.846793 13.9527 0.694887 15.0387 0.972842C22.4465 2.86681 28.8944 6.49316 34.46 11.6903C36.3862 13.4905 38.1606 15.4556 40.0869 17.2558C40.5523 17.6889 41.4024 18.0606 41.9874 17.9604C47.902 16.952 53.7843 17.0425 59.631 18.345C60.6976 18.5842 61.1953 18.038 61.8062 17.4045C68.1151 10.8855 75.1028 5.31993 83.6774 2.03295C85.6263 1.28635 87.6528 0.7466 89.9928 0C90.7717 2.78278 91.654 5.35225 92.2035 7.99282C94.4821 18.9591 93.2927 29.3921 87.2294 39.0494C86.9062 39.5633 86.7963 40.3972 86.945 40.9919C88.5028 47.1909 88.7097 53.3286 86.137 59.5276C91.4084 60.8851 96.473 62.4461 100.552 66.1727C100.222 66.024 99.8796 65.8979 99.5628 65.7234C95.5357 63.5095 91.3114 61.8256 86.7963 60.8851C85.901 60.6976 85.4841 60.8721 85.0219 61.6866C83.8357 63.7777 82.5009 65.7881 81.1629 67.9341C85.9107 69.7182 90.4194 72.1002 94.0458 75.9496C93.4834 75.6005 92.9436 75.2191 92.3586 74.9121C88.8422 73.0634 85.2902 71.2825 81.8093 69.3692C80.4583 68.6258 79.7634 69.2108 78.8099 70.0802C77.8371 70.969 78.1247 71.7091 78.5126 72.64C82.7013 82.7207 89.7698 90.3774 98.6934 96.4084C101.311 98.1795 104.055 99.8246 106.912 101.169C115.755 105.332 122.562 111.744 127.859 119.812C136.683 133.244 140.978 148.047 140.438 164.113C140.086 174.611 137.303 184.42 130.406 192.649C128.383 195.063 125.939 197.125 123.444 199.594C125.574 199.478 127.61 199.491 129.614 199.236C142.882 197.539 152.888 188.473 155.778 175.474C157.268 168.78 156.424 162.158 154.404 155.723C152.248 148.858 149.598 142.145 147.491 135.264C146.191 131.02 145.199 126.631 144.608 122.236C143.625 114.947 145.6 108.241 149.818 102.249C154.821 95.1382 161.072 89.5791 169.827 87.7206C172.494 87.155 175.406 87.1809 178.117 87.559C181.149 87.9824 182.503 90.3838 181.993 93.4058C181.349 97.2099 179.039 99.9636 176.327 102.543C173.606 105.128 170.832 107.73 168.531 110.678C163.121 117.601 162.862 125.335 165.904 133.279C167.533 137.539 169.627 141.618 171.291 145.868C174.834 154.915 176.476 164.271 175.451 174.013C174.116 186.718 168.725 197.397 159.233 205.903C149.126 214.963 137.016 219.452 123.654 220.729C114.724 221.582 105.797 221.491 96.9546 219.749C93.6676 219.1 90.4905 218.104 87.711 216.139C85.901 214.862 84.4919 213.24 83.9553 211.058C83.7291 210.131 83.2346 209.901 82.4234 209.73C80.1124 209.239 77.7175 208.922 75.5488 208.056C73.5029 207.235 71.7189 205.774 69.7829 204.656C69.2399 204.342 68.5805 204.106 67.96 204.064C65.3614 203.886 63.2768 204.549 61.5897 206.895C60.2968 208.689 58.0021 209.294 55.7074 209.51C51.7901 209.882 47.8858 210.373 43.9815 209.439C41.9906 208.964 40.3132 208.004 38.9428 206.437C38.5259 205.961 37.734 205.628 37.0844 205.574C33.9913 205.321 30.9984 204.795 28.3708 203.001C24.6604 200.467 23.7748 196.301 26.5803 192.813C28.0217 191.023 30.0515 189.659 31.9681 188.318C32.8795 187.681 33.4257 187.09 33.639 185.994C34.7541 180.228 34.7282 174.42 34.2628 168.615C33.8847 163.896 33.3255 159.194 32.7534 154.494C32.6339 153.515 32.1878 152.539 31.7321 151.644C28.5906 145.454 25.3715 139.268 24.0302 132.4C23.3676 129.003 23.0994 125.464 23.1963 122.006C23.2868 118.797 22.4174 115.846 21.8583 112.792C20.5687 105.746 22.0295 99.0069 24.2144 92.3328C25.3327 88.9165 26.3928 85.455 27.0909 81.9385C27.7438 78.658 26.7645 75.6813 24.2338 73.2864C22.0877 71.2534 20.0871 69.0718 17.9443 67.0356C17.5952 66.706 16.7549 66.5573 16.2992 66.7318C12.3916 68.225 8.51641 69.8119 4.63797 71.3795C4.16286 71.5702 3.71361 71.819 3.25143 72.0388L3.24173 72.0291ZM113.558 139.482C106.748 135.878 99.8343 135.965 92.9339 138.784C82.9663 142.859 75.384 149.834 69.9832 159.026C65.2354 167.109 66.0434 175.163 71.9742 182.439C76.7317 188.276 83.0762 191.637 90.4291 192.759C93.8745 193.282 97.4652 192.849 100.991 192.849C100.552 193.269 100.08 193.466 99.5887 193.586C94.1977 194.901 88.9165 194.355 83.7032 192.632C83.199 192.464 82.6464 192.183 82.1583 192.254C77.766 192.914 73.8585 194.549 71.1597 198.272C70.0285 199.837 69.8669 201.611 71.0498 203.25C72.4525 205.195 74.5436 206.094 76.8352 206.879C75.9884 201.572 77.9244 197.461 81.1952 197.258C80.4292 198.117 79.5501 198.928 78.8843 199.888C77.7498 201.527 76.9741 203.347 77.9017 205.338C78.8293 207.325 80.6748 207.865 82.6916 208.101C83.6483 208.211 84.2559 208.043 84.7957 207.128C86.3987 204.407 88.6579 202.222 91.6282 201.226C94.7051 200.195 97.9403 199.271 101.153 199.09C106.298 198.802 111.479 199.19 116.647 199.232C117.468 199.239 118.399 199.132 119.097 198.744C122.656 196.766 125.758 194.19 128.363 191.058C135.173 182.872 137.869 173.224 138.124 162.798C138.415 150.946 135.645 139.74 130.371 129.175C124.572 117.562 116.424 108.27 104.43 102.533C93.952 97.5202 85.6812 89.8344 79.6018 79.8927C78.212 77.6205 77.0582 75.2062 75.8849 73.0181C72.9955 74.4758 70.1772 76.0336 67.2489 77.3394C63.4222 79.0459 59.5373 80.6263 55.6201 82.1163C53.7778 82.8176 51.8354 83.38 49.8897 83.6612C45.1645 84.3464 41.0436 82.4977 37.0294 80.2837C34.5698 78.9263 32.0359 77.6949 29.5376 76.4085C29.4147 76.5023 29.2952 76.596 29.1723 76.6897C30.6849 81.7996 28.9332 86.3729 27.023 90.9139C23.1543 100.122 22.9119 109.521 25.6817 119.026C29.2919 131.434 36.5575 141.359 46.6059 149.339C47.4236 149.989 48.2963 150.574 49.0946 151.159C49.2207 148.438 49.0978 145.829 49.5083 143.305C50.8302 135.154 56.2471 128.939 59.8831 121.864C59.9349 122.32 59.9122 122.753 59.7377 123.118C58.1766 126.356 56.8903 129.779 54.9446 132.772C50.9757 138.881 50.1062 145.383 50.7494 152.504C51.4928 160.748 51.7481 169.052 51.8806 177.335C51.9647 182.561 51.0888 187.733 49.0364 192.626C48.5807 193.712 48.0248 194.533 46.7514 194.834C45.507 195.128 44.2724 195.59 43.125 196.159C40.158 197.626 38.6228 200.961 39.4017 204.151C39.7508 205.58 40.4909 206.756 42.0455 207.361C40.8465 201.986 42.2298 198.088 45.3196 197.904C42.4463 200.991 41.8355 203.812 43.3901 207.138C43.5969 207.581 44.0203 208.153 44.4276 208.23C45.9725 208.518 47.5529 208.628 49.2368 208.819C47.7986 202.965 48.5936 199.892 51.6318 199.151C51.2536 199.73 50.8755 200.244 50.5652 200.797C49.3273 202.998 48.9912 205.257 50.3195 207.535C50.5587 207.946 51.0371 208.385 51.4766 208.482C56.5703 209.607 61.7965 206.582 63.2218 201.608C65.8689 192.361 66.6995 182.914 66.1888 173.328C66.0854 171.398 65.8333 169.452 65.9723 167.536C66.2793 163.244 67.8533 159.304 70.4681 155.959C73.6872 151.838 76.7931 147.717 78.267 142.604C78.296 142.5 78.3542 142.407 78.3962 142.31C79.8054 138.942 81.4117 135.639 82.5688 132.184C84.062 127.727 85.1964 123.15 86.5571 118.376C86.4731 128.942 81.3956 137.74 77.6496 147.255C79.5501 145.681 81.1208 144.239 82.8338 142.988C89.0005 138.483 95.6812 135.325 103.554 135.652C107.297 135.807 110.687 137.022 113.561 139.478L113.558 139.482ZM61.4345 62.2425C61.4087 62.1811 61.386 62.1165 61.3602 62.0551C62.6498 61.5896 63.9232 61.0661 65.2322 60.6685C70.6135 59.0331 76.15 58.8327 81.7026 59.1107C83.3768 59.1947 84.0103 58.5774 84.508 57.0907C86.2436 51.8838 85.9301 46.7029 84.5759 41.509C84.2753 40.3552 84.3658 39.4437 85.0284 38.3643C90.1221 30.0838 92.0516 21.0858 90.6069 11.4608C90.1738 8.58105 89.2656 5.77241 88.5222 2.71814C86.3632 3.56493 84.5856 4.17579 82.8823 4.94501C75.0123 8.50671 68.4933 13.9171 62.5334 20.0548C61.9161 20.6915 61.3957 20.9242 60.4552 20.7335C54.0719 19.4407 47.6499 19.0625 41.2246 20.3974C40.2033 20.6107 39.6797 20.2842 39.0204 19.6346C36.1503 16.8033 33.3417 13.8881 30.2874 11.2636C25.8369 7.43691 20.6786 4.81896 14.9999 3.14477C14.806 3.43242 14.6023 3.62957 14.5215 3.86875C13.358 7.38197 11.9197 10.837 11.1214 14.4343C9.11434 23.471 9.83508 32.1814 15.0322 40.1903C15.3522 40.6816 15.2778 41.6415 15.0387 42.2459C13.2869 46.6512 13.0186 51.1082 14.2242 55.6944C14.528 56.845 14.9449 57.3395 16.2474 57.3815C18.8751 57.4688 21.5124 57.7144 24.111 58.1087C27.2622 58.5871 30.2777 59.5567 33.0249 61.2212C30.1032 60.5489 27.2461 59.6116 24.3146 59.0751C21.3961 58.5418 18.4032 58.4158 15.4427 58.112C15.3619 58.3027 15.2811 58.4966 15.197 58.6873C16.0923 60.1934 17.049 61.6672 17.8667 63.2154C18.5099 64.4338 19.3049 64.8475 20.6915 64.5308C22.0974 64.2108 23.5648 64.1009 25.0127 64.0201C27.6727 63.8747 30.3036 64.0266 32.8052 65.1061C28.5098 64.8896 24.2435 64.8378 19.8512 65.7881C21.8259 68.5838 24.1562 70.7589 26.9132 72.3329C31.4832 74.9379 36.1956 77.2909 40.8335 79.7795C44.977 82.0032 49.2594 82.2617 53.6098 80.5908C57.3686 79.1461 61.0822 77.5753 64.7732 75.9657C67.2328 74.8927 69.7085 73.8035 72.0097 72.4461C74.0039 71.2696 75.7654 69.6988 77.6302 68.3026C77.5785 68.0634 77.5236 67.8242 77.4719 67.5883C72.9761 66.9031 68.4804 66.2147 63.9878 65.5295C64.4209 65.2806 64.8346 65.2225 65.2483 65.1934C69.3239 64.9057 73.2929 65.4907 77.2036 66.6155C77.7013 66.7577 78.5611 66.8288 78.7776 66.5573C80.3031 64.6504 81.7058 62.6433 83.3283 60.4229C79.3044 59.6537 75.7104 59.7539 72.1552 60.2645C68.5612 60.7816 65.0027 61.5703 61.4313 62.2393L61.4345 62.2425ZM108.053 201.294C102.21 201.259 97.3166 201.388 92.6754 203.288C90.1608 204.32 88.0891 205.877 86.9094 208.418C85.9075 210.574 86.1499 212.17 88.157 213.444C89.9928 214.607 92.0225 215.635 94.1104 216.21C108.128 220.079 122.168 220.328 136.091 215.79C149.242 211.504 159.915 203.864 166.925 191.731C174.711 178.26 175.112 163.993 170.593 149.462C169.084 144.608 166.831 139.986 164.873 135.277C160.887 125.691 161.469 116.628 168.25 108.48C170.855 105.351 174.022 102.695 176.818 99.7147C178.056 98.3961 179.242 96.932 180.053 95.3321C181.808 91.8544 179.872 88.6353 175.981 88.5998C173.803 88.5804 171.534 88.7969 169.452 89.4078C157.746 92.8337 150.723 100.94 147.284 112.349C145.096 119.611 146.263 126.78 148.738 133.732C150.939 139.905 153.541 145.933 155.845 152.07C158.386 158.832 160.173 165.771 158.913 173.059C157.209 182.898 152.895 191.214 144.097 196.601C137.717 200.509 130.6 201.895 123.244 201.925C117.872 201.947 112.494 201.498 108.05 201.301L108.053 201.294ZM37.9085 203.014C38.1315 198.579 40.3584 195.354 44.6215 194.236C47.2879 193.537 48.2898 192.09 48.7229 189.724C48.8587 188.987 49.1366 188.276 49.2918 187.542C51.6802 176.327 50.9757 165.06 49.7669 153.796C49.7087 153.263 49.2271 152.662 48.7714 152.31C46.9065 150.862 44.8833 149.604 43.083 148.082C35.7948 141.935 30.6785 134.146 26.4219 125.726C26.173 125.235 25.9145 124.75 25.6591 124.265C25.281 127.911 25.6979 131.405 27.0069 134.647C29.2984 140.316 31.8873 145.868 34.3404 151.473C34.6183 152.109 34.9706 152.752 35.0611 153.425C36.3475 162.875 37.2686 172.351 36.7321 181.909C36.4929 186.155 35.63 190.008 30.9952 191.786C30.0127 192.161 29.1368 193.108 28.4872 193.993C27.3172 195.587 26.9164 197.455 27.7599 199.329C28.4322 200.822 29.7638 201.537 31.4348 201.824C30.2648 197.655 31.8065 194.242 34.99 193.696C33.0573 195.658 31.2021 197.7 32.4432 200.751C33.1671 202.532 35.3714 203.366 37.9053 203.017L37.9085 203.014ZM80.1932 191.042C76.1855 187.92 75.6102 187.807 71.0563 189.135C70.746 189.226 70.4422 189.323 70.1352 189.426C67.8081 190.215 65.9109 191.356 66.1339 194.265C66.1533 194.523 66.0402 194.791 65.9917 195.057C65.6071 197.241 65.2192 199.423 64.8023 201.799C66.0951 201.708 67.1423 201.634 68.1765 201.559C68.7745 194.1 74.6277 192.843 80.19 191.042H80.1932ZM67.6788 178.34C67.3815 182.229 67.1164 185.719 66.8482 189.219C69.5566 188.463 72.055 187.768 74.6341 187.048C73.3769 185.674 72.1132 184.43 71.011 183.056C69.9089 181.682 68.9684 180.183 67.6788 178.34Z" fill="black"/>
<path d="M41.3572 50.0844C40.8918 50.8504 40.575 51.7812 39.9383 52.3565C34.7703 57.0171 27.7342 55.5465 23.6844 49.0857C23.0025 47.9997 22.9637 47.0753 23.4582 45.9409C25.5299 41.1833 30.5622 38.5654 34.8188 40.0909C38.2932 41.3352 40.8724 45.4011 41.3572 50.0844ZM27.6631 42.6216C27.2881 42.9416 26.9843 43.1355 26.7613 43.4005C23.316 47.4632 23.3354 47.6248 26.8163 51.3804C30.155 54.9809 35.7076 54.9583 39.3307 51.639C39.5957 51.3966 39.9577 51.0572 39.9577 50.7663C39.9448 48.6332 39.4988 46.6035 38.2544 44.5091C37.6339 50.2039 35.4717 52.392 31.4898 51.6357C27.5047 50.8794 26.2377 47.9932 27.6663 42.6248L27.6631 42.6216ZM32.3204 41.959C31.59 43.0418 30.8208 43.6882 30.8951 44.2118C30.9759 44.7903 31.8324 45.2622 32.3495 45.7793C32.8375 45.246 33.6488 44.7515 33.7167 44.1697C33.7781 43.6397 33.0315 43.0159 32.3204 41.9558V41.959Z" fill="black"/>
<path d="M62.4045 55.38C61.6611 55.2831 60.8757 55.3025 60.1808 55.0665C53.9915 52.9657 53.1382 49.9082 57.0845 43.8287C60.4943 38.5799 67.44 39.1229 71.2214 44.7014C73.8006 48.5087 73.6196 48.0562 70.7625 51.3788C68.5227 53.987 65.3844 55.3219 62.4012 55.3768L62.4045 55.38ZM66.9875 42.2903C69.1012 47.7072 68.332 50.5191 64.5117 51.8377C60.6882 53.1564 58.3386 51.4822 56.8066 45.9457C56.5028 47.1771 56.2862 47.9722 56.1117 48.777C55.7852 50.2831 55.6527 51.5565 57.2591 52.7104C62.4562 56.4498 69.0269 53.5022 71.6351 48.4053C71.7483 48.1855 71.8679 47.8462 71.7741 47.6684C70.6752 45.5256 69.3792 43.5476 66.9842 42.2903H66.9875ZM64.8026 44.8113C63.6714 44.0744 62.9733 43.2696 62.4109 43.3536C61.8195 43.4409 60.9242 44.4008 60.95 44.9406C60.9759 45.49 61.9326 46.3497 62.5434 46.4079C63.0961 46.4596 63.7361 45.6128 64.8026 44.8113Z" fill="black"/>
<path d="M34.1337 22.2396C30.9404 24.1562 27.731 25.6591 25.042 27.8148C22.4014 29.9318 20.2909 32.7146 17.9379 35.2162C11.2606 29.3791 11.9425 14.0722 16.5773 5.80469C24.5604 9.07874 30.5623 14.4181 34.1337 22.2396ZM17.9347 33.8329C21.5384 27.928 26.7194 24.5117 32.731 21.9455C28.9236 15.4361 24.1208 10.3134 17.0976 7.24617C13.4777 16.2442 12.9574 24.9125 17.9347 33.8329Z" fill="black"/>
<path d="M85.9784 6.23438C90.3029 12.9441 90.3126 29.7959 81.9157 36.1759C78.367 30.229 73.7646 25.4197 66.8286 23.0086C71.5312 15.2227 77.7949 9.71204 85.9784 6.23438ZM85.4807 7.76313C78.3153 10.9564 73.0891 16.1923 68.5448 22.4657C74.5338 24.9963 78.9681 29.0622 82.2325 34.4597C87.9532 28.1573 89.4981 15.5556 85.4807 7.76313Z" fill="black"/>
<path d="M58.7481 68.6743C58.1211 70.2903 56.8056 71.2502 55.1638 71.6219C52.2097 72.2942 49.7533 71.331 47.8561 68.8068C45.7682 71.302 43.2893 72.4138 40.1316 71.1694C38.9034 70.6846 37.8724 70.0253 37.9532 68.3317C38.354 68.6872 38.7612 69.0363 39.1555 69.4015C41.7831 71.8449 46.4858 70.5263 47.3552 67.0583C47.4489 66.6769 47.1709 66.0725 46.8736 65.7493C45.9945 64.8088 44.9408 64.0234 44.0973 63.057C43.0663 61.8773 43.2828 60.7494 44.7437 60.5134C46.7152 60.1967 48.8128 60.0545 50.7682 60.3809C52.869 60.7332 53.1114 62.4559 51.4792 63.8877C50.9136 64.3822 50.2834 64.8023 49.6919 65.2677C48.1212 66.5088 48.0856 68.0247 49.6047 69.324C51.6053 71.0305 55.9233 71.5347 57.4811 69.1139C57.6912 68.7874 58.0985 68.5838 58.412 68.322C58.5251 68.4384 58.6382 68.5547 58.7513 68.6743H58.7481ZM48.2084 60.6201C48.1664 60.7009 48.1212 60.7817 48.0791 60.8625C47.339 60.9724 46.573 60.995 45.8749 61.2309C45.4935 61.3602 44.9279 62.1004 44.9602 62.1359C45.7262 63.057 46.4761 64.0331 47.4263 64.7312C47.7624 64.9801 48.7902 64.7248 49.191 64.3595C49.9699 63.655 50.5258 62.7047 51.1754 61.858C50.1864 61.4443 49.1974 61.0306 48.2084 60.6168V60.6201Z" fill="black"/>
</svg>
