<svg width="196" height="233" viewBox="0 0 196 233" fill="none" xmlns="http://www.w3.org/2000/svg">
<mask id="mask0_126_873" style="mask-type:luminance" maskUnits="userSpaceOnUse" x="0" y="0" width="196" height="233">
<path d="M1 1H194.404V231.378H1V1Z" fill="white" stroke="white" stroke-width="2"/>
</mask>
<g mask="url(#mask0_126_873)">
<path d="M178.552 89.1754C169.144 73.5269 164.95 54.5898 164.95 27.7618C164.95 27.5896 165.031 13.4632 164.837 7.57764C164.698 3.28916 161.687 1.0116 156.357 1.18936L142.128 1.6421C138.036 1.77264 134.212 2.57812 133.934 7.56098C133.628 13.0216 133.731 27.4508 133.734 27.7563C133.44 51.7734 126.051 74.438 119.233 87.6395C108.564 108.307 104.306 128.474 104.101 159.391H86.0635C84.8969 147.064 82.6082 134.952 79.1974 123.047C75.7867 111.143 71.3149 99.655 65.7793 88.5783C66.5098 87.6367 66.8736 86.5674 66.8653 85.373C66.8514 84.7398 66.7125 84.137 66.4542 83.5593C66.1931 82.9816 65.8321 82.4789 65.3682 82.0483C65.1682 81.8678 64.9516 81.7123 64.7183 81.5789C65.7737 77.4877 69.2345 73.4075 72.8508 69.594C76.8338 65.3944 79.3808 58.7006 79.2641 55.0842C79.2252 53.9593 78.9391 53.14 78.4086 52.6484C78.2781 52.5345 78.1253 52.4762 77.9503 52.4734L13.4648 52.9511C13.2843 52.9511 13.1287 53.0178 13.001 53.1455C12.7538 53.3927 12.4871 53.8816 12.5871 55.512C12.6566 56.4174 12.7815 57.3118 12.9649 58.2006L12.976 59.095H13.1537C14.0509 63.014 16.0229 68.2524 19.3948 70.8772C23.0195 73.6991 27.3746 77.8793 28.1329 82.1011C27.7579 82.1594 27.3968 82.2705 27.0524 82.4372C26.708 82.6011 26.3969 82.8122 26.1136 83.0677C25.8331 83.326 25.5942 83.6176 25.397 83.9454C25.2026 84.2704 25.0582 84.6203 24.9637 84.9897C24.5388 86.5674 24.9915 88.2839 25.9914 89.0949C23.3666 93.975 20.9363 98.9523 18.706 104.024C16.4784 109.099 14.4536 114.254 12.6343 119.489C10.8151 124.725 9.20689 130.024 7.81257 135.388C6.41548 140.751 5.23504 146.162 4.27124 151.62C3.30467 157.077 2.56029 162.563 2.03257 168.082C1.50484 173.598 1.19931 179.128 1.11321 184.669C1.02711 190.21 1.16043 195.746 1.51595 201.279C1.87147 206.809 2.44642 212.317 3.24079 217.802C4.07959 223.479 9.42631 228.218 15.1674 228.359L55.8886 229.376C56.4663 229.39 57.044 229.398 57.6162 229.398H57.7939V230.068C57.7939 230.223 57.8245 230.373 57.8828 230.515C57.9439 230.656 58.0272 230.784 58.1356 230.893C58.2467 231.001 58.3717 231.087 58.5133 231.145C58.6577 231.204 58.8049 231.234 58.9605 231.234H94.3405C94.496 231.234 94.6432 231.204 94.7876 231.145C94.9293 231.087 95.0571 231.001 95.1654 230.893C95.2737 230.784 95.3598 230.656 95.4181 230.515C95.4765 230.373 95.507 230.223 95.507 230.068V218.413C96.5375 218.294 97.5429 218.072 98.5289 217.749C99.515 217.427 100.457 217.008 101.359 216.497C102.259 215.983 103.101 215.386 103.881 214.705C104.662 214.025 105.367 213.272 105.998 212.447C106.275 217.277 106.573 222.31 106.889 227.548C106.898 227.685 106.942 227.807 107.025 227.915C107.109 228.023 107.217 228.098 107.345 228.14C113.408 230.129 128.221 231.237 144.783 231.237C161.27 231.237 179.493 230.137 192.537 227.718C192.692 227.69 192.82 227.615 192.923 227.496C193.026 227.373 193.078 227.235 193.081 227.079C193.214 220.441 193.428 213.555 193.637 206.898C194.986 163.599 196.381 118.828 178.552 89.1754ZM135.262 7.63875C135.47 3.9141 137.953 3.1114 142.169 2.9753L156.398 2.51979C159.556 2.41702 163.362 3.2225 163.506 7.62208C163.676 12.7577 163.634 24.2205 163.62 27.0952H135.062C135.045 24.1844 134.995 12.4188 135.262 7.63597V7.63875ZM120.416 88.2505C127.24 75.0323 134.634 52.4317 135.056 28.4257H163.62C163.689 55.1565 167.95 74.1269 177.41 89.8615C185.482 103.285 189.565 119.909 191.492 138.124C163.023 135.899 134.601 136.393 106.225 139.607C107.873 119.325 112.183 104.199 120.416 88.2505ZM106.117 140.957C134.576 137.718 163.078 137.224 191.631 139.468C193.131 154.511 193.2 170.604 192.862 186.855C165.148 190.446 126.926 190.588 109.189 189.302V160.058C109.189 159.874 109.125 159.716 108.995 159.585C108.864 159.455 108.709 159.391 108.525 159.391H105.434C105.476 152.756 105.695 146.651 106.117 140.957ZM65.5349 85.4008C65.5376 85.9035 65.446 86.3868 65.2571 86.8507C65.0655 87.3145 64.796 87.7256 64.4433 88.0839C64.2266 88.3283 63.9572 88.4672 63.6295 88.5005C63.5878 88.4977 63.5462 88.4977 63.5045 88.5005C61.1158 88.7671 58.8438 88.9477 56.5802 89.0643C55.2164 87.2617 53.6443 85.6619 51.8695 84.2648C51.8001 84.0759 51.7278 83.8898 51.6445 83.7037C51.5612 83.5176 51.4668 83.3343 51.3695 83.1538C56.0469 83.0316 60.0243 82.8372 63.4767 82.565C63.8711 82.5927 64.2044 82.7483 64.4766 83.0344C64.8071 83.3399 65.0627 83.6982 65.246 84.1093C65.4293 84.5203 65.5265 84.9508 65.5349 85.4008ZM50.6641 91.1891C50.8751 90.9697 51.0723 90.7364 51.2473 90.4864C51.6584 89.8865 51.9556 89.2338 52.1417 88.5311C52.3278 87.8283 52.3889 87.1145 52.3306 86.3896C61.6658 94.8082 64.5155 110.623 62.4046 122.628C62.0157 123.308 60.6048 123.933 59.2021 123.778C58.4522 123.733 57.8273 123.428 57.3301 122.867C57.1773 122.692 57.119 122.486 57.1495 122.256C59.7021 108.815 57.519 98.3662 50.6641 91.1891ZM39.229 89.6365C39.579 90.3253 40.0456 90.9253 40.6289 91.4336C34.2045 99.18 32.3352 110.273 35.3822 122.847C35.4266 123.075 35.3766 123.283 35.235 123.467C34.7656 124.053 34.1573 124.389 33.4101 124.472C32.0158 124.697 30.5771 124.142 30.1549 123.483C27.4246 111.512 29.5327 95.4304 38.6041 86.5924C38.5458 87.6617 38.7541 88.6783 39.229 89.6393V89.6365ZM40.415 89.0366C39.5651 87.3534 39.8345 85.0925 41.1039 83.2732C41.5982 82.515 42.2426 81.915 43.0314 81.4734C43.823 81.0345 44.6702 80.804 45.5756 80.7818C45.7701 80.7818 45.9617 80.7929 46.1534 80.8151C47.9282 81.0234 49.5669 82.34 50.4252 84.2509C50.5224 84.4648 50.6057 84.6842 50.6779 84.9092L50.6252 84.9814C50.6585 85.0064 50.6918 85.0342 50.7252 85.0619C50.989 85.8396 51.0723 86.6396 50.9724 87.4562C50.8724 88.2728 50.6002 89.0282 50.1558 89.7226C49.1309 91.1864 47.2005 92.0113 45.1118 91.8613C43.0203 91.7113 41.2233 90.6336 40.415 89.0366ZM20.2142 69.8245C17.2422 67.5108 15.4202 62.7752 14.5397 59.0727L77.281 58.2256L77.2615 56.8924L14.2536 57.7451C13.9898 56.6063 13.8787 55.4481 13.9203 54.2788L77.6448 53.8066C77.8448 54.2232 77.9392 54.6648 77.9309 55.1259C78.042 58.4756 75.6395 64.7194 71.8843 68.6774C68.1457 72.6187 64.5627 76.8572 63.4295 81.2373C63.4101 81.2373 63.3878 81.2373 63.3684 81.2373C59.7326 81.5262 55.5108 81.7234 50.4835 81.8456C49.9641 81.1984 49.3447 80.6735 48.6226 80.2652C47.9032 79.8597 47.1311 79.6014 46.3117 79.493C45.7534 79.4347 45.2007 79.4458 44.6452 79.5291C44.0925 79.6125 43.5592 79.7624 43.0426 79.9791C42.5287 80.1957 42.0482 80.4763 41.6038 80.8151C41.1594 81.154 40.765 81.5428 40.4178 81.9845C37.1764 82.0011 34.0212 82.0011 30.9687 82.0011H29.4744C28.7023 77.3127 24.061 72.8187 20.2142 69.8245ZM26.2497 85.3341C26.4497 84.587 27.0941 83.3371 29.1494 83.3371H30.9659C33.7323 83.3371 36.5904 83.3371 39.5151 83.3232C39.3318 83.6676 39.1707 84.0259 39.0402 84.3981C37.4931 85.7036 36.1182 87.1701 34.9156 88.7977C29.0717 88.8533 27.4079 88.4116 26.9441 88.1394C26.3525 87.795 25.922 86.559 26.2525 85.3341H26.2497ZM55.9219 228.046L15.198 227.029C10.0762 226.901 5.30448 222.674 4.55733 217.608C3.76851 212.153 3.19635 206.678 2.8436 201.179C2.49086 195.679 2.35754 190.174 2.44364 184.664C2.52974 179.156 2.83527 173.656 3.36022 168.171C3.88517 162.688 4.62676 157.23 5.58778 151.806C6.5488 146.378 7.72369 140.998 9.11245 135.668C10.504 130.335 12.1038 125.066 13.912 119.861C15.7229 114.656 17.7394 109.532 19.9586 104.488C22.1779 99.4439 24.5943 94.4972 27.208 89.6476C28.1579 89.8837 30.041 90.1309 33.9712 90.1309H33.974C27.6885 99.6467 26.4469 113.34 28.88 123.878C28.8911 123.936 28.9133 123.989 28.9383 124.042C29.5161 125.125 31.1326 125.853 32.7796 125.853C33.063 125.853 33.3435 125.83 33.624 125.786C34.1656 125.719 34.6711 125.547 35.1461 125.275C35.6183 125 36.0182 124.644 36.3432 124.205C36.7015 123.697 36.8154 123.142 36.6793 122.533C33.724 110.343 35.5155 99.6272 41.7149 92.2113C42.7398 92.7918 43.8425 93.1195 45.0201 93.1917C45.2201 93.2056 45.4173 93.214 45.6145 93.214C47.0755 93.2334 48.417 92.8445 49.6419 92.0474C56.2302 98.8995 58.3189 108.974 55.8413 122.008C55.7386 122.619 55.8774 123.172 56.2607 123.661C56.6079 124.08 57.0273 124.417 57.5106 124.667C57.9967 124.916 58.5133 125.064 59.0577 125.103C59.2466 125.125 59.4354 125.133 59.6243 125.133C61.3658 125.133 63.0962 124.297 63.6461 123.125C63.6711 123.072 63.6878 123.017 63.6989 122.961C65.5404 112.629 63.7822 99.5106 57.5106 90.3476C59.5021 90.2309 61.5047 90.0642 63.5989 89.8337C64.0156 89.8337 64.3989 89.7254 64.7544 89.506C70.1955 100.444 74.5951 111.784 77.9531 123.531C81.3084 135.277 83.5665 147.231 84.7247 159.391H44.0202C43.8341 159.391 43.6786 159.458 43.5481 159.585C43.4175 159.716 43.3536 159.874 43.3536 160.058V203.054C43.3536 203.54 43.3786 204.023 43.4231 204.506C43.4703 204.989 43.537 205.467 43.6286 205.945C43.7203 206.42 43.8341 206.892 43.9702 207.356C44.1036 207.823 44.2619 208.281 44.4396 208.731C44.6174 209.183 44.8174 209.625 45.0368 210.056C45.2562 210.489 45.4979 210.908 45.7562 211.319C46.0173 211.728 46.295 212.125 46.5894 212.508C46.8866 212.891 47.2005 213.261 47.5338 213.616C47.8643 213.969 48.2115 214.308 48.5754 214.627C48.9364 214.95 49.3142 215.252 49.7058 215.538C50.0974 215.825 50.503 216.091 50.9196 216.341C51.3362 216.588 51.7639 216.816 52.2028 217.024C52.6389 217.23 53.086 217.419 53.5416 217.583C53.9971 217.749 54.4609 217.894 54.9303 218.016C55.3997 218.138 55.8719 218.238 56.3524 218.316C56.8301 218.394 57.3106 218.449 57.7939 218.483V228.062C57.1745 228.065 56.5496 228.059 55.9219 228.046ZM94.1738 229.901H59.1271V218.519H94.1766L94.1738 229.901ZM93.7238 217.188H58.8188C58.355 217.188 57.8939 217.163 57.4329 217.119C56.9746 217.072 56.5163 217.005 56.0635 216.913C55.608 216.822 55.1608 216.711 54.7164 216.574C54.2748 216.441 53.8387 216.286 53.4138 216.108C52.9861 215.93 52.5666 215.733 52.1584 215.513C51.7501 215.297 51.3557 215.058 50.9696 214.8C50.5863 214.544 50.2141 214.269 49.8558 213.975C49.5003 213.68 49.1559 213.372 48.8281 213.044C48.5031 212.716 48.1921 212.375 47.8976 212.017C47.6032 211.658 47.3283 211.286 47.0727 210.903C46.8144 210.517 46.5756 210.122 46.3589 209.714C46.1395 209.306 45.9423 208.889 45.7645 208.461C45.5868 208.034 45.4312 207.598 45.2979 207.156C45.1618 206.712 45.0507 206.264 44.959 205.812C44.8674 205.356 44.8007 204.901 44.7535 204.439C44.7091 203.978 44.6868 203.517 44.6841 203.054V186.888C49.8169 186.83 59.1549 186.769 68.2068 186.711C77.8142 186.65 87.7494 186.586 92.6934 186.522L92.6739 185.189C87.7355 185.252 77.8031 185.319 68.1957 185.38C59.1549 185.439 49.8252 185.5 44.6841 185.558V176.437C49.8169 176.375 59.1549 176.314 68.2068 176.259C77.8142 176.195 87.7494 176.131 92.6934 176.067L92.6739 174.737C87.7355 174.801 77.8031 174.865 68.1985 174.926C59.1549 174.984 49.8252 175.045 44.6841 175.103V167.435L100.934 167.251L100.931 165.918L44.6841 166.104V160.721H107.859V196.554C102.745 196.615 93.2822 196.676 84.1164 196.737C74.5423 196.799 64.6377 196.862 59.7049 196.926L59.7215 198.257C64.6488 198.193 74.5507 198.129 84.1248 198.068C93.2822 198.01 102.734 197.948 107.856 197.887V203.054C107.856 204.265 107.706 205.453 107.398 206.625C102.179 206.684 92.9684 206.745 84.0387 206.8C74.4951 206.864 64.6238 206.928 59.7049 206.992L59.7215 208.322C64.6377 208.259 74.5062 208.195 84.0498 208.134C92.735 208.078 101.687 208.02 106.978 207.961C106.728 208.634 106.428 209.283 106.078 209.911C105.731 210.536 105.337 211.133 104.898 211.7C104.459 212.269 103.978 212.8 103.459 213.291C102.94 213.786 102.384 214.239 101.795 214.65C101.206 215.058 100.59 215.422 99.9455 215.738C99.3039 216.055 98.6373 216.319 97.954 216.536C97.2707 216.749 96.5736 216.913 95.8653 217.022C95.1543 217.133 94.4432 217.186 93.7238 217.188ZM192.303 206.856C192.103 213.336 191.892 220.032 191.759 226.507C164.287 231.484 119.721 230.448 108.189 227.01C107.845 221.285 107.523 215.808 107.223 210.583C107.695 209.742 108.084 208.861 108.389 207.945H108.534L108.528 207.517C108.967 206.062 109.186 204.576 109.186 203.056V190.638C115.575 191.096 124.568 191.374 134.773 191.374C152.999 191.374 175.047 190.491 192.828 188.202C192.695 194.415 192.501 200.648 192.306 206.856H192.303Z" fill="black" stroke="black" stroke-width="2"/>
</g>
<path d="M142.989 168.187C143.136 168.187 143.283 168.173 143.431 168.167C143.486 168.778 143.383 169.362 143.119 169.917C142.728 170.745 142.25 171.753 141.742 172.836C141.561 173.22 141.434 173.62 141.361 174.036C141.289 174.453 141.272 174.872 141.314 175.294C141.356 175.717 141.45 176.125 141.6 176.519C141.75 176.916 141.953 177.286 142.2 177.627C142.45 177.969 142.742 178.272 143.072 178.536C143.406 178.8 143.764 179.013 144.156 179.18C144.544 179.347 144.947 179.458 145.367 179.516C145.786 179.575 146.208 179.575 146.627 179.519C147.444 179.411 148.511 179.266 149.536 179.097C149.974 179.025 150.41 179.041 150.841 179.144C151.274 179.247 151.671 179.43 152.033 179.691C152.688 180.169 153.421 180.661 154.338 181.238C154.729 181.488 155.146 181.677 155.591 181.805C156.035 181.93 156.49 181.991 156.952 181.983C157.415 181.974 157.868 181.897 158.307 181.755C158.749 181.613 159.157 181.408 159.537 181.144C159.918 180.888 160.254 180.583 160.546 180.227C160.837 179.872 161.071 179.48 161.243 179.055C161.418 178.63 161.529 178.189 161.571 177.733C161.615 177.275 161.59 176.822 161.501 176.369L161.473 176.23C161.396 175.833 161.39 175.433 161.457 175.03C161.523 174.631 161.659 174.253 161.862 173.903C162.065 173.55 162.323 173.245 162.637 172.983C162.948 172.725 163.298 172.531 163.681 172.397C163.945 172.309 164.209 172.22 164.473 172.136C164.923 171.992 165.342 171.784 165.731 171.511C166.117 171.239 166.456 170.917 166.745 170.542C167.037 170.17 167.264 169.762 167.434 169.32C167.6 168.878 167.7 168.42 167.731 167.948C167.762 167.476 167.72 167.009 167.612 166.551C167.501 166.09 167.326 165.656 167.087 165.248C166.845 164.84 166.551 164.479 166.201 164.159C165.851 163.84 165.462 163.579 165.034 163.376C164.434 163.096 163.876 162.84 163.379 162.621C162.804 162.365 162.337 161.979 161.979 161.462C161.621 160.946 161.421 160.376 161.382 159.749L161.229 157.463C161.198 157.01 161.104 156.571 160.948 156.143C160.79 155.718 160.576 155.324 160.307 154.96C160.035 154.596 159.718 154.28 159.357 154.007C158.993 153.733 158.601 153.519 158.176 153.36C157.751 153.199 157.313 153.105 156.86 153.071C156.407 153.038 155.96 153.071 155.518 153.169C155.074 153.266 154.655 153.421 154.257 153.641C153.857 153.858 153.499 154.127 153.18 154.449L152.219 155.416C151.11 151.863 148.458 149.158 145.205 148.375C144.308 148.141 143.397 148.041 142.47 148.078C141.545 148.114 140.642 148.283 139.764 148.583C138.889 148.886 138.076 149.308 137.323 149.85C136.57 150.391 135.912 151.03 135.348 151.766C132.748 154.996 132.029 159.524 133.604 162.776C135.206 166.095 138.895 168.187 142.989 168.187ZM154.124 155.388C154.352 155.157 154.61 154.963 154.896 154.807C155.182 154.652 155.482 154.538 155.802 154.469C156.118 154.399 156.44 154.377 156.765 154.399C157.088 154.424 157.404 154.494 157.707 154.607C158.013 154.721 158.296 154.874 158.554 155.071C158.815 155.266 159.043 155.493 159.237 155.755C159.432 156.016 159.585 156.299 159.698 156.604C159.81 156.91 159.876 157.227 159.898 157.552L160.051 159.837C160.079 160.265 160.162 160.682 160.304 161.087C160.446 161.493 160.64 161.873 160.887 162.226C161.132 162.579 161.421 162.89 161.751 163.165C162.082 163.437 162.445 163.662 162.837 163.837C163.326 164.054 163.876 164.304 164.467 164.581C164.773 164.726 165.054 164.915 165.303 165.143C165.553 165.37 165.765 165.631 165.94 165.923C166.112 166.217 166.237 166.529 166.315 166.856C166.395 167.187 166.423 167.523 166.401 167.862C166.378 168.201 166.309 168.528 166.19 168.845C166.07 169.162 165.906 169.456 165.698 169.723C165.49 169.992 165.245 170.223 164.967 170.417C164.69 170.614 164.39 170.764 164.067 170.867C163.798 170.956 163.526 171.042 163.254 171.134C162.987 171.228 162.732 171.345 162.484 171.484C162.237 171.622 162.004 171.781 161.787 171.961C161.571 172.142 161.371 172.342 161.187 172.559C161.007 172.775 160.846 173.006 160.704 173.253C160.562 173.497 160.446 173.753 160.351 174.019C160.257 174.286 160.187 174.561 160.14 174.839C160.096 175.119 160.076 175.4 160.082 175.683C160.085 175.967 160.115 176.247 160.171 176.525L160.19 176.616C160.251 176.941 160.265 177.269 160.235 177.597C160.201 177.927 160.121 178.244 159.993 178.55C159.868 178.855 159.701 179.136 159.493 179.394C159.282 179.649 159.043 179.872 158.768 180.055C158.496 180.241 158.201 180.386 157.885 180.486C157.571 180.586 157.246 180.636 156.915 180.641C156.585 180.647 156.263 180.605 155.943 180.513C155.624 180.424 155.327 180.291 155.049 180.113C154.155 179.55 153.444 179.075 152.813 178.613C151.991 178.019 151.074 177.722 150.063 177.722C149.813 177.722 149.563 177.744 149.316 177.783C148.311 177.95 147.255 178.094 146.45 178.2C145.836 178.28 145.244 178.2 144.675 177.955C144.106 177.714 143.639 177.341 143.272 176.841C142.908 176.341 142.697 175.783 142.636 175.167C142.578 174.55 142.681 173.964 142.945 173.403C143.453 172.32 143.928 171.314 144.319 170.486C144.5 170.103 144.628 169.7 144.703 169.284C144.775 168.864 144.792 168.445 144.753 168.023C144.711 167.601 144.617 167.19 144.467 166.792C144.314 166.395 144.114 166.026 143.861 165.684L143.108 164.654C142.908 164.382 142.753 164.087 142.645 163.77C142.533 163.451 142.47 163.123 142.458 162.787C142.445 162.451 142.481 162.118 142.567 161.793C142.653 161.468 142.783 161.162 142.961 160.874C143.139 160.587 143.356 160.335 143.608 160.112C143.861 159.89 144.142 159.71 144.447 159.571C144.755 159.432 145.075 159.343 145.411 159.299C145.744 159.257 146.078 159.263 146.411 159.321L147.241 159.463C147.997 159.59 148.741 159.54 149.472 159.307C150.202 159.074 150.838 158.685 151.38 158.14L154.124 155.388ZM136.384 152.602C136.87 151.966 137.439 151.413 138.087 150.947C138.737 150.477 139.439 150.113 140.198 149.852C140.953 149.591 141.731 149.444 142.531 149.413C143.331 149.383 144.119 149.469 144.894 149.669C147.894 150.391 150.31 153.055 151.138 156.502L150.441 157.202C150.052 157.59 149.594 157.871 149.072 158.038C148.547 158.204 148.013 158.243 147.469 158.149L146.639 158.007C146.175 157.927 145.711 157.918 145.247 157.977C144.78 158.038 144.333 158.163 143.906 158.357C143.478 158.549 143.086 158.801 142.733 159.11C142.381 159.421 142.081 159.774 141.834 160.174C141.586 160.574 141.403 160.998 141.284 161.454C141.164 161.907 141.114 162.371 141.134 162.837C141.15 163.307 141.236 163.765 141.392 164.207C141.545 164.651 141.761 165.062 142.039 165.44L142.795 166.47C142.881 166.59 142.961 166.717 143.031 166.848C139.47 166.848 136.167 165.02 134.804 162.196C133.443 159.39 134.095 155.443 136.384 152.602Z" fill="black" stroke="black" stroke-width="2"/>
<path d="M59.4823 46.9557C59.5296 47.2918 59.6462 47.6028 59.8295 47.8889C60.0156 48.175 60.2517 48.4083 60.5378 48.5889L61.2794 47.4834C61.0044 47.3223 60.8461 47.0862 60.7989 46.7752C60.7072 46.103 61.1988 45.0586 62.1154 43.9837C62.657 43.3477 63.8903 41.7034 63.6208 40.1508C63.557 39.8008 63.4209 39.4842 63.2125 39.1981C63.0042 38.912 62.7431 38.6843 62.4293 38.5176C62.1738 38.3787 61.9404 38.2037 61.7349 37.9954C61.5266 37.7871 61.3544 37.5566 61.2155 37.2983C61.0739 37.0427 60.9739 36.7705 60.91 36.4845C60.8489 36.1984 60.8294 35.9095 60.8489 35.6151C60.8711 35.2985 60.9378 34.9929 61.0489 34.6957C61.16 34.3986 61.3072 34.1208 61.496 33.868C61.6849 33.6125 61.9043 33.3875 62.1543 33.1931C62.4071 33.0015 62.6793 32.8459 62.9765 32.732C63.257 32.6209 63.4986 32.4515 63.7014 32.2238C63.9041 31.9988 64.043 31.7377 64.118 31.4433C64.2069 31.0683 64.2069 30.6933 64.1208 30.3184C64.0375 29.9406 63.8736 29.6018 63.6347 29.3018C63.2514 28.8463 62.8181 28.4408 62.3404 28.088C61.9932 27.827 61.671 27.5409 61.3711 27.2242C61.0933 26.9298 60.9628 26.5798 60.9822 26.1743C61.0072 25.991 61.1016 25.8577 61.26 25.7688L60.5684 24.6328C60.0545 24.9356 59.7545 25.3827 59.6657 25.9744C59.624 26.3632 59.6629 26.7437 59.7879 27.1159C59.9101 27.4881 60.1073 27.8186 60.3739 28.1075C60.7211 28.4797 61.1016 28.8213 61.5099 29.1268C61.9043 29.4157 62.2626 29.7462 62.5848 30.1184C62.8181 30.4073 62.9015 30.735 62.8348 31.1016C62.782 31.2988 62.6626 31.4322 62.4682 31.4988C62.0571 31.6627 61.6794 31.8793 61.3294 32.1488C60.9794 32.421 60.6739 32.7348 60.4128 33.0903C60.1517 33.4486 59.9462 33.8347 59.7934 34.2486C59.6434 34.6624 59.5518 35.0929 59.5212 35.5318C59.4907 35.9484 59.5185 36.3623 59.6073 36.7705C59.6962 37.1788 59.8406 37.5677 60.0378 37.9343C60.2378 38.301 60.485 38.6315 60.7794 38.9287C61.0739 39.2259 61.4044 39.4731 61.771 39.6758C62.0682 39.8203 62.2487 40.0563 62.3099 40.3813C62.4265 41.0507 61.9543 42.1256 61.1044 43.1227C60.4128 43.931 59.2824 45.5086 59.4823 46.9557Z" fill="black" stroke="black" stroke-width="2"/>
<path d="M42.7421 46.9507C42.7893 47.2867 42.906 47.5978 43.0921 47.8839C43.2754 48.17 43.5115 48.4033 43.8003 48.5838L44.5392 47.4784C44.2642 47.3173 44.1059 47.0812 44.0614 46.7673C43.967 46.0952 44.4614 45.0536 45.3752 43.9787C45.9196 43.3427 47.1528 41.6956 46.8806 40.1457C46.8167 39.7958 46.6834 39.4764 46.4723 39.1903C46.264 38.9042 46.0029 38.6792 45.6891 38.5126C45.4335 38.3709 45.203 38.1959 44.9947 37.9876C44.7891 37.7821 44.6142 37.5488 44.4753 37.2932C44.3336 37.0349 44.2336 36.7627 44.1725 36.4767C44.1086 36.1906 44.0892 35.9017 44.1086 35.6101C44.1336 35.2934 44.2003 34.9851 44.3086 34.6879C44.4197 34.3907 44.5697 34.1158 44.7558 33.8602C44.9447 33.6047 45.1641 33.3797 45.4169 33.1881C45.6668 32.9936 45.9418 32.8409 46.2362 32.7242C46.5195 32.6131 46.7612 32.4437 46.9612 32.2187C47.1639 31.991 47.3028 31.7299 47.3806 31.4382C47.4667 31.0605 47.4667 30.6855 47.3833 30.3106C47.2972 29.9356 47.1334 29.5967 46.8945 29.2968C46.5112 28.8385 46.0807 28.4357 45.6002 28.0802C45.253 27.8219 44.9308 27.5331 44.6308 27.2192C44.3531 26.9248 44.2225 26.572 44.242 26.1665C44.2697 25.986 44.3614 25.8499 44.5225 25.7638L43.8309 24.625C43.3171 24.9277 43.0143 25.3749 42.9254 25.9665C42.8838 26.3582 42.9226 26.7387 43.0449 27.1109C43.1698 27.4803 43.3643 27.8108 43.6309 28.0969C43.9809 28.4719 44.3586 28.8107 44.7669 29.119C45.1641 29.4079 45.5196 29.7384 45.8418 30.1106C46.0751 30.3995 46.1585 30.7272 46.0918 31.0938C46.0418 31.291 45.9196 31.4244 45.7279 31.491C45.3169 31.6549 44.9363 31.8715 44.5864 32.1437C44.2364 32.4131 43.9309 32.727 43.6726 33.0853C43.4115 33.4408 43.2032 33.8269 43.0532 34.2435C42.9004 34.6574 42.8115 35.0879 42.781 35.5267C42.7504 35.9434 42.7782 36.3572 42.8671 36.7655C42.956 37.1738 43.0976 37.5627 43.2976 37.9293C43.4976 38.2959 43.7448 38.6292 44.0392 38.9236C44.3336 39.2208 44.6641 39.4708 45.0308 39.6708C45.328 39.8152 45.5085 40.0513 45.5696 40.3763C45.6863 41.0457 45.2141 42.1233 44.3642 43.1177C43.6726 43.9259 42.5421 45.5008 42.7421 46.9507Z" fill="black" stroke="black" stroke-width="2"/>
<path d="M27.5088 47.6331C27.556 47.9692 27.6726 48.2803 27.8559 48.5636C28.042 48.8497 28.2781 49.083 28.5642 49.2635L29.3058 48.1581C29.0336 47.9998 28.8725 47.7637 28.8281 47.4498C28.7336 46.7776 29.2253 45.7361 30.1418 44.6612C30.6835 44.0251 31.9167 42.3781 31.6473 40.8254C31.5834 40.4782 31.4473 40.1588 31.239 39.8727C31.0306 39.5867 30.7696 39.3589 30.4557 39.195C30.2002 39.0534 29.9669 38.8784 29.7613 38.6701C29.5558 38.4645 29.3808 38.2312 29.2419 37.9729C29.1003 37.7174 29.0003 37.4452 28.9364 37.1591C28.8753 36.873 28.8559 36.5842 28.8753 36.2925C28.8975 35.9759 28.9642 35.6676 29.0753 35.3704C29.1864 35.0732 29.3336 34.7982 29.5225 34.5427C29.7113 34.2872 29.9308 34.0622 30.1807 33.8705C30.4335 33.6761 30.7057 33.5234 31.0029 33.4067C31.2862 33.2956 31.5278 33.1262 31.7278 32.8984C31.9306 32.6707 32.0694 32.4123 32.1472 32.1179C32.2333 31.743 32.2333 31.368 32.1472 30.9903C32.0639 30.6153 31.9 30.2764 31.6611 29.9765C31.2778 29.521 30.8446 29.1154 30.364 28.7627C30.0196 28.5016 29.6974 28.2127 29.3975 27.8989C29.1197 27.6017 28.9892 27.2517 29.0086 26.8462C29.0336 26.6657 29.128 26.5296 29.2864 26.4407L28.5948 25.3047C28.0809 25.6074 27.781 26.0574 27.6921 26.6462C27.6504 27.0351 27.6893 27.4184 27.8143 27.7906C27.9365 28.1627 28.1337 28.4933 28.4003 28.7794C28.7475 29.1515 29.128 29.4932 29.5363 29.7987C29.9308 30.0903 30.289 30.4209 30.6085 30.7903C30.8446 31.0791 30.9279 31.4069 30.8584 31.7735C30.8084 31.9707 30.6862 32.104 30.4946 32.1735C30.0835 32.3346 29.703 32.5512 29.3558 32.8234C29.0058 33.0928 28.7003 33.4067 28.4392 33.7622C28.1781 34.1205 27.9726 34.5066 27.8198 34.9204C27.6699 35.3343 27.5782 35.762 27.5476 36.2037C27.5171 36.6203 27.5449 37.0341 27.6337 37.4424C27.7226 37.8507 27.8643 38.2368 28.0643 38.6062C28.2642 38.9728 28.5114 39.3034 28.8059 39.6006C29.1003 39.8977 29.4308 40.1449 29.7947 40.3477C30.0946 40.4921 30.2752 40.7254 30.3335 41.0532C30.4529 41.7226 29.9807 42.7975 29.1308 43.7946C28.4364 44.6056 27.3088 46.186 27.5088 47.6331Z" fill="black" stroke="black" stroke-width="2"/>
<path d="M89.3501 152.305C89.3973 152.641 89.514 152.952 89.6973 153.238C89.8834 153.522 90.1195 153.755 90.4055 153.938L91.1471 152.83C90.8722 152.669 90.7139 152.433 90.6694 152.119C90.575 151.447 91.0666 150.405 91.9832 149.33C92.5276 148.694 93.758 147.047 93.4886 145.497C93.4247 145.147 93.2886 144.831 93.0803 144.542C92.872 144.256 92.6109 144.031 92.297 143.864C92.0415 143.722 91.8082 143.547 91.6027 143.342C91.3971 143.134 91.2221 142.9 91.0833 142.645C90.9416 142.386 90.8416 142.114 90.7777 141.828C90.7166 141.542 90.6972 141.253 90.7166 140.962C90.7389 140.645 90.8055 140.339 90.9166 140.042C91.0277 139.745 91.1749 139.467 91.3638 139.212C91.5527 138.956 91.7721 138.734 92.0221 138.54C92.2748 138.348 92.547 138.192 92.8442 138.076C93.1247 137.965 93.3692 137.798 93.5691 137.57C93.7719 137.343 93.9108 137.084 93.9885 136.79C94.0746 136.415 94.0746 136.04 93.9885 135.662C93.9052 135.287 93.7413 134.948 93.5025 134.648C93.1192 134.193 92.6859 133.787 92.2082 133.435C91.861 133.173 91.5388 132.887 91.2388 132.571C90.9611 132.276 90.8305 131.926 90.8527 131.518C90.8749 131.338 90.9694 131.201 91.1305 131.115L90.4361 129.977C89.9223 130.282 89.6223 130.729 89.5362 131.318C89.4917 131.71 89.5334 132.09 89.6556 132.462C89.7778 132.835 89.975 133.165 90.2417 133.451C90.5889 133.826 90.9694 134.165 91.3777 134.473C91.7721 134.762 92.1304 135.093 92.4498 135.465C92.6859 135.754 92.7692 136.082 92.6998 136.448C92.6498 136.645 92.5276 136.779 92.3359 136.845C91.9248 137.009 91.5443 137.226 91.1971 137.495C90.8472 137.767 90.5416 138.079 90.2806 138.437C90.0195 138.792 89.8139 139.178 89.6612 139.592C89.5112 140.009 89.4195 140.437 89.389 140.878C89.3584 141.295 89.3862 141.706 89.4751 142.114C89.564 142.523 89.7056 142.911 89.9056 143.278C90.1056 143.645 90.3528 143.978 90.6472 144.275C90.9416 144.57 91.2721 144.82 91.6388 145.02C91.936 145.164 92.1165 145.4 92.1748 145.725C92.2943 146.397 91.8221 147.472 90.9694 148.466C90.2806 149.278 89.1473 150.855 89.3501 152.305Z" fill="black" stroke="black" stroke-width="2"/>
<path d="M72.6103 152.305C72.6575 152.641 72.7741 152.952 72.9575 153.235C73.1436 153.522 73.3796 153.755 73.6657 153.935L74.4073 152.83C74.1324 152.672 73.974 152.433 73.9296 152.119C73.8352 151.447 74.3268 150.405 75.2434 149.33C75.785 148.694 77.021 147.05 76.7488 145.497C76.6849 145.147 76.5488 144.831 76.3405 144.545C76.1322 144.259 75.8711 144.031 75.5572 143.864C75.3017 143.722 75.0684 143.55 74.8628 143.342C74.6573 143.134 74.4823 142.903 74.3434 142.645C74.2018 142.386 74.1018 142.117 74.0407 141.831C73.9768 141.545 73.9574 141.253 73.9768 140.962C74.0018 140.645 74.0685 140.339 74.1768 140.042C74.2879 139.745 74.4351 139.467 74.624 139.212C74.8128 138.959 75.0323 138.734 75.2822 138.54C75.535 138.348 75.8072 138.192 76.1044 138.079C76.3849 137.967 76.6293 137.798 76.8293 137.57C77.0321 137.343 77.171 137.084 77.2487 136.79C77.3348 136.415 77.3348 136.04 77.2487 135.665C77.1654 135.287 77.0015 134.951 76.7627 134.648C76.3794 134.193 75.9461 133.787 75.4683 133.435C75.1211 133.173 74.799 132.887 74.499 132.571C74.2185 132.276 74.0907 131.926 74.1101 131.521C74.1351 131.338 74.2268 131.204 74.3879 131.115L73.6963 129.977C73.1824 130.282 72.8825 130.729 72.7936 131.321C72.7519 131.71 72.7908 132.09 72.9158 132.462C73.038 132.835 73.2352 133.165 73.5019 133.454C73.849 133.826 74.2268 134.165 74.6351 134.473C75.0323 134.762 75.3906 135.093 75.71 135.465C75.9461 135.754 76.0294 136.082 75.96 136.448C75.91 136.645 75.7878 136.779 75.5961 136.848C75.185 137.009 74.8045 137.226 74.4573 137.498C74.1074 137.767 73.8018 138.081 73.5407 138.437C73.2797 138.795 73.0741 139.178 72.9214 139.595C72.7714 140.009 72.6797 140.437 72.6492 140.878C72.6186 141.295 72.6464 141.706 72.7353 142.117C72.8214 142.525 72.9658 142.911 73.1658 143.281C73.3658 143.647 73.613 143.978 73.9074 144.275C74.2018 144.572 74.5323 144.82 74.8989 145.022C75.1961 145.167 75.3767 145.4 75.435 145.728C75.5517 146.397 75.0823 147.472 74.2296 148.466C73.5407 149.278 72.4103 150.855 72.6103 152.305Z" fill="black" stroke="black" stroke-width="2"/>
<path d="M57.3724 152.982C57.4224 153.318 57.5391 153.629 57.7224 153.915C57.9085 154.201 58.1446 154.435 58.4306 154.615L59.1722 153.504C58.8973 153.346 58.7389 153.11 58.6917 152.799C58.6001 152.126 59.0917 151.082 60.0083 150.007C60.5499 149.371 61.7831 147.727 61.5109 146.174C61.4498 145.827 61.3137 145.508 61.1054 145.222C60.8971 144.935 60.636 144.71 60.3221 144.544C60.0666 144.402 59.8333 144.23 59.6278 144.022C59.4194 143.813 59.2472 143.583 59.1056 143.324C58.9667 143.066 58.8667 142.797 58.8028 142.508C58.7417 142.222 58.7195 141.933 58.7417 141.641C58.7639 141.325 58.8306 141.019 58.9417 140.722C59.05 140.425 59.2 140.147 59.3889 139.891C59.5778 139.636 59.7972 139.414 60.0472 139.219C60.2999 139.028 60.5721 138.872 60.8665 138.755C61.1498 138.644 61.3915 138.478 61.5942 138.25C61.797 138.022 61.9359 137.764 62.0109 137.469C62.0997 137.095 62.0997 136.72 62.0136 136.342C61.9303 135.967 61.7664 135.628 61.5248 135.328C61.1415 134.873 60.711 134.467 60.2305 134.114C59.8861 133.853 59.5639 133.567 59.2639 133.25C58.9834 132.956 58.8556 132.606 58.875 132.198C58.9 132.017 58.9917 131.884 59.1528 131.795L58.4612 130.656C57.9474 130.962 57.6474 131.409 57.5585 131.998C57.5168 132.389 57.5557 132.77 57.6807 133.142C57.8029 133.514 57.9974 133.845 58.2668 134.131C58.614 134.506 58.9917 134.845 59.4 135.153C59.7972 135.442 60.1555 135.772 60.4749 136.145C60.711 136.433 60.7943 136.761 60.7249 137.128C60.6749 137.325 60.5527 137.458 60.361 137.528C59.9499 137.689 59.5694 137.906 59.2195 138.175C58.8723 138.447 58.5667 138.761 58.3057 139.117C58.0446 139.472 57.839 139.858 57.6863 140.275C57.5335 140.689 57.4446 141.116 57.4141 141.558C57.3835 141.975 57.4113 142.386 57.5002 142.794C57.5863 143.202 57.7307 143.591 57.9307 143.958C58.1307 144.327 58.3779 144.658 58.6723 144.955C58.9667 145.249 59.2944 145.499 59.6611 145.702C59.9611 145.846 60.1416 146.08 60.1999 146.408C60.3166 147.077 59.8444 148.152 58.9945 149.146C58.3029 149.96 57.1752 151.535 57.3724 152.982Z" fill="black" stroke="black" stroke-width="2"/>
</svg>
