<svg width="168" height="252" viewBox="0 0 168 252" fill="none" xmlns="http://www.w3.org/2000/svg">
<path d="M123.388 154.91C123.212 155.496 123.099 156.11 122.843 156.656C122.473 157.439 122.064 158.226 121.55 158.916C116.035 166.314 114.478 174.671 114.959 183.734C115.694 197.542 117.741 211.117 121 224.54C121.462 226.447 121.365 228.486 121.594 230.452C121.646 230.91 121.871 231.444 122.192 231.757C127.539 236.939 128.374 240.832 125.556 247.736C130.87 248.327 132.544 247.837 132.757 242.394C132.865 239.552 131.589 237.104 130.032 234.779C129.405 233.848 128.996 232.769 128.434 231.653C135.856 230.163 140.725 235.638 140.592 244.826C144.59 244.602 148.608 244.236 152.526 245.268C152.538 245.497 152.55 245.725 152.562 245.954C150.109 246.211 147.661 246.496 145.208 246.717C143.679 246.857 142.117 246.781 140.612 247.034C139.549 247.211 137.794 246.46 137.754 248.652C137.754 248.808 136.939 249.033 136.49 249.085C134.7 249.29 132.901 249.474 131.103 249.603C127.459 249.864 123.898 250.081 120.282 251.148C115.228 252.641 110.05 252.501 106.076 247.949C105.719 247.54 104.736 247.544 104.049 247.568C97.9722 247.797 91.8951 248.298 85.822 248.25C82.0851 248.222 78.3521 247.379 74.6192 246.906C74.6432 246.613 74.6713 246.324 74.6954 246.031C76.8629 246.131 79.0305 246.227 81.198 246.332C84.9992 246.512 88.7964 246.825 92.5976 246.841C95.1344 246.849 95.7084 246.006 95.608 243.45C95.4314 238.954 91.8269 235.614 87.2711 235.751C86.4683 235.775 85.6695 235.879 84.8707 235.911C80.7645 236.072 79.8011 235.446 78.4163 231.48C75.6387 223.512 72.7366 215.573 67.6148 208.761C65.343 205.739 62.5372 203.118 59.9402 200.344C59.1454 199.497 58.2463 198.746 57.3954 197.956L57.7727 197.382C58.8966 197.984 60.0887 198.485 61.1283 199.212C66.3063 202.821 70.0674 207.75 72.7687 213.297C75.6547 219.221 77.8464 225.483 80.335 231.6C80.5839 232.215 80.6481 233.114 81.1017 233.391C81.8161 233.828 82.7795 233.916 83.6505 233.985C83.7709 233.993 84.2084 232.985 84.092 232.556C80.8528 220.502 77.3045 208.577 68.4457 199.156C64.4559 194.913 60.0646 191.116 54.2003 189.9C45.197 188.033 37.8876 191.309 32.1437 198.196C30.4057 200.28 29.1493 202.764 27.7203 205.1C26.9617 206.345 26.3114 207.657 25.1313 208.866C25.2357 207.954 25.2116 207.007 25.4645 206.14C29.9521 190.907 47.794 181.643 62.9747 191.694C71.7733 197.522 77.3085 205.787 80.7083 215.561C82.7193 221.349 84.3449 227.273 86.1753 233.238C95.2548 234.061 98.9877 238.641 98.3174 246.267C100.389 246.107 102.408 245.95 104.286 245.806C103.929 242.579 103.632 239.552 103.214 236.546C103.15 236.084 102.488 235.719 102.127 235.289C101.203 234.193 99.8949 233.226 99.4534 231.962C97.3942 226.033 95.7525 219.952 93.6412 214.043C87.9454 198.132 82.0851 182.277 76.289 166.398C75.8675 165.238 75.4661 164.07 75.0567 162.902C75.2453 162.814 75.43 162.725 75.6186 162.637C76.586 164.427 77.7701 166.133 78.4846 168.02C83.1327 180.258 87.8049 192.493 92.2082 204.819C95.038 212.739 97.4584 220.807 100.003 228.831C101.256 232.777 103.259 234.515 107.493 234.892C111.423 235.241 115.023 234.25 118.375 232.162C120.117 231.079 120.559 229.802 120.077 227.803C118.475 221.176 116.83 214.549 115.585 207.854C113.538 196.836 113 185.689 113.33 174.49C113.43 170.998 114.361 167.735 116.063 164.736C117.741 161.774 119.611 158.92 121.454 156.05C121.811 155.492 122.409 155.091 122.899 154.617C123.059 154.714 123.22 154.81 123.38 154.906L123.388 154.91ZM104.704 237.112C105.386 239.877 105.819 242.711 106.799 245.34C107.911 248.331 110.399 249.671 113.619 249.583C115.862 249.523 116.685 248.892 116.958 246.713C117.424 242.968 116.753 239.428 115.003 236.329C111.68 236.582 108.529 236.819 104.7 237.112H104.704ZM117.853 249.326C118.684 249.194 119.346 249.185 119.936 248.981C122.702 248.017 124.773 246.356 125.139 243.237C125.532 239.873 124.801 236.815 122.204 234.486C121.719 234.049 120.667 233.896 120.005 234.077C118.756 234.418 117.6 235.097 116.388 235.642C119.102 239.982 119.226 244.449 117.853 249.33V249.326ZM131.384 233.587C134.431 238.007 135.976 242.378 133.058 247.303C135.197 247.395 137.052 247.363 138.148 245.589C139.685 243.1 139.532 240.423 138.196 237.955C136.855 235.47 134.788 233.792 131.388 233.587H131.384Z" fill="black"/>
<path d="M90.5302 12.4277C94.6927 10.5131 98.534 8.51416 102.548 6.95274C106.823 5.29097 111.25 5.19865 115.726 6.57141C117.789 7.20561 120.009 7.3461 122.26 7.72743C122.164 8.94766 121.181 9.44138 119.972 9.35307C118.656 9.25674 117.283 9.06808 116.063 8.59845C110.54 6.47508 105.261 7.39427 100.132 9.78657C97.3017 11.1072 94.6044 12.7127 91.6421 14.3023C93.0349 16.1206 92.8382 18.8741 95.4794 19.994C96.0414 20.2308 96.3304 21.3106 96.5752 22.0572C99.12 29.8201 99.9429 37.8761 98.5862 45.8317C96.2501 59.5433 83.8912 70.0076 67.9157 66.09C60.1929 64.1955 52.8956 61.0726 47.4768 54.9112C45.7066 52.9002 44.5707 50.3353 43.1578 48.0113C42.5236 46.9677 42.7283 46.0244 43.4749 45.0851C49.0703 38.0126 54.4731 30.7795 60.2892 23.8956C63.8536 19.6769 67.9237 15.8637 71.9939 12.1066C73.6677 10.5613 75.8232 9.39722 77.9465 8.4981C82.4502 6.5955 86.2594 7.63109 89.5067 11.2677C89.9402 11.7574 90.3777 12.2431 90.5342 12.4197L90.5302 12.4277ZM95.1743 39.2408C94.9335 29.3184 93.5648 22.2057 90.0205 15.6469C86.3597 8.8714 81.9364 7.72743 75.5984 12.1387C72.7124 14.1497 69.9026 16.4577 67.6267 19.119C60.1126 27.9015 52.8313 36.8887 45.5501 45.8718C45.0804 46.4499 45.0845 47.7664 45.3815 48.5451C48.2755 56.1114 61.5617 65.1347 72.9371 62.5096C86.4641 59.3868 95.5798 50.6524 95.1703 39.2408H95.1743ZM97.2375 41.1796C97.0649 41.5769 96.804 41.9583 96.7358 42.3717C95.3269 50.9615 90.6988 57.151 82.98 61.1368C81.523 61.8915 80.2907 63.0836 78.9581 64.075C88.0978 63.8984 98.6544 50.6003 97.2375 41.1796Z" fill="black"/>
<path d="M17.0231 242.951C17.6613 242.598 18.0868 242.361 18.8695 241.928C15.4336 242.14 12.383 242.329 9.33641 242.522C6.2497 242.714 3.16699 242.911 0.0802787 243.108C0.0521812 242.779 0.0240836 242.454 0 242.124C5.60345 241.033 11.3032 240.707 17.3241 240.427C15.4256 237.308 12.0579 234.598 14.5224 230.311C16.7582 226.418 20.3065 225.703 24.4489 225.964C24.3806 225.547 24.4047 225.274 24.2923 225.081C20.6637 218.747 19.889 211.835 20.166 204.719C20.5473 194.945 23.8749 186.05 28.2581 177.452C34.2188 165.755 41.7931 155.199 50.5716 145.465C56.171 139.259 61.7704 133.054 67.2856 126.776C71.135 122.397 74.1735 117.568 74.9923 111.615C75.0927 110.885 75.5342 110.202 75.8192 109.5L76.5016 109.592C76.5016 110.672 76.614 111.764 76.4815 112.828C75.8393 118.062 73.3547 122.505 70.0151 126.403C63.2717 134.27 56.1068 141.788 49.548 149.808C38.7947 162.954 29.2054 176.882 24.1639 193.367C21.9723 200.54 21.1294 207.89 22.6988 215.36C23.6862 220.048 25.8257 224.182 28.8522 227.831C33.9739 233.996 39.8022 239.363 46.9309 243.184C55.4164 247.732 63.7292 247.114 71.9056 242.345C72.0662 242.253 72.2709 242.233 72.7084 242.108C72.6402 244.364 71.0507 245.163 69.5093 245.757C64.3675 247.744 59.0249 248.776 53.6101 247.314C49.1787 246.118 44.9079 244.336 40.5247 242.947C39.7299 242.694 38.5378 242.791 37.8634 243.236C33.424 246.166 28.7598 246.865 23.7224 245.119C21.591 244.38 19.4315 243.726 17.0191 242.951H17.0231ZM37.9598 239.712C33.5605 236.473 29.5707 233.442 25.4724 230.572C24.2442 229.713 22.755 229.119 21.2979 228.714C19.022 228.08 17.5208 229.501 16.1882 231.098C14.9198 232.619 14.8797 234.133 15.8992 235.863C17.866 239.202 20.6678 241.587 24.0154 243.405C28.2862 245.725 32.1717 244.32 35.8886 242.032C36.6793 241.546 37.1891 240.599 37.9598 239.712Z" fill="black"/>
<path d="M158.028 67.4584C155.54 66.5071 153.051 65.5518 150.563 64.6005C150.579 64.448 150.591 64.2954 150.607 64.1429C151.855 64.1429 153.139 63.9422 154.344 64.175C164.973 66.2301 170.006 76.0563 165.611 86.2436C162.889 92.5495 158.265 96.8043 151.582 98.7229C146.424 100.2 141.262 101.601 135.815 100.638C131.553 99.883 127.832 98.0205 124.785 94.9378C123.938 94.0788 123.348 92.967 122.642 91.9675L123.147 91.4938C123.842 92.12 124.532 92.7582 125.231 93.3764C132.636 99.9271 141.286 101.147 149.093 96.6638C154.187 93.7376 156.25 89.1738 156.086 83.3335C152.802 82.6792 150.647 80.5639 148.744 78.0672C147.729 76.7386 147.797 75.5786 148.812 74.2741C150.719 71.8256 153.212 70.212 155.989 68.9636C156.644 68.6706 157.29 68.3656 157.94 68.0645C157.968 67.8638 157.996 67.6591 158.024 67.4584H158.028ZM152.361 96.5193C161.697 93.5169 167.75 81.6517 164.31 74.4346C164.19 74.6152 164.057 74.7638 163.977 74.9364C162.628 77.8545 162.014 81.2543 158.594 82.7876C158.289 82.9241 158.181 83.7189 158.153 84.2166C157.86 89.0734 156.387 93.3643 152.361 96.5193Z" fill="black"/>
<path d="M78.0832 86.7077C77.9307 87.3821 77.9226 88.1367 77.6015 88.7187C76.6021 90.533 75.5464 92.3232 74.3984 94.0452C72.7166 96.574 73.0497 98.8619 74.7797 101.242C77.7099 105.276 81.4589 108.363 85.7177 110.823C100.348 119.281 116.051 125.017 132.424 129.019C137.449 130.247 141.985 129.075 145.602 125.559C148.102 123.13 150.33 120.268 152.08 117.254C154.733 112.682 153.983 109.836 150.121 106.24C149.467 105.633 149.062 104.762 148.745 103.883C152.317 104.514 155.97 109.639 155.263 113.489C152.967 125.976 141.672 133.57 129.044 130.608C113.205 126.891 98.2291 120.866 84.0479 112.907C79.5724 110.394 75.6668 107.219 72.7607 102.868C70.8421 99.9979 70.545 97.1881 72.3473 94.2419C73.9649 91.5967 75.6628 89.0037 77.3246 86.3906C77.5815 86.495 77.8343 86.6034 78.0912 86.7077H78.0832Z" fill="black"/>
<path d="M138.272 31.0359C141.491 30.1328 144.51 31.1082 147.011 33.0911C149.423 35.0017 151.39 37.4703 153.67 39.8104C157.471 38.534 159.402 34.8452 158.29 30.3696C157.29 26.3396 154.794 23.1526 152.124 20.1702C148.383 15.9917 144.558 11.8614 140.472 8.02405C138.324 6.00504 135.695 4.33524 133.014 3.08691C128.659 1.05987 125.829 2.06336 123.019 5.92878C122.839 6.17363 122.566 6.35024 122.289 6.60312C121.598 4.31919 123.031 1.7583 125.556 0.766856C128.599 -0.425282 131.75 -0.220572 134.479 1.33282C137.465 3.03473 140.448 4.98951 142.852 7.40992C148.07 12.6682 153.084 18.1512 157.832 23.8349C159.743 26.1189 161.128 29.0531 162.007 31.915C162.581 33.7775 162.179 36.1738 161.553 38.1165C160.746 40.6252 158.567 41.7652 155.873 41.717C155.223 41.705 154.573 41.717 153.758 41.717C154.653 44.5709 155.516 47.3325 156.383 50.0941C156.17 50.1824 155.958 50.2707 155.745 50.363C155.315 49.5362 154.85 48.7254 154.456 47.8824C153.248 45.2814 152.169 42.6121 150.852 40.0673C148.612 35.7443 144.951 33.2918 140.195 32.3926C139.476 32.2562 138.794 31.915 138.096 31.6701C138.152 31.4574 138.208 31.2407 138.268 31.0279L138.272 31.0359Z" fill="black"/>
<path d="M129.478 230.564C129.634 228.806 129.871 227.048 129.927 225.286C130.353 212.06 130.842 198.838 131.099 185.608C131.22 179.387 132.179 173.39 134.443 167.606C138.336 157.667 139.982 147.275 140.781 136.702C140.861 135.643 141.162 134.595 141.359 133.544C141.632 133.535 141.901 133.527 142.174 133.523C142.306 134.358 142.535 135.185 142.563 136.024C142.884 145.441 141.439 154.693 137.915 163.319C133.564 173.976 132.283 184.902 132.319 196.229C132.352 206.184 131.958 216.138 131.681 226.089C131.637 227.747 131.621 229.541 130.192 230.741C129.955 230.685 129.714 230.625 129.478 230.568V230.564Z" fill="black"/>
<path d="M147.183 105.337C145.329 112.341 137.128 117.222 130.445 114.85C123.842 112.506 117.432 109.616 110.949 106.935C106.377 105.044 101.733 103.298 97.2897 101.143C85.7015 95.523 77.3445 86.9252 73.5031 74.3816C73.1178 73.1172 72.9733 71.7806 72.7124 70.4761C72.9894 70.3838 73.2703 70.2954 73.5473 70.2031C74.1735 71.4595 74.7876 72.7199 75.4218 73.9682C77.4167 77.8938 79.1066 82.0201 81.4909 85.6929C85.4727 91.8262 91.1243 96.3338 97.7393 99.3242C108.147 104.029 118.676 108.48 129.249 112.803C135.458 115.34 139.476 113.983 143.651 108.681C144.658 107.4 145.742 106.176 146.79 104.924L147.179 105.337H147.183Z" fill="black"/>
<path d="M131.561 62.9723C131.525 63.2854 131.496 63.8233 131.396 64.3451C130.963 66.5608 130.405 68.7524 127.888 69.503C125.211 70.3017 123.047 69.2862 121.237 67.3234C118.523 64.3812 118.086 60.3713 120.173 57.6097C121.759 55.5184 124.898 54.4668 127.157 55.2696C129.762 56.1968 131.637 59.3758 131.561 62.9723Z" fill="black"/>
<path d="M155.56 55.9292C155.367 56.9247 155.215 58.1891 154.862 59.3933C154.388 61.0149 153.156 62.195 151.542 62.1147C150.229 62.0505 148.315 61.4966 147.797 60.5453C146.701 58.5222 145.886 56.1179 145.79 53.834C145.666 50.9399 148.206 48.941 150.9 49.0855C153.268 49.2139 155.464 51.6544 155.556 54.2675C155.572 54.7331 155.556 55.1987 155.556 55.9292H155.56Z" fill="black"/>
<path d="M123.814 39.7292C120.707 40.3715 117.42 40.5882 114.538 41.7804C111.7 42.9564 109.267 45.1159 106.478 46.6051C108.324 42.8721 111.459 40.6725 115.328 39.4723C118.114 38.6053 120.972 37.8467 123.774 39.1633C123.786 39.3519 123.802 39.5406 123.814 39.7292Z" fill="black"/>
<path d="M131.778 71.83C131.168 68.2135 139.677 60.591 143.438 61.3858L131.778 71.83Z" fill="black"/>
<path d="M142.948 64.6978C144.056 62.6989 146.481 62.2212 148.893 63.594C147.022 63.9432 145.148 64.2884 142.948 64.6978Z" fill="black"/>
</svg>
