<svg width="250" height="102" viewBox="0 0 250 102" fill="none" xmlns="http://www.w3.org/2000/svg">
<path d="M188.92 66.116C189.859 67.1021 190.742 68.0353 191.789 69.0269C192.311 69.4935 192.9 69.849 193.556 70.0907C194.211 70.3351 194.889 70.449 195.589 70.4378C195.758 70.4378 195.928 70.4295 196.097 70.4156C197.466 70.3073 198.441 69.7851 198.8 69.3157C199.113 68.8852 199.311 68.4075 199.386 67.8798C199.458 67.352 199.405 66.8382 199.219 66.3355C198.65 64.5745 196.961 63.1108 194.703 62.4247C192.695 61.8164 189.784 61.7387 186.715 62.2164C186.42 62.2636 186.226 62.4275 186.137 62.7136C186.045 62.9969 186.106 63.2441 186.32 63.4524C187.256 64.3662 188.092 65.2467 188.92 66.116ZM194.281 63.8135C196.086 64.3606 197.416 65.4717 197.839 66.7826C197.95 67.0548 197.989 67.3381 197.955 67.6298C197.922 67.9214 197.819 68.1908 197.65 68.4297C197.15 68.7797 196.592 68.9602 195.98 68.9713C195.403 69.0324 194.836 68.9797 194.281 68.8047C193.725 68.6325 193.225 68.3547 192.786 67.9742C191.767 67.0076 190.895 66.091 189.953 65.0995C189.448 64.5662 188.934 64.0246 188.387 63.4663C190.373 63.2191 192.336 63.3357 194.281 63.8135Z" fill="black" stroke="black"/>
<path d="M171.563 63.6126C168.464 63.8376 165.644 64.5653 163.828 65.6097C161.781 66.7873 160.462 68.5927 160.306 70.437C160.237 70.9675 160.298 71.4785 160.489 71.9785C160.681 72.4757 160.978 72.8978 161.384 73.245C161.992 73.645 162.661 73.8228 163.386 73.7783C163.681 73.7783 163.972 73.7561 164.264 73.7117C165.044 73.6117 165.772 73.3617 166.45 72.9562C167.125 72.5534 167.691 72.0313 168.15 71.3924C168.941 70.1981 169.597 69.0871 170.288 67.915L169.666 67.5428L169.041 67.1734V67.1762C168.358 68.3344 167.714 69.4287 166.944 70.5897C166.6 71.0591 166.175 71.4424 165.675 71.7368C165.172 72.0285 164.631 72.2118 164.053 72.2785C163.458 72.4062 162.878 72.359 162.311 72.134C162.092 71.9396 161.931 71.7007 161.831 71.423C161.731 71.1425 161.706 70.8564 161.753 70.5647C161.87 69.1954 162.917 67.815 164.553 66.8734C166.339 65.9707 168.227 65.4152 170.216 65.2125C169.808 65.8818 169.425 66.529 169.05 67.1651L169.669 67.5428L170.3 67.9011C170.899 66.8845 171.519 65.8374 172.227 64.732C172.391 64.482 172.394 64.2264 172.241 63.9709C172.091 63.7071 171.863 63.5876 171.563 63.6126Z" fill="black" stroke="black"/>
<mask id="mask0_126_833" style="mask-type:luminance" maskUnits="userSpaceOnUse" x="-1" y="0" width="252" height="103">
<path d="M0.404297 0.875H249.914V101.51H0.404297V0.875Z" fill="white" stroke="white"/>
</mask>
<g mask="url(#mask0_126_833)">
<path d="M249.444 7.50296C249.33 6.40306 249.002 5.36705 248.458 4.40048C247.916 3.4339 247.205 2.61731 246.322 1.94515C245.706 1.50075 245.025 1.20356 244.278 1.05635C243.533 0.906364 242.789 0.920251 242.05 1.09523L175.907 8.53064C175.723 6.86135 175.546 5.19762 175.376 3.57278C175.365 3.47279 175.334 3.37557 175.282 3.28947C175.232 3.20059 175.165 3.1256 175.082 3.06449C175.001 3.00339 174.909 2.9645 174.809 2.94228C174.709 2.92006 174.609 2.92006 174.509 2.9395L171.074 3.63944C170.888 3.67832 170.74 3.77276 170.632 3.92552C170.521 4.07828 170.477 4.24771 170.499 4.43381L171.065 9.3139C164.605 10.1749 158.136 10.9249 151.662 11.5665L151.787 8.78617C151.798 8.5723 151.784 8.36121 151.751 8.15012C151.72 7.93903 151.664 7.73627 151.589 7.53629C151.517 7.33631 151.423 7.14744 151.312 6.96412C151.198 6.78358 151.067 6.61693 150.923 6.46139C150.776 6.30863 150.615 6.16975 150.44 6.04754C150.267 5.92533 150.081 5.81978 149.887 5.73646C149.692 5.65036 149.49 5.58647 149.281 5.54203C149.073 5.49759 148.862 5.4726 148.651 5.46982L147.193 5.45593H147.162C146.957 5.45871 146.754 5.47815 146.554 5.51704C146.354 5.5587 146.159 5.61703 145.971 5.6948C145.782 5.76979 145.601 5.867 145.429 5.9781C145.259 6.0892 145.101 6.21697 144.954 6.35862C144.807 6.50305 144.676 6.65859 144.56 6.82524C144.443 6.99467 144.343 7.16965 144.26 7.35853C144.179 7.54462 144.115 7.73905 144.068 7.93903C144.024 8.13623 143.999 8.33899 143.993 8.54452C143.962 9.65553 143.926 10.9193 143.885 12.2858C116.657 14.6189 89.4009 15.0356 62.1119 13.5329C62.0702 12.1192 62.0341 10.8082 62.0035 9.66109C61.998 9.45833 61.9702 9.25557 61.9258 9.05559C61.8813 8.85561 61.8174 8.66396 61.7341 8.47509C61.6508 8.28899 61.5536 8.11123 61.4369 7.94458C61.3203 7.77515 61.187 7.61961 61.0425 7.47796C60.8953 7.33353 60.737 7.20854 60.5648 7.09466C60.3954 6.98356 60.2148 6.88913 60.026 6.81136C59.8371 6.73359 59.6399 6.67526 59.4399 6.63637C59.2399 6.59471 59.0372 6.57527 58.8344 6.57527H58.8011L57.3457 6.58916C57.1318 6.58916 56.9235 6.61415 56.7152 6.65859C56.5068 6.70303 56.3041 6.76692 56.1097 6.85302C55.9125 6.93634 55.7291 7.04189 55.5542 7.1641C55.3792 7.28631 55.2209 7.42241 55.0736 7.57795C54.9264 7.73349 54.7959 7.90014 54.6848 8.08068C54.5709 8.26122 54.4793 8.45287 54.4043 8.65007C54.3293 8.85005 54.2765 9.05559 54.2432 9.26668C54.2098 9.47777 54.1987 9.68886 54.2071 9.89995L54.3515 13.058C36.6421 11.847 18.9882 9.82496 1.38986 6.99189C1.19822 6.96134 1.02046 7.00023 0.862136 7.11133C0.701041 7.22243 0.60105 7.37519 0.564942 7.56684C0.50106 7.87514 0.406624 8.33899 4.5479 13.7496C6.07275 15.7438 8.77249 19.1602 9.71685 19.6462C13.5915 21.1628 17.58 22.2543 21.6879 22.9209C32.4147 24.3708 43.4636 25.4429 54.9348 26.1345C55.3042 34.4198 55.643 42.1413 55.7514 44.5717C41.8999 44.1717 28.2568 43.519 14.8191 42.6107C14.6108 42.5941 14.4331 42.6579 14.2803 42.7996C14.1275 42.9385 14.0498 43.1107 14.0442 43.3162L13.6942 57.3649C13.6887 57.5565 13.7526 57.726 13.8803 57.8676C14.0109 58.012 14.172 58.0898 14.3664 58.1065C27.3791 59.0481 40.5889 59.773 53.6404 60.2674C53.9071 66.214 54.196 72.7301 54.4293 77.9712C49.6853 77.724 44.5774 78.0435 41.1833 79.9238C31.3815 85.3622 35.1866 94.0642 35.2255 94.153C35.2839 94.2808 35.3727 94.3864 35.4922 94.4613C35.6116 94.5391 35.7421 94.578 35.8866 94.578H50.8102C50.4907 95.9862 49.8686 98.7748 49.5103 100.825C49.4908 100.93 49.4964 101.036 49.5242 101.141C49.5547 101.244 49.6019 101.338 49.6742 101.422C49.7436 101.502 49.8269 101.566 49.9269 101.611C50.0241 101.655 50.1269 101.677 50.2352 101.675C58.5344 101.575 70.2528 101.675 70.3694 101.675C70.6249 101.672 70.8249 101.566 70.9721 101.361C71.1193 101.15 71.1443 100.925 71.0499 100.686L68.6612 94.578C76.3355 94.5808 123.12 94.603 133.405 94.578C132.391 97.0111 130.93 100.633 130.914 100.675C130.869 100.786 130.853 100.902 130.866 101.022C130.878 101.141 130.919 101.252 130.986 101.352C131.053 101.452 131.141 101.53 131.247 101.586C131.352 101.644 131.466 101.672 131.586 101.672H152.739C152.85 101.672 152.956 101.647 153.056 101.6C153.156 101.55 153.239 101.483 153.309 101.397C153.378 101.311 153.423 101.211 153.448 101.102C153.473 100.997 153.47 100.889 153.445 100.78L151.981 94.5752H169.043C169.243 94.5752 169.413 94.503 169.554 94.3641C169.696 94.2253 169.768 94.0558 169.768 93.8586C169.774 93.4559 169.824 83.9679 163.766 80.4293C163.541 80.2988 163.316 80.1738 163.088 80.0516C163.186 80.0516 163.28 80.0627 163.377 80.0627C163.983 80.0627 164.585 80.0183 165.183 79.9294C166.008 79.8183 166.81 79.6211 167.591 79.3406C168.374 79.06 169.118 78.7017 169.827 78.2657C170.532 77.8296 171.185 77.3241 171.788 76.7519C172.387 76.177 172.921 75.5465 173.39 74.8604C174.276 73.5272 175.001 72.294 175.704 71.0997C176.79 69.186 177.984 67.3417 179.287 65.5669C181.084 67.0834 182.775 68.7082 184.364 70.4414C185.314 71.4413 186.297 72.4801 187.464 73.5828C188.564 74.6077 189.814 75.3909 191.216 75.9326C192.619 76.4742 194.074 76.738 195.577 76.7186C195.91 76.7186 196.255 76.7047 196.599 76.6769C199.635 76.4353 202.26 75.1382 203.793 73.1245C204.259 72.5107 204.643 71.8496 204.945 71.1413C205.248 70.4331 205.459 69.6998 205.584 68.9388C205.707 68.1805 205.734 67.4167 205.67 66.6473C205.604 65.8807 205.448 65.1336 205.198 64.4059C204.065 60.9007 201.121 58.0426 197.241 56.6511C211.77 55.3678 226.416 53.7902 240.839 51.9543C240.939 51.9404 241.031 51.9098 241.114 51.8598C241.2 51.8098 241.273 51.746 241.331 51.6654C241.389 51.5849 241.431 51.4988 241.453 51.4016C241.475 51.3043 241.478 51.2071 241.461 51.1099C241.425 50.9016 241.395 50.11 241.359 49.2712C241.22 45.8104 240.959 39.3721 239.434 36.5807C239.362 36.4502 239.262 36.353 239.131 36.2836C239.001 36.2169 238.862 36.1919 238.715 36.2086C223.222 37.9612 207.731 39.4721 192.658 40.7026C192.627 40.6248 192.599 40.547 192.569 40.4693C192.411 40.0776 192.194 39.7221 191.919 39.4027C191.644 39.0833 191.327 38.8166 190.963 38.6C190.602 38.3861 190.216 38.2334 189.805 38.1445C189.394 38.0556 188.978 38.0334 188.558 38.0806C188.142 38.1278 187.742 38.2389 187.358 38.4167C186.978 38.5944 186.633 38.8278 186.328 39.1194C186.022 39.4083 185.772 39.7388 185.575 40.111C185.378 40.4832 185.245 40.8776 185.175 41.2942C184.381 41.3553 183.584 41.4136 182.789 41.4719C182.759 41.3386 182.731 41.2025 182.7 41.0692C182.589 40.6054 182.4 40.1748 182.134 39.7804C181.864 39.3888 181.534 39.0555 181.142 38.7833C180.751 38.5111 180.323 38.3195 179.859 38.2056C179.398 38.0917 178.929 38.0639 178.456 38.1223C177.984 38.1834 177.537 38.325 177.115 38.55C176.695 38.775 176.329 39.0666 176.015 39.4249C175.704 39.786 175.465 40.1915 175.304 40.6387C175.14 41.0859 175.062 41.5497 175.071 42.0247C173.773 42.1136 172.476 42.2024 171.176 42.2885C171.113 41.8441 170.976 41.4247 170.765 41.0303C170.554 40.6331 170.285 40.2859 169.952 39.9832C169.621 39.6832 169.249 39.4471 168.835 39.2749C168.421 39.1027 167.991 39.0055 167.543 38.9833C167.096 38.9611 166.657 39.0138 166.23 39.1444C165.802 39.2722 165.408 39.4721 165.047 39.7388C164.688 40.0054 164.383 40.3248 164.135 40.697C163.886 41.0692 163.708 41.4719 163.599 41.908C163.527 42.1969 163.463 42.4885 163.399 42.7774C162.844 42.8107 162.288 42.8413 161.733 42.8746C161.625 42.4607 161.45 42.0747 161.214 41.7164C160.975 41.3608 160.686 41.0498 160.344 40.7887C160.005 40.5276 159.63 40.3304 159.225 40.1943C158.819 40.0554 158.4 39.9888 157.972 39.9915C157.542 39.9943 157.125 40.0665 156.72 40.2054C156.314 40.3471 155.945 40.5498 155.606 40.8165C155.27 41.0803 154.984 41.3914 154.75 41.7525C154.517 42.1108 154.348 42.4996 154.242 42.9163C154.211 43.0412 154.184 43.169 154.156 43.2968C152.85 43.3662 151.545 43.4273 150.242 43.4912C150.351 41.0192 150.712 32.8172 151.098 24.1819C158.078 23.5903 165.233 22.9043 172.557 22.1293L173.012 26.0262C173.032 26.2095 173.112 26.3623 173.248 26.4845C173.387 26.6067 173.546 26.6678 173.732 26.6678H173.768C174.037 26.6539 174.321 26.6539 174.609 26.6511C175.512 26.69 176.398 26.5956 177.27 26.3651C177.437 26.3151 177.565 26.2151 177.659 26.0734C177.756 25.929 177.793 25.7707 177.776 25.5985C177.67 24.5874 177.562 23.5598 177.448 22.5265C188.597 21.3794 199.69 20.2129 210.423 19.0852C221.313 17.9409 232.573 16.7576 243.883 15.5911C243.947 15.5827 244.011 15.5689 244.072 15.5439C248.341 14.9245 249.855 11.0915 249.444 7.50296ZM145.443 8.58063C145.448 8.35843 145.498 8.14179 145.587 7.93903C145.679 7.73349 145.804 7.55295 145.962 7.39741C146.123 7.23909 146.307 7.11966 146.515 7.03633C146.723 6.95023 146.937 6.90857 147.162 6.90579H147.179L148.634 6.92246C148.87 6.92246 149.092 6.97245 149.306 7.06411C149.52 7.15855 149.709 7.28909 149.87 7.45852C150.028 7.62795 150.151 7.82237 150.231 8.04179C150.315 8.26122 150.348 8.4862 150.337 8.71951L150.203 11.7109C148.581 11.8692 146.962 12.0192 145.34 12.1608C145.379 10.8582 145.415 9.6472 145.443 8.58063ZM56.1263 8.57785C56.4596 8.21956 56.8707 8.04179 57.3595 8.03902L58.815 8.02513H58.8344C59.0566 8.02513 59.2732 8.06957 59.4788 8.1529C59.6871 8.239 59.8704 8.35843 60.0315 8.51397C60.1926 8.66951 60.3176 8.85005 60.4065 9.05559C60.4981 9.26112 60.5453 9.47499 60.5537 9.69997C60.5815 10.8138 60.6176 12.0831 60.6592 13.4552C59.0427 13.3607 57.4234 13.2607 55.8069 13.1524L55.6569 9.83607C55.6319 9.35 55.7902 8.9306 56.1263 8.57785ZM168.293 93.1281H151.062C150.951 93.1281 150.845 93.1531 150.745 93.2004C150.645 93.2476 150.562 93.317 150.492 93.4031C150.423 93.4892 150.378 93.5864 150.353 93.6948C150.328 93.8031 150.331 93.9114 150.356 94.0197L151.823 100.225H132.661C133.283 98.6887 134.474 95.7557 135.163 94.1364C135.213 94.0253 135.23 93.9086 135.219 93.7864C135.208 93.667 135.169 93.5559 135.102 93.4531C135.035 93.3503 134.949 93.2726 134.841 93.2142C134.733 93.1559 134.619 93.1281 134.497 93.1281H134.494C126.503 93.1559 68.1835 93.1281 67.5947 93.1281C67.4752 93.1281 67.3614 93.1559 67.2558 93.2115C67.1503 93.267 67.0642 93.3448 66.9947 93.4448C66.9281 93.542 66.8864 93.6503 66.8725 93.7697C66.8586 93.8892 66.8753 94.0058 66.9197 94.1169L69.3084 100.216C66.3448 100.197 57.8206 100.147 51.0962 100.216C51.6129 97.4888 52.4183 94.0586 52.4267 94.0197C52.4517 93.9114 52.4517 93.8059 52.4295 93.6975C52.4045 93.5892 52.3572 93.492 52.2906 93.4031C52.2211 93.317 52.1378 93.2503 52.0378 93.2004C51.9378 93.1531 51.8323 93.1281 51.7212 93.1281H36.3782C35.8005 91.4644 34.3256 85.39 41.8916 81.1932C49.1714 77.1547 65.9615 81.0293 66.1281 81.0682C66.2587 81.0987 66.3892 81.0932 66.517 81.0543C66.7142 80.9904 86.4151 74.791 104.397 74.791C113.779 74.791 125.131 75.5659 138.188 81.307C138.335 81.3709 138.485 81.3848 138.641 81.3515C149.729 78.8017 156.897 78.1018 163.038 81.6876C167.468 84.2762 168.182 90.9283 168.293 93.1281ZM54.7487 52.5959C54.7376 52.3626 54.7737 52.1376 54.8542 51.9182C54.9348 51.6987 55.057 51.5043 55.2181 51.3349C55.3792 51.1655 55.5653 51.0349 55.7791 50.9405C55.993 50.8461 56.218 50.7988 56.4513 50.7961L57.9067 50.7822H57.9234C58.1484 50.7849 58.3622 50.8266 58.5705 50.9127C58.7788 50.996 58.9622 51.1155 59.1233 51.2738C59.2816 51.4293 59.4066 51.6099 59.4982 51.8154C59.5899 52.0209 59.6371 52.2348 59.6454 52.457C59.8093 58.8147 60.1982 69.9915 60.5092 78.574C59.101 78.374 57.5317 78.1879 55.8847 78.0657C55.5458 70.4136 55.082 59.9619 54.7487 52.5959ZM61.3369 60.534C73.0775 60.8979 84.868 61.0812 96.7086 61.084C112.418 61.084 128.15 60.759 143.762 60.1174C143.568 66.0724 143.324 73.1023 143.112 78.8962C141.621 79.1906 140.096 79.5239 138.546 79.8822C125.256 74.0855 113.321 73.3411 104.394 73.3411C87.1456 73.3411 68.3585 78.9656 66.2642 79.61C65.7087 79.485 64.1228 79.1406 61.9674 78.7962C61.7647 73.1606 61.5258 66.3612 61.3369 60.534ZM144.576 78.6212C144.885 70.0303 145.273 58.8536 145.443 52.457C145.448 52.2348 145.498 52.0209 145.587 51.8154C145.679 51.6099 145.804 51.4293 145.962 51.2738C146.123 51.1155 146.307 50.996 146.515 50.9127C146.723 50.8266 146.937 50.7849 147.162 50.7822H147.179L148.634 50.7961C148.867 50.7988 149.092 50.8461 149.306 50.9405C149.52 51.0349 149.706 51.1655 149.867 51.3349C150.028 51.5043 150.151 51.6987 150.231 51.9182C150.312 52.1376 150.348 52.3626 150.337 52.5959C150.006 59.9285 149.545 70.3164 149.206 77.9574C147.698 78.1073 146.154 78.3351 144.576 78.6212ZM157.372 78.0879C157.392 78.1046 157.417 78.1212 157.436 78.1379C155.192 77.7602 152.934 77.6602 150.662 77.8352C150.901 72.469 151.195 65.7974 151.467 59.773C152.853 59.7063 154.239 59.6369 155.628 59.5647C155.67 59.6619 155.706 59.7591 155.75 59.8563C155.981 60.3701 156.308 60.8118 156.733 61.184C157.158 61.5561 157.642 61.8228 158.183 61.9811C157.014 62.9921 156.072 64.1809 155.359 65.5474C154.645 66.9167 154.206 68.3666 154.042 69.9026C153.964 70.6692 153.978 71.433 154.089 72.1968C154.198 72.9578 154.398 73.6967 154.686 74.4105C154.978 75.1243 155.35 75.7937 155.803 76.4158C156.258 77.038 156.781 77.5963 157.372 78.0879ZM238.367 37.7056C239.551 40.447 239.792 46.3909 239.912 49.3295C239.934 49.8711 239.95 50.285 239.967 50.6016C238.009 50.8516 236.045 51.0933 234.079 51.3321C234.037 47.1714 233.068 40.6942 232.693 38.3361C234.584 38.1306 236.476 37.9195 238.367 37.7056ZM231.249 38.4917C231.61 40.7776 232.612 47.463 232.632 51.5043C219.805 53.0431 206.859 54.3763 194.022 55.4762C194.452 53.2486 194.594 51.0044 194.449 48.7407C194.305 46.477 193.88 44.2689 193.169 42.1136C205.657 41.0914 218.428 39.8777 231.249 38.4917ZM188.075 39.6832C188.372 39.5638 188.68 39.5055 189 39.5082C189.319 39.5082 189.628 39.5721 189.925 39.6971C190.219 39.8221 190.48 39.9971 190.705 40.2248C190.93 40.4526 191.102 40.7165 191.225 41.0137C192.166 43.344 192.744 45.7604 192.961 48.2657C193.177 50.7711 193.019 53.2514 192.488 55.7095C190.83 55.5984 189.172 55.6289 187.517 55.8039C187.528 55.7289 187.533 55.6512 187.553 55.5734C188.114 53.4625 188.325 51.3182 188.186 49.1379C188.047 46.9603 187.569 44.8577 186.747 42.8329C186.625 42.5385 186.567 42.2274 186.569 41.908C186.569 41.5886 186.633 41.2803 186.758 40.9859C186.883 40.6887 187.058 40.4304 187.286 40.2054C187.514 39.9776 187.778 39.8054 188.075 39.686V39.6832ZM183.078 42.9024C183.789 42.8524 184.5 42.7968 185.208 42.744C185.256 42.9607 185.32 43.1746 185.403 43.3801C186.167 45.2577 186.611 47.2075 186.739 49.2295C186.867 51.2516 186.672 53.2403 186.153 55.1984C186.083 55.4595 186.042 55.7261 186.028 55.9956C184.914 56.1594 183.825 56.3733 182.795 56.6316C183.8 52.0737 183.895 47.4991 183.078 42.9024ZM178.384 39.5971C178.695 39.5249 179.009 39.5138 179.326 39.5666C179.642 39.6166 179.937 39.7277 180.209 39.8971C180.481 40.0637 180.712 40.2804 180.898 40.5387C181.084 40.7998 181.214 41.0859 181.289 41.397C181.878 43.9189 182.173 46.4742 182.173 49.0629C182.173 51.6515 181.878 54.2068 181.289 56.7288C181.259 56.851 181.22 56.9732 181.17 57.0899C180.387 57.3343 179.645 57.5982 178.976 57.8843C178.751 57.7954 178.517 57.726 178.279 57.6815C177.843 57.601 177.381 57.5371 176.906 57.4815C176.534 56.9066 176.426 56.2872 176.584 55.6206C177.606 51.2488 177.606 46.877 176.584 42.5052C176.509 42.1941 176.498 41.8802 176.551 41.5636C176.604 41.247 176.712 40.9526 176.881 40.6804C177.051 40.4082 177.265 40.1776 177.526 39.9888C177.784 39.8027 178.07 39.6721 178.384 39.5971ZM178.012 59.1064C178.24 59.1508 178.454 59.223 178.659 59.3286C178.873 59.4369 179.087 59.4369 179.303 59.3314L179.415 59.273C183.709 57.4065 191.016 56.2539 196.105 57.8009C199.882 58.9481 202.765 61.5839 203.818 64.8531C204.032 65.4697 204.165 66.1057 204.221 66.7556C204.276 67.4056 204.254 68.0527 204.151 68.6971C204.048 69.3415 203.871 69.9665 203.615 70.5664C203.36 71.1663 203.035 71.7274 202.64 72.2496C201.354 73.9355 199.113 75.0243 196.485 75.2354C196.177 75.2604 195.871 75.2715 195.577 75.2715C194.258 75.2909 192.986 75.0632 191.755 74.5882C190.525 74.1161 189.428 73.43 188.461 72.5357C187.325 71.458 186.353 70.4359 185.414 69.4471C183.617 67.4778 181.684 65.653 179.617 63.9698C179.542 63.9087 179.456 63.8643 179.362 63.8393C179.27 63.8115 179.173 63.8032 179.079 63.8143C178.981 63.8254 178.89 63.8559 178.806 63.9031C178.72 63.9531 178.648 64.0142 178.59 64.092C177.068 66.089 175.69 68.1833 174.454 70.3692C173.76 71.5441 173.043 72.7606 172.179 74.0633C171.346 75.2798 170.302 76.2742 169.046 77.0463C167.791 77.8185 166.432 78.3018 164.969 78.4962C162.386 78.8795 159.911 78.3101 158.3 76.9741C157.797 76.5547 157.356 76.0798 156.972 75.552C156.589 75.0243 156.272 74.4577 156.028 73.8522C155.783 73.2467 155.617 72.6218 155.525 71.9746C155.434 71.3274 155.422 70.6803 155.489 70.0303C155.761 66.8556 157.692 63.8587 160.7 61.87C160.752 61.8506 160.808 61.8339 160.861 61.8089C161.194 61.6589 161.502 61.4673 161.783 61.2284C165.041 59.4841 169.538 58.7314 173.482 58.7314C175.004 58.7203 176.515 58.8453 178.012 59.1064ZM171.101 43.7884C171.104 43.7717 171.107 43.7578 171.11 43.7412C172.507 43.6467 173.901 43.5551 175.298 43.4579C176.132 47.4103 176.087 51.3516 175.171 55.2845C175.009 55.9733 175.034 56.6566 175.248 57.3315C174.368 57.2816 173.446 57.2732 172.501 57.3038C172.507 56.7399 172.396 56.2011 172.168 55.6873C171.329 53.818 170.821 51.8654 170.638 49.8267C170.454 47.788 170.61 45.7743 171.101 43.7884ZM165.005 42.258C165.083 41.9469 165.219 41.6636 165.41 41.4053C165.602 41.1498 165.835 40.9387 166.11 40.772C166.385 40.6081 166.68 40.5026 166.996 40.4554C167.316 40.4082 167.63 40.4248 167.941 40.5026C168.252 40.5804 168.535 40.7165 168.793 40.9081C169.049 41.097 169.26 41.3303 169.424 41.6053C169.591 41.8802 169.696 42.1774 169.743 42.4941C169.788 42.8107 169.774 43.1246 169.696 43.4356C169.163 45.5827 168.996 47.7547 169.193 49.9545C169.391 52.157 169.94 54.2652 170.843 56.2816C171.001 56.6316 171.068 56.9982 171.049 57.3815C169.466 57.4954 167.902 57.726 166.355 58.0731C165.263 55.5845 164.602 52.9847 164.372 50.2767C164.141 47.5686 164.352 44.8966 165.005 42.258ZM161.744 44.7994C161.783 44.6411 161.811 44.4828 161.83 44.3217L163.13 44.2439C162.766 46.6465 162.738 49.0546 163.044 51.4654C163.349 53.8763 163.98 56.1983 164.933 58.4342C164.291 58.6175 163.669 58.8286 163.063 59.0619C163.236 58.2481 163.152 57.4621 162.811 56.7011C161.975 54.8346 161.464 52.8792 161.28 50.8405C161.097 48.8018 161.252 46.7881 161.744 44.7994ZM155.65 43.269C155.714 43.0079 155.82 42.7635 155.967 42.5385C156.114 42.3135 156.292 42.1163 156.503 41.9525C156.717 41.7858 156.95 41.6608 157.203 41.5719C157.458 41.4831 157.719 41.4386 157.989 41.4386C158.189 41.4386 158.386 41.4636 158.583 41.5136C158.894 41.5914 159.178 41.7247 159.433 41.9163C159.691 42.108 159.903 42.3413 160.066 42.6163C160.233 42.8913 160.339 43.1884 160.386 43.5051C160.43 43.8217 160.416 44.1356 160.339 44.4467C159.808 46.5909 159.639 48.7657 159.836 50.9655C160.033 53.1681 160.583 55.2762 161.486 57.2927C161.591 57.5232 161.658 57.7648 161.686 58.0176C161.713 58.2703 161.702 58.5231 161.65 58.7703C161.597 59.0203 161.508 59.2536 161.38 59.473C161.252 59.6952 161.094 59.8896 160.902 60.0563C160.836 60.0952 160.764 60.1285 160.697 60.1674C160.483 60.2896 160.275 60.4201 160.066 60.5535C159.814 60.6451 159.553 60.6951 159.283 60.6979C158.805 60.6979 158.367 60.5673 157.967 60.309C157.567 60.0507 157.269 59.7035 157.072 59.2675C155.95 56.7538 155.264 54.1291 155.022 51.3877C154.778 48.6463 154.986 45.9382 155.647 43.269H155.65ZM153.856 44.7633C153.47 47.0075 153.381 49.2629 153.584 51.5321C153.789 53.7985 154.281 56.0039 155.061 58.1426C153.884 58.2009 152.709 58.262 151.531 58.3176C151.623 56.3122 151.709 54.3985 151.787 52.6625C151.795 52.4487 151.784 52.2376 151.751 52.0265C151.717 51.8154 151.664 51.6126 151.589 51.4127C151.517 51.2127 151.423 51.021 151.309 50.8405C151.198 50.66 151.067 50.4933 150.92 50.3378C150.776 50.185 150.615 50.0461 150.44 49.9239C150.267 49.8017 150.081 49.6962 149.887 49.6128C149.69 49.5267 149.49 49.4601 149.281 49.4156C149.073 49.3712 148.862 49.349 148.648 49.3462L147.193 49.3323C146.987 49.3323 146.782 49.349 146.579 49.3879C146.379 49.4267 146.182 49.4823 145.99 49.5601C145.798 49.6351 145.618 49.7295 145.443 49.8434C145.271 49.9545 145.11 50.0822 144.962 50.2239C144.815 50.3683 144.682 50.5239 144.562 50.6905C144.446 50.8599 144.346 51.0377 144.262 51.2266C144.179 51.4154 144.115 51.6099 144.068 51.8099C144.024 52.0098 143.999 52.2154 143.99 52.4209C143.943 54.1874 143.882 56.3205 143.81 58.662C116.418 59.7924 88.6649 59.9341 61.2897 59.0814C61.2092 56.5705 61.1425 54.2874 61.0925 52.4209C61.087 52.2154 61.062 52.0126 61.0147 51.8154C60.9703 51.6154 60.9064 51.421 60.8259 51.2349C60.7425 51.0488 60.6426 50.8711 60.5259 50.7016C60.4092 50.535 60.2787 50.3794 60.1315 50.235C59.9843 50.0933 59.826 49.9656 59.6538 49.8545C59.4843 49.7406 59.3038 49.6462 59.1149 49.5712C58.9261 49.4934 58.7316 49.4351 58.5289 49.3934C58.3289 49.3545 58.1261 49.3351 57.9234 49.3323H57.8928L56.4346 49.3462C56.2235 49.349 56.0124 49.3712 55.8041 49.4156C55.5958 49.4601 55.3931 49.5267 55.1986 49.6128C55.0042 49.6962 54.8181 49.8017 54.6431 49.9239C54.4709 50.0461 54.3098 50.185 54.1626 50.3378C54.0154 50.4933 53.8876 50.66 53.7738 50.8405C53.6627 51.021 53.5682 51.2127 53.4932 51.4127C53.421 51.6126 53.3655 51.8154 53.3321 52.0265C53.2988 52.2376 53.2877 52.4487 53.2988 52.6625C53.3821 54.5429 53.4766 56.6261 53.5766 58.8147C40.8083 58.3315 27.8929 57.6232 15.1608 56.7094L15.4746 44.1078C28.8817 45.0077 42.511 45.6521 56.3569 46.0437C56.4013 46.0521 56.4457 46.0576 56.4902 46.0576L62.4785 46.2132H62.4979C62.5452 46.2132 62.5924 46.2076 62.6396 46.1993C92.3007 46.8742 122.817 46.3993 153.856 44.7633ZM56.3902 26.2234C57.9484 26.3123 59.5149 26.3956 61.087 26.4734C61.3647 34.5171 61.6536 42.2858 61.7452 44.7272C60.2315 44.6911 58.715 44.6605 57.204 44.6189C57.104 42.3246 56.7624 34.5754 56.3902 26.2234ZM62.5396 26.54C70.6388 26.9067 78.9547 27.09 87.5261 27.09C105.013 27.09 123.564 26.3234 143.476 24.7985C143.182 33.3227 142.868 41.7386 142.79 43.8439C115.757 45.0355 89.1482 45.3438 63.1979 44.7633C63.109 42.4357 62.8201 34.642 62.5396 26.54ZM144.248 43.6245C144.343 41.1248 144.646 32.9394 144.932 24.6874C146.49 24.5652 148.062 24.4375 149.64 24.3041C149.254 32.9644 148.892 41.1525 148.79 43.5079L144.248 43.6245ZM21.8824 21.485C17.9411 20.8406 14.1109 19.799 10.3862 18.363C9.53631 17.8909 5.20061 12.3275 3.10359 9.33889C4.44235 10.1194 5.83666 10.9415 7.20042 11.747C9.10857 12.8774 11.0834 14.044 12.8804 15.0745C12.9582 15.1189 13.0415 15.1495 13.1304 15.1633C39.5585 19.2741 66.1476 21.3294 92.8923 21.3266C114.093 21.3239 135.213 20.0379 156.256 17.4742L156.081 16.0327C132.375 18.9352 108.582 20.1934 84.7042 19.8101C60.8259 19.4296 37.0865 17.4076 13.4859 13.7496C11.7278 12.7413 9.80295 11.6026 7.93924 10.4999C7.16154 10.0416 6.37272 9.57498 5.59224 9.11391C32.0258 13.1691 58.6122 15.3967 85.3513 15.7994C112.093 16.1994 138.735 14.7717 165.28 11.5137L166.552 21.2933C109.38 27.0289 63.2479 27.0816 21.8824 21.485ZM167.996 21.1489L166.719 11.3359C168.224 11.1471 169.729 10.9526 171.235 10.7526L172.39 20.6906C170.921 20.8461 169.454 21.0017 167.996 21.1489ZM174.604 25.2013C174.526 25.2013 174.451 25.2013 174.376 25.2013L172.015 4.9282L174.018 4.51991C174.371 7.8807 174.759 11.372 175.137 14.7578C175.518 18.1825 175.909 21.7183 176.268 25.1124C175.715 25.1846 175.159 25.2124 174.604 25.2013ZM177.293 21.085C177.056 18.9185 176.815 16.7382 176.576 14.5967C176.407 13.0691 176.234 11.5192 176.065 9.97217L178.006 9.75274C178.448 13.1774 178.801 17.5687 179.017 20.2629L179.07 20.9017L177.293 21.085ZM210.27 17.6409C200.571 18.6602 190.575 19.7101 180.512 20.7517L180.464 20.1462C180.37 18.9796 180.251 17.4909 180.109 15.9022L181.97 18.7491C182.114 18.9685 182.314 19.0796 182.575 19.0796C182.612 19.0769 182.648 19.0769 182.684 19.0713C182.825 19.0491 182.948 18.9935 183.056 18.8991C183.161 18.8047 183.234 18.6908 183.275 18.5547C183.592 17.4492 183.939 16.2521 184.289 15.055C184.345 14.8661 184.325 14.6884 184.236 14.5162L182.342 10.8999C182.275 10.7721 182.178 10.6721 182.05 10.5999C181.925 10.5304 181.789 10.5027 181.645 10.5138C181.5 10.5249 181.37 10.5749 181.256 10.6638C181.139 10.7526 181.059 10.8665 181.014 11.0026L179.951 14.1579C179.801 12.5969 179.634 11.0137 179.451 9.59165L241.514 2.61453L242.995 14.2245C231.932 15.3633 220.925 16.5243 210.27 17.6409ZM181.212 14.9411L181.845 13.0746L182.814 14.9273C182.648 15.5022 182.481 16.0744 182.317 16.6326L181.212 14.9411ZM243.961 10.3416L243.447 6.33085C243.806 6.12531 244.178 6.09198 244.567 6.23086C244.917 6.37251 245.217 6.58638 245.461 6.87524C245.706 7.16132 245.869 7.49185 245.953 7.86126C246.044 8.19456 246.058 8.53064 245.992 8.86949C245.925 9.20835 245.786 9.51665 245.575 9.79163C245.122 10.2249 244.586 10.411 243.961 10.3444V10.3416ZM244.425 13.9996L244.147 11.7998C244.619 11.8137 245.075 11.7276 245.511 11.547C245.95 11.3665 246.33 11.1026 246.655 10.7582C247.019 10.311 247.266 9.80829 247.391 9.24446C247.519 8.68062 247.514 8.11956 247.372 7.56128C247.239 6.9419 246.964 6.39195 246.55 5.91422C246.133 5.43371 245.631 5.08097 245.039 4.85876C244.447 4.65045 243.853 4.64212 243.259 4.83654L242.95 2.42011C243.886 2.34234 244.731 2.5812 245.489 3.13393C246.197 3.68665 246.772 4.35881 247.208 5.14763C247.644 5.93366 247.908 6.77525 248.003 7.67239C248.291 10.1944 247.494 13.2413 244.428 13.9996H244.425Z" fill="black" stroke="black"/>
</g>
<path d="M187.264 10.1463C187.197 10.0185 187.1 9.9185 186.972 9.84629C186.847 9.77685 186.711 9.74908 186.567 9.76019C186.42 9.7713 186.292 9.82129 186.178 9.91017C186.061 9.99905 185.981 10.1129 185.936 10.249L184.648 14.057C184.573 14.2792 184.6 14.4903 184.728 14.6847L186.892 17.9955C187.036 18.2149 187.239 18.3233 187.5 18.3233C187.536 18.3233 187.572 18.3205 187.608 18.3149C187.747 18.2955 187.872 18.2372 187.978 18.1427C188.086 18.0511 188.158 17.9344 188.197 17.7983C188.514 16.6956 188.864 15.4985 189.211 14.2986C189.267 14.1125 189.25 13.932 189.158 13.7598L187.264 10.1463ZM187.239 15.879L186.134 14.1875L186.767 12.3211L187.736 14.1737C187.57 14.7486 187.403 15.3208 187.239 15.879Z" fill="black" stroke="black"/>
<path d="M197.564 9.3883C197.494 9.26054 197.397 9.16055 197.272 9.09111C197.144 9.02167 197.008 8.99112 196.864 9.00223C196.719 9.01334 196.589 9.06333 196.475 9.15221C196.361 9.24109 196.281 9.35497 196.233 9.49385L194.947 13.3018C194.872 13.524 194.897 13.7323 195.025 13.9295L197.189 17.2403C197.333 17.457 197.536 17.5681 197.797 17.5681C197.833 17.5681 197.869 17.5653 197.905 17.5597C198.044 17.5375 198.169 17.482 198.275 17.3875C198.38 17.2931 198.455 17.1792 198.494 17.0431C198.811 15.9405 199.161 14.7406 199.508 13.5435C199.564 13.3574 199.544 13.1768 199.455 13.0046L197.564 9.3883ZM197.542 15.1239L196.433 13.4324L197.067 11.5631L198.036 13.4185C197.869 13.9906 197.7 14.5628 197.542 15.1239Z" fill="black" stroke="black"/>
<path d="M192.642 10.1463C192.575 10.0185 192.478 9.9185 192.35 9.84629C192.222 9.77685 192.086 9.74908 191.942 9.76019C191.797 9.7713 191.667 9.82129 191.553 9.91017C191.439 9.99905 191.359 10.1129 191.311 10.249L190.025 14.057C189.95 14.2792 189.975 14.4903 190.103 14.6847L192.267 17.9955C192.411 18.2149 192.614 18.3233 192.875 18.3233C192.911 18.3233 192.947 18.3205 192.983 18.3149C193.122 18.2955 193.247 18.2372 193.353 18.1427C193.458 18.0511 193.533 17.9344 193.572 17.7983C193.889 16.6956 194.239 15.4985 194.586 14.2986C194.642 14.1125 194.622 13.932 194.533 13.7598L192.642 10.1463ZM192.617 15.879L191.511 14.1875L192.142 12.3211L193.114 14.1737C192.947 14.7486 192.781 15.3208 192.617 15.879Z" fill="black" stroke="black"/>
<path d="M207.251 7.93531C207.182 7.80755 207.087 7.70756 206.959 7.63812C206.832 7.5659 206.696 7.53813 206.551 7.54924C206.407 7.56035 206.276 7.61035 206.162 7.69923C206.048 7.78811 205.968 7.90198 205.921 8.03808L204.635 11.8461C204.56 12.0683 204.585 12.2793 204.715 12.4765L206.876 15.7846C207.021 16.004 207.223 16.1123 207.484 16.1151C207.521 16.1123 207.557 16.1123 207.593 16.1068C207.732 16.0845 207.857 16.0262 207.962 15.9346C208.07 15.8401 208.143 15.7262 208.182 15.5901C208.476 14.5597 208.801 13.4515 209.126 12.3349L209.198 12.0905C209.251 11.9044 209.234 11.7238 209.145 11.5516L207.251 7.93531ZM207.226 13.6709L206.121 11.9794L206.751 10.1101L207.723 11.9655C207.557 12.5377 207.39 13.1098 207.226 13.6709Z" fill="black" stroke="black"/>
<path d="M202.329 8.69299C202.263 8.56522 202.165 8.46523 202.038 8.3958C201.91 8.32636 201.774 8.29581 201.629 8.30692C201.485 8.31803 201.354 8.36802 201.24 8.4569C201.127 8.54856 201.046 8.65966 200.999 8.79854L199.713 12.6093C199.638 12.8315 199.663 13.0398 199.793 13.237L201.954 16.5478C202.099 16.7672 202.301 16.8755 202.563 16.8755C202.599 16.8755 202.635 16.8728 202.671 16.8672C202.81 16.8478 202.935 16.7894 203.04 16.695C203.146 16.6033 203.221 16.4867 203.26 16.3506C203.549 15.3368 203.871 14.2397 204.193 13.1398L204.276 12.8509C204.329 12.6648 204.312 12.4843 204.223 12.3121L202.329 8.69299ZM202.799 12.7287C202.632 13.3009 202.468 13.8703 202.304 14.4286L201.199 12.7371L201.829 10.8678L202.801 12.7232L202.799 12.7287Z" fill="black" stroke="black"/>
<path d="M217.547 7.18518C217.481 7.05741 217.383 6.95742 217.258 6.88798C217.131 6.81855 216.995 6.78799 216.85 6.7991C216.706 6.81021 216.575 6.86299 216.461 6.95187C216.347 7.04075 216.267 7.15463 216.22 7.29072L214.931 11.0987C214.856 11.3209 214.884 11.5292 215.011 11.7264L217.175 15.0372C217.317 15.2566 217.519 15.365 217.781 15.365C217.817 15.365 217.856 15.3622 217.892 15.3566C218.031 15.3372 218.153 15.2789 218.261 15.1844C218.367 15.0928 218.439 14.9761 218.48 14.84C218.767 13.8429 219.078 12.768 219.394 11.6875L219.494 11.3403C219.55 11.1542 219.533 10.9737 219.442 10.8015L217.547 7.18518ZM218.003 11.282C217.842 11.832 217.681 12.3819 217.525 12.9207L216.42 11.2292L217.05 9.35997L218.022 11.2154L218.003 11.282Z" fill="black" stroke="black"/>
<path d="M212.626 7.93531C212.559 7.80755 212.462 7.70756 212.334 7.63812C212.209 7.5659 212.073 7.53813 211.928 7.54924C211.784 7.56035 211.653 7.61035 211.54 7.69923C211.426 7.78811 211.345 7.90198 211.298 8.03808L210.012 11.8461C209.937 12.0683 209.965 12.2793 210.092 12.4765L212.256 15.7846C212.398 16.004 212.601 16.1123 212.862 16.1151C212.898 16.1123 212.934 16.1123 212.97 16.1068C213.112 16.0845 213.234 16.0262 213.342 15.9346C213.448 15.8401 213.52 15.7262 213.559 15.5901C213.845 14.5958 214.159 13.5237 214.473 12.4432L214.575 12.0905C214.631 11.9044 214.611 11.7238 214.523 11.5516L212.626 7.93531ZM213.078 12.0377C212.917 12.5876 212.759 13.1348 212.603 13.6709L211.498 11.9794L212.128 10.1101L213.1 11.9655L213.078 12.0377Z" fill="black" stroke="black"/>
<path d="M227.391 5.83376C227.324 5.70599 227.227 5.606 227.099 5.53379C226.974 5.46435 226.838 5.43657 226.694 5.44769C226.549 5.45879 226.419 5.50879 226.305 5.59767C226.188 5.68655 226.111 5.80043 226.063 5.93653L224.775 9.7445C224.7 9.9667 224.727 10.1778 224.855 10.375L227.019 13.683C227.16 13.9024 227.363 14.0135 227.624 14.0135C227.66 14.0135 227.697 14.0108 227.733 14.0052C227.874 13.983 227.996 13.9274 228.105 13.833C228.21 13.7386 228.283 13.6247 228.321 13.4886C228.624 12.4359 228.958 11.2944 229.291 10.1528L229.338 9.98892C229.394 9.80283 229.374 9.62229 229.285 9.45008L227.391 5.83376ZM227.366 11.5693L226.261 9.87504L226.891 8.00855L227.863 9.86393C227.697 10.4361 227.53 11.0083 227.366 11.5693Z" fill="black" stroke="black"/>
<path d="M222.469 6.58362C222.403 6.45585 222.306 6.35586 222.178 6.28642C222.053 6.21698 221.917 6.18643 221.772 6.19754C221.628 6.20865 221.497 6.25865 221.383 6.3503C221.27 6.43918 221.189 6.55028 221.142 6.68916L219.856 10.4971C219.778 10.7193 219.806 10.9276 219.934 11.1249L222.097 14.4356C222.239 14.6551 222.442 14.7634 222.705 14.7634C222.742 14.7634 222.778 14.7606 222.814 14.7551C222.953 14.7356 223.078 14.6773 223.183 14.5856C223.292 14.4912 223.364 14.3745 223.403 14.2384C223.7 13.208 224.022 12.097 224.35 10.9776L224.419 10.7388C224.475 10.5527 224.455 10.3749 224.366 10.1999L222.469 6.58362ZM222.447 12.3192L221.342 10.6277L221.972 8.75841L222.944 10.6138C222.775 11.1887 222.608 11.7609 222.447 12.3192Z" fill="black" stroke="black"/>
<path d="M237.69 5.0758C237.623 4.94804 237.526 4.84805 237.398 4.77861C237.27 4.70917 237.134 4.67862 236.99 4.68973C236.845 4.70084 236.718 4.75083 236.601 4.83971C236.487 4.93137 236.407 5.04247 236.359 5.18135L235.073 8.98932C234.998 9.21152 235.026 9.41983 235.154 9.61704L237.318 12.9278C237.459 13.1445 237.662 13.2556 237.923 13.2556C237.959 13.2556 237.995 13.2528 238.031 13.2472C238.173 13.225 238.295 13.1695 238.401 13.075C238.509 12.9806 238.581 12.8667 238.62 12.7306C238.931 11.6502 239.273 10.4753 239.617 9.3004L239.637 9.23096C239.692 9.04487 239.673 8.86433 239.584 8.69213L237.69 5.0758ZM237.665 10.8114L236.559 9.11986L237.193 7.2506L238.162 9.10598C237.995 9.68092 237.829 10.2503 237.665 10.8114Z" fill="black" stroke="black"/>
<path d="M232.768 5.83376C232.701 5.70599 232.604 5.606 232.476 5.53379C232.349 5.46435 232.212 5.43657 232.068 5.44769C231.924 5.45879 231.796 5.50879 231.679 5.59767C231.565 5.68655 231.485 5.80043 231.438 5.93653L230.152 9.7445C230.077 9.9667 230.104 10.1778 230.232 10.375L232.393 13.683C232.537 13.9024 232.74 14.0135 233.001 14.0135C233.037 14.0135 233.073 14.0108 233.11 14.0052C233.251 13.983 233.373 13.9274 233.482 13.833C233.587 13.7386 233.66 13.6247 233.698 13.4886C233.99 12.472 234.309 11.3777 234.632 10.275L234.715 9.98892C234.771 9.80283 234.751 9.62229 234.662 9.45008L232.768 5.83376ZM233.24 9.86949C233.073 10.4417 232.907 11.011 232.743 11.5665L231.638 9.87504L232.271 8.00855L233.24 9.86393V9.86949Z" fill="black" stroke="black"/>
</svg>
