<svg width="196" height="233" viewBox="0 0 196 233" fill="none" xmlns="http://www.w3.org/2000/svg">
<mask id="mask0_134_1634" style="mask-type:luminance" maskUnits="userSpaceOnUse" x="0" y="0" width="196" height="233">
<path d="M1.01953 1H194.423V231.378H1.01953V1Z" fill="white" stroke="white" stroke-width="2"/>
</mask>
<g mask="url(#mask0_134_1634)">
<path d="M178.571 89.1754C169.164 73.5269 164.97 54.5898 164.97 27.7618C164.97 27.5896 165.05 13.4632 164.856 7.57764C164.717 3.28916 161.706 1.0116 156.376 1.18936L142.147 1.6421C138.056 1.77264 134.231 2.57812 133.953 7.56098C133.648 13.0216 133.751 27.4508 133.753 27.7563C133.459 51.7734 126.071 74.438 119.252 87.6395C108.584 108.307 104.326 128.474 104.12 159.391H86.083C84.9164 147.064 82.6278 134.952 79.217 123.047C75.8062 111.143 71.3344 99.655 65.7988 88.5783C66.5293 87.6367 66.8932 86.5674 66.8848 85.373C66.8709 84.7398 66.7321 84.137 66.4737 83.5593C66.2127 82.9816 65.8516 82.4789 65.3877 82.0483C65.1878 81.8678 64.9711 81.7123 64.7378 81.5789C65.7933 77.4877 69.254 73.4075 72.8704 69.594C76.8533 65.3944 79.4003 58.7006 79.2836 55.0842C79.2448 53.9593 78.9587 53.14 78.4282 52.6484C78.2976 52.5345 78.1449 52.4762 77.9699 52.4734L13.4843 52.9511C13.3038 52.9511 13.1483 53.0178 13.0205 53.1455C12.7733 53.3927 12.5067 53.8816 12.6066 55.512C12.6761 56.4174 12.8011 57.3118 12.9844 58.2006L12.9955 59.095H13.1733C14.0704 63.014 16.0424 68.2524 19.4143 70.8772C23.039 73.6991 27.3941 77.8793 28.1524 82.1011C27.7774 82.1594 27.4164 82.2705 27.0719 82.4372C26.7275 82.6011 26.4164 82.8122 26.1331 83.0677C25.8526 83.326 25.6137 83.6176 25.4165 83.9454C25.2221 84.2704 25.0777 84.6203 24.9833 84.9897C24.5583 86.5674 25.011 88.2839 26.0109 89.0949C23.3862 93.975 20.9559 98.9523 18.7255 104.024C16.4979 109.099 14.4731 114.254 12.6539 119.489C10.8346 124.725 9.22642 130.024 7.8321 135.388C6.43502 140.751 5.25457 146.162 4.29077 151.62C3.3242 157.077 2.57983 162.563 2.0521 168.082C1.52437 173.598 1.21884 179.128 1.13274 184.669C1.04664 190.21 1.17996 195.746 1.53548 201.279C1.891 206.809 2.46595 212.317 3.26032 217.802C4.09913 223.479 9.44584 228.218 15.187 228.359L55.9081 229.376C56.4858 229.39 57.0635 229.398 57.6357 229.398H57.8135V230.068C57.8135 230.223 57.844 230.373 57.9023 230.515C57.9634 230.656 58.0468 230.784 58.1551 230.893C58.2662 231.001 58.3912 231.087 58.5328 231.145C58.6773 231.204 58.8245 231.234 58.98 231.234H94.36C94.5155 231.234 94.6627 231.204 94.8072 231.145C94.9488 231.087 95.0766 231.001 95.1849 230.893C95.2932 230.784 95.3793 230.656 95.4377 230.515C95.496 230.373 95.5265 230.223 95.5265 230.068V218.413C96.557 218.294 97.5625 218.072 98.5485 217.749C99.5345 217.427 100.476 217.008 101.379 216.497C102.279 215.983 103.12 215.386 103.901 214.705C104.681 214.025 105.387 213.272 106.017 212.447C106.295 217.277 106.592 222.31 106.909 227.548C106.917 227.685 106.962 227.807 107.045 227.915C107.128 228.023 107.237 228.098 107.364 228.14C113.428 230.129 128.24 231.237 144.802 231.237C161.29 231.237 179.513 230.137 192.556 227.718C192.712 227.69 192.84 227.615 192.942 227.496C193.045 227.373 193.098 227.235 193.101 227.079C193.234 220.441 193.448 213.555 193.656 206.898C195.006 163.599 196.4 118.828 178.571 89.1754ZM135.281 7.63875C135.489 3.9141 137.973 3.1114 142.189 2.9753L156.418 2.51979C159.576 2.41702 163.381 3.2225 163.526 7.62208C163.695 12.7577 163.653 24.2205 163.64 27.0952H135.081C135.064 24.1844 135.014 12.4188 135.281 7.63597V7.63875ZM120.435 88.2505C127.26 75.0323 134.653 52.4317 135.076 28.4257H163.64C163.709 55.1565 167.97 74.1269 177.43 89.8615C185.501 103.285 189.584 119.909 191.512 138.124C163.042 135.899 134.62 136.393 106.245 139.607C107.892 119.325 112.203 104.199 120.435 88.2505ZM106.137 140.957C134.595 137.718 163.098 137.224 191.651 139.468C193.151 154.511 193.22 170.604 192.881 186.855C165.167 190.446 126.946 190.588 109.209 189.302V160.058C109.209 159.874 109.145 159.716 109.014 159.585C108.884 159.455 108.728 159.391 108.545 159.391H105.453C105.495 152.756 105.714 146.651 106.137 140.957ZM65.5544 85.4008C65.5572 85.9035 65.4655 86.3868 65.2766 86.8507C65.085 87.3145 64.8156 87.7256 64.4628 88.0839C64.2462 88.3283 63.9768 88.4672 63.649 88.5005C63.6074 88.4977 63.5657 88.4977 63.524 88.5005C61.1354 88.7671 58.8634 88.9477 56.5997 89.0643C55.2359 87.2617 53.6639 85.6619 51.889 84.2648C51.8196 84.0759 51.7474 83.8898 51.664 83.7037C51.5807 83.5176 51.4863 83.3343 51.3891 83.1538C56.0664 83.0316 60.0438 82.8372 63.4963 82.565C63.8907 82.5927 64.224 82.7483 64.4962 83.0344C64.8267 83.3399 65.0822 83.6982 65.2655 84.1093C65.4488 84.5203 65.5461 84.9508 65.5544 85.4008ZM50.6836 91.1891C50.8947 90.9697 51.0919 90.7364 51.2669 90.4864C51.6779 89.8865 51.9751 89.2338 52.1612 88.5311C52.3473 87.8283 52.4084 87.1145 52.3501 86.3896C61.6853 94.8082 64.535 110.623 62.4241 122.628C62.0353 123.308 60.6243 123.933 59.2217 123.778C58.4717 123.733 57.8468 123.428 57.3496 122.867C57.1969 122.692 57.1385 122.486 57.1691 122.256C59.7216 108.815 57.5385 98.3662 50.6836 91.1891ZM39.2486 89.6365C39.5985 90.3253 40.0651 90.9253 40.6484 91.4336C34.224 99.18 32.3548 110.273 35.4017 122.847C35.4461 123.075 35.3961 123.283 35.2545 123.467C34.7851 124.053 34.1768 124.389 33.4297 124.472C32.0354 124.697 30.5966 124.142 30.1744 123.483C27.4441 111.512 29.5523 95.4304 38.6236 86.5924C38.5653 87.6617 38.7736 88.6783 39.2486 89.6393V89.6365ZM40.4346 89.0366C39.5846 87.3534 39.8541 85.0925 41.1234 83.2732C41.6178 82.515 42.2622 81.915 43.051 81.4734C43.8426 81.0345 44.6897 80.804 45.5952 80.7818C45.7896 80.7818 45.9813 80.7929 46.1729 80.8151C47.9477 81.0234 49.5865 82.34 50.4447 84.2509C50.5419 84.4648 50.6253 84.6842 50.6975 84.9092L50.6447 84.9814C50.678 85.0064 50.7114 85.0342 50.7447 85.0619C51.0086 85.8396 51.0919 86.6396 50.9919 87.4562C50.8919 88.2728 50.6197 89.0282 50.1753 89.7226C49.1504 91.1864 47.22 92.0113 45.1313 91.8613C43.0399 91.7113 41.2428 90.6336 40.4346 89.0366ZM20.2337 69.8245C17.2618 67.5108 15.4397 62.7752 14.5592 59.0727L77.3005 58.2256L77.2811 56.8924L14.2732 57.7451C14.0093 56.6063 13.8982 55.4481 13.9399 54.2788L77.6643 53.8066C77.8643 54.2232 77.9588 54.6648 77.9504 55.1259C78.0615 58.4756 75.659 64.7194 71.9038 68.6774C68.1653 72.6187 64.5823 76.8572 63.449 81.2373C63.4296 81.2373 63.4074 81.2373 63.3879 81.2373C59.7522 81.5262 55.5303 81.7234 50.503 81.8456C49.9836 81.1984 49.3643 80.6735 48.6421 80.2652C47.9227 79.8597 47.1506 79.6014 46.3312 79.493C45.7729 79.4347 45.2202 79.4458 44.6647 79.5291C44.112 79.6125 43.5787 79.7624 43.0621 79.9791C42.5482 80.1957 42.0677 80.4763 41.6233 80.8151C41.1789 81.154 40.7845 81.5428 40.4373 81.9845C37.196 82.0011 34.0407 82.0011 30.9882 82.0011H29.4939C28.7218 77.3127 24.0806 72.8187 20.2337 69.8245ZM26.2692 85.3341C26.4692 84.587 27.1136 83.3371 29.169 83.3371H30.9855C33.7519 83.3371 36.6099 83.3371 39.5346 83.3232C39.3513 83.6676 39.1902 84.0259 39.0597 84.3981C37.5126 85.7036 36.1377 87.1701 34.9351 88.7977C29.0912 88.8533 27.4275 88.4116 26.9636 88.1394C26.372 87.795 25.9415 86.559 26.272 85.3341H26.2692ZM55.9414 228.046L15.2175 227.029C10.0958 226.901 5.32401 222.674 4.57686 217.608C3.78804 212.153 3.21588 206.678 2.86313 201.179C2.51039 195.679 2.37707 190.174 2.46317 184.664C2.54927 179.156 2.8548 173.656 3.37975 168.171C3.9047 162.688 4.6463 157.23 5.60732 151.806C6.56834 146.378 7.74322 140.998 9.13198 135.668C10.5235 130.335 12.1234 125.066 13.9315 119.861C15.7425 114.656 17.7589 109.532 19.9782 104.488C22.1974 99.4439 24.6138 94.4972 27.2275 89.6476C28.1774 89.8837 30.0605 90.1309 33.9907 90.1309H33.9935C27.708 99.6467 26.4664 113.34 28.8995 123.878C28.9107 123.936 28.9329 123.989 28.9579 124.042C29.5356 125.125 31.1521 125.853 32.7992 125.853C33.0825 125.853 33.363 125.83 33.6435 125.786C34.1852 125.719 34.6907 125.547 35.1656 125.275C35.6378 125 36.0378 124.644 36.3627 124.205C36.721 123.697 36.8349 123.142 36.6988 122.533C33.7435 110.343 35.535 99.6272 41.7344 92.2113C42.7593 92.7918 43.862 93.1195 45.0397 93.1917C45.2397 93.2056 45.4369 93.214 45.6341 93.214C47.095 93.2334 48.4366 92.8445 49.6615 92.0474C56.2497 98.8995 58.3384 108.974 55.8609 122.008C55.7581 122.619 55.897 123.172 56.2803 123.661C56.6275 124.08 57.0469 124.417 57.5302 124.667C58.0162 124.916 58.5328 125.064 59.0772 125.103C59.2661 125.125 59.455 125.133 59.6438 125.133C61.3853 125.133 63.1157 124.297 63.6657 123.125C63.6907 123.072 63.7073 123.017 63.7185 122.961C65.5599 112.629 63.8018 99.5106 57.5302 90.3476C59.5216 90.2309 61.5242 90.0642 63.6185 89.8337C64.0351 89.8337 64.4184 89.7254 64.7739 89.506C70.2151 100.444 74.6146 111.784 77.9727 123.531C81.3279 135.277 83.586 147.231 84.7442 159.391H44.0398C43.8537 159.391 43.6981 159.458 43.5676 159.585C43.4371 159.716 43.3732 159.874 43.3732 160.058V203.054C43.3732 203.54 43.3982 204.023 43.4426 204.506C43.4898 204.989 43.5565 205.467 43.6481 205.945C43.7398 206.42 43.8537 206.892 43.9898 207.356C44.1231 207.823 44.2814 208.281 44.4592 208.731C44.6369 209.183 44.8369 209.625 45.0563 210.056C45.2758 210.489 45.5174 210.908 45.7757 211.319C46.0368 211.728 46.3146 212.125 46.609 212.508C46.9062 212.891 47.22 213.261 47.5533 213.616C47.8838 213.969 48.231 214.308 48.5949 214.627C48.956 214.95 49.3337 215.252 49.7253 215.538C50.117 215.825 50.5225 216.091 50.9391 216.341C51.3557 216.588 51.7835 216.816 52.2223 217.024C52.6584 217.23 53.1056 217.419 53.5611 217.583C54.0166 217.749 54.4804 217.894 54.9498 218.016C55.4192 218.138 55.8914 218.238 56.3719 218.316C56.8497 218.394 57.3302 218.449 57.8135 218.483V228.062C57.1941 228.065 56.5691 228.059 55.9414 228.046ZM94.1933 229.901H59.1467V218.519H94.1961L94.1933 229.901ZM93.7434 217.188H58.8384C58.3745 217.188 57.9134 217.163 57.4524 217.119C56.9941 217.072 56.5358 217.005 56.0831 216.913C55.6276 216.822 55.1804 216.711 54.736 216.574C54.2943 216.441 53.8583 216.286 53.4333 216.108C53.0056 215.93 52.5862 215.733 52.1779 215.513C51.7696 215.297 51.3752 215.058 50.9891 214.8C50.6058 214.544 50.2336 214.269 49.8753 213.975C49.5198 213.68 49.1754 213.372 48.8476 213.044C48.5227 212.716 48.2116 212.375 47.9172 212.017C47.6228 211.658 47.3478 211.286 47.0923 210.903C46.8339 210.517 46.5951 210.122 46.3784 209.714C46.159 209.306 45.9618 208.889 45.7841 208.461C45.6063 208.034 45.4507 207.598 45.3174 207.156C45.1813 206.712 45.0702 206.264 44.9786 205.812C44.8869 205.356 44.8203 204.901 44.773 204.439C44.7286 203.978 44.7064 203.517 44.7036 203.054V186.888C49.8364 186.83 59.1744 186.769 68.2264 186.711C77.8338 186.65 87.7689 186.586 92.7129 186.522L92.6935 185.189C87.7551 185.252 77.8227 185.319 68.2152 185.38C59.1744 185.439 49.8448 185.5 44.7036 185.558V176.437C49.8364 176.375 59.1744 176.314 68.2264 176.259C77.8338 176.195 87.7689 176.131 92.7129 176.067L92.6935 174.737C87.7551 174.801 77.8227 174.865 68.218 174.926C59.1744 174.984 49.8448 175.045 44.7036 175.103V167.435L100.954 167.251L100.951 165.918L44.7036 166.104V160.721H107.878V196.554C102.765 196.615 93.3018 196.676 84.136 196.737C74.5619 196.799 64.6573 196.862 59.7244 196.926L59.7411 198.257C64.6684 198.193 74.5702 198.129 84.1443 198.068C93.3018 198.01 102.754 197.948 107.875 197.887V203.054C107.875 204.265 107.725 205.453 107.417 206.625C102.198 206.684 92.9879 206.745 84.0582 206.8C74.5146 206.864 64.6434 206.928 59.7244 206.992L59.7411 208.322C64.6573 208.259 74.5258 208.195 84.0693 208.134C92.7546 208.078 101.707 208.02 106.998 207.961C106.748 208.634 106.448 209.283 106.098 209.911C105.751 210.536 105.356 211.133 104.917 211.7C104.478 212.269 103.998 212.8 103.479 213.291C102.959 213.786 102.404 214.239 101.815 214.65C101.226 215.058 100.609 215.422 99.965 215.738C99.3234 216.055 98.6568 216.319 97.9735 216.536C97.2903 216.749 96.5931 216.913 95.8848 217.022C95.1738 217.133 94.4628 217.186 93.7434 217.188ZM192.323 206.856C192.123 213.336 191.912 220.032 191.778 226.507C164.306 231.484 119.741 230.448 108.209 227.01C107.864 221.285 107.542 215.808 107.242 210.583C107.714 209.742 108.103 208.861 108.409 207.945H108.553L108.548 207.517C108.986 206.062 109.206 204.576 109.206 203.056V190.638C115.594 191.096 124.588 191.374 134.792 191.374C153.018 191.374 175.066 190.491 192.848 188.202C192.715 194.415 192.52 200.648 192.326 206.856H192.323Z" fill="white" stroke="white" stroke-width="2"/>
</g>
<path d="M143.008 168.187C143.156 168.187 143.303 168.173 143.45 168.167C143.506 168.778 143.403 169.362 143.139 169.917C142.747 170.745 142.27 171.753 141.761 172.836C141.581 173.22 141.453 173.62 141.381 174.036C141.309 174.453 141.292 174.872 141.334 175.294C141.375 175.717 141.47 176.125 141.62 176.519C141.77 176.916 141.972 177.286 142.22 177.627C142.47 177.969 142.761 178.272 143.092 178.536C143.425 178.8 143.783 179.013 144.175 179.18C144.564 179.347 144.967 179.458 145.386 179.516C145.805 179.575 146.228 179.575 146.647 179.519C147.464 179.411 148.53 179.266 149.555 179.097C149.994 179.025 150.43 179.041 150.861 179.144C151.294 179.247 151.691 179.43 152.052 179.691C152.708 180.169 153.441 180.661 154.357 181.238C154.749 181.488 155.166 181.677 155.61 181.805C156.054 181.93 156.51 181.991 156.971 181.983C157.435 181.974 157.888 181.897 158.326 181.755C158.768 181.613 159.176 181.408 159.557 181.144C159.937 180.888 160.274 180.583 160.565 180.227C160.857 179.872 161.09 179.48 161.262 179.055C161.437 178.63 161.548 178.189 161.59 177.733C161.634 177.275 161.609 176.822 161.521 176.369L161.493 176.23C161.415 175.833 161.41 175.433 161.476 175.03C161.543 174.631 161.679 174.253 161.882 173.903C162.084 173.55 162.343 173.245 162.657 172.983C162.968 172.725 163.318 172.531 163.701 172.397C163.965 172.309 164.229 172.22 164.493 172.136C164.943 171.992 165.362 171.784 165.751 171.511C166.137 171.239 166.476 170.917 166.765 170.542C167.056 170.17 167.284 169.762 167.453 169.32C167.62 168.878 167.72 168.42 167.751 167.948C167.781 167.476 167.739 167.009 167.631 166.551C167.52 166.09 167.345 165.656 167.106 165.248C166.865 164.84 166.57 164.479 166.22 164.159C165.87 163.84 165.481 163.579 165.054 163.376C164.454 163.096 163.895 162.84 163.398 162.621C162.823 162.365 162.357 161.979 161.998 161.462C161.64 160.946 161.44 160.376 161.401 159.749L161.248 157.463C161.218 157.01 161.123 156.571 160.968 156.143C160.81 155.718 160.596 155.324 160.326 154.96C160.054 154.596 159.737 154.28 159.376 154.007C159.013 153.733 158.621 153.519 158.196 153.36C157.771 153.199 157.332 153.105 156.879 153.071C156.427 153.038 155.979 153.071 155.538 153.169C155.093 153.266 154.674 153.421 154.277 153.641C153.877 153.858 153.519 154.127 153.199 154.449L152.238 155.416C151.13 151.863 148.477 149.158 145.225 148.375C144.328 148.141 143.417 148.041 142.489 148.078C141.564 148.114 140.661 148.283 139.784 148.583C138.909 148.886 138.095 149.308 137.342 149.85C136.59 150.391 135.931 151.03 135.368 151.766C132.768 154.996 132.048 159.524 133.623 162.776C135.226 166.095 138.914 168.187 143.008 168.187ZM154.144 155.388C154.371 155.157 154.63 154.963 154.916 154.807C155.202 154.652 155.502 154.538 155.821 154.469C156.138 154.399 156.46 154.377 156.785 154.399C157.107 154.424 157.424 154.494 157.727 154.607C158.032 154.721 158.315 154.874 158.574 155.071C158.835 155.266 159.063 155.493 159.257 155.755C159.451 156.016 159.604 156.299 159.718 156.604C159.829 156.91 159.896 157.227 159.918 157.552L160.071 159.837C160.099 160.265 160.182 160.682 160.323 161.087C160.465 161.493 160.66 161.873 160.907 162.226C161.151 162.579 161.44 162.89 161.771 163.165C162.101 163.437 162.465 163.662 162.857 163.837C163.345 164.054 163.895 164.304 164.487 164.581C164.793 164.726 165.073 164.915 165.323 165.143C165.573 165.37 165.784 165.631 165.959 165.923C166.131 166.217 166.256 166.529 166.334 166.856C166.415 167.187 166.442 167.523 166.42 167.862C166.398 168.201 166.328 168.528 166.209 168.845C166.09 169.162 165.926 169.456 165.717 169.723C165.509 169.992 165.265 170.223 164.987 170.417C164.709 170.614 164.409 170.764 164.087 170.867C163.818 170.956 163.545 171.042 163.273 171.134C163.007 171.228 162.751 171.345 162.504 171.484C162.257 171.622 162.023 171.781 161.807 171.961C161.59 172.142 161.39 172.342 161.207 172.559C161.026 172.775 160.865 173.006 160.723 173.253C160.582 173.497 160.465 173.753 160.371 174.019C160.276 174.286 160.207 174.561 160.16 174.839C160.115 175.119 160.096 175.4 160.101 175.683C160.104 175.967 160.135 176.247 160.19 176.525L160.21 176.616C160.271 176.941 160.285 177.269 160.254 177.597C160.221 177.927 160.14 178.244 160.012 178.55C159.887 178.855 159.721 179.136 159.512 179.394C159.301 179.649 159.063 179.872 158.788 180.055C158.515 180.241 158.221 180.386 157.904 180.486C157.59 180.586 157.265 180.636 156.935 180.641C156.604 180.647 156.282 180.605 155.963 180.513C155.643 180.424 155.346 180.291 155.068 180.113C154.174 179.55 153.463 179.075 152.833 178.613C152.01 178.019 151.094 177.722 150.083 177.722C149.833 177.722 149.583 177.744 149.336 177.783C148.33 177.95 147.275 178.094 146.469 178.2C145.855 178.28 145.264 178.2 144.694 177.955C144.125 177.714 143.658 177.341 143.292 176.841C142.928 176.341 142.717 175.783 142.656 175.167C142.597 174.55 142.7 173.964 142.964 173.403C143.472 172.32 143.947 171.314 144.339 170.486C144.519 170.103 144.647 169.7 144.722 169.284C144.794 168.864 144.811 168.445 144.772 168.023C144.731 167.601 144.636 167.19 144.486 166.792C144.333 166.395 144.133 166.026 143.881 165.684L143.128 164.654C142.928 164.382 142.772 164.087 142.664 163.77C142.553 163.451 142.489 163.123 142.478 162.787C142.464 162.451 142.5 162.118 142.586 161.793C142.672 161.468 142.803 161.162 142.981 160.874C143.158 160.587 143.375 160.335 143.628 160.112C143.881 159.89 144.161 159.71 144.467 159.571C144.775 159.432 145.094 159.343 145.43 159.299C145.764 159.257 146.097 159.263 146.43 159.321L147.261 159.463C148.016 159.59 148.761 159.54 149.491 159.307C150.222 159.074 150.858 158.685 151.399 158.14L154.144 155.388ZM136.404 152.602C136.89 151.966 137.459 151.413 138.106 150.947C138.756 150.477 139.459 150.113 140.217 149.852C140.973 149.591 141.75 149.444 142.55 149.413C143.35 149.383 144.139 149.469 144.914 149.669C147.914 150.391 150.33 153.055 151.158 156.502L150.461 157.202C150.072 157.59 149.613 157.871 149.091 158.038C148.566 158.204 148.033 158.243 147.489 158.149L146.658 158.007C146.194 157.927 145.73 157.918 145.267 157.977C144.8 158.038 144.353 158.163 143.925 158.357C143.497 158.549 143.106 158.801 142.753 159.11C142.4 159.421 142.1 159.774 141.853 160.174C141.606 160.574 141.423 160.998 141.303 161.454C141.184 161.907 141.134 162.371 141.153 162.837C141.17 163.307 141.256 163.765 141.411 164.207C141.564 164.651 141.781 165.062 142.059 165.44L142.814 166.47C142.9 166.59 142.981 166.717 143.05 166.848C139.489 166.848 136.187 165.02 134.823 162.196C133.462 159.39 134.115 155.443 136.404 152.602Z" fill="white" stroke="white" stroke-width="2"/>
<path d="M59.5019 46.9557C59.5491 47.2918 59.6657 47.6028 59.8491 47.8889C60.0352 48.175 60.2712 48.4083 60.5573 48.5889L61.2989 47.4834C61.024 47.3223 60.8656 47.0862 60.8184 46.7752C60.7268 46.103 61.2184 45.0586 62.135 43.9837C62.6766 43.3477 63.9098 41.7034 63.6404 40.1508C63.5765 39.8008 63.4404 39.4842 63.2321 39.1981C63.0238 38.912 62.7627 38.6843 62.4488 38.5176C62.1933 38.3787 61.96 38.2037 61.7544 37.9954C61.5461 37.7871 61.3739 37.5566 61.235 37.2983C61.0934 37.0427 60.9934 36.7705 60.9295 36.4845C60.8684 36.1984 60.849 35.9095 60.8684 35.6151C60.8906 35.2985 60.9573 34.9929 61.0684 34.6957C61.1795 34.3986 61.3267 34.1208 61.5156 33.868C61.7044 33.6125 61.9239 33.3875 62.1738 33.1931C62.4266 33.0015 62.6988 32.8459 62.996 32.732C63.2765 32.6209 63.5182 32.4515 63.7209 32.2238C63.9237 31.9988 64.0626 31.7377 64.1375 31.4433C64.2264 31.0683 64.2264 30.6933 64.1403 30.3184C64.057 29.9406 63.8931 29.6018 63.6543 29.3018C63.271 28.8463 62.8377 28.4408 62.3599 28.088C62.0127 27.827 61.6906 27.5409 61.3906 27.2242C61.1128 26.9298 60.9823 26.5798 61.0017 26.1743C61.0267 25.991 61.1212 25.8577 61.2795 25.7688L60.5879 24.6328C60.074 24.9356 59.7741 25.3827 59.6852 25.9744C59.6435 26.3632 59.6824 26.7437 59.8074 27.1159C59.9296 27.4881 60.1268 27.8186 60.3935 28.1075C60.7406 28.4797 61.1212 28.8213 61.5295 29.1268C61.9239 29.4157 62.2822 29.7462 62.6044 30.1184C62.8377 30.4073 62.921 30.735 62.8543 31.1016C62.8016 31.2988 62.6821 31.4322 62.4877 31.4988C62.0766 31.6627 61.6989 31.8793 61.3489 32.1488C60.999 32.421 60.6934 32.7348 60.4323 33.0903C60.1713 33.4486 59.9657 33.8347 59.813 34.2486C59.663 34.6624 59.5713 35.0929 59.5408 35.5318C59.5102 35.9484 59.538 36.3623 59.6269 36.7705C59.7157 37.1788 59.8602 37.5677 60.0574 37.9343C60.2574 38.301 60.5046 38.6315 60.799 38.9287C61.0934 39.2259 61.4239 39.4731 61.7905 39.6758C62.0877 39.8203 62.2683 40.0563 62.3294 40.3813C62.446 41.0507 61.9739 42.1256 61.1239 43.1227C60.4323 43.931 59.3019 45.5086 59.5019 46.9557Z" fill="white" stroke="white" stroke-width="2"/>
<path d="M42.7616 46.9507C42.8089 47.2867 42.9255 47.5978 43.1116 47.8839C43.2949 48.17 43.531 48.4033 43.8199 48.5838L44.5587 47.4784C44.2837 47.3173 44.1254 47.0812 44.081 46.7673C43.9865 46.0952 44.4809 45.0536 45.3947 43.9787C45.9391 43.3427 47.1723 41.6956 46.9001 40.1457C46.8363 39.7958 46.7029 39.4764 46.4918 39.1903C46.2835 38.9042 46.0224 38.6792 45.7086 38.5126C45.4531 38.3709 45.2225 38.1959 45.0142 37.9876C44.8087 37.7821 44.6337 37.5488 44.4948 37.2932C44.3532 37.0349 44.2532 36.7627 44.1921 36.4767C44.1282 36.1906 44.1087 35.9017 44.1282 35.6101C44.1532 35.2934 44.2198 34.9851 44.3282 34.6879C44.4393 34.3907 44.5892 34.1158 44.7753 33.8602C44.9642 33.6047 45.1836 33.3797 45.4364 33.1881C45.6864 32.9936 45.9613 32.8409 46.2558 32.7242C46.5391 32.6131 46.7807 32.4437 46.9807 32.2187C47.1834 31.991 47.3223 31.7299 47.4001 31.4382C47.4862 31.0605 47.4862 30.6855 47.4029 30.3106C47.3168 29.9356 47.1529 29.5967 46.914 29.2968C46.5307 28.8385 46.1002 28.4357 45.6197 28.0802C45.2725 27.8219 44.9503 27.5331 44.6503 27.2192C44.3726 26.9248 44.2421 26.572 44.2615 26.1665C44.2893 25.986 44.3809 25.8499 44.542 25.7638L43.8504 24.625C43.3366 24.9277 43.0338 25.3749 42.945 25.9665C42.9033 26.3582 42.9422 26.7387 43.0644 27.1109C43.1894 27.4803 43.3838 27.8108 43.6504 28.0969C44.0004 28.4719 44.3782 28.8107 44.7864 29.119C45.1836 29.4079 45.5392 29.7384 45.8613 30.1106C46.0947 30.3995 46.178 30.7272 46.1113 31.0938C46.0613 31.291 45.9391 31.4244 45.7475 31.491C45.3364 31.6549 44.9559 31.8715 44.6059 32.1437C44.2559 32.4131 43.9504 32.727 43.6921 33.0853C43.431 33.4408 43.2227 33.8269 43.0727 34.2435C42.92 34.6574 42.8311 35.0879 42.8005 35.5267C42.77 35.9434 42.7977 36.3572 42.8866 36.7655C42.9755 37.1738 43.1172 37.5627 43.3171 37.9293C43.5171 38.2959 43.7643 38.6292 44.0587 38.9236C44.3532 39.2208 44.6837 39.4708 45.0503 39.6708C45.3475 39.8152 45.528 40.0513 45.5891 40.3763C45.7058 41.0457 45.2336 42.1233 44.3837 43.1177C43.6921 43.9259 42.5617 45.5008 42.7616 46.9507Z" fill="white" stroke="white" stroke-width="2"/>
<path d="M27.5283 47.6331C27.5755 47.9692 27.6922 48.2803 27.8755 48.5636C28.0616 48.8497 28.2977 49.083 28.5837 49.2635L29.3253 48.1581C29.0531 47.9998 28.892 47.7637 28.8476 47.4498C28.7532 46.7776 29.2448 45.7361 30.1614 44.6612C30.703 44.0251 31.9362 42.3781 31.6668 40.8254C31.6029 40.4782 31.4668 40.1588 31.2585 39.8727C31.0502 39.5867 30.7891 39.3589 30.4752 39.195C30.2197 39.0534 29.9864 38.8784 29.7809 38.6701C29.5753 38.4645 29.4003 38.2312 29.2615 37.9729C29.1198 37.7174 29.0198 37.4452 28.9559 37.1591C28.8948 36.873 28.8754 36.5842 28.8948 36.2925C28.917 35.9759 28.9837 35.6676 29.0948 35.3704C29.2059 35.0732 29.3531 34.7982 29.542 34.5427C29.7309 34.2872 29.9503 34.0622 30.2003 33.8705C30.453 33.6761 30.7252 33.5234 31.0224 33.4067C31.3057 33.2956 31.5474 33.1262 31.7473 32.8984C31.9501 32.6707 32.089 32.4123 32.1667 32.1179C32.2528 31.743 32.2528 31.368 32.1667 30.9903C32.0834 30.6153 31.9195 30.2764 31.6807 29.9765C31.2974 29.521 30.8641 29.1154 30.3836 28.7627C30.0392 28.5016 29.717 28.2127 29.417 27.8989C29.1392 27.6017 29.0087 27.2517 29.0281 26.8462C29.0531 26.6657 29.1476 26.5296 29.3059 26.4407L28.6143 25.3047C28.1005 25.6074 27.8005 26.0574 27.7116 26.6462C27.6699 27.0351 27.7088 27.4184 27.8338 27.7906C27.956 28.1627 28.1532 28.4933 28.4199 28.7794C28.7671 29.1515 29.1476 29.4932 29.5559 29.7987C29.9503 30.0903 30.3086 30.4209 30.628 30.7903C30.8641 31.0791 30.9474 31.4069 30.878 31.7735C30.828 31.9707 30.7058 32.104 30.5141 32.1735C30.103 32.3346 29.7225 32.5512 29.3753 32.8234C29.0254 33.0928 28.7198 33.4067 28.4588 33.7622C28.1977 34.1205 27.9921 34.5066 27.8394 34.9204C27.6894 35.3343 27.5977 35.762 27.5672 36.2037C27.5366 36.6203 27.5644 37.0341 27.6533 37.4424C27.7422 37.8507 27.8838 38.2368 28.0838 38.6062C28.2838 38.9728 28.531 39.3034 28.8254 39.6006C29.1198 39.8977 29.4503 40.1449 29.8142 40.3477C30.1142 40.4921 30.2947 40.7254 30.353 41.0532C30.4725 41.7226 30.0003 42.7975 29.1504 43.7946C28.456 44.6056 27.3283 46.186 27.5283 47.6331Z" fill="white" stroke="white" stroke-width="2"/>
<path d="M89.3696 152.305C89.4168 152.641 89.5335 152.952 89.7168 153.238C89.9029 153.522 90.139 153.755 90.4251 153.938L91.1667 152.83C90.8917 152.669 90.7334 152.433 90.6889 152.119C90.5945 151.447 91.0861 150.405 92.0027 149.33C92.5471 148.694 93.7775 147.047 93.5081 145.497C93.4442 145.147 93.3081 144.831 93.0998 144.542C92.8915 144.256 92.6304 144.031 92.3166 143.864C92.061 143.722 91.8277 143.547 91.6222 143.342C91.4167 143.134 91.2417 142.9 91.1028 142.645C90.9611 142.386 90.8612 142.114 90.7973 141.828C90.7362 141.542 90.7167 141.253 90.7362 140.962C90.7584 140.645 90.825 140.339 90.9361 140.042C91.0472 139.745 91.1945 139.467 91.3833 139.212C91.5722 138.956 91.7916 138.734 92.0416 138.54C92.2943 138.348 92.5665 138.192 92.8637 138.076C93.1443 137.965 93.3887 137.798 93.5887 137.57C93.7914 137.343 93.9303 137.084 94.0081 136.79C94.0942 136.415 94.0942 136.04 94.0081 135.662C93.9247 135.287 93.7609 134.948 93.522 134.648C93.1387 134.193 92.7054 133.787 92.2277 133.435C91.8805 133.173 91.5583 132.887 91.2583 132.571C90.9806 132.276 90.85 131.926 90.8723 131.518C90.8945 131.338 90.9889 131.201 91.15 131.115L90.4556 129.977C89.9418 130.282 89.6418 130.729 89.5557 131.318C89.5113 131.71 89.5529 132.09 89.6752 132.462C89.7974 132.835 89.9946 133.165 90.2612 133.451C90.6084 133.826 90.9889 134.165 91.3972 134.473C91.7916 134.762 92.1499 135.093 92.4693 135.465C92.7054 135.754 92.7887 136.082 92.7193 136.448C92.6693 136.645 92.5471 136.779 92.3555 136.845C91.9444 137.009 91.5639 137.226 91.2167 137.495C90.8667 137.767 90.5612 138.079 90.3001 138.437C90.039 138.792 89.8335 139.178 89.6807 139.592C89.5307 140.009 89.4391 140.437 89.4085 140.878C89.378 141.295 89.4057 141.706 89.4946 142.114C89.5835 142.523 89.7251 142.911 89.9251 143.278C90.1251 143.645 90.3723 143.978 90.6667 144.275C90.9611 144.57 91.2917 144.82 91.6583 145.02C91.9555 145.164 92.136 145.4 92.1944 145.725C92.3138 146.397 91.8416 147.472 90.9889 148.466C90.3001 149.278 89.1669 150.855 89.3696 152.305Z" fill="white" stroke="white" stroke-width="2"/>
<path d="M72.6298 152.305C72.677 152.641 72.7937 152.952 72.977 153.235C73.1631 153.522 73.3992 153.755 73.6853 153.935L74.4269 152.83C74.1519 152.672 73.9936 152.433 73.9491 152.119C73.8547 151.447 74.3463 150.405 75.2629 149.33C75.8045 148.694 77.0405 147.05 76.7683 145.497C76.7044 145.147 76.5683 144.831 76.36 144.545C76.1517 144.259 75.8906 144.031 75.5767 143.864C75.3212 143.722 75.0879 143.55 74.8824 143.342C74.6768 143.134 74.5018 142.903 74.363 142.645C74.2213 142.386 74.1213 142.117 74.0602 141.831C73.9963 141.545 73.9769 141.253 73.9963 140.962C74.0213 140.645 74.088 140.339 74.1963 140.042C74.3074 139.745 74.4546 139.467 74.6435 139.212C74.8324 138.959 75.0518 138.734 75.3018 138.54C75.5545 138.348 75.8267 138.192 76.1239 138.079C76.4044 137.967 76.6489 137.798 76.8488 137.57C77.0516 137.343 77.1905 137.084 77.2683 136.79C77.3544 136.415 77.3544 136.04 77.2683 135.665C77.1849 135.287 77.0211 134.951 76.7822 134.648C76.3989 134.193 75.9656 133.787 75.4879 133.435C75.1407 133.173 74.8185 132.887 74.5185 132.571C74.238 132.276 74.1102 131.926 74.1297 131.521C74.1547 131.338 74.2463 131.204 74.4074 131.115L73.7158 129.977C73.202 130.282 72.902 130.729 72.8131 131.321C72.7715 131.71 72.8103 132.09 72.9353 132.462C73.0575 132.835 73.2547 133.165 73.5214 133.454C73.8686 133.826 74.2463 134.165 74.6546 134.473C75.0518 134.762 75.4101 135.093 75.7295 135.465C75.9656 135.754 76.0489 136.082 75.9795 136.448C75.9295 136.645 75.8073 136.779 75.6156 136.848C75.2046 137.009 74.824 137.226 74.4769 137.498C74.1269 137.767 73.8214 138.081 73.5603 138.437C73.2992 138.795 73.0936 139.178 72.9409 139.595C72.7909 140.009 72.6992 140.437 72.6687 140.878C72.6381 141.295 72.6659 141.706 72.7548 142.117C72.8409 142.525 72.9853 142.911 73.1853 143.281C73.3853 143.647 73.6325 143.978 73.9269 144.275C74.2213 144.572 74.5518 144.82 74.9185 145.022C75.2157 145.167 75.3962 145.4 75.4545 145.728C75.5712 146.397 75.1018 147.472 74.2491 148.466C73.5603 149.278 72.4298 150.855 72.6298 152.305Z" fill="white" stroke="white" stroke-width="2"/>
<path d="M57.3919 152.982C57.4419 153.318 57.5586 153.629 57.7419 153.915C57.928 154.201 58.1641 154.435 58.4502 154.615L59.1918 153.504C58.9168 153.346 58.7585 153.11 58.7113 152.799C58.6196 152.126 59.1112 151.082 60.0278 150.007C60.5694 149.371 61.8026 147.727 61.5304 146.174C61.4693 145.827 61.3332 145.508 61.1249 145.222C60.9166 144.935 60.6555 144.71 60.3417 144.544C60.0861 144.402 59.8528 144.23 59.6473 144.022C59.439 143.813 59.2668 143.583 59.1251 143.324C58.9862 143.066 58.8862 142.797 58.8224 142.508C58.7613 142.222 58.739 141.933 58.7613 141.641C58.7835 141.325 58.8501 141.019 58.9612 140.722C59.0696 140.425 59.2195 140.147 59.4084 139.891C59.5973 139.636 59.8167 139.414 60.0667 139.219C60.3194 139.028 60.5916 138.872 60.8861 138.755C61.1694 138.644 61.411 138.478 61.6138 138.25C61.8165 138.022 61.9554 137.764 62.0304 137.469C62.1193 137.095 62.1193 136.72 62.0332 136.342C61.9498 135.967 61.786 135.628 61.5443 135.328C61.161 134.873 60.7305 134.467 60.25 134.114C59.9056 133.853 59.5834 133.567 59.2834 133.25C59.0029 132.956 58.8751 132.606 58.8946 132.198C58.9196 132.017 59.0112 131.884 59.1723 131.795L58.4807 130.656C57.9669 130.962 57.6669 131.409 57.578 131.998C57.5364 132.389 57.5753 132.77 57.7002 133.142C57.8225 133.514 58.0169 133.845 58.2863 134.131C58.6335 134.506 59.0112 134.845 59.4195 135.153C59.8167 135.442 60.175 135.772 60.4944 136.145C60.7305 136.433 60.8138 136.761 60.7444 137.128C60.6944 137.325 60.5722 137.458 60.3805 137.528C59.9695 137.689 59.589 137.906 59.239 138.175C58.8918 138.447 58.5863 138.761 58.3252 139.117C58.0641 139.472 57.8586 139.858 57.7058 140.275C57.553 140.689 57.4642 141.116 57.4336 141.558C57.4031 141.975 57.4308 142.386 57.5197 142.794C57.6058 143.202 57.7502 143.591 57.9502 143.958C58.1502 144.327 58.3974 144.658 58.6918 144.955C58.9862 145.249 59.314 145.499 59.6806 145.702C59.9806 145.846 60.1611 146.08 60.2195 146.408C60.3361 147.077 59.8639 148.152 59.014 149.146C58.3224 149.96 57.1947 151.535 57.3919 152.982Z" fill="white" stroke="white" stroke-width="2"/>
</svg>
