<svg width="251" height="102" viewBox="0 0 251 102" fill="none" xmlns="http://www.w3.org/2000/svg">
<path d="M188.94 66.116C189.878 67.1021 190.762 68.0353 191.809 69.0269C192.331 69.4935 192.92 69.849 193.575 70.0907C194.231 70.3351 194.908 70.449 195.608 70.4378C195.778 70.4378 195.947 70.4295 196.117 70.4156C197.486 70.3073 198.461 69.7851 198.819 69.3157C199.133 68.8852 199.33 68.4075 199.405 67.8798C199.477 67.352 199.425 66.8382 199.239 66.3355C198.669 64.5745 196.98 63.1108 194.722 62.4247C192.714 61.8164 189.803 61.7387 186.734 62.2164C186.44 62.2636 186.245 62.4275 186.156 62.7136C186.065 62.9969 186.126 63.2441 186.34 63.4524C187.276 64.3662 188.112 65.2467 188.94 66.116ZM194.3 63.8135C196.106 64.3606 197.436 65.4717 197.858 66.7826C197.969 67.0548 198.008 67.3381 197.975 67.6298C197.941 67.9214 197.839 68.1908 197.669 68.4297C197.169 68.7797 196.611 68.9602 196 68.9713C195.422 69.0324 194.856 68.9797 194.3 68.8047C193.745 68.6325 193.245 68.3547 192.806 67.9742C191.787 67.0076 190.914 66.091 189.973 65.0995C189.467 64.5662 188.953 64.0246 188.406 63.4663C190.392 63.2191 192.356 63.3357 194.3 63.8135Z" fill="white" stroke="white"/>
<path d="M171.583 63.6126C168.483 63.8376 165.664 64.5653 163.847 65.6097C161.8 66.7873 160.481 68.5927 160.326 70.437C160.256 70.9675 160.317 71.4785 160.509 71.9785C160.701 72.4757 160.998 72.8978 161.403 73.245C162.012 73.645 162.681 73.8228 163.406 73.7783C163.7 73.7783 163.992 73.7561 164.284 73.7117C165.064 73.6117 165.792 73.3617 166.469 72.9562C167.144 72.5534 167.711 72.0313 168.169 71.3924C168.961 70.1981 169.616 69.0871 170.308 67.915L169.686 67.5428L169.061 67.1734V67.1762C168.378 68.3344 167.733 69.4287 166.964 70.5897C166.619 71.0591 166.194 71.4424 165.694 71.7368C165.192 72.0285 164.65 72.2118 164.072 72.2785C163.478 72.4062 162.898 72.359 162.331 72.134C162.111 71.9396 161.95 71.7007 161.85 71.423C161.75 71.1425 161.725 70.8564 161.773 70.5647C161.889 69.1954 162.936 67.815 164.572 66.8734C166.358 65.9707 168.247 65.4152 170.236 65.2125C169.827 65.8818 169.444 66.529 169.069 67.1651L169.689 67.5428L170.319 67.9011C170.919 66.8845 171.538 65.8374 172.247 64.732C172.411 64.482 172.413 64.2264 172.261 63.9709C172.111 63.7071 171.883 63.5876 171.583 63.6126Z" fill="white" stroke="white"/>
<mask id="mask0_134_1594" style="mask-type:luminance" maskUnits="userSpaceOnUse" x="-1" y="0" width="252" height="103">
<path d="M0.423828 0.875H249.933V101.51H0.423828V0.875Z" fill="white" stroke="white"/>
</mask>
<g mask="url(#mask0_134_1594)">
<path d="M249.464 7.50296C249.35 6.40306 249.022 5.36705 248.478 4.40048C247.936 3.4339 247.225 2.61731 246.342 1.94515C245.725 1.50075 245.045 1.20356 244.297 1.05635C243.553 0.906364 242.809 0.920251 242.07 1.09523L175.926 8.53064C175.743 6.86135 175.565 5.19762 175.396 3.57278C175.384 3.47279 175.354 3.37557 175.301 3.28947C175.251 3.20059 175.185 3.1256 175.101 3.06449C175.021 3.00339 174.929 2.9645 174.829 2.94228C174.729 2.92006 174.629 2.92006 174.529 2.9395L171.093 3.63944C170.907 3.67832 170.76 3.77276 170.652 3.92552C170.541 4.07828 170.496 4.24771 170.518 4.43381L171.085 9.3139C164.624 10.1749 158.156 10.9249 151.681 11.5665L151.806 8.78617C151.817 8.5723 151.803 8.36121 151.77 8.15012C151.74 7.93903 151.684 7.73627 151.609 7.53629C151.537 7.33631 151.442 7.14744 151.331 6.96412C151.217 6.78358 151.087 6.61693 150.942 6.46139C150.795 6.30863 150.634 6.16975 150.459 6.04754C150.287 5.92533 150.101 5.81978 149.906 5.73646C149.712 5.65036 149.509 5.58647 149.301 5.54203C149.093 5.49759 148.881 5.4726 148.67 5.46982L147.212 5.45593H147.182C146.976 5.45871 146.773 5.47815 146.573 5.51704C146.373 5.5587 146.179 5.61703 145.99 5.6948C145.801 5.76979 145.621 5.867 145.448 5.9781C145.279 6.0892 145.121 6.21697 144.974 6.35862C144.826 6.50305 144.696 6.65859 144.579 6.82524C144.462 6.99467 144.362 7.16965 144.279 7.35853C144.199 7.54462 144.135 7.73905 144.087 7.93903C144.043 8.13623 144.018 8.33899 144.012 8.54452C143.982 9.65553 143.946 10.9193 143.904 12.2858C116.676 14.6189 89.4205 15.0356 62.1314 13.5329C62.0897 12.1192 62.0536 10.8082 62.0231 9.66109C62.0175 9.45833 61.9897 9.25557 61.9453 9.05559C61.9009 8.85561 61.837 8.66396 61.7537 8.47509C61.6703 8.28899 61.5731 8.11123 61.4565 7.94458C61.3398 7.77515 61.2065 7.61961 61.0621 7.47796C60.9148 7.33353 60.7565 7.20854 60.5843 7.09466C60.4149 6.98356 60.2344 6.88913 60.0455 6.81136C59.8566 6.73359 59.6594 6.67526 59.4594 6.63637C59.2594 6.59471 59.0567 6.57527 58.8539 6.57527H58.8206L57.3652 6.58916C57.1513 6.58916 56.943 6.61415 56.7347 6.65859C56.5264 6.70303 56.3236 6.76692 56.1292 6.85302C55.932 6.93634 55.7487 7.04189 55.5737 7.1641C55.3987 7.28631 55.2404 7.42241 55.0932 7.57795C54.946 7.73349 54.8154 7.90014 54.7043 8.08068C54.5904 8.26122 54.4988 8.45287 54.4238 8.65007C54.3488 8.85005 54.296 9.05559 54.2627 9.26668C54.2294 9.47777 54.2183 9.68886 54.2266 9.89995L54.371 13.058C36.6616 11.847 19.0077 9.82496 1.4094 6.99189C1.21775 6.96134 1.03999 7.00023 0.881668 7.11133C0.720572 7.22243 0.620581 7.37519 0.584473 7.56684C0.520591 7.87514 0.426155 8.33899 4.56743 13.7496C6.09228 15.7438 8.79203 19.1602 9.73638 19.6462C13.611 21.1628 17.5995 22.2543 21.7075 22.9209C32.4342 24.3708 43.4832 25.4429 54.9543 26.1345C55.3237 34.4198 55.6626 42.1413 55.7709 44.5717C41.9194 44.1717 28.2763 43.519 14.8387 42.6107C14.6304 42.5941 14.4526 42.6579 14.2998 42.7996C14.1471 42.9385 14.0693 43.1107 14.0637 43.3162L13.7138 57.3649C13.7082 57.5565 13.7721 57.726 13.8999 57.8676C14.0304 58.012 14.1915 58.0898 14.3859 58.1065C27.3986 59.0481 40.6084 59.773 53.66 60.2674C53.9266 66.214 54.2155 72.7301 54.4488 77.9712C49.7048 77.724 44.597 78.0435 41.2028 79.9238C31.401 85.3622 35.2062 94.0642 35.2451 94.153C35.3034 94.2808 35.3923 94.3864 35.5117 94.4613C35.6311 94.5391 35.7617 94.578 35.9061 94.578H50.8297C50.5103 95.9862 49.8881 98.7748 49.5298 100.825C49.5104 100.93 49.5159 101.036 49.5437 101.141C49.5743 101.244 49.6215 101.338 49.6937 101.422C49.7631 101.502 49.8465 101.566 49.9464 101.611C50.0437 101.655 50.1464 101.677 50.2547 101.675C58.554 101.575 70.2723 101.675 70.3889 101.675C70.6445 101.672 70.8445 101.566 70.9917 101.361C71.1389 101.15 71.1639 100.925 71.0694 100.686L68.6808 94.578C76.355 94.5808 123.139 94.603 133.425 94.578C132.411 97.0111 130.95 100.633 130.933 100.675C130.889 100.786 130.872 100.902 130.886 101.022C130.897 101.141 130.939 101.252 131.005 101.352C131.072 101.452 131.161 101.53 131.266 101.586C131.372 101.644 131.486 101.672 131.605 101.672H152.759C152.87 101.672 152.976 101.647 153.076 101.6C153.175 101.55 153.259 101.483 153.328 101.397C153.398 101.311 153.442 101.211 153.467 101.102C153.492 100.997 153.489 100.889 153.464 100.78L152.001 94.5752H169.063C169.263 94.5752 169.432 94.503 169.574 94.3641C169.716 94.2253 169.788 94.0558 169.788 93.8586C169.793 93.4559 169.843 83.9679 163.786 80.4293C163.561 80.2988 163.336 80.1738 163.108 80.0516C163.205 80.0516 163.3 80.0627 163.397 80.0627C164.002 80.0627 164.605 80.0183 165.202 79.9294C166.027 79.8183 166.83 79.6211 167.61 79.3406C168.393 79.06 169.138 78.7017 169.846 78.2657C170.552 77.8296 171.204 77.3241 171.807 76.7519C172.407 76.177 172.94 75.5465 173.41 74.8604C174.296 73.5272 175.021 72.294 175.723 71.0997C176.809 69.186 178.004 67.3417 179.306 65.5669C181.103 67.0834 182.795 68.7082 184.384 70.4414C185.334 71.4413 186.317 72.4801 187.483 73.5828C188.583 74.6077 189.833 75.3909 191.236 75.9326C192.638 76.4742 194.094 76.738 195.596 76.7186C195.93 76.7186 196.274 76.7047 196.619 76.6769C199.654 76.4353 202.279 75.1382 203.812 73.1245C204.279 72.5107 204.662 71.8496 204.965 71.1413C205.268 70.4331 205.479 69.6998 205.604 68.9388C205.726 68.1805 205.754 67.4167 205.69 66.6473C205.623 65.8807 205.468 65.1336 205.218 64.4059C204.085 60.9007 201.14 58.0426 197.26 56.6511C211.789 55.3678 226.435 53.7902 240.859 51.9543C240.959 51.9404 241.05 51.9098 241.134 51.8598C241.22 51.8098 241.292 51.746 241.35 51.6654C241.409 51.5849 241.45 51.4988 241.473 51.4016C241.495 51.3043 241.498 51.2071 241.481 51.1099C241.445 50.9016 241.414 50.11 241.378 49.2712C241.239 45.8104 240.978 39.3721 239.453 36.5807C239.381 36.4502 239.281 36.353 239.151 36.2836C239.02 36.2169 238.881 36.1919 238.734 36.2086C223.241 37.9612 207.751 39.4721 192.677 40.7026C192.647 40.6248 192.619 40.547 192.588 40.4693C192.43 40.0776 192.213 39.7221 191.938 39.4027C191.664 39.0833 191.347 38.8166 190.983 38.6C190.622 38.3861 190.236 38.2334 189.825 38.1445C189.414 38.0556 188.997 38.0334 188.578 38.0806C188.161 38.1278 187.761 38.2389 187.378 38.4167C186.997 38.5944 186.653 38.8278 186.347 39.1194C186.042 39.4083 185.792 39.7388 185.595 40.111C185.397 40.4832 185.264 40.8776 185.195 41.2942C184.4 41.3553 183.603 41.4136 182.809 41.4719C182.778 41.3386 182.75 41.2025 182.72 41.0692C182.609 40.6054 182.42 40.1748 182.153 39.7804C181.884 39.3888 181.553 39.0555 181.162 38.7833C180.77 38.5111 180.342 38.3195 179.879 38.2056C179.417 38.0917 178.948 38.0639 178.476 38.1223C178.004 38.1834 177.557 38.325 177.134 38.55C176.715 38.775 176.348 39.0666 176.034 39.4249C175.723 39.786 175.484 40.1915 175.323 40.6387C175.16 41.0859 175.082 41.5497 175.09 42.0247C173.793 42.1136 172.496 42.2024 171.196 42.2885C171.132 41.8441 170.996 41.4247 170.785 41.0303C170.574 40.6331 170.304 40.2859 169.971 39.9832C169.641 39.6832 169.268 39.4471 168.855 39.2749C168.441 39.1027 168.01 39.0055 167.563 38.9833C167.116 38.9611 166.677 39.0138 166.249 39.1444C165.822 39.2722 165.427 39.4721 165.066 39.7388C164.708 40.0054 164.402 40.3248 164.155 40.697C163.905 41.0692 163.727 41.4719 163.619 41.908C163.547 42.1969 163.483 42.4885 163.419 42.7774C162.863 42.8107 162.308 42.8413 161.752 42.8746C161.644 42.4607 161.469 42.0747 161.233 41.7164C160.994 41.3608 160.705 41.0498 160.364 40.7887C160.025 40.5276 159.65 40.3304 159.244 40.1943C158.839 40.0554 158.419 39.9888 157.992 39.9915C157.561 39.9943 157.145 40.0665 156.739 40.2054C156.334 40.3471 155.964 40.5498 155.625 40.8165C155.289 41.0803 155.003 41.3914 154.77 41.7525C154.536 42.1108 154.367 42.4996 154.262 42.9163C154.231 43.0412 154.203 43.169 154.175 43.2968C152.87 43.3662 151.565 43.4273 150.262 43.4912C150.37 41.0192 150.731 32.8172 151.117 24.1819C158.097 23.5903 165.252 22.9043 172.576 22.1293L173.032 26.0262C173.051 26.2095 173.132 26.3623 173.268 26.4845C173.407 26.6067 173.565 26.6678 173.751 26.6678H173.787C174.057 26.6539 174.34 26.6539 174.629 26.6511C175.532 26.69 176.418 26.5956 177.29 26.3651C177.457 26.3151 177.584 26.2151 177.679 26.0734C177.776 25.929 177.812 25.7707 177.795 25.5985C177.69 24.5874 177.582 23.5598 177.468 22.5265C188.617 21.3794 199.71 20.2129 210.442 19.0852C221.333 17.9409 232.593 16.7576 243.903 15.5911C243.967 15.5827 244.031 15.5689 244.092 15.5439C248.361 14.9245 249.875 11.0915 249.464 7.50296ZM145.462 8.58063C145.468 8.35843 145.518 8.14179 145.607 7.93903C145.698 7.73349 145.823 7.55295 145.982 7.39741C146.143 7.23909 146.326 7.11966 146.534 7.03633C146.743 6.95023 146.957 6.90857 147.182 6.90579H147.198L148.654 6.92246C148.89 6.92246 149.112 6.97245 149.326 7.06411C149.54 7.15855 149.729 7.28909 149.89 7.45852C150.048 7.62795 150.17 7.82237 150.251 8.04179C150.334 8.26122 150.367 8.4862 150.356 8.71951L150.223 11.7109C148.601 11.8692 146.982 12.0192 145.36 12.1608C145.398 10.8582 145.435 9.6472 145.462 8.58063ZM56.1459 8.57785C56.4792 8.21956 56.8902 8.04179 57.3791 8.03902L58.8345 8.02513H58.8539C59.0761 8.02513 59.2928 8.06957 59.4983 8.1529C59.7066 8.239 59.8899 8.35843 60.051 8.51397C60.2121 8.66951 60.3371 8.85005 60.426 9.05559C60.5177 9.26112 60.5649 9.47499 60.5732 9.69997C60.601 10.8138 60.6371 12.0831 60.6788 13.4552C59.0622 13.3607 57.443 13.2607 55.8264 13.1524L55.6765 9.83607C55.6515 9.35 55.8098 8.9306 56.1459 8.57785ZM168.313 93.1281H151.081C150.97 93.1281 150.865 93.1531 150.765 93.2004C150.665 93.2476 150.581 93.317 150.512 93.4031C150.442 93.4892 150.398 93.5864 150.373 93.6948C150.348 93.8031 150.351 93.9114 150.376 94.0197L151.842 100.225H132.68C133.302 98.6887 134.494 95.7557 135.183 94.1364C135.233 94.0253 135.249 93.9086 135.238 93.7864C135.227 93.667 135.188 93.5559 135.122 93.4531C135.055 93.3503 134.969 93.2726 134.861 93.2142C134.752 93.1559 134.638 93.1281 134.516 93.1281H134.513C126.522 93.1559 68.203 93.1281 67.6142 93.1281C67.4948 93.1281 67.3809 93.1559 67.2753 93.2115C67.1698 93.267 67.0837 93.3448 67.0143 93.4448C66.9476 93.542 66.9059 93.6503 66.8921 93.7697C66.8782 93.8892 66.8948 94.0058 66.9393 94.1169L69.3279 100.216C66.3643 100.197 57.8401 100.147 51.1158 100.216C51.6324 97.4888 52.4379 94.0586 52.4462 94.0197C52.4712 93.9114 52.4712 93.8059 52.449 93.6975C52.424 93.5892 52.3768 93.492 52.3101 93.4031C52.2407 93.317 52.1573 93.2503 52.0574 93.2004C51.9574 93.1531 51.8518 93.1281 51.7407 93.1281H36.3977C35.82 91.4644 34.3451 85.39 41.9111 81.1932C49.191 77.1547 65.981 81.0293 66.1477 81.0682C66.2782 81.0987 66.4088 81.0932 66.5365 81.0543C66.7337 80.9904 86.4346 74.791 104.416 74.791C113.799 74.791 125.15 75.5659 138.207 81.307C138.355 81.3709 138.505 81.3848 138.66 81.3515C149.748 78.8017 156.917 78.1018 163.058 81.6876C167.488 84.2762 168.202 90.9283 168.313 93.1281ZM54.7682 52.5959C54.7571 52.3626 54.7932 52.1376 54.8738 51.9182C54.9543 51.6987 55.0765 51.5043 55.2376 51.3349C55.3987 51.1655 55.5848 51.0349 55.7987 50.9405C56.0125 50.8461 56.2375 50.7988 56.4708 50.7961L57.9262 50.7822H57.9429C58.1679 50.7849 58.3818 50.8266 58.5901 50.9127C58.7984 50.996 58.9817 51.1155 59.1428 51.2738C59.3011 51.4293 59.4261 51.6099 59.5178 51.8154C59.6094 52.0209 59.6566 52.2348 59.665 52.457C59.8288 58.8147 60.2177 69.9915 60.5288 78.574C59.1206 78.374 57.5513 78.1879 55.9042 78.0657C55.5654 70.4136 55.1015 59.9619 54.7682 52.5959ZM61.3565 60.534C73.097 60.8979 84.8876 61.0812 96.7281 61.084C112.438 61.084 128.17 60.759 143.782 60.1174C143.588 66.0724 143.343 73.1023 143.132 78.8962C141.64 79.1906 140.116 79.5239 138.566 79.8822C125.275 74.0855 113.34 73.3411 104.413 73.3411C87.1651 73.3411 68.378 78.9656 66.2838 79.61C65.7283 79.485 64.1423 79.1406 61.987 78.7962C61.7842 73.1606 61.5453 66.3612 61.3565 60.534ZM144.596 78.6212C144.904 70.0303 145.293 58.8536 145.462 52.457C145.468 52.2348 145.518 52.0209 145.607 51.8154C145.698 51.6099 145.823 51.4293 145.982 51.2738C146.143 51.1155 146.326 50.996 146.534 50.9127C146.743 50.8266 146.957 50.7849 147.182 50.7822H147.198L148.654 50.7961C148.887 50.7988 149.112 50.8461 149.326 50.9405C149.54 51.0349 149.726 51.1655 149.887 51.3349C150.048 51.5043 150.17 51.6987 150.251 51.9182C150.331 52.1376 150.367 52.3626 150.356 52.5959C150.026 59.9285 149.565 70.3164 149.226 77.9574C147.718 78.1073 146.173 78.3351 144.596 78.6212ZM157.392 78.0879C157.411 78.1046 157.436 78.1212 157.456 78.1379C155.211 77.7602 152.953 77.6602 150.681 77.8352C150.92 72.469 151.215 65.7974 151.487 59.773C152.873 59.7063 154.259 59.6369 155.647 59.5647C155.689 59.6619 155.725 59.7591 155.77 59.8563C156 60.3701 156.328 60.8118 156.753 61.184C157.178 61.5561 157.661 61.8228 158.203 61.9811C157.033 62.9921 156.092 64.1809 155.378 65.5474C154.664 66.9167 154.225 68.3666 154.062 69.9026C153.984 70.6692 153.998 71.433 154.109 72.1968C154.217 72.9578 154.417 73.6967 154.706 74.4105C154.998 75.1243 155.37 75.7937 155.822 76.4158C156.278 77.038 156.8 77.5963 157.392 78.0879ZM238.387 37.7056C239.57 40.447 239.812 46.3909 239.931 49.3295C239.953 49.8711 239.97 50.285 239.987 50.6016C238.029 50.8516 236.065 51.0933 234.098 51.3321C234.057 47.1714 233.087 40.6942 232.712 38.3361C234.604 38.1306 236.495 37.9195 238.387 37.7056ZM231.268 38.4917C231.629 40.7776 232.632 47.463 232.651 51.5043C219.825 53.0431 206.879 54.3763 194.041 55.4762C194.472 53.2486 194.613 51.0044 194.469 48.7407C194.324 46.477 193.899 44.2689 193.188 42.1136C205.676 41.0914 218.447 39.8777 231.268 38.4917ZM188.094 39.6832C188.392 39.5638 188.7 39.5055 189.019 39.5082C189.339 39.5082 189.647 39.5721 189.944 39.6971C190.239 39.8221 190.5 39.9971 190.725 40.2248C190.95 40.4526 191.122 40.7165 191.244 41.0137C192.186 43.344 192.763 45.7604 192.98 48.2657C193.197 50.7711 193.038 53.2514 192.508 55.7095C190.85 55.5984 189.192 55.6289 187.536 55.8039C187.547 55.7289 187.553 55.6512 187.572 55.5734C188.133 53.4625 188.344 51.3182 188.206 49.1379C188.067 46.9603 187.589 44.8577 186.767 42.8329C186.645 42.5385 186.586 42.2274 186.589 41.908C186.589 41.5886 186.653 41.2803 186.778 40.9859C186.903 40.6887 187.078 40.4304 187.306 40.2054C187.533 39.9776 187.797 39.8054 188.094 39.686V39.6832ZM183.098 42.9024C183.809 42.8524 184.52 42.7968 185.228 42.744C185.275 42.9607 185.339 43.1746 185.422 43.3801C186.186 45.2577 186.631 47.2075 186.758 49.2295C186.886 51.2516 186.692 53.2403 186.172 55.1984C186.103 55.4595 186.061 55.7261 186.047 55.9956C184.934 56.1594 183.845 56.3733 182.814 56.6316C183.82 52.0737 183.914 47.4991 183.098 42.9024ZM178.404 39.5971C178.715 39.5249 179.029 39.5138 179.345 39.5666C179.662 39.6166 179.956 39.7277 180.228 39.8971C180.501 40.0637 180.731 40.2804 180.917 40.5387C181.103 40.7998 181.234 41.0859 181.309 41.397C181.898 43.9189 182.192 46.4742 182.192 49.0629C182.192 51.6515 181.898 54.2068 181.309 56.7288C181.278 56.851 181.239 56.9732 181.189 57.0899C180.406 57.3343 179.665 57.5982 178.995 57.8843C178.77 57.7954 178.537 57.726 178.298 57.6815C177.862 57.601 177.401 57.5371 176.926 57.4815C176.554 56.9066 176.446 56.2872 176.604 55.6206C177.626 51.2488 177.626 46.877 176.604 42.5052C176.529 42.1941 176.518 41.8802 176.57 41.5636C176.623 41.247 176.732 40.9526 176.901 40.6804C177.07 40.4082 177.284 40.1776 177.545 39.9888C177.804 39.8027 178.09 39.6721 178.404 39.5971ZM178.031 59.1064C178.259 59.1508 178.473 59.223 178.679 59.3286C178.892 59.4369 179.106 59.4369 179.323 59.3314L179.434 59.273C183.728 57.4065 191.036 56.2539 196.124 57.8009C199.902 58.9481 202.785 61.5839 203.837 64.8531C204.051 65.4697 204.185 66.1057 204.24 66.7556C204.296 67.4056 204.273 68.0527 204.171 68.6971C204.068 69.3415 203.89 69.9665 203.635 70.5664C203.379 71.1663 203.054 71.7274 202.66 72.2496C201.374 73.9355 199.132 75.0243 196.505 75.2354C196.196 75.2604 195.891 75.2715 195.596 75.2715C194.277 75.2909 193.005 75.0632 191.775 74.5882C190.544 74.1161 189.447 73.43 188.48 72.5357C187.344 71.458 186.372 70.4359 185.434 69.4471C183.636 67.4778 181.703 65.653 179.637 63.9698C179.562 63.9087 179.476 63.8643 179.381 63.8393C179.29 63.8115 179.192 63.8032 179.098 63.8143C179.001 63.8254 178.909 63.8559 178.826 63.9031C178.74 63.9531 178.668 64.0142 178.609 64.092C177.087 66.089 175.709 68.1833 174.473 70.3692C173.779 71.5441 173.062 72.7606 172.199 74.0633C171.365 75.2798 170.321 76.2742 169.066 77.0463C167.81 77.8185 166.452 78.3018 164.988 78.4962C162.405 78.8795 159.93 78.3101 158.319 76.9741C157.817 76.5547 157.375 76.0798 156.992 75.552C156.609 75.0243 156.292 74.4577 156.047 73.8522C155.803 73.2467 155.636 72.6218 155.545 71.9746C155.453 71.3274 155.442 70.6803 155.509 70.0303C155.781 66.8556 157.711 63.8587 160.719 61.87C160.772 61.8506 160.828 61.8339 160.88 61.8089C161.214 61.6589 161.522 61.4673 161.802 61.2284C165.06 59.4841 169.557 58.7314 173.501 58.7314C175.023 58.7203 176.534 58.8453 178.031 59.1064ZM171.121 43.7884C171.124 43.7717 171.127 43.7578 171.129 43.7412C172.526 43.6467 173.921 43.5551 175.318 43.4579C176.151 47.4103 176.107 51.3516 175.19 55.2845C175.029 55.9733 175.054 56.6566 175.268 57.3315C174.387 57.2816 173.465 57.2732 172.521 57.3038C172.526 56.7399 172.415 56.2011 172.188 55.6873C171.349 53.818 170.84 51.8654 170.657 49.8267C170.474 47.788 170.629 45.7743 171.121 43.7884ZM165.024 42.258C165.102 41.9469 165.238 41.6636 165.43 41.4053C165.622 41.1498 165.855 40.9387 166.13 40.772C166.405 40.6081 166.699 40.5026 167.016 40.4554C167.335 40.4082 167.649 40.4248 167.96 40.5026C168.271 40.5804 168.555 40.7165 168.813 40.9081C169.068 41.097 169.28 41.3303 169.443 41.6053C169.61 41.8802 169.716 42.1774 169.763 42.4941C169.807 42.8107 169.793 43.1246 169.716 43.4356C169.182 45.5827 169.016 47.7547 169.213 49.9545C169.41 52.157 169.96 54.2652 170.863 56.2816C171.021 56.6316 171.088 56.9982 171.068 57.3815C169.485 57.4954 167.921 57.726 166.374 58.0731C165.283 55.5845 164.622 52.9847 164.391 50.2767C164.161 47.5686 164.372 44.8966 165.024 42.258ZM161.764 44.7994C161.802 44.6411 161.83 44.4828 161.85 44.3217L163.15 44.2439C162.786 46.6465 162.758 49.0546 163.063 51.4654C163.369 53.8763 163.999 56.1983 164.952 58.4342C164.311 58.6175 163.688 58.8286 163.083 59.0619C163.255 58.2481 163.172 57.4621 162.83 56.7011C161.994 54.8346 161.483 52.8792 161.3 50.8405C161.116 48.8018 161.272 46.7881 161.764 44.7994ZM155.67 43.269C155.734 43.0079 155.839 42.7635 155.986 42.5385C156.134 42.3135 156.311 42.1163 156.522 41.9525C156.736 41.7858 156.97 41.6608 157.222 41.5719C157.478 41.4831 157.739 41.4386 158.008 41.4386C158.208 41.4386 158.406 41.4636 158.603 41.5136C158.914 41.5914 159.197 41.7247 159.453 41.9163C159.711 42.108 159.922 42.3413 160.086 42.6163C160.253 42.8913 160.358 43.1884 160.405 43.5051C160.45 43.8217 160.436 44.1356 160.358 44.4467C159.828 46.5909 159.658 48.7657 159.855 50.9655C160.053 53.1681 160.603 55.2762 161.505 57.2927C161.611 57.5232 161.677 57.7648 161.705 58.0176C161.733 58.2703 161.722 58.5231 161.669 58.7703C161.616 59.0203 161.527 59.2536 161.4 59.473C161.272 59.6952 161.114 59.8896 160.922 60.0563C160.855 60.0952 160.783 60.1285 160.716 60.1674C160.503 60.2896 160.294 60.4201 160.086 60.5535C159.833 60.6451 159.572 60.6951 159.303 60.6979C158.825 60.6979 158.386 60.5673 157.986 60.309C157.586 60.0507 157.289 59.7035 157.092 59.2675C155.97 56.7538 155.284 54.1291 155.042 51.3877C154.798 48.6463 155.006 45.9382 155.667 43.269H155.67ZM153.875 44.7633C153.489 47.0075 153.4 49.2629 153.603 51.5321C153.809 53.7985 154.3 56.0039 155.081 58.1426C153.903 58.2009 152.728 58.262 151.551 58.3176C151.642 56.3122 151.728 54.3985 151.806 52.6625C151.815 52.4487 151.803 52.2376 151.77 52.0265C151.737 51.8154 151.684 51.6126 151.609 51.4127C151.537 51.2127 151.442 51.021 151.328 50.8405C151.217 50.66 151.087 50.4933 150.94 50.3378C150.795 50.185 150.634 50.0461 150.459 49.9239C150.287 49.8017 150.101 49.6962 149.906 49.6128C149.709 49.5267 149.509 49.4601 149.301 49.4156C149.093 49.3712 148.881 49.349 148.668 49.3462L147.212 49.3323C147.007 49.3323 146.801 49.349 146.598 49.3879C146.398 49.4267 146.201 49.4823 146.01 49.5601C145.818 49.6351 145.637 49.7295 145.462 49.8434C145.29 49.9545 145.129 50.0822 144.982 50.2239C144.835 50.3683 144.701 50.5239 144.582 50.6905C144.465 50.8599 144.365 51.0377 144.282 51.2266C144.199 51.4154 144.135 51.6099 144.087 51.8099C144.043 52.0098 144.018 52.2154 144.01 52.4209C143.962 54.1874 143.901 56.3205 143.829 58.662C116.437 59.7924 88.6844 59.9341 61.3093 59.0814C61.2287 56.5705 61.162 54.2874 61.112 52.4209C61.1065 52.2154 61.0815 52.0126 61.0343 51.8154C60.9898 51.6154 60.926 51.421 60.8454 51.2349C60.7621 51.0488 60.6621 50.8711 60.5454 50.7016C60.4288 50.535 60.2982 50.3794 60.151 50.235C60.0038 50.0933 59.8455 49.9656 59.6733 49.8545C59.5039 49.7406 59.3233 49.6462 59.1345 49.5712C58.9456 49.4934 58.7512 49.4351 58.5484 49.3934C58.3484 49.3545 58.1457 49.3351 57.9429 49.3323H57.9124L56.4542 49.3462C56.2431 49.349 56.032 49.3712 55.8237 49.4156C55.6153 49.4601 55.4126 49.5267 55.2182 49.6128C55.0237 49.6962 54.8376 49.8017 54.6627 49.9239C54.4905 50.0461 54.3294 50.185 54.1822 50.3378C54.0349 50.4933 53.9072 50.66 53.7933 50.8405C53.6822 51.021 53.5878 51.2127 53.5128 51.4127C53.4406 51.6126 53.385 51.8154 53.3517 52.0265C53.3183 52.2376 53.3072 52.4487 53.3183 52.6625C53.4017 54.5429 53.4961 56.6261 53.5961 58.8147C40.8279 58.3315 27.9124 57.6232 15.1803 56.7094L15.4942 44.1078C28.9012 45.0077 42.5305 45.6521 56.3764 46.0437C56.4208 46.0521 56.4653 46.0576 56.5097 46.0576L62.498 46.2132H62.5175C62.5647 46.2132 62.6119 46.2076 62.6591 46.1993C92.3202 46.8742 122.837 46.3993 153.875 44.7633ZM56.4097 26.2234C57.9679 26.3123 59.5344 26.3956 61.1065 26.4734C61.3842 34.5171 61.6731 42.2858 61.7648 44.7272C60.251 44.6911 58.7345 44.6605 57.2235 44.6189C57.1235 42.3246 56.7819 34.5754 56.4097 26.2234ZM62.5591 26.54C70.6584 26.9067 78.9742 27.09 87.5456 27.09C105.033 27.09 123.584 26.3234 143.496 24.7985C143.201 33.3227 142.888 41.7386 142.81 43.8439C115.776 45.0355 89.1677 45.3438 63.2174 44.7633C63.1285 42.4357 62.8397 34.642 62.5591 26.54ZM144.268 43.6245C144.362 41.1248 144.665 32.9394 144.951 24.6874C146.509 24.5652 148.082 24.4375 149.659 24.3041C149.273 32.9644 148.912 41.1525 148.809 43.5079L144.268 43.6245ZM21.9019 21.485C17.9606 20.8406 14.1304 19.799 10.4058 18.363C9.55584 17.8909 5.22014 12.3275 3.12312 9.33889C4.46188 10.1194 5.85619 10.9415 7.21995 11.747C9.1281 12.8774 11.1029 14.044 12.9 15.0745C12.9777 15.1189 13.0611 15.1495 13.1499 15.1633C39.578 19.2741 66.1671 21.3294 92.9118 21.3266C114.113 21.3239 135.233 20.0379 156.275 17.4742L156.1 16.0327C132.394 18.9352 108.602 20.1934 84.7237 19.8101C60.8454 19.4296 37.106 17.4076 13.5055 13.7496C11.7473 12.7413 9.82248 11.6026 7.95877 10.4999C7.18107 10.0416 6.39225 9.57498 5.61177 9.11391C32.0454 13.1691 58.6317 15.3967 85.3708 15.7994C112.113 16.1994 138.755 14.7717 165.299 11.5137L166.571 21.2933C109.399 27.0289 63.2674 27.0816 21.9019 21.485ZM168.016 21.1489L166.738 11.3359C168.244 11.1471 169.749 10.9526 171.254 10.7526L172.41 20.6906C170.94 20.8461 169.474 21.0017 168.016 21.1489ZM174.623 25.2013C174.546 25.2013 174.471 25.2013 174.396 25.2013L172.035 4.9282L174.037 4.51991C174.39 7.8807 174.779 11.372 175.157 14.7578C175.537 18.1825 175.929 21.7183 176.287 25.1124C175.734 25.1846 175.179 25.2124 174.623 25.2013ZM177.312 21.085C177.076 18.9185 176.834 16.7382 176.595 14.5967C176.426 13.0691 176.254 11.5192 176.084 9.97217L178.026 9.75274C178.468 13.1774 178.82 17.5687 179.037 20.2629L179.09 20.9017L177.312 21.085ZM210.29 17.6409C200.59 18.6602 190.594 19.7101 180.531 20.7517L180.484 20.1462C180.39 18.9796 180.27 17.4909 180.128 15.9022L181.989 18.7491C182.134 18.9685 182.334 19.0796 182.595 19.0796C182.631 19.0769 182.667 19.0769 182.703 19.0713C182.845 19.0491 182.967 18.9935 183.075 18.8991C183.181 18.8047 183.253 18.6908 183.295 18.5547C183.612 17.4492 183.959 16.2521 184.309 15.055C184.364 14.8661 184.345 14.6884 184.256 14.5162L182.362 10.8999C182.295 10.7721 182.198 10.6721 182.07 10.5999C181.945 10.5304 181.809 10.5027 181.664 10.5138C181.52 10.5249 181.389 10.5749 181.276 10.6638C181.159 10.7526 181.078 10.8665 181.034 11.0026L179.97 14.1579C179.82 12.5969 179.654 11.0137 179.47 9.59165L241.534 2.61453L243.014 14.2245C231.951 15.3633 220.944 16.5243 210.29 17.6409ZM181.231 14.9411L181.864 13.0746L182.834 14.9273C182.667 15.5022 182.5 16.0744 182.337 16.6326L181.231 14.9411ZM243.981 10.3416L243.467 6.33085C243.825 6.12531 244.197 6.09198 244.586 6.23086C244.936 6.37251 245.236 6.58638 245.481 6.87524C245.725 7.16132 245.889 7.49185 245.972 7.86126C246.064 8.19456 246.078 8.53064 246.011 8.86949C245.944 9.20835 245.806 9.51665 245.594 9.79163C245.142 10.2249 244.606 10.411 243.981 10.3444V10.3416ZM244.445 13.9996L244.167 11.7998C244.639 11.8137 245.095 11.7276 245.531 11.547C245.969 11.3665 246.35 11.1026 246.675 10.7582C247.039 10.311 247.286 9.80829 247.411 9.24446C247.539 8.68062 247.533 8.11956 247.392 7.56128C247.258 6.9419 246.983 6.39195 246.569 5.91422C246.153 5.43371 245.65 5.08097 245.058 4.85876C244.467 4.65045 243.872 4.64212 243.278 4.83654L242.97 2.42011C243.906 2.34234 244.75 2.5812 245.508 3.13393C246.217 3.68665 246.792 4.35881 247.228 5.14763C247.664 5.93366 247.928 6.77525 248.022 7.67239C248.311 10.1944 247.514 13.2413 244.447 13.9996H244.445Z" fill="white" stroke="white"/>
</g>
<path d="M187.284 10.1463C187.217 10.0185 187.12 9.9185 186.992 9.84629C186.867 9.77685 186.731 9.74908 186.586 9.76019C186.439 9.7713 186.311 9.82129 186.198 9.91017C186.081 9.99905 186 10.1129 185.956 10.249L184.667 14.057C184.592 14.2792 184.62 14.4903 184.748 14.6847L186.911 17.9955C187.056 18.2149 187.259 18.3233 187.52 18.3233C187.556 18.3233 187.592 18.3205 187.628 18.3149C187.767 18.2955 187.892 18.2372 187.997 18.1427C188.106 18.0511 188.178 17.9344 188.217 17.7983C188.533 16.6956 188.883 15.4985 189.231 14.2986C189.286 14.1125 189.269 13.932 189.178 13.7598L187.284 10.1463ZM187.259 15.879L186.153 14.1875L186.786 12.3211L187.756 14.1737C187.589 14.7486 187.422 15.3208 187.259 15.879Z" fill="white" stroke="white"/>
<path d="M197.583 9.3883C197.514 9.26054 197.417 9.16055 197.292 9.09111C197.164 9.02167 197.028 8.99112 196.883 9.00223C196.739 9.01334 196.608 9.06333 196.494 9.15221C196.381 9.24109 196.3 9.35497 196.253 9.49385L194.967 13.3018C194.892 13.524 194.917 13.7323 195.045 13.9295L197.208 17.2403C197.353 17.457 197.555 17.5681 197.817 17.5681C197.853 17.5681 197.889 17.5653 197.925 17.5597C198.064 17.5375 198.189 17.482 198.294 17.3875C198.4 17.2931 198.475 17.1792 198.514 17.0431C198.83 15.9405 199.18 14.7406 199.528 13.5435C199.583 13.3574 199.564 13.1768 199.475 13.0046L197.583 9.3883ZM197.561 15.1239L196.453 13.4324L197.086 11.5631L198.055 13.4185C197.889 13.9906 197.719 14.5628 197.561 15.1239Z" fill="white" stroke="white"/>
<path d="M192.661 10.1463C192.595 10.0185 192.498 9.9185 192.37 9.84629C192.242 9.77685 192.106 9.74908 191.961 9.76019C191.817 9.7713 191.686 9.82129 191.573 9.91017C191.459 9.99905 191.378 10.1129 191.331 10.249L190.045 14.057C189.97 14.2792 189.995 14.4903 190.123 14.6847L192.286 17.9955C192.431 18.2149 192.634 18.3233 192.895 18.3233C192.931 18.3233 192.967 18.3205 193.003 18.3149C193.142 18.2955 193.267 18.2372 193.372 18.1427C193.478 18.0511 193.553 17.9344 193.592 17.7983C193.908 16.6956 194.258 15.4985 194.606 14.2986C194.661 14.1125 194.642 13.932 194.553 13.7598L192.661 10.1463ZM192.636 15.879L191.531 14.1875L192.161 12.3211L193.134 14.1737C192.967 14.7486 192.8 15.3208 192.636 15.879Z" fill="white" stroke="white"/>
<path d="M207.271 7.93531C207.201 7.80755 207.107 7.70756 206.979 7.63812C206.851 7.5659 206.715 7.53813 206.571 7.54924C206.426 7.56035 206.296 7.61035 206.182 7.69923C206.068 7.78811 205.987 7.90198 205.94 8.03808L204.654 11.8461C204.579 12.0683 204.604 12.2793 204.735 12.4765L206.896 15.7846C207.04 16.004 207.243 16.1123 207.504 16.1151C207.54 16.1123 207.576 16.1123 207.612 16.1068C207.751 16.0845 207.876 16.0262 207.982 15.9346C208.09 15.8401 208.162 15.7262 208.201 15.5901C208.496 14.5597 208.82 13.4515 209.145 12.3349L209.218 12.0905C209.27 11.9044 209.254 11.7238 209.165 11.5516L207.271 7.93531ZM207.246 13.6709L206.14 11.9794L206.771 10.1101L207.743 11.9655C207.576 12.5377 207.409 13.1098 207.246 13.6709Z" fill="white" stroke="white"/>
<path d="M202.349 8.69299C202.282 8.56522 202.185 8.46523 202.057 8.3958C201.929 8.32636 201.793 8.29581 201.649 8.30692C201.504 8.31803 201.374 8.36802 201.26 8.4569C201.146 8.54856 201.066 8.65966 201.018 8.79854L199.732 12.6093C199.657 12.8315 199.682 13.0398 199.813 13.237L201.974 16.5478C202.118 16.7672 202.321 16.8755 202.582 16.8755C202.618 16.8755 202.654 16.8728 202.69 16.8672C202.829 16.8478 202.954 16.7894 203.06 16.695C203.165 16.6033 203.24 16.4867 203.279 16.3506C203.568 15.3368 203.89 14.2397 204.212 13.1398L204.296 12.8509C204.349 12.6648 204.332 12.4843 204.243 12.3121L202.349 8.69299ZM202.818 12.7287C202.651 13.3009 202.488 13.8703 202.324 14.4286L201.218 12.7371L201.849 10.8678L202.821 12.7232L202.818 12.7287Z" fill="white" stroke="white"/>
<path d="M217.567 7.18518C217.5 7.05741 217.403 6.95742 217.278 6.88798C217.15 6.81855 217.014 6.78799 216.87 6.7991C216.725 6.81021 216.595 6.86299 216.481 6.95187C216.367 7.04075 216.286 7.15463 216.239 7.29072L214.95 11.0987C214.875 11.3209 214.903 11.5292 215.031 11.7264L217.195 15.0372C217.336 15.2566 217.539 15.365 217.8 15.365C217.836 15.365 217.875 15.3622 217.911 15.3566C218.05 15.3372 218.172 15.2789 218.281 15.1844C218.386 15.0928 218.458 14.9761 218.5 14.84C218.786 13.8429 219.097 12.768 219.414 11.6875L219.514 11.3403C219.569 11.1542 219.553 10.9737 219.461 10.8015L217.567 7.18518ZM218.022 11.282C217.861 11.832 217.7 12.3819 217.545 12.9207L216.439 11.2292L217.07 9.35997L218.042 11.2154L218.022 11.282Z" fill="white" stroke="white"/>
<path d="M212.645 7.93531C212.578 7.80755 212.481 7.70756 212.353 7.63812C212.228 7.5659 212.092 7.53813 211.948 7.54924C211.803 7.56035 211.673 7.61035 211.559 7.69923C211.445 7.78811 211.365 7.90198 211.317 8.03808L210.031 11.8461C209.956 12.0683 209.984 12.2793 210.112 12.4765L212.276 15.7846C212.417 16.004 212.62 16.1123 212.881 16.1151C212.917 16.1123 212.953 16.1123 212.989 16.1068C213.131 16.0845 213.253 16.0262 213.362 15.9346C213.467 15.8401 213.539 15.7262 213.578 15.5901C213.864 14.5958 214.178 13.5237 214.492 12.4432L214.595 12.0905C214.65 11.9044 214.631 11.7238 214.542 11.5516L212.645 7.93531ZM213.098 12.0377C212.937 12.5876 212.778 13.1348 212.623 13.6709L211.517 11.9794L212.148 10.1101L213.12 11.9655L213.098 12.0377Z" fill="white" stroke="white"/>
<path d="M227.411 5.83376C227.344 5.70599 227.247 5.606 227.119 5.53379C226.994 5.46435 226.858 5.43657 226.713 5.44769C226.569 5.45879 226.438 5.50879 226.325 5.59767C226.208 5.68655 226.13 5.80043 226.083 5.93653L224.794 9.7445C224.719 9.9667 224.747 10.1778 224.875 10.375L227.038 13.683C227.18 13.9024 227.383 14.0135 227.644 14.0135C227.68 14.0135 227.716 14.0108 227.752 14.0052C227.894 13.983 228.016 13.9274 228.124 13.833C228.23 13.7386 228.302 13.6247 228.341 13.4886C228.644 12.4359 228.977 11.2944 229.31 10.1528L229.358 9.98892C229.413 9.80283 229.394 9.62229 229.305 9.45008L227.411 5.83376ZM227.386 11.5693L226.28 9.87504L226.911 8.00855L227.883 9.86393C227.716 10.4361 227.549 11.0083 227.386 11.5693Z" fill="white" stroke="white"/>
<path d="M222.489 6.58362C222.422 6.45585 222.325 6.35586 222.197 6.28642C222.072 6.21698 221.936 6.18643 221.792 6.19754C221.647 6.20865 221.517 6.25865 221.403 6.3503C221.289 6.43918 221.208 6.55028 221.161 6.68916L219.875 10.4971C219.798 10.7193 219.825 10.9276 219.953 11.1249L222.117 14.4356C222.258 14.6551 222.461 14.7634 222.725 14.7634C222.761 14.7634 222.797 14.7606 222.833 14.7551C222.972 14.7356 223.097 14.6773 223.203 14.5856C223.311 14.4912 223.383 14.3745 223.422 14.2384C223.719 13.208 224.042 12.097 224.369 10.9776L224.439 10.7388C224.494 10.5527 224.475 10.3749 224.386 10.1999L222.489 6.58362ZM222.467 12.3192L221.361 10.6277L221.992 8.75841L222.964 10.6138C222.794 11.1887 222.628 11.7609 222.467 12.3192Z" fill="white" stroke="white"/>
<path d="M237.709 5.0758C237.643 4.94804 237.545 4.84805 237.418 4.77861C237.29 4.70917 237.154 4.67862 237.009 4.68973C236.865 4.70084 236.737 4.75083 236.621 4.83971C236.507 4.93137 236.426 5.04247 236.379 5.18135L235.093 8.98932C235.018 9.21152 235.046 9.41983 235.173 9.61704L237.337 12.9278C237.479 13.1445 237.682 13.2556 237.943 13.2556C237.979 13.2556 238.015 13.2528 238.051 13.2472C238.193 13.225 238.315 13.1695 238.42 13.075C238.529 12.9806 238.601 12.8667 238.64 12.7306C238.951 11.6502 239.293 10.4753 239.637 9.3004L239.656 9.23096C239.712 9.04487 239.692 8.86433 239.604 8.69213L237.709 5.0758ZM237.684 10.8114L236.579 9.11986L237.212 7.2506L238.182 9.10598C238.015 9.68092 237.848 10.2503 237.684 10.8114Z" fill="white" stroke="white"/>
<path d="M232.787 5.83376C232.721 5.70599 232.624 5.606 232.496 5.53379C232.368 5.46435 232.232 5.43657 232.088 5.44769C231.943 5.45879 231.815 5.50879 231.699 5.59767C231.585 5.68655 231.504 5.80043 231.457 5.93653L230.171 9.7445C230.096 9.9667 230.124 10.1778 230.252 10.375L232.413 13.683C232.557 13.9024 232.76 14.0135 233.021 14.0135C233.057 14.0135 233.093 14.0108 233.129 14.0052C233.271 13.983 233.393 13.9274 233.501 13.833C233.607 13.7386 233.679 13.6247 233.718 13.4886C234.01 12.472 234.329 11.3777 234.651 10.275L234.735 9.98892C234.79 9.80283 234.771 9.62229 234.682 9.45008L232.787 5.83376ZM233.26 9.86949C233.093 10.4417 232.926 11.011 232.762 11.5665L231.657 9.87504L232.29 8.00855L233.26 9.86393V9.86949Z" fill="white" stroke="white"/>
</svg>
