<svg width="28" height="29" viewBox="0 0 28 29" fill="none" xmlns="http://www.w3.org/2000/svg">
<path d="M16.0025 2.25815C16.8139 1.44144 17.3359 0.929084 18.5513 0.861976C19.5585 0.796525 20.3726 1.25166 21.0783 1.92923C21.9439 2.76036 22.7841 3.62248 23.6291 4.47459L26.0532 6.8809C26.9313 7.74448 27.5901 8.41848 27.6093 9.73513C27.6277 10.9956 26.9972 11.5849 26.1895 12.4201C26 12.2539 25.8242 12.0682 25.6448 11.8909L17.372 3.65133C16.9143 3.19247 16.4368 2.7387 16.0025 2.25815Z" fill="white"/>
<path d="M2.53759 15.6851C2.92532 15.3236 3.29572 14.9449 3.67316 14.5727L14.0791 4.14172C14.3892 3.82659 14.946 3.34066 15.1804 3.00366C15.3938 3.19238 15.5873 3.40037 15.788 3.60225L23.5702 11.3695C24.2124 12.0118 24.8857 12.6281 25.5056 13.2919C24.4728 14.2891 23.4676 15.3104 22.4504 16.3231L14.6095 24.15C14.0186 24.7441 13.4349 25.3445 12.82 25.9141L12.779 25.9377C12.6298 25.8664 12.0104 25.182 11.8496 25.0221L4.5205 17.713C3.96392 17.1575 2.97074 16.3034 2.53759 15.6851Z" fill="white"/>
<path d="M10.3871 27.907C8.49807 28.6515 7.33831 27.5123 6.16068 26.3274L2.3138 22.4965C1.19954 21.3821 0.164294 20.5433 0.433926 18.7641C0.555987 17.9586 1.17369 17.0741 1.83382 16.5838C1.90709 16.6171 3.62368 18.3564 3.84597 18.5773L9.58632 24.2978C10.1863 24.9009 11.5731 26.1094 11.9842 26.7463C11.592 27.2234 10.9461 27.6707 10.3871 27.907Z" fill="white"/>
</svg>
