<svg width="61" height="264" viewBox="0 0 61 264" fill="none" xmlns="http://www.w3.org/2000/svg">
<path d="M41.3088 22.8125H19.0764V62.9829H41.3088V22.8125Z" stroke="black" stroke-width="1.47577" stroke-linecap="round" stroke-linejoin="round"/>
<path d="M58.3907 207.925H2.52551V262.507H58.3907V207.925Z" stroke="black" stroke-width="1.47577" stroke-linecap="round" stroke-linejoin="round"/>
<path d="M49.8387 78.353H11.0924V192.371H49.8387V78.353Z" stroke="black" stroke-width="1.47577" stroke-linecap="round" stroke-linejoin="round"/>
<path d="M50.0452 192.364H10.8784L2.52551 207.925H58.398L50.0452 192.364Z" stroke="black" stroke-width="1.47577" stroke-linecap="round" stroke-linejoin="round"/>
<path d="M55.0628 212.655H10.7013V216.433H55.0628V212.655Z" stroke="black" stroke-width="1.47577" stroke-linecap="round" stroke-linejoin="round"/>
<path d="M16.6044 212.655H15.682V216.433H16.6044V212.655Z" stroke="black" stroke-width="1.47577" stroke-linecap="round" stroke-linejoin="round"/>
<path d="M22.2197 212.655H21.3047V216.433H22.2197V212.655Z" stroke="black" stroke-width="1.47577" stroke-linecap="round" stroke-linejoin="round"/>
<path d="M27.8423 212.655H26.9274V216.433H27.8423V212.655Z" stroke="black" stroke-width="1.47577" stroke-linecap="round" stroke-linejoin="round"/>
<path d="M33.4576 212.655H32.5426V216.433H33.4576V212.655Z" stroke="black" stroke-width="1.47577" stroke-linecap="round" stroke-linejoin="round"/>
<path d="M39.0803 212.655H38.1653V216.433H39.0803V212.655Z" stroke="black" stroke-width="1.47577" stroke-linecap="round" stroke-linejoin="round"/>
<path d="M44.6956 212.655H43.7806V216.433H44.6956V212.655Z" stroke="black" stroke-width="1.47577" stroke-linecap="round" stroke-linejoin="round"/>
<path d="M50.3183 212.655H49.4033V216.433H50.3183V212.655Z" stroke="black" stroke-width="1.47577" stroke-linecap="round" stroke-linejoin="round"/>
<path d="M55.0628 221.775H10.7013V225.553H55.0628V221.775Z" stroke="black" stroke-width="1.47577" stroke-linecap="round" stroke-linejoin="round"/>
<path d="M16.6044 221.775H15.682V225.553H16.6044V221.775Z" stroke="black" stroke-width="1.47577" stroke-linecap="round" stroke-linejoin="round"/>
<path d="M22.2197 221.775H21.3047V225.553H22.2197V221.775Z" stroke="black" stroke-width="1.47577" stroke-linecap="round" stroke-linejoin="round"/>
<path d="M27.8423 221.775H26.9274V225.553H27.8423V221.775Z" stroke="black" stroke-width="1.47577" stroke-linecap="round" stroke-linejoin="round"/>
<path d="M33.4576 221.775H32.5426V225.553H33.4576V221.775Z" stroke="black" stroke-width="1.47577" stroke-linecap="round" stroke-linejoin="round"/>
<path d="M39.0803 221.775H38.1653V225.553H39.0803V221.775Z" stroke="black" stroke-width="1.47577" stroke-linecap="round" stroke-linejoin="round"/>
<path d="M44.6956 221.775H43.7806V225.553H44.6956V221.775Z" stroke="black" stroke-width="1.47577" stroke-linecap="round" stroke-linejoin="round"/>
<path d="M50.3183 221.775H49.4033V225.553H50.3183V221.775Z" stroke="black" stroke-width="1.47577" stroke-linecap="round" stroke-linejoin="round"/>
<path d="M55.0628 230.903H10.7013V234.681H55.0628V230.903Z" stroke="black" stroke-width="1.47577" stroke-linecap="round" stroke-linejoin="round"/>
<path d="M16.6044 230.903H15.682V234.681H16.6044V230.903Z" stroke="black" stroke-width="1.47577" stroke-linecap="round" stroke-linejoin="round"/>
<path d="M22.2197 230.903H21.3047V234.681H22.2197V230.903Z" stroke="black" stroke-width="1.47577" stroke-linecap="round" stroke-linejoin="round"/>
<path d="M27.8423 230.903H26.9274V234.681H27.8423V230.903Z" stroke="black" stroke-width="1.47577" stroke-linecap="round" stroke-linejoin="round"/>
<path d="M33.4576 230.903H32.5426V234.681H33.4576V230.903Z" stroke="black" stroke-width="1.47577" stroke-linecap="round" stroke-linejoin="round"/>
<path d="M39.0803 230.903H38.1653V234.681H39.0803V230.903Z" stroke="black" stroke-width="1.47577" stroke-linecap="round" stroke-linejoin="round"/>
<path d="M44.6956 230.903H43.7806V234.681H44.6956V230.903Z" stroke="black" stroke-width="1.47577" stroke-linecap="round" stroke-linejoin="round"/>
<path d="M50.3183 230.903H49.4033V234.681H50.3183V230.903Z" stroke="black" stroke-width="1.47577" stroke-linecap="round" stroke-linejoin="round"/>
<path d="M55.0628 240.023H10.7013V243.801H55.0628V240.023Z" stroke="black" stroke-width="1.47577" stroke-linecap="round" stroke-linejoin="round"/>
<path d="M16.6044 240.023H15.682V243.801H16.6044V240.023Z" stroke="black" stroke-width="1.47577" stroke-linecap="round" stroke-linejoin="round"/>
<path d="M22.2197 240.023H21.3047V243.801H22.2197V240.023Z" stroke="black" stroke-width="1.47577" stroke-linecap="round" stroke-linejoin="round"/>
<path d="M27.8423 240.023H26.9274V243.801H27.8423V240.023Z" stroke="black" stroke-width="1.47577" stroke-linecap="round" stroke-linejoin="round"/>
<path d="M33.4576 240.023H32.5426V243.801H33.4576V240.023Z" stroke="black" stroke-width="1.47577" stroke-linecap="round" stroke-linejoin="round"/>
<path d="M39.0803 240.023H38.1653V243.801H39.0803V240.023Z" stroke="black" stroke-width="1.47577" stroke-linecap="round" stroke-linejoin="round"/>
<path d="M44.6956 240.023H43.7806V243.801H44.6956V240.023Z" stroke="black" stroke-width="1.47577" stroke-linecap="round" stroke-linejoin="round"/>
<path d="M50.3183 240.023H49.4033V243.801H50.3183V240.023Z" stroke="black" stroke-width="1.47577" stroke-linecap="round" stroke-linejoin="round"/>
<path d="M55.0628 249.151H10.7013V252.929H55.0628V249.151Z" stroke="black" stroke-width="1.47577" stroke-linecap="round" stroke-linejoin="round"/>
<path d="M16.6044 249.151H15.682V252.929H16.6044V249.151Z" stroke="black" stroke-width="1.47577" stroke-linecap="round" stroke-linejoin="round"/>
<path d="M22.2197 249.151H21.3047V252.929H22.2197V249.151Z" stroke="black" stroke-width="1.47577" stroke-linecap="round" stroke-linejoin="round"/>
<path d="M27.8423 249.151H26.9274V252.929H27.8423V249.151Z" stroke="black" stroke-width="1.47577" stroke-linecap="round" stroke-linejoin="round"/>
<path d="M33.4576 249.151H32.5426V252.929H33.4576V249.151Z" stroke="black" stroke-width="1.47577" stroke-linecap="round" stroke-linejoin="round"/>
<path d="M39.0803 249.151H38.1653V252.929H39.0803V249.151Z" stroke="black" stroke-width="1.47577" stroke-linecap="round" stroke-linejoin="round"/>
<path d="M44.6956 249.151H43.7806V252.929H44.6956V249.151Z" stroke="black" stroke-width="1.47577" stroke-linecap="round" stroke-linejoin="round"/>
<path d="M50.3183 249.151H49.4033V252.929H50.3183V249.151Z" stroke="black" stroke-width="1.47577" stroke-linecap="round" stroke-linejoin="round"/>
<path d="M39.5452 55.6262H26.2264V59.4042H39.5452V55.6262Z" stroke="black" stroke-width="1.47577" stroke-linecap="round" stroke-linejoin="round"/>
<path d="M30.8972 55.6262H29.9822V59.4042H30.8972V55.6262Z" stroke="black" stroke-width="1.47577" stroke-linecap="round" stroke-linejoin="round"/>
<path d="M35.3688 55.6262H34.4539V59.4042H35.3688V55.6262Z" stroke="black" stroke-width="1.47577" stroke-linecap="round" stroke-linejoin="round"/>
<path d="M39.5452 48.1589H26.2264V51.9369H39.5452V48.1589Z" stroke="black" stroke-width="1.47577" stroke-linecap="round" stroke-linejoin="round"/>
<path d="M30.8972 48.1589H29.9822V51.9369H30.8972V48.1589Z" stroke="black" stroke-width="1.47577" stroke-linecap="round" stroke-linejoin="round"/>
<path d="M35.3688 48.1589H34.4539V51.9369H35.3688V48.1589Z" stroke="black" stroke-width="1.47577" stroke-linecap="round" stroke-linejoin="round"/>
<path d="M39.5452 40.6987H26.2264V44.4767H39.5452V40.6987Z" stroke="black" stroke-width="1.47577" stroke-linecap="round" stroke-linejoin="round"/>
<path d="M30.8972 40.6987H29.9822V44.4767H30.8972V40.6987Z" stroke="black" stroke-width="1.47577" stroke-linecap="round" stroke-linejoin="round"/>
<path d="M35.3688 40.6987H34.4539V44.4767H35.3688V40.6987Z" stroke="black" stroke-width="1.47577" stroke-linecap="round" stroke-linejoin="round"/>
<path d="M39.5452 33.2314H26.2264V37.0094H39.5452V33.2314Z" stroke="black" stroke-width="1.47577" stroke-linecap="round" stroke-linejoin="round"/>
<path d="M30.8972 33.2314H29.9822V37.0094H30.8972V33.2314Z" stroke="black" stroke-width="1.47577" stroke-linecap="round" stroke-linejoin="round"/>
<path d="M35.3688 33.2314H34.4539V37.0094H35.3688V33.2314Z" stroke="black" stroke-width="1.47577" stroke-linecap="round" stroke-linejoin="round"/>
<path d="M39.5452 25.8379H26.2264V29.6159H39.5452V25.8379Z" stroke="black" stroke-width="1.47577" stroke-linecap="round" stroke-linejoin="round"/>
<path d="M30.8972 25.8379H29.9822V29.6159H30.8972V25.8379Z" stroke="black" stroke-width="1.47577" stroke-linecap="round" stroke-linejoin="round"/>
<path d="M35.3688 25.8379H34.4539V29.6159H35.3688V25.8379Z" stroke="black" stroke-width="1.47577" stroke-linecap="round" stroke-linejoin="round"/>
<path d="M46.319 84.2266H20.0798V88.0045H46.319V84.2266Z" stroke="black" stroke-width="1.47577" stroke-linecap="round" stroke-linejoin="round"/>
<path d="M25.5696 84.2266H24.6547V88.0045H25.5696V84.2266Z" stroke="black" stroke-width="1.47577" stroke-linecap="round" stroke-linejoin="round"/>
<path d="M31.2587 84.2266H30.3438V88.0045H31.2587V84.2266Z" stroke="black" stroke-width="1.47577" stroke-linecap="round" stroke-linejoin="round"/>
<path d="M36.9478 84.2266H36.0328V88.0045H36.9478V84.2266Z" stroke="black" stroke-width="1.47577" stroke-linecap="round" stroke-linejoin="round"/>
<path d="M42.6295 84.2266H41.7145V88.0045H42.6295V84.2266Z" stroke="black" stroke-width="1.47577" stroke-linecap="round" stroke-linejoin="round"/>
<path d="M46.319 93.856H20.0798V97.6339H46.319V93.856Z" stroke="black" stroke-width="1.47577" stroke-linecap="round" stroke-linejoin="round"/>
<path d="M25.5696 93.8562H24.6547V97.6342H25.5696V93.8562Z" stroke="black" stroke-width="1.47577" stroke-linecap="round" stroke-linejoin="round"/>
<path d="M31.2587 93.8562H30.3438V97.6342H31.2587V93.8562Z" stroke="black" stroke-width="1.47577" stroke-linecap="round" stroke-linejoin="round"/>
<path d="M36.9478 93.8562H36.0328V97.6342H36.9478V93.8562Z" stroke="black" stroke-width="1.47577" stroke-linecap="round" stroke-linejoin="round"/>
<path d="M42.6295 93.8562H41.7145V97.6342H42.6295V93.8562Z" stroke="black" stroke-width="1.47577" stroke-linecap="round" stroke-linejoin="round"/>
<path d="M46.319 103.485H20.0798V107.263H46.319V103.485Z" stroke="black" stroke-width="1.47577" stroke-linecap="round" stroke-linejoin="round"/>
<path d="M25.5696 103.485H24.6547V107.263H25.5696V103.485Z" stroke="black" stroke-width="1.47577" stroke-linecap="round" stroke-linejoin="round"/>
<path d="M31.2587 103.485H30.3438V107.263H31.2587V103.485Z" stroke="black" stroke-width="1.47577" stroke-linecap="round" stroke-linejoin="round"/>
<path d="M36.9478 103.485H36.0328V107.263H36.9478V103.485Z" stroke="black" stroke-width="1.47577" stroke-linecap="round" stroke-linejoin="round"/>
<path d="M42.6295 103.485H41.7145V107.263H42.6295V103.485Z" stroke="black" stroke-width="1.47577" stroke-linecap="round" stroke-linejoin="round"/>
<path d="M46.319 113.115H20.0798V116.893H46.319V113.115Z" stroke="black" stroke-width="1.47577" stroke-linecap="round" stroke-linejoin="round"/>
<path d="M25.5696 113.115H24.6547V116.893H25.5696V113.115Z" stroke="black" stroke-width="1.47577" stroke-linecap="round" stroke-linejoin="round"/>
<path d="M31.2587 113.115H30.3438V116.893H31.2587V113.115Z" stroke="black" stroke-width="1.47577" stroke-linecap="round" stroke-linejoin="round"/>
<path d="M36.9478 113.115H36.0328V116.893H36.9478V113.115Z" stroke="black" stroke-width="1.47577" stroke-linecap="round" stroke-linejoin="round"/>
<path d="M42.6295 113.115H41.7145V116.893H42.6295V113.115Z" stroke="black" stroke-width="1.47577" stroke-linecap="round" stroke-linejoin="round"/>
<path d="M46.319 122.751H20.0798V126.529H46.319V122.751Z" stroke="black" stroke-width="1.47577" stroke-linecap="round" stroke-linejoin="round"/>
<path d="M25.5696 122.751H24.6547V126.529H25.5696V122.751Z" stroke="black" stroke-width="1.47577" stroke-linecap="round" stroke-linejoin="round"/>
<path d="M31.2587 122.751H30.3438V126.529H31.2587V122.751Z" stroke="black" stroke-width="1.47577" stroke-linecap="round" stroke-linejoin="round"/>
<path d="M36.9478 122.751H36.0328V126.529H36.9478V122.751Z" stroke="black" stroke-width="1.47577" stroke-linecap="round" stroke-linejoin="round"/>
<path d="M42.6295 122.751H41.7145V126.529H42.6295V122.751Z" stroke="black" stroke-width="1.47577" stroke-linecap="round" stroke-linejoin="round"/>
<path d="M46.319 132.381H20.0798V136.159H46.319V132.381Z" stroke="black" stroke-width="1.47577" stroke-linecap="round" stroke-linejoin="round"/>
<path d="M25.5696 132.381H24.6547V136.159H25.5696V132.381Z" stroke="black" stroke-width="1.47577" stroke-linecap="round" stroke-linejoin="round"/>
<path d="M31.2587 132.381H30.3438V136.159H31.2587V132.381Z" stroke="black" stroke-width="1.47577" stroke-linecap="round" stroke-linejoin="round"/>
<path d="M36.9478 132.381H36.0328V136.159H36.9478V132.381Z" stroke="black" stroke-width="1.47577" stroke-linecap="round" stroke-linejoin="round"/>
<path d="M42.6295 132.381H41.7145V136.159H42.6295V132.381Z" stroke="black" stroke-width="1.47577" stroke-linecap="round" stroke-linejoin="round"/>
<path d="M46.319 142.01H20.0798V145.788H46.319V142.01Z" stroke="black" stroke-width="1.47577" stroke-linecap="round" stroke-linejoin="round"/>
<path d="M25.5696 142.01H24.6547V145.788H25.5696V142.01Z" stroke="black" stroke-width="1.47577" stroke-linecap="round" stroke-linejoin="round"/>
<path d="M31.2587 142.01H30.3438V145.788H31.2587V142.01Z" stroke="black" stroke-width="1.47577" stroke-linecap="round" stroke-linejoin="round"/>
<path d="M36.9478 142.01H36.0328V145.788H36.9478V142.01Z" stroke="black" stroke-width="1.47577" stroke-linecap="round" stroke-linejoin="round"/>
<path d="M42.6295 142.01H41.7145V145.788H42.6295V142.01Z" stroke="black" stroke-width="1.47577" stroke-linecap="round" stroke-linejoin="round"/>
<path d="M46.319 151.647H20.0798V155.425H46.319V151.647Z" stroke="black" stroke-width="1.47577" stroke-linecap="round" stroke-linejoin="round"/>
<path d="M25.5696 151.647H24.6547V155.425H25.5696V151.647Z" stroke="black" stroke-width="1.47577" stroke-linecap="round" stroke-linejoin="round"/>
<path d="M31.2587 151.647H30.3438V155.425H31.2587V151.647Z" stroke="black" stroke-width="1.47577" stroke-linecap="round" stroke-linejoin="round"/>
<path d="M36.9478 151.647H36.0328V155.425H36.9478V151.647Z" stroke="black" stroke-width="1.47577" stroke-linecap="round" stroke-linejoin="round"/>
<path d="M42.6295 151.647H41.7145V155.425H42.6295V151.647Z" stroke="black" stroke-width="1.47577" stroke-linecap="round" stroke-linejoin="round"/>
<path d="M46.319 161.277H20.0798V165.055H46.319V161.277Z" stroke="black" stroke-width="1.47577" stroke-linecap="round" stroke-linejoin="round"/>
<path d="M25.5696 161.277H24.6547V165.055H25.5696V161.277Z" stroke="black" stroke-width="1.47577" stroke-linecap="round" stroke-linejoin="round"/>
<path d="M31.2587 161.277H30.3438V165.055H31.2587V161.277Z" stroke="black" stroke-width="1.47577" stroke-linecap="round" stroke-linejoin="round"/>
<path d="M36.9478 161.277H36.0328V165.055H36.9478V161.277Z" stroke="black" stroke-width="1.47577" stroke-linecap="round" stroke-linejoin="round"/>
<path d="M42.6295 161.277H41.7145V165.055H42.6295V161.277Z" stroke="black" stroke-width="1.47577" stroke-linecap="round" stroke-linejoin="round"/>
<path d="M46.319 170.906H20.0798V174.684H46.319V170.906Z" stroke="black" stroke-width="1.47577" stroke-linecap="round" stroke-linejoin="round"/>
<path d="M25.5696 170.906H24.6547V174.684H25.5696V170.906Z" stroke="black" stroke-width="1.47577" stroke-linecap="round" stroke-linejoin="round"/>
<path d="M31.2587 170.906H30.3438V174.684H31.2587V170.906Z" stroke="black" stroke-width="1.47577" stroke-linecap="round" stroke-linejoin="round"/>
<path d="M36.9478 170.906H36.0328V174.684H36.9478V170.906Z" stroke="black" stroke-width="1.47577" stroke-linecap="round" stroke-linejoin="round"/>
<path d="M42.6295 170.906H41.7145V174.684H42.6295V170.906Z" stroke="black" stroke-width="1.47577" stroke-linecap="round" stroke-linejoin="round"/>
<path d="M46.319 180.535H20.0798V184.313H46.319V180.535Z" stroke="black" stroke-width="1.47577" stroke-linecap="round" stroke-linejoin="round"/>
<path d="M25.5696 180.535H24.6547V184.313H25.5696V180.535Z" stroke="black" stroke-width="1.47577" stroke-linecap="round" stroke-linejoin="round"/>
<path d="M31.2587 180.535H30.3438V184.313H31.2587V180.535Z" stroke="black" stroke-width="1.47577" stroke-linecap="round" stroke-linejoin="round"/>
<path d="M36.9478 180.535H36.0328V184.313H36.9478V180.535Z" stroke="black" stroke-width="1.47577" stroke-linecap="round" stroke-linejoin="round"/>
<path d="M42.6295 180.535H41.7145V184.313H42.6295V180.535Z" stroke="black" stroke-width="1.47577" stroke-linecap="round" stroke-linejoin="round"/>
<path d="M59.5418 206.642C59.5418 207.416 58.9146 208.051 58.1325 208.051H2.90191C2.11975 208.051 1.49255 207.424 1.49255 206.642C1.49255 205.859 2.11975 205.232 2.90191 205.232H58.1325C58.9073 205.232 59.5418 205.859 59.5418 206.642Z" stroke="black" stroke-width="1.47577" stroke-linecap="round" stroke-linejoin="round"/>
<path d="M59.5418 206.642C59.5418 207.416 58.9146 208.051 58.1325 208.051H2.90191C2.11975 208.051 1.49255 207.424 1.49255 206.642C1.49255 205.859 2.11975 205.232 2.90191 205.232H58.1325C58.9073 205.232 59.5418 205.859 59.5418 206.642Z" stroke="black" stroke-width="1.47577" stroke-linecap="round" stroke-linejoin="round"/>
<path d="M41.4711 62.6804H18.9878L11.4614 78.2424H49.0049L41.4711 62.6804Z" stroke="black" stroke-width="1.47577" stroke-linecap="round" stroke-linejoin="round"/>
<path d="M50.9308 76.9584C50.9308 77.7332 50.3036 78.3678 49.5214 78.3678H11.0113C10.2365 78.3678 9.60193 77.7406 9.60193 76.9584C9.60193 76.1763 10.2291 75.5491 11.0113 75.5491H49.5214C50.2962 75.5491 50.9308 76.1763 50.9308 76.9584Z" stroke="black" stroke-width="1.47577" stroke-linecap="round" stroke-linejoin="round"/>
<path d="M30.7423 10.3349C30.3586 10.7186 29.7314 10.7186 29.3404 10.3349L25.6509 6.64545C25.2672 6.26175 25.2672 5.63455 25.6509 5.24347L29.3404 1.55405C29.724 1.16297 30.3586 1.16297 30.7423 1.55405L34.4317 5.24347C34.8154 5.62717 34.8154 6.26175 34.4317 6.64545L30.7423 10.3349Z" stroke="black" stroke-width="1.47577" stroke-linecap="round" stroke-linejoin="round"/>
<path d="M39.5747 20.0088L36.1435 15.8545H24.0275L20.5816 20.0235H17.8588V21.7649C17.8588 22.3331 18.3163 22.7906 18.8844 22.7906L41.2792 22.7685C41.8474 22.7685 42.3122 22.311 42.3122 21.7428V20.0088H39.5747Z" stroke="black" stroke-width="1.47577" stroke-linecap="round" stroke-linejoin="round"/>
<path d="M36.1215 13.7367L32.5649 8.64526H27.5399L24.0571 13.7736V15.9356H36.1215V13.7367Z" stroke="black" stroke-width="1.47577" stroke-linecap="round" stroke-linejoin="round"/>
</svg>
