<svg width="229" height="153" viewBox="0 0 229 153" fill="none" xmlns="http://www.w3.org/2000/svg">
<path d="M153.256 119.867C157.409 116.115 154.75 109.876 150.184 107.879C144.64 105.449 137.974 108.366 135.347 113.621C132.65 119.009 133.852 127.03 138.658 130.905C144.282 135.438 153.117 134.496 159.228 131.758C161.155 130.891 159.486 128.058 157.57 128.916C149.681 132.452 137.802 131.174 137.247 120.525C137.033 116.456 138.938 112.368 142.907 110.882C144.582 110.249 146.61 110.068 148.329 110.674C150.929 111.587 153.712 115.023 150.929 117.542C149.357 118.967 151.69 121.284 153.256 119.873V119.867Z" fill="white"/>
<path d="M177.237 132.961C184.075 130.222 183.186 121.328 176.24 119.267C166.652 116.42 157.939 128.155 156.714 136.435C153.562 157.694 189.303 157.025 195.955 141.165C195.041 141.404 194.124 141.646 193.205 141.893C203.468 154.597 223.144 141.535 228.502 130.536C229.427 128.642 226.591 126.972 225.66 128.878C221.261 137.905 204.501 150.673 195.527 139.565C194.655 138.482 193.199 139.291 192.777 140.293C188.928 149.465 175.176 151.556 166.832 148.037C160.25 145.259 158.511 138.918 161.369 132.602C162.413 130.297 163.799 128.086 165.602 126.278C166.08 125.817 166.549 125.356 167.027 124.892C171.557 120.365 174.668 121.995 176.359 129.794C174.415 130.569 175.268 133.752 177.231 132.966L177.237 132.961Z" fill="white"/>
<path d="M154.178 112.233C160.139 105.792 167.716 100.77 176.804 100.834C187.622 100.914 197.024 109.783 194.974 120.957C194.719 122.373 196.602 123.984 197.727 122.557C200.788 118.643 206.534 118.607 209.912 122.06C211.206 123.379 212.062 125.162 213.228 126.595C214.803 128.528 216.269 130.042 218.5 131.186C221.861 132.911 225.602 133.442 228.324 130.545C229.774 129.003 227.452 126.676 225.996 128.217C220.341 134.217 212.903 118.918 208.531 116.766C203.735 114.405 198.546 116.21 195.399 120.235C196.313 120.768 197.23 121.298 198.149 121.835C200.038 111.505 194.066 101.803 183.984 98.6673C171.799 94.8788 160 101.098 151.851 109.911C150.415 111.463 152.731 113.796 154.178 112.238V112.233Z" fill="white"/>
<path d="M28.6292 47.3577C29.9263 63.8367 53.2297 51.8378 53.9852 40.0806C55.1739 21.5824 31.7178 19.8797 19.619 25.9653C4.14268 33.7506 -3.88989 51.9767 2.96501 68.2974C9.66437 84.2458 28.9098 90.4786 43.7472 81.785C45.5721 80.7128 43.9194 77.8714 42.0891 78.9436C18.1302 92.9839 -5.36753 63.9589 7.56179 41.5638C12.9891 32.1619 23.9325 25.2153 34.9759 25.607C41.7724 25.8458 48.8634 29.5288 50.416 36.7004C51.3743 41.1138 49.6994 44.6357 46.6636 47.5938C43.1973 50.9768 32.6122 56.0763 31.9261 47.3577C31.7623 45.2607 28.4709 45.244 28.6348 47.3577H28.6292Z" fill="white"/>
<path d="M58.6514 79.6803C64.3869 74.4863 58.1375 67.662 51.6687 68.9369C43.5334 70.5423 39.6587 80.5163 42.2696 87.799C49.8744 108.986 83.7268 96.1371 91.7871 81.9662C92.8342 80.1247 89.9928 78.4665 88.9457 80.308C84.1545 88.7294 74.8721 92.4541 65.8368 94.5789C59.6263 96.0399 53.0658 96.1093 48.244 91.182C45.4387 88.3128 44.1055 84.1771 44.9943 80.2164C45.3749 79.1831 45.7609 78.1499 46.1387 77.1222C48.1413 72.6865 51.5382 72.7671 56.3294 77.3527C54.7545 78.7776 57.0876 81.0996 58.6569 79.6803H58.6514Z" fill="white"/>
<path d="M89.3732 81.7822C94.3978 91.5091 104.572 98.3112 115.776 97.4668C128.245 96.5308 132.883 88.0538 136.197 77.2688C136.819 75.2412 133.644 74.3746 133.025 76.3966C129.964 86.3623 125.575 94.281 113.854 94.2616C104.447 94.2449 96.4031 88.2399 92.2091 80.1268C91.2342 78.2437 88.3983 79.9074 89.3677 81.7878L89.3732 81.7822Z" fill="white"/>
<path d="M133.419 77.6761C155.039 89.3695 177.995 67.1549 182.939 47.1568C183.448 45.1014 180.276 44.2237 179.767 46.2847C175.368 64.0774 154.836 85.5198 135.077 74.8403C133.216 73.8348 131.552 76.6707 133.419 77.6817V77.6761Z" fill="white"/>
<path d="M104.655 39.7717C111.865 41.7854 113.171 44.8351 108.58 48.9069C107.224 50.1318 105.747 51.1761 104.147 52.0427C98.6528 55.0036 93.8616 52.8788 91.0202 47.4043C87.5594 40.7466 89.1426 31.8808 94.156 26.4424C99.311 20.8513 107.68 19.2125 114.882 20.9207C121.823 22.5678 126.581 27.3895 131.364 32.3252C139.129 40.33 147.701 46.4683 158.561 49.5235C166.774 51.8344 175.818 53.1454 182.781 47.271C184.4 45.9044 182.062 43.588 180.453 44.9434C171.163 52.7816 153.978 45.6489 145.223 40.0022C136.56 34.4166 131.039 24.8009 121.87 20.0374C108.51 13.0909 90.3619 18.5348 86.5956 34.0139C83.0959 48.3931 95.2337 63.5694 109.099 52.751C113.565 49.2652 117.44 42.1853 112.838 37.1358C109.538 33.5112 104.452 34.3722 101.825 38.1079C100.605 39.8411 103.452 41.4854 104.666 39.7689L104.655 39.7717Z" fill="white"/>
<path d="M38.7919 24.3671C40.4723 12.31 56.9374 4.18018 67.9502 3.73577C79.8685 3.25527 91.0647 10.3185 94.195 22.0868C94.7394 24.1311 97.9141 23.2645 97.3669 21.2147C93.8783 8.12425 81.3017 -0.111081 67.9502 0.444421C55.5625 0.958261 37.5198 9.8963 35.6255 23.4895C35.3367 25.5587 38.503 26.4531 38.7975 24.3616L38.7919 24.3671Z" fill="white"/>
</svg>
