<svg width="246" height="195" viewBox="0 0 246 195" fill="none" xmlns="http://www.w3.org/2000/svg">
<mask id="mask0_134_1613" style="mask-type:luminance" maskUnits="userSpaceOnUse" x="0" y="0" width="246" height="196">
<path d="M1 1H244.71V194.582H1V1Z" fill="white" stroke="white"/>
</mask>
<g mask="url(#mask0_134_1613)">
<path d="M244.801 1.80851C244.729 1.6863 244.626 1.59187 244.498 1.52798C244.368 1.4641 244.231 1.44188 244.087 1.46132C171.05 11.7853 87.2658 11.6687 1.79617 1.1308C1.58508 1.1058 1.39899 1.16135 1.23789 1.303C1.07679 1.44466 0.999023 1.61964 0.999023 1.83351C0.999023 2.74453 2.87385 6.14976 8.42887 15.335C9.10381 16.4488 9.63709 17.3293 9.7843 17.5931C9.90651 17.8153 10.0926 17.9375 10.3454 17.957C12.2924 18.1181 14.2255 18.2681 16.1559 18.4208C16.3781 18.6541 16.8197 19.1346 17.4086 19.7846C25.0134 28.1477 28.5686 31.4501 30.0879 31.5557C37.6344 32.0862 46.0392 32.5223 55.2994 32.8611C55.2189 34.9748 54.9606 41.5297 54.5967 50.5289C42.3756 50.5428 31.1962 50.5928 20.4611 50.6844C20.275 50.6844 20.1139 50.7511 19.9778 50.8816C19.8417 51.0094 19.7695 51.1677 19.7584 51.3566C19.5389 55.4117 19.2501 62.6083 19.7917 65.2386C19.825 65.4025 19.9083 65.5386 20.0389 65.6469C20.1694 65.7524 20.3194 65.8052 20.4861 65.8052L53.9745 65.7747C52.7802 94.758 51.097 133.799 50.2027 146.028C50.2027 146.034 50.2027 146.039 50.2027 146.048H50.1999L48.6806 180.072H48.4362C46.5808 180.072 44.9948 181.658 44.7504 183.766C44.5477 185.494 44.3088 187.705 44.106 189.685C44.031 190.329 44.0894 190.963 44.281 191.585C44.4754 192.207 44.7837 192.763 45.2115 193.251C45.5365 193.626 45.9253 193.918 46.3753 194.129C46.828 194.337 47.3002 194.443 47.7973 194.449C52.0858 194.454 57.3881 194.462 62.1071 194.462C64.743 194.462 67.1983 194.462 69.1925 194.454C69.6703 194.449 70.1286 194.349 70.5646 194.154C71.0007 193.96 71.3784 193.687 71.7034 193.335C72.1256 192.874 72.4395 192.349 72.6478 191.76C72.8561 191.168 72.9422 190.563 72.9033 189.938C72.8589 189.03 72.8116 188.119 72.7616 187.208C72.7061 186.174 72.6533 185.144 72.6005 184.113C72.5089 182.18 71.3062 180.608 69.7286 180.186L71.1535 146.109C72.1339 121.069 72.7311 104.982 73.3088 89.4224C73.5866 81.9648 73.8671 74.3822 74.1948 65.7552L86.3687 65.7413L86.3937 68.5466L85.2382 69.2604C85.0994 69.3438 85.0049 69.4604 84.9466 69.6104L82.8162 75.1932C82.7468 75.3765 82.7524 75.5543 82.8301 75.732C82.9079 75.9098 83.0384 76.0348 83.219 76.107L84.3078 76.5375L83.2801 78.3401C83.2301 78.429 83.1995 78.5234 83.1912 78.6234C83.1801 78.7262 83.1912 78.8234 83.2245 78.9206C83.2579 79.0151 83.3079 79.1012 83.3773 79.1734C83.4467 79.2484 83.5273 79.3067 83.6217 79.3456L84.9299 79.9011L84.0189 81.4343C83.9689 81.5232 83.9356 81.6176 83.9245 81.7176C83.9134 81.8176 83.9245 81.9176 83.955 82.0148C83.9856 82.112 84.0356 82.1981 84.1022 82.2731C84.1717 82.3481 84.2522 82.4064 84.3467 82.4481L85.3216 82.873L83.9661 85.4422C83.88 85.6117 83.8606 85.7866 83.9134 85.9672C83.9634 86.1505 84.0717 86.2894 84.2328 86.3838L86.2909 87.6059C86.3742 87.6559 86.4659 87.6865 86.5603 87.7003C86.6575 87.7115 86.752 87.7059 86.8464 87.6809C86.9381 87.6531 87.0242 87.6087 87.0992 87.5476C87.1742 87.4893 87.2353 87.4143 87.2797 87.3282L90.5266 81.2232C90.5711 81.1371 90.5961 81.0482 90.6072 80.9538C90.6155 80.8593 90.6044 80.7677 90.5766 80.676C90.5488 80.5844 90.5016 80.5038 90.4405 80.4316C90.3794 80.3594 90.3072 80.301 90.2211 80.2566L89.1656 79.7178L89.8572 78.0568C89.9267 77.8846 89.9322 77.7124 89.8656 77.5374C89.8017 77.3624 89.6878 77.2347 89.5212 77.1486L88.3241 76.5514L89.2184 74.6294C89.2629 74.5377 89.2851 74.4405 89.2851 74.3377C89.2878 74.235 89.2656 74.1377 89.2267 74.0433C89.1851 73.9517 89.1268 73.8711 89.049 73.8017C88.974 73.735 88.8879 73.685 88.7907 73.6545L87.5575 73.2656L88.5935 70.9575C88.674 70.777 88.6796 70.5964 88.6074 70.4131L87.9102 68.5966C87.8852 68.5355 87.8519 68.4772 87.8102 68.4244L87.788 65.7413L100.934 65.7302L100.959 68.5466L99.8035 69.2604C99.6646 69.3438 99.5674 69.4604 99.5119 69.6104L97.3815 75.1932C97.3121 75.3765 97.3176 75.5543 97.3954 75.732C97.4732 75.9098 97.6037 76.0348 97.7843 76.107L98.873 76.5403L97.8454 78.3401C97.7954 78.429 97.7648 78.5234 97.7565 78.6234C97.7454 78.7262 97.7593 78.8234 97.7898 78.9206C97.8231 79.0151 97.8731 79.1012 97.9426 79.1762C98.012 79.2484 98.0926 79.3067 98.187 79.3456L99.4952 79.9011L98.5842 81.4343C98.5342 81.5232 98.5009 81.6176 98.4898 81.7176C98.4786 81.8203 98.4897 81.9176 98.5203 82.0148C98.5509 82.112 98.6009 82.1981 98.6703 82.2731C98.7369 82.3481 98.8175 82.4064 98.9119 82.4481L99.8868 82.873L98.5342 85.445C98.4453 85.6117 98.4259 85.7866 98.4786 85.9672C98.5286 86.1505 98.637 86.2894 98.7981 86.3866L100.859 87.6059C100.97 87.6726 101.09 87.7059 101.22 87.7059C101.506 87.7059 101.714 87.5809 101.848 87.3282L105.092 81.2204C105.136 81.1371 105.164 81.0482 105.172 80.9538C105.181 80.8565 105.17 80.7649 105.142 80.6732C105.114 80.5844 105.07 80.501 105.006 80.4288C104.945 80.3566 104.872 80.2983 104.786 80.2566L103.734 79.715L104.423 78.054C104.495 77.8818 104.498 77.7096 104.431 77.5346C104.367 77.3597 104.25 77.2291 104.084 77.1458L102.887 76.5486L103.784 74.6266C103.825 74.5349 103.848 74.4377 103.85 74.3349C103.85 74.2322 103.831 74.135 103.789 74.0405C103.748 73.9489 103.689 73.8683 103.614 73.7989C103.536 73.7322 103.45 73.6822 103.353 73.6517L102.123 73.2628L103.156 70.9547C103.237 70.7742 103.242 70.5936 103.173 70.4075L102.473 68.5938C102.448 68.5327 102.414 68.4744 102.373 68.4216L102.35 65.7247L113.619 65.7135L113.644 68.5438L112.488 69.2577C112.352 69.341 112.255 69.4576 112.197 69.6076L110.066 75.1904C109.997 75.3737 110.003 75.5515 110.08 75.7293C110.158 75.907 110.289 76.032 110.469 76.1042L111.558 76.5375L110.533 78.3373C110.48 78.4262 110.453 78.5207 110.441 78.6207C110.433 78.7234 110.444 78.8206 110.477 78.9178C110.508 79.0123 110.561 79.0984 110.627 79.1734C110.697 79.2456 110.777 79.3039 110.872 79.3428L112.183 79.8983L111.272 81.4315C111.219 81.5204 111.189 81.6148 111.177 81.7148C111.164 81.8176 111.175 81.9148 111.205 82.012C111.236 82.1092 111.286 82.1953 111.355 82.2703C111.425 82.3453 111.505 82.4036 111.597 82.4453L112.572 82.8702L111.219 85.4422C111.13 85.6089 111.111 85.7839 111.164 85.9644C111.216 86.1477 111.322 86.2866 111.486 86.3838L113.544 87.6031C113.655 87.6698 113.774 87.7031 113.905 87.7031C113.972 87.7031 114.035 87.6948 114.097 87.6781C114.294 87.6226 114.438 87.5059 114.533 87.3254L117.777 81.2204C117.821 81.1371 117.849 81.0454 117.857 80.951C117.866 80.8565 117.857 80.7649 117.827 80.6732C117.799 80.5816 117.755 80.501 117.693 80.4288C117.632 80.3566 117.557 80.2983 117.474 80.2538L116.419 79.715L117.107 78.054C117.18 77.8818 117.182 77.7068 117.119 77.5346C117.052 77.3597 116.938 77.2291 116.771 77.1458L115.574 76.5486L116.469 74.6266C116.51 74.5349 116.532 74.4377 116.535 74.3349C116.535 74.2322 116.516 74.135 116.474 74.0405C116.432 73.9461 116.374 73.8655 116.299 73.7989C116.224 73.7294 116.135 73.6795 116.038 73.6489L114.808 73.2628L115.844 70.9519C115.924 70.7742 115.927 70.5909 115.858 70.4075L115.16 68.5938C115.135 68.5299 115.102 68.4716 115.058 68.4188L115.035 65.7108L129.895 65.6969L129.917 68.5438L128.762 69.2549C128.626 69.341 128.529 69.4576 128.473 69.6076L126.343 75.1904C126.273 75.371 126.276 75.5515 126.357 75.7293C126.434 75.907 126.562 76.032 126.743 76.1042L127.831 76.5347L126.807 78.3373C126.757 78.4262 126.726 78.5207 126.718 78.6207C126.707 78.7206 126.718 78.8206 126.751 78.9151C126.784 79.0123 126.834 79.0984 126.904 79.1706C126.97 79.2456 127.054 79.3039 127.145 79.3428L128.456 79.8983L127.545 81.4315C127.493 81.5176 127.462 81.612 127.451 81.7148C127.44 81.8148 127.448 81.9148 127.481 82.012C127.512 82.1092 127.562 82.1953 127.629 82.2703C127.698 82.3453 127.779 82.4036 127.873 82.4453L128.848 82.8702L127.493 85.4394C127.404 85.6089 127.387 85.7811 127.437 85.9644C127.49 86.1449 127.595 86.2866 127.759 86.381L129.817 87.6031C129.928 87.6698 130.051 87.7031 130.181 87.7031C130.464 87.7031 130.676 87.5754 130.806 87.3226L134.053 81.2176C134.097 81.1343 134.122 81.0426 134.134 80.9482C134.142 80.8538 134.131 80.7621 134.103 80.6705C134.072 80.5788 134.028 80.4983 133.967 80.426C133.906 80.3538 133.834 80.2955 133.748 80.2511L132.692 79.7122L133.384 78.0513C133.453 77.8791 133.459 77.7041 133.392 77.5291C133.328 77.3569 133.211 77.2263 133.045 77.143L131.848 76.5458L132.742 74.6238C132.786 74.5322 132.809 74.4349 132.809 74.3322C132.811 74.2294 132.789 74.1322 132.75 74.0378C132.709 73.9433 132.65 73.8628 132.573 73.7961C132.498 73.7267 132.409 73.6767 132.312 73.6461L131.081 73.26L132.117 70.9492C132.198 70.7714 132.203 70.5881 132.131 70.4048L131.434 68.591C131.409 68.5272 131.376 68.4688 131.334 68.4161L131.309 65.6941L144.458 65.6802L144.48 68.5411L143.324 69.2521C143.188 69.3382 143.091 69.4549 143.036 69.6048L140.905 75.1876C140.836 75.3682 140.841 75.5487 140.919 75.7265C140.997 75.9042 141.127 76.0292 141.308 76.1014L142.397 76.532L141.369 78.3346C141.319 78.4234 141.288 78.5179 141.28 78.6179C141.269 78.7179 141.28 78.8179 141.313 78.9123C141.347 79.0095 141.397 79.0956 141.466 79.1678C141.536 79.2428 141.616 79.3011 141.711 79.34L143.019 79.8955L142.108 81.4287C142.058 81.5148 142.024 81.6093 142.013 81.712C142.002 81.812 142.013 81.912 142.044 82.0092C142.074 82.1064 142.124 82.1925 142.191 82.2675C142.261 82.3425 142.341 82.4008 142.436 82.4425L143.41 82.8675L142.055 85.4367C141.969 85.6061 141.95 85.7783 142.002 85.9616C142.052 86.1422 142.161 86.2838 142.322 86.3782L144.38 87.6004C144.463 87.6503 144.555 87.6809 144.649 87.6948C144.746 87.7059 144.841 87.7003 144.935 87.6726C145.03 87.6476 145.113 87.6031 145.188 87.542C145.263 87.4809 145.324 87.4087 145.371 87.3226L148.616 81.2176C148.66 81.1315 148.688 81.0426 148.696 80.9482C148.704 80.8538 148.693 80.7593 148.666 80.6705C148.638 80.5788 148.593 80.4982 148.532 80.4233C148.468 80.351 148.396 80.2927 148.313 80.2511L147.274 79.7178L147.963 78.0568C148.035 77.8846 148.038 77.7124 147.974 77.5374C147.907 77.3624 147.793 77.2319 147.627 77.1486L146.43 76.5514L147.324 74.6294C147.368 74.5377 147.391 74.4405 147.391 74.3377C147.391 74.235 147.371 74.1377 147.33 74.0433C147.291 73.9517 147.23 73.8711 147.155 73.8017C147.08 73.735 146.991 73.685 146.893 73.6545L145.663 73.2656L146.699 70.9575C146.78 70.777 146.782 70.5964 146.713 70.4131L146.016 68.5966C145.991 68.5355 145.957 68.4772 145.913 68.4244L145.891 65.6858L157.162 65.6747L157.184 68.5466L156.031 69.2604C155.893 69.3438 155.795 69.4604 155.74 69.6104L153.61 75.1932C153.54 75.3765 153.546 75.5543 153.623 75.732C153.701 75.9098 153.832 76.0348 154.012 76.107L155.101 76.5403L154.073 78.3401C154.023 78.429 153.993 78.5234 153.984 78.6234C153.973 78.7262 153.984 78.8234 154.018 78.9206C154.051 79.0151 154.101 79.1012 154.171 79.1762C154.24 79.2484 154.321 79.3067 154.415 79.3456L155.723 79.9011L154.812 81.4343C154.762 81.5232 154.729 81.6176 154.718 81.7176C154.707 81.8203 154.718 81.9176 154.748 82.0148C154.779 82.112 154.829 82.1981 154.898 82.2731C154.965 82.3481 155.045 82.4064 155.14 82.4481L156.115 82.873L154.759 85.445C154.673 85.6117 154.654 85.7866 154.707 85.9672C154.757 86.1505 154.865 86.2894 155.026 86.3866L157.084 87.6059C157.198 87.6726 157.317 87.7059 157.448 87.7059C157.512 87.7059 157.576 87.6976 157.637 87.6809C157.831 87.6253 157.979 87.5087 158.073 87.3309L161.317 81.2232C161.362 81.1399 161.389 81.0482 161.398 80.9538C161.406 80.8593 161.398 80.7677 161.367 80.676C161.339 80.5844 161.295 80.5038 161.234 80.4316C161.173 80.3594 161.098 80.301 161.014 80.2566L159.959 79.7178L160.648 78.0568C160.72 77.8846 160.723 77.7096 160.659 77.5374C160.592 77.3624 160.476 77.2319 160.309 77.1486L159.112 76.5514L160.009 74.6294C160.051 74.5377 160.073 74.4405 160.076 74.3377C160.076 74.235 160.056 74.1377 160.014 74.0433C159.973 73.9489 159.914 73.8683 159.839 73.8017C159.762 73.7322 159.676 73.6822 159.578 73.6517L158.348 73.2656L159.381 70.9575C159.462 70.777 159.467 70.5936 159.398 70.4103L158.698 68.5966C158.673 68.5327 158.64 68.4744 158.598 68.4216L158.576 65.6719L170.988 65.6608C171.316 74.3044 171.597 81.8981 171.874 89.3641C172.452 104.935 173.052 121.036 174.033 146.106L175.457 180.236C175.057 180.383 174.691 180.586 174.352 180.844C174.013 181.103 173.721 181.405 173.477 181.753C173.233 182.1 173.044 182.477 172.913 182.88C172.783 183.286 172.716 183.702 172.71 184.127C172.663 185.152 172.608 186.183 172.555 187.21C172.505 188.124 172.458 189.038 172.41 189.952C172.372 190.574 172.458 191.182 172.666 191.771C172.874 192.36 173.188 192.885 173.61 193.346C173.933 193.699 174.313 193.971 174.749 194.168C175.185 194.362 175.641 194.462 176.118 194.468C177.977 194.471 180.34 194.474 183.193 194.474C187.073 194.474 191.861 194.471 197.516 194.462C198.014 194.457 198.486 194.349 198.939 194.14C199.388 193.932 199.777 193.64 200.102 193.265C200.53 192.774 200.838 192.218 201.033 191.599C201.224 190.977 201.283 190.343 201.208 189.696C200.999 187.671 200.758 185.46 200.563 183.78C200.319 181.672 198.733 180.083 196.878 180.083H196.267L194.981 146.048C194.981 146.039 194.978 146.031 194.978 146.023C194.086 133.779 192.397 94.6358 191.203 65.6386L224.614 65.608C224.717 65.608 224.814 65.5858 224.906 65.5441C224.997 65.5025 225.078 65.4441 225.144 65.3691C225.214 65.2914 225.261 65.2053 225.292 65.108C225.322 65.0108 225.33 64.9108 225.319 64.8109C225.253 64.2831 225.367 59.8669 225.444 56.6422C225.503 54.3424 225.553 52.3565 225.553 51.5093C225.553 51.3121 225.48 51.1455 225.342 51.0066C225.197 50.8761 225.03 50.8066 224.836 50.8011C214.009 50.8955 202.799 50.9427 190.603 50.9538C190.214 41.3186 189.945 34.4054 189.873 32.5972C198.994 32.3556 207.157 32.0973 214.02 31.864C214.207 31.8584 214.368 31.789 214.498 31.6557L227.314 18.8708C229.244 18.7097 231.177 18.543 233.113 18.3708C233.319 18.3514 233.482 18.2625 233.61 18.0986C234.468 17.0015 237.277 13.0491 239.993 9.23003C242.182 6.14977 244.248 3.24171 244.748 2.6001C244.834 2.48622 244.884 2.35846 244.895 2.21403C244.904 2.0696 244.873 1.93628 244.801 1.80851ZM87.5908 74.7627L86.7464 76.5792C86.6659 76.7514 86.6548 76.9291 86.7186 77.1125C86.7825 77.293 86.8992 77.4263 87.0714 77.5124L88.2935 78.1235L87.6075 79.7817C87.5352 79.9511 87.5325 80.1233 87.5963 80.2983C87.6602 80.4733 87.7741 80.601 87.938 80.6843L88.9351 81.1954L86.3798 86.0061L85.541 85.5089L86.9353 82.8619C86.9825 82.7758 87.0075 82.6814 87.0158 82.5842C87.0242 82.4842 87.0103 82.3897 86.977 82.2953C86.9464 82.2036 86.8964 82.1203 86.8297 82.0481C86.7603 81.9759 86.6825 81.9203 86.5909 81.8815L85.6549 81.4704L86.5687 79.9289C86.6214 79.84 86.6548 79.7455 86.6659 79.6428C86.677 79.54 86.6659 79.4428 86.6353 79.3456C86.602 79.2456 86.552 79.1595 86.4826 79.0845C86.4131 79.0095 86.3326 78.9512 86.2381 78.9123L84.9133 78.3512L85.9493 76.532C85.9993 76.4431 86.0298 76.3459 86.0382 76.2431C86.0493 76.1403 86.0354 76.0431 86.002 75.9459C85.9687 75.8487 85.9159 75.7626 85.8437 75.6876C85.7715 75.6126 85.6882 75.5571 85.5938 75.5209L84.3939 75.046L86.1881 70.3437L86.8964 69.9076L87.1797 70.6464L85.9382 73.4128C85.8993 73.5072 85.8771 73.6045 85.8771 73.7045C85.8771 73.8044 85.8993 73.9017 85.9382 73.9961C85.9798 74.0877 86.0382 74.1683 86.1159 74.235C86.1909 74.3016 86.277 74.3516 86.3742 74.3822L87.5908 74.7627ZM102.159 74.7627L101.314 76.5792C101.231 76.7514 101.223 76.9291 101.287 77.1125C101.351 77.293 101.467 77.4263 101.639 77.5124L102.862 78.1235L102.173 79.7817C102.103 79.9511 102.101 80.1233 102.162 80.2983C102.226 80.4733 102.339 80.601 102.506 80.6843L103.503 81.1954L100.945 86.0061L100.109 85.5089L101.503 82.8619C101.551 82.7758 101.576 82.6814 101.584 82.5842C101.589 82.4842 101.578 82.3897 101.545 82.2953C101.512 82.2036 101.462 82.1203 101.395 82.0481C101.328 81.9759 101.251 81.9203 101.159 81.8815L100.22 81.4704L101.137 79.9289C101.189 79.84 101.22 79.7455 101.231 79.6428C101.245 79.54 101.234 79.4428 101.201 79.3456C101.17 79.2484 101.12 79.1595 101.051 79.0845C100.981 79.0095 100.901 78.9512 100.806 78.9123L99.4813 78.3512L100.515 76.532C100.567 76.4431 100.598 76.3459 100.606 76.2431C100.615 76.1403 100.603 76.0431 100.57 75.9459C100.534 75.8487 100.481 75.7626 100.412 75.6876C100.34 75.6126 100.256 75.5571 100.159 75.5209L98.9619 75.046L100.756 70.3437L101.462 69.9076L101.745 70.6464L100.506 73.4128C100.465 73.5072 100.445 73.6045 100.445 73.7045C100.445 73.8044 100.465 73.9017 100.506 73.9961C100.548 74.0877 100.606 74.1683 100.681 74.235C100.759 74.3016 100.845 74.3516 100.94 74.3822L102.159 74.7627ZM114.849 74.7627L114.002 76.5792C113.922 76.7514 113.913 76.9291 113.977 77.1125C114.041 77.293 114.158 77.4263 114.33 77.5124L115.552 78.1235L114.863 79.7817C114.794 79.9511 114.788 80.1233 114.852 80.2983C114.916 80.4733 115.03 80.601 115.196 80.6843L116.194 81.1954L113.636 86.0061L112.8 85.5089L114.194 82.8619C114.238 82.7758 114.266 82.6814 114.274 82.5842C114.28 82.4842 114.269 82.3897 114.235 82.2953C114.202 82.2036 114.152 82.1203 114.085 82.0481C114.019 81.9759 113.941 81.9203 113.849 81.8815L112.911 81.4704L113.827 79.9289C113.88 79.84 113.911 79.7455 113.922 79.6428C113.933 79.54 113.922 79.44 113.891 79.3428C113.858 79.2456 113.808 79.1595 113.738 79.0845C113.669 79.0095 113.588 78.9512 113.494 78.9123L112.169 78.3512L113.202 76.532C113.255 76.4431 113.286 76.3459 113.294 76.2431C113.302 76.1403 113.291 76.0431 113.255 75.9459C113.222 75.8487 113.169 75.7626 113.099 75.6876C113.027 75.6126 112.944 75.5571 112.847 75.5209L111.65 75.046L113.444 70.3437L114.149 69.9076L114.433 70.6464L113.194 73.4128C113.152 73.5072 113.133 73.6045 113.133 73.7045C113.133 73.8044 113.152 73.9017 113.194 73.9961C113.236 74.0877 113.294 74.1683 113.369 74.235C113.447 74.3016 113.533 74.3516 113.627 74.3822L114.849 74.7627ZM131.128 74.7627L130.281 76.5792C130.201 76.7514 130.192 76.9291 130.256 77.1125C130.317 77.293 130.437 77.4263 130.609 77.5124L131.831 78.1235L131.142 79.7817C131.07 79.9511 131.067 80.1233 131.131 80.2983C131.195 80.4733 131.309 80.601 131.473 80.6843L132.47 81.1954L129.915 86.0061L129.076 85.5089L130.473 82.8619C130.517 82.7758 130.545 82.6814 130.551 82.5842C130.559 82.4842 130.548 82.3897 130.514 82.2953C130.481 82.2036 130.431 82.1203 130.364 82.0481C130.298 81.9759 130.22 81.9203 130.128 81.8815L129.19 81.4704L130.106 79.9289C130.159 79.84 130.19 79.7455 130.201 79.6428C130.212 79.54 130.201 79.4428 130.17 79.3456C130.14 79.2456 130.087 79.1595 130.02 79.0845C129.951 79.0095 129.867 78.9512 129.773 78.9123L128.448 78.3512L129.484 76.532C129.534 76.4431 129.565 76.3459 129.576 76.2431C129.584 76.1403 129.57 76.0431 129.537 75.9459C129.503 75.8487 129.451 75.7626 129.378 75.6876C129.309 75.6126 129.223 75.5571 129.129 75.5209L127.931 75.046L129.723 70.3437L130.431 69.9076L130.714 70.6464L129.476 73.41C129.434 73.5017 129.412 73.5989 129.412 73.7017C129.412 73.8017 129.434 73.8989 129.476 73.9905C129.517 74.085 129.576 74.1627 129.651 74.2322C129.726 74.2988 129.812 74.3461 129.909 74.3766L131.128 74.7627ZM145.694 74.7627L144.849 76.5792C144.769 76.7514 144.76 76.9291 144.824 77.1125C144.885 77.293 145.005 77.4263 145.177 77.5124L146.399 78.1235L145.71 79.7817C145.638 79.9511 145.635 80.1233 145.699 80.2983C145.763 80.4733 145.877 80.601 146.041 80.6843L147.038 81.1954L144.483 86.0061L143.644 85.5089L145.041 82.8619C145.085 82.7758 145.113 82.6814 145.119 82.5842C145.127 82.4842 145.113 82.3897 145.083 82.2953C145.049 82.2036 144.999 82.1203 144.933 82.0481C144.866 81.9759 144.785 81.9203 144.696 81.8815L143.758 81.4704L144.674 79.9289C144.727 79.84 144.758 79.7455 144.769 79.6428C144.78 79.54 144.771 79.4428 144.738 79.3456C144.708 79.2456 144.658 79.1595 144.588 79.0845C144.519 79.0095 144.435 78.9512 144.341 78.9123L143.016 78.3512L144.052 76.532C144.102 76.4431 144.133 76.3459 144.144 76.2431C144.152 76.1403 144.138 76.0431 144.105 75.9459C144.072 75.8487 144.019 75.7626 143.947 75.6876C143.877 75.6126 143.794 75.5571 143.697 75.5209L142.499 75.046L144.291 70.3437L144.999 69.9076L145.283 70.6464L144.044 73.4128C144.002 73.5072 143.98 73.6045 143.98 73.7045C143.98 73.8044 144.002 73.9017 144.044 73.9961C144.085 74.0877 144.144 74.1683 144.219 74.235C144.294 74.3016 144.38 74.3516 144.477 74.3822L145.694 74.7627ZM158.384 74.7627L157.54 76.5792C157.459 76.7514 157.451 76.9291 157.512 77.1125C157.576 77.293 157.695 77.4263 157.865 77.5124L159.09 78.1235L158.401 79.7817C158.329 79.9511 158.326 80.1233 158.39 80.2983C158.453 80.4733 158.567 80.601 158.731 80.6843L159.728 81.1954L157.173 86.0061L156.334 85.5089L157.729 82.8619C157.776 82.7758 157.801 82.6814 157.809 82.5842C157.817 82.4842 157.804 82.3897 157.77 82.2953C157.74 82.2036 157.69 82.1203 157.62 82.0481C157.554 81.9759 157.476 81.9203 157.384 81.8815L156.448 81.4704L157.362 79.9289C157.415 79.84 157.448 79.7455 157.459 79.6428C157.47 79.54 157.459 79.44 157.426 79.3428C157.395 79.2456 157.345 79.1595 157.276 79.0845C157.206 79.0095 157.123 78.9512 157.029 78.9123L155.704 78.3512L156.743 76.532C156.793 76.4431 156.823 76.3459 156.831 76.2431C156.84 76.1403 156.829 76.0403 156.795 75.9431C156.759 75.8459 156.706 75.7626 156.637 75.6876C156.565 75.6126 156.481 75.5571 156.387 75.5209L155.187 75.046L156.981 70.3437L157.69 69.9076L157.973 70.6464L156.731 73.4128C156.693 73.5045 156.67 73.6017 156.67 73.7045C156.67 73.8044 156.693 73.9017 156.731 73.9933C156.773 74.0877 156.831 74.1655 156.909 74.235C156.984 74.3016 157.07 74.3488 157.168 74.3794L158.384 74.7627ZM18.4585 18.8291L18.2363 18.5847C49.9999 21.0511 79.8193 22.501 108.714 22.9454C108.714 25.6535 108.7 28.8476 108.68 32.3278C96.7066 32.3139 85.5215 32.2028 75.1225 31.9917C75.0114 31.9168 74.8864 31.8834 74.7531 31.8918C73.4227 31.9056 56.2299 31.4585 56.0549 31.4557C56.016 31.4529 55.9771 31.4557 55.9382 31.4612C46.4753 31.1196 37.8927 30.678 30.1851 30.1364C29.4685 30.0753 26.8521 28.0588 18.4585 18.8291ZM75.4364 33.4222C85.7326 33.6249 96.8121 33.736 108.672 33.7471C108.658 36.2191 108.642 38.8105 108.625 41.4575C108.605 44.5211 108.589 47.6264 108.572 50.6705C98.5009 50.6233 86.7131 50.5678 74.7726 50.5428C74.9753 45.3016 75.1947 39.6382 75.4364 33.4222ZM117.441 23.0732C122.29 23.0898 127.695 23.1065 129.72 23.1037L130.015 64.0193C125.532 64.1026 115.074 64.047 109.947 64.0109C109.95 57.3282 109.997 49.2679 110.047 41.4658C110.089 34.5498 110.13 28.0005 110.133 23.0509C111.7 23.0537 114.452 23.0648 117.441 23.0732ZM21.0916 64.3859C20.8249 62.3139 20.8416 57.9365 21.1416 52.0982C31.6517 52.0093 42.5978 51.9621 54.5412 51.951C54.3856 55.7367 54.2162 59.9169 54.0356 64.3526L21.0916 64.3859ZM51.5914 146.839C53.2885 146.928 57.0881 146.972 60.8628 146.972C64.4735 146.972 68.0426 146.931 69.7008 146.847L68.3121 180.072C64.3985 180.072 58.013 180.072 52.908 180.072H50.1055L51.5914 146.839ZM71.184 184.183C71.234 185.216 71.2868 186.249 71.3451 187.285C71.3923 188.194 71.4395 189.102 71.4868 190.01C71.5173 190.441 71.4618 190.86 71.3201 191.265C71.1785 191.674 70.9646 192.038 70.6757 192.36C70.2785 192.796 69.7841 193.024 69.1953 193.035C63.6236 193.049 54.4884 193.04 47.8029 193.032C47.1835 193.018 46.6725 192.774 46.2697 192.301C45.9809 191.96 45.7698 191.574 45.6392 191.143C45.5087 190.716 45.4698 190.277 45.5226 189.83C45.7225 187.857 45.9642 185.652 46.1642 183.93C46.3253 182.541 47.303 181.491 48.439 181.491H52.908C58.2686 181.491 65.0457 181.491 68.887 181.491C70.1036 181.491 71.1118 182.675 71.184 184.183ZM71.8895 89.3696C71.3173 104.799 70.7229 120.75 69.7591 145.431C66.9289 145.575 54.6161 145.581 51.672 145.439C53.0996 124.961 56.3854 41.552 56.7187 32.9111C62.2015 33.1055 67.9677 33.2639 74.0171 33.3916C73.0533 58.0254 72.4617 73.9544 71.8895 89.3696ZM74.7198 51.9649C86.677 51.9899 98.4786 52.0426 108.567 52.0926C108.544 56.4117 108.528 60.5751 108.528 64.3026L74.2476 64.3359C74.3948 60.4529 74.5504 56.3561 74.7198 51.9649ZM131.437 64.2803L131.351 52.2093C145.802 52.2843 158.073 52.337 170.488 52.3648C170.652 56.5727 170.802 60.5085 170.941 64.2415L131.437 64.2803ZM173.302 89.3141C172.727 73.8961 172.136 57.9559 171.172 33.3083C174.319 33.2555 185.509 32.9694 188.473 32.8944C188.806 41.4353 192.084 124.763 193.517 145.37H175.432C174.469 120.694 173.874 104.74 173.302 89.3141ZM196.886 181.505C198.022 181.505 199 182.555 199.161 183.947C199.355 185.622 199.597 187.827 199.802 189.846C199.855 190.291 199.816 190.729 199.686 191.16C199.555 191.59 199.344 191.977 199.055 192.318C198.652 192.79 198.141 193.032 197.522 193.046C187.706 193.06 180.51 193.063 176.132 193.051C175.541 193.038 175.046 192.813 174.649 192.374C174.36 192.054 174.146 191.688 174.005 191.282C173.863 190.874 173.808 190.454 173.838 190.024C173.883 189.113 173.93 188.202 173.98 187.291C174.035 186.258 174.091 185.227 174.138 184.197C174.213 182.691 175.221 181.508 176.438 181.508C180.279 181.508 187.056 181.508 192.417 181.508L196.886 181.505ZM192.417 180.086C187.254 180.086 180.785 180.089 176.882 180.086L175.488 146.789H193.595L194.853 180.086H192.417ZM224.136 52.2287C224.119 53.262 224.078 54.8979 224.036 56.6089C223.944 60.2113 223.883 62.8833 223.892 64.1915L191.153 64.222C190.981 60.0002 190.82 56.0145 190.673 52.3759C202.577 52.3676 213.545 52.3176 224.133 52.2315L224.136 52.2287ZM170.436 50.9427C158.034 50.9177 145.777 50.8622 131.339 50.7872L131.217 33.661C144.68 33.5499 157.704 33.3416 169.744 33.0861C169.997 39.5966 170.227 45.4988 170.436 50.9455V50.9427ZM213.695 30.453C194.036 31.1224 163.909 31.9668 131.206 32.2417L131.142 23.0843C162.836 22.9898 193.706 21.6455 225.122 19.0513L213.695 30.453ZM238.835 8.40511C236.421 11.802 233.702 15.6266 232.677 16.9821C230.883 17.1404 229.091 17.2959 227.302 17.4459L227.019 17.1598L226.68 17.5015C156.943 23.3537 90.035 23.0537 10.8314 16.571C10.5842 16.1544 10.1676 15.4655 9.64542 14.599C7.98725 11.8576 3.96263 5.21374 2.75997 2.67787C44.6532 7.8496 86.7048 10.4716 128.917 10.541C168.65 10.541 206.904 8.06069 242.618 3.10283C241.707 4.3666 240.337 6.29142 238.835 8.40511Z" fill="white" stroke="white"/>
</g>
<path d="M112.225 61.7416C114.875 61.7639 118.722 61.7889 122.041 61.7889C124.43 61.7889 126.549 61.775 127.757 61.7361C127.949 61.7305 128.113 61.6583 128.246 61.5194C128.379 61.3806 128.446 61.2167 128.446 61.0223L128.226 25.6506C128.224 25.4534 128.151 25.284 128.01 25.1479C127.868 25.009 127.699 24.9424 127.501 24.9451C126.857 24.959 122.258 24.9396 118.2 24.9229C115.647 24.9146 113.322 24.9062 112.367 24.9062C112.272 24.9062 112.184 24.9229 112.095 24.959C112.009 24.9951 111.934 25.0479 111.867 25.1146C111.8 25.1784 111.747 25.2562 111.711 25.3423C111.675 25.4312 111.659 25.5201 111.659 25.6145C111.659 29.8086 111.628 35.533 111.595 41.5936C111.559 48.3457 111.522 55.3284 111.522 61.0306C111.522 61.225 111.589 61.3917 111.728 61.5305C111.864 61.6694 112.031 61.7389 112.225 61.7416ZM113.014 41.6019C113.045 35.8719 113.075 30.4502 113.078 26.3256C114.239 26.3283 116.141 26.3367 118.191 26.345C121.524 26.3589 125.221 26.3783 126.807 26.37L127.018 60.3362C123.885 60.3973 117.225 60.3612 112.939 60.3279C112.945 54.7645 112.981 48.0763 113.014 41.6019Z" fill="white" stroke="white"/>
<path d="M117.853 35.5062H121.497C121.775 35.5062 122.041 35.4534 122.3 35.3451C122.555 35.2395 122.783 35.0896 122.977 34.8924C123.175 34.6952 123.327 34.4702 123.433 34.2119C123.538 33.9563 123.591 33.6897 123.591 33.4092V33.3314C123.591 33.0536 123.538 32.787 123.433 32.5287C123.327 32.2732 123.175 32.0454 122.977 31.851C122.783 31.6538 122.555 31.501 122.3 31.3955C122.041 31.2899 121.775 31.2344 121.497 31.2344H117.853C117.575 31.2344 117.306 31.2899 117.05 31.3955C116.792 31.501 116.567 31.6538 116.37 31.851C116.172 32.0454 116.023 32.2732 115.917 32.5287C115.809 32.787 115.756 33.0536 115.756 33.3314V33.4092C115.756 33.6869 115.809 33.9563 115.917 34.2119C116.023 34.4674 116.172 34.6952 116.37 34.8924C116.567 35.0896 116.792 35.2395 117.05 35.3451C117.306 35.4534 117.575 35.5062 117.853 35.5062ZM117.175 33.3314C117.175 33.1453 117.242 32.9842 117.375 32.8537C117.506 32.7203 117.664 32.6565 117.853 32.6537H121.497C121.683 32.6565 121.841 32.7203 121.975 32.8537C122.105 32.9842 122.172 33.1453 122.172 33.3314V33.4092C122.172 33.5953 122.105 33.7564 121.975 33.8869C121.841 34.0202 121.683 34.0869 121.497 34.0869H117.853C117.664 34.0869 117.506 34.0202 117.375 33.8869C117.242 33.7564 117.175 33.5953 117.175 33.4092V33.3314Z" fill="white" stroke="white"/>
<path d="M121.808 39.7812H118.161C117.883 39.784 117.616 39.8368 117.361 39.9423C117.102 40.0479 116.877 40.2007 116.68 40.3979C116.483 40.5923 116.333 40.82 116.225 41.0756C116.119 41.3339 116.066 41.6005 116.066 41.8783V41.9588C116.066 42.2366 116.119 42.5032 116.225 42.7615C116.33 43.0171 116.483 43.2448 116.68 43.442C116.875 43.6364 117.102 43.7892 117.358 43.8947C117.616 44.0031 117.883 44.0558 118.161 44.0558H121.808C122.085 44.0558 122.352 44.0031 122.607 43.8947C122.866 43.7892 123.091 43.6392 123.288 43.442C123.485 43.2448 123.635 43.0198 123.741 42.7615C123.849 42.506 123.902 42.2393 123.902 41.9616V41.8783C123.902 41.6005 123.849 41.3339 123.741 41.0756C123.635 40.82 123.485 40.5923 123.288 40.3979C123.091 40.2007 122.866 40.0479 122.607 39.9423C122.352 39.8368 122.085 39.784 121.808 39.7812ZM122.482 41.9588C122.482 42.1477 122.416 42.306 122.285 42.4366C122.152 42.5699 121.994 42.6365 121.808 42.6365H118.161C117.975 42.6365 117.816 42.5699 117.683 42.4393C117.552 42.306 117.486 42.1477 117.486 41.9616V41.8783C117.486 41.6922 117.552 41.5339 117.683 41.4005C117.816 41.27 117.975 41.2033 118.161 41.2033H121.808C121.994 41.2033 122.152 41.27 122.285 41.4005C122.416 41.5339 122.482 41.6922 122.482 41.8783V41.9588Z" fill="white" stroke="white"/>
<path d="M123.902 52.2998V52.2192C123.902 51.9415 123.846 51.6749 123.741 51.4193C123.635 51.161 123.482 50.936 123.285 50.7388C123.091 50.5416 122.863 50.3916 122.607 50.2833C122.349 50.1778 122.082 50.125 121.805 50.125H118.16C117.883 50.125 117.613 50.1778 117.358 50.2833C117.102 50.3916 116.875 50.5416 116.677 50.7388C116.483 50.936 116.33 51.161 116.225 51.4193C116.116 51.6749 116.063 51.9415 116.063 52.2192V52.2998C116.063 52.5775 116.116 52.8442 116.225 53.0997C116.33 53.358 116.483 53.583 116.677 53.7802C116.875 53.9774 117.102 54.1274 117.358 54.2357C117.613 54.3413 117.883 54.394 118.16 54.394H121.805C122.082 54.394 122.349 54.3413 122.607 54.2357C122.863 54.1274 123.091 53.9774 123.285 53.7802C123.482 53.583 123.635 53.358 123.741 53.0997C123.846 52.8442 123.902 52.5775 123.902 52.2998ZM122.48 52.2998C122.48 52.4859 122.413 52.6442 122.282 52.7775C122.152 52.9081 121.991 52.9747 121.805 52.9747H118.16C117.974 52.9747 117.813 52.9081 117.683 52.7775C117.549 52.6442 117.483 52.4859 117.483 52.2998V52.2192C117.483 52.0332 117.549 51.8748 117.683 51.7415C117.813 51.611 117.974 51.5443 118.16 51.5443H121.805C121.991 51.5443 122.152 51.611 122.282 51.7415C122.413 51.8748 122.48 52.0332 122.48 52.2192V52.2998Z" fill="white" stroke="white"/>
</svg>
