<svg width="246" height="241" viewBox="0 0 246 241" fill="none" xmlns="http://www.w3.org/2000/svg">
<mask id="mask0_206_756" style="mask-type:luminance" maskUnits="userSpaceOnUse" x="0" y="0" width="246" height="241">
<path d="M0.312012 0.277344H245.441V240.739H0.312012V0.277344Z" fill="white"/>
</mask>
<g mask="url(#mask0_206_756)">
<path d="M100.666 144.563C100.13 145.394 99.6899 146.225 99.1503 146.958C95.9212 151.264 92.8378 155.62 89.4146 159.777C86.7709 162.958 84.4726 166.335 82.6111 170.004C81.5833 172.011 80.4584 173.97 79.3821 175.925C76.5442 181.064 74.343 186.446 72.8755 192.073C72.5329 193.444 72.3844 194.911 72.2873 196.379C72.1417 199.411 72.0418 202.446 72.1417 205.481C72.2873 210.323 72.5329 215.216 73.3152 220.013C73.3152 220.158 73.3637 220.304 73.3637 220.404C73.4608 221.137 73.8034 221.48 74.54 221.774C76.153 222.359 77.7205 223.093 79.2365 223.875C80.4584 224.464 81.2921 225.491 81.8774 226.765C83.2478 229.651 83.3449 232.586 82.22 235.57C81.1436 238.359 79.1394 239.829 76.2016 240.169C70.5258 240.906 64.8015 241.003 59.1257 239.975C57.9523 239.778 56.776 239.535 55.6026 239.241C53.0102 238.702 50.7091 235.864 50.7576 233.174C50.8575 230.63 51.1002 228.084 51.2972 225.54C51.7369 220.404 52.2765 215.313 52.7162 210.177C52.8618 208.464 52.7162 206.8 51.8854 205.235C51.1488 203.768 50.612 202.249 49.9753 200.733C49.1931 198.874 48.9475 196.867 48.7534 194.911C48.2623 189.578 49.1931 184.536 51.5428 179.694C52.325 178.078 52.8132 176.365 53.4499 174.652C53.9381 173.333 53.9895 172.011 53.9381 170.641C53.8896 164.377 53.744 158.116 53.1558 151.9C53.1558 151.852 53.1073 151.803 53.1073 151.706C53.0102 151.755 52.9617 151.755 52.9103 151.852C51.2001 154.153 48.8505 155.62 46.3066 156.794C42.6351 158.458 38.7722 159.241 34.8066 159.632C31.0408 159.974 27.2237 159.729 23.455 159.583C21.1082 159.486 18.8071 159.144 16.4602 159.68C14.4046 160.12 12.7401 161.296 11.0757 162.518C9.90224 163.4 8.8259 164.428 7.65249 165.456C7.74956 165.553 7.74956 165.65 7.84663 165.65C10.833 166.481 12.3975 168.685 13.6709 171.277C13.8165 171.571 13.9621 171.914 14.062 172.208C14.4046 173.039 14.7958 173.773 15.7236 174.164C16.1176 174.312 16.6544 174.946 16.6058 175.289C16.5088 175.925 15.775 175.974 15.2354 175.877C14.2562 175.731 13.2797 175.389 12.3005 175.143C12.1035 175.095 11.9093 174.946 11.6638 174.946C12.5431 176.171 13.6709 177.099 15.1384 177.541C16.6058 177.981 18.0733 178.275 19.5408 178.618C20.0319 178.715 20.5686 178.86 21.0597 178.96C21.5964 179.106 21.5964 179.448 21.3509 179.84C21.2053 180.037 20.9597 180.231 20.7171 180.379C20.0319 180.77 19.3467 181.113 18.6615 181.456C17.6822 181.944 16.6058 182.189 15.5295 181.992C14.0135 181.75 12.5431 181.553 11.0757 181.161C9.26557 180.67 7.50403 179.988 5.74248 179.303C3.88386 178.569 2.61052 177.15 1.77971 175.389C0.0181564 171.766 -0.030379 168.048 1.38857 164.328C1.6341 163.743 1.73117 163.106 1.9767 162.518C2.46491 161.345 2.80751 160.071 3.54125 159.095C6.86736 154.496 11.1242 151.118 16.8514 149.993C18.8071 149.602 20.8627 149.454 22.8698 149.405C25.8047 149.356 28.7397 149.454 31.6775 149.553C34.5639 149.651 37.4018 149.454 40.2397 148.917C44.6422 148.083 48.0682 145.688 50.9061 142.359C51.4428 141.722 51.9824 141.137 52.5192 140.5C52.6676 140.303 52.7647 140.061 52.7647 139.815C52.7162 135.461 52.6676 131.107 52.5706 126.75C52.4221 120.978 53.0588 115.253 54.1351 109.577C55.5055 102.531 57.3641 95.5821 60.202 88.9785C61.9636 84.9643 63.9221 81.0501 66.563 77.527C69.3524 73.7098 72.924 70.6778 76.7897 67.9855C81.0466 65.002 85.646 62.7522 90.7822 61.8215C93.72 61.2819 96.752 61.0878 99.7384 60.8908C105.314 60.4996 110.844 60.3055 116.423 59.9143C119.31 59.7174 122.196 59.2777 125.082 58.9836C125.916 58.8865 126.747 58.7866 127.626 58.641C127.678 57.9073 127.726 56.928 127.823 56.0486C128.411 51.6433 130.173 47.6806 132.911 44.1575C135.749 40.5373 138.687 36.9657 141.622 33.394C141.767 33.197 141.916 33.0029 142.061 32.7574C139.372 32.5118 136.434 34.3219 135.652 36.8172C135.506 37.3568 135.555 37.9421 135.603 38.5302C135.652 39.1184 135.506 39.3125 134.918 39.1184C134.136 38.8728 133.745 38.2362 133.548 37.551C133.108 36.0349 133.108 34.5189 133.499 33.0029C134.378 29.771 136.337 27.2272 138.784 25.026C139.32 24.4864 139.909 23.9982 140.497 23.51C140.791 23.2644 140.791 23.0674 140.642 22.7762C140.397 22.2366 140.203 21.6485 139.957 21.1117C139.272 19.5472 139.32 17.9312 139.957 16.3667C140.448 15.239 140.936 14.1626 141.573 13.1348C143.335 10.2969 146.661 10.0542 148.813 10.6395C150.623 11.1306 152.091 12.0585 153.316 13.3803C153.461 13.5288 153.61 13.7229 153.804 13.9199C153.952 13.7715 154.001 13.7229 154.049 13.6259C155.665 11.3733 157.915 10.0542 160.556 9.27195C161.047 9.12349 161.584 8.87796 161.975 8.53536C164.47 6.57967 167.408 5.943 170.489 5.79739C170.686 5.79739 170.883 5.79739 171.125 5.79739C171.174 5.79739 171.225 5.74886 171.274 5.69747C171.028 4.52405 171.028 3.3021 171.616 2.17437C171.811 1.73469 172.056 1.34356 172.399 0.952418C173.035 0.170143 173.378 0.267213 173.818 1.14941C174.697 3.00803 176.264 4.18145 178.123 5.06365C177.829 4.52405 177.486 3.98731 177.192 3.44771C177.047 3.20218 176.901 3.00803 176.801 2.71397C176.607 2.12583 176.801 1.73469 177.438 1.68616C180.373 1.44063 183.311 1.39209 186.197 2.02876C188.544 2.56836 190.454 3.79031 191.873 5.74886C191.97 5.84593 192.018 5.943 192.167 6.09146C193.78 4.22998 195.836 3.54478 198.234 3.74178C198.379 3.74178 198.576 3.69324 198.771 3.59331C201.072 2.46844 203.273 2.7625 205.132 4.52405C205.571 4.96373 205.965 5.06365 206.55 4.91519C209.194 4.22998 212.814 5.84593 213.794 7.95008C213.891 8.14422 214.136 8.29268 214.379 8.34122C217.317 9.36903 219.37 11.3247 220.397 14.3596C220.74 15.3874 221.131 16.3667 221.525 17.3916C222.993 17.1004 224.363 16.7093 225.782 16.5123C227.641 16.2182 229.499 15.9242 231.358 15.7786C233.462 15.6301 235.175 16.5608 236.545 18.1768C239.186 21.3059 239.529 24.829 238.061 28.5491C237.134 30.8474 235.615 32.7574 233.853 34.4218C233.316 34.9586 232.583 35.3012 231.946 35.7894C231.946 35.8408 231.946 35.9379 231.994 35.9864C232.825 37.8936 232.631 39.9006 232.24 41.8592C232.191 42.1989 232.191 42.5929 232.337 42.8841C233.953 46.5072 234.881 50.3215 234.981 54.3356C234.981 55.0694 235.078 55.7546 235.126 56.4398C235.321 60.06 237.964 61.7244 240.851 62.1641C241.048 62.2126 241.242 62.3097 241.487 62.3582C241.39 62.5552 241.339 62.8008 241.193 62.9464C240.46 63.7772 239.432 64.0713 238.404 63.8771C237.622 63.7287 236.839 63.486 235.909 63.2404C236.203 63.9742 236.4 64.7565 236.839 65.3931C237.867 67.0091 239.238 68.2796 240.802 69.4044C242.173 70.3837 243.592 70.5293 245.156 69.847C245.499 70.2866 245.353 70.6778 245.108 71.0689C245.011 71.2145 244.862 71.4115 244.716 71.5086C242.367 72.7819 240.02 74.0039 237.231 72.879C236.691 72.6849 236.203 72.3908 235.566 72.0967C236.4 73.5642 237.279 74.8376 238.552 75.7169C239.432 76.305 240.508 76.7447 241.487 77.2329C241.781 77.3814 242.124 77.4784 242.418 77.6269C242.612 77.724 242.906 77.9667 242.906 78.1151C242.858 78.3606 242.661 78.6033 242.467 78.7518C241.39 79.437 240.46 80.4648 239.041 80.4134C237.767 80.3163 236.497 80.2193 235.126 80.1222C235.223 79.9737 235.175 80.0223 235.175 80.0708C236.154 83.7424 235.566 87.314 234.099 90.74C233.462 92.2075 232.825 93.675 232.092 95.0939C231.309 96.6585 231.358 98.126 231.946 99.7904C234.296 106.006 233.413 111.779 229.302 117.063C229.059 117.406 228.814 117.797 228.717 118.188C227.883 121.76 226.71 125.234 224.312 128.072C223.775 128.758 222.944 129.197 222.259 129.737C222.11 129.834 221.916 129.979 221.865 130.176C220.84 134.236 220.106 138.299 220.594 142.507C220.691 143.338 220.788 144.269 221.574 144.903C222.062 145.297 222.356 145.982 222.65 146.567C222.747 146.716 222.55 147.155 222.404 147.252C221.671 147.692 220.888 147.643 220.252 147.155C219.518 146.616 218.881 145.982 218.196 145.345C218.196 145.345 218.148 145.394 218.099 145.442C216.926 150.972 214.967 156.257 213.157 161.59C210.956 168.145 208.703 174.652 206.99 181.356C205.377 187.717 203.664 194.078 202.833 200.636C202.197 205.578 201.903 210.52 202.197 215.51C202.245 216.341 202.342 217.223 202.491 218.054C202.539 218.251 202.685 218.542 202.882 218.594C205.817 219.961 207.921 222.214 209.537 224.952C210.759 227.007 210.662 229.16 210.271 231.364C209.682 234.836 207.481 236.746 204.252 237.725C200.875 238.75 197.352 238.702 193.877 238.653C190.697 238.605 187.616 237.968 184.63 236.989C183.653 236.649 182.722 236.158 181.743 235.718C181.743 235.718 181.695 235.767 181.695 235.815C180.961 237.186 179.982 238.068 178.32 238.31C176.459 238.605 174.648 239.193 172.838 239.632C172.593 239.681 172.35 239.778 172.105 239.778C168.385 240.072 164.716 240.906 160.947 240.318C158.552 239.926 156.448 239.044 154.589 237.48C152.925 236.061 151.945 234.251 151.8 232.049C151.7 230.188 151.212 228.378 150.918 226.568C150.332 222.996 150.038 219.376 149.696 215.756C148.765 206.017 147.1 196.379 144.899 186.886C144.557 185.418 144.214 183.951 143.92 182.432C143.432 179.988 142.307 177.784 141.182 175.631C141.182 175.631 141.182 175.583 141.133 175.583C140.888 175.486 140.594 175.289 140.448 175.337C139.811 175.631 138.784 174.849 138.441 175.828C136.825 180.182 133.987 183.56 130.367 186.398C128.069 188.159 125.816 190.018 123.469 191.779C122.587 192.464 122.147 193.344 122.05 194.42C121.805 197.21 121.95 199.999 122.684 202.74C123.321 204.989 123.518 207.388 124.103 209.686C124.84 212.721 125.768 215.704 126.601 218.691C126.698 219.033 126.844 219.327 126.992 219.619C127.432 220.404 128.02 220.795 128.997 220.746C130.807 220.646 132.617 220.892 134.33 221.529C135.261 221.871 136.14 222.311 136.777 223.093C136.974 223.29 137.168 223.484 137.413 223.633C138.784 224.367 139.663 225.491 139.957 226.959C140.203 228.281 140.348 229.603 140.448 230.922C140.545 232.538 139.763 233.76 138.441 234.69C136.534 236.012 134.33 236.649 132.08 237.04C127.432 237.871 122.736 238.016 118.085 236.843C115.247 236.158 112.852 234.69 110.844 232.538C110.159 231.804 109.768 230.825 109.28 229.894C108.546 228.623 108.007 227.253 107.81 225.785C107.127 220.013 105.414 214.531 103.553 209.101C102.819 206.997 102.234 204.795 101.351 202.74C99.6899 198.825 97.8284 194.96 96.1154 191.094C94.8449 188.159 94.7478 185.076 95.6272 182.041C96.1154 180.428 96.7035 178.812 97.5343 177.393C100.03 173.185 101.351 168.634 102.379 163.937C103.31 159.777 103.359 155.52 103.407 151.264C103.407 151.021 103.359 150.775 103.261 150.53C102.476 148.623 101.694 146.716 100.912 144.806C100.766 144.757 100.715 144.709 100.666 144.563ZM127.775 61.576C127.235 61.6245 126.55 61.7244 125.916 61.773C121.414 62.2612 116.96 62.8978 112.46 63.289C107.273 63.7772 102.037 63.9742 96.8006 64.4624C94.3053 64.7079 91.7615 65.002 89.3632 65.6387C83.0022 67.2518 77.6205 70.7749 72.8269 75.1288C66.9542 80.4648 62.9429 87.117 59.908 94.3117C57.9523 98.9111 56.9245 103.853 56.0908 108.744C55.2115 114.177 54.7232 119.607 55.0145 125.137C55.26 129.737 55.457 134.288 55.6997 138.884C55.8967 143.093 56.1422 147.252 56.3363 151.461C56.4848 154.444 56.776 157.431 56.776 160.365C56.776 164.719 56.5819 169.076 56.3849 173.43C56.2878 175.925 55.7996 178.421 54.8689 180.722C53.547 184.145 52.325 187.571 52.128 191.24C51.9339 194.763 51.9339 198.286 53.2044 201.663C53.8896 203.473 54.2807 205.429 54.5748 207.388C54.8689 209.198 55.0145 211.056 54.9659 212.866C54.9174 217.417 54.7232 221.92 54.6233 226.471C54.5748 228.623 54.4292 230.776 54.3806 232.929C54.3293 234.251 54.8203 234.936 56.0423 235.424C56.3363 235.521 56.6304 235.718 56.9245 235.815C57.8524 236.109 58.7831 236.5 59.7138 236.649C61.4754 236.891 63.2369 236.989 64.9985 237.088C65.5838 237.137 66.1719 237.088 66.6601 237.088C66.366 236.109 66.0234 235.13 65.8293 234.151C65.2897 231.901 64.4103 229.845 63.0399 227.987C62.6973 227.498 62.3062 227.056 61.9636 226.568C61.8665 226.374 61.7666 226.031 61.8665 225.883C62.0121 225.688 62.3547 225.54 62.5517 225.637C63.0885 225.834 63.6766 226.08 64.1163 226.422C65.5352 227.498 66.563 228.917 67.2968 230.482C68.3246 232.586 69.0098 234.739 68.3246 237.137C70.2831 237.04 72.1903 236.94 74.1974 236.843C74.0489 234.787 73.9518 232.783 73.7548 230.776C73.6092 229.309 73.0211 228.084 71.7506 227.301C71.5536 227.156 71.3595 226.765 71.408 226.568C71.4565 226.374 71.8477 226.274 72.0932 226.177C72.1903 226.128 72.3844 226.177 72.4843 226.177C74.0974 226.322 75.1252 227.399 75.6648 228.769C76.153 229.945 76.4471 231.264 76.6926 232.538C76.9353 233.859 76.9353 235.178 77.0838 236.5C77.8661 236.549 78.5027 236.306 78.8939 235.67C79.2365 235.081 79.6276 234.445 79.8731 233.76C80.6069 231.804 80.1158 229.894 79.4791 227.987C79.0395 226.665 78.1116 225.834 76.8383 225.394C75.5164 224.955 74.146 224.561 72.8269 224.218C71.8477 223.975 71.211 223.436 70.9655 222.508C70.7228 221.577 70.5258 220.598 70.4287 219.619C70.1347 216.438 69.8406 213.26 69.6465 210.08C69.4009 205.723 69.2039 201.321 69.1554 196.964C69.1069 195.351 69.2553 193.638 69.6465 192.073C71.1139 185.955 73.4122 180.085 76.35 174.506C76.9353 173.382 77.5235 172.305 78.1116 171.229C77.8175 171.277 77.6691 171.474 77.4749 171.62C76.3015 172.648 75.1738 173.724 73.9518 174.703C72.8269 175.583 71.6021 176.316 70.4287 177.05C70.0376 177.296 69.5979 177.344 69.1554 177.493C69.1069 177.393 69.0583 177.344 69.0098 177.247C69.5465 176.414 69.9891 175.486 70.6743 174.752C73.0211 172.208 75.3222 169.713 77.769 167.266C81.3406 163.743 84.9123 160.268 87.9443 156.257C90.294 153.174 92.5951 149.993 94.8934 146.861C96.4094 144.854 97.9283 142.801 98.8077 140.403C98.9047 140.109 98.9533 139.766 98.8562 139.521C98.171 137.614 97.5343 135.707 96.752 133.845C95.1875 129.931 93.2775 126.165 90.7822 122.691C89.7058 121.223 88.3868 120.195 86.6253 119.656C85.7916 119.413 85.0093 119.167 84.2271 118.825C84.0301 118.776 83.933 118.482 83.7874 118.334C83.9815 118.237 84.13 118.043 84.3241 117.994C84.4726 117.943 84.6182 117.943 84.8152 117.943C87.8958 117.943 90.6851 118.728 92.6922 121.272C94.1597 123.13 95.5786 125.089 96.852 127.093C99.1503 130.765 100.766 134.776 102.379 138.787C104.875 145.148 107.615 151.412 111.09 157.333C112.752 160.171 114.662 162.764 117.008 165.062C117.745 165.796 118.624 166.581 119.555 167.021C122.344 168.242 125.131 169.516 128.02 170.395C131.492 171.474 135.164 171.571 138.784 171.523C138.881 171.523 138.929 171.474 139.126 171.474C138.978 171.18 138.881 170.935 138.735 170.689C136.534 166.481 134.281 162.275 132.765 157.725C132.326 156.403 131.835 154.984 131.835 153.613C131.786 150.384 132.032 147.107 132.177 143.878C132.277 142.459 132.326 140.988 132.62 139.569C133.302 135.949 134.087 132.329 134.772 128.709C135.115 127.044 135.358 125.431 135.652 123.767C135.7 123.57 135.946 123.424 136.091 123.227C136.24 123.424 136.483 123.57 136.534 123.767C136.631 124.404 136.777 125.037 136.728 125.674C136.582 128.169 136.534 130.713 136.14 133.208C135.164 139.227 134.772 145.345 134.672 151.412C134.624 152.831 134.869 154.347 135.358 155.717C137.316 161.393 140.348 166.581 142.992 171.914C144.557 175.046 146.318 178.029 147.152 181.504C147.494 183.069 147.934 184.587 148.325 186.152C149.744 192.267 151.115 198.383 151.994 204.55C152.876 210.814 153.658 217.075 154.441 223.387C154.589 224.709 154.783 226.031 154.735 227.35C154.638 229.357 155.029 231.264 155.762 233.126C156.202 234.202 157.084 235.033 158.258 235.767C157.718 232.732 158.161 229.894 158.795 227.107C158.894 226.713 159.237 226.374 159.48 226.031C159.628 226.422 159.871 226.813 159.922 227.253C160.068 228.869 159.971 230.531 160.213 232.098C160.41 233.468 160.85 234.787 161.29 236.109C161.438 236.5 161.829 237.04 162.221 237.088C164.57 237.577 166.968 237.48 169.364 237.331C169.364 237.04 169.315 236.794 169.315 236.549C169.315 232.783 169.07 229.112 167.114 225.785C167.017 225.637 167.017 225.346 167.114 225.246C167.211 225.149 167.554 225.1 167.651 225.197C168.287 225.637 168.973 226.08 169.412 226.665C170.637 228.232 171.371 230.042 171.811 231.949C172.25 233.76 172.447 235.57 172.25 237.528C172.987 237.383 173.669 237.283 174.354 237.186C175.04 237.088 175.431 236.843 175.334 236.061C175.285 235.67 175.431 235.278 175.431 234.887C175.579 231.558 175.285 228.232 174.012 225.1C173.963 224.952 174.012 224.709 173.963 224.512C174.16 224.512 174.406 224.415 174.503 224.512C175.088 225.1 175.773 225.588 176.116 226.274C177.438 229.014 178.369 231.901 178.417 234.984C178.417 235.081 178.466 235.178 178.514 235.23C178.76 234.936 178.905 234.593 178.954 234.299C179.396 232.098 179.248 229.894 178.711 227.693C178.123 225.294 176.901 223.436 174.648 222.359C173.963 222.017 173.278 221.626 172.593 221.283C172.202 221.137 171.762 221.038 171.371 220.94C171.077 220.892 170.783 220.892 170.489 220.843C170.637 220.549 170.734 220.255 170.883 219.961C170.931 219.816 171.125 219.719 171.174 219.57C171.225 219.424 171.322 219.179 171.274 219.033C170.589 216.244 169.855 213.455 169.267 210.617C167.651 202.543 166.82 194.372 166.723 186.152C166.626 177.393 167.36 168.634 168.63 159.974C168.779 158.995 168.63 158.213 168.093 157.382C167.017 155.669 166.38 153.759 166.38 151.706C166.38 149.945 166.526 148.183 166.674 146.422C166.82 144.22 167.017 141.968 167.211 139.766C167.211 139.521 167.211 139.327 167.163 139.081C166.917 139.718 166.771 140.355 166.574 140.988C166.38 141.674 166.283 142.359 165.989 142.947C165.647 143.632 165.207 144.366 164.619 144.903C163.982 145.491 163.297 145.197 163.248 144.317C163.2 143.535 163.345 142.75 163.494 141.919C163.64 140.794 164.031 139.766 163.737 138.593C162.954 134.922 161.438 131.547 159.48 128.366C156.887 124.158 154.344 119.901 151.751 115.693C151.7 115.596 151.603 115.547 151.554 115.447C151.506 115.447 151.457 115.496 151.357 115.496C151.603 117.552 151.751 119.656 152.094 121.711C152.533 124.598 153.707 127.142 155.811 129.197C156.399 129.785 156.936 130.422 157.427 131.056C157.77 131.447 158.061 131.938 158.403 132.426C158.161 132.475 158.061 132.475 158.012 132.475C157.915 132.475 157.77 132.475 157.67 132.426C154.686 131.447 152.385 129.688 150.869 126.847C150.623 126.408 150.281 125.968 149.938 125.626C146.024 121.857 143.677 117.357 143.335 111.876C143.238 110.505 143.432 109.135 143.48 107.667C143.383 108.11 143.238 108.401 143.186 108.744C142.795 111.191 142.307 113.637 142.061 116.084C141.867 118.188 141.767 120.389 143.529 122.151C143.383 122.251 143.286 122.348 143.186 122.397C142.355 122.739 141.279 122.397 140.691 121.417C140.3 120.732 139.909 119.998 139.811 119.216C139.614 117.846 138.978 116.866 138.147 115.79C136.24 113.392 135.458 110.554 135.946 107.473C135.994 107.082 136.043 106.591 135.849 106.297C134.918 104.781 134.381 103.117 134.281 101.358C134.233 100.427 133.89 99.6934 133.402 98.9596C131.883 96.61 131.395 93.9691 131.64 91.1797C131.883 88.6844 132.52 86.2377 133.745 84.0364C134.624 82.469 135.603 81.0015 136.534 79.4855C136.68 79.2885 136.777 79.0944 136.925 78.8974C136.582 78.9459 136.337 79.0944 136.091 79.24C134.136 80.4134 132.032 81.1985 129.782 81.3927C129.145 81.4412 128.411 81.2956 127.775 81.0501C127.529 80.953 127.284 80.4134 127.284 80.0708C127.284 79.6797 127.578 79.3371 128.069 79.2885C128.363 79.24 128.703 79.0459 128.851 78.8003C129.439 78.018 129.927 77.1358 130.367 76.4506C130.024 75.4714 129.633 74.592 129.388 73.6613C128.803 71.166 128.803 68.6707 129.291 66.1754C129.339 65.8328 129.488 65.4417 129.388 65.1961C128.803 64.1198 128.311 62.8978 127.775 61.576ZM229.205 112.561C229.254 112.512 229.254 112.464 229.305 112.464C229.354 112.315 229.402 112.218 229.451 112.073C230.624 108.256 230.821 104.39 229.793 100.476C229.205 98.323 229.499 96.2674 230.576 94.2117C232.143 91.2768 233.119 88.1448 232.825 84.7702C232.68 83.2513 232.434 81.7353 232.092 80.2193C231.603 78.1637 230.967 76.208 230.039 74.2494C229.157 72.4879 228.668 70.5293 228.032 68.6222C227.983 68.4766 228.08 68.231 228.129 68.034C228.326 68.134 228.568 68.1825 228.668 68.3281C228.962 68.6707 229.157 69.0618 229.402 69.4044C230.281 70.8719 231.115 72.3908 232.043 73.8583C233.022 75.4228 234.296 76.6962 235.957 77.527C236.4 77.724 236.888 77.9181 237.376 78.0666C235.663 76.6962 234.538 74.9832 233.707 73.0275C232.631 70.4808 231.897 67.8399 231.406 65.1476C231.309 64.7565 231.406 64.3653 231.406 63.9257C231.458 63.9257 231.555 63.8771 231.603 63.8771C231.749 64.0713 231.946 64.2683 232.092 64.4624C232.583 65.2961 233.022 66.1269 233.51 66.9092C234.441 68.428 235.615 69.6985 237.231 70.4808C237.67 70.6778 238.11 70.8234 238.552 70.9718C235.763 68.428 234.244 65.1961 233.219 61.773C232.631 59.863 232.583 57.7588 232.386 55.706C232.24 53.8446 232.337 51.9859 232.092 50.1273C231.358 44.5486 229.108 39.6066 225.045 35.6438C224.363 35.0071 223.481 34.5675 222.699 33.9793C222.453 33.8337 222.307 33.5882 222.062 33.394C222.356 33.2941 222.601 33.1 222.893 33.1C224.166 33.1 225.194 33.7366 226.073 34.5675C227.444 35.8893 228.668 37.3568 229.939 38.7758C230.087 38.9214 230.184 39.0698 230.381 39.3125C230.43 39.0698 230.43 38.9214 230.43 38.7758C230.43 36.9657 229.939 35.3983 228.277 34.3705C227.201 33.7366 226.367 32.8059 225.731 31.7296C224.509 29.8224 223.287 27.9124 221.965 26.0538C220.397 23.9011 218.345 22.2366 215.798 21.3087C213.108 20.378 210.465 20.0839 207.775 21.3573C207.675 21.4058 207.481 21.3573 207.333 21.4058C207.333 21.2573 207.236 20.9661 207.333 20.9147C207.872 20.4265 208.361 19.7899 208.997 19.4958C210.513 18.665 212.226 18.665 213.891 18.862C214.33 18.9105 214.77 18.9105 215.164 18.862C216.141 18.665 217.071 18.468 218.051 18.2253C218.93 18.0283 219.812 17.8342 220.74 17.6372C220.349 16.952 220.055 16.4152 219.764 15.8271C218.687 13.7229 217.071 12.1584 215.064 10.9336C212.326 9.27195 209.388 9.51463 206.893 11.5217C206.747 11.6188 206.599 11.7159 206.453 11.8158C206.405 11.7672 206.356 11.7159 206.308 11.6188C206.699 10.4454 207.627 9.6117 208.655 9.07496C209.682 8.53536 210.856 8.19276 211.932 7.80162C210.513 7.26487 208.949 7.06788 207.384 7.41048C203.91 8.14422 201.266 10.1028 199.407 13.1862C198.87 12.8921 198.771 12.4524 198.87 11.9614C198.968 11.4246 199.162 10.885 199.407 10.4454C200.532 8.58675 201.951 7.01934 203.861 5.943C204.007 5.84593 204.204 5.74886 204.398 5.6004C202.491 4.86665 200.826 5.16072 199.31 6.33414C197.988 7.31341 197.058 8.58675 196.375 10.1028C196.227 10.3968 195.933 10.591 195.69 10.885C195.542 10.5424 195.299 10.1998 195.247 9.85723C195.15 8.58675 195.59 7.41048 196.227 6.33414C196.324 6.18853 196.375 5.99153 196.472 5.84593C196.424 5.79739 196.375 5.74886 196.324 5.64893C195.444 6.23707 194.562 6.8252 193.683 7.41048C193.292 7.65601 193.292 7.99861 193.389 8.48682C193.537 9.41756 193.537 10.3968 193.537 11.3247C193.537 11.6188 193.292 11.8643 193.143 12.1584C193.095 12.2069 192.998 12.2069 192.949 12.2555C190.699 5.55186 185.952 2.7625 179.102 3.15364C179.542 3.98731 179.982 4.81812 180.521 5.64893C180.715 5.943 181.009 6.14 181.352 6.2856C182.722 6.8252 184.093 7.31341 185.415 7.90154C185.952 8.14422 186.391 8.63528 186.734 9.12349C187.125 9.66309 187.273 10.2484 186.931 10.788C185.609 10.2484 184.387 9.71163 183.114 9.32049C179.005 7.99861 175.579 5.79739 173.327 1.88316C172.838 2.9595 172.644 4.03584 172.887 5.16072C173.035 5.74886 173.23 6.04007 173.818 6.23707C176.41 7.06788 178.417 8.63528 179.788 11.0306C179.885 11.2276 179.982 11.4732 180.03 11.6673C179.982 11.7672 179.933 11.8158 179.885 11.9129C175.382 8.97789 170.686 7.36194 165.255 8.92935C165.598 8.97789 165.889 9.07496 166.183 9.12349C168.63 9.71163 171.028 10.3968 173.23 11.6188C174.209 12.1584 175.088 12.8436 175.628 13.9199C175.676 14.017 175.676 14.1626 175.725 14.4081C175.482 14.3111 175.382 14.2625 175.237 14.1626C174.551 13.82 173.915 13.2833 173.181 13.0863C170.343 12.3525 167.505 11.5217 164.619 11.082C160.705 10.4939 157.427 11.9614 154.638 14.7022C155.566 15.9727 156.693 17.049 157.964 17.8827C158.503 18.2253 159.04 18.7135 159.58 18.7135C161.096 18.7621 162.612 18.6164 164.131 18.5679C164.131 18.468 164.131 18.4194 164.131 18.3224C162.318 17.246 160.459 16.2668 158.403 15.8271C158.061 15.7786 157.718 15.5816 157.23 15.4359C158.258 14.7507 159.137 14.6537 160.116 14.7507C162.418 14.9963 164.619 15.7786 166.526 17.049C167.308 17.5886 168.045 18.3224 168.582 19.1047C168.924 19.5957 169.021 20.2809 169.021 20.9147C169.021 21.5999 168.582 21.7484 168.093 21.3573C167.554 20.9147 167.066 20.4265 166.526 19.9869C166.332 19.8384 166.038 19.7413 165.841 19.8384C163.445 20.7206 160.999 21.1117 158.503 20.8177C156.936 20.6235 155.42 20.2295 153.804 19.9383C154.001 20.0839 154.147 20.2809 154.344 20.378C155.271 20.8177 156.154 21.3087 157.084 21.5999C158.503 21.9911 159.922 22.2366 161.39 22.5792C161.684 22.6278 161.926 22.8247 162.172 22.9704C161.926 23.2159 161.684 23.51 161.39 23.7041C161.144 23.8526 160.802 23.9496 160.459 23.9496C159.237 23.9011 158.012 23.8526 156.742 23.7526C156.351 23.7526 155.957 23.6556 155.566 23.7041C152.973 23.804 150.381 23.9011 147.786 23.9982C146.467 24.0467 145.145 23.9982 143.774 24.0952C142.649 24.1466 141.573 24.4378 140.739 25.2715C139.078 26.8846 137.707 28.7461 136.777 30.8474C136.483 31.484 136.288 32.1692 136.043 32.7574C136.925 32.2178 137.756 31.5326 138.687 31.1414C140.888 30.2135 143.186 30.3106 145.439 30.8988C145.83 30.9958 146.221 31.19 146.515 31.4355C146.955 31.7781 146.906 32.0236 146.367 32.1207C145.487 32.2663 144.557 32.3662 143.677 32.5118C143.432 32.5604 143.138 32.7088 143.041 32.8544C141.964 34.5189 140.936 36.2319 139.811 37.8936C138.244 40.1462 136.582 42.3474 135.015 44.5972C131.54 49.5392 130.024 55.0208 130.367 60.9907C130.367 61.1848 130.416 61.3818 130.464 61.773C130.661 61.3818 130.71 61.1363 130.807 60.9393C132.911 56.3399 135.749 52.2315 138.981 48.3172C139.272 47.9746 139.614 47.4836 140.106 47.8262C140.642 48.2173 140.106 48.6598 139.909 49.0025C138.196 52.3286 136.337 55.5576 134.772 58.9351C132.717 63.289 131.786 67.8884 131.934 72.6849C131.934 73.2216 131.983 73.7612 132.032 74.298C132.08 74.3465 132.177 74.3465 132.226 74.395C132.326 74.2494 132.374 74.1038 132.471 74.0039C133.499 72.4393 134.624 70.9233 135.603 69.3074C136.974 67.0091 137.756 64.4624 138.393 61.87C138.441 61.673 138.638 61.4789 138.784 61.2819C138.929 61.4789 139.175 61.673 139.223 61.87C139.32 62.3582 139.32 62.8493 139.272 63.289C138.981 68.1825 137.219 72.4879 134.184 76.305C133.987 76.5477 133.842 76.7447 133.548 77.0873C133.793 76.9902 133.89 76.9902 133.939 76.9417C137.462 75.2772 140.154 72.7334 141.867 69.2103C142.11 68.7192 142.307 68.1825 142.552 67.7428C142.649 67.5944 142.895 67.4002 143.041 67.4002C143.186 67.4002 143.432 67.6429 143.529 67.7914C143.629 67.937 143.629 68.1825 143.629 68.3766C143.383 69.6014 143.286 70.8719 142.844 72.0482C142.307 73.5642 141.67 75.0317 140.936 76.4506C139.763 78.7033 138.49 80.8559 137.268 83.0572C135.212 86.9229 134.087 90.9827 134.43 95.4365C134.43 95.5821 134.43 95.7306 134.478 95.8277C134.527 95.9733 134.575 96.0732 134.624 96.3159C135.7 92.8413 137.559 89.8578 139.663 87.0685C140.203 86.3347 140.839 85.6981 141.476 85.1128C141.819 84.7702 142.307 84.5246 142.698 84.7216C141.425 87.5595 140.106 90.346 138.881 93.2353C137.659 96.1217 137.071 99.1538 137.168 102.286C137.316 102.189 137.365 102.04 137.462 101.895C138.295 100.476 138.981 98.9596 139.957 97.6378C140.791 96.5129 141.867 95.5821 142.844 94.6543C143.041 94.4573 143.529 94.5543 143.871 94.5058C143.774 94.7999 143.726 95.1425 143.577 95.388C142.601 97.101 141.425 98.7141 140.594 100.476C139.32 103.216 138.587 106.151 138.538 109.235C138.538 110.751 138.881 112.17 139.469 113.686C139.714 112.709 139.86 111.827 140.106 110.996C140.839 108.304 142.013 105.809 143.529 103.459C143.971 102.777 144.459 102.092 145.536 101.846C145.633 102.434 145.83 103.019 145.83 103.559C145.83 105.369 145.781 107.228 145.733 109.038C145.681 113.052 147.003 116.624 149.059 119.998C149.107 120.047 149.156 120.095 149.256 120.195C149.353 118.873 149.402 117.552 149.499 116.281C149.696 114.665 149.938 113.052 150.184 111.436C150.281 110.948 150.429 110.36 151.015 110.114C151.115 110.214 151.163 110.311 151.163 110.36C151.212 110.457 151.212 110.605 151.212 110.702C150.966 111.924 151.506 112.806 152.239 113.686C152.533 114.028 152.828 114.471 153.119 114.814C155.614 117.797 157.915 120.929 160.019 124.255C161.632 126.799 163.297 129.294 164.228 132.184C164.276 132.281 164.276 132.329 164.276 132.426C164.325 132.378 164.373 132.329 164.47 132.281C164.422 131.253 164.422 130.274 164.276 129.246C164.031 127.387 163.688 125.577 163.445 123.767C163.394 123.376 163.542 122.933 163.591 122.542C163.688 122.542 163.788 122.542 163.837 122.542C163.982 122.739 164.179 122.985 164.276 123.227C164.961 124.989 165.647 126.702 166.332 128.463C166.674 129.294 166.917 130.128 167.26 130.959C168.973 134.727 169.561 138.69 169.364 142.85C169.315 144.169 169.17 145.442 169.021 146.764C169.17 146.567 169.267 146.373 169.364 146.176C170.295 143.387 171.225 140.597 172.105 137.859C172.202 137.565 172.35 137.32 172.447 137.074C172.544 137.074 172.593 137.126 172.693 137.126C172.741 137.417 172.838 137.711 172.838 137.956C172.693 139.621 172.593 141.331 172.302 142.996C171.811 145.833 171.174 148.623 170.686 151.412C170.489 152.537 170.637 153.71 170.637 154.887C170.883 154.25 171.028 153.613 171.225 152.928C171.959 150.53 172.79 148.183 174.209 146.079C174.454 145.785 174.746 145.539 175.04 145.245C175.14 145.297 175.188 145.297 175.285 145.345C175.285 145.688 175.334 146.03 175.285 146.373C175.088 147.986 174.797 149.651 174.746 151.264C174.697 154.347 175.873 156.939 178.172 158.995C178.32 159.144 178.514 159.289 178.808 159.486C178.123 157.528 177.926 155.669 178.269 153.759C178.76 151.118 179.836 148.768 181.94 147.007C182.38 146.616 182.722 146.127 183.162 145.785C183.408 145.588 183.75 145.442 184.044 145.297C184.141 145.588 184.287 145.833 184.338 146.127C184.387 146.273 184.287 146.422 184.287 146.616C184.093 148.426 183.847 150.239 183.702 152.097C183.653 152.586 183.799 153.077 183.847 153.516C185.218 150.287 185.609 149.748 187.665 148.083C188.104 147.741 188.495 147.401 188.938 147.058C190.699 145.736 192.215 144.169 193.389 142.31C194.562 140.452 195.59 138.545 196.666 136.683C196.863 136.34 197.109 135.998 197.4 135.558C197.891 137.32 197.843 138.836 197.109 140.206C196.227 141.968 195.15 143.632 194.171 145.297C194.074 145.491 193.928 145.639 193.78 145.833C194.026 145.833 194.271 145.736 194.417 145.639C195.981 144.463 197.597 143.387 199.065 142.065C201.56 139.864 203.37 137.174 205.083 134.336C205.18 134.188 205.377 134.091 205.523 133.945C205.574 134.139 205.72 134.336 205.72 134.53C205.574 137.026 204.789 139.227 203.321 141.234C203.224 141.382 203.127 141.528 202.979 141.774C210.759 137.223 215.407 130.568 216.974 121.614C217.217 121.908 217.365 121.957 217.414 122.102C217.659 123.179 218.099 124.207 218.148 125.283C218.196 127.29 218.002 129.346 217.217 131.253C216.583 132.817 216.532 134.433 216.532 136.046C216.583 137.074 216.729 138.102 216.874 139.081C216.926 139.081 216.974 139.081 217.071 139.081C217.217 138.102 217.365 137.126 217.559 136.195C218.393 132.329 219.764 128.561 220.349 124.646C220.84 121.272 221.525 117.943 221.965 114.617C222.159 113.198 222.013 111.682 222.013 110.214C222.013 109.82 222.11 109.429 222.207 108.989C222.307 108.989 222.356 108.989 222.453 108.989C222.55 109.186 222.699 109.332 222.796 109.529C224.706 114.862 223.969 120.195 222.944 125.528C223.09 125.331 223.235 125.186 223.335 124.94C224.02 123.376 224.754 121.808 225.339 120.195C226.564 116.769 227.298 113.246 227.052 109.529C227.004 108.844 226.907 108.11 226.907 107.425C226.907 107.228 227.101 106.982 227.149 106.788C227.346 106.934 227.641 106.982 227.738 107.179C228.032 107.667 228.277 108.159 228.423 108.695C228.765 110.163 228.962 111.339 229.205 112.561ZM181.695 151.315C181.646 151.315 181.549 151.264 181.501 151.264C181.158 152.537 180.715 153.759 180.473 155.081C180.03 157.282 180.276 159.192 182.037 161.002C183.896 162.909 184.73 165.553 185.218 168.145C185.854 171.571 186.343 175.095 186.588 178.569C187.125 185.858 186.294 193.05 184.533 200.144C183.602 203.962 182.428 207.73 181.449 211.547C180.961 213.406 180.764 215.313 180.421 217.223C180.13 218.788 179.836 220.355 179.591 221.92C179.493 222.508 179.591 223.045 179.933 223.584C180.57 224.709 181.206 225.883 181.646 227.107C182.38 229.16 182.82 231.264 182.331 233.565C184.387 234.005 186.391 234.445 188.544 234.887C188.544 234.005 188.544 233.32 188.544 232.635C188.595 230.776 188.301 229.014 187.37 227.399C186.931 226.665 186.44 225.98 186.049 225.246C185.903 225.003 185.952 224.661 185.903 224.367C186.197 224.367 186.491 224.318 186.782 224.367C186.979 224.415 187.176 224.561 187.37 224.709C190.502 227.107 191.921 231.264 190.894 234.69C190.845 234.836 190.845 234.936 190.845 235.178C193.928 235.278 197.009 235.375 200.092 235.473C200.092 235.13 200.092 234.936 200.092 234.739C199.947 232.244 199.359 229.845 198.379 227.547C198.234 227.156 197.988 226.813 197.94 226.422C197.891 226.128 197.891 225.637 198.085 225.491C198.282 225.346 198.771 225.346 199.016 225.491C199.604 225.883 200.238 226.322 200.581 226.91C201.314 228.184 202 229.503 202.394 230.873C202.785 232.195 202.833 233.662 203.027 235.178C204.007 234.887 205.132 234.545 206.208 234.202C207.042 233.957 207.675 233.368 208.018 232.586C208.703 231.022 209.046 229.357 208.655 227.644C208.312 226.08 207.139 225.052 206.062 223.975C204.104 222.065 201.757 221.038 198.968 221.235C197.694 221.283 196.424 221.38 195.102 221.432C194.905 221.432 194.662 221.432 194.465 221.432C194.465 221.38 194.417 221.283 194.417 221.235C195.787 219.619 197.5 218.445 199.701 218.151C198.87 215.704 198.379 213.309 198.331 210.814C198.282 204.647 198.968 198.58 200.238 192.562C202.685 181.113 206.159 169.955 210.565 159.095C212.569 154.102 214.43 149.111 216.338 144.072C216.435 143.826 216.483 143.387 216.338 143.193C215.164 141.528 214.673 139.669 214.576 137.711C214.576 137.517 214.527 137.32 214.479 137.026C214.233 137.32 214.036 137.517 213.891 137.711C211.004 140.891 207.627 143.387 203.518 144.709C202.442 145.051 201.169 145.003 200.141 145.442C199.113 145.93 198.331 146.91 197.352 147.498C195.005 149.014 192.509 150.09 189.62 149.945C189.475 149.945 189.278 149.993 189.181 150.042C188.301 150.873 187.322 151.606 186.54 152.537C185.706 153.516 185.512 154.738 186 156.06C186.1 156.306 186.049 156.794 185.854 156.939C185.657 157.136 185.218 157.185 184.924 157.088C183.017 156.5 181.792 154.787 181.743 152.783C181.695 152.34 181.695 151.852 181.695 151.315ZM136.288 175.486C135.994 175.486 135.849 175.486 135.7 175.486C131.298 175.337 127.041 174.8 122.978 172.893C122.196 172.499 121.317 172.208 120.483 171.914C117.694 170.886 115.347 169.222 113.34 167.021C110.699 164.086 108.446 160.905 106.588 157.431C106.442 157.185 106.342 156.991 106.099 156.6C106.048 156.891 106.048 156.939 106.048 157.039C106.196 159.926 105.805 162.764 105.217 165.553C104.289 170.104 103.016 174.506 100.372 178.372C99.4443 179.743 98.7106 181.21 98.0254 182.726C96.9976 184.927 97.1917 187.228 98.0254 189.333C98.7106 191.191 99.6899 192.953 100.766 194.617C102.673 197.552 104.238 200.636 105.463 203.865C107.273 208.61 109.18 213.309 110.308 218.251C110.99 221.186 111.727 224.121 111.727 227.107C111.727 228.184 112.018 228.966 112.752 229.7C113.094 230.042 113.485 230.385 113.879 230.679C115.983 232.292 118.379 233.271 121.023 233.662C121.511 233.711 122.002 233.811 122.49 233.859C121.95 230.482 120.386 227.89 117.451 226.177C117.302 226.08 117.06 225.834 117.108 225.688C117.108 225.54 117.351 225.246 117.548 225.246C118.085 225.197 118.673 225.1 119.164 225.246C122.293 226.274 124.788 228.917 125.082 232.244C125.131 232.832 125.131 233.417 125.182 234.054C127.823 234.151 130.367 234.054 133.011 233.368C132.765 232.441 132.52 231.558 132.277 230.727C131.883 229.211 131.052 228.035 129.73 227.204C129.488 227.056 129.194 226.862 129.045 226.616C128.9 226.374 128.754 226.031 128.851 225.834C128.948 225.588 129.291 225.443 129.585 225.346C129.782 225.294 130.024 225.346 130.27 225.394C133.011 225.931 134.43 227.741 135.115 230.288C135.309 231.07 135.406 231.901 135.555 232.683C137.119 232.244 137.659 231.655 137.707 230.091C137.707 229.406 137.61 228.72 137.462 228.035C137.365 227.596 137.168 227.156 136.825 226.862C135.064 225.346 133.108 224.121 130.71 223.827C129.73 223.73 128.803 223.633 127.823 223.533C126.844 223.436 126.013 223.045 125.474 222.165C124.888 221.235 124.155 220.355 123.86 219.327C122.881 216.293 121.95 213.209 121.12 210.129C120.583 207.976 120.434 205.723 119.798 203.619C118.918 200.636 118.721 197.649 118.918 194.569C119.064 192.416 119.946 190.654 121.659 189.284C124.055 187.425 126.453 185.515 128.851 183.657C131.54 181.601 133.939 179.203 135.749 176.365C135.946 176.122 136.091 175.877 136.288 175.486ZM176.901 220.646C177.047 219.473 177.095 218.445 177.292 217.466C177.78 215.071 178.269 212.721 178.857 210.371C179.885 206.163 181.158 202.006 182.037 197.798C183.211 192.267 183.505 186.64 183.359 180.964C183.262 177.199 182.674 173.527 182.086 169.858C182.037 169.419 181.792 169.319 181.449 169.37C180.715 169.467 179.933 169.516 179.199 169.613C176.656 169.955 174.112 170.25 171.565 170.641C170.197 170.838 170.246 170.935 170.197 172.257C170.197 172.499 170.197 172.745 170.197 172.99C170.049 179.448 170 185.858 170.489 192.316C170.98 198.726 171.859 205.138 173.278 211.399C173.866 214.043 174.503 216.684 175.14 219.376C175.188 219.522 175.334 219.719 175.431 219.816C175.873 220.061 176.313 220.304 176.901 220.646ZM3.19865 165.796C4.17792 165.65 4.9602 165.553 5.74248 165.356C5.93947 165.308 6.13361 165.113 6.28208 164.965C6.62468 164.377 6.81882 163.743 7.26135 163.252C10.0479 159.729 13.6709 157.576 18.1219 157.234C20.8141 156.991 23.555 157.136 26.2929 157.185C30.9923 157.282 35.6888 157.382 40.3368 156.403C44.4966 155.472 48.3623 153.907 51.6398 151.021C52.7162 150.09 53.4014 149.111 53.1073 147.643C53.0102 147.058 53.1073 146.47 53.0588 145.882C53.0102 145.1 52.9617 144.317 52.9103 143.29C52.6676 143.632 52.5706 143.826 52.4221 144.023C49.9753 147.889 46.5522 150.481 42.1469 151.658C39.1148 152.488 36.0314 152.683 32.8995 152.634C29.1794 152.586 25.4621 152.488 21.742 152.488C20.3231 152.488 18.8556 152.683 17.4366 152.977C12.5945 153.956 8.8259 156.648 5.4998 160.171C4.86313 160.857 4.37207 161.59 4.12939 162.47C3.83532 163.497 3.54125 164.622 3.19865 165.796ZM230.43 33.8337C233.022 32.3177 234.441 29.8709 235.566 27.2272C235.663 26.9845 235.615 26.6904 235.566 26.4449C235.323 25.5656 235.078 24.6348 234.832 23.7526C234.538 22.7277 233.902 22.2366 232.777 22.1881C231.603 22.1395 230.527 22.3851 229.499 23.0189C227.786 24.0952 225.928 24.7804 223.92 24.9289C223.872 24.9289 223.872 24.9774 223.872 24.9774C225.045 26.8846 226.367 28.6947 227.395 30.6047C228.177 31.9751 229.254 32.903 230.43 33.8337ZM151.994 21.5029C151.409 20.2809 150.772 19.1047 150.281 17.8827C149.304 15.239 147.2 14.017 144.605 13.4774C143.577 13.2833 143.089 13.5288 142.795 14.5537C142.061 17.049 142.11 19.4473 143.529 21.7484C146.367 21.0632 149.205 21.0632 151.994 21.5029ZM11.2241 171.914C11.2727 171.865 11.3212 171.865 11.3212 171.814C11.0271 171.277 10.6845 170.738 10.3905 170.25C8.72883 167.509 5.89094 166.923 3.49272 167.557C3.05305 167.657 2.90458 167.851 2.95312 168.242C3.05305 169.222 3.10158 170.25 3.29572 171.229C3.93239 174.115 5.39987 176.365 8.2863 177.393C9.0229 177.638 9.75664 178.078 10.4904 178.372C10.8815 178.518 11.3212 178.618 11.6638 178.666C10.833 177.393 9.95078 176.219 9.21704 174.898C8.6289 173.87 8.2863 172.696 7.84663 171.571C7.65249 171.132 7.89516 170.789 8.38623 170.838C8.68029 170.838 9.0229 170.935 9.31411 171.08C9.99932 171.277 10.636 171.571 11.2241 171.914ZM181.107 165.944C180.764 164.916 180.421 163.889 180.082 162.812C180.03 162.667 179.788 162.518 179.542 162.421C176.507 161.345 174.551 159.241 173.524 156.206C173.427 155.914 173.327 155.62 173.181 155.229C172.79 159.926 173.769 163.252 178.76 165.21C178.466 165.796 177.926 165.944 177.341 165.993C175.676 166.138 174.354 165.356 173.132 164.428C172.202 163.743 171.322 163.009 170.343 162.224C170.343 164.183 170.343 166.19 170.343 168C173.866 167.363 177.438 166.678 181.107 165.944ZM234.784 20.2295C234.735 20.1325 234.735 20.0354 234.687 19.9869C233.51 17.9798 230.918 17.149 228.765 18.0768C226.464 19.0561 224.069 19.7899 221.525 19.7899C220.252 19.7899 218.978 19.8898 217.902 19.9383C219.078 20.8177 220.349 21.7484 221.622 22.6763C221.768 22.7762 222.062 22.8247 222.259 22.8247C223.872 22.7277 225.439 22.4336 226.807 21.5999C229.305 20.0839 231.946 19.6928 234.784 20.2295ZM156.593 18.665C156.642 18.6164 156.642 18.5194 156.69 18.468C154.589 16.7093 152.582 14.8963 150.429 13.2347C149.402 12.4011 148.08 11.9614 146.858 11.9614C147.737 12.6466 148.813 13.2833 149.647 14.1141C150.623 15.0933 151.357 16.3153 152.239 17.443C152.385 17.6372 152.582 17.9312 152.828 17.9798C154.049 18.2738 155.323 18.468 156.593 18.665Z" fill="white"/>
</g>
<path d="M197.794 99.5461C196.96 100.965 195.835 102.141 194.465 102.972C193.876 103.363 193.243 103.706 192.557 103.903C191.775 104.145 191.09 104.488 190.502 105.028C189.523 105.958 188.301 106.398 187.027 106.741C186.196 106.983 185.363 107.277 184.629 107.669C183.601 108.208 183.162 108.06 182.867 106.935C182.576 105.907 182.282 104.879 181.94 103.854C181.843 103.609 181.597 103.315 181.303 103.218C178.465 101.896 175.724 100.38 173.326 98.4212C171.761 97.1507 170.782 95.3406 170.145 93.4306C169.903 92.6483 170 91.7661 170.048 90.9353C170.097 90.4956 170 90.2986 169.609 90.056C168.532 89.3222 167.847 89.6648 166.968 90.3986C164.812 92.2086 162.905 94.2129 161.438 96.5626C161.241 96.8566 160.998 97.1507 160.752 97.3934C160.555 97.5418 160.213 97.736 160.067 97.6389C159.822 97.4933 159.531 97.1507 159.531 96.9052C159.531 96.3656 159.628 95.7803 159.87 95.2407C160.85 92.8938 162.465 91.0838 164.521 89.6648C165.303 89.1252 166.037 88.5856 166.819 88.0974C166.428 87.2181 166.037 86.3844 165.646 85.5536C162.611 87.0696 159.773 88.9282 157.181 91.1808C156.399 91.866 155.613 92.5512 154.831 93.1851C154.489 93.4791 154.097 93.7247 153.658 93.285C153.267 92.8938 153.461 92.5027 153.755 92.1087C154.783 90.6412 156.202 89.5649 157.669 88.5371C159.922 86.924 162.368 85.5536 164.912 84.4287C165.352 84.2317 165.498 84.0376 165.4 83.5465C165.255 82.7642 165.155 82.0305 165.058 81.1483C164.715 81.2482 164.521 81.3453 164.276 81.4424C161.877 82.7157 159.531 84.0376 157.132 85.3081C156.544 85.6021 155.956 85.9447 155.322 86.1417C155.125 86.2388 154.831 86.0418 154.588 85.9933C154.637 85.7477 154.588 85.4565 154.734 85.3081C155.222 84.7713 155.713 84.2802 156.299 83.8406C158.697 82.079 161.341 80.9056 164.13 79.9263C164.667 79.7293 164.864 79.4867 164.715 78.9471C164.57 78.2133 164.47 77.431 164.276 76.6973C164.079 75.8151 163.59 75.0814 162.905 74.4475C162.417 74.005 162.074 73.3712 161.732 72.7831C161.535 72.489 161.486 72.1464 161.389 71.8038C160.655 72.9772 159.822 73.0286 158.991 72.0008C157.963 70.6789 157.62 69.1629 157.572 67.547C157.523 66.5191 157.572 65.4913 157.572 64.4635C156.544 64.9546 155.956 64.8061 155.274 63.8782C154.391 62.702 154 61.3344 153.903 59.9155C153.561 56.0498 154 52.2811 155.222 48.6124C155.468 47.8787 155.81 47.1421 156.202 46.5083C157.426 44.4527 158.648 42.3971 159.922 40.2929C159.579 40.0988 159.088 39.9018 158.648 39.6077C157.963 39.2166 157.475 38.6798 157.229 37.8947C156.984 37.0639 157.278 36.7698 158.16 36.7698C159.236 36.8183 160.361 36.7698 161.632 36.7698C161.341 36.4272 161.144 36.2331 160.998 36.0361C160.41 35.3023 160.264 34.4715 160.607 33.6379C160.949 32.8556 161.732 32.7585 162.465 32.71C163.102 32.6614 163.736 32.6614 164.421 32.61C163.345 30.0662 164.618 28.2076 166.037 26.4946C166.722 25.6638 167.408 25.7608 167.944 26.6916C168.435 27.5709 168.826 28.5017 169.951 28.9899C169.657 27.4253 170.097 25.9578 170.488 24.5389C170.782 23.3626 171.616 23.1199 172.495 23.9022C174.063 25.2241 175.773 25.8579 177.877 25.5153C179.199 25.2726 180.618 25.2726 181.988 25.3697C182.919 25.4182 183.847 25.8094 184.826 26.0549C184.875 25.7123 184.826 25.2726 184.972 24.8815C185.12 24.439 185.363 23.9508 185.757 23.7052C186.196 23.4112 186.733 23.7052 187.076 24.0964C187.861 24.9786 188.643 25.8579 189.377 26.643C190.208 26.0549 191.09 25.3212 192.066 24.733C193.388 23.9508 194.856 23.8052 196.323 23.9022C198.185 24.0478 198.527 24.636 197.742 26.2005C198.527 26.2005 199.31 26.152 200.043 26.2005C201.462 26.2491 202.736 26.6916 203.761 27.7194C203.909 27.865 204.103 27.9135 204.3 27.9621C206.013 28.062 207.432 28.8443 208.754 29.8235C209.633 30.4574 209.536 31.1426 208.557 31.6822C208.117 31.9248 207.675 32.1704 207.235 32.4159C207.138 32.4644 207.089 32.513 207.138 32.513C208.214 33.0526 209.291 33.5408 210.367 34.1775C211.592 34.8627 212.471 35.939 213.205 37.1124C213.499 37.5521 213.645 37.9432 213.253 38.3858C212.862 38.8254 212.374 38.7769 211.932 38.5314C211.443 38.2373 210.907 37.8947 210.367 38.1402C211.052 39.071 211.786 39.9503 212.471 40.881C213.253 41.9574 214.33 42.3485 215.652 42.2029C216.288 42.1515 216.974 42.0059 217.316 42.7882C217.559 43.3278 217.268 44.1101 216.483 44.5983C215.749 45.0408 214.918 45.2835 214.087 45.6746C214.184 45.8231 214.378 46.1172 214.527 46.3598C216.288 48.7581 217.559 51.3019 218.147 54.2368C218.784 57.4173 218.393 60.5493 217.61 63.6327C217.168 65.2487 216.631 66.9103 215.994 68.4292C215.261 70.1393 214.087 70.1907 212.959 68.6718C212.814 68.4777 212.668 68.2807 212.423 67.9866C212.226 68.8688 212.129 69.6511 211.932 70.3848C211.54 72.0979 210.855 73.6139 209.585 74.7901C208.851 75.4725 208.508 75.5239 207.578 74.9843C207.138 75.8665 206.698 76.7458 206.207 77.7251C207.481 77.9193 208.605 78.0192 209.73 78.2133C211.786 78.5559 213.745 79.2897 215.603 80.3175C216.043 80.563 216.434 80.9056 216.777 81.2482C216.925 81.3938 216.925 81.7364 217.071 82.1276C213.45 80.7086 209.976 79.6323 206.307 79.3382C205.816 79.2897 205.671 79.4381 205.474 79.8778C205.034 80.8085 205.231 81.6879 205.474 82.5187C205.522 82.7157 205.816 82.8613 206.062 82.9612C207.823 83.695 209.633 84.3288 211.298 85.2595C212.765 86.0418 213.987 87.2181 215.309 88.2459C215.603 88.4885 215.849 88.8312 215.994 89.1738C216.091 89.4193 215.946 89.8104 215.797 90.0046C215.7 90.1045 215.261 90.056 215.064 89.956C212.226 88.1459 209.291 86.5814 206.207 85.3081C206.013 85.211 205.768 85.1624 205.522 85.0654C205.279 85.7477 205.082 86.4329 204.837 87.1181C205.034 87.2181 205.279 87.3637 205.474 87.4607C208.654 89.2223 211.54 91.375 214.087 94.0187C214.527 94.4584 214.918 94.998 215.261 95.5347C215.455 95.8288 215.555 96.2199 215.603 96.5626C215.652 96.7082 215.555 96.9537 215.406 97.1022C215.358 97.1507 215.064 97.1022 214.918 97.0022C214.136 96.4655 213.351 95.9259 212.617 95.3891C209.927 93.3821 207.235 91.375 204.594 89.3707C204.349 89.2223 204.103 89.0767 203.761 88.8797C203.958 89.5649 204.252 90.153 204.3 90.7412C204.594 94.3613 203.418 97.4419 200.68 99.8887C200.58 99.9886 200.434 100.037 200.337 100.134C199.113 101.065 198.527 100.916 197.794 99.5461ZM197.548 43.0337C197.205 42.3 196.814 41.7119 196.666 41.0752C196.52 40.4899 197.008 40.1958 197.548 40.4414C198.036 40.684 198.427 40.9781 198.918 41.2236C199.113 41.3207 199.407 41.4178 199.555 41.3207C200.874 40.5384 202.05 41.2236 203.175 41.7119C204.103 42.1515 205.034 42.6911 205.965 43.1793C206.404 43.4249 206.892 43.5705 206.844 44.1586C206.795 44.7953 206.307 44.9894 205.768 45.0893C205.279 45.1864 204.788 45.1379 204.3 45.1864C203.321 48.3184 200.14 49.7373 197.645 48.2185C197.254 49.3462 196.617 50.177 195.347 50.374C195.198 50.374 195.053 50.6652 195.004 50.8137C194.71 51.9385 194.27 53.0634 194.122 54.1883C193.828 56.538 193.976 58.7877 195.053 61.0404C196.032 63.0931 196.714 65.2972 197.4 67.4499C197.597 68.0866 197.645 68.8688 197.597 69.554C197.499 70.776 197.351 72.0008 196.226 72.7831C196.129 72.8801 196.081 73.0771 196.032 73.2713C195.786 74.5446 195.15 75.621 193.976 76.2091C192.997 76.7458 191.921 77.137 190.893 77.5767C190.55 77.7251 190.208 77.9678 189.962 78.2133C189.18 79.1926 188.495 80.2204 187.712 81.2967C188.152 82.1276 188.201 83.1554 187.81 84.1832C187.615 84.6714 187.761 85.014 188.152 85.211C188.643 85.505 189.18 85.7477 189.72 85.9447C192.066 86.7755 194.465 87.4607 196.472 88.9282C198.036 90.056 200.289 88.8312 201.365 87.6092C200.777 87.3151 200.189 87.0696 199.604 86.7755C198.576 86.2873 197.499 85.8477 196.472 85.3081C196.323 85.211 196.226 85.014 196.129 84.8684C196.323 84.7713 196.472 84.5743 196.666 84.5743C197.254 84.5743 197.842 84.6228 198.379 84.7713C199.701 85.1139 200.974 85.5536 202.393 85.9933C202.539 85.4051 202.636 84.8198 202.784 84.2317C200.58 83.6464 198.476 83.3524 196.275 83.2524C196.032 83.2524 195.738 83.1068 195.492 83.0583C195.689 82.8128 195.835 82.5672 196.081 82.3731C196.275 82.2275 196.569 82.1276 196.863 82.1276C197.742 82.0305 198.624 81.9334 199.555 81.9334C200.68 81.982 201.756 82.1276 202.881 82.2275C202.881 81.2482 202.881 80.3175 202.881 79.3382C202.587 79.3382 202.393 79.3382 202.147 79.3382C199.358 79.4381 196.714 80.0719 194.025 80.7571C193.876 80.8085 193.682 80.7571 193.537 80.7571C193.585 80.563 193.585 80.3175 193.682 80.2204C193.976 79.9749 194.319 79.7807 194.662 79.6323C196.766 78.7529 198.918 78.1648 201.168 77.9706C202.293 77.8707 203.075 77.6766 203.566 76.4518C204.152 75.0814 205.179 73.9565 206.013 72.7345C206.207 72.3919 206.453 72.0979 206.55 71.7067C206.747 71.2157 206.941 70.7275 207.578 70.776C208.214 70.8245 208.411 71.2671 208.508 71.8038C208.605 72.292 208.654 72.8316 208.751 73.5168C209.045 73.1257 209.291 72.9287 209.436 72.6346C209.83 71.7553 210.319 70.8731 210.513 69.9937C210.807 68.4777 210.955 66.9588 211.149 65.4428C211.198 64.9546 211.249 64.5149 211.835 64.415C212.374 64.3179 212.668 64.6605 212.862 65.1002C213.156 65.7369 213.45 66.325 213.793 66.9103C213.89 67.1073 214.087 67.2529 214.233 67.4499C214.33 67.4499 214.427 67.4499 214.478 67.4499C214.966 65.4913 215.555 63.5356 215.946 61.5286C216.582 58.3481 216.728 55.1676 215.897 51.9871C215.309 49.6888 213.939 47.7302 212.959 45.5776C212.911 45.4805 212.814 45.3806 212.717 45.332C211.54 44.5497 211.492 44.5012 211.983 43.3763C211.443 42.6911 210.855 42.0545 210.416 41.3207C209.83 40.39 209.194 39.5106 208.117 39.0224C207.823 38.874 207.578 38.4343 207.578 38.0917C207.578 37.8462 207.969 37.5036 208.263 37.4065C208.948 37.1609 209.682 37.0153 210.464 36.7698C209.194 35.3994 207.823 34.3231 205.865 34.1775C204.643 34.0804 204.397 33.3466 205.179 32.3674C205.571 31.9248 205.965 31.4852 206.307 31.0455C204.397 30.0177 202.393 30.3117 200.386 31.094C199.946 31.2425 199.407 31.6822 199.113 31.1426C198.967 30.8999 199.358 30.2632 199.652 29.8721C199.995 29.4809 200.434 29.1869 200.923 28.7957C198.918 28.3047 197.057 27.9135 195.15 28.7472C195.004 28.7957 194.856 28.8443 194.71 28.8443C194.025 28.8928 193.634 28.4046 193.928 27.7679C194.073 27.4253 194.367 27.0827 194.662 26.7887C194.904 26.446 195.247 26.152 195.638 25.7123C193.779 25.7608 192.215 26.2005 190.99 27.3768C190.453 27.865 190.111 28.5987 189.768 29.2354C189.571 29.6751 189.425 30.1661 188.837 30.1661C188.252 30.1148 188.104 29.6751 188.055 29.1383C187.909 27.9621 187.37 26.9856 186.391 26.0064C186.196 27.0342 185.999 27.865 185.902 28.7472C185.854 29.2354 185.705 29.4809 185.169 29.2839C184.629 29.0384 183.995 28.9413 183.504 28.6473C181.791 27.5224 179.884 27.5224 178.025 27.7679C176.606 27.9621 175.236 27.9135 173.914 27.2769C173.132 26.9343 172.398 26.446 171.616 26.0064C171.564 26.0549 171.516 26.152 171.467 26.2491C170.931 27.4253 170.931 28.5502 171.467 29.6751C171.664 30.1148 171.858 30.5573 171.516 30.9484C171.173 31.3881 170.734 31.1911 170.294 31.0455C168.678 30.5573 167.308 29.7236 166.574 27.9621C166.331 28.4046 166.183 28.6958 165.989 28.9899C165.352 30.1148 165.303 31.1911 166.331 32.1704C166.477 32.2674 166.574 32.4644 166.674 32.61C167.162 33.4922 166.722 34.3716 165.743 34.5201C165.255 34.6171 164.764 34.6657 164.227 34.6657C163.393 34.6657 162.563 34.6657 161.583 34.6657C161.829 34.9597 161.974 35.2538 162.171 35.4479C162.417 35.6935 162.708 35.8905 162.905 36.1331C163.445 36.7698 163.199 37.4065 162.417 37.5036C161.829 37.6035 161.289 37.7491 160.704 37.7491C159.773 37.7976 158.894 37.7491 157.963 37.7491C158.451 38.3858 159.431 38.874 160.555 39.1195C160.947 39.2166 161.486 39.4621 161.583 39.7562C161.683 40.0474 161.438 40.587 161.192 40.881C159.479 42.6426 158.257 44.7467 157.132 46.8994C156.741 47.5846 156.496 48.3669 156.299 49.1492C155.516 52.3782 155.271 55.7072 155.468 59.0333C155.516 60.4522 155.762 61.9197 156.496 63.2416C156.935 62.4593 157.326 61.7256 157.718 61.0404C157.817 60.8919 158.16 60.6978 158.354 60.7463C158.551 60.7948 158.697 61.0889 158.745 61.283C158.794 61.5286 158.745 61.7741 158.745 62.0168C158.794 63.6327 158.794 65.2487 158.894 66.9103C158.942 68.0352 159.137 69.1115 159.676 70.1393C160.019 69.6026 160.264 69.1115 160.655 68.6718C161.144 68.0866 161.829 68.2322 162.074 68.9659C162.22 69.357 162.22 69.7967 162.317 70.2392C162.514 71.3641 162.563 72.5375 163.687 73.1742C165.009 73.9565 165.792 75.1299 166.283 76.5003C166.574 77.334 166.819 78.1648 167.065 78.9956C167.211 78.9471 167.359 78.9471 167.456 78.9471C169.706 78.4589 172.007 77.9706 174.305 78.0677C174.551 78.0677 174.796 78.1648 175.039 78.2133C175.039 78.2619 175.039 78.3618 174.99 78.4103C174.796 78.4589 174.551 78.5559 174.354 78.6045C172.25 79.0955 170.145 79.5837 168.044 80.0234C167.408 80.1719 166.965 80.4145 167.016 81.1483C167.016 81.4909 166.819 81.8335 166.771 82.2275C166.722 82.5672 166.722 82.9098 166.722 83.3524C167.113 83.2039 167.308 83.1068 167.505 83.0583C169.657 82.4216 171.761 81.7364 173.914 81.0997C174.745 80.8571 175.43 81.0027 175.873 81.3453C172.838 82.079 170 83.1554 167.162 84.4772C167.408 84.9169 167.602 85.3081 167.847 85.6021C168.484 86.5329 168.581 86.4843 169.609 85.9933C171.37 85.1624 173.18 84.3802 174.99 83.595C175.187 83.498 175.53 83.6464 175.773 83.695C175.627 83.8891 175.482 84.1346 175.285 84.2802C173.963 85.1139 172.644 85.8962 171.322 86.727C171.173 86.8269 171.076 86.924 170.931 87.0696C170.931 87.1181 170.979 87.1667 170.979 87.2181C171.664 87.1181 172.35 87.0696 172.983 86.924C174.942 86.4843 176.849 86.0418 178.808 85.6021C179.296 85.505 179.835 85.3566 180.324 85.4565C181.694 85.6507 182.867 85.1139 183.944 84.4772C184.729 84.0376 185.02 82.6672 184.532 81.9334C184.483 81.8335 184.338 81.785 184.189 81.7364C183.359 81.4909 182.722 80.9541 182.282 80.2204C181.84 79.5352 181.548 78.8015 181.157 78.1163C180.472 76.8914 179.59 75.915 178.074 75.6695C177.243 75.5724 176.361 75.1299 175.773 74.5446C174.696 73.4197 173.963 72.0008 173.866 70.3848C173.62 66.5191 174.796 62.9475 176.458 59.4729C176.558 59.2788 176.752 59.1789 176.849 59.0333C176.949 59.0818 176.998 59.0818 177.095 59.1303C176.312 62.4108 175.187 65.5913 175.382 69.0144C175.773 69.1115 176.115 69.1629 176.361 69.26C178.611 70.2392 180.96 70.9244 183.407 71.1671C185.657 71.4127 187.909 71.7553 190.159 71.1186C191.578 70.7275 192.997 70.2878 194.465 70.5818C194.759 69.3085 195.247 68.0866 194.807 66.8132C194.17 64.9061 193.437 63.0446 192.752 61.1374C192.557 60.5978 192.263 60.0611 192.215 59.5215C191.53 55.1676 192.457 51.2048 194.956 47.5846C195.15 47.3391 195.395 47.045 195.395 46.751C195.981 45.4319 196.714 44.1101 197.548 43.0337ZM201.414 90.3986C201.168 90.4956 200.974 90.5927 200.777 90.6898C199.455 91.4235 198.136 91.4749 196.666 91.0324C194.562 90.3472 192.457 89.8104 190.356 89.1738C188.595 88.637 186.882 87.9518 186.048 86.2873C184.777 86.5329 183.553 86.8269 182.331 86.924C181.009 87.0211 179.884 87.5093 178.856 88.3429C178.268 88.8311 177.583 89.1252 176.9 89.4678C175.382 90.153 173.817 90.6898 172.104 90.6898C172.055 91.669 172.301 92.5027 172.789 93.285C174.405 96.0743 177.046 97.7845 179.59 99.5461C179.638 99.5974 179.738 99.5974 179.884 99.5974C179.687 99.2548 179.493 99.0093 179.444 98.7152C179.396 98.3726 179.296 97.8359 179.444 97.736C179.687 97.5904 180.227 97.5418 180.472 97.6874C181.057 98.03 181.548 98.4212 182.037 98.9122C183.261 100.231 184.338 101.699 184.826 103.706C184.972 103.266 185.072 103.021 185.072 102.826C185.169 101.456 185.217 100.086 185.314 98.7152C185.314 98.4697 185.511 98.2756 185.608 98.03C185.805 98.1785 186.148 98.3241 186.196 98.5211C186.442 99.2548 186.685 99.9886 186.833 100.771C186.979 101.65 186.979 102.532 187.027 103.512C187.958 102.435 188.643 101.308 188.937 99.9886C188.986 99.7916 189.18 99.5974 189.328 99.4004C189.474 99.5974 189.671 99.743 189.817 99.94C189.914 100.086 189.914 100.283 189.914 100.477C189.914 101.162 189.914 101.799 189.914 102.435C189.865 102.435 189.914 102.435 189.962 102.435C190.014 102.384 190.111 102.335 190.159 102.238C191.333 101.113 192.066 99.743 192.36 98.1271C192.409 97.8844 192.654 97.6874 192.8 97.4419C193.046 97.6389 193.34 97.7845 193.485 97.9815C193.634 98.227 193.634 98.5696 193.634 98.8637C193.537 99.8401 193.34 100.819 193.243 101.799C193.291 101.799 193.388 101.75 193.485 101.65C194.367 100.819 195.298 99.94 196.178 99.1064C196.666 98.6667 197.108 98.1785 197.645 97.7845C198.33 97.2963 198.87 97.5904 198.918 98.4212C198.918 98.8123 198.967 99.2034 199.015 99.646C201.314 98.4212 202.833 92.7939 201.414 90.3986ZM176.849 72.0493C176.801 72.0979 176.752 72.1949 176.655 72.2435C177.243 72.8801 177.731 73.6139 178.368 74.202C179.053 74.8387 179.835 75.2784 180.521 75.8665C181.94 77.0884 183.359 78.3618 184.729 79.5837C185.12 79.9263 185.511 79.9263 185.999 79.7293C187.027 79.2897 187.909 78.653 188.643 77.8222C189.131 77.2854 189.72 76.7944 190.356 76.3547C190.99 75.915 191.627 75.4725 192.312 75.0814C193.388 74.4961 193.682 73.5168 193.876 72.292C193.485 72.292 193.143 72.2435 192.851 72.292C190.599 72.6346 188.398 73.0286 186.148 73.3712C183.553 73.7623 180.96 73.8109 178.465 72.6346C177.925 72.4405 177.389 72.292 176.849 72.0493ZM198.33 45.9202C198.33 45.9202 198.33 46.1172 198.379 46.3113C198.527 47.3876 199.015 47.7302 200.043 47.3876C200.68 47.1421 201.314 46.7995 201.805 46.3113C202.539 45.6261 202.49 44.5012 201.853 43.816C201.12 43.0337 200.237 42.9367 199.358 43.6219C198.576 44.1101 198.282 44.8438 198.33 45.9202Z" fill="white"/>
<path d="M166.232 46.0195C165.646 46.068 165.155 46.1679 164.716 46.068C164.227 45.9709 163.736 45.7768 163.345 45.4827C162.857 45.0916 163.003 44.5035 163.639 44.4064C165.255 44.1123 166.526 43.2301 167.799 42.3022C168.875 41.52 170 41.617 171.125 42.1052C171.762 42.3508 172.301 42.3508 172.887 42.2537C173.866 42.1052 174.845 41.9596 175.97 41.8112C175.825 43.2301 174.845 43.5727 173.866 44.0152C174.503 45.3343 175.139 46.7047 176.216 47.8296C176.655 48.2721 176.901 48.9059 176.998 49.5426C177.144 50.4248 176.558 50.8159 175.825 50.2763C175.088 49.7396 174.551 49.0058 173.866 48.3206C172.693 49.5426 171.174 50.1792 169.267 49.691C167.505 49.1514 166.477 47.978 166.232 46.0195ZM170.882 47.781C171.959 47.7325 172.644 47.3899 173.181 46.7532C173.378 46.5591 173.426 46.1194 173.378 45.8739C172.887 44.3065 171.225 42.9389 169.412 43.2815C168.336 43.4756 167.799 44.5035 168.19 45.4827C168.336 45.8253 168.387 46.1679 168.581 46.462C168.778 46.7532 169.021 47.1444 169.315 47.2928C169.855 47.5383 170.488 47.6839 170.882 47.781Z" fill="white"/>
<path d="M193.635 44.4047C192.853 44.5504 192.362 44.1592 192.02 43.6225C191.237 42.3491 191.237 41.0273 191.677 39.6568C192.802 36.0852 195.934 34.8147 198.578 34.9603C199.263 35.0089 199.996 35.0574 200.533 35.7911C199.897 35.9396 199.36 36.0367 198.82 36.2337C197.647 36.6248 196.425 36.8675 195.348 37.4071C193.047 38.5805 192.608 39.7568 193.096 42.3006C193.196 42.9858 193.39 43.671 193.635 44.4047Z" fill="white"/>
<path d="M187.568 33.101C186.44 37.4064 187.028 41.7603 186.931 46.0656C186.931 46.5567 186.883 47.0449 186.834 47.4846C186.783 47.9756 186.492 48.0727 186.049 47.9271C185.464 47.7301 185.17 47.2904 185.121 46.7508C185.073 45.4318 184.924 44.0614 185.17 42.7881C185.658 39.8531 186.295 36.9667 186.931 34.0802C187.028 33.6863 187.225 33.395 187.371 33.0039C187.419 33.0524 187.519 33.101 187.568 33.101Z" fill="white"/>
<path d="M179.2 37.0625C179.445 37.2081 179.639 37.308 179.739 37.4051C181.207 38.9697 181.058 42.3471 179.445 43.7176C179.102 44.0116 178.663 44.1572 178.22 44.2058C177.781 44.3028 177.535 44.0116 177.635 43.5206C177.732 43.2265 177.781 42.8839 177.978 42.6412C179.003 41.1737 179.345 39.5578 179.2 37.7477C179.151 37.6021 179.2 37.4051 179.2 37.0625Z" fill="white"/>
<path d="M178.32 33.2969C179.788 33.5909 180.913 34.1791 181.695 35.2554C182.526 36.3803 183.262 37.5537 182.82 39.0241C182.723 39.0726 182.674 39.1211 182.577 39.1697C181.207 37.2625 179.836 35.401 178.32 33.2969Z" fill="white"/>
<path d="M200.728 45.2845C200.728 45.9212 200.189 46.4094 199.555 46.4094C198.967 46.4094 198.576 46.0183 198.527 45.433C198.527 44.7963 199.064 44.2082 199.701 44.2567C200.237 44.2567 200.728 44.6992 200.728 45.2845Z" fill="white"/>
<path d="M171.565 45.6756C171.565 46.1667 171.174 46.5578 170.637 46.5578C170.049 46.5578 169.561 46.1667 169.561 45.6271C169.561 45.1389 170.001 44.6992 170.54 44.6992C171.126 44.7478 171.565 45.1389 171.565 45.6756Z" fill="white"/>
</svg>
