<svg width="195" height="231" viewBox="0 0 195 231" fill="none" xmlns="http://www.w3.org/2000/svg">
<mask id="mask0_206_504" style="mask-type:luminance" maskUnits="userSpaceOnUse" x="0" y="0" width="195" height="231">
<path d="M0.980469 0.398438H194.384V230.777H0.980469V0.398438Z" fill="white"/>
</mask>
<g mask="url(#mask0_206_504)">
<path d="M178.533 88.57C169.125 72.9215 164.931 53.9844 164.931 27.1564C164.931 26.9842 165.012 12.8577 164.817 6.97217C164.679 2.68369 161.668 0.406131 156.338 0.583892L142.109 1.03663C138.017 1.16717 134.193 1.97265 133.915 6.95551C133.609 12.4161 133.712 26.8453 133.715 27.1508C133.42 51.168 126.032 73.8325 119.213 87.034C108.545 107.701 104.287 127.869 104.082 158.786H86.0444C84.8779 146.459 82.5892 134.346 79.1784 122.442C75.7676 110.537 71.2958 99.0495 65.7602 87.9728C66.4907 87.0312 66.8546 85.9619 66.8462 84.7676C66.8324 84.1343 66.6935 83.5316 66.4352 82.9538C66.1741 82.3761 65.813 81.8734 65.3492 81.4429C65.1492 81.2623 64.9325 81.1068 64.6992 80.9735C65.7547 76.8822 69.2155 72.802 72.8318 68.9885C76.8147 64.7889 79.3617 58.0951 79.2451 54.4788C79.2062 53.3539 78.9201 52.5345 78.3896 52.0429C78.259 51.929 78.1063 51.8707 77.9313 51.8679L13.4458 52.3456C13.2652 52.3456 13.1097 52.4123 12.9819 52.5401C12.7347 52.7873 12.4681 53.2761 12.5681 54.9065C12.6375 55.812 12.7625 56.7063 12.9458 57.5951L12.9569 58.4895H13.1347C14.0318 62.4086 16.0039 67.647 19.3758 70.2717C23.0004 73.0937 27.3556 77.2738 28.1138 81.4956C27.7389 81.554 27.3778 81.6651 27.0334 81.8317C26.689 81.9956 26.3779 82.2067 26.0946 82.4622C25.814 82.7205 25.5752 83.0122 25.378 83.3399C25.1835 83.6649 25.0391 84.0149 24.9447 84.3843C24.5197 85.9619 24.9725 87.6784 25.9724 88.4894C23.3476 93.3695 20.9173 98.3468 18.6869 103.419C16.4594 108.493 14.4346 113.648 12.6153 118.884C10.796 124.119 9.18784 129.419 7.79353 134.782C6.39644 140.146 5.216 145.556 4.2522 151.014C3.28563 156.472 2.54125 161.957 2.01352 167.476C1.4858 172.993 1.18027 178.523 1.09417 184.064C1.00806 189.605 1.14138 195.14 1.49691 200.673C1.85243 206.203 2.42737 211.711 3.22174 217.197C4.06055 222.874 9.40726 227.612 15.1484 227.754L55.8695 228.771C56.4472 228.784 57.025 228.793 57.5971 228.793H57.7749V229.462C57.7749 229.618 57.8054 229.768 57.8638 229.909C57.9249 230.051 58.0082 230.179 58.1165 230.287C58.2276 230.395 58.3526 230.481 58.4943 230.54C58.6387 230.598 58.7859 230.629 58.9414 230.629H94.3214C94.477 230.629 94.6242 230.598 94.7686 230.54C94.9102 230.481 95.038 230.395 95.1463 230.287C95.2547 230.179 95.3408 230.051 95.3991 229.909C95.4574 229.768 95.488 229.618 95.488 229.462V217.808C96.5184 217.688 97.5239 217.466 98.5099 217.144C99.4959 216.822 100.437 216.402 101.34 215.891C102.24 215.377 103.082 214.78 103.862 214.1C104.643 213.419 105.348 212.667 105.979 211.842C106.256 216.672 106.554 221.705 106.87 226.943C106.879 227.079 106.923 227.201 107.006 227.31C107.09 227.418 107.198 227.493 107.326 227.535C113.389 229.523 128.202 230.631 144.764 230.631C161.251 230.631 179.474 229.532 192.518 227.112C192.673 227.085 192.801 227.01 192.904 226.89C193.006 226.768 193.059 226.629 193.062 226.474C193.195 219.835 193.409 212.95 193.618 206.292C194.967 162.993 196.362 118.223 178.533 88.57ZM135.243 7.03328C135.451 3.30863 137.934 2.50593 142.15 2.36983L156.379 1.91432C159.537 1.81155 163.343 2.61703 163.487 7.01661C163.656 12.1522 163.615 23.615 163.601 26.4898H135.043C135.026 23.5789 134.976 11.8134 135.243 7.0305V7.03328ZM120.397 87.6451C127.221 74.4269 134.615 51.8262 135.037 27.8202H163.601C163.67 54.551 167.931 73.5214 177.391 89.256C185.463 102.68 189.546 119.303 191.473 137.518C163.004 135.293 134.581 135.788 106.206 139.001C107.853 118.72 112.164 103.594 120.397 87.6451ZM106.098 140.351C134.556 137.113 163.059 136.618 191.612 138.862C193.112 153.905 193.181 169.998 192.843 186.25C165.129 189.841 126.907 189.983 109.17 188.697V159.452C109.17 159.269 109.106 159.11 108.976 158.98C108.845 158.849 108.689 158.786 108.506 158.786H105.415C105.456 152.15 105.676 146.045 106.098 140.351ZM65.5158 84.7953C65.5186 85.2981 65.4269 85.7813 65.2381 86.2452C65.0464 86.709 64.777 87.1201 64.4243 87.4784C64.2076 87.7228 63.9382 87.8617 63.6104 87.895C63.5688 87.8923 63.5271 87.8923 63.4855 87.895C61.0968 88.1617 58.8248 88.3422 56.5611 88.4589C55.1974 86.6563 53.6253 85.0564 51.8504 83.6593C51.781 83.4705 51.7088 83.2844 51.6255 83.0983C51.5421 82.9122 51.4477 82.7289 51.3505 82.5483C56.0278 82.4261 60.0052 82.2317 63.4577 81.9595C63.8521 81.9873 64.1854 82.1428 64.4576 82.4289C64.7881 82.7344 65.0436 83.0927 65.227 83.5038C65.4103 83.9149 65.5075 84.3454 65.5158 84.7953ZM50.645 90.5837C50.8561 90.3642 51.0533 90.1309 51.2283 89.881C51.6394 89.281 51.9366 88.6283 52.1226 87.9256C52.3087 87.2229 52.3698 86.5091 52.3115 85.7841C61.6467 94.2028 64.4965 110.018 62.3856 122.022C61.9967 122.703 60.5857 123.328 59.1831 123.172C58.4332 123.128 57.8082 122.822 57.311 122.261C57.1583 122.086 57.0999 121.881 57.1305 121.65C59.683 108.21 57.4999 97.7608 50.645 90.5837ZM39.21 89.031C39.56 89.7199 40.0266 90.3198 40.6099 90.8281C34.1855 98.5746 32.3162 109.668 35.3631 122.242C35.4076 122.47 35.3576 122.678 35.2159 122.861C34.7465 123.447 34.1382 123.783 33.3911 123.867C31.9968 124.092 30.558 123.536 30.1359 122.878C27.4056 110.907 29.5137 94.8249 38.585 85.9869C38.5267 87.0562 38.735 88.0728 39.21 89.0338V89.031ZM40.396 88.4311C39.5461 86.7479 39.8155 84.487 41.0848 82.6678C41.5792 81.9095 42.2236 81.3096 43.0124 80.8679C43.804 80.4291 44.6511 80.1985 45.5566 80.1763C45.751 80.1763 45.9427 80.1874 46.1343 80.2097C47.9092 80.418 49.5479 81.7345 50.4061 83.6454C50.5034 83.8593 50.5867 84.0787 50.6589 84.3037L50.6061 84.3759C50.6395 84.4009 50.6728 84.4287 50.7061 84.4565C50.97 85.2342 51.0533 86.0341 50.9533 86.8507C50.8533 87.6673 50.5811 88.4228 50.1367 89.1171C49.1118 90.5809 47.1815 91.4058 45.0928 91.2558C43.0013 91.1058 41.2042 90.0282 40.396 88.4311ZM20.1951 69.219C17.2232 66.9054 15.4011 62.1697 14.5207 58.4673L77.2619 57.6201L77.2425 56.2869L14.2346 57.1396C13.9707 56.0008 13.8596 54.8426 13.9013 53.6733L77.6258 53.2011C77.8258 53.6177 77.9202 54.0594 77.9119 54.5204C78.023 57.8701 75.6204 64.114 71.8652 68.0719C68.1267 72.0132 64.5437 76.2517 63.4105 80.6318C63.391 80.6318 63.3688 80.6318 63.3494 80.6318C59.7136 80.9207 55.4918 81.1179 50.4645 81.2401C49.9451 80.593 49.3257 80.068 48.6035 79.6597C47.8842 79.2542 47.112 78.9959 46.2926 78.8876C45.7344 78.8292 45.1816 78.8403 44.6261 78.9237C44.0734 79.007 43.5401 79.157 43.0235 79.3736C42.5097 79.5903 42.0292 79.8708 41.5848 80.2097C41.1404 80.5485 40.746 80.9374 40.3988 81.379C37.1574 81.3957 34.0021 81.3957 30.9497 81.3957H29.4554C28.6832 76.7072 24.042 72.2132 20.1951 69.219ZM26.2307 84.7287C26.4306 83.9815 27.075 82.7316 29.1304 82.7316H30.9469C33.7133 82.7316 36.5713 82.7316 39.4961 82.7178C39.3128 83.0622 39.1517 83.4205 39.0211 83.7927C37.474 85.0981 36.0992 86.5646 34.8965 88.1922C29.0526 88.2478 27.3889 87.8062 26.925 87.534C26.3334 87.1895 25.9029 85.9536 26.2334 84.7287H26.2307ZM55.9028 227.44L15.1789 226.424C10.0572 226.296 5.28544 222.068 4.53828 217.002C3.74947 211.547 3.1773 206.073 2.82456 200.573C2.47181 195.074 2.33849 189.569 2.4246 184.058C2.5107 178.55 2.81623 173.051 3.34118 167.565C3.86613 162.082 4.60772 156.625 5.56874 151.2C6.52976 145.773 7.70465 140.393 9.09341 135.063C10.4849 129.73 12.0848 124.461 13.8929 119.256C15.7039 114.051 17.7204 108.926 19.9396 103.882C22.1588 98.8384 24.5753 93.8917 27.1889 89.0422C28.1388 89.2782 30.022 89.5254 33.9522 89.5254H33.9549C27.6694 99.0412 26.4279 112.734 28.861 123.272C28.8721 123.331 28.8943 123.383 28.9193 123.436C29.497 124.519 31.1135 125.247 32.7606 125.247C33.0439 125.247 33.3244 125.225 33.605 125.18C34.1466 125.114 34.6521 124.942 35.127 124.669C35.5992 124.394 35.9992 124.039 36.3242 123.6C36.6825 123.092 36.7963 122.536 36.6602 121.928C33.705 109.737 35.4965 99.0218 41.6959 91.6058C42.7208 92.1863 43.8234 92.514 45.0011 92.5863C45.2011 92.6002 45.3983 92.6085 45.5955 92.6085C47.0565 92.6279 48.398 92.2391 49.6229 91.4419C56.2111 98.294 58.2998 108.368 55.8223 121.403C55.7195 122.014 55.8584 122.567 56.2417 123.056C56.5889 123.475 57.0083 123.811 57.4916 124.061C57.9776 124.311 58.4943 124.458 59.0387 124.497C59.2275 124.519 59.4164 124.528 59.6053 124.528C61.3468 124.528 63.0772 123.692 63.6271 122.52C63.6521 122.467 63.6688 122.411 63.6799 122.356C65.5214 112.023 63.7632 98.9051 57.4916 89.7421C59.4831 89.6254 61.4856 89.4588 63.5799 89.2282C63.9965 89.2282 64.3798 89.1199 64.7353 88.9005C70.1765 99.8383 74.5761 111.179 77.9341 122.925C81.2893 134.671 83.5474 146.626 84.7057 158.786H44.0012C43.8151 158.786 43.6596 158.852 43.529 158.98C43.3985 159.11 43.3346 159.269 43.3346 159.452V202.448C43.3346 202.934 43.3596 203.417 43.404 203.901C43.4513 204.384 43.5179 204.862 43.6096 205.339C43.7012 205.814 43.8151 206.287 43.9512 206.75C44.0845 207.217 44.2428 207.675 44.4206 208.125C44.5984 208.578 44.7983 209.02 45.0178 209.45C45.2372 209.883 45.4788 210.303 45.7371 210.714C45.9982 211.122 46.276 211.519 46.5704 211.903C46.8676 212.286 47.1814 212.655 47.5147 213.011C47.8453 213.364 48.1925 213.703 48.5563 214.022C48.9174 214.344 49.2951 214.647 49.6868 214.933C50.0784 215.219 50.4839 215.486 50.9005 215.736C51.3172 215.983 51.7449 216.211 52.1838 216.419C52.6198 216.624 53.067 216.813 53.5225 216.977C53.978 217.144 54.4419 217.288 54.9113 217.411C55.3807 217.533 55.8528 217.633 56.3334 217.71C56.8111 217.788 57.2916 217.844 57.7749 217.877V227.457C57.1555 227.46 56.5306 227.454 55.9028 227.44ZM94.1548 229.295H59.1081V217.913H94.1575L94.1548 229.295ZM93.7048 216.583H58.7998C58.3359 216.583 57.8749 216.558 57.4138 216.513C56.9555 216.466 56.4972 216.399 56.0445 216.308C55.589 216.216 55.1418 216.105 54.6974 215.969C54.2558 215.836 53.8197 215.68 53.3947 215.502C52.967 215.325 52.5476 215.127 52.1393 214.908C51.731 214.691 51.3366 214.452 50.9505 214.194C50.5672 213.939 50.1951 213.664 49.8368 213.369C49.4812 213.075 49.1368 212.767 48.8091 212.439C48.4841 212.111 48.173 211.769 47.8786 211.411C47.5842 211.053 47.3092 210.681 47.0537 210.297C46.7954 209.911 46.5565 209.517 46.3399 209.109C46.1204 208.7 45.9232 208.284 45.7455 207.856C45.5677 207.428 45.4122 206.992 45.2789 206.55C45.1428 206.106 45.0317 205.659 44.94 205.206C44.8483 204.751 44.7817 204.295 44.7345 203.834C44.69 203.373 44.6678 202.912 44.665 202.448V186.283C49.7979 186.225 59.1359 186.163 68.1878 186.105C77.7952 186.044 87.7304 185.98 92.6743 185.916L92.6549 184.583C87.7165 184.647 77.7841 184.714 68.1767 184.775C59.1359 184.833 49.8062 184.894 44.665 184.952V175.831C49.7979 175.77 59.1359 175.709 68.1878 175.653C77.7952 175.589 87.7304 175.526 92.6743 175.462L92.6549 174.131C87.7165 174.195 77.7841 174.259 68.1795 174.32C59.1359 174.378 49.8062 174.44 44.665 174.498V166.829L100.915 166.646L100.912 165.313L44.665 165.499V160.116H107.84V195.949C102.726 196.01 93.2632 196.071 84.0974 196.132C74.5233 196.193 64.6187 196.257 59.6858 196.321L59.7025 197.651C64.6298 197.587 74.5316 197.524 84.1057 197.462C93.2632 197.404 102.715 197.343 107.837 197.282V202.448C107.837 203.659 107.687 204.848 107.379 206.02C102.16 206.078 92.9493 206.139 84.0196 206.195C74.4761 206.259 64.6048 206.323 59.6858 206.387L59.7025 207.717C64.6187 207.653 74.4872 207.589 84.0307 207.528C92.716 207.473 101.668 207.414 106.959 207.356C106.709 208.028 106.409 208.678 106.059 209.306C105.712 209.931 105.318 210.528 104.879 211.094C104.44 211.664 103.959 212.194 103.44 212.686C102.921 213.18 102.365 213.633 101.776 214.044C101.187 214.452 100.571 214.816 99.9264 215.133C99.2848 215.45 98.6182 215.713 97.935 215.93C97.2517 216.144 96.5545 216.308 95.8463 216.416C95.1352 216.527 94.4242 216.58 93.7048 216.583ZM192.284 206.25C192.084 212.73 191.873 219.427 191.74 225.901C164.268 230.879 119.702 229.843 108.17 226.404C107.826 220.68 107.503 215.202 107.204 209.978C107.676 209.136 108.065 208.256 108.37 207.339H108.515L108.509 206.912C108.948 205.456 109.167 203.97 109.167 202.451V190.033C115.556 190.491 124.549 190.769 134.754 190.769C152.98 190.769 175.028 189.885 192.809 187.597C192.676 193.81 192.482 200.043 192.287 206.25H192.284Z" fill="white"/>
</g>
<path d="M142.969 167.585C143.117 167.585 143.264 167.571 143.411 167.566C143.467 168.177 143.364 168.76 143.1 169.316C142.708 170.143 142.231 171.151 141.722 172.235C141.542 172.618 141.414 173.018 141.342 173.435C141.27 173.851 141.253 174.271 141.295 174.693C141.336 175.115 141.431 175.523 141.581 175.918C141.731 176.315 141.933 176.684 142.181 177.026C142.431 177.368 142.722 177.67 143.053 177.934C143.386 178.198 143.744 178.412 144.136 178.579C144.525 178.745 144.928 178.856 145.347 178.915C145.766 178.973 146.189 178.973 146.608 178.917C147.425 178.809 148.491 178.665 149.516 178.495C149.955 178.423 150.391 178.44 150.821 178.542C151.255 178.645 151.652 178.829 152.013 179.09C152.668 179.567 153.402 180.059 154.318 180.637C154.71 180.887 155.127 181.076 155.571 181.203C156.015 181.328 156.471 181.389 156.932 181.381C157.396 181.373 157.849 181.295 158.287 181.153C158.729 181.012 159.137 180.806 159.518 180.542C159.898 180.287 160.234 179.981 160.526 179.626C160.818 179.27 161.051 178.879 161.223 178.454C161.398 178.029 161.509 177.587 161.551 177.131C161.595 176.673 161.57 176.22 161.482 175.768L161.454 175.629C161.376 175.232 161.37 174.832 161.437 174.429C161.504 174.029 161.64 173.651 161.843 173.301C162.045 172.949 162.304 172.643 162.618 172.382C162.929 172.124 163.279 171.929 163.662 171.796C163.926 171.707 164.19 171.618 164.453 171.535C164.903 171.39 165.323 171.182 165.712 170.91C166.098 170.638 166.437 170.315 166.725 169.94C167.017 169.568 167.245 169.16 167.414 168.718C167.581 168.277 167.681 167.818 167.712 167.346C167.742 166.874 167.7 166.407 167.592 165.949C167.481 165.488 167.306 165.055 167.067 164.647C166.825 164.238 166.531 163.877 166.181 163.558C165.831 163.238 165.442 162.977 165.015 162.774C164.415 162.494 163.856 162.238 163.359 162.019C162.784 161.763 162.318 161.377 161.959 160.861C161.601 160.344 161.401 159.775 161.362 159.147L161.209 156.861C161.179 156.408 161.084 155.97 160.929 155.542C160.771 155.117 160.557 154.722 160.287 154.359C160.015 153.995 159.698 153.678 159.337 153.406C158.973 153.131 158.582 152.917 158.157 152.759C157.732 152.598 157.293 152.503 156.84 152.47C156.388 152.437 155.94 152.47 155.499 152.567C155.054 152.664 154.635 152.82 154.238 153.039C153.838 153.256 153.48 153.525 153.16 153.848L152.199 154.814C151.091 151.262 148.438 148.556 145.186 147.773C144.289 147.54 143.378 147.44 142.45 147.476C141.525 147.512 140.622 147.681 139.745 147.981C138.87 148.284 138.056 148.706 137.303 149.248C136.551 149.79 135.892 150.428 135.328 151.164C132.729 154.395 132.009 158.922 133.584 162.175C135.187 165.494 138.875 167.585 142.969 167.585ZM154.104 154.786C154.332 154.556 154.591 154.361 154.877 154.206C155.163 154.05 155.463 153.936 155.782 153.867C156.099 153.798 156.421 153.775 156.746 153.798C157.068 153.823 157.385 153.892 157.687 154.006C157.993 154.12 158.276 154.273 158.535 154.47C158.796 154.664 159.023 154.892 159.218 155.153C159.412 155.414 159.565 155.697 159.679 156.003C159.79 156.308 159.857 156.625 159.879 156.95L160.032 159.236C160.059 159.664 160.143 160.08 160.284 160.486C160.426 160.891 160.621 161.272 160.868 161.625C161.112 161.977 161.401 162.288 161.732 162.563C162.062 162.836 162.426 163.061 162.818 163.236C163.306 163.452 163.856 163.702 164.448 163.98C164.753 164.124 165.034 164.313 165.284 164.541C165.534 164.769 165.745 165.03 165.92 165.321C166.092 165.616 166.217 165.927 166.295 166.255C166.376 166.585 166.403 166.921 166.381 167.26C166.359 167.599 166.289 167.927 166.17 168.243C166.051 168.56 165.887 168.854 165.678 169.121C165.47 169.391 165.226 169.621 164.948 169.815C164.67 170.013 164.37 170.163 164.048 170.265C163.779 170.354 163.506 170.44 163.234 170.532C162.968 170.627 162.712 170.743 162.465 170.882C162.218 171.021 161.984 171.179 161.768 171.36C161.551 171.54 161.351 171.74 161.168 171.957C160.987 172.174 160.826 172.404 160.684 172.651C160.543 172.896 160.426 173.151 160.332 173.418C160.237 173.685 160.168 173.96 160.121 174.237C160.076 174.518 160.057 174.798 160.062 175.082C160.065 175.365 160.096 175.645 160.151 175.923L160.171 176.015C160.232 176.34 160.246 176.668 160.215 176.995C160.182 177.326 160.101 177.643 159.973 177.948C159.848 178.254 159.682 178.534 159.473 178.792C159.262 179.048 159.023 179.27 158.748 179.453C158.476 179.64 158.182 179.784 157.865 179.884C157.551 179.984 157.226 180.034 156.896 180.04C156.565 180.045 156.243 180.003 155.924 179.912C155.604 179.823 155.307 179.69 155.029 179.512C154.135 178.948 153.424 178.473 152.793 178.012C151.971 177.418 151.055 177.12 150.044 177.12C149.794 177.12 149.544 177.143 149.297 177.181C148.291 177.348 147.236 177.493 146.43 177.598C145.816 177.679 145.225 177.598 144.655 177.354C144.086 177.112 143.619 176.74 143.253 176.24C142.889 175.74 142.678 175.182 142.617 174.565C142.558 173.948 142.661 173.362 142.925 172.801C143.433 171.718 143.908 170.713 144.3 169.885C144.48 169.502 144.608 169.099 144.683 168.682C144.755 168.263 144.772 167.843 144.733 167.421C144.691 166.999 144.597 166.588 144.447 166.191C144.294 165.794 144.094 165.424 143.842 165.083L143.089 164.052C142.889 163.78 142.733 163.486 142.625 163.169C142.514 162.849 142.45 162.522 142.439 162.186C142.425 161.85 142.461 161.516 142.547 161.191C142.633 160.866 142.764 160.561 142.942 160.272C143.119 159.986 143.336 159.733 143.589 159.511C143.842 159.289 144.122 159.108 144.428 158.969C144.736 158.83 145.055 158.742 145.391 158.697C145.725 158.655 146.058 158.661 146.391 158.719L147.222 158.861C147.977 158.989 148.722 158.939 149.452 158.705C150.183 158.472 150.819 158.083 151.36 157.539L154.104 154.786ZM136.364 152.001C136.851 151.364 137.42 150.812 138.067 150.345C138.717 149.876 139.42 149.512 140.178 149.251C140.934 148.99 141.711 148.842 142.511 148.812C143.311 148.781 144.1 148.867 144.875 149.067C147.875 149.79 150.291 152.453 151.119 155.9L150.421 156.6C150.033 156.989 149.574 157.269 149.052 157.436C148.527 157.603 147.994 157.642 147.45 157.547L146.619 157.406C146.155 157.325 145.691 157.317 145.228 157.375C144.761 157.436 144.314 157.561 143.886 157.756C143.458 157.947 143.067 158.2 142.714 158.508C142.361 158.819 142.061 159.172 141.814 159.572C141.567 159.972 141.383 160.397 141.264 160.852C141.145 161.305 141.095 161.769 141.114 162.236C141.131 162.705 141.217 163.163 141.372 163.605C141.525 164.049 141.742 164.46 142.02 164.838L142.775 165.869C142.861 165.988 142.942 166.116 143.011 166.246C139.45 166.246 136.148 164.419 134.784 161.594C133.423 158.789 134.076 154.842 136.364 152.001Z" fill="white"/>
<path d="M59.4635 46.3541C59.5108 46.6902 59.6274 47.0013 59.8107 47.2874C59.9968 47.5735 60.2329 47.8068 60.519 47.9873L61.2606 46.8819C60.9856 46.7208 60.8273 46.4847 60.7801 46.1736C60.6884 45.5014 61.18 44.4571 62.0966 43.3822C62.6382 42.7461 63.8715 41.1018 63.602 39.5492C63.5382 39.1993 63.4021 38.8826 63.1937 38.5965C62.9854 38.3104 62.7243 38.0827 62.4105 37.916C62.155 37.7772 61.9216 37.6022 61.7161 37.3939C61.5078 37.1856 61.3356 36.955 61.1967 36.6967C61.0551 36.4412 60.9551 36.169 60.8912 35.8829C60.8301 35.5968 60.8106 35.308 60.8301 35.0135C60.8523 34.6969 60.919 34.3914 61.0301 34.0942C61.1412 33.797 61.2884 33.5192 61.4772 33.2665C61.6661 33.011 61.8855 32.786 62.1355 32.5915C62.3883 32.3999 62.6605 32.2444 62.9577 32.1305C63.2382 32.0194 63.4798 31.85 63.6826 31.6222C63.8853 31.3972 64.0242 31.1361 64.0992 30.8417C64.1881 30.4667 64.1881 30.0918 64.102 29.7168C64.0187 29.3391 63.8548 29.0002 63.6159 28.7003C63.2326 28.2447 62.7993 27.8392 62.3216 27.4865C61.9744 27.2254 61.6522 26.9393 61.3523 26.6227C61.0745 26.3283 60.944 25.9783 60.9634 25.5728C60.9884 25.3895 61.0828 25.2561 61.2412 25.1673L60.5496 24.0312C60.0357 24.334 59.7357 24.7812 59.6469 25.3728C59.6052 25.7616 59.6441 26.1422 59.7691 26.5143C59.8913 26.8865 60.0885 27.2171 60.3551 27.5059C60.7023 27.8781 61.0828 28.2197 61.4911 28.5253C61.8855 28.8141 62.2438 29.1447 62.566 29.5168C62.7993 29.8057 62.8827 30.1334 62.816 30.5001C62.7632 30.6973 62.6438 30.8306 62.4494 30.8973C62.0383 31.0611 61.6606 31.2778 61.3106 31.5472C60.9606 31.8194 60.6551 32.1333 60.394 32.4888C60.1329 32.8471 59.9274 33.2332 59.7746 33.647C59.6246 34.0609 59.533 34.4914 59.5024 34.9302C59.4719 35.3468 59.4997 35.7607 59.5885 36.169C59.6774 36.5773 59.8218 36.9661 60.019 37.3328C60.219 37.6994 60.4662 38.0299 60.7606 38.3271C61.0551 38.6243 61.3856 38.8715 61.7522 39.0743C62.0494 39.2187 62.2299 39.4548 62.2911 39.7798C62.4077 40.4491 61.9355 41.524 61.0856 42.5212C60.394 43.3294 59.2636 44.907 59.4635 46.3541Z" fill="white"/>
<path d="M42.7233 46.353C42.7705 46.6891 42.8872 47.0002 43.0733 47.2862C43.2566 47.5723 43.4927 47.8056 43.7815 47.9862L44.5204 46.8807C44.2454 46.7196 44.0871 46.4835 44.0426 46.1697C43.9482 45.4975 44.4426 44.456 45.3564 43.3811C45.9008 42.745 47.134 41.0979 46.8618 39.5481C46.7979 39.1981 46.6646 38.8787 46.4535 38.5926C46.2452 38.3065 45.9841 38.0816 45.6703 37.9149C45.4147 37.7733 45.1842 37.5983 44.9759 37.39C44.7703 37.1844 44.5954 36.9511 44.4565 36.6956C44.3148 36.4373 44.2148 36.1651 44.1537 35.879C44.0898 35.5929 44.0704 35.304 44.0898 35.0124C44.1148 34.6958 44.1815 34.3875 44.2898 34.0903C44.4009 33.7931 44.5509 33.5181 44.737 33.2626C44.9259 33.007 45.1453 32.7821 45.3981 32.5904C45.648 32.396 45.923 32.2432 46.2174 32.1266C46.5007 32.0155 46.7424 31.846 46.9424 31.6211C47.1451 31.3933 47.284 31.1322 47.3618 30.8406C47.4479 30.4628 47.4479 30.0879 47.3645 29.7129C47.2784 29.3379 47.1146 28.9991 46.8757 28.6991C46.4924 28.2408 46.0619 27.8381 45.5814 27.4826C45.2342 27.2243 44.912 26.9354 44.612 26.6215C44.3343 26.3271 44.2037 25.9744 44.2232 25.5689C44.2509 25.3883 44.3426 25.2522 44.5037 25.1661L43.8121 24.0273C43.2983 24.3301 42.9955 24.7773 42.9066 25.3689C42.865 25.7605 42.9038 26.141 43.0261 26.5132C43.151 26.8826 43.3455 27.2132 43.6121 27.4992C43.9621 27.8742 44.3398 28.2131 44.7481 28.5214C45.1453 28.8102 45.5008 29.1407 45.823 29.5129C46.0563 29.8018 46.1397 30.1295 46.073 30.4962C46.023 30.6934 45.9008 30.8267 45.7091 30.8934C45.2981 31.0572 44.9175 31.2739 44.5676 31.5461C44.2176 31.8155 43.9121 32.1294 43.6538 32.4877C43.3927 32.8432 43.1844 33.2292 43.0344 33.6459C42.8816 34.0597 42.7927 34.4902 42.7622 34.9291C42.7316 35.3457 42.7594 35.7596 42.8483 36.1679C42.9372 36.5762 43.0788 36.965 43.2788 37.3316C43.4788 37.6983 43.726 38.0316 44.0204 38.326C44.3148 38.6232 44.6453 38.8732 45.012 39.0731C45.3092 39.2176 45.4897 39.4537 45.5508 39.7786C45.6675 40.448 45.1953 41.5257 44.3454 42.52C43.6538 43.3283 42.5233 44.9031 42.7233 46.353Z" fill="white"/>
<path d="M27.4887 47.0316C27.536 47.3676 27.6526 47.6787 27.8359 47.962C28.022 48.2481 28.2581 48.4814 28.5442 48.662L29.2858 47.5565C29.0136 47.3982 28.8525 47.1621 28.8081 46.8482C28.7136 46.1761 29.2052 45.1345 30.1218 44.0596C30.6634 43.4236 31.8967 41.7765 31.6272 40.2239C31.5634 39.8767 31.4273 39.5573 31.2189 39.2712C31.0106 38.9851 30.7495 38.7573 30.4357 38.5935C30.1801 38.4518 29.9468 38.2768 29.7413 38.0685C29.5358 37.863 29.3608 37.6297 29.2219 37.3714C29.0803 37.1158 28.9803 36.8436 28.9164 36.5576C28.8553 36.2715 28.8358 35.9826 28.8553 35.691C28.8775 35.3743 28.9442 35.066 29.0553 34.7688C29.1664 34.4716 29.3136 34.1967 29.5024 33.9411C29.6913 33.6856 29.9107 33.4606 30.1607 33.269C30.4135 33.0746 30.6857 32.9218 30.9829 32.8051C31.2662 32.694 31.5078 32.5246 31.7078 32.2968C31.9105 32.0691 32.0494 31.8108 32.1272 31.5164C32.2133 31.1414 32.2133 30.7664 32.1272 30.3887C32.0439 30.0137 31.88 29.6749 31.6411 29.3749C31.2578 28.9194 30.8245 28.5139 30.344 28.1611C29.9996 27.9 29.6774 27.6112 29.3774 27.2973C29.0997 27.0001 28.9692 26.6502 28.9886 26.2446C29.0136 26.0641 29.108 25.928 29.2663 25.8391L28.5747 24.7031C28.0609 25.0059 27.7609 25.4558 27.6721 26.0447C27.6304 26.4335 27.6693 26.8168 27.7943 27.189C27.9165 27.5612 28.1137 27.8917 28.3803 28.1778C28.7275 28.55 29.108 28.8916 29.5163 29.1971C29.9107 29.4888 30.269 29.8193 30.5884 30.1887C30.8245 30.4776 30.9079 30.8053 30.8384 31.172C30.7884 31.3692 30.6662 31.5025 30.4746 31.5719C30.0635 31.733 29.683 31.9497 29.3358 32.2219C28.9858 32.4913 28.6803 32.8051 28.4192 33.1607C28.1581 33.519 27.9526 33.905 27.7998 34.3189C27.6498 34.7327 27.5582 35.1605 27.5276 35.6021C27.4971 36.0187 27.5248 36.4326 27.6137 36.8409C27.7026 37.2492 27.8443 37.6352 28.0442 38.0046C28.2442 38.3713 28.4914 38.7018 28.7858 38.999C29.0803 39.2962 29.4108 39.5434 29.7746 39.7461C30.0746 39.8906 30.2551 40.1239 30.3135 40.4516C30.4329 41.121 29.9607 42.1959 29.1108 43.193C28.4164 44.0041 27.2888 45.5845 27.4887 47.0316Z" fill="white"/>
<path d="M89.3301 151.703C89.3773 152.04 89.4939 152.351 89.6773 152.637C89.8634 152.92 90.0994 153.153 90.3855 153.337L91.1271 152.228C90.8522 152.067 90.6938 151.831 90.6494 151.517C90.555 150.845 91.0466 149.804 91.9632 148.729C92.5076 148.093 93.738 146.446 93.4686 144.896C93.4047 144.546 93.2686 144.229 93.0603 143.94C92.852 143.654 92.5909 143.429 92.277 143.263C92.0215 143.121 91.7882 142.946 91.5826 142.74C91.3771 142.532 91.2021 142.299 91.0632 142.043C90.9216 141.785 90.8216 141.513 90.7577 141.227C90.6966 140.941 90.6772 140.652 90.6966 140.36C90.7188 140.043 90.7855 139.738 90.8966 139.441C91.0077 139.144 91.1549 138.866 91.3438 138.61C91.5326 138.355 91.7521 138.133 92.002 137.938C92.2548 137.746 92.527 137.591 92.8242 137.474C93.1047 137.363 93.3491 137.196 93.5491 136.969C93.7519 136.741 93.8908 136.483 93.9685 136.188C94.0546 135.813 94.0546 135.438 93.9685 135.061C93.8852 134.686 93.7213 134.347 93.4825 134.047C93.0992 133.591 92.6659 133.186 92.1881 132.833C91.8409 132.572 91.5188 132.286 91.2188 131.969C90.941 131.675 90.8105 131.325 90.8327 130.917C90.8549 130.736 90.9494 130.6 91.1105 130.514L90.4161 129.375C89.9022 129.681 89.6023 130.128 89.5162 130.717C89.4717 131.108 89.5134 131.489 89.6356 131.861C89.7578 132.233 89.955 132.564 90.2217 132.85C90.5688 133.225 90.9494 133.563 91.3577 133.872C91.7521 134.161 92.1104 134.491 92.4298 134.863C92.6659 135.152 92.7492 135.48 92.6798 135.847C92.6298 136.044 92.5076 136.177 92.3159 136.244C91.9048 136.408 91.5243 136.624 91.1771 136.894C90.8272 137.166 90.5216 137.477 90.2605 137.835C89.9995 138.191 89.7939 138.577 89.6412 138.991C89.4912 139.407 89.3995 139.835 89.369 140.277C89.3384 140.693 89.3662 141.104 89.4551 141.513C89.5439 141.921 89.6856 142.31 89.8856 142.677C90.0856 143.043 90.3328 143.376 90.6272 143.674C90.9216 143.968 91.2521 144.218 91.6187 144.418C91.9159 144.562 92.0965 144.799 92.1548 145.124C92.2742 145.796 91.8021 146.871 90.9494 147.865C90.2605 148.676 89.1273 150.254 89.3301 151.703Z" fill="white"/>
<path d="M72.59 151.703C72.6372 152.04 72.7539 152.351 72.9372 152.634C73.1233 152.92 73.3594 153.153 73.6455 153.334L74.3871 152.228C74.1121 152.07 73.9538 151.831 73.9093 151.517C73.8149 150.845 74.3065 149.804 75.2231 148.729C75.7647 148.093 77.0007 146.448 76.7285 144.896C76.6646 144.546 76.5285 144.229 76.3202 143.943C76.1119 143.657 75.8508 143.429 75.537 143.263C75.2814 143.121 75.0481 142.949 74.8426 142.74C74.637 142.532 74.4621 142.302 74.3232 142.043C74.1815 141.785 74.0815 141.516 74.0204 141.229C73.9565 140.943 73.9371 140.652 73.9565 140.36C73.9815 140.043 74.0482 139.738 74.1565 139.441C74.2676 139.144 74.4148 138.866 74.6037 138.61C74.7926 138.357 75.012 138.133 75.262 137.938C75.5147 137.746 75.7869 137.591 76.0841 137.477C76.3647 137.366 76.6091 137.196 76.8091 136.969C77.0118 136.741 77.1507 136.483 77.2285 136.188C77.3146 135.813 77.3146 135.438 77.2285 135.063C77.1451 134.686 76.9813 134.35 76.7424 134.047C76.3591 133.591 75.9258 133.186 75.4481 132.833C75.1009 132.572 74.7787 132.286 74.4787 131.969C74.1982 131.675 74.0704 131.325 74.0899 130.919C74.1149 130.736 74.2065 130.603 74.3676 130.514L73.676 129.375C73.1622 129.681 72.8622 130.128 72.7733 130.719C72.7317 131.108 72.7705 131.489 72.8955 131.861C73.0177 132.233 73.215 132.564 73.4816 132.852C73.8288 133.225 74.2065 133.563 74.6148 133.872C75.012 134.161 75.3703 134.491 75.6897 134.863C75.9258 135.152 76.0091 135.48 75.9397 135.847C75.8897 136.044 75.7675 136.177 75.5758 136.247C75.1648 136.408 74.7842 136.624 74.4371 136.897C74.0871 137.166 73.7816 137.48 73.5205 137.835C73.2594 138.194 73.0539 138.577 72.9011 138.994C72.7511 139.407 72.6594 139.835 72.6289 140.277C72.5983 140.693 72.6261 141.104 72.715 141.516C72.8011 141.924 72.9455 142.31 73.1455 142.679C73.3455 143.046 73.5927 143.376 73.8871 143.674C74.1815 143.971 74.512 144.218 74.8787 144.421C75.1759 144.565 75.3564 144.799 75.4147 145.126C75.5314 145.796 75.062 146.871 74.2093 147.865C73.5205 148.676 72.39 150.254 72.59 151.703Z" fill="white"/>
<path d="M57.3526 152.38C57.4026 152.716 57.5193 153.028 57.7026 153.314C57.8887 153.6 58.1248 153.833 58.4109 154.014L59.1525 152.903C58.8775 152.744 58.7192 152.508 58.672 152.197C58.5803 151.525 59.0719 150.481 59.9885 149.406C60.5301 148.77 61.7633 147.125 61.4911 145.573C61.43 145.225 61.2939 144.906 61.0856 144.62C60.8773 144.334 60.6162 144.109 60.3024 143.942C60.0468 143.801 59.8135 143.628 59.608 143.42C59.3997 143.212 59.2275 142.981 59.0858 142.723C58.9469 142.465 58.8469 142.195 58.7831 141.906C58.7219 141.62 58.6997 141.331 58.7219 141.04C58.7442 140.723 58.8108 140.418 58.9219 140.12C59.0303 139.823 59.1802 139.545 59.3691 139.29C59.558 139.034 59.7774 138.812 60.0274 138.618C60.2801 138.426 60.5523 138.271 60.8467 138.154C61.1301 138.043 61.3717 137.876 61.5745 137.648C61.7772 137.421 61.9161 137.162 61.9911 136.868C62.08 136.493 62.08 136.118 61.9939 135.74C61.9105 135.365 61.7467 135.026 61.505 134.726C61.1217 134.271 60.6912 133.865 60.2107 133.513C59.8663 133.252 59.5441 132.966 59.2441 132.649C58.9636 132.354 58.8358 132.005 58.8553 131.596C58.8803 131.416 58.9719 131.282 59.133 131.193L58.4414 130.055C57.9276 130.36 57.6276 130.807 57.5387 131.396C57.4971 131.788 57.536 132.168 57.6609 132.541C57.7831 132.913 57.9776 133.243 58.247 133.529C58.5942 133.904 58.9719 134.243 59.3802 134.551C59.7774 134.84 60.1357 135.171 60.4551 135.543C60.6912 135.832 60.7745 136.16 60.7051 136.526C60.6551 136.723 60.5329 136.857 60.3412 136.926C59.9302 137.087 59.5496 137.304 59.1997 137.573C58.8525 137.846 58.547 138.159 58.2859 138.515C58.0248 138.871 57.8193 139.257 57.6665 139.673C57.5137 140.087 57.4248 140.515 57.3943 140.956C57.3637 141.373 57.3915 141.784 57.4804 142.192C57.5665 142.601 57.7109 142.99 57.9109 143.356C58.1109 143.726 58.3581 144.056 58.6525 144.353C58.9469 144.648 59.2747 144.898 59.6413 145.1C59.9413 145.245 60.1218 145.478 60.1801 145.806C60.2968 146.475 59.8246 147.55 58.9747 148.545C58.2831 149.358 57.1554 150.933 57.3526 152.38Z" fill="white"/>
</svg>
