<svg width="229" height="153" viewBox="0 0 229 153" fill="none" xmlns="http://www.w3.org/2000/svg">
<path d="M152.778 119.449C156.93 115.697 154.272 109.459 149.706 107.461C144.162 105.031 137.496 107.948 134.868 113.203C132.172 118.591 133.374 126.612 138.179 130.487C143.804 135.02 152.639 134.078 158.75 131.34C160.677 130.473 159.008 127.64 157.091 128.498C149.203 132.034 137.324 130.756 136.768 120.107C136.554 116.038 138.46 111.95 142.429 110.464C144.104 109.831 146.131 109.65 147.851 110.256C150.45 111.169 153.233 114.605 150.45 117.124C148.878 118.549 151.211 120.866 152.778 119.455V119.449Z" fill="white"/>
<path d="M176.759 132.543C183.597 129.804 182.708 120.91 175.761 118.849C166.173 116.002 157.46 127.737 156.235 136.017C153.083 157.276 188.824 156.607 195.476 140.747C194.562 140.986 193.646 141.228 192.726 141.475C202.989 154.179 222.665 141.117 228.023 130.118C228.948 128.224 226.112 126.554 225.182 128.46C220.782 137.487 204.023 150.255 195.048 139.148C194.176 138.064 192.721 138.873 192.299 139.875C188.449 149.047 174.698 151.138 166.354 147.619C159.771 144.841 158.033 138.5 160.891 132.184C161.935 129.879 163.321 127.668 165.124 125.86C165.601 125.399 166.071 124.938 166.548 124.474C171.079 119.947 174.189 121.577 175.881 129.376C173.937 130.151 174.789 133.334 176.753 132.548L176.759 132.543Z" fill="white"/>
<path d="M153.7 111.815C159.66 105.374 167.237 100.352 176.325 100.416C187.144 100.496 196.546 109.365 194.496 120.539C194.24 121.955 196.123 123.566 197.248 122.139C200.309 118.225 206.056 118.189 209.433 121.642C210.728 122.961 211.583 124.744 212.75 126.177C214.324 128.11 215.791 129.624 218.021 130.768C221.382 132.493 225.123 133.024 227.845 130.127C229.295 128.585 226.973 126.258 225.518 127.799C219.863 133.799 212.425 118.5 208.053 116.348C203.256 113.987 198.068 115.792 194.921 119.817C195.834 120.35 196.751 120.88 197.67 121.417C199.559 111.087 193.587 101.385 183.505 98.2493C171.32 94.4608 159.521 100.68 151.372 109.493C149.936 111.045 152.253 113.378 153.7 111.82V111.815Z" fill="white"/>
<path d="M28.1507 46.9397C29.4478 63.4187 52.7512 51.4198 53.5066 39.6626C54.6954 21.1644 31.2393 19.4618 19.1405 25.5473C3.66416 33.3327 -4.36841 51.5587 2.48649 67.8794C9.18586 83.8279 28.4312 90.0606 43.2687 81.367C45.0935 80.2949 43.4409 77.4535 41.6105 78.5256C17.6517 92.5659 -5.84605 63.5409 7.08328 41.1458C12.5105 31.7439 23.4539 24.7974 34.4973 25.189C41.2939 25.4279 48.3849 29.1108 49.9375 36.2824C50.8958 40.6959 49.2209 44.2177 46.1851 47.1758C42.7188 50.5588 32.1337 55.6583 31.4476 46.9397C31.2838 44.8427 27.9924 44.826 28.1563 46.9397H28.1507Z" fill="white"/>
<path d="M58.1726 79.2662C63.9082 74.0723 57.6588 67.2479 51.1899 68.5228C43.0546 70.1282 39.18 80.1023 41.7908 87.3849C49.3957 108.572 83.248 95.723 91.3084 81.5521C92.3555 79.7106 89.5141 78.0525 88.467 79.894C83.6757 88.3154 74.3933 92.04 65.358 94.1648C59.1475 95.6258 52.587 95.6952 47.7653 90.7679C44.96 87.8987 43.6268 83.763 44.5156 79.8023C44.8961 78.7691 45.2822 77.7358 45.6599 76.7081C47.6625 72.2725 51.0594 72.353 55.8506 76.9387C54.2758 78.3635 56.6089 80.6855 58.1782 79.2662H58.1726Z" fill="white"/>
<path d="M88.895 81.3642C93.9195 91.0911 104.094 97.8932 115.298 97.0489C127.766 96.1128 132.405 87.6359 135.718 76.8508C136.34 74.8232 133.166 73.9566 132.546 75.9786C129.486 85.9444 125.097 93.8631 113.376 93.8436C103.969 93.8269 95.9249 87.822 91.7308 79.7088C90.7559 77.8257 87.9201 79.4894 88.8894 81.3698L88.895 81.3642Z" fill="white"/>
<path d="M132.94 77.2542C154.561 88.9476 177.517 66.733 182.461 46.7349C182.969 44.6796 179.797 43.8019 179.289 45.8628C174.889 63.6555 154.358 85.0979 134.599 74.4184C132.738 73.4129 131.074 76.2488 132.94 77.2598V77.2542Z" fill="white"/>
<path d="M104.177 39.3498C111.387 41.3635 112.693 44.4132 108.101 48.485C106.746 49.7099 105.268 50.7543 103.668 51.6209C98.1745 54.5817 93.3833 52.4569 90.5419 46.9824C87.0811 40.3247 88.6643 31.4589 93.6777 26.0205C98.8328 20.4294 107.201 18.7906 114.404 20.4988C121.345 22.1459 126.102 26.9676 130.885 31.9033C138.651 39.9081 147.223 46.0464 158.083 49.1017C166.296 51.4125 175.339 52.7235 182.303 46.8491C183.922 45.4826 181.583 43.1661 179.975 44.5215C170.684 52.3597 153.5 45.227 144.745 39.5803C136.082 33.9948 130.56 24.379 121.392 19.6156C108.032 12.669 89.8836 18.1129 86.1173 33.592C82.6177 47.9712 94.7554 63.1475 108.621 52.3291C113.087 48.8433 116.962 41.7635 112.359 36.7139C109.06 33.0893 103.974 33.9503 101.346 37.6861C100.127 39.4192 102.974 41.0635 104.188 39.347L104.177 39.3498Z" fill="white"/>
<path d="M38.3129 23.9492C39.9933 11.892 56.4584 3.76221 67.4712 3.31781C79.3895 2.8373 90.5857 9.90051 93.716 21.6688C94.2604 23.7131 97.4351 22.8465 96.8879 20.7967C93.3993 7.70628 80.8227 -0.52905 67.4712 0.0264526C55.0835 0.540292 37.0408 9.47833 35.1465 23.0715C34.8577 25.1407 38.024 26.0351 38.3185 23.9436L38.3129 23.9492Z" fill="white"/>
</svg>
