<svg width="216" height="212" viewBox="0 0 216 212" fill="none" xmlns="http://www.w3.org/2000/svg">
<mask id="mask0_206_396" style="mask-type:luminance" maskUnits="userSpaceOnUse" x="0" y="19" width="216" height="193">
<path d="M0.521973 19.082H215.567V211.802H0.521973V19.082Z" fill="white"/>
</mask>
<g mask="url(#mask0_206_396)">
<path d="M65.8258 153.325L65.7411 153.311C65.7411 153.409 65.7764 153.353 65.8258 153.325ZM125.088 102.175C124.377 102.712 123.671 103.255 122.946 103.816C121.089 105.407 119.134 106.986 117.213 108.669C108.71 116.249 101.496 123.701 96.1347 128.949C90.7945 134.249 87.3372 137.377 87.1136 137.153C86.8759 136.916 89.9002 133.383 94.9344 127.812C97.8669 124.586 101.475 120.669 105.643 116.445C107.326 114.051 109.338 111.187 111.299 107.831C112.332 106.106 113.339 104.22 114.191 102.201C114.65 101.114 115.069 99.9534 115.391 98.7672C114.596 99.4521 113.812 100.12 113.003 100.805C112.179 101.504 111.355 102.215 110.524 102.921C109.715 103.66 108.905 104.43 108.095 105.183C106.907 106.287 105.749 107.355 104.61 108.417C103.438 109.464 102.461 110.636 101.4 111.705C99.3261 113.884 97.2597 115.922 95.5487 118.163C93.76 120.314 92.0631 122.345 90.4721 124.273C89.6625 125.228 88.867 126.165 88.1115 127.059C87.3513 127.937 86.5558 128.721 85.8285 129.495C79.8953 135.562 76.1931 139.269 75.9554 139.074C75.706 138.85 78.9727 134.725 84.5929 128.384C84.753 128.203 84.9224 128.008 85.0895 127.812C85.3955 127.365 85.7179 126.904 86.0804 126.431C87.0853 125.047 88.1962 123.463 89.5377 121.773C94.0118 115.748 100.903 108.137 105.86 98.1459C94.3484 106.838 84.5176 115.461 76.9486 121.255C73.143 124.077 70.1893 126.471 68.4029 128.342C67.9699 128.817 67.5651 129.236 67.2285 129.592C66.9225 129.996 66.6566 130.347 66.4471 130.625C65.9999 131.171 65.7411 131.451 65.6869 131.408C65.6163 131.352 65.7411 131.004 66.0494 130.375C66.1953 130.053 66.3977 129.676 66.6283 129.222C66.9367 128.803 67.2991 128.316 67.7039 127.756C68.6124 126.57 69.9092 125.214 71.4955 123.755C65.4492 127.979 60.7068 130.415 57.579 132.091C53.8721 134.012 52.2035 134.711 52.147 134.598C52.0646 134.459 53.6062 133.51 57.1953 131.38C60.721 129.187 66.4683 125.998 73.882 120.201C77.5629 117.283 81.6039 113.618 85.3272 108.68C85.5508 108.388 85.7603 108.08 85.9839 107.76L86.151 107.466L86.1792 107.398L86.1086 107.452L85.9415 107.565L85.6473 107.746C84.1811 108.626 82.583 109.631 80.9497 110.551C79.3069 111.474 77.6053 112.418 75.8448 113.38C74.9717 113.87 74.0914 114.357 73.1853 114.861C72.2768 115.322 71.3425 115.776 70.3987 116.263C68.5135 117.214 66.5789 118.191 64.5972 119.182C60.5397 121.018 56.2892 123.03 51.7846 124.894C47.3081 126.836 42.6811 128.963 38.1199 131.672C34.8249 133.621 31.5935 135.911 28.6116 138.641C28.9458 138.627 29.2541 138.613 29.5742 138.599C30.6709 138.57 31.7041 138.627 32.6408 138.712C34.5119 138.893 36.0535 139.298 37.0867 139.855C37.3526 140.011 37.5762 140.164 37.7574 140.317C37.8139 140.373 37.8422 140.415 37.8845 140.456L38.094 140.164C38.4706 139.646 38.8613 139.354 39.2872 139.046C40.1322 138.53 40.7959 138.271 41.5349 137.874C41.8973 137.7 42.2762 137.518 42.6669 137.335C43.1282 137.153 43.6013 136.972 44.0838 136.777C45.0464 136.471 46.0796 136.205 47.2116 136.106C48.3366 135.981 49.5087 136.052 50.6949 136.219C51.8552 136.414 53.006 136.735 54.1099 137.125C56.3292 137.937 58.3886 138.963 60.4974 139.884C61.0293 140.135 61.5729 140.373 62.119 140.611C62.6838 140.889 63.3404 141.211 63.9124 141.531C65.0985 142.209 66.3083 143.033 67.3956 144.151C67.984 144.737 68.5135 145.464 68.9607 146.217L68.9466 145.979C70.1469 145.965 71.3543 146.008 72.6252 146.231C73.882 146.469 75.2588 146.902 76.4732 147.886C77.7018 148.862 78.4573 150.343 78.7491 151.621C79.0433 152.906 79.0574 154.106 79.0009 155.182C78.9868 155.448 78.9586 155.746 78.9727 155.956L78.9868 156.516L79.0009 157.088L79.0856 157.759C79.1327 158.246 79.1963 158.721 79.2457 159.197C79.2881 159.755 79.4199 160.173 79.3492 160.837L79.2881 161.774L79.2598 162.233C79.2386 162.388 79.1468 162.584 79.1115 162.751C78.9868 163.085 78.8479 163.475 78.7067 163.756L78.3302 164.398C78.3302 164.398 78.2878 164.44 78.3019 164.448C78.316 164.448 78.316 164.448 78.3302 164.462L78.888 165.048C79.2104 165.34 79.3845 165.787 79.6081 166.163C79.7823 166.542 79.8953 166.905 80.0059 167.267C80.18 167.966 80.2789 168.623 80.3213 169.223L80.3754 170.11L80.3471 171.101C80.3754 171.758 80.18 172.4 80.0694 173.043C79.8953 173.636 79.6858 174.25 79.4481 174.765C78.9586 175.841 78.4008 176.735 77.9254 177.538C77.4358 178.348 77.031 179.089 76.6968 179.828C76.5438 180.19 76.445 180.555 76.3202 180.918C76.1931 181.266 76.0684 181.617 76.0119 182.036C75.8589 182.732 75.7201 183.452 75.593 184.22C79.321 181.014 82.0652 176.902 84.3694 172.833C87.1842 167.799 89.4106 162.708 92.0372 157.996C94.8214 153.353 97.7892 149.267 100.555 145.337C103.327 141.435 105.923 137.714 108.178 134.068C110.421 130.429 112.36 126.876 113.758 123.378C114.135 122.512 114.426 121.632 114.685 120.768L114.909 120.111L115.008 119.796L115.055 119.671L115.133 119.335L115.182 119.168C115.182 119.139 115.196 119.099 115.196 119.085L115.097 119.125L114.735 119.323C114.582 119.391 114.511 119.42 114.316 119.533C113.967 119.768 113.617 119.984 113.268 120.222C110.51 122.025 108.206 124.174 106.231 126.346C104.219 128.497 102.529 130.667 100.988 132.694C97.9281 136.791 95.4922 140.387 93.3552 143.327C91.2393 146.273 89.4389 148.571 87.9585 150.3C86.4569 152.011 85.3272 153.186 84.5176 153.868C83.7198 154.567 83.3361 154.862 83.2797 154.819C83.1408 154.664 84.5788 153.325 87.3372 149.785C88.7046 147.996 90.3874 145.659 92.3996 142.656C94.4307 139.66 96.7772 136.01 99.7992 131.813C101.336 129.733 103.005 127.49 105.043 125.256C107.034 123.002 109.395 120.726 112.306 118.777C112.668 118.525 113.045 118.276 113.407 118.024C113.855 117.8 114.302 117.563 114.749 117.325C115.467 116.558 116.279 115.621 117.171 114.484C117.898 113.562 118.708 112.557 119.482 111.385C119.894 110.817 120.306 110.217 120.739 109.603C121.143 108.96 121.548 108.304 121.981 107.621C123.015 105.964 124.104 104.122 125.088 102.175ZM215.144 19.1445C213.376 25.1555 210.376 29.366 204.461 32.4303C202.235 33.5906 200.279 34.4684 199.001 36.7396C196.626 40.9336 193.463 42.3034 189.479 44.8735C188.179 45.7043 186.894 46.528 185.72 47.4082C185.113 47.8271 184.569 48.2861 184.025 48.7474C183.731 48.9498 183.493 49.2016 183.242 49.4464L182.573 50.0818L181.086 51.8399C180.568 52.4142 180.067 53.0002 179.702 53.5863C178.921 54.7254 178.111 55.841 177.391 57.1542C176.624 58.3898 175.896 59.7031 175.171 61.014L174.628 61.9931L174.152 62.9204C173.802 63.5912 173.474 64.2619 173.187 64.9044C172.895 65.547 172.601 66.1895 172.246 66.9144C171.912 67.6063 171.589 68.3053 171.128 69.0161L170.5 70.0634L170.332 70.3294C170.318 70.3576 170.236 70.4823 170.236 70.4823L170.109 70.6494L169.775 71.0825L168.419 72.8076C167.464 73.9397 166.346 75.1541 165.284 76.2085C164.216 77.2276 163.168 78.2749 162.067 79.2093C159.916 81.1439 157.743 82.9467 155.691 84.7613C154.651 85.6486 153.688 86.5829 152.695 87.4914C151.747 88.4399 150.88 89.3342 149.925 90.3321C149.016 91.323 148.04 92.3303 147.216 93.2505C146.432 94.1943 145.672 95.1145 145.225 96.0936C144.919 96.5666 144.82 97.0985 144.582 97.5881C144.5 98.0823 144.305 98.6825 144.276 99.1155L144.178 100.08L144.163 100.932C144.163 101.182 144.121 101.643 144.109 101.977C144.095 102.335 144.053 102.712 143.954 103.117C143.857 103.55 143.829 103.844 143.662 104.373L142.991 106.16C142.878 106.468 142.697 106.795 142.544 107.125C141.944 108.445 141.238 109.561 140.499 110.664C137.468 115.028 133.733 118.233 130.445 121.411C128.804 122.988 127.211 124.553 125.787 126.151C125.354 126.652 124.949 127.156 124.551 127.659C125.187 127.393 125.829 127.113 126.458 126.821C128.406 125.913 130.318 124.873 132.448 124.12L137.901 122.178L134.027 126.443C129.089 131.87 124.551 136.93 119.833 140.554C119.258 141.016 118.693 141.463 118.136 141.91C117.59 142.322 117.046 142.748 116.514 143.146C115.441 143.955 114.415 144.737 113.421 145.49C111.508 147.02 109.839 148.486 108.277 149.757C108.053 149.966 107.858 150.162 107.634 150.357C106.384 151.788 105.085 153.296 103.814 154.944C100.792 159.253 97.2597 164.299 93.9153 169.969C93.0963 171.407 92.1761 172.791 91.3947 174.361C90.5851 175.94 89.7731 177.538 88.9423 179.171C88.5304 179.995 88.1327 180.819 87.7137 181.657C87.2666 182.509 86.89 183.396 86.3887 184.234C85.4237 185.938 84.4823 187.703 83.322 189.379C81.145 192.822 78.469 196.145 75.3694 199.252C74.581 200 73.7713 200.753 72.9617 201.521C72.0815 202.248 71.1519 202.947 70.2246 203.672C69.309 204.439 68.3747 204.992 67.438 205.55L66.0353 206.43L65.2115 206.934L64.3878 207.324C60.0102 209.412 55.3808 210.431 50.6125 211.156C45.8301 211.798 40.8924 212.093 35.7616 211.394C35.1121 211.297 34.4978 211.227 33.7847 211.059C33.1139 210.906 32.3608 210.751 31.8171 210.57L30.9581 210.29L30.6215 210.179L30.3979 210.094L29.9531 209.899L28.1785 209.146L26.3992 208.386C25.7967 208.12 25.239 207.783 24.667 207.477C23.535 206.821 22.3417 206.291 21.2662 205.536C16.7897 202.777 12.7981 199.099 9.43962 194.846C6.10936 190.581 3.58166 185.728 2.10834 180.609C0.585597 175.507 0.305525 170.124 1.04689 165.034C1.12926 164.398 1.18575 163.756 1.31284 163.127L1.7859 161.256C2.12246 160.035 2.33193 158.792 2.87559 157.592C3.35101 156.375 3.81936 155.196 4.29949 153.995C4.85257 152.962 5.41036 151.929 5.96815 150.901L6.37296 150.133L6.65303 149.646L6.89074 149.267L7.81097 147.787C8.43937 146.796 9.06776 145.812 9.71734 144.847C11.0306 142.894 12.4263 141.002 13.9843 139.241C14.7798 138.361 15.5894 137.53 16.4555 136.72C17.3499 135.925 18.2631 135.059 19.115 134.473L20.4848 133.447L21.8734 132.538C22.796 131.938 23.7162 131.324 24.6247 130.738C25.5473 130.123 26.4463 129.537 27.3548 129.076C28.2774 128.58 29.1835 128.092 30.0778 127.589C31.8854 126.626 33.6599 125.661 35.4039 124.713C38.8613 122.988 42.0527 120.907 45.1593 119.015C48.3013 117.087 51.2809 115.098 54.1805 113.394C55.6467 112.542 57.0635 111.719 58.4451 110.93L59.4783 110.33L60.0384 110.008L60.5539 109.728C61.2387 109.365 61.9236 109.003 62.585 108.654C63.6888 108.066 64.7502 107.508 65.7975 106.972C67.5909 105.505 69.575 103.801 71.8156 101.867C73.4489 100.471 75.2235 99.0473 76.9486 97.4045C77.8547 96.5808 78.8056 95.7147 79.8811 94.8768C80.9497 94.0531 82.1782 93.2646 83.588 92.7068C84.8659 92.2173 86.1086 91.6454 87.5749 91.2406C88.9564 90.8075 90.3756 90.3745 91.8277 89.9273C93.2799 89.5366 94.5696 88.9153 95.9959 88.3975L96.1206 88.3434C96.1347 88.3434 96.1912 88.3151 96.1912 88.3151L96.4407 88.1763L96.9726 87.8962L98.027 87.3243C98.3753 87.1407 98.7518 86.9595 99.0884 86.75L100.037 86.1075C101.322 85.312 102.628 84.3141 103.967 83.3091C104.624 82.7914 105.295 82.2618 105.958 81.7158L106.469 81.3251L107.034 80.8921L108.081 80.0966C111.021 77.9384 114.302 76.0744 117.561 74.2174C120.837 72.3463 124.182 70.4682 127.352 68.2488C130.473 66.02 133.467 63.4382 135.394 60.1503C136.274 58.4887 137.07 56.7494 137.336 54.836C137.531 53.7745 137.719 52.706 137.915 51.6305C137.971 51.3669 137.985 51.115 138.082 50.8209L138.404 49.8724C138.642 49.2652 138.837 48.5803 139.129 48.0225C140.261 45.7443 141.895 43.812 143.73 42.1504C145.63 40.5429 147.746 39.2532 149.965 38.1776L159.657 33.52L152.375 41.5503C150.372 43.7696 148.849 46.4291 148.317 49.4464L148.108 50.569L148.026 51.7293C147.969 52.12 147.983 52.5107 147.983 52.9014V54.2782L147.927 55.5891C147.899 56.0504 147.76 56.6788 147.663 57.2107C147.578 57.7897 147.411 58.2722 147.256 58.7382C147.089 59.2136 146.95 59.7172 146.726 60.1621C145.973 62.0072 144.947 63.6194 143.912 65.1822L143.13 66.3283L142.391 67.3404L140.932 69.6021C140.595 70.0634 140.4 70.4823 140.205 70.9013C141.784 70.0917 143.368 69.4209 144.947 68.7643C145.987 68.3312 147.061 67.8982 147.983 67.4533L148.332 67.2839C148.388 67.258 148.569 67.145 148.569 67.145L149.325 66.6978C149.812 66.4131 150.358 66.1189 150.671 65.8247C151.04 65.5187 151.412 65.2669 151.789 64.9327L152.905 63.8712C153.589 63.0899 154.288 62.3273 154.86 61.433C156.068 59.689 157.087 57.7403 157.953 55.6456C158.457 54.4736 158.904 53.4733 159.433 52.3436C160.026 51.2115 160.601 50.0254 161.283 48.978C163.881 44.664 167.435 40.6983 172.051 37.9399L172.161 37.8693L172.371 37.7587L172.58 37.6598L173.013 37.4363L173.858 36.9891C176.776 35.4899 179.507 34.2449 182.783 33.7718C186.937 33.1858 190.768 31.5501 194.922 30.8746C196.807 30.5663 198.959 30.2862 200.74 29.5896C205.829 27.6338 211.449 23.1314 215.144 19.1445ZM60.9869 180.346L60.8904 180.499L60.8622 180.527C60.8763 180.513 60.8904 180.513 60.8904 180.513C60.8904 180.527 60.8763 180.569 60.8763 180.569C60.7633 180.779 61.0716 182.021 61.5588 183.339C61.7965 184.024 62.0413 184.792 62.1943 185.686C62.279 186.133 62.3284 186.637 62.3425 187.145L62.2649 187.955C62.2296 188.263 62.119 188.625 62.0201 188.948C61.3352 190.762 59.9678 192.389 58.4027 193.422C56.847 194.512 55.1148 195.279 53.2296 195.74C52.7213 195.832 52.2035 195.921 51.6739 196.02L50.403 196.11C49.5369 196.124 48.6567 196.152 47.7835 196.166C46.9033 196.194 46.1361 196.251 45.0746 196.251H43.573C43.1 196.223 42.6811 196.18 42.2339 196.145L41.5772 196.067H41.4525L41.2007 196.034C41.1724 196.02 40.9771 195.964 40.9771 195.964L39.0566 195.364C38.1199 195.015 37.2279 194.554 36.4042 194.203C36.0958 194.064 35.7899 193.912 35.4674 193.77C35.4039 194.121 35.3074 194.582 35.2086 194.987C35.1332 195.251 35.0203 195.538 34.9238 195.818C34.8461 196.081 34.7355 196.369 34.5402 196.67C34.4413 196.823 34.3448 196.962 34.246 197.115C35.5945 197.967 37.1997 198.4 38.8471 198.569C39.9298 198.666 41.0336 198.666 42.135 198.595L42.9446 198.527L43.3495 198.484L43.5589 198.47L43.9237 198.414C44.9499 198.261 45.9831 198.108 47.0022 197.953C47.1834 198.484 47.3646 199.014 47.5458 199.546L47.7012 199.951L47.7694 200.16C47.8541 200.257 47.84 200.224 47.8541 200.238C47.8683 200.278 47.8824 200.32 47.8965 200.363C47.9718 200.398 48.0354 200.447 48.0848 200.516C48.1954 200.544 48.2872 200.607 48.3837 200.657C48.8662 200.852 49.6758 200.878 50.4713 200.796C52.107 200.643 53.7898 200.097 55.3102 199.504C56.0798 199.183 56.7623 198.861 57.3978 198.499C58.125 198.08 58.6687 197.731 58.9911 197.409C59.1582 197.256 59.2829 197.046 59.3818 196.893C59.4242 196.823 59.45 196.78 59.4783 196.642L59.5348 196.475L59.6054 195.964C59.716 195.279 59.869 194.636 60.1208 194.135C60.2479 193.883 60.415 193.674 60.5539 193.45L61.0999 192.878L61.7212 193.003C61.8601 193.031 61.8601 193.045 61.8813 193.06L61.9307 193.102C62.0554 193.17 62.3072 193.255 62.6414 193.38C63.0886 193.535 63.6323 193.674 64.1501 193.827C64.1501 193.716 64.1501 193.646 64.1501 193.617C64.1642 193.603 64.1501 193.603 64.1501 193.603C63.3122 192.542 63.0039 191.32 62.9639 190.315C62.9498 188.039 63.5923 186.427 64.1501 185.114C64.722 183.815 65.3221 182.852 65.8258 182.146C66.8308 180.694 67.5227 180.233 67.7039 180.374C67.9134 180.527 67.6333 181.224 67.0473 182.782C66.7531 183.563 66.3836 184.568 66.0494 185.813C65.7011 187.027 65.3786 188.569 65.5316 190.12C65.701 191.593 66.9225 192.85 67.9134 192.069C69.2808 191.181 70.9424 188.597 71.592 186.062C71.7332 185.38 71.9144 184.709 72.0109 183.871C72.1097 183.102 72.2486 182.21 72.4157 181.28C72.4722 180.833 72.5993 180.346 72.7664 179.842C72.9194 179.352 73.0582 178.823 73.2394 178.348C73.6466 177.42 74.1197 176.484 74.6092 175.632C75.5647 173.899 76.4308 172.468 76.4026 170.906L76.4167 170.305L76.3626 169.592C76.3061 169.124 76.2355 168.705 76.139 168.328L75.9696 167.881C75.8731 167.799 75.9013 167.672 75.7601 167.604C76.1108 167.533 73.7431 167.086 72.6675 166.848C72.9052 166.262 73.2677 165.424 73.5901 164.685C73.9808 163.937 74.2868 163.198 74.7622 162.414L75.0705 161.885C75.1176 161.76 75.1129 161.703 75.1599 161.604C75.1811 161.564 75.2235 161.55 75.2235 161.48V161.256L75.2305 160.795C75.3082 160.543 75.1811 160.035 75.1458 159.644C75.0987 159.183 75.0352 158.721 74.9858 158.246L74.8893 157.493L74.8469 156.598L74.8116 155.711C74.8116 155.433 74.8469 155.252 74.8469 155.015C74.8893 154.134 74.861 153.296 74.6869 152.597C74.5104 151.901 74.2468 151.475 73.8278 151.124C73.1853 150.552 71.8014 150.26 70.2599 150.19C70.3352 150.929 70.3846 151.649 70.3069 152.32C70.3022 152.793 70.2246 153.226 70.161 153.659L70.1045 153.995L70.0786 154.148C70.0786 154.177 70.008 154.457 70.008 154.457C69.9939 154.483 69.9798 154.553 69.9798 154.553L69.7986 155.083L69.6315 155.615C69.5185 155.845 69.3655 156.151 69.2267 156.403C69.0713 156.683 68.9042 156.949 68.7371 157.199C68.57 157.422 68.3888 157.603 68.1935 157.801L67.6192 158.373C67.4238 158.526 67.2003 158.665 66.9908 158.806L66.3553 159.211L65.9105 159.392C66.5789 159.63 67.3956 159.971 68.0664 160.809C68.0946 160.837 68.2617 161.103 68.2617 161.103C68.2758 161.117 68.3041 161.171 68.3041 161.171L68.3464 161.27L68.4288 161.451C68.4712 161.508 68.5983 161.885 68.6524 162.179C68.8218 162.847 68.723 163.17 68.7089 163.588C68.5841 164.342 68.3464 164.956 68.0805 165.467C67.5651 166.5 66.9767 167.281 66.4048 167.938C64.1501 170.543 62.4179 171.478 62.1331 171.197C61.7965 170.877 62.9215 169.319 64.416 166.57C64.7785 165.9 65.155 165.13 65.3927 164.356C65.5034 163.965 65.5598 163.588 65.574 163.294C65.5598 163.252 65.5457 163.184 65.5457 163.127C65.5457 163.127 65.5457 163.113 65.5316 163.085C65.5175 163.057 65.5175 163.057 65.5034 163.042L65.4492 162.946C65.421 162.932 65.2115 162.847 64.7926 162.779C64.3454 162.694 63.7453 162.638 63.0463 162.527C62.3567 162.388 61.4623 162.261 60.4291 161.536C60.1773 161.355 59.9255 161.089 59.7019 160.851C59.5065 160.571 59.3112 160.272 59.1723 159.964C59.0594 159.672 58.9487 159.336 58.8923 159.044C58.8499 158.764 58.8216 158.47 58.7958 158.178L58.6545 156.236L60.8622 156.125C61.9919 156.069 63.131 155.874 63.9547 155.49L64.2748 155.349L64.5125 155.153L64.7502 154.986C64.8067 154.902 64.8632 154.833 64.9314 154.763C64.9879 154.692 65.0727 154.624 65.1127 154.567C65.1268 154.511 65.155 154.457 65.1833 154.4C65.2115 154.344 65.2539 154.344 65.308 154.259L65.4633 153.715L65.6163 153.186L65.6304 153.115C65.6587 153.115 65.6587 152.976 65.6587 152.976C65.701 152.654 65.7269 152.348 65.7269 152.054C65.7622 151.461 65.701 150.889 65.6022 150.329C65.3927 149.239 64.875 148.305 64.0253 147.424C63.3546 146.747 62.5167 146.132 61.5871 145.603C61.1116 145.309 60.6809 145.099 60.1773 144.835C59.6336 144.584 59.0876 144.332 58.558 144.066C56.3716 143.033 54.3899 141.95 52.5447 141.169C48.9085 139.507 45.8018 139.787 42.8058 140.959C42.0385 141.225 41.2148 141.477 40.7535 141.658C40.5582 141.755 40.3487 141.868 40.2922 141.91C40.3205 141.755 39.958 142.315 39.9439 142.348C39.9227 142.432 39.8592 142.496 39.8309 142.585L39.7485 142.922C39.685 143.131 39.685 143.409 39.6568 143.647C39.6073 144.136 39.5932 144.626 39.6073 145.057C39.6214 145.937 39.685 146.622 39.6709 147.111C39.685 147.606 39.6214 147.9 39.4755 147.956C39.3367 148.01 39.0778 147.829 38.7765 147.424C38.4847 146.984 38.1199 146.313 37.8139 145.379C37.6468 144.918 37.5197 144.374 37.4091 143.76C37.3809 143.437 37.2961 143.117 37.3244 142.748C37.3244 142.543 37.3244 142.348 37.3385 142.159C37.3526 141.978 37.4091 141.783 37.4515 141.588C37.2279 141.588 36.9761 141.602 36.6136 141.63C35.7193 141.686 34.3707 141.797 32.6809 142.049C31.843 142.174 30.9228 142.315 29.9531 142.496C29.4777 142.571 28.9317 142.67 28.5268 142.781C28.3739 142.823 27.9408 142.922 27.8161 142.976C27.6349 143.047 27.4254 143.103 27.2983 143.186C26.9782 143.327 26.8041 143.508 26.4816 143.814C26.1827 144.094 25.7426 144.626 25.2531 145.127C24.7918 145.589 24.3164 146.05 23.8433 146.523C23.4102 146.949 22.9207 147.354 22.5583 147.829C22.1817 148.29 21.7345 148.709 21.4121 149.171C21.0991 149.632 20.7625 150.091 20.4424 150.538C20.1224 151.084 19.7858 151.621 19.4798 152.153C19.3104 152.416 19.1433 152.682 18.9903 152.934C18.7808 153.268 18.5855 153.562 18.3901 153.814C17.4817 155 16.0648 156.151 16.1496 157.745C16.2319 159.07 17.0345 160.369 17.3711 161.59C17.67 162.68 17.5311 163.266 17.2581 163.407C17.0839 163.504 16.8462 163.365 16.5261 163.113C16.5403 163.141 16.5544 163.155 16.5685 163.184C15.8695 163.308 15.1846 163.435 14.5139 163.56C13.8313 163.685 13.097 163.812 12.2733 163.812C11.9532 163.826 11.506 163.812 11.2542 163.84C11.1836 164.09 11.1153 164.49 11.1295 164.909C11.1153 165.481 11.1554 166.095 11.226 166.709C11.2966 167.324 11.3931 167.895 11.506 168.51C11.6166 169.035 11.7296 169.55 11.8967 170.164C12.0356 170.739 12.2168 171.506 12.245 172.134C12.2592 172.763 12.3157 173.412 12.2592 173.956C12.245 174.222 12.2168 174.488 12.2027 174.737L12.1886 174.921C12.1768 174.961 12.1627 175.031 12.1627 175.031C12.1344 175.144 12.1062 175.255 12.0779 175.394C12.0356 175.646 12.0215 175.968 12.0921 176.288C12.1203 176.441 12.1768 176.622 12.2592 176.764C12.3157 176.902 12.4475 177.14 12.4757 177.03C12.5745 176.959 12.6216 176.846 12.6852 176.735C12.7487 176.596 12.8734 176.469 13.0335 176.359C13.37 175.897 13.7184 175.479 14.0667 175.102C15.3235 173.732 16.512 172.748 17.5099 171.981C19.5481 170.444 20.819 169.915 21.0002 170.15C21.2097 170.402 20.2612 171.435 18.7243 173.266C17.943 174.179 16.9992 175.326 16.0507 176.679C14.3609 179.117 14.375 181.113 15.9801 183.69C16.2884 184.191 16.6226 184.695 16.938 185.21C17.1122 185.491 17.2863 185.742 17.4676 186.062L17.7335 186.51L17.8653 186.74L17.9077 186.804C17.9289 186.846 17.9995 187.013 17.9995 187.013L18.0536 187.117C18.1807 187.453 18.3054 187.677 18.4325 188.082C18.5714 188.458 18.7102 188.877 18.795 189.183C19.0044 189.868 19.1715 190.525 19.3669 191.097C19.5622 191.704 19.7999 192.193 20.0235 192.612C20.1765 192.779 20.2471 192.961 20.4424 193.142C20.553 193.255 20.7225 193.464 20.7766 193.493C20.8472 193.549 20.9178 193.589 20.9861 193.66C22.6548 194.902 25.6438 195.663 28.1785 195.46C28.4986 195.434 28.8069 195.392 29.087 195.321C29.24 195.307 29.3506 195.251 29.4918 195.225L29.5342 195.211L29.6024 195.168C29.8966 195.001 30.525 194.693 30.3226 194.693C30.3155 194.665 30.3226 194.665 30.3508 194.665C30.3838 194.582 30.4262 194.512 30.4615 194.455C30.5109 194.399 30.5462 194.288 30.5744 194.163C30.6215 194.05 30.6568 193.954 30.6992 193.799C30.7698 193.45 30.8451 193.184 30.9228 192.711C31.0546 191.927 31.3064 190.805 31.7747 189.701L32.5844 187.844L34.3989 188.416C35.1121 188.654 35.8299 188.877 36.5571 189.115C37.2279 189.367 37.7857 189.659 38.4141 189.939L39.6073 190.497C39.991 190.649 40.3911 190.873 40.7394 190.986L41.7585 191.299L42.0103 191.384L42.1068 191.419L42.7352 191.487C43.1682 191.523 43.6225 191.579 44.0485 191.607L45.1593 191.593C45.8442 191.607 46.8209 191.565 47.6588 191.558C48.0636 191.544 48.5602 191.558 49.005 191.558L50.1371 191.565L51.3797 191.494C51.6739 191.447 51.9799 191.384 52.2741 191.341C53.6062 191.068 54.8912 190.539 55.9527 189.854C57.0494 189.183 57.7555 188.331 58.1815 187.383C58.1815 187.355 58.1932 187.355 58.2074 187.298C58.2215 187.209 58.2356 187.103 58.2497 187.013C58.2497 186.79 58.2639 186.566 58.2215 186.286C58.1532 185.756 58.012 185.142 57.8308 184.486C57.6566 183.815 57.4472 183.102 57.2871 182.299C57.16 181.49 57.0353 180.47 57.4613 179.338C57.5931 179.047 57.6708 178.837 57.8944 178.496L58.0403 178.305C58.0968 178.23 58.2639 178.049 58.3886 177.922C58.9205 177.42 59.2265 177.293 59.6336 177.07C60.3585 176.707 61.0151 176.512 61.6365 176.331C62.865 175.982 64.0253 175.785 64.9597 175.535L65.2821 175.45L65.3645 175.422H65.4069C65.6869 175.283 65.9105 175.17 66.1459 175.06C66.3695 174.947 66.6072 174.85 66.8025 174.737C66.9508 174.627 67.1038 174.528 67.2426 174.417C68.4994 173.615 69.0854 172.428 69.2267 171.268C69.2549 170.974 69.2808 170.696 69.309 170.43C69.2949 170.15 69.2808 169.901 69.2808 169.663C69.2808 169.173 69.2408 168.747 69.1984 168.399C69.1419 167.7 69.1843 167.295 69.3373 167.239C69.4903 167.185 69.7562 167.491 70.1045 168.133C70.3022 168.456 70.4976 168.875 70.6435 169.397C70.7329 169.663 70.8318 169.941 70.9306 170.249C70.9706 170.583 71.0059 170.934 71.0554 171.31C71.1189 171.673 71.0836 172.092 71.0201 172.539C70.9918 172.763 70.9706 172.986 70.9424 173.21C70.8812 173.447 70.7823 173.671 70.707 173.899C70.6082 174.123 70.5117 174.375 70.4128 174.612C70.2881 174.836 70.1186 175.046 69.9657 175.269C69.8127 175.493 69.6456 175.702 69.4761 175.94C69.2667 176.121 69.0572 176.316 68.8477 176.512C68.6124 176.707 68.3888 176.902 68.1511 177.098C67.9416 177.251 67.7322 177.378 67.5227 177.517C67.2991 177.658 67.0896 177.79 66.8661 177.936L66.706 178.027C66.6919 178.049 66.5107 178.131 66.5107 178.131C66.4824 178.145 66.4189 178.166 66.4189 178.166L66.3083 178.209C66.16 178.286 66.0211 178.333 65.8752 178.39C64.7785 178.795 63.7029 179.103 62.6556 179.494C62.1519 179.689 61.6577 179.899 61.2811 180.136C61.1822 180.19 61.0434 180.303 60.9869 180.346ZM44.4674 202.514C44.4533 202.5 44.1473 202.554 44.1473 202.554C43.5872 202.61 43.0153 202.667 42.4292 202.737C41.1583 202.82 39.8309 202.848 38.4423 202.723C35.9005 202.5 32.9892 201.648 30.6497 199.642C30.4332 199.713 30.2096 199.769 30.0213 199.798C29.5059 199.908 29.0023 199.965 28.5127 199.986C26.5946 200.097 24.8059 199.852 23.1019 199.365C21.3838 198.861 19.7717 198.136 18.2772 196.919L17.6841 196.347C17.4605 196.145 17.4181 196.041 17.2722 195.886C16.9521 195.559 16.7074 195.069 16.4273 194.665C15.9942 193.827 15.7165 193.003 15.5212 192.264C15.3117 191.509 15.1705 190.833 15.0175 190.216L14.8081 189.393C14.7798 189.169 14.6127 188.793 14.528 188.501L14.4997 188.43L14.4032 188.249L14.2079 187.858C14.0949 187.592 13.9278 187.312 13.789 187.049C13.4948 186.474 13.21 185.909 12.9087 185.366C12.3298 184.205 11.8544 182.956 11.6308 181.588C11.6166 181.532 11.6166 181.49 11.6166 181.433C11.5343 181.393 11.4495 181.337 11.3789 181.294C11.0306 181.099 10.7223 180.889 10.4305 180.595C9.85855 180.023 9.35489 179.256 9.06776 177.985C8.92184 177.35 8.84418 176.582 8.83241 175.759C8.83241 175.156 8.83241 174.528 8.83241 173.873C8.77592 172.958 8.68414 172.162 8.34993 171.172C8.16165 170.668 7.98043 169.997 7.79685 169.286C7.62975 168.677 7.49089 167.98 7.37792 167.253C7.25318 166.528 7.16845 165.758 7.14257 164.909C7.15669 164.05 7.14257 163.113 7.70036 161.856C7.74272 161.732 7.92394 161.451 8.04868 161.256L8.27227 160.962L8.36405 160.865L8.46055 160.752C8.49585 160.727 8.67708 160.557 8.67708 160.557L8.88654 160.418C9.10307 160.272 9.38314 160.11 9.60672 160.035C9.94093 159.922 10.3599 159.811 10.6117 159.797C10.6682 159.797 10.6823 159.797 10.6964 159.797V159.783C10.6964 159.783 10.6964 159.783 10.7105 159.783C10.7105 159.769 10.7364 159.769 10.7105 159.755C10.6964 159.769 10.6964 159.769 10.6964 159.783C10.6117 159.016 10.6964 158.206 10.8635 157.408C11.2118 155.97 12.0356 154.428 13.6219 153.421C14.0126 152.654 14.4315 152.011 14.7939 151.397C14.9469 151.159 15.0599 150.957 15.1423 150.762C15.2835 150.496 15.4223 150.218 15.5612 149.952C15.8413 149.408 16.1355 148.848 16.4273 148.276C16.8321 147.662 17.2369 147.034 17.6558 146.412C18.0677 145.77 18.5855 145.254 19.075 144.666C19.5622 144.066 20.1082 143.619 20.6237 143.117C21.0991 142.684 21.5745 142.237 22.0475 141.825C22.4594 141.42 22.8501 141.016 23.4785 140.47C23.8009 140.192 24.1916 139.912 24.6106 139.66C28.388 135.619 32.7091 132.456 37.0467 129.886C40.7111 127.728 44.3827 125.941 47.9648 124.329C48.9297 123.658 50.2218 122.877 51.7704 121.926C52.7683 121.284 53.9145 120.627 55.1289 119.81C56.3434 118.972 57.6425 118.052 59.0876 117.101C60.5256 116.153 62.0554 115.127 63.6888 114.037C65.3363 112.947 67.0614 111.775 68.9466 110.693C70.8177 109.575 72.7805 108.403 74.8257 107.174C75.3835 106.873 75.7883 106.553 76.4591 106.259C77.031 105.993 77.5911 105.741 78.1772 105.477C79.321 104.945 80.4884 104.387 81.6887 103.94C84.0705 102.978 86.5276 101.977 89.0764 100.944C90.3191 100.33 91.5759 99.7157 92.8609 99.0873C93.9412 98.4589 95.2404 97.6422 96.4148 96.8467C101.211 93.5871 105.987 89.6355 111.327 85.898C116.641 82.2195 122.638 78.5267 129.76 77.1005L131.687 76.7239L131.087 78.595C129.955 82.163 128.865 85.8157 128.308 89.5507C128.517 89.4119 128.734 89.2565 128.943 89.1247C129.844 88.454 130.751 87.7691 131.673 87.1007C134.738 84.7754 137.755 82.4148 140.847 80.2025C143.968 78.009 147.174 75.9849 150.607 74.3986L153.688 72.9606L152.095 75.9849C148.821 82.2053 144.5 87.3384 140.777 92.4268C139.885 93.7118 138.948 94.905 138.124 96.2466C137.705 96.875 137.308 97.5175 136.896 98.1459C136.512 98.8096 136.136 99.478 135.745 100.135C134.208 102.768 132.721 105.336 131.268 107.842C128.336 112.823 125.396 117.41 122.737 121.745C121.381 123.91 120.068 125.969 118.818 127.951C117.535 129.914 116.389 131.842 115.321 133.698C113.158 137.391 111.195 140.707 109.449 143.619C108.528 145.141 107.691 146.537 106.895 147.801C108.514 146.189 109.995 144.722 111.28 143.355C113.826 140.653 115.566 138.375 116.585 136.72C117.575 135.045 117.94 134.068 118.136 134.124C118.26 134.153 118.19 135.254 117.422 137.153C116.879 138.474 115.886 140.164 114.539 142.077C114.763 141.882 114.987 141.712 115.217 141.503C115.733 141.072 116.279 140.625 116.822 140.178C117.34 139.731 117.87 139.269 118.399 138.794C121.353 136.358 124.231 133.294 127.267 129.829C125.396 130.738 123.379 131.672 120.894 131.966L117.813 132.329L119.336 129.577C120.433 127.603 121.772 125.718 123.252 123.95C124.74 122.206 126.359 120.545 128.002 118.904C131.297 115.621 134.822 112.432 137.385 108.57C138.014 107.607 138.628 106.579 139.047 105.616C139.172 105.364 139.299 105.141 139.409 104.863L139.718 103.954L140.038 103.06L140.148 102.446C140.219 102.236 140.233 101.977 140.233 101.686C140.247 101.391 140.275 101.21 140.275 100.805L140.29 99.7298L140.358 98.7531C140.428 97.887 140.652 97.2233 140.805 96.456C141.085 95.7429 141.273 94.9615 141.671 94.3049C142.328 92.8881 143.271 91.7301 144.178 90.6122C145.114 89.5366 146.006 88.5952 146.908 87.5879C147.816 86.6112 148.835 85.5215 149.826 84.5377C150.845 83.5751 151.857 82.5678 152.919 81.6475C154.992 79.7553 157.157 77.9384 159.224 76.0485C160.278 75.1259 161.243 74.135 162.248 73.1701C163.211 72.1651 164.07 71.2496 164.978 70.1764L166.303 68.4301L166.64 67.9829L166.708 67.8864C166.736 67.8581 166.849 67.6487 166.849 67.6487L167.351 66.8108C167.701 66.286 167.986 65.6293 168.28 65.0009C168.579 64.3867 168.902 63.69 169.215 62.9769C169.523 62.252 169.857 61.5883 170.194 60.9175L170.737 59.842L171.269 58.8511C171.994 57.5449 172.721 56.2034 173.524 54.8501C174.263 53.5086 175.214 52.1483 176.176 50.7644C176.638 50.0536 177.134 49.4676 177.643 48.9004L179.13 47.1281L179.311 46.9187L179.424 46.8198L179.66 46.5962L180.121 46.1514C180.429 45.8431 180.721 45.5489 181.058 45.2853C181.693 44.7464 182.336 44.2168 183.004 43.7414C184.317 42.7364 185.673 41.8703 186.991 41.0042C189.646 39.2932 192.263 37.674 194.315 35.7041C194.357 35.6711 194.372 35.6358 194.414 35.6146L193.185 35.7394L191.411 36.0124C190.239 36.2077 189.06 36.3466 187.885 36.5984C186.734 36.9208 185.574 37.2409 184.416 37.5634L183.55 37.7987L182.726 38.1353L181.072 38.806L179.41 39.4627C178.864 39.6651 178.278 40.0134 177.72 40.3005L174.404 42.0092C170.681 44.2451 167.588 47.5894 165.284 51.421C164.67 52.3718 164.216 53.3486 163.7 54.2923C163.211 55.3255 162.695 56.4835 162.262 57.4884C161.311 59.7455 160.153 61.9931 158.694 64.0948C157.2 66.2036 155.545 68.0959 153.241 69.701C152.655 70.1481 152.18 70.4 151.676 70.7059L150.944 71.139L150.742 71.2496L150.657 71.299L150.483 71.3979L150.419 71.412L149.993 71.6356C148.835 72.1792 147.76 72.5982 146.705 73.0312C142.711 74.6928 139.242 76.5004 135.646 78.8751C135.298 79.1128 134.417 80.1107 133.928 79.8118C132.525 78.9174 134.137 73.5467 134.57 72.4876L135.074 71.1249L135.757 69.7575C136.218 68.8772 136.651 67.8581 137.162 67.1591L138.642 64.9044L139.494 63.73L140.233 62.6709C141.196 61.2659 142.09 59.8561 142.669 58.4322C142.853 58.0886 142.949 57.7261 143.074 57.3778C143.592 55.8974 143.396 54.1511 143.62 52.6237C143.745 51.7576 143.801 50.8773 143.857 49.9971L144.095 48.5944C144.178 48.2037 144.262 47.813 144.373 47.4341C143.745 48.1896 143.215 48.978 142.782 49.8159C142.558 50.2348 142.459 50.6255 142.278 51.0162L142.026 51.6164C141.958 51.8399 141.916 52.1341 141.866 52.4001C141.657 53.4615 141.462 54.5277 141.252 55.5891C140.876 57.9497 139.871 60.1503 138.724 62.1602C136.303 66.1471 132.845 68.9596 129.454 71.2849C126.039 73.6173 122.57 75.4742 119.258 77.27C115.942 79.0845 112.807 80.7814 110.023 82.7372L108.947 83.5045L108.472 83.8669L107.94 84.2576C107.243 84.7895 106.566 85.312 105.86 85.8298C104.457 86.8348 103.089 87.8397 101.574 88.7482L100.47 89.4119C100.107 89.6213 99.745 89.7884 99.3802 89.9697L98.307 90.4992L97.7822 90.7793L97.5162 90.904L97.455 90.9323L97.3421 90.9888C97.3209 91.0029 97.1609 91.0594 97.1609 91.0594C95.6169 91.5889 94.0965 92.2455 92.6373 92.5939C91.1993 92.9869 89.8013 93.3776 88.4339 93.7471C87.0995 94.0531 85.7744 94.6132 84.4964 95.0604C82.1923 95.87 80.2789 97.5316 78.4431 99.0732C76.878 100.443 75.3412 101.615 73.9102 102.712C74.8963 102.201 75.8589 101.7 76.7815 101.224C77.7582 100.695 78.8762 100.149 79.9094 99.7863C80.9497 99.4238 81.9405 99.172 82.8749 98.9484C84.7389 98.5295 86.3746 98.2353 87.742 97.8729C89.1047 97.5316 90.2203 97.1268 91.1005 96.722C92.7974 95.9124 93.607 95.171 93.7317 95.324C93.8165 95.4087 93.294 96.3572 91.5618 97.5598C90.6957 98.1106 89.5495 98.6966 88.1609 99.2144C86.7653 99.7298 85.1178 100.177 83.3503 100.723C82.47 101.001 81.5639 101.309 80.6413 101.7C79.7188 102.09 78.9021 102.559 77.883 103.173C75.9013 104.331 73.7572 105.602 71.4531 106.95C69.1419 108.304 66.6707 109.742 64.0512 111.265C63.3969 111.634 62.7262 112.025 62.0554 112.418L61.5447 112.71L61.0858 113.004L60.0643 113.632C58.711 114.484 57.3224 115.362 55.8962 116.249C53.0343 118.038 50.2218 120.062 47.141 122.065C44.0202 124.077 40.85 126.247 37.2703 128.146C35.5451 129.126 33.7988 130.109 32.0266 131.114C31.1322 131.618 30.2379 132.133 29.3365 132.651C28.8916 132.917 28.4304 133.152 27.9973 133.425L26.7405 134.292C25.8885 134.863 25.0436 135.45 24.1916 136.024L22.9066 136.902L21.6992 137.852C20.7766 138.502 20.1341 139.187 19.381 139.841C18.6561 140.554 17.9289 141.322 17.244 142.105C15.8836 143.689 14.6127 145.45 13.4053 147.285C12.784 148.22 12.1886 149.171 11.5884 150.147L10.6964 151.607L10.5011 151.929C10.4869 151.955 10.4446 152.054 10.4446 152.054L10.3316 152.235L9.92681 153.016C9.38314 154.05 8.84418 155.083 8.29345 156.125C7.90982 157.13 7.53325 158.135 7.15669 159.154C6.70951 160.124 6.52829 161.27 6.2341 162.346L5.82929 163.979C5.71632 164.537 5.69043 165.104 5.6057 165.662C4.99143 170.136 5.24326 174.836 6.61066 179.327C7.93806 183.829 10.1786 188.122 13.1465 191.942C16.1496 195.747 19.7293 199.085 23.7727 201.577C24.7494 202.276 25.8391 202.751 26.8511 203.352C27.3689 203.629 27.8702 203.952 28.4021 204.189L30.0355 204.886L31.6335 205.578L32.0407 205.745L32.236 205.844C32.2502 205.844 32.3466 205.872 32.3466 205.872L33.2269 206.15C33.8411 206.374 34.3024 206.43 34.7967 206.555C35.2721 206.682 35.8581 206.75 36.4183 206.835C40.8782 207.477 45.55 207.268 49.9982 206.71C54.4299 206.096 58.8216 205.131 62.5026 203.42L63.1875 203.1L63.7876 202.737L65.2115 201.885L66.6213 201.055C67.1038 200.767 67.438 200.447 67.8569 200.139C68.6665 199.546 69.4502 198.946 70.2387 198.346C70.9918 197.647 71.7473 196.962 72.4863 196.277C75.3835 193.464 77.9536 190.426 80.0694 187.216C81.1991 185.658 82.1358 183.996 83.0984 182.405C83.588 181.617 83.9716 180.779 84.4047 179.967C84.8518 179.129 85.2849 178.305 85.7179 177.503C86.5982 175.883 87.4619 174.292 88.2927 172.748C89.1306 171.197 90.1661 169.719 91.0581 168.258C94.7391 162.456 98.4035 157.632 101.72 153.339C102.461 152.444 103.186 151.649 103.913 150.889C103.996 150.748 104.066 150.637 104.151 150.496C105.422 148.5 106.803 145.965 108.43 143.004C110.077 140.065 111.941 136.692 114.022 132.943C116.013 129.173 118.623 125.146 121.214 120.808C123.798 116.431 126.681 111.803 129.536 106.795C130.96 104.289 132.419 101.714 133.914 99.0732C134.29 98.4048 134.669 97.7552 135.046 97.0844C135.493 96.3313 135.884 95.757 136.303 95.0745C137.112 93.7612 138.082 92.455 139.004 91.1276C142.019 86.9736 145.31 82.8479 148.094 78.3314C146.098 79.4752 144.135 80.7391 142.203 82.1088C139.172 84.2859 136.176 86.6253 133.083 88.9647C132.163 89.6614 131.24 90.3462 130.318 91.0311C129.369 91.6878 128.432 92.3444 127.505 92.9987L125.481 94.3896L125.676 91.9255C126.011 87.6726 127.086 83.6716 128.272 79.8377C122.485 81.3534 117.312 84.4883 112.584 87.715C107.314 91.3512 102.489 95.2557 97.5445 98.5295C96.2736 99.3674 95.1297 100.106 93.7317 100.876C92.4349 101.49 91.1711 102.09 89.9143 102.669C87.2948 103.717 84.753 104.708 82.3594 105.616C81.145 106.049 80.02 106.567 78.888 107.047C78.3302 107.299 77.7724 107.537 77.2122 107.774C76.7533 107.941 76.179 108.346 75.6777 108.612C73.6042 109.798 71.6061 110.93 69.7138 111.999C67.8004 113.058 66.0635 114.162 64.4019 115.195C62.7544 116.221 61.1964 117.186 59.7442 118.092C58.278 118.986 56.9365 119.867 55.7008 120.641C54.8489 121.173 54.0534 121.606 53.2791 122.025C56.9365 120.46 60.4009 118.876 63.7311 117.381C65.7128 116.391 67.6333 115.447 69.5044 114.512C70.434 114.037 71.3684 113.576 72.2768 113.129C73.1712 112.641 74.0655 112.152 74.9222 111.676C76.6686 110.735 78.3725 109.812 80.02 108.904C81.6745 107.984 83.169 107.061 84.7671 106.134C86.1792 105.296 87.6596 104.387 88.9423 103.66C89.5636 103.312 90.2061 102.949 90.8204 102.601C91.1146 102.446 91.5053 102.187 91.7006 102.133L91.1005 103.088C90.305 104.345 89.5236 105.588 88.754 106.809L88.2103 107.675L87.5749 108.57C87.2807 108.96 87.003 109.351 86.7229 109.728C85.7862 110.93 84.8518 112.053 83.8963 113.1C89.7731 108.026 96.6643 102.147 104.414 96.2889C105.685 95.2957 106.935 94.319 108.178 93.3635L111.607 90.6828L109.995 94.6956C108.387 98.6684 106.391 102.25 104.29 105.52C105.029 104.835 105.749 104.15 106.495 103.451C107.326 102.684 108.15 101.923 108.962 101.168C109.813 100.443 110.644 99.7439 111.482 99.0332C113.158 97.6563 114.784 96.2889 116.375 94.9615L118.498 93.2081L118.218 95.9524C117.954 98.586 117.088 100.932 116.137 103.046C115.182 105.183 114.092 107.111 112.96 108.85C112.668 109.309 112.374 109.742 112.068 110.189C113.24 109.099 114.426 107.998 115.664 106.908C117.618 105.197 119.609 103.592 121.494 102.02C123.49 100.539 125.41 99.1014 127.253 97.7411L130.36 95.4369L128.929 99.0049C127.392 102.836 125.382 105.91 123.546 108.64C123.071 109.309 122.61 109.965 122.163 110.608C121.689 111.201 121.228 111.789 120.781 112.361C119.915 113.505 119.016 114.484 118.204 115.376C118.051 115.531 117.926 115.649 117.785 115.809C117.771 115.922 117.717 116.11 117.688 116.263L117.422 117.41C117.241 118.177 117.074 118.958 116.893 119.742C116.836 119.923 116.794 120.173 116.752 120.286L116.641 120.627L116.432 121.298C116.152 122.22 115.86 123.155 115.467 124.049C114.05 127.713 112.096 131.366 109.825 135.087C107.549 138.794 104.946 142.557 102.181 146.497C99.4509 150.427 96.483 154.539 93.8165 159.016C91.2958 163.574 89.0553 168.691 86.1792 173.845C83.4491 178.717 80.02 183.829 74.7975 187.468C74.3009 189.03 73.5619 190.301 72.7805 191.487C72.5287 191.845 72.2768 192.193 71.9968 192.528C71.9827 192.556 71.9709 192.584 71.9568 192.612C71.6485 193.184 71.2931 193.77 70.8671 194.373C70.6082 194.665 70.3211 194.945 70.0645 195.251C69.8951 195.392 69.8127 195.538 69.575 195.712C69.309 195.886 69.0996 196.006 68.9042 196.11C68.0664 196.515 67.285 196.738 66.4048 196.905C65.5175 197.046 64.6396 197.157 63.4228 196.962C63.3687 196.948 63.3122 196.948 63.2557 196.919C63.1733 196.919 63.1733 196.752 63.1027 196.893C63.0463 197.018 63.0604 197.143 63.0604 197.256C63.0604 197.27 63.0604 197.256 63.0604 197.312L62.9639 197.689C62.9356 197.941 62.7685 198.233 62.6414 198.513C62.3684 199.028 62.0695 199.489 61.7212 199.922C60.9445 200.767 60.0784 201.297 59.3677 201.744C58.558 202.248 57.6919 202.681 56.8329 203.057C55.0725 203.81 53.1943 204.51 50.9043 204.79C49.7605 204.9 48.5108 204.978 47.0304 204.488C46.6538 204.342 46.2749 204.161 45.9125 203.966C45.5641 203.714 45.2158 203.42 44.8934 203.128C44.7545 202.961 44.6133 202.777 44.4956 202.582C44.4674 202.542 44.4674 202.528 44.4674 202.514ZM64.1783 193.646L64.1924 193.674H64.2066C64.2066 193.66 64.1783 193.646 64.1783 193.646Z" fill="black"/>
</g>
<path d="M200.069 57.8648C200.166 57.7542 200.265 57.6553 200.361 57.5447C198.82 58.9757 197.13 60.609 195.362 62.4613C190.909 66.9142 185.861 72.5132 179.353 77.9523C176.12 80.6424 172.566 83.2383 169.146 86.1638C166.221 88.6915 163.295 91.4498 160.991 94.6812C163.015 94.5 165.075 93.4103 166.917 92.1747C168.838 90.8779 170.612 89.3622 172.288 87.783C175.647 84.634 178.612 81.2708 181.441 78.0652C184.249 74.8032 187.104 71.8166 189.7 69.03C192.305 66.2575 194.748 63.6616 196.963 61.2939C198.107 60.1218 199.119 58.9615 200.069 57.8648ZM211.199 45.8288C211.672 46.2195 204.383 54.8923 203.79 55.6454C202.974 56.6504 202.108 57.7259 201.187 58.865C200.265 60.023 199.295 61.2092 198.191 62.4118C196.026 64.8478 193.672 67.4931 191.133 70.3574C188.584 73.2264 185.84 76.1801 183.089 79.4891C180.288 82.7488 177.322 86.1779 173.872 89.4517C172.147 91.1015 170.304 92.6925 168.231 94.1093C166.164 95.4932 163.818 96.8465 160.921 97.056C160.139 97.1125 159.344 96.9995 158.581 96.8041L157.073 96.4276L157.91 95.0743C160.586 90.7367 164.154 87.3923 167.673 84.4245C171.198 81.452 174.781 78.889 177.998 76.2765C184.416 71.0964 189.603 65.615 194.218 61.2939C198.61 57.0152 202.569 53.8873 205.438 51.8256C206.08 51.1148 206.68 50.4441 207.212 49.8439C209.662 47.1703 211.072 45.7323 211.199 45.8288Z" fill="black"/>
<path d="M195.383 9.81475C194.301 10.5985 193.115 11.4481 191.872 12.4554C188.641 14.9761 184.974 18.264 180.554 21.6437C179.45 22.4815 178.264 23.3406 177.063 24.1361C175.896 24.9457 174.71 25.7835 173.552 26.6779C171.855 28.01 170.208 29.4904 168.88 31.2296C169.118 31.1731 169.342 31.1237 169.565 31.0696C172.58 30.2317 175.324 28.4289 177.795 26.5367C180.288 24.6374 182.545 22.5639 184.654 20.554C188.737 16.6235 192.263 12.8885 195.383 9.81475ZM203.595 2.44345C205.633 0.956016 206.946 0.388812 207.017 0.522964C207.017 0.73949 203.35 4.13095 203.044 4.4675C201.088 6.59746 198.862 8.51089 196.878 10.6667C193.87 13.9287 190.37 17.9015 186.167 22.1049C184.065 24.1925 181.796 26.3343 179.215 28.3607C176.637 30.3565 173.733 32.3334 170.179 33.3384C169.012 33.6726 167.755 33.7856 166.513 33.7573L164.599 33.715L165.55 32.0251C167.254 28.9891 169.732 26.7461 172.161 24.8751C173.39 23.9407 174.628 23.1028 175.842 22.2932C177.078 21.5166 178.181 20.7352 179.297 19.9256C183.689 16.7342 187.494 13.5569 190.909 11.1704C192.585 9.92772 194.218 8.95571 195.607 8.07784C196.906 7.35059 198.064 6.77868 199.036 6.28914C200.78 4.67697 202.331 3.37781 203.595 2.44345Z" fill="black"/>
<path d="M152.055 125.899C153.142 123.769 154.121 121.717 155.034 119.796C153.17 121.954 151.104 124.411 149.044 127.24C146.936 130.123 144.876 133.447 143.438 137.182C145.462 135.995 147.075 134.082 148.43 132.133C149.826 130.095 150.993 127.965 152.055 125.899ZM164.488 105.435C164.613 105.574 163.895 106.397 162.862 108.04C161.716 109.841 160.459 111.495 159.915 113.519C159.706 114.26 159.384 114.694 159.071 115.433C157.604 118.652 156.039 122.568 153.994 126.861C152.975 128.998 151.803 131.227 150.337 133.425C148.863 135.605 147.06 137.859 144.401 139.354C143.577 139.827 142.669 140.149 141.756 140.387L139.771 140.903L140.358 138.921C141.894 133.76 144.624 129.495 147.34 125.969C150.092 122.416 152.836 119.544 155.182 117.186C155.985 116.376 156.724 115.663 157.423 114.985C157.48 114.889 157.52 114.79 157.562 114.708C159.224 111.523 160.796 109.045 162.121 107.494C163.434 105.95 164.392 105.322 164.488 105.435Z" fill="black"/>
<path d="M148.053 110.736C149.115 109.533 150.049 108.347 150.894 107.257C149.63 108.262 148.235 109.465 146.83 110.917C145.973 111.83 145.142 112.877 144.401 114.009C145.782 113.129 146.992 111.901 148.053 110.736ZM156.124 101.602C156.248 101.715 155.957 102.329 155.403 103.327C155.481 103.426 155.342 103.607 155.097 103.87C154.636 104.668 154.05 105.645 153.351 106.796C152.403 108.347 151.249 110.204 149.715 112.138C148.15 113.995 146.208 116.222 143.061 117.187C142.697 117.255 142.341 117.326 141.979 117.41L139.856 117.843L140.75 115.796C141.894 113.157 143.605 111.056 145.323 109.408C147.06 107.789 148.792 106.568 150.287 105.673C150.802 105.365 156.027 101.602 156.124 101.602Z" fill="black"/>
<path d="M141.015 33.0162C140.596 33.1715 140.177 33.3245 139.718 33.4774C138.473 33.9246 137.162 34.4542 135.884 35.1673C135.255 35.4897 134.641 36.0122 134.069 36.3888C133.488 36.9489 132.784 37.535 132.288 38.1492C130.431 40.1662 128.741 42.8328 127.129 45.7041C127.854 45.3134 128.546 44.838 129.23 44.3273C130.654 43.2517 131.953 42.0514 133.182 40.8935C135.604 38.5399 137.72 36.3064 139.548 34.4683C140.066 33.9529 140.556 33.4633 141.015 33.0162ZM146.755 28.5703C146.23 31.7123 143.439 32.8208 141.462 34.7625C139.033 37.116 137.07 39.9921 134.698 42.4138C133.467 43.6565 132.163 44.9345 130.626 46.1513C129.859 46.7514 129.042 47.3375 128.084 47.8388C127.157 48.3283 126.053 48.7896 124.683 48.7472L122.819 48.6907L123.721 47.015L124.118 46.2901C126.067 42.6798 128.112 39.2931 130.751 36.6124C131.422 35.8734 132.078 35.3909 132.707 34.8331C133.154 34.5107 133.488 34.3294 133.86 34.0776C134.222 33.8399 134.585 33.5904 134.961 33.4351C136.47 32.7102 137.915 32.2348 139.214 31.9006C142.069 31.138 144.109 29.7847 146.755 28.5703Z" fill="black"/>
<path d="M130.974 143.393C131.534 142.508 132.05 141.656 132.56 140.818C131.602 141.809 130.668 142.878 129.55 143.911C128.42 144.944 127.267 146.076 126.025 147.095C123.56 149.237 120.851 151.367 118.079 153.685C115.356 156.046 112.515 158.524 110.035 161.478C108.738 162.944 107.523 164.474 106.608 166.121C106.161 166.945 105.798 167.811 105.657 168.635C105.603 169.047 105.56 169.451 105.631 169.814C105.643 170.009 105.699 170.176 105.749 170.343L105.798 170.485C105.798 170.513 105.826 170.553 105.833 170.581L106.022 170.932C106.168 171.155 106.391 171.433 106.678 171.628C106.935 171.798 107.271 171.923 107.634 171.979C108.373 172.09 109.239 171.937 110.009 171.6C110.399 171.447 110.797 171.195 111.082 171L111.677 170.541C111.844 170.386 111.955 170.247 112.096 170.122C112.64 169.52 113.115 168.774 113.478 167.964C114.191 166.317 114.553 164.438 115.069 162.539C115.328 161.588 115.629 160.64 116.055 159.71C116.279 159.237 116.488 158.832 116.822 158.314L117.632 157.197C120.068 154.118 122.89 152.066 125.271 149.95C127.728 147.912 129.55 145.671 130.974 143.393ZM143.744 127.043C143.857 127.083 143.507 128.815 141.532 131.322C140.581 132.579 139.284 133.967 137.74 135.532C137.183 136.231 136.623 136.984 136.051 137.85C134.907 139.658 133.789 141.851 132.386 144.259C131.002 146.712 129.056 149.237 126.582 151.409C124.182 153.617 121.437 155.773 119.399 158.453L118.623 159.585C118.456 159.837 118.218 160.256 118.079 160.626C117.731 161.379 117.465 162.231 117.241 163.125C116.766 164.893 116.431 166.874 115.594 168.884C115.146 169.87 114.582 170.847 113.772 171.727C113.563 171.951 113.325 172.189 113.115 172.37L112.515 172.838C111.969 173.236 111.494 173.507 110.943 173.751C109.839 174.206 108.611 174.486 107.286 174.304C106.629 174.191 105.958 173.968 105.365 173.584C104.779 173.179 104.304 172.662 103.913 171.979L103.732 171.628C103.689 171.532 103.704 171.588 103.619 171.379L103.536 171.141C103.423 170.805 103.327 170.485 103.299 170.148C103.186 169.48 103.242 168.844 103.341 168.244C103.551 167.013 104.024 165.966 104.556 164.989C105.631 163.083 106.949 161.464 108.276 159.969C110.929 156.891 113.883 154.37 116.697 152.009C119.531 149.712 122.304 147.632 124.768 145.601C126.039 144.61 127.157 143.577 128.286 142.633C129.383 141.656 130.388 140.595 131.379 139.644C133.313 137.683 135.227 136.036 136.832 134.584C138.166 133.374 139.324 132.313 140.261 131.336C140.555 130.931 140.833 130.569 141.028 130.274C141.21 130.008 143.62 127.043 143.744 127.043Z" fill="black"/>
<path d="M109.686 62.3325C111.411 60.9439 112.974 59.6871 114.344 58.5551C112.388 59.8401 109.799 61.5158 106.74 63.5469C103.103 65.9781 98.7941 68.9318 94.2776 72.5116C92.0371 74.3144 89.7329 76.289 87.5747 78.5108C86.4992 79.6263 85.4801 80.8078 84.5928 82.0787C84.0703 82.8177 83.609 83.5991 83.2678 84.397C86.3603 83.6697 89.1446 82.0787 91.5334 80.1088C93.9834 78.1059 96.0781 75.7877 98.0409 73.533C98.5305 72.9587 99.0177 72.401 99.4931 71.8432L100.204 71.0124L100.359 70.8429L100.637 70.5652L101.03 70.1886C102.042 69.1813 103.047 68.2187 103.995 67.2702C104.485 66.8089 104.946 66.3406 105.433 65.9075C105.937 65.4886 106.42 65.0697 106.907 64.6649C107.872 63.8552 108.792 63.0739 109.686 62.3325ZM121.27 53.1513C121.381 53.262 120.461 54.3305 118.679 56.1756C116.933 58.0867 114.149 60.525 110.769 63.5893C109.952 64.3424 109.072 65.1403 108.164 65.9781C107.705 66.3971 107.243 66.8089 106.768 67.242C106.307 67.675 105.859 68.1763 105.393 68.6518C104.457 69.6144 103.494 70.6193 102.489 71.6337L101.811 72.3445L101.126 73.1965C100.651 73.7684 100.178 74.3568 99.6884 74.9428C97.7538 77.2681 95.6168 79.7111 92.9926 81.8834C90.4013 84.0745 87.1982 85.9385 83.5737 86.7482C82.9453 86.8894 82.3028 86.9717 81.6744 87.0847L80.0552 87.3624L80.3753 85.7149C80.7659 83.7544 81.6885 82.1611 82.6794 80.7513C83.6867 79.3345 84.7811 78.0777 85.9414 76.9174C88.2455 74.6062 90.6249 72.6245 92.9714 70.8288C97.6573 67.2702 102.084 64.4413 105.859 62.1725C111.76 58.6398 116.041 56.4675 117.702 55.7967C119.894 53.9963 121.129 53.0266 121.27 53.1513Z" fill="black"/>
<path d="M70.867 75.8104C70.1751 76.347 69.3655 76.9896 68.4711 77.7168C66.8943 79.0136 65.0303 80.5717 63.2133 82.5274C61.7683 84.1043 60.302 85.9824 59.4641 88.1195C59.563 88.0912 59.6595 88.0771 59.7583 88.0347C61.154 87.6723 62.4461 86.8344 63.5358 85.7447C64.6396 84.6974 65.6022 83.5042 66.4683 82.318C68.1793 79.9786 69.5891 77.6886 70.867 75.8104ZM75.9554 70.2302C76.0825 70.3714 75.6706 70.9292 74.9999 71.9836C74.3009 73.0309 73.423 74.6219 72.3192 76.5989C71.2295 78.5947 69.9656 81.0047 68.2334 83.5748C67.3815 84.8575 66.3836 86.1637 65.1409 87.4063C63.9265 88.649 62.3072 89.8022 60.3444 90.3035C59.4924 90.6119 58.598 90.5271 57.7343 90.5695L56.3716 90.626L56.694 89.1597C57.0847 87.3781 57.8943 85.8436 58.7816 84.5232C59.6736 83.1959 60.6809 82.052 61.7071 81.0612C63.7452 79.0701 65.7763 77.5897 67.5227 76.4318C69.6456 75.055 71.3283 74.1347 72.3615 73.6875C73.0582 72.7508 73.7148 71.9553 74.2867 71.4117C75.2093 70.482 75.873 70.1196 75.9554 70.2302Z" fill="black"/>
<path d="M59.9822 171.269L57.3839 172.093C56.8331 172.274 56.3577 172.61 55.8823 173.14C55.381 173.672 54.9338 174.418 54.1666 175.228C53.5523 175.927 52.512 176.541 51.5047 176.623C50.9611 176.694 50.6269 176.666 50.0267 176.583C49.6478 176.484 49.4101 176.484 48.9088 176.289C48.4616 176.122 48.0497 175.941 47.6167 175.479C47.5061 175.341 47.4072 175.242 47.3225 175.089C47.2542 174.907 47.1836 174.726 47.1413 174.543C47.0989 174.223 47.1554 173.825 47.2684 173.587C47.7273 172.625 48.3227 172.33 48.817 171.996C50.8763 170.878 52.3708 171.144 52.3708 171.422C52.4273 171.773 51.1988 172.149 49.7749 173.349C49.523 173.573 49.2712 173.874 49.1606 174.084C49.2147 174.098 49.3701 174.18 49.5513 174.208C49.676 174.279 50.1514 174.319 50.4715 174.39C50.4574 174.361 50.6951 174.376 50.8081 174.376C50.9469 174.404 51.0599 174.347 51.1846 174.347C51.6601 174.265 52.0366 174.07 52.4767 173.601C52.9922 173.058 53.517 172.274 54.2348 171.549C54.5714 171.198 54.9762 170.878 55.4234 170.626C55.3951 170.556 55.3528 170.488 55.3245 170.403C55.1574 169.664 55.3528 169.064 55.5481 168.652C55.967 167.8 56.4848 167.296 56.9038 166.891C57.7675 166.11 58.363 165.816 58.5301 165.969C58.7113 166.124 58.403 166.738 57.8805 167.659C57.6216 168.12 57.3227 168.692 57.1603 169.259C57.0991 169.523 57.1273 169.774 57.1744 169.859C57.238 169.927 57.3486 170.012 57.6075 170.137L59.9822 171.269Z" fill="black"/>
<path d="M56.7483 153.411C56.833 153.312 56.8895 152.963 56.8047 152.559C56.7341 152.154 56.5812 151.707 56.3999 151.288C56.0375 150.457 55.5762 149.687 55.1149 149.005C54.1947 147.635 53.3074 146.623 52.6719 145.952C52.6719 145.952 52.6719 145.952 52.6578 145.952C52.5378 145.884 52.413 145.813 52.2601 145.729C51.4504 145.338 50.1795 144.71 48.7344 144.667C48.0143 144.653 47.4353 144.905 47.0587 145.437L46.9316 145.66L46.8916 145.715L46.8351 145.856L46.708 146.232L46.6398 146.414C46.6398 146.47 46.6539 146.484 46.6539 146.524C46.6822 146.687 46.708 147.098 46.8775 147.496C47.56 149.144 49.4946 150.777 51.5469 152.041C52.6084 152.669 53.7051 153.187 54.7242 153.493C54.9902 153.592 55.2137 153.592 55.4632 153.66C55.6727 153.674 55.8963 153.688 56.0234 153.688C56.3999 153.62 56.4141 153.62 56.5388 153.55C56.6659 153.507 56.6941 153.465 56.7483 153.411ZM58.8217 152.111C58.9771 152.74 59.1018 153.578 58.6123 154.498C58.3769 154.931 57.9839 155.308 57.5791 155.503C57.2096 155.734 56.6376 155.861 56.4282 155.889C55.5338 156.021 54.8089 155.889 54.1241 155.727C52.7684 155.364 51.5328 154.778 50.3466 154.051C49.1463 153.326 48.0637 152.502 47.0987 151.573C46.1503 150.638 45.3124 149.563 44.837 148.221C44.6134 147.564 44.4816 146.84 44.6699 145.952C44.684 145.856 44.6981 145.743 44.7264 145.66L44.8087 145.477L44.9641 145.114L45.0464 144.933V144.919L45.1029 144.808L45.1312 144.78L45.1594 144.724L45.2277 144.627L45.5219 144.208C46.4303 143.119 47.8966 142.839 48.8592 143.006C50.862 143.342 52.0365 144.319 52.7825 144.99C52.7967 145.004 52.8108 145.018 52.8108 145.032C52.9567 145.086 53.0838 145.143 53.2297 145.227C54.1099 145.729 55.2538 146.637 56.4423 147.998C57.0213 148.668 57.6214 149.464 58.1533 150.443C58.4169 150.93 58.6546 151.476 58.8217 152.111Z" fill="black"/>
<path d="M42.5116 158.527L42.5681 158.57C42.5681 158.556 42.5539 158.541 42.5539 158.527C42.5539 158.527 42.5681 158.513 42.5822 158.527C42.6104 158.541 42.6528 158.556 42.721 158.556C43.1541 158.626 43.8249 158.527 44.4321 158.388C45.0746 158.247 45.6889 158.066 46.3455 157.857L48.1271 157.299L47.7153 159.184L47.6023 159.699C47.5599 159.883 47.6023 159.965 47.574 160.099C47.6305 160.302 47.6588 160.448 47.8965 160.629C48.3507 161.02 49.1745 161.356 49.9417 161.775C50.29 161.971 50.6266 162.138 50.9608 162.361C51.3232 162.611 51.6739 162.808 51.9658 163.114C52.6083 163.646 53.006 164.428 53.1661 165.049C53.4532 166.306 53.4391 167.212 53.4673 167.854C53.4673 168.497 53.4179 168.848 53.3073 168.876C53.1943 168.902 53.006 168.582 52.7824 167.981C52.5447 167.395 52.3282 166.445 51.9375 165.482C51.5327 164.524 50.709 164.037 49.1321 163.38C48.4613 163.072 47.6447 162.877 46.6538 162.194C46.4161 162.053 46.1784 161.761 45.9548 161.495C45.7595 161.201 45.6065 160.81 45.5359 160.483C45.5359 160.448 45.5218 160.42 45.5218 160.398C45.3405 160.448 45.1593 160.523 44.964 160.558C44.2085 160.74 43.4483 160.937 42.4151 160.824C42.2903 160.824 42.1633 160.796 42.0103 160.754C41.8832 160.728 41.7302 160.686 41.5207 160.587L41.243 160.448L41.1301 160.37L41.0594 160.321L41.0194 160.302L40.8641 160.161H40.85L40.6829 159.937C40.2781 159.393 40.1957 158.946 40.1321 158.541C38.6941 160.099 37.3385 161.733 35.9146 163.128C34.0082 165.063 31.9418 166.64 29.8966 167.395C27.8584 168.177 26.0486 168.12 24.8624 167.869C23.7444 167.591 23.1866 167.282 23.2149 167.13C23.229 166.962 23.8856 166.962 25.0012 166.977C26.0344 166.906 27.5784 166.725 29.2258 165.873C30.8945 165.049 32.6267 163.562 34.3566 161.634C36.1099 159.742 37.828 157.395 40.1463 155.155L40.3063 155.002L41.8573 153.465L42.248 155.574C42.4574 156.713 42.3304 157.395 42.4151 158.038C42.4433 158.275 42.5116 158.499 42.5116 158.527Z" fill="black"/>
<path d="M52.2177 183.69C52.686 184.638 52.4624 185.909 51.674 186.86C51.2951 187.326 50.7514 187.691 50.1795 187.969C49.8712 188.096 49.537 188.178 49.2004 188.277C48.8803 188.359 48.6426 188.359 48.3508 188.416C46.9457 188.501 45.7313 188.277 44.3827 187.788C44.0485 187.677 43.7143 187.536 43.3919 187.354C43.0577 187.187 42.7352 186.999 42.4293 186.761C42.2622 186.637 42.1068 186.538 41.9397 186.399L41.4643 185.881C41.0878 185.505 40.9913 185.253 40.7959 184.961C39.8804 183.396 40.0193 181.461 39.5462 181.198C39.4826 181.071 39.252 180.96 39.0567 180.833C39.0002 181.042 38.946 181.252 38.8754 181.461C38.6095 182.146 38.3294 182.866 37.5622 183.521C37.1715 183.815 36.6278 184.109 36.0253 184.081C35.4181 184.081 34.938 183.829 34.5802 183.577C33.8836 183.033 33.547 182.433 33.2269 181.88C32.6268 180.68 32.4173 179.647 32.1796 178.698C31.956 177.747 31.7324 176.917 31.4665 176.192C30.9722 174.711 30.2026 173.838 29.506 173.377C28.8493 172.93 28.2633 172.763 28.3174 172.595C28.3739 172.482 28.8352 172.287 29.8684 172.595C30.3509 172.763 30.9228 173.064 31.4665 173.572C32.0125 174.069 32.4856 174.751 32.8904 175.549C34.2319 178.159 35.957 185.98 37.0467 179.061L37.2703 177.616L38.553 178.096C38.986 178.272 39.4473 178.432 39.8945 178.599C40.3629 178.908 40.8501 179.075 41.2972 179.618C41.4926 179.814 41.662 180.037 41.7726 180.289C41.8833 180.527 42.0386 180.805 42.0668 181.014L42.2198 181.657L42.3022 182.174C42.3728 182.509 42.4152 182.782 42.4999 183.076L42.6529 183.466L42.7211 183.676V183.704L42.7635 183.772C42.9447 184.052 43.1283 184.429 43.2671 184.5C43.3354 184.568 43.406 184.638 43.4766 184.723C43.5402 184.791 43.6861 184.876 43.7826 184.961C43.9709 185.128 44.1944 185.281 44.4533 185.406C44.684 185.561 44.9217 185.686 45.1876 185.785C46.1644 186.218 47.3505 186.453 48.1602 186.467C48.419 186.453 48.7485 186.453 48.958 186.413C49.1322 186.357 49.3134 186.342 49.4946 186.286C49.8712 186.147 50.2077 185.98 50.4454 185.728C50.9326 185.281 51.1421 184.624 51.0032 184.163C50.8903 183.704 50.5278 183.438 50.0948 183.396C49.2287 183.285 48.6214 183.577 48.532 183.396C48.4967 183.325 48.5932 183.186 48.8309 182.991C49.0686 182.796 49.4664 182.558 50.1089 182.48C50.4313 182.419 50.822 182.48 51.2268 182.643C51.6175 182.852 52.0364 183.2 52.2177 183.69Z" fill="black"/>
<path d="M42.7917 104.041C42.1351 104.488 41.4384 104.947 40.7112 105.422C37.5904 107.496 33.7988 109.856 29.8966 112.81C27.9408 114.29 25.9733 115.952 24.2623 117.87C22.949 119.336 21.8099 121.076 21.4615 122.89C26.6087 121.062 30.8098 117.802 34.0789 114.276C37.4915 110.652 40.2216 106.938 42.7917 104.041ZM52.26 95.6762C52.3706 95.8151 51.5186 96.6671 50.0124 98.1898C49.97 98.2228 49.9276 98.2722 49.8853 98.3075C49.6476 98.6299 49.2428 99.0889 48.6567 99.6208C47.3646 101.045 45.816 102.852 44.1191 105.06C41.7302 108.054 39.1484 111.859 35.6699 115.75C32.2502 119.631 27.4937 123.408 21.671 125.329C21.2803 125.467 20.9037 125.594 20.5413 125.733L19.1574 126.223L19.0186 124.714C18.8515 123.003 19.3104 121.356 20.0094 119.979C20.6943 118.583 21.6004 117.397 22.5442 116.35C24.4717 114.248 26.5593 112.572 28.6116 111.092C32.7091 108.138 36.6136 105.926 39.8451 104.027C42.5399 102.476 44.7687 101.184 46.4585 100.136C47.5458 99.0606 48.5461 98.1898 49.3981 97.5049C51.1279 96.1775 52.1611 95.5491 52.26 95.6762Z" fill="black"/>
<path d="M32.1513 151.473C32.1937 150.956 32.0807 150.426 31.8712 149.979C31.4382 149.056 30.5744 148.484 29.7154 148.484C28.9058 148.428 27.8302 149.056 27.0065 149.475C25.8885 150.075 24.973 150.692 24.2199 151.236C23.5491 151.996 22.7819 153.057 22.0546 154.385C21.6074 155.251 21.1815 156.249 21.0143 157.268C20.932 157.771 20.9602 158.259 21.0991 158.609C21.1556 158.692 21.1815 158.776 21.2097 158.859C21.2803 158.915 21.3509 158.972 21.398 159.042L21.4262 159.068L21.6004 159.181C21.7345 159.238 21.9369 159.391 22.0193 159.377C22.1958 159.362 22.7819 159.461 23.3538 159.278C23.9257 159.153 24.54 158.887 25.1542 158.595C26.371 157.981 27.5784 157.115 28.7363 156.136C29.8543 155.166 30.9439 154.091 31.6076 153.015C31.803 152.737 31.8854 152.514 31.9842 152.304L32.1089 151.815L32.1513 151.473ZM20.0659 160.725V160.711L20.0376 160.683L19.9129 160.527C19.7434 160.346 19.5763 160.158 19.4375 159.963C19.3386 159.753 19.2421 159.53 19.1574 159.306C18.8656 158.414 18.9338 157.59 19.1009 156.905C19.4234 155.514 20.0376 154.455 20.6378 153.519C21.3368 152.5 22.0546 151.69 22.7395 151.054C23.4926 150.146 24.6106 149.113 26.1474 148.051C26.5805 147.745 27.1312 147.395 27.6349 147.143L28.0256 146.948C28.122 146.908 28.0797 146.908 28.2891 146.823L28.5551 146.745C28.9058 146.62 29.2965 146.564 29.6872 146.536C31.2923 146.425 33.0174 147.423 33.8129 149.002C34.2177 149.769 34.4272 150.678 34.3989 151.591C34.3707 151.843 34.3566 152.109 34.3166 152.332L34.1754 152.918C34.0224 153.394 33.8129 153.853 33.5893 154.204C32.6809 155.698 31.5229 156.821 30.252 157.924C28.9882 159.014 27.6349 159.949 26.1615 160.655C25.4202 161.003 24.667 161.311 23.8151 161.478C23.3961 161.563 22.9772 161.617 22.5018 161.589C22.1182 161.631 21.4898 161.464 20.9861 161.283C20.7366 161.184 20.666 161.102 20.4989 161.003L20.2753 160.864L20.233 160.836H20.2189C20.0941 160.751 20.0659 160.725 20.0659 160.725Z" fill="black"/>
<path d="M25.4905 186.717C25.7282 185.822 25.8106 184.749 25.6858 183.951L25.6717 183.883V183.855C25.587 183.184 25.3375 182.261 25.0998 181.515C24.8621 180.748 24.582 180.021 24.2902 179.378C24.0101 178.764 23.5488 178.227 23.4664 178.178C23.0334 178.025 23.0875 178.06 23.0051 178.025C22.9769 178.011 22.8922 178.046 22.7957 178.192C22.405 178.917 22.3414 179.964 22.1673 180.567C22.1673 180.581 22.1673 180.581 22.1673 180.593C22.1814 181.139 22.2285 181.739 22.2779 182.403C22.405 183.798 22.5862 185.573 23.257 187.046C23.3393 187.227 23.4382 187.394 23.5347 187.519C23.6335 187.689 23.7441 187.771 23.8289 187.87C23.8854 187.924 23.9254 187.924 23.9819 187.952L24.0383 187.981L24.0666 188.009L24.4008 188.079C24.5396 188.119 24.4855 188.051 24.5255 188.079C24.6526 188.051 24.8056 188.009 24.9868 187.771C25.1822 187.533 25.3634 187.143 25.4905 186.717ZM27.9546 183.589C28.1641 184.888 28.0676 186.06 27.7452 187.352C27.5639 187.981 27.298 188.637 26.8038 189.266C26.3072 189.88 25.4481 190.398 24.4996 190.383C24.2902 190.369 23.9536 190.355 23.843 190.313L23.4664 190.214L23.4241 190.202L23.2687 190.146L23.1016 190.061L22.8239 189.908C22.6403 189.795 22.4591 189.684 22.3556 189.546C22.0825 189.28 21.8307 189.014 21.6848 188.736C21.4965 188.456 21.3788 188.176 21.28 187.91C20.4845 185.768 20.5527 183.951 20.6234 182.417C20.7081 180.887 20.9599 179.658 21.2235 178.835C21.2376 178.472 21.2659 178.074 21.4259 177.571C21.5883 177.208 21.8943 176.719 22.4591 176.481C23.0051 176.258 23.73 176.411 23.9395 176.467C24.5679 176.648 24.9868 177.027 25.2669 177.347C25.587 177.696 25.8247 178.06 26.0483 178.416C26.4954 179.155 26.8438 179.953 27.1591 180.802C27.4792 181.668 27.7593 182.445 27.9546 183.589Z" fill="black"/>
</svg>
