<svg width="332" height="158" viewBox="0 0 332 158" fill="none" xmlns="http://www.w3.org/2000/svg">
<mask id="mask0_206_417" style="mask-type:luminance" maskUnits="userSpaceOnUse" x="0" y="0" width="332" height="158">
<path d="M0.765137 0.699219H331.385V157.604H0.765137V0.699219Z" fill="white"/>
</mask>
<g mask="url(#mask0_206_417)">
<path d="M330.221 19.3912C327.055 10.7412 314.246 6.25386 293.057 6.25386C292.86 6.25386 292.659 6.25386 292.462 6.25386C272.13 6.31953 245.396 10.4129 215.028 18.0706C201.431 7.24254 184.331 0.839844 166.046 0.839844C128.09 0.839844 96.4046 27.9719 89.2723 63.8161C61.1515 77.4824 37.9814 91.5428 22.4034 104.545C5.83297 118.343 -1.23005 130.225 1.93664 138.872C5.10697 147.522 18.113 152.009 39.2364 152.009C45.8361 152.009 53.2311 151.549 61.4178 150.688C78.1159 148.842 96.9956 145.278 117.065 140.192C130.928 151.283 148.224 157.423 166.046 157.423C203.412 157.423 235.626 130.951 242.82 94.4468C261.503 85.4028 278.205 76.0304 292.199 66.6544C320.849 47.5777 334.315 30.7446 330.221 19.3912ZM87.7546 79.8575C87.7546 83.0278 88.0209 86.1288 88.4149 89.2298C65.5075 100.456 39.3021 115.439 42.4688 124.085C43.5924 127.059 47.9485 128.576 55.5405 128.576C62.5379 128.576 72.2422 127.321 84.6536 124.746C109.079 119.729 140.501 110.423 173.175 98.5402C205.852 86.6578 235.954 73.5204 257.873 61.7037C281.109 49.161 291.802 39.8543 289.689 34.112C286.523 25.4619 256.881 30.8103 232.061 36.9503C230.343 34.309 228.497 31.7333 226.516 29.3583C272.659 18.2019 305.796 17.2096 309.361 26.9796C314.311 40.5803 262.032 76.0961 176.345 107.252C137.794 121.313 100.429 131.415 71.1842 135.771C43.4611 139.93 25.373 138.215 22.7974 131.283C19.233 121.513 45.2415 100.981 87.7546 79.8575ZM238.398 58.1394C237.34 58.6684 236.286 59.1281 235.162 59.6571C217.472 67.8438 193.904 77.4168 168.753 86.5265C143.602 95.7018 119.443 103.491 100.629 108.573C99.44 108.905 98.2506 109.233 97.1306 109.496C93.9603 102.367 91.9793 94.8445 91.1219 87.1175C103.927 86.5265 126.371 82.9621 162.679 69.6934C198.921 56.4904 218.461 44.8707 228.628 37.0816C232.919 43.55 236.22 50.5474 238.398 58.1394ZM94.223 110.357C75.5439 115.041 70.7245 114.647 69.5352 114.315C70.1955 113.261 73.6942 109.828 90.9906 101.444C91.848 104.414 92.9716 107.453 94.223 110.357ZM90.1989 98.5402C82.7383 102.17 76.9302 105.271 72.9682 107.781C67.6855 111.149 65.8395 113.392 66.5655 115.373C67.0945 116.76 68.6122 117.42 71.6475 117.42C73.0996 117.42 74.9492 117.289 77.1272 116.957C82.5412 116.231 89.9983 114.582 99.3743 112.072C118.582 106.99 143.602 98.9342 169.811 89.3648C196.082 79.7918 220.442 69.8904 238.398 61.4411C247.176 57.3477 253.977 53.7834 258.53 50.8794C264.341 47.2457 266.388 44.9363 265.596 42.8897C264.87 40.9087 262.032 40.3833 255.892 41.175C251.204 41.7697 244.736 43.0867 236.614 45.199C235.691 43.2873 234.699 41.4377 233.645 39.6573C273.32 29.9529 285.793 32.2623 286.851 35.1663C287.909 38.0703 280.58 46.06 256.417 59.1281C234.633 70.8791 204.732 83.9508 172.121 95.7675C139.509 107.584 108.218 116.891 83.9933 121.842C57.0582 127.387 46.2995 125.935 45.2415 123.031C44.1871 120.061 52.2388 110.291 88.8783 92.2688C89.2066 94.4468 89.6699 96.4935 90.1989 98.5402ZM241.171 56.8844C240.245 53.849 239.19 50.8137 237.935 47.9717C256.618 43.2873 261.437 43.6813 262.623 44.0133C261.897 45.0677 258.464 48.5007 241.171 56.8844ZM226.91 34.703C217.009 42.2293 197.735 53.9147 161.69 67.0521C125.58 80.1895 103.333 83.6188 90.9249 84.2135C90.7936 82.5645 90.7243 80.8461 90.7243 79.1971C90.7243 78.0078 90.7243 76.8221 90.7936 75.6328C100.564 75.4358 121.092 72.7288 158.721 59.0624C196.279 45.3997 213.707 34.309 221.365 28.1689C223.346 30.1499 225.195 32.3936 226.91 34.703ZM157.728 56.1584C120.83 69.6241 100.494 72.2654 91.0563 72.5318C91.6509 65.9941 93.0373 59.6571 95.1496 53.7177C95.81 53.7177 96.536 53.7834 97.262 53.7834C107.098 53.7834 124.46 51.5397 152.383 41.372C182.354 30.4783 197.075 20.3799 204.072 14.1086C209.617 17.3446 214.765 21.3029 219.318 25.8596C211.861 31.7333 194.565 42.7583 157.728 56.1584ZM99.5713 43.8163C107.955 43.55 123.336 41.3063 148.95 31.9996C174.496 22.6893 187.699 14.5719 194.302 9.35488C196.677 10.3472 198.986 11.4016 201.234 12.5909C194.236 18.5959 179.844 28.2346 151.26 38.5993C122.741 48.964 105.514 50.8794 96.2696 50.7444C97.262 48.3694 98.382 46.06 99.5713 43.8163ZM166.046 3.80953C174.696 3.80953 183.146 5.3272 191 8.09988C184.266 13.1199 171.46 20.6426 147.892 29.2269C124.328 37.8076 109.673 40.2483 101.29 40.7773C114.423 18.6652 138.586 3.80953 166.046 3.80953ZM166.046 154.453C162.814 154.453 159.644 154.253 156.477 153.859C164.992 152.538 176.013 149.831 189.942 144.749C203.871 139.667 214.039 134.647 221.43 130.225C207.571 145.212 187.764 154.453 166.046 154.453ZM227.837 122.239C220.704 127.65 208.691 134.716 188.888 141.911C169.151 149.105 155.485 151.414 146.506 151.812C137.199 149.302 128.418 145.077 120.695 139.204C140.038 134.187 160.435 127.85 181.033 120.324C201.693 112.798 221.365 104.545 239.453 95.9645C237.275 105.669 233.247 114.516 227.837 122.239ZM290.547 64.2137C262.623 82.8928 223.411 101.842 180.041 117.617C136.67 133.396 94.4236 144.089 61.0858 147.719C28.8061 151.217 8.27731 147.653 4.70931 137.817C-0.766723 122.834 32.8994 94.6439 88.6119 67.3804C88.1523 70.3501 87.8859 73.3891 87.7546 76.4901C65.9709 87.2525 48.1491 97.8799 36.1974 107.318C23.195 117.683 17.7154 126.066 19.959 132.338C22.3377 138.872 32.5674 141.053 44.9788 141.053C53.4282 141.053 62.9355 140.061 71.5819 138.74C101.023 134.384 138.586 124.151 177.334 110.091C216.086 96.0302 251.401 79.6605 276.753 64.0787C295.103 52.791 316.161 37.0816 312.133 25.9909C309.89 19.7852 300.251 16.8156 283.615 17.3446C268.435 17.8042 247.902 21.1059 224.338 26.8483C222.291 24.6046 220.113 22.4266 217.866 20.4456C278.139 5.52786 321.969 5.46219 327.449 20.4456C330.948 30.2156 317.547 46.1913 290.547 64.2137Z" fill="black"/>
</g>
</svg>
