<svg width="145" height="245" viewBox="0 0 145 245" fill="none" xmlns="http://www.w3.org/2000/svg">
<mask id="mask0_206_422" style="mask-type:luminance" maskUnits="userSpaceOnUse" x="17" y="0" width="113" height="113">
<path d="M17.241 0.207031H129.5V112.378H17.241V0.207031Z" fill="white"/>
</mask>
<g mask="url(#mask0_206_422)">
<path d="M73.0398 0.207031C88.4472 0.207031 102.395 6.45654 112.492 16.5565C122.586 26.6592 128.83 40.6152 128.83 56.0311C128.83 71.4441 122.586 85.4001 112.492 95.5028C102.395 105.606 88.4472 111.852 73.0398 111.852C57.6353 111.852 43.685 105.606 33.5907 95.5028C23.4936 85.4029 17.2498 71.4441 17.2498 56.0311C17.2498 40.6152 23.4936 26.6592 33.5907 16.5593C43.685 6.45654 57.6325 0.207031 73.0398 0.207031ZM110.571 18.4803C100.966 8.86977 87.6975 2.92581 73.0398 2.92581C58.385 2.92581 45.1165 8.86977 35.5117 18.4803C25.9068 28.0908 19.9657 41.3649 19.9657 56.0311C19.9657 70.6943 25.9068 83.9714 35.5117 93.5819C45.1165 103.19 58.385 109.133 73.0398 109.133C87.6975 109.133 100.966 103.19 110.571 93.5819C120.173 83.9714 126.114 70.6943 126.114 56.0311C126.114 41.3649 120.173 28.0908 110.571 18.4803Z" fill="black"/>
</g>
<path d="M124.278 33.928C124.979 35.5575 125.604 37.2154 126.148 38.8987C126.697 40.6047 127.163 42.3304 127.542 44.0675C127.704 44.8002 127.237 45.5245 126.504 45.6801C125.91 45.8102 125.324 45.5302 125.039 45.0294C120.654 37.7642 113.366 31.5968 104.214 27.2739C95.2736 23.05 84.5626 20.5915 73.0396 20.5915C61.5166 20.5915 50.8056 23.05 41.8685 27.2739C32.705 31.6024 25.4087 37.7812 21.0264 45.0549C20.6388 45.6971 19.8042 45.9064 19.1648 45.5188C18.6499 45.2076 18.4151 44.6107 18.5396 44.0562C18.9187 42.3219 19.3855 40.599 19.9344 38.8959C20.4804 37.1984 21.1141 35.5236 21.8242 33.8799C21.8666 33.7809 21.9204 33.6875 21.9855 33.6055C27.2448 26.6119 34.7646 20.7952 43.7498 16.7722C52.3899 12.9077 62.3937 10.6953 73.0424 10.6953C83.6884 10.6953 93.6921 12.9077 102.335 16.7722C111.317 20.7952 118.837 26.6119 124.099 33.6055C124.176 33.7073 124.235 33.8148 124.278 33.928ZM122.781 37.4615C122.484 36.6666 122.17 35.8801 121.839 35.1077C116.86 28.5385 109.744 23.0614 101.229 19.2505C92.9339 15.5388 83.3121 13.4169 73.0424 13.4169C62.7699 13.4169 53.1481 15.5388 44.8532 19.2505C36.3375 23.0614 29.2195 28.5385 24.2431 35.1077C23.9093 35.8801 23.5952 36.6666 23.2982 37.4644C27.8191 32.4172 33.7602 28.1028 40.7113 24.8211C50.0078 20.4275 61.1149 17.8728 73.0424 17.8728C84.9671 17.8728 96.0771 20.4275 105.371 24.8211C112.322 28.1028 118.26 32.4172 122.784 37.4644L122.781 37.4615Z" fill="black"/>
<path d="M127.543 44.0687C127.964 45.9981 128.289 47.9785 128.504 50.0013C128.719 51.9987 128.83 54.0102 128.83 56.0301C128.83 61.2272 128.117 66.2687 126.782 71.0584C125.404 75.998 123.361 80.6661 120.758 84.955C120.705 85.0399 120.645 85.1162 120.58 85.187H120.583C115.264 90.7886 108.381 95.4199 100.437 98.679C92.7898 101.814 84.1581 103.681 75.0003 103.913C74.7627 103.921 74.5222 103.924 74.2845 103.93L73.6621 103.935C73.085 103.941 73.2151 103.944 73.0369 103.944C72.8219 103.944 72.9605 103.941 72.4145 103.935C71.9675 103.93 71.5205 103.924 71.0735 103.913C61.9157 103.681 53.284 101.814 45.637 98.679C37.6956 95.4199 30.8124 90.7886 25.4965 85.187C25.406 85.0936 25.3324 84.9889 25.273 84.8786C22.6929 80.6095 20.6672 75.9697 19.2979 71.0584C17.9598 66.2687 17.2468 61.2272 17.2468 56.0301C17.2468 54.0102 17.3572 51.9987 17.5722 50.0013C17.79 47.9785 18.1125 45.9953 18.5341 44.0658C18.5709 43.9017 18.6359 43.749 18.7236 43.6132C23.3832 35.8954 31.0784 29.3686 40.7086 24.8166C50.0051 20.4258 61.115 17.8711 73.0397 17.8711C84.9644 17.8711 96.0744 20.4258 105.368 24.8166C115.015 29.3743 122.719 35.918 127.378 43.65C127.458 43.7858 127.511 43.9244 127.543 44.0687ZM125.808 50.2871C125.613 48.4623 125.322 46.6516 124.937 44.8636C120.543 37.672 113.295 31.564 104.214 27.2722C95.2709 23.0484 84.5627 20.5927 73.0397 20.5927C61.5168 20.5927 50.8057 23.0484 41.8658 27.2722C32.7843 31.564 25.5361 37.672 21.1425 44.8665C20.7578 46.6516 20.4664 48.4623 20.2683 50.2899C20.0674 52.1571 19.9656 54.0724 19.9656 56.0301C19.9656 60.9981 20.6418 65.7962 21.9092 70.337C23.2078 74.988 25.1202 79.3788 27.5533 83.4159C32.5976 88.7036 39.1272 93.0802 46.6668 96.1724C54.0196 99.1882 62.3231 100.982 71.1386 101.208L71.8345 101.222L72.4343 101.231C72.5729 101.231 72.4117 101.228 73.0397 101.228C73.6254 101.228 73.4726 101.231 73.6423 101.231C74.0752 101.225 74.508 101.22 74.9381 101.208C83.7536 100.982 92.057 99.1882 99.4099 96.1724C106.949 93.0802 113.482 88.7036 118.526 83.4159C120.959 79.3788 122.872 74.988 124.17 70.337C125.438 65.7962 126.114 60.9981 126.114 56.0301C126.114 54.0724 126.009 52.1571 125.808 50.2899V50.2871Z" fill="black"/>
<path d="M21.5411 36.6406H21.6656C22.4153 36.6406 23.0236 37.2517 23.0236 38.0014C23.0236 38.1966 22.984 38.3834 22.9076 38.5531C21.9513 41.3002 21.2129 44.1547 20.715 47.0942C20.2227 49.9912 19.9653 52.9759 19.9653 56.0314C19.9653 58.8888 20.186 61.6698 20.6132 64.3603C21.046 67.1215 21.6995 69.8233 22.5511 72.4487C22.7831 73.1616 22.3927 73.9255 21.6826 74.1575C21.4987 74.2169 21.3148 74.2339 21.1366 74.2169C17.453 74.1094 14.1204 72.5392 11.7071 70.0694C9.27692 67.5826 7.77466 64.1877 7.77466 60.4561V50.4156C7.77466 46.6274 9.32218 43.1815 11.8175 40.6863C14.3127 38.191 17.7529 36.6406 21.5411 36.6406ZM18.0387 46.6472C18.4517 44.2142 19.0232 41.8292 19.7418 39.5093C17.4219 39.8941 15.3397 41.0088 13.7384 42.6101C11.7354 44.6131 10.4934 47.3771 10.4934 50.4156V60.4561C10.4934 63.4549 11.6986 66.1822 13.6507 68.1796C15.1756 69.7384 17.156 70.8531 19.3684 71.3001C18.7686 69.1811 18.2876 67.0026 17.934 64.7761C17.4813 61.9074 17.2465 58.9849 17.2465 56.0314C17.2465 52.8429 17.5181 49.7083 18.0358 46.65L18.0387 46.6472Z" fill="black"/>
<path d="M124.416 36.6406H124.541C128.326 36.6406 131.769 38.191 134.264 40.6863C136.757 43.1815 138.307 46.6274 138.307 50.4156V60.4561C138.307 64.1877 136.802 67.5826 134.372 70.0694C131.959 72.5392 128.629 74.1094 124.945 74.2169C124.767 74.2339 124.58 74.2169 124.399 74.1575C123.686 73.9255 123.299 73.1616 123.528 72.4487C124.382 69.8233 125.033 67.1215 125.469 64.3603C125.893 61.6698 126.114 58.8888 126.114 56.0314C126.114 52.9759 125.859 49.9912 125.367 47.0942C124.869 44.1576 124.13 41.3002 123.171 38.5531C123.098 38.3834 123.055 38.1966 123.055 38.0014C123.055 37.2517 123.664 36.6406 124.416 36.6406ZM126.34 39.5093C127.059 41.8292 127.63 44.2142 128.043 46.6472C128.561 49.7083 128.832 52.8429 128.832 56.0314C128.832 58.9821 128.598 61.9046 128.145 64.7733C127.794 67.0026 127.313 69.1811 126.711 71.3001C128.923 70.8531 130.903 69.7384 132.428 68.1767C134.38 66.1822 135.586 63.4521 135.586 60.4561V50.4156C135.586 47.3743 134.344 44.6131 132.341 42.6072C130.742 41.0088 128.66 39.8913 126.337 39.5093H126.34Z" fill="black"/>
<mask id="mask1_206_422" style="mask-type:luminance" maskUnits="userSpaceOnUse" x="0" y="98" width="145" height="147">
<path d="M0.583008 98.6172H144.709V244.099H0.583008V98.6172Z" fill="white"/>
</mask>
<g mask="url(#mask1_206_422)">
<path d="M41.3788 101.997C34.422 106.719 25.7565 112.892 18.5139 118.924C11.1243 125.077 5.20863 131.052 4.176 135.072C2.87178 140.148 3.54228 144.544 5.18034 148.194C7.46626 153.283 11.6251 156.947 14.9662 158.975C15.5462 159.323 15.7669 160.039 15.5179 160.648C15.5009 160.693 8.77331 176.346 33.9439 176.346C34.6936 176.346 35.3019 176.955 35.3019 177.704C35.3019 177.761 35.2991 177.817 35.2934 177.871C35.2283 179.447 34.6059 198.784 41.9418 220.8C42.1766 221.51 41.7919 222.274 41.0818 222.509C40.9997 222.534 40.9177 222.554 40.8356 222.565V222.568C40.8102 222.571 31.8079 223.708 31.8079 232.631C31.8079 234.267 32.9594 235.828 34.8634 237.172C36.6599 238.437 39.0816 239.484 41.8569 240.216C44.6691 240.96 47.8349 241.382 51.0714 241.382C58.8967 241.382 67.0615 238.926 71.4551 232.688C71.8851 232.074 72.731 231.93 73.345 232.36C73.4807 232.453 73.5939 232.572 73.6816 232.699C78.0781 238.929 86.2372 241.382 94.054 241.382C97.2934 241.382 100.459 240.963 103.271 240.216C106.044 239.484 108.466 238.437 110.262 237.172C112.169 235.828 113.32 234.267 113.32 232.631C113.32 223.708 104.315 222.571 104.29 222.568C103.549 222.469 103.028 221.785 103.127 221.043C103.144 220.933 103.169 220.828 103.209 220.729C110.828 197.816 109.832 177.823 109.829 177.766C109.795 177.02 110.378 176.386 111.125 176.352H111.181V176.349C136.352 176.349 129.627 160.693 129.607 160.65C129.342 160.002 129.613 159.27 130.213 158.944C133.543 156.913 137.673 153.258 139.945 148.197C141.583 144.55 142.256 140.151 140.949 135.075C140.57 133.596 139.475 131.799 137.866 129.799C136.471 128.07 134.714 126.223 132.705 124.313C130.128 129.029 125.921 133.607 119.567 137.259C113.691 140.634 105.982 143.223 96.0259 144.383C95.2791 144.468 94.6086 143.933 94.5237 143.189C94.518 143.138 94.5152 143.087 94.5152 143.036H94.5124V138.603C94.5124 137.896 95.0527 137.313 95.743 137.248C104.677 136.15 111.436 133.825 116.446 130.848C121.975 127.567 125.361 123.493 127.194 119.419L126.773 119.065L126.012 118.434C125.353 118.499 124.705 118.494 124.071 118.432C123.197 118.344 122.354 118.146 121.553 117.854L121.505 117.835V117.837L121.462 117.82C120.537 117.475 119.669 116.994 118.882 116.412C118.056 115.8 117.321 115.073 116.701 114.261C116.121 113.506 115.64 112.677 115.272 111.792C114.992 111.115 114.774 110.4 114.639 109.656C112.904 108.391 111.17 107.152 109.47 105.955C107.572 104.617 105.817 103.406 104.219 102.317C99.8113 105.296 94.9622 107.661 89.7906 109.291C84.4973 110.957 78.8674 111.854 73.0337 111.854C67.1011 111.854 61.3778 110.923 55.9968 109.197C50.7347 107.511 45.8177 105.07 41.3732 102L41.3788 101.997ZM16.7825 116.842C24.4126 110.485 33.4941 104.048 40.5895 99.253C41.0506 98.9135 41.6929 98.8908 42.1823 99.2416C46.6127 102.416 51.5438 104.92 56.8286 106.614C61.9267 108.25 67.3727 109.132 73.0366 109.132C78.5986 109.132 83.9569 108.278 88.9871 106.694C94.2012 105.053 99.0672 102.628 103.444 99.5642C103.891 99.253 104.499 99.2275 104.98 99.5528C106.98 100.911 109.037 102.325 111.037 103.731C112.87 105.022 114.769 106.379 116.693 107.791C116.981 108.003 117.185 108.329 117.233 108.714C117.323 109.409 117.513 110.094 117.785 110.748C118.062 111.415 118.427 112.041 118.863 112.609C119.332 113.223 119.887 113.772 120.501 114.227C121.083 114.66 121.726 115.014 122.407 115.271C122.447 115.283 122.484 115.297 122.523 115.311L122.532 115.314C123.112 115.526 123.72 115.665 124.343 115.727C124.925 115.786 125.522 115.775 126.122 115.69C126.518 115.597 126.954 115.684 127.29 115.962C127.63 116.239 128.04 116.578 128.518 116.977L129.613 117.905C130.12 118.259 130.337 118.924 130.103 119.524C128.176 124.392 124.348 129.312 117.833 133.182C112.74 136.204 105.999 138.589 97.234 139.791V141.492C106.075 140.301 112.953 137.938 118.223 134.908C124.773 131.143 128.835 126.35 131.081 121.521H131.084C131.141 121.399 131.217 121.28 131.316 121.176C131.82 120.624 132.674 120.587 133.226 121.091C135.897 123.538 138.216 125.909 139.982 128.096C141.824 130.379 143.091 132.515 143.578 134.405C145.054 140.151 144.288 145.147 142.423 149.297C140.084 154.508 136.01 158.364 132.496 160.698C133.718 164.707 136.202 178.53 112.576 179.051C112.644 183.934 112.381 200.96 106.222 220.22C109.345 221.08 116.039 223.943 116.039 232.631C116.039 235.229 114.452 237.537 111.824 239.39C109.77 240.839 107.045 242.024 103.962 242.839C100.917 243.645 97.5141 244.098 94.054 244.098C86.0646 244.098 77.7018 241.693 72.5641 235.676C67.4264 241.693 59.0608 244.098 51.0714 244.098C47.6142 244.098 44.2108 243.645 41.1666 242.839C38.0829 242.024 35.3613 240.841 33.3045 239.39C30.6763 237.537 29.0892 235.229 29.0892 232.631C29.0892 223.943 35.7828 221.08 38.9062 220.22C32.7472 200.96 32.4813 183.934 32.552 179.051C8.92325 178.53 11.41 164.707 12.6322 160.698C9.11846 158.364 5.04454 154.508 2.70486 149.297C0.840479 145.147 0.0737892 140.151 1.55059 134.405C2.7473 129.742 9.00812 123.315 16.7797 116.842H16.7825Z" fill="black"/>
</g>
<path d="M9.52862 127.213C8.23854 128.585 7.12387 129.906 6.2327 131.154C5.18027 132.622 4.46734 133.946 4.17594 135.072C3.74026 136.772 3.52524 138.396 3.49129 139.938C3.46583 141.146 3.55636 142.309 3.74026 143.424C5.87058 143.03 7.76325 141.955 9.1863 140.436C10.8526 138.659 11.8711 136.266 11.8711 133.632C11.8711 132.198 11.5684 130.834 11.0252 129.606C10.6405 128.738 10.134 127.931 9.52862 127.213ZM4.02317 129.57C5.19159 127.94 6.71931 126.186 8.51297 124.356L8.52145 124.347C9.02504 123.793 9.88509 123.75 10.4396 124.256C11.7353 125.436 12.7878 126.885 13.5092 128.511C14.2023 130.082 14.5871 131.813 14.5871 133.632C14.5871 136.979 13.2857 140.026 11.161 142.295C9.02786 144.575 6.0573 146.063 2.74158 146.275C2.08805 146.318 1.48545 145.882 1.33268 145.226C0.947922 143.554 0.747055 141.772 0.786663 139.884C0.820612 138.142 1.06392 136.314 1.55335 134.402C1.93528 132.916 2.7925 131.292 4.026 129.57H4.02317Z" fill="black"/>
<path d="M42.3179 109.961C42.5443 109.248 43.3025 108.855 44.0154 109.078C44.7283 109.305 45.1216 110.066 44.8981 110.779C44.8868 110.818 40.4337 124.593 37.5905 145.472C37.4915 146.213 36.8097 146.734 36.0684 146.635C35.3272 146.536 34.8038 145.851 34.9057 145.11C37.7772 124.01 42.3038 110.001 42.3179 109.961ZM33.5873 156.763C33.6552 156.016 34.3116 155.467 35.0556 155.535C35.8025 155.603 36.3513 156.262 36.2834 157.006C35.992 160.234 35.7516 163.592 35.579 167.069C35.4092 170.549 35.3102 174.103 35.2961 177.704C35.2961 178.454 34.6907 179.059 33.9438 179.059C33.1969 179.059 32.5886 178.454 32.5886 177.704C32.5999 174.009 32.7018 170.416 32.8715 166.942C33.0441 163.465 33.2874 160.065 33.5845 156.763H33.5873Z" fill="black"/>
<path d="M20.6838 162.008C21.3571 162.333 21.64 163.143 21.3147 163.819C20.9893 164.495 20.1802 164.775 19.504 164.452C19.4927 164.447 15.0963 162.299 13.5233 161.267C12.8952 160.857 12.7198 160.014 13.13 159.388C13.5403 158.76 14.3833 158.585 15.0114 158.995C16.4684 159.951 20.6725 162.002 20.6838 162.008Z" fill="black"/>
<path d="M5.6816 150.932C5.22046 151.523 4.36607 151.63 3.77478 151.169C3.1835 150.708 3.07599 149.854 3.53714 149.263C4.37172 148.187 5.27987 147.169 6.2446 146.216C10.5986 141.91 15.9626 139.151 21.2191 138.226C26.5802 137.284 31.8509 138.235 35.8909 141.375C36.4171 141.785 36.932 142.243 37.4355 142.753C37.9618 143.287 37.9533 144.145 37.4214 144.671C36.8867 145.194 36.0295 145.189 35.5033 144.654C35.11 144.255 34.6828 143.876 34.2245 143.519C30.8239 140.877 26.3171 140.088 21.6859 140.905C16.95 141.737 12.098 144.238 8.14576 148.148C7.28854 148.997 6.46244 149.925 5.6816 150.932Z" fill="black"/>
<path d="M100.233 110.787C100.004 110.074 100.397 109.31 101.107 109.081C101.82 108.852 102.584 109.245 102.813 109.958C102.822 109.986 106.078 120.066 108.817 135.969C108.944 136.71 108.446 137.412 107.708 137.536C106.969 137.663 106.268 137.166 106.14 136.427C103.43 120.683 100.242 110.812 100.233 110.787ZM106.859 140.784C106.746 140.046 107.252 139.352 107.991 139.239C108.729 139.126 109.419 139.633 109.535 140.371C109.685 141.344 109.804 142.136 109.892 142.728C109.991 143.407 110.101 144.199 110.226 145.115C110.325 145.857 109.804 146.538 109.063 146.637C108.322 146.739 107.64 146.219 107.541 145.475C107.445 144.784 107.334 143.995 107.204 143.109C107.06 142.119 106.947 141.35 106.859 140.787V140.784ZM108.848 157.009C108.78 156.262 109.329 155.606 110.073 155.538C110.817 155.47 111.476 156.019 111.544 156.763C111.841 160.064 112.084 163.465 112.257 166.942C112.427 170.416 112.526 174.009 112.54 177.704C112.54 178.454 111.935 179.059 111.185 179.059C110.438 179.059 109.83 178.454 109.83 177.704C109.818 174.102 109.719 170.549 109.547 167.069C109.377 163.592 109.137 160.234 108.845 157.006L108.848 157.009Z" fill="black"/>
<path d="M125.627 164.455C124.951 164.781 124.142 164.498 123.816 163.821C123.491 163.145 123.774 162.336 124.447 162.011C124.459 162.005 128.663 159.951 130.123 158.995C130.751 158.585 131.591 158.76 132.001 159.388C132.411 160.016 132.236 160.859 131.611 161.27C130.035 162.299 125.641 164.447 125.627 164.452V164.455Z" fill="black"/>
<path d="M141.594 149.265C142.056 149.857 141.948 150.711 141.357 151.172C140.765 151.63 139.911 151.526 139.45 150.932C138.669 149.925 137.843 148.997 136.986 148.148C133.033 144.238 128.184 141.737 123.448 140.905C118.817 140.088 114.31 140.877 110.91 143.519C110.452 143.876 110.024 144.255 109.628 144.654C109.105 145.189 108.245 145.194 107.713 144.671C107.178 144.147 107.173 143.287 107.696 142.753C108.2 142.243 108.717 141.785 109.243 141.375C113.281 138.235 118.551 137.284 123.915 138.226C129.172 139.154 134.533 141.91 138.887 146.216C139.852 147.169 140.76 148.187 141.597 149.263L141.594 149.265Z" fill="black"/>
<path d="M71.2061 182.509C71.2061 181.757 71.8143 181.148 72.564 181.148C73.3166 181.148 73.9248 181.757 73.9248 182.509V233.467C73.9248 234.22 73.3166 234.828 72.564 234.828C71.8143 234.828 71.2061 234.22 71.2061 233.467V182.509Z" fill="black"/>
<path d="M84.8197 226.208C84.1831 226.604 83.3457 226.409 82.9496 225.775C82.5536 225.139 82.7488 224.301 83.3853 223.905C83.4164 223.886 94.1586 217.056 104.822 219.913C105.546 220.109 105.976 220.853 105.783 221.577C105.588 222.301 104.844 222.731 104.12 222.536C94.6084 219.987 84.8451 226.191 84.8169 226.208H84.8197Z" fill="black"/>
<path d="M61.7454 223.905C62.3791 224.301 62.5743 225.139 62.1782 225.775C61.7822 226.409 60.9476 226.604 60.311 226.208C60.2827 226.191 50.5195 219.987 41.008 222.536C40.2837 222.731 39.5397 222.301 39.3445 221.577C39.1521 220.853 39.5821 220.109 40.3064 219.913C50.9693 217.056 61.7143 223.886 61.7425 223.905H61.7454Z" fill="black"/>
<path d="M89.9094 177.956C90.594 177.653 91.3975 177.964 91.6974 178.652C92.0001 179.336 91.6889 180.14 91.0043 180.44C88.5373 181.526 85.6346 182.397 82.4321 182.989C79.3625 183.557 76.0326 183.871 72.5669 183.871C69.1013 183.871 65.7686 183.557 62.699 182.989C59.4964 182.397 56.5938 181.526 54.1296 180.44C53.4422 180.14 53.1309 179.336 53.4337 178.652C53.7364 177.964 54.537 177.653 55.2217 177.956C57.5132 178.963 60.2094 179.772 63.1884 180.324C66.0741 180.858 69.2371 181.15 72.5669 181.15C75.8968 181.15 79.0598 180.858 81.9454 180.324C84.9245 179.772 87.6206 178.963 89.9122 177.956H89.9094Z" fill="black"/>
<path d="M36.3458 209.398C35.7234 208.985 35.5508 208.145 35.9639 207.52C36.3769 206.894 37.22 206.722 37.8452 207.135C40.5979 208.965 45.8007 209.95 51.8663 210.151C58.3676 210.363 65.7827 209.656 72.2529 208.108C72.4735 208.057 72.6914 208.063 72.8979 208.114C79.3624 209.658 86.7691 210.363 93.2647 210.151C99.3331 209.953 104.536 208.968 107.289 207.138C107.914 206.725 108.754 206.894 109.167 207.52C109.58 208.145 109.41 208.985 108.785 209.401C105.602 211.52 99.8905 212.646 93.3524 212.861C86.7351 213.076 79.1955 212.372 72.5669 210.818C65.9411 212.372 58.4015 213.076 51.7843 212.861C45.2434 212.646 39.5314 211.52 36.3486 209.401L36.3458 209.398Z" fill="black"/>
<path d="M35.2819 194.43C34.6227 194.78 33.8023 194.532 33.4515 193.872C33.1007 193.213 33.3496 192.393 34.0088 192.039C38.1167 189.841 44.4907 188.565 51.4616 188.228C58.4099 187.892 66.0032 188.483 72.5639 190.013C79.1246 188.483 86.7208 187.892 93.6663 188.228C100.64 188.565 107.011 189.841 111.122 192.039C111.781 192.393 112.03 193.213 111.679 193.872C111.328 194.534 110.508 194.783 109.846 194.43C106.103 192.427 100.139 191.255 93.5418 190.936C86.718 190.608 79.2718 191.196 72.8978 192.718C72.6912 192.769 72.4706 192.775 72.2527 192.724C65.8731 191.199 58.4184 190.608 51.5889 190.939C44.9886 191.255 39.0277 192.427 35.2847 194.433L35.2819 194.43Z" fill="black"/>
<path d="M52.1378 133.102H92.993C94.1586 133.102 95.2167 133.58 95.9862 134.346L95.989 134.349L95.9919 134.346C96.7586 135.116 97.2338 136.177 97.2338 137.345V164.836C97.2338 166.001 96.7586 167.059 95.9919 167.829L95.9862 167.835C95.2167 168.601 94.1586 169.079 92.993 169.079H52.1378C50.9694 169.079 49.9085 168.601 49.1418 167.835C49.1135 167.803 49.0852 167.775 49.0597 167.744C48.3411 166.983 47.897 165.959 47.897 164.836V137.345C47.897 136.18 48.3751 135.119 49.1418 134.352L49.1446 134.349L49.1418 134.346C49.9085 133.577 50.9694 133.102 52.1378 133.102ZM92.993 135.82H52.1378C51.7191 135.82 51.34 135.993 51.0627 136.27L51.0599 136.267C50.7855 136.545 50.6157 136.924 50.6157 137.345V164.836C50.6157 165.229 50.7657 165.591 51.0118 165.863L51.0627 165.911C51.34 166.188 51.7191 166.361 52.1378 166.361H92.993C93.4145 166.361 93.7936 166.188 94.0709 165.914C94.3453 165.639 94.5179 165.257 94.5179 164.836V137.345C94.5179 136.927 94.3453 136.547 94.0681 136.27L94.0709 136.267C93.7936 135.993 93.4145 135.823 92.993 135.823V135.82Z" fill="black"/>
<path d="M136.618 124.353C138.412 126.183 139.939 127.94 141.108 129.57C142.339 131.29 143.196 132.916 143.578 134.405C144.067 136.314 144.31 138.142 144.347 139.884C144.387 141.774 144.186 143.554 143.798 145.226C143.648 145.882 143.043 146.318 142.392 146.275C139.074 146.063 136.106 144.575 133.97 142.295C131.845 140.026 130.544 136.979 130.544 133.632C130.544 131.813 130.929 130.079 131.625 128.511C132.343 126.885 133.396 125.436 134.694 124.256C135.249 123.75 136.106 123.793 136.61 124.347L136.618 124.356V124.353ZM138.898 131.151C138.007 129.903 136.892 128.585 135.605 127.213C135 127.931 134.493 128.735 134.109 129.606C133.565 130.834 133.263 132.195 133.263 133.632C133.263 136.266 134.281 138.659 135.945 140.436C137.368 141.955 139.263 143.028 141.391 143.424C141.575 142.306 141.665 141.143 141.64 139.938C141.609 138.394 141.394 136.772 140.955 135.072C140.667 133.946 139.951 132.622 138.898 131.151Z" fill="black"/>
<path d="M34.2153 143.934H49.2549C50.0074 143.934 50.6129 144.542 50.6129 145.294V156.888C50.6129 157.638 50.0074 158.246 49.2549 158.246H34.2153C33.5646 158.246 32.9734 157.98 32.5462 157.553C32.1161 157.126 31.853 156.534 31.853 155.881V146.302C31.853 145.648 32.1161 145.057 32.5462 144.63C32.9734 144.202 33.5646 143.936 34.2153 143.936V143.934ZM47.8969 146.655H34.569V155.524H47.8969V146.655ZM95.873 143.934H110.915C111.566 143.934 112.157 144.2 112.585 144.627C113.012 145.057 113.278 145.648 113.278 146.299V155.881C113.278 156.532 113.012 157.123 112.585 157.553C112.157 157.98 111.566 158.246 110.915 158.246H95.873C95.1233 158.246 94.515 157.638 94.515 156.885V145.294C94.515 144.542 95.1233 143.934 95.873 143.934ZM110.559 146.655H97.2338V155.524H110.559V146.655Z" fill="black"/>
<path d="M26.0817 81.945C24.2343 86.432 22.4661 92.4212 22.9697 98.1388C23.3233 102.184 24.8312 106.103 28.2969 109.249C28.8486 109.75 28.8938 110.604 28.3931 111.158C28.3308 111.226 28.2658 111.286 28.195 111.339C27.4368 111.902 26.6334 112.511 25.779 113.161C24.9133 113.821 24.1324 114.423 23.4421 114.961C22.8791 115.399 22.0757 115.323 21.6032 114.799C16.3269 109.653 14.3975 103.39 14.2588 97.1826C14.0438 87.7136 18.0357 78.4199 20.5112 73.5935C20.8535 72.9286 21.6683 72.6627 22.3331 73.005C22.6528 73.1691 22.882 73.4435 22.9923 73.7604L22.9951 73.7575C23.4251 74.9741 23.8948 76.1566 24.3984 77.3081C24.9048 78.468 25.4564 79.6138 26.0534 80.7426C26.2571 81.1302 26.2543 81.5744 26.0845 81.945H26.0817ZM20.2594 98.3736C19.7332 92.3703 21.4646 86.1802 23.3601 81.4471C22.8508 80.4484 22.3671 79.4327 21.9116 78.3916C21.7984 78.1314 21.6881 77.8711 21.5777 77.608C19.3541 82.5165 16.7994 89.8043 16.9635 97.1288C17.0823 102.382 18.6157 107.664 22.7264 112.084C23.2243 111.699 23.6939 111.339 24.1324 111.006C24.5115 110.717 24.9076 110.417 25.315 110.112C22.087 106.657 20.63 102.566 20.2594 98.3736Z" fill="black"/>
<path d="M124.544 73.4135C126.38 73.8633 128.173 74.6017 129.792 75.4872C131.616 76.4831 133.226 77.6713 134.426 78.8341C135.687 80.0534 136.731 81.4425 137.577 82.9476C138.463 84.5262 139.13 86.2379 139.603 88.0287C140.033 89.6696 140.299 91.3783 140.409 93.1069C140.522 94.8949 140.474 96.7084 140.279 98.4936C140.019 100.873 139.495 103.224 138.749 105.425C138.047 107.493 137.144 109.439 136.078 111.159C136.095 112.699 135.968 114.305 135.673 115.952C135.371 117.641 134.895 119.361 134.225 121.07C132.024 126.686 127.704 132.352 120.405 136.771C114.438 140.384 106.471 143.165 96.029 144.382C95.2849 144.467 94.6116 143.932 94.5267 143.188C94.521 143.134 94.5182 143.083 94.5182 143.032H94.5154V138.599C94.5154 137.892 95.0586 137.312 95.7489 137.247C104.697 136.146 111.465 133.812 116.478 130.83C122.416 127.297 125.879 122.855 127.593 118.481L127.732 118.119C127.192 118.269 126.648 118.368 126.114 118.425C124.524 118.592 122.979 118.371 121.556 117.85L121.511 117.833H121.508L121.468 117.816C120.54 117.471 119.672 116.993 118.885 116.41C118.059 115.796 117.327 115.072 116.704 114.26C116.079 113.443 115.567 112.54 115.191 111.575C114.82 110.63 114.579 109.629 114.495 108.599C114.314 106.483 114.761 104.256 116.028 102.169C117.126 100.364 118.829 98.6775 121.259 97.2884C123.005 96.2897 124.747 95.9389 126.414 96.1313C128.17 96.335 129.803 97.1412 131.234 98.4313C131.8 98.9406 132.332 99.5347 132.816 100.2C132.983 99.4017 133.11 98.5784 133.203 97.7439C133.353 96.3604 133.393 94.9685 133.308 93.6049C133.229 92.3091 133.037 91.0445 132.72 89.8421C132.406 88.6454 131.97 87.5166 131.404 86.4953C130.878 85.5447 130.233 84.679 129.463 83.935C128.649 83.1456 127.424 82.2686 126.018 81.5444C124.824 80.9248 123.511 80.4269 122.238 80.2005C121.499 80.0704 121.004 79.3688 121.134 78.6275C121.157 78.4833 121.205 78.3503 121.27 78.2258C121.576 77.5638 121.859 76.9188 122.116 76.2907C122.391 75.6315 122.654 74.9525 122.906 74.2594C123.149 73.5889 123.865 73.2296 124.544 73.4163V73.4135ZM128.496 77.8665C127.404 77.2696 126.224 76.7462 125.01 76.3586C124.886 76.6783 124.756 77.0008 124.626 77.3205L124.368 77.9316C125.367 78.2428 126.346 78.6587 127.262 79.1311C128.906 79.9799 130.363 81.0295 131.356 81.9885C132.315 82.9193 133.119 83.9972 133.772 85.1769C134.457 86.4076 134.975 87.7486 135.342 89.1518C135.704 90.5296 135.925 91.9725 136.016 93.4436C136.109 94.9572 136.067 96.5019 135.897 98.0296C135.784 99.0735 135.611 100.123 135.379 101.156C135.144 102.217 134.861 103.227 134.536 104.172L134.533 104.169C134.414 104.522 134.151 104.819 133.783 104.978C133.093 105.272 132.298 104.95 132.007 104.262C131.664 103.461 131.271 102.732 130.827 102.084C130.4 101.453 129.925 100.904 129.421 100.448C128.402 99.5318 127.279 98.9632 126.105 98.8274C125.002 98.7001 123.822 98.9491 122.608 99.645C120.591 100.796 119.208 102.149 118.345 103.569C117.397 105.125 117.066 106.789 117.199 108.373C117.267 109.14 117.445 109.884 117.717 110.585C118 111.312 118.387 111.994 118.86 112.611C119.33 113.225 119.881 113.774 120.498 114.229C121.081 114.662 121.723 115.016 122.405 115.27C122.442 115.284 122.481 115.296 122.518 115.313L122.526 115.315C123.565 115.689 124.685 115.845 125.836 115.723C126.906 115.613 128.006 115.262 129.096 114.622C129.39 114.43 129.76 114.348 130.131 114.433C130.861 114.594 131.322 115.315 131.161 116.045C131.036 116.614 130.886 117.188 130.708 117.765C130.53 118.357 130.332 118.923 130.12 119.466C128.207 124.346 124.379 129.283 117.858 133.164C112.763 136.197 106.016 138.585 97.2342 139.793V141.493C106.508 140.243 113.629 137.697 119.001 134.446C125.729 130.372 129.695 125.192 131.698 120.083C132.312 118.521 132.74 116.976 133.008 115.474C133.291 113.892 133.402 112.351 133.365 110.885C133.342 110.599 133.407 110.302 133.574 110.045C134.621 108.424 135.501 106.557 136.18 104.554C136.867 102.534 137.345 100.381 137.583 98.2078C137.761 96.5698 137.806 94.9091 137.699 93.2767C137.6 91.7178 137.365 90.1845 136.98 88.719C136.567 87.1517 135.982 85.6522 135.209 84.2773C134.488 82.9872 133.6 81.8075 132.536 80.7777C131.5 79.7733 130.094 78.7407 128.496 77.8665ZM128.332 109.637C128.476 109.49 128.612 109.34 128.745 109.188L128.799 109.123L128.793 109.063C128.612 107.832 128.301 106.738 127.896 105.821C127.497 104.927 127.011 104.211 126.473 103.725C126.19 103.47 125.899 103.314 125.619 103.278C125.37 103.246 125.095 103.306 124.798 103.476C123.59 104.166 122.764 104.927 122.252 105.694C121.729 106.48 121.536 107.278 121.598 108.011C121.63 108.353 121.709 108.69 121.833 109.007C121.966 109.338 122.144 109.652 122.362 109.934C122.577 110.217 122.829 110.469 123.106 110.676C123.381 110.879 123.678 111.044 123.989 111.157C124.594 111.38 125.299 111.406 126.037 111.171C126.77 110.936 127.548 110.447 128.329 109.637H128.332ZM130.793 110.961C130.621 111.159 130.448 111.349 130.273 111.527C129.164 112.673 128.004 113.389 126.866 113.751C125.514 114.187 124.21 114.124 123.067 113.706C122.501 113.499 121.972 113.211 121.494 112.854C121.007 112.492 120.572 112.062 120.207 111.584C119.836 111.1 119.53 110.565 119.307 109.994C119.086 109.434 118.942 108.84 118.891 108.234C118.781 106.924 119.103 105.53 119.989 104.194C120.727 103.085 121.856 102.027 123.449 101.116C124.28 100.641 125.129 100.482 125.958 100.59C126.813 100.7 127.602 101.091 128.286 101.707C129.104 102.443 129.814 103.467 130.366 104.715C130.875 105.861 131.257 107.199 131.475 108.667C131.483 108.701 131.486 108.735 131.492 108.772L131.565 109.36H131.56C131.602 109.705 131.515 110.065 131.283 110.359C131.116 110.577 130.952 110.775 130.79 110.961H130.793Z" fill="black"/>
<path d="M57.6915 139.901C58.9137 139.901 60.0198 140.396 60.8205 141.197C61.6239 142 62.119 143.107 62.119 144.332C62.119 145.548 61.6239 146.654 60.8205 147.458L60.812 147.466C60.0113 148.264 58.9052 148.759 57.6915 148.759C56.4693 148.759 55.3631 148.264 54.5596 147.461C53.759 146.66 53.2639 145.554 53.2639 144.329C53.2639 143.109 53.759 142.003 54.5596 141.203L54.5653 141.197C55.3659 140.396 56.4721 139.898 57.6915 139.898V139.901ZM58.8995 143.121C58.5911 142.81 58.1639 142.62 57.6915 142.62C57.2162 142.62 56.789 142.81 56.4806 143.118C56.1722 143.426 55.9827 143.856 55.9827 144.329C55.9827 144.801 56.1722 145.228 56.4834 145.54C56.7918 145.848 57.219 146.04 57.6915 146.04C58.1668 146.04 58.594 145.851 58.8995 145.543L58.9052 145.54C59.2107 145.231 59.4003 144.807 59.4003 144.329C59.4003 143.856 59.2079 143.429 58.8995 143.121Z" fill="black"/>
<path d="M57.6915 153.425C58.9137 153.425 60.0198 153.92 60.8205 154.723C61.6239 155.524 62.119 156.633 62.119 157.855C62.119 159.072 61.6239 160.178 60.8205 160.981L60.812 160.99C60.0113 161.79 58.9052 162.283 57.6915 162.283C56.4693 162.283 55.3631 161.788 54.5596 160.987C53.759 160.186 53.2639 159.077 53.2639 157.852C53.2639 156.636 53.759 155.527 54.5596 154.726L54.5653 154.72C55.3659 153.92 56.4721 153.422 57.6915 153.422V153.425ZM58.8995 156.644C58.5911 156.336 58.1639 156.143 57.6915 156.143C57.2162 156.143 56.789 156.333 56.4806 156.641C56.1722 156.95 55.9827 157.38 55.9827 157.852C55.9827 158.328 56.1722 158.755 56.4834 159.063C56.7918 159.371 57.219 159.564 57.6915 159.564C58.1668 159.564 58.594 159.374 58.8995 159.069L58.9052 159.063C59.2107 158.758 59.4003 158.33 59.4003 157.852C59.4003 157.38 59.2079 156.953 58.8995 156.644Z" fill="black"/>
<path d="M69.2796 139.901C70.5018 139.901 71.6108 140.396 72.4114 141.197C73.2121 142 73.7072 143.107 73.7072 144.332C73.7072 145.548 73.2121 146.654 72.4114 147.458L72.4029 147.466C71.5995 148.264 70.4961 148.759 69.2796 148.759C68.0574 148.759 66.9513 148.264 66.1506 147.461C65.35 146.66 64.8521 145.554 64.8521 144.329C64.8521 143.109 65.3471 142.003 66.1506 141.203L66.1534 141.197C66.9569 140.396 68.0603 139.898 69.2796 139.898V139.901ZM70.4905 143.121C70.1793 142.81 69.7521 142.62 69.2796 142.62C68.8043 142.62 68.3771 142.81 68.0688 143.118C67.7604 143.426 67.5708 143.856 67.5708 144.329C67.5708 144.801 67.7632 145.228 68.0716 145.54C68.38 145.848 68.8071 146.04 69.2796 146.04C69.7577 146.04 70.1849 145.851 70.4905 145.543L70.4933 145.54C70.8017 145.231 70.9884 144.807 70.9884 144.329C70.9884 143.856 70.7988 143.429 70.4905 143.121Z" fill="black"/>
<path d="M69.2796 153.425C70.5018 153.425 71.6108 153.92 72.4114 154.723C73.2121 155.524 73.7072 156.633 73.7072 157.855C73.7072 159.072 73.2121 160.178 72.4114 160.981L72.4029 160.99C71.5995 161.79 70.4961 162.283 69.2796 162.283C68.0574 162.283 66.9513 161.788 66.1506 160.987C65.35 160.186 64.8521 159.077 64.8521 157.852C64.8521 156.636 65.3471 155.527 66.1506 154.726L66.1534 154.72C66.9569 153.92 68.0603 153.422 69.2796 153.422V153.425ZM70.4905 156.644C70.1793 156.336 69.7521 156.143 69.2796 156.143C68.8043 156.143 68.3771 156.333 68.0688 156.641C67.7604 156.95 67.5708 157.38 67.5708 157.852C67.5708 158.328 67.7632 158.755 68.0716 159.063C68.38 159.371 68.8071 159.564 69.2796 159.564C69.7577 159.564 70.1849 159.374 70.4905 159.069L70.4933 159.063C70.8017 158.758 70.9884 158.33 70.9884 157.852C70.9884 157.38 70.7988 156.953 70.4905 156.644Z" fill="black"/>
<path d="M79.8296 139.898C80.8141 139.898 81.7053 140.297 82.3503 140.945C82.9953 141.59 83.3971 142.481 83.3971 143.466V158.715C83.3971 159.699 82.9953 160.591 82.3503 161.236C81.7053 161.883 80.8141 162.282 79.8296 162.282C78.8479 162.282 77.9567 161.883 77.3117 161.236C76.6638 160.591 76.2649 159.699 76.2649 158.715V143.466C76.2649 142.481 76.6638 141.59 77.3117 140.945C77.9567 140.297 78.8479 139.898 79.8296 139.898ZM79.8324 142.617C79.6004 142.617 79.3882 142.713 79.2326 142.866C79.0799 143.019 78.9837 143.231 78.9837 143.463V158.715C78.9837 158.947 79.0799 159.159 79.2326 159.312C79.3882 159.465 79.6004 159.561 79.8296 159.561C80.0644 159.561 80.2766 159.465 80.4293 159.312C80.5821 159.159 80.6783 158.947 80.6783 158.715V143.463C80.6783 143.231 80.5821 143.019 80.4293 142.866C80.2766 142.713 80.0644 142.617 79.8324 142.617Z" fill="black"/>
<path d="M88.7977 139.898C89.7794 139.898 90.6706 140.297 91.3156 140.945C91.9607 141.59 92.3624 142.481 92.3624 143.466V158.715C92.3624 159.699 91.9607 160.591 91.3156 161.236C90.6706 161.883 89.7794 162.282 88.7977 162.282C87.8132 162.282 86.922 161.883 86.277 161.236C85.632 160.591 85.2302 159.699 85.2302 158.715V143.466C85.2302 142.481 85.632 141.59 86.277 140.945C86.922 140.297 87.8132 139.898 88.7949 139.898H88.7977ZM88.7977 142.617C88.5657 142.617 88.3536 142.713 88.2008 142.866C88.0452 143.019 87.949 143.231 87.949 143.463V158.715C87.949 158.947 88.0452 159.159 88.2008 159.312C88.3536 159.465 88.5657 159.561 88.7977 159.561C89.0297 159.561 89.2419 159.465 89.3947 159.312C89.5503 159.159 89.6436 158.947 89.6436 158.715V143.463C89.6436 143.231 89.5503 143.019 89.3947 142.866C89.2419 142.713 89.0297 142.617 88.7977 142.617Z" fill="black"/>
<path d="M108.947 72.0117C110.505 72.0117 111.92 72.6483 112.941 73.6696C113.965 74.6937 114.596 76.1054 114.596 77.6699C114.596 79.2288 113.965 80.6433 112.941 81.6675C111.92 82.6916 110.505 83.3253 108.947 83.3253C107.385 83.3253 105.973 82.6916 104.949 81.6675C103.925 80.6433 103.294 79.2316 103.294 77.6699C103.294 76.1083 103.928 74.6937 104.949 73.6696C105.973 72.6483 107.385 72.0145 108.947 72.0145V72.0117ZM111.02 75.5934C110.488 75.0615 109.756 74.7333 108.947 74.7333C108.135 74.7333 107.402 75.0615 106.87 75.5934C106.341 76.1224 106.01 76.858 106.01 77.6699C106.01 78.4791 106.338 79.2146 106.87 79.7437C107.402 80.2756 108.135 80.6037 108.947 80.6037C109.756 80.6037 110.488 80.2756 111.02 79.7437C111.549 79.2146 111.88 78.4791 111.88 77.6699C111.88 76.858 111.552 76.1224 111.02 75.5934Z" fill="black"/>
<path d="M114.379 44.5183C116.537 44.7361 118.277 46.5185 119.341 49.2316C120.3 51.6675 120.744 54.9323 120.45 58.4404V58.446C120.153 61.9598 119.166 65.1058 117.813 67.3464C116.305 69.8445 114.291 71.3072 112.124 71.1544C112.079 71.1516 112.036 71.1487 111.994 71.1431C109.832 70.9252 108.095 69.1457 107.029 66.4326C106.073 63.9939 105.628 60.7291 105.923 57.221V57.2182C106.22 53.7016 107.204 50.5585 108.559 48.315C110.067 45.8169 112.082 44.3542 114.249 44.507C114.291 44.5098 114.336 44.5127 114.379 44.5183ZM116.815 50.219C116.122 48.4508 115.157 47.3135 114.085 47.2201C113.012 47.1296 111.867 48.0915 110.885 49.7182C109.733 51.625 108.893 54.3495 108.63 57.4389V57.4445C108.37 60.5396 108.743 63.3715 109.558 65.4424C110.251 67.2106 111.216 68.3507 112.288 68.4413C113.36 68.5318 114.506 67.5699 115.488 65.9432C116.639 64.0392 117.479 61.3147 117.743 58.2225V58.2197C118.003 55.1218 117.629 52.2899 116.815 50.219Z" fill="black"/>
<path d="M131.987 104.203C131.726 103.501 132.083 102.723 132.782 102.46C133.483 102.2 134.261 102.556 134.524 103.255C134.527 103.266 135.828 106.775 136.069 110.696C136.114 111.445 135.543 112.088 134.796 112.13C134.049 112.175 133.407 111.604 133.361 110.857C133.144 107.326 131.989 104.211 131.987 104.203Z" fill="black"/>
<path d="M128.872 109.676C128.79 108.929 129.327 108.258 130.069 108.176C130.816 108.094 131.483 108.632 131.568 109.376C131.568 109.387 132.007 113.164 131.141 116.132C130.934 116.85 130.182 117.263 129.463 117.054C128.748 116.847 128.334 116.095 128.541 115.376C129.251 112.943 128.872 109.684 128.869 109.673L128.872 109.676Z" fill="black"/>
</svg>
