<svg width="229" height="232" viewBox="0 0 229 232" fill="none" xmlns="http://www.w3.org/2000/svg">
<mask id="mask0_206_716" style="mask-type:luminance" maskUnits="userSpaceOnUse" x="0" y="0" width="229" height="232">
<path d="M0.818359 0.277344H228.304V231.237H0.818359V0.277344Z" fill="white"/>
</mask>
<g mask="url(#mask0_206_716)">
<path fill-rule="evenodd" clip-rule="evenodd" d="M55.4778 230.741C53.0424 230.327 50.944 229.368 49.5707 228.037C47.8092 226.333 47.7178 225.402 49.0397 222.578C49.9904 220.554 50.2731 219.232 50.7613 214.607C51.9747 203.061 51.8405 189.483 50.393 177.098C48.9398 164.681 42.5588 140.448 37.651 128.699L36.4205 125.75L34.1679 125.079C24.1582 122.087 20.6265 120.377 15.8358 116.209C10.5369 111.595 7.66185 107.601 5.39496 101.691C4.18443 98.5333 4.07023 97.9081 4.09593 94.4621C4.13019 90.0425 5.76326 83.0791 10.2428 68.2615C12.8751 59.5623 14.4425 53.6809 15.9129 46.9802C16.3183 45.1244 16.6523 43.5741 16.6523 43.537C16.6523 43.4999 15.1677 43.4742 13.3548 43.4828C10.8595 43.4942 9.54616 43.2972 7.96448 42.6862C3.48495 40.9561 0.821214 38.5122 0.818359 36.1396C0.818359 34.8634 2.69125 32.6651 4.61554 31.6801C5.39496 31.2833 7.58762 30.6123 9.48335 30.1898C11.3791 29.7672 13.7231 29.0164 14.6966 28.5253C16.7037 27.5032 19.6387 25.0308 20.8378 23.3434L21.6515 22.2043L20.8578 20.7939C18.9934 17.4764 18.3767 11.7663 19.4788 8.05193C20.4895 4.64875 25.6028 -0.033492 27.6127 0.606033C28.3522 0.840145 28.4007 1.04285 28.1952 2.98998C28.0695 4.16054 27.8554 6.83855 27.7212 8.94555C27.4985 12.4287 27.5528 12.9255 28.3265 14.5243C29.617 17.188 30.365 17.5306 33.0002 16.6627C34.1879 16.2715 35.2442 15.8633 35.3499 15.7576C35.4555 15.6549 35.1928 14.9154 34.7646 14.1189C33.377 11.5293 33.8624 8.35742 36.0379 5.77933C37.4968 4.04919 39.6438 4.24904 39.6438 6.11623C39.6438 6.47881 40.0492 7.24682 40.546 7.82353C41.3854 8.79709 41.7108 8.88845 45.1997 9.12257C47.5094 9.27674 49.4194 9.61648 50.1617 10.0019C51.7063 10.7985 53.5934 13.7391 53.5934 15.3522C53.5934 16.5114 53.7077 16.6141 55.7062 17.2451C57.7447 17.8875 57.836 17.8875 58.3271 17.2166C59.629 15.435 60.8309 10.7613 60.9994 6.81571C61.2363 1.33977 61.2877 1.15991 62.6639 1.15991C64.2855 1.15991 67.2405 4.20907 68.7879 7.48093C69.9156 9.85916 69.9898 10.2874 69.9898 14.1674C69.9898 18.0731 69.9185 18.4671 68.7536 20.9252L67.5174 23.5376L68.942 24.9965C70.9862 27.0892 73.5672 28.2084 77.4415 28.6795C82.0552 29.2391 83.003 29.6987 84.4562 32.0798C85.8581 34.3838 85.4269 37.6471 83.4456 39.737C81.9924 41.2673 80.1709 41.9468 77.1531 42.0752C75.7027 42.138 74.5436 42.3322 74.5779 42.5035C74.6121 42.6748 74.9062 45.1187 75.2317 47.9366C75.894 53.6695 76.7477 56.5074 77.9411 56.9642C78.375 57.1298 79.1773 58.1719 79.7255 59.2767C81.0816 62.0204 86.7974 68.3814 91.0028 71.836C98.8912 78.3083 106.471 80.3611 122.579 80.3925C126.545 80.4011 130.982 80.167 133.7 79.8044C136.189 79.476 141.023 79.0278 144.446 78.8137C151.429 78.3711 153.719 78.1028 163.672 76.5468C175.86 74.6453 183.714 74.2885 188.71 75.4162C189.498 75.5932 191.18 75.5846 192.519 75.3962C197.215 74.7281 207.493 77.1092 214.186 80.4153C217.449 82.0256 218.642 82.8678 220.972 85.2118C228.88 93.1573 230.428 102.859 225.394 112.925C223.016 117.676 220.804 120.506 214.768 126.504L208.701 132.537L208.81 138.755C208.87 142.175 209.101 145.981 209.324 147.214C209.815 149.938 209.455 154.674 208.516 157.792C208.142 159.037 207.553 162.003 207.208 164.39C205.766 174.383 203.399 184.287 200.424 192.809C196.816 203.141 194.275 209.659 193.247 211.221C192.113 212.94 192.056 214.796 193.047 217.579C193.447 218.698 194.14 220.623 194.586 221.856C195.534 224.474 195.377 226.039 194.003 227.669C192.602 229.336 190.732 229.887 185.518 230.173C172.571 230.878 167.492 227.643 171.537 221.262C172.143 220.309 173.513 218.972 174.684 218.196L176.756 216.82L177.373 213.693C178.858 206.179 179.269 200.686 179.269 188.327C179.269 181.692 179.16 175.836 179.026 175.316C178.78 174.366 177.036 173.058 176.011 173.058C175.617 173.058 175.406 173.68 175.26 175.299C174.935 178.879 171.951 184.492 169.867 185.443C168.28 186.165 166.275 184.849 165.533 182.597C164.962 180.866 164.374 181.189 163.849 183.519C163.209 186.357 162.418 187.384 160.868 187.384C159.395 187.384 157.748 185.754 157.382 183.93C157.114 182.579 156.874 182.428 155.449 182.714C154.527 182.899 154.27 183.179 154.079 184.21C153.728 186.071 152.169 187.761 150.796 187.761C149.094 187.761 148.397 187.213 147.527 185.186C146.884 183.696 146.51 183.293 145.602 183.111C144.143 182.819 141.591 180.504 140.583 178.551C140.146 177.709 139.598 176.184 139.364 175.165L138.939 173.309L126.142 173.389C113.423 173.469 107.157 173.047 99.4051 171.593C97.2011 171.179 96.947 171.276 96.947 172.553C96.947 173.078 96.276 177.435 95.4595 182.237C93.9321 191.193 93.5067 194.439 92.7244 203.13C92.2133 208.786 92.5731 213.445 94.0206 219.995C95.2054 225.362 95.1483 226.935 93.7065 228.725C91.748 231.155 89.2984 231.577 83.1886 230.532C78.8889 229.796 76.4822 229.019 75.6428 228.091C75.0147 227.398 75.0147 227.212 75.6485 224.186C76.2109 221.511 76.2766 219.92 76.071 214.093C75.8027 206.45 75.0461 197.777 74.6093 197.34C74.4551 197.186 74.3266 197.3 74.3266 197.594C74.3266 197.888 73.9697 200.757 73.5358 203.972C73.0476 207.584 72.6907 212.62 72.5993 217.165C72.5194 221.211 72.3738 224.977 72.2739 225.539C72.0255 226.938 69.5616 229.576 67.7315 230.41C66.521 230.961 65.3276 231.092 61.6989 231.061C59.2093 231.043 56.4114 230.898 55.4778 230.741ZM65.4589 228.434C66.2926 228.203 67.5888 227.386 68.3796 226.595C69.653 225.322 69.8014 224.974 69.8014 223.244C69.8014 222.181 69.7586 221.314 69.7072 221.314C69.6558 221.314 68.5937 221.139 67.3518 220.934C64.2969 220.426 55.9146 219.438 54.6241 219.432C53.7048 219.429 53.4221 219.758 52.1802 222.267C50.5528 225.556 50.6356 225.939 53.2823 227.269C54.8554 228.06 56.911 228.377 63.2035 228.799C63.6203 228.828 64.6338 228.662 65.4589 228.434ZM90.4803 227.94C92.2048 227.049 92.4817 225.913 91.7794 222.67L91.1655 219.846L85.0672 219.9L78.966 219.955L78.5406 223.138C78.3065 224.888 78.1923 226.444 78.2865 226.598C78.3808 226.75 79.9453 227.146 81.764 227.478C83.5826 227.812 85.4098 228.151 85.8238 228.237C87.4854 228.574 89.4811 228.451 90.4803 227.94ZM190.309 226.918C192.742 226.179 192.944 224.954 191.328 220.763L190.246 217.947L184.967 217.839C180.342 217.745 179.597 217.816 178.935 218.404C178.521 218.773 177.227 219.743 176.065 220.557C173.739 222.181 172.34 224.397 172.982 225.433C173.647 226.507 175.497 227.098 178.935 227.341C183.006 227.626 188.636 227.418 190.309 226.918ZM69.613 218.204C69.7015 217.945 69.947 215.175 70.1583 212.052C70.7007 204.032 71.8599 195.387 73.3673 188.141C75.0632 179.999 81.3443 155.405 81.901 154.734C82.846 153.595 85.0272 154.572 84.2707 155.794C84.1393 156.002 83.6283 157.644 83.1315 159.437L82.2293 162.694L83.083 163.397C85.6211 165.484 91.2027 167.525 97.1468 168.541C107.922 170.383 114.931 170.894 126.916 170.703C137.046 170.543 138.813 170.42 143.878 169.515C149.696 168.473 157.973 166.706 158.501 166.391C158.667 166.294 157.208 164.556 155.261 162.526C152.246 159.385 151.438 158.258 149.811 154.923C147.418 150.027 146.93 147.928 146.956 142.718C147.001 133.393 150.122 124.303 152.574 126.338C153.319 126.958 153.274 127.221 151.975 129.861C150.69 132.468 149.345 139.235 149.345 143.077C149.345 146.318 150.53 150.649 152.426 154.32C153.688 156.764 154.835 158.232 157.865 161.281C159.977 163.405 161.887 165.147 162.107 165.147C162.327 165.147 163.389 165.666 164.465 166.3C166.607 167.562 171.917 169.401 175.414 170.089C178.084 170.614 180.876 172.296 181.441 173.717C181.684 174.331 181.932 178.868 182.044 184.749C182.241 195.102 181.861 202.465 180.762 209.628C180.428 211.806 180.134 213.928 180.114 214.342C180.074 215.05 180.339 215.101 184.562 215.201C187.031 215.261 189.216 215.15 189.41 214.953C189.604 214.758 190.141 213.525 190.6 212.209C191.057 210.893 192.67 206.425 194.178 202.279C199.051 188.88 200.259 185.063 201.929 177.78C202.828 173.846 203.496 170.508 203.408 170.366C203.317 170.22 202.697 169.986 202.026 169.84C199.736 169.344 197.415 167.865 195.043 165.395C192.273 162.503 190.823 159.625 190.535 156.43L190.329 154.172L189.141 155.323C186.572 157.812 184.625 156.179 184.668 151.574C184.702 148.265 185.621 144.93 187.68 140.642C189.121 137.644 189.901 136.568 192.465 134.041C194.255 132.274 196.436 130.55 197.712 129.893C199.379 129.034 200.356 128.154 201.858 126.161C202.94 124.728 204.03 123.284 204.284 122.949C204.653 122.461 204.564 121.448 203.83 117.828C203.328 115.344 202.566 111.021 202.135 108.223C200.507 97.574 198.711 90.3537 196.413 85.2118C195.385 82.9106 194.914 82.3425 192.63 80.6494C191.194 79.5845 189.31 78.4654 188.439 78.1599C185.099 76.9807 175.763 77.2149 167.555 78.6795L166.344 78.8965L166.567 81.7857C166.824 85.1033 165.87 89.6485 164.203 93.0631C163.009 95.5127 159.478 100.303 157.236 102.519C154.718 105.006 147.158 108.363 142.973 108.851C141.719 109 139.384 108.623 134.462 107.481C126.551 105.648 126.514 105.648 119.556 108.069C113.949 110.019 111.445 110.208 108.044 108.934C104.978 107.786 103.259 105.919 102.42 102.824C101.178 98.225 101.92 95.4642 106.114 89.0946C108.518 85.4459 109.575 83.1876 109.175 82.5452C109.064 82.3625 108.513 82.2111 107.956 82.2111C106.14 82.2083 99.8448 80.3497 97.1383 79.0164C92.4674 76.7152 89.7009 74.6282 84.7931 69.6947C82.1494 67.0367 79.9881 65.0268 79.9881 65.2295C79.9881 65.4322 80.3079 66.4942 80.699 67.5877C82.4377 72.4527 84.8788 80.7237 85.2414 82.9649C86.5747 91.2387 84.342 106.956 80.9046 113.496C79.0517 117.025 75.2802 120.825 71.857 122.618C68.7536 124.243 62.3498 126.521 58.7582 127.281C55.3778 127.994 49.6421 127.969 44.5031 127.218C42.2247 126.884 40.2719 126.701 40.1634 126.807C40.0578 126.915 40.5517 128.588 41.2626 130.524C41.9735 132.46 42.8785 134.978 43.2725 136.117C44.4003 139.38 44.6858 139.332 53.031 134.464C58.21 131.443 61.6675 130.878 65.0963 132.485C68.7251 134.19 70.7065 137.122 70.7321 140.83C70.7464 142.878 70.5694 143.394 68.865 146.295L66.9806 149.498L67.0492 152.893C67.0863 154.76 67.1719 158.238 67.2376 160.621C67.3489 164.707 67.3004 165.067 66.3554 166.857C64.4939 170.383 60.1372 173.426 55.1066 174.708C52.7227 175.319 52.8426 174.768 53.5963 181.543C54.3101 187.99 54.4699 204.98 53.8704 210.947C53.5792 213.851 53.4107 216.352 53.4935 216.509C53.5763 216.663 54.3586 216.791 55.2351 216.791C57.1223 216.791 65.2876 217.802 67.1691 218.27C69.0505 218.738 69.4245 218.733 69.613 218.204ZM86.1493 216.648L90.6231 216.903L90.3319 214.867C89.4325 208.537 90.5431 193.703 92.7901 181.957C93.4182 178.682 94.0377 174.845 94.169 173.429L94.4088 170.857L92.7558 170.44C89.8494 169.706 86.646 168.493 84.1508 167.185C82.8175 166.486 81.6697 165.969 81.5984 166.04C81.4385 166.2 78.8718 176.153 77.3073 182.677C75.8997 188.555 75.874 189.206 76.879 193.797C77.6242 197.186 78.849 210.128 78.849 214.596C78.849 215.735 78.946 216.763 79.066 216.883C79.1859 217.002 79.8225 216.943 80.4792 216.748C81.1501 216.551 83.6311 216.506 86.1493 216.648ZM151.495 182.925C151.781 180.798 152.509 180.287 155.669 179.993C158.81 179.702 159.318 179.961 159.663 182.023C159.923 183.567 160.485 184.666 160.837 184.312C160.962 184.19 161.151 183.433 161.259 182.628C161.642 179.796 161.759 179.553 162.969 179.131C165.433 178.271 167.817 178.902 167.817 180.415C167.817 180.698 167.991 181.386 168.203 181.949C168.571 182.911 168.625 182.931 169.293 182.328C169.682 181.977 170.555 180.644 171.238 179.362C172.251 177.455 172.482 176.595 172.502 174.625L172.528 172.216L168.759 171.008C166.687 170.346 164.334 169.463 163.529 169.044C162.093 168.299 162.036 168.296 159.572 168.978C158.196 169.361 153.933 170.274 150.099 171.008C140.917 172.761 141.671 172.461 141.962 174.266C142.456 177.349 144.957 180.601 146.838 180.601C147.764 180.601 149.345 181.575 149.345 182.143C149.345 182.345 149.602 183.128 149.919 183.884C150.61 185.543 151.192 185.189 151.495 182.925ZM55.2893 171.939C57.8617 171.139 61.3962 168.978 62.7866 167.354C64.8337 164.964 65.1791 162.774 64.4083 157.11C63.6403 151.454 63.9972 149.196 66.284 145.313C67.1234 143.885 67.9171 142.281 68.0427 141.75C68.5994 139.426 66.4639 135.868 63.8601 134.781C61.0393 133.602 58.3042 134.367 52.2744 138.021C50.2017 139.277 47.7835 140.502 46.9041 140.739C45.8906 141.016 45.2996 141.39 45.2996 141.761C45.2996 142.084 45.9877 144.805 46.8242 147.808C48.5001 153.824 51.4807 166.52 51.9147 169.481C52.3087 172.193 52.7484 173.226 53.3165 172.775C53.5735 172.573 54.4585 172.196 55.2893 171.939ZM204.042 165.329C204.167 164.296 204.73 161.244 205.298 158.549C205.989 155.26 206.334 152.448 206.349 150.004C206.369 146.552 206.297 146.204 204.941 143.314C204.153 141.638 203.382 140.265 203.228 140.265C202.991 140.265 201.309 144.028 200.493 146.381C200.147 147.374 198.46 147.645 197.581 146.849C196.95 146.275 196.844 145.684 196.85 142.749C196.856 139.42 197.332 134.983 197.815 133.721C198.888 130.929 192.185 137.656 190.358 141.207C188.282 145.241 187.177 149.353 187.383 152.291C187.403 152.587 188.402 151.882 189.652 150.689C191.879 148.565 192.445 148.291 193.375 148.882C194.032 149.298 194.058 150.238 193.47 152.653C192.499 156.639 193.558 159.931 196.978 163.568C198.866 165.575 202.112 167.511 203.254 167.311C203.628 167.245 203.893 166.58 204.042 165.329ZM200.601 138.98C201.598 135.957 205.155 131.866 213.94 123.626C219.293 118.604 223.53 112.08 224.943 106.679C225.78 103.481 225.537 97.9309 224.438 95.093C221.075 86.408 213.849 81.4774 200.573 78.7965C197.469 78.1713 194.754 77.7687 194.537 77.9029C194.309 78.0457 194.911 78.8936 195.965 79.9129C196.967 80.8864 198.08 82.1255 198.44 82.6679C198.854 83.2932 199.816 83.8899 201.078 84.2982C206.54 86.0711 211.508 89.7513 213.249 93.3143C215.273 97.4513 215.881 105.131 214.588 110.196C213.403 114.827 210.551 119.877 206.74 124.091C202.449 128.837 199.482 135.066 199.482 139.343C199.482 140.673 200.105 140.476 200.601 138.98ZM206.266 137.65C206.266 136.185 205.735 135.914 205.012 137.013C204.578 137.679 204.538 138.013 204.858 138.332C205.632 139.103 206.263 138.801 206.266 137.65ZM172.34 135.683C168.02 134.889 166.584 131.306 168.934 127.203C169.547 126.136 171.169 124.186 172.542 122.87C176.111 119.441 176.759 118.176 177.253 113.671C177.516 111.275 177.99 109.205 178.558 107.949C179.728 105.371 182.406 102.787 184.705 102.025C185.692 101.697 186.803 101.077 187.171 100.646C187.617 100.126 188.054 99.958 188.476 100.141C188.827 100.289 190.055 100.62 191.203 100.874C193.952 101.477 194.826 102.062 195.719 103.909C196.273 105.048 196.462 106.225 196.462 108.489C196.462 111.167 196.604 111.803 197.629 113.742C198.577 115.538 198.763 116.274 198.631 117.691C198.28 121.442 195.648 123.278 190.597 123.292C187.771 123.301 187.491 123.372 186.595 124.337C186.066 124.908 185.096 126.401 184.436 127.657C182.109 132.097 178.412 135.423 175.354 135.82C174.632 135.917 173.285 135.854 172.34 135.683ZM176.839 132.551C178.389 131.746 180.611 129.079 182.324 125.953C183.143 124.454 184.296 122.758 184.879 122.187C186.295 120.802 188.55 120.163 190.877 120.483C193.17 120.8 194.791 120.194 195.542 118.744C196.287 117.302 196.25 117.037 194.957 114.444C193.969 112.46 193.829 111.783 193.829 108.934C193.829 106.276 193.692 105.517 193.087 104.743C192.125 103.524 190.026 103.181 187.737 103.869C182.403 105.474 180.459 108.012 179.828 114.199C179.626 116.197 179.129 118.576 178.726 119.486C178.318 120.409 176.594 122.578 174.835 124.388C173.099 126.176 171.392 128.203 171.043 128.888C170.193 130.567 170.404 132.026 171.586 132.619C172.856 133.256 175.514 133.225 176.839 132.551ZM58.6269 124.588C62.2185 123.663 67.9628 121.596 70.5152 120.306C73.473 118.813 76.8819 115.332 78.592 112.06C80.108 109.16 81.5584 103.538 82.412 97.2543C82.9402 93.3629 82.9459 92.7348 82.4463 91.5357C81.0388 88.1696 73.3159 85.68 67.3404 86.6678C66.087 86.8734 62.2699 88.141 58.8581 89.48C50.1132 92.9118 48.383 93.3115 42.4731 93.2715C38.4019 93.2458 36.9629 93.0717 33.9909 92.2466C22.9905 89.1945 21.7971 88.9461 17.9685 88.9147C13.8344 88.8776 11.8188 89.4087 9.57471 91.1188C6.76252 93.2658 6.23434 95.6754 7.63901 99.9523C9.17786 104.637 11.2363 107.884 15.1991 111.886C18.5795 115.298 22.6393 118.133 26.4336 119.735C29.4143 120.991 39.3412 123.663 44.4916 124.597C48.56 125.333 55.7518 125.331 58.6269 124.588ZM209.189 116.192C211.753 111.841 212.493 109.145 212.458 104.263C212.404 97.2685 211.368 94.0024 208.359 91.3501C205.84 89.1346 200.236 86.3252 200.236 87.2817C200.236 87.373 200.653 88.7748 201.164 90.3908C201.675 92.0096 202.363 94.6048 202.691 96.1608C203.242 98.7674 206.645 118.399 206.645 118.97C206.645 119.8 207.807 118.533 209.189 116.192ZM40.8572 116.957C36.8716 115.535 34.3906 112.223 34.3763 108.303C34.3649 105.562 35.21 103.604 36.3377 103.764C37.1342 103.878 37.1856 104.049 37.0943 106.148C36.9487 109.494 37.2799 110.744 38.7473 112.369C41.1969 115.081 44.8085 115.672 48.2232 113.922C50.9297 112.531 52.3744 110.136 52.7969 106.339C52.991 104.58 53.1509 104.246 53.8504 104.149C55.6491 103.892 55.9231 107.569 54.3643 111.098C52.146 116.117 46.0019 118.787 40.8572 116.957ZM119.787 105.206C123.119 104.115 126.225 103.321 127.176 103.321C128.078 103.321 130.762 103.821 133.143 104.426C140.772 106.373 141.745 106.493 144.457 105.796C145.776 105.46 148.434 104.492 150.364 103.644C153.425 102.302 154.19 101.762 156.326 99.4555C159.301 96.2436 161.81 92.2894 162.958 88.9975C163.92 86.2424 164.197 80.7094 163.418 79.9243C163.081 79.5874 161.382 79.6702 156.254 80.2754C149.417 81.0777 147.863 81.229 142.179 81.6459C140.418 81.7743 136.94 82.1626 134.451 82.5081C131.156 82.962 127.51 83.119 121.015 83.0819L112.101 83.0277L111.627 84.7293C111.365 85.6657 110.08 88.0211 108.775 89.9597C104.741 95.9495 104.045 98.0166 104.85 101.585C105.438 104.195 106.443 105.411 108.735 106.293C111.765 107.461 113.406 107.298 119.787 105.206ZM14.5053 103.901C13.9686 102.773 13.9486 102.373 14.3654 100.989C14.6338 100.089 15.4732 98.7532 16.2669 97.9595C17.4831 96.7461 17.9342 96.5348 19.3475 96.5348C20.9663 96.5348 22.3909 97.1857 23.3388 98.3592C23.9926 99.1671 23.9298 101.1 23.216 102.116C22.6935 102.862 22.408 102.933 20.8292 102.724C19.0705 102.49 19.0163 102.513 18.2311 103.844C17.5859 104.934 17.1976 105.206 16.2783 105.206C15.3419 105.206 15.0192 104.971 14.5053 103.901ZM70.3324 102.165L68.7993 100.632L67.3918 101.306C66.1184 101.914 65.8843 101.922 64.9736 101.411C63.6574 100.672 63.5346 99.8352 64.5111 98.2535C66.6095 94.8589 72.8591 94.4621 74.4894 97.6197C75.3459 99.2728 75.2631 102.008 74.3266 102.944C73.176 104.095 72.0397 103.872 70.3324 102.165ZM50.0989 89.7541C51.6006 89.3373 55.3579 87.9869 58.447 86.7535C64.8308 84.204 67.9942 83.5187 71.8656 83.8471C74.8719 84.1012 79.0717 85.2774 81.2015 86.4623C81.9781 86.8934 82.7318 87.1246 82.8774 86.979C83.3371 86.5194 82.295 81.4831 80.6819 76.3669C79.834 73.6718 77.647 66.971 75.8227 61.478C73.6014 54.7829 72.0654 49.367 71.1718 45.0587C69.8614 38.7434 68.7964 35.66 66.0642 30.2526C64.0057 26.1728 56.7882 19.3892 55.415 20.2372C55.2408 20.3457 55.1009 21.0252 55.1009 21.7475C55.1009 23.509 54.1987 25.1507 52.8511 25.8473C51.4379 26.5782 50.8127 26.5668 49.1567 25.7816C47.8292 25.1507 47.8063 25.1535 47.2239 26.0643C46.8984 26.5696 46.0962 27.5346 45.4395 28.2084C42.87 30.8436 39.6438 28.8879 39.6438 24.6967C39.6438 23.9858 39.5724 23.4034 39.4839 23.4034C39.3954 23.4034 38.0536 23.9116 36.5004 24.534C33.1372 25.8815 32.2493 25.9301 31.093 24.8452C30.4421 24.2313 30.2194 23.609 30.2194 22.3927C30.2194 21.4962 30.0938 20.7625 29.9367 20.7625C29.7826 20.7625 28.6862 21.5219 27.5071 22.4498C24.8805 24.5111 23.1703 27.8058 21.9198 33.2047C21.463 35.1746 20.6037 38.7349 20.0127 41.1188C19.4188 43.5056 18.5766 47.1515 18.1369 49.2242C17.0863 54.1891 15.5103 60.2303 13.8087 65.8119C10.1743 77.7345 7.60189 87.0989 7.60189 88.418C7.60189 88.9233 7.87312 88.8691 9.21498 88.0811C13.9086 85.3288 18.9249 85.3745 29.4799 88.2638C33.3085 89.3116 37.5454 90.3166 38.8929 90.4993C42.2819 90.9561 46.8499 90.6534 50.0989 89.7541ZM27.6213 72.2071C26.5136 70.9452 26.4508 70.7111 26.4593 67.779C26.4707 62.9911 27.7783 60.7242 30.522 60.7242C32.7204 60.7242 34.7446 63.3851 34.7446 66.2801C34.7446 72.1272 30.5991 75.5818 27.6213 72.2071ZM53.1224 72.7553C51.9604 72.0815 51.3323 70.3028 51.3323 67.7048C51.3323 63.3509 52.9996 60.9612 55.8946 61.1696C57.3592 61.2753 57.6247 61.4494 58.407 62.797C59.609 64.8726 59.4719 68.6584 58.1272 70.6226C56.6255 72.8124 54.6698 73.6489 53.1224 72.7553ZM32.7746 66.1688C33.8224 65.435 33.8395 64.5072 32.8317 63.2252C32.3178 62.5714 31.6869 62.2317 30.9874 62.2317C29.2344 62.2317 28.8889 64.3244 30.3935 65.829C31.4784 66.9168 31.6669 66.9425 32.7746 66.1688ZM57.2878 65.9261C57.5362 65.6777 57.7389 64.9468 57.7389 64.3044C57.7389 62.9112 57.1537 62.2317 55.9574 62.2317C55.3721 62.2317 54.9639 62.5429 54.724 63.171C53.9389 65.238 55.8832 67.3279 57.2878 65.9261ZM23.0561 50.3205C23.0561 49.4069 24.4922 47.5854 25.7084 46.9573C26.9675 46.3064 28.8261 46.2322 29.8682 46.7889C31.2186 47.5112 30.6762 47.9423 28.7405 47.6854C26.6506 47.4084 25.1688 48.1479 24.2067 49.9494C23.6214 51.04 23.0618 51.2256 23.0561 50.3205ZM62.8751 48.8331C62.5582 48.008 60.3113 47.1543 58.4127 47.14C56.911 47.1315 56.8482 47.0915 57.5277 46.5748C58.4441 45.8838 60.0372 45.8667 61.6161 46.5348C63.0721 47.1515 64.3169 48.4591 63.9743 49.0129C63.6203 49.5897 63.1321 49.5069 62.8751 48.8331ZM15.2476 40.6078C15.9157 40.3251 16.7779 39.7398 17.1634 39.3059C17.7943 38.595 20.5294 28.7137 20.1954 28.3454C20.124 28.2626 19.5073 28.6224 18.8278 29.1391C16.6495 30.8008 13.9143 31.957 10.1628 32.8078C8.15006 33.2646 5.94312 34.0127 5.26077 34.4695C3.58773 35.5943 3.42214 37.0104 4.8468 38.0154C8.52406 40.5992 12.7466 41.6555 15.2476 40.6078ZM80.6505 38.4808C84.0794 36.3909 82.8175 32.0541 78.6291 31.5288C74.4408 31.0006 72.5222 30.5153 70.4638 29.4646C69.2704 28.8565 68.2968 28.4054 68.2968 28.4653C68.2968 28.5224 69.0363 30.1641 69.9413 32.1112C70.8435 34.0612 71.7799 36.2596 72.0198 36.9962C72.5565 38.6549 73.65 39.1403 76.9647 39.1945C78.7919 39.2231 79.7169 39.0461 80.6505 38.4808ZM44.7315 24.8166C47.0869 21.1965 47.8805 20.851 49.7563 22.6411C51.0953 23.923 51.9604 23.8174 52.3544 22.3242C52.6856 21.0566 52.5257 19.9745 51.8947 19.255C51.6206 18.9467 51.2752 17.8418 51.1267 16.8054C50.8098 14.5985 50.0789 13.0111 49.1596 12.5229C48.797 12.3288 46.9755 12.0518 45.1112 11.9062C41.3283 11.6064 38.8101 10.7128 38.1192 9.42234C37.6767 8.59724 37.6424 8.58868 37.1457 9.27103C36.5119 10.1361 36.4919 12.0747 37.1114 12.8798C37.3655 13.2081 38.3048 13.939 39.1984 14.5014C40.0949 15.0639 40.7687 15.7291 40.6973 15.9775C40.6259 16.2259 39.0186 17.1937 37.1257 18.1302C35.2328 19.0666 33.3256 20.1515 32.8945 20.5427C31.5527 21.756 32.0637 23.7774 33.7111 23.7774C34.0965 23.7774 36.2064 22.8981 38.3962 21.8217C42.1562 19.9774 42.4075 19.906 42.8814 20.5541C43.3011 21.1279 43.2925 21.4534 42.8329 22.5554C42.2562 23.9344 42.1077 25.7388 42.5331 26.1671C43.1012 26.7323 43.7465 26.3355 44.7315 24.8166ZM66.8236 18.5242C67.9285 15.5978 67.7058 11.201 66.3154 8.48875C65.7758 7.44096 65.0821 6.36747 64.768 6.11052C64.2798 5.7051 64.1656 5.89068 63.9486 7.45238C63.4804 10.847 62.6296 14.0703 61.4933 16.7598L60.3599 19.4463L62.2727 21.2821L64.1884 23.1179L65.1106 21.8674C65.6159 21.1822 66.384 19.6833 66.8236 18.5242ZM26.4079 19.7204L27.6584 18.6783L26.3937 16.6427C25.1317 14.6099 25.1289 14.6042 25.1289 9.77066C25.1289 7.10977 25.0318 4.93139 24.9119 4.93139C24.4237 4.93139 23.0533 6.73577 22.3338 8.32601C20.9406 11.4009 21.5201 17.3051 23.4615 19.7718C24.4465 21.0223 24.8605 21.0166 26.4079 19.7204Z" fill="white"/>
</g>
</svg>
