<svg width="251" height="101" viewBox="0 0 251 101" fill="none" xmlns="http://www.w3.org/2000/svg">
<path d="M189.398 65.5145C190.337 66.5005 191.22 67.4337 192.267 68.4253C192.789 68.8919 193.378 69.2474 194.034 69.4891C194.689 69.7335 195.367 69.8474 196.067 69.8363C196.236 69.8363 196.406 69.8279 196.575 69.8141C197.944 69.7057 198.919 69.1836 199.278 68.7142C199.592 68.2837 199.789 67.8059 199.864 67.2782C199.936 66.7505 199.883 66.2366 199.697 65.7339C199.128 63.973 197.439 62.5092 195.181 61.8232C193.173 61.2149 190.262 61.1371 187.193 61.6148C186.898 61.6621 186.704 61.8259 186.615 62.112C186.523 62.3953 186.584 62.6425 186.798 62.8508C187.734 63.7646 188.57 64.6451 189.398 65.5145ZM194.759 63.2119C196.564 63.7591 197.894 64.8701 198.317 66.1811C198.428 66.4533 198.467 66.7366 198.433 67.0282C198.4 67.3199 198.297 67.5893 198.128 67.8281C197.628 68.1781 197.07 68.3586 196.458 68.3698C195.881 68.4309 195.314 68.3781 194.759 68.2031C194.203 68.0309 193.703 67.7531 193.264 67.3726C192.245 66.4061 191.373 65.4895 190.431 64.4979C189.926 63.9646 189.412 63.423 188.865 62.8647C190.851 62.6175 192.814 62.7342 194.759 63.2119Z" fill="black"/>
<path d="M172.042 63.015C168.942 63.2399 166.123 63.9677 164.306 65.012C162.259 66.1897 160.94 67.995 160.784 69.8393C160.715 70.3698 160.776 70.8809 160.968 71.3808C161.159 71.878 161.456 72.3002 161.862 72.6474C162.47 73.0473 163.14 73.2251 163.865 73.1807C164.159 73.1807 164.451 73.1584 164.742 73.114C165.523 73.014 166.25 72.764 166.928 72.3585C167.603 71.9558 168.17 71.4336 168.628 70.7948C169.42 69.6004 170.075 68.4894 170.767 67.3173L170.145 66.9451L169.52 66.5757V66.5785C168.836 67.7367 168.192 68.8311 167.423 69.9921C167.078 70.4615 166.653 70.8448 166.153 71.1392C165.65 71.4308 165.109 71.6141 164.531 71.6808C163.937 71.8086 163.356 71.7614 162.79 71.5364C162.57 71.3419 162.409 71.1031 162.309 70.8253C162.209 70.5448 162.184 70.2587 162.231 69.9671C162.348 68.5978 163.395 67.2173 165.031 66.2758C166.817 65.3731 168.706 64.8176 170.694 64.6148C170.286 65.2842 169.903 65.9314 169.528 66.5674L170.147 66.9451L170.778 67.3034C171.378 66.2869 171.997 65.2398 172.705 64.1343C172.869 63.8843 172.872 63.6288 172.719 63.3733C172.569 63.1094 172.342 62.99 172.042 63.015Z" fill="black"/>
<mask id="mask0_206_465" style="mask-type:luminance" maskUnits="userSpaceOnUse" x="0" y="0" width="251" height="101">
<path d="M0.882812 0.273438H250.392V100.908H0.882812V0.273438Z" fill="white"/>
</mask>
<g mask="url(#mask0_206_465)">
<path d="M249.923 6.90139C249.809 5.8015 249.481 4.76549 248.937 3.79891C248.395 2.83234 247.684 2.01575 246.801 1.34359C246.184 0.899189 245.504 0.601995 244.757 0.454786C244.012 0.304801 243.268 0.318688 242.529 0.493672L176.385 7.92907C176.202 6.25979 176.024 4.59606 175.855 2.97121C175.844 2.87122 175.813 2.77401 175.76 2.68791C175.71 2.59903 175.644 2.52403 175.56 2.46293C175.48 2.40182 175.388 2.36294 175.288 2.34072C175.188 2.3185 175.088 2.3185 174.988 2.33794L171.552 3.03787C171.366 3.07676 171.219 3.1712 171.111 3.32396C171 3.47672 170.955 3.64615 170.978 3.83224L171.544 8.71233C165.084 9.57336 158.615 10.3233 152.14 10.9649L152.265 8.18461C152.277 7.97074 152.263 7.75965 152.229 7.54856C152.199 7.33746 152.143 7.13471 152.068 6.93472C151.996 6.73474 151.902 6.54587 151.79 6.36256C151.677 6.18202 151.546 6.01537 151.402 5.85983C151.254 5.70706 151.093 5.56819 150.918 5.44598C150.746 5.32377 150.56 5.21822 150.366 5.1349C150.171 5.04879 149.968 4.98491 149.76 4.94047C149.552 4.89603 149.341 4.87103 149.13 4.86826L147.671 4.85437H147.641C147.435 4.85714 147.233 4.87659 147.033 4.91547C146.833 4.95714 146.638 5.01546 146.449 5.09323C146.26 5.16823 146.08 5.26544 145.908 5.37654C145.738 5.48764 145.58 5.61541 145.433 5.75706C145.286 5.90149 145.155 6.05703 145.038 6.22368C144.922 6.39311 144.822 6.56809 144.738 6.75696C144.658 6.94306 144.594 7.13748 144.547 7.33746C144.502 7.53467 144.477 7.73743 144.472 7.94296C144.441 9.05397 144.405 10.3177 144.363 11.6843C117.135 14.0174 89.8797 14.434 62.5906 12.9314C62.549 11.5176 62.5129 10.2066 62.4823 9.05952C62.4767 8.85676 62.449 8.65401 62.4045 8.45402C62.3601 8.25404 62.2962 8.0624 62.2129 7.87352C62.1296 7.68743 62.0323 7.50967 61.9157 7.34302C61.799 7.17359 61.6657 7.01805 61.5213 6.8764C61.3741 6.73197 61.2158 6.60698 61.0435 6.4931C60.8741 6.382 60.6936 6.28756 60.5047 6.20979C60.3158 6.13202 60.1186 6.0737 59.9187 6.03481C59.7187 5.99315 59.5159 5.97371 59.3132 5.97371H59.2798L57.8244 5.98759C57.6105 5.98759 57.4022 6.01259 57.1939 6.05703C56.9856 6.10147 56.7828 6.16535 56.5884 6.25146C56.3912 6.33478 56.2079 6.44033 56.0329 6.56254C55.8579 6.68475 55.6996 6.82085 55.5524 6.97639C55.4052 7.13193 55.2747 7.29858 55.1636 7.47912C55.0497 7.65966 54.958 7.8513 54.883 8.04851C54.808 8.24849 54.7553 8.45402 54.7219 8.66512C54.6886 8.87621 54.6775 9.0873 54.6858 9.29839L54.8303 12.4564C37.1208 11.2454 19.4669 9.2234 1.86862 6.39033C1.67698 6.35978 1.49921 6.39866 1.3409 6.50977C1.1798 6.62087 1.07981 6.77363 1.0437 6.96528C0.979819 7.27358 0.885384 7.73743 5.02666 13.148C6.55151 15.1423 9.25125 18.5586 10.1956 19.0447C14.0702 20.5612 18.0587 21.6528 22.1667 22.3194C32.8934 23.7692 43.9424 24.8414 55.4135 25.533C55.7829 33.8183 56.1218 41.5398 56.2301 43.9701C42.3787 43.5701 28.7355 42.9174 15.2979 42.0092C15.0896 41.9925 14.9118 42.0564 14.7591 42.198C14.6063 42.3369 14.5285 42.5091 14.523 42.7147L14.173 56.7633C14.1675 56.955 14.2313 57.1244 14.3591 57.266C14.4896 57.4105 14.6507 57.4882 14.8452 57.5049C27.8578 58.4465 41.0677 59.1714 54.1192 59.6658C54.3858 65.6125 54.6747 72.1285 54.908 77.3697C50.164 77.1225 45.0562 77.4419 41.6621 79.3223C31.8602 84.7606 35.6654 93.4626 35.7043 93.5515C35.7626 93.6792 35.8515 93.7848 35.9709 93.8598C36.0904 93.9376 36.2209 93.9764 36.3653 93.9764H51.2889C50.9695 95.3846 50.3473 98.1733 49.989 100.223C49.9696 100.329 49.9752 100.434 50.0029 100.54C50.0335 100.642 50.0807 100.737 50.1529 100.82C50.2224 100.901 50.3057 100.965 50.4057 101.009C50.5029 101.054 50.6057 101.076 50.714 101.073C59.0132 100.973 70.7315 101.073 70.8482 101.073C71.1037 101.07 71.3037 100.965 71.4509 100.759C71.5981 100.548 71.6231 100.323 71.5287 100.084L69.14 93.9764C76.8143 93.9792 123.599 94.0014 133.884 93.9764C132.87 96.4095 131.409 100.031 131.392 100.073C131.348 100.184 131.331 100.301 131.345 100.42C131.356 100.54 131.398 100.651 131.465 100.751C131.531 100.851 131.62 100.929 131.726 100.984C131.831 101.042 131.945 101.07 132.065 101.07H153.218C153.329 101.07 153.435 101.045 153.535 100.998C153.635 100.948 153.718 100.881 153.787 100.795C153.857 100.709 153.901 100.609 153.926 100.501C153.951 100.395 153.949 100.287 153.924 100.179L152.46 93.9737H169.522C169.722 93.9737 169.892 93.9014 170.033 93.7626C170.175 93.6237 170.247 93.4543 170.247 93.2571C170.253 92.8543 170.303 83.3663 164.245 79.8278C164.02 79.6972 163.795 79.5723 163.567 79.45C163.664 79.45 163.759 79.4612 163.856 79.4612C164.461 79.4612 165.064 79.4167 165.661 79.3278C166.486 79.2167 167.289 79.0195 168.069 78.739C168.853 78.4585 169.597 78.1002 170.305 77.6641C171.011 77.228 171.664 76.7225 172.266 76.1504C172.866 75.5754 173.4 74.9449 173.869 74.2589C174.755 72.9257 175.48 71.6924 176.183 70.4981C177.269 68.5844 178.463 66.7401 179.766 64.9653C181.563 66.4818 183.254 68.1067 184.843 69.8398C185.793 70.8398 186.776 71.8785 187.943 72.9812C189.042 74.0061 190.292 74.7894 191.695 75.331C193.098 75.8726 194.553 76.1365 196.056 76.117C196.389 76.117 196.733 76.1031 197.078 76.0754C200.114 75.8337 202.738 74.5366 204.272 72.5229C204.738 71.9091 205.122 71.248 205.424 70.5398C205.727 69.8315 205.938 69.0983 206.063 68.3372C206.185 67.579 206.213 66.8151 206.149 66.0458C206.083 65.2792 205.927 64.532 205.677 63.8043C204.544 60.2991 201.6 57.441 197.719 56.0495C212.249 54.7663 226.894 53.1887 241.318 51.3527C241.418 51.3388 241.51 51.3083 241.593 51.2583C241.679 51.2083 241.751 51.1444 241.81 51.0639C241.868 50.9833 241.91 50.8972 241.932 50.8C241.954 50.7028 241.957 50.6056 241.94 50.5084C241.904 50.3 241.874 49.5084 241.837 48.6696C241.699 45.2089 241.437 38.7706 239.913 35.9792C239.84 35.8486 239.74 35.7514 239.61 35.682C239.479 35.6153 239.34 35.5903 239.193 35.607C223.7 37.3596 208.21 38.8706 193.137 40.101C193.106 40.0232 193.078 39.9455 193.048 39.8677C192.889 39.4761 192.673 39.1205 192.398 38.8011C192.123 38.4817 191.806 38.2151 191.442 37.9984C191.081 37.7846 190.695 37.6318 190.284 37.5429C189.873 37.454 189.456 37.4318 189.037 37.479C188.62 37.5263 188.22 37.6374 187.837 37.8151C187.457 37.9929 187.112 38.2262 186.807 38.5178C186.501 38.8067 186.251 39.1372 186.054 39.5094C185.857 39.8816 185.723 40.276 185.654 40.6926C184.86 40.7537 184.062 40.8121 183.268 40.8704C183.237 40.7371 183.21 40.601 183.179 40.4676C183.068 40.0038 182.879 39.5733 182.613 39.1789C182.343 38.7872 182.013 38.4539 181.621 38.1818C181.229 37.9096 180.802 37.7179 180.338 37.604C179.877 37.4901 179.407 37.4624 178.935 37.5207C178.463 37.5818 178.016 37.7235 177.594 37.9484C177.174 38.1734 176.808 38.4651 176.494 38.8234C176.183 39.1844 175.944 39.5899 175.783 40.0371C175.619 40.4843 175.541 40.9482 175.549 41.4231C174.252 41.512 172.955 41.6009 171.655 41.687C171.591 41.2426 171.455 40.8232 171.244 40.4288C171.033 40.0316 170.764 39.6844 170.43 39.3816C170.1 39.0817 169.728 38.8456 169.314 38.6734C168.9 38.5012 168.469 38.404 168.022 38.3817C167.575 38.3595 167.136 38.4123 166.708 38.5428C166.281 38.6706 165.886 38.8706 165.525 39.1372C165.167 39.4039 164.861 39.7233 164.614 40.0955C164.364 40.4676 164.187 40.8704 164.078 41.3065C164.006 41.5953 163.942 41.887 163.878 42.1758C163.323 42.2091 162.767 42.2397 162.212 42.273C162.103 41.8592 161.928 41.4731 161.692 41.1148C161.453 40.7593 161.165 40.4482 160.823 40.1871C160.484 39.926 160.109 39.7288 159.704 39.5927C159.298 39.4539 158.879 39.3872 158.451 39.39C158.02 39.3927 157.604 39.465 157.198 39.6038C156.793 39.7455 156.423 39.9482 156.084 40.2149C155.748 40.4788 155.462 40.7898 155.229 41.1509C154.996 41.5092 154.826 41.8981 154.721 42.3147C154.69 42.4397 154.662 42.5674 154.635 42.6952C153.329 42.7646 152.024 42.8258 150.721 42.8896C150.829 40.4176 151.191 32.2157 151.577 23.5804C158.556 22.9888 165.711 22.3027 173.036 21.5278L173.491 25.4246C173.511 25.6079 173.591 25.7607 173.727 25.8829C173.866 26.0051 174.024 26.0662 174.211 26.0662H174.247C174.516 26.0523 174.799 26.0523 175.088 26.0496C175.991 26.0885 176.877 25.994 177.749 25.7635C177.916 25.7135 178.044 25.6135 178.138 25.4718C178.235 25.3274 178.271 25.1691 178.255 24.9969C178.149 23.9859 178.041 22.9582 177.927 21.925C189.076 20.7779 200.169 19.6113 210.902 18.4836C221.792 17.3393 233.052 16.1561 244.362 14.9895C244.426 14.9812 244.49 14.9673 244.551 14.9423C248.82 14.3229 250.334 10.4899 249.923 6.90139ZM145.922 7.97907C145.927 7.75687 145.977 7.54022 146.066 7.33746C146.158 7.13193 146.283 6.95139 146.441 6.79585C146.602 6.63753 146.785 6.5181 146.994 6.43477C147.202 6.34867 147.416 6.30701 147.641 6.30423H147.658L149.113 6.32089C149.349 6.32089 149.571 6.37089 149.785 6.46255C149.999 6.55698 150.188 6.68753 150.349 6.85695C150.507 7.02638 150.629 7.22081 150.71 7.44023C150.793 7.65966 150.827 7.88463 150.816 8.11795L150.682 11.1093C149.06 11.2676 147.441 11.4176 145.819 11.5593C145.858 10.2566 145.894 9.04563 145.922 7.97907ZM56.6051 7.97629C56.9384 7.61799 57.3495 7.44023 57.8383 7.43745L59.2937 7.42357H59.3132C59.5354 7.42357 59.752 7.46801 59.9575 7.55133C60.1659 7.63744 60.3492 7.75687 60.5103 7.91241C60.6714 8.06795 60.7963 8.24849 60.8852 8.45402C60.9769 8.65956 61.0241 8.87343 61.0324 9.09841C61.0602 10.2122 61.0963 11.4815 61.138 12.8536C59.5215 12.7592 57.9022 12.6592 56.2857 12.5509L56.1357 9.23451C56.1107 8.74844 56.269 8.32904 56.6051 7.97629ZM168.772 92.5266H151.54C151.429 92.5266 151.324 92.5516 151.224 92.5988C151.124 92.646 151.041 92.7154 150.971 92.8016C150.902 92.8877 150.857 92.9849 150.832 93.0932C150.807 93.2015 150.81 93.3098 150.835 93.4182L152.302 99.6231H133.139C133.762 98.0872 134.953 95.1541 135.642 93.5348C135.692 93.4237 135.709 93.3071 135.698 93.1848C135.686 93.0654 135.648 92.9543 135.581 92.8515C135.514 92.7488 135.428 92.671 135.32 92.6127C135.211 92.5544 135.098 92.5266 134.975 92.5266H134.973C126.982 92.5544 68.6623 92.5266 68.0734 92.5266C67.954 92.5266 67.8401 92.5544 67.7346 92.6099C67.629 92.6655 67.5429 92.7432 67.4735 92.8432C67.4068 92.9404 67.3652 93.0487 67.3513 93.1682C67.3374 93.2876 67.3541 93.4043 67.3985 93.5154L69.7872 99.6148C66.8236 99.5953 58.2994 99.5454 51.575 99.6148C52.0916 96.8873 52.8971 93.457 52.9054 93.4182C52.9304 93.3098 52.9304 93.2043 52.9082 93.096C52.8832 92.9876 52.836 92.8904 52.7693 92.8016C52.6999 92.7154 52.6166 92.6488 52.5166 92.5988C52.4166 92.5516 52.311 92.5266 52.1999 92.5266H36.857C36.2792 90.8628 34.8044 84.7884 42.3703 80.5916C49.6502 76.5531 66.4403 80.4277 66.6069 80.4666C66.7375 80.4972 66.868 80.4916 66.9958 80.4527C67.193 80.3888 86.8939 74.1894 104.875 74.1894C114.258 74.1894 125.61 74.9644 138.667 80.7055C138.814 80.7694 138.964 80.7832 139.119 80.7499C150.207 78.2002 157.376 77.5002 163.517 81.086C167.947 83.6746 168.661 90.3268 168.772 92.5266ZM55.2274 51.9943C55.2163 51.761 55.2524 51.536 55.333 51.3166C55.4135 51.0972 55.5357 50.9028 55.6968 50.7333C55.8579 50.5639 56.044 50.4334 56.2579 50.3389C56.4718 50.2445 56.6967 50.1973 56.9301 50.1945L58.3855 50.1806H58.4021C58.6271 50.1834 58.841 50.225 59.0493 50.3112C59.2576 50.3945 59.4409 50.5139 59.602 50.6722C59.7603 50.8278 59.8853 51.0083 59.977 51.2138C60.0686 51.4194 60.1159 51.6332 60.1242 51.8554C60.2881 58.2132 60.6769 69.3899 60.988 77.9724C59.5798 77.7724 58.0105 77.5863 56.3634 77.4641C56.0246 69.8121 55.5607 59.3603 55.2274 51.9943ZM61.8157 59.9325C73.5562 60.2963 85.3468 60.4796 97.1873 60.4824C112.897 60.4824 128.629 60.1574 144.241 59.5158C144.047 65.4708 143.802 72.5007 143.591 78.2946C142.1 78.589 140.575 78.9223 139.025 79.2806C125.735 73.4839 113.8 72.7396 104.873 72.7396C87.6243 72.7396 68.8373 78.364 66.743 79.0084C66.1875 78.8834 64.6015 78.539 62.4462 78.1946C62.2434 72.559 62.0046 65.7597 61.8157 59.9325ZM145.055 78.0196C145.363 69.4288 145.752 58.2521 145.922 51.8554C145.927 51.6332 145.977 51.4194 146.066 51.2138C146.158 51.0083 146.283 50.8278 146.441 50.6722C146.602 50.5139 146.785 50.3945 146.994 50.3112C147.202 50.225 147.416 50.1834 147.641 50.1806H147.658L149.113 50.1945C149.346 50.1973 149.571 50.2445 149.785 50.3389C149.999 50.4334 150.185 50.5639 150.346 50.7333C150.507 50.9028 150.629 51.0972 150.71 51.3166C150.791 51.536 150.827 51.761 150.816 51.9943C150.485 59.327 150.024 69.7149 149.685 77.3558C148.177 77.5058 146.633 77.7335 145.055 78.0196ZM157.851 77.4863C157.87 77.503 157.895 77.5197 157.915 77.5363C155.671 77.1586 153.413 77.0586 151.141 77.2336C151.379 71.8674 151.674 65.1958 151.946 59.1714C153.332 59.1048 154.718 59.0353 156.107 58.9631C156.148 59.0603 156.184 59.1575 156.229 59.2547C156.459 59.7686 156.787 60.2102 157.212 60.5824C157.637 60.9546 158.12 61.2212 158.662 61.3795C157.493 62.3906 156.551 63.5793 155.837 64.9459C155.123 66.3152 154.685 67.765 154.521 69.301C154.443 70.0676 154.457 70.8314 154.568 71.5952C154.676 72.3563 154.876 73.0951 155.165 73.8089C155.457 74.5227 155.829 75.1921 156.282 75.8143C156.737 76.4364 157.259 76.9947 157.851 77.4863ZM238.846 37.1041C240.029 39.8455 240.271 45.7894 240.39 48.728C240.413 49.2696 240.429 49.6834 240.446 50.0001C238.488 50.25 236.524 50.4917 234.558 50.7306C234.516 46.5698 233.547 40.0927 233.172 37.7346C235.063 37.529 236.955 37.3179 238.846 37.1041ZM231.727 37.8901C232.088 40.176 233.091 46.8615 233.111 50.9028C220.284 52.4415 207.338 53.7747 194.5 54.8746C194.931 52.647 195.072 50.4028 194.928 48.1391C194.784 45.8755 194.359 43.6673 193.648 41.512C206.135 40.4899 218.906 39.2761 231.727 37.8901ZM188.554 39.0817C188.851 38.9622 189.159 38.9039 189.479 38.9067C189.798 38.9067 190.106 38.9706 190.403 39.0956C190.698 39.2205 190.959 39.3955 191.184 39.6233C191.409 39.851 191.581 40.1149 191.703 40.4121C192.645 42.7424 193.223 45.1589 193.439 47.6642C193.656 50.1695 193.498 52.6498 192.967 55.1079C191.309 54.9968 189.651 55.0274 187.995 55.2024C188.006 55.1274 188.012 55.0496 188.031 54.9718C188.593 52.8609 188.804 50.7167 188.665 48.5363C188.526 46.3587 188.048 44.2562 187.226 42.2314C187.104 41.9369 187.045 41.6259 187.048 41.3065C187.048 40.987 187.112 40.6787 187.237 40.3843C187.362 40.0871 187.537 39.8288 187.765 39.6038C187.993 39.3761 188.256 39.2039 188.554 39.0844V39.0817ZM183.557 42.3008C184.268 42.2508 184.979 42.1953 185.687 42.1425C185.734 42.3591 185.798 42.573 185.882 42.7785C186.645 44.6561 187.09 46.6059 187.218 48.628C187.345 50.65 187.151 52.6387 186.632 54.5969C186.562 54.8579 186.52 55.1246 186.507 55.394C185.393 55.5579 184.304 55.7717 183.274 56.0301C184.279 51.4722 184.373 46.8976 183.557 42.3008ZM178.863 38.9956C179.174 38.9233 179.488 38.9122 179.804 38.965C180.121 39.015 180.416 39.1261 180.688 39.2955C180.96 39.4622 181.19 39.6788 181.377 39.9371C181.563 40.1982 181.693 40.4843 181.768 40.7954C182.357 43.3174 182.651 45.8727 182.651 48.4613C182.651 51.05 182.357 53.6053 181.768 56.1273C181.738 56.2495 181.699 56.3717 181.649 56.4883C180.865 56.7328 180.124 56.9966 179.454 57.2827C179.23 57.1938 178.996 57.1244 178.757 57.08C178.321 56.9994 177.86 56.9355 177.385 56.88C177.013 56.305 176.905 55.6856 177.063 55.019C178.085 50.6472 178.085 46.2754 177.063 41.9036C176.988 41.5925 176.977 41.2787 177.03 40.962C177.082 40.6454 177.191 40.351 177.36 40.0788C177.53 39.8066 177.744 39.5761 178.005 39.3872C178.263 39.2011 178.549 39.0706 178.863 38.9956ZM178.491 58.5048C178.718 58.5493 178.932 58.6215 179.138 58.727C179.352 58.8353 179.566 58.8353 179.782 58.7298L179.893 58.6715C184.187 56.805 191.495 55.6523 196.583 57.1994C200.361 58.3465 203.244 60.9824 204.297 64.2515C204.51 64.8681 204.644 65.5041 204.699 66.1541C204.755 66.804 204.733 67.4512 204.63 68.0956C204.527 68.74 204.349 69.3649 204.094 69.9648C203.838 70.5648 203.513 71.1258 203.119 71.648C201.833 73.334 199.591 74.4227 196.964 74.6338C196.656 74.6588 196.35 74.6699 196.056 74.6699C194.736 74.6894 193.464 74.4616 192.234 73.9867C191.003 73.5145 189.906 72.8285 188.94 71.9341C187.804 70.8564 186.832 69.8343 185.893 68.8455C184.096 66.8762 182.163 65.0514 180.096 63.3682C180.021 63.3071 179.935 63.2627 179.841 63.2377C179.749 63.2099 179.652 63.2016 179.557 63.2127C179.46 63.2238 179.368 63.2544 179.285 63.3016C179.199 63.3516 179.127 63.4127 179.068 63.4905C177.546 65.4875 176.169 67.5817 174.933 69.7676C174.238 70.9425 173.522 72.1591 172.658 73.4617C171.825 74.6783 170.78 75.6726 169.525 76.4448C168.269 77.2169 166.911 77.7002 165.447 77.8946C162.864 78.2779 160.39 77.7085 158.779 76.3726C158.276 75.9532 157.834 75.4782 157.451 74.9505C157.068 74.4227 156.751 73.8561 156.507 73.2506C156.262 72.6451 156.096 72.0202 156.004 71.373C155.912 70.7259 155.901 70.0787 155.968 69.4288C156.24 66.2541 158.17 63.2571 161.178 61.2684C161.231 61.249 161.287 61.2323 161.34 61.2073C161.673 61.0574 161.981 60.8657 162.262 60.6268C165.52 58.8826 170.017 58.1299 173.961 58.1299C175.483 58.1187 176.994 58.2437 178.491 58.5048ZM171.58 43.1868C171.583 43.1702 171.586 43.1563 171.589 43.1396C172.986 43.0452 174.38 42.9535 175.777 42.8563C176.61 46.8087 176.566 50.75 175.649 54.683C175.488 55.3718 175.513 56.055 175.727 56.73C174.847 56.68 173.924 56.6717 172.98 56.7022C172.986 56.1384 172.875 55.5995 172.647 55.0857C171.808 53.2164 171.3 51.2638 171.116 49.2251C170.933 47.1864 171.089 45.1728 171.58 43.1868ZM165.484 41.6564C165.561 41.3453 165.697 41.062 165.889 40.8037C166.081 40.5482 166.314 40.3371 166.589 40.1704C166.864 40.0066 167.158 39.901 167.475 39.8538C167.794 39.8066 168.108 39.8233 168.419 39.901C168.731 39.9788 169.014 40.1149 169.272 40.3065C169.528 40.4954 169.739 40.7287 169.903 41.0037C170.069 41.2787 170.175 41.5759 170.222 41.8925C170.266 42.2091 170.253 42.523 170.175 42.8341C169.642 44.9811 169.475 47.1531 169.672 49.3529C169.869 51.5555 170.419 53.6636 171.322 55.6801C171.48 56.0301 171.547 56.3967 171.527 56.78C169.944 56.8939 168.381 57.1244 166.833 57.4716C165.742 54.9829 165.081 52.3832 164.85 49.6751C164.62 46.967 164.831 44.2951 165.484 41.6564ZM162.223 44.1978C162.262 44.0395 162.289 43.8812 162.309 43.7201L163.609 43.6423C163.245 46.0449 163.217 48.453 163.523 50.8639C163.828 53.2748 164.459 55.5968 165.411 57.8327C164.77 58.016 164.148 58.2271 163.542 58.4604C163.714 57.6466 163.631 56.8605 163.289 56.0995C162.453 54.233 161.942 52.2776 161.759 50.2389C161.576 48.2002 161.731 46.1865 162.223 44.1978ZM156.129 42.6674C156.193 42.4063 156.298 42.1619 156.446 41.9369C156.593 41.712 156.771 41.5148 156.982 41.3509C157.196 41.1842 157.429 41.0593 157.682 40.9704C157.937 40.8815 158.198 40.8371 158.468 40.8371C158.668 40.8371 158.865 40.8621 159.062 40.912C159.373 40.9898 159.656 41.1231 159.912 41.3148C160.17 41.5064 160.381 41.7397 160.545 42.0147C160.712 42.2897 160.817 42.5869 160.865 42.9035C160.909 43.2202 160.895 43.534 160.817 43.8451C160.287 45.9893 160.117 48.1641 160.315 50.3639C160.512 52.5665 161.062 54.6746 161.964 56.6911C162.07 56.9216 162.137 57.1633 162.164 57.416C162.192 57.6688 162.181 57.9215 162.128 58.1687C162.076 58.4187 161.987 58.652 161.859 58.8714C161.731 59.0936 161.573 59.2881 161.381 59.4547C161.315 59.4936 161.242 59.5269 161.176 59.5658C160.962 59.688 160.753 59.8186 160.545 59.9519C160.292 60.0436 160.031 60.0936 159.762 60.0963C159.284 60.0963 158.845 59.9658 158.445 59.7075C158.045 59.4492 157.748 59.102 157.551 58.6659C156.429 56.1523 155.743 53.5275 155.501 50.7861C155.257 48.0447 155.465 45.3366 156.126 42.6674H156.129ZM154.335 44.1617C153.949 46.406 153.86 48.6613 154.062 50.9305C154.268 53.197 154.76 55.4023 155.54 57.541C154.362 57.5993 153.188 57.6605 152.01 57.716C152.102 55.7106 152.188 53.7969 152.265 52.061C152.274 51.8471 152.263 51.636 152.229 51.4249C152.196 51.2138 152.143 51.0111 152.068 50.8111C151.996 50.6111 151.902 50.4195 151.788 50.2389C151.677 50.0584 151.546 49.8917 151.399 49.7362C151.254 49.5834 151.093 49.4446 150.918 49.3224C150.746 49.2001 150.56 49.0946 150.366 49.0113C150.168 48.9252 149.968 48.8585 149.76 48.8141C149.552 48.7696 149.341 48.7474 149.127 48.7446L147.671 48.7307C147.466 48.7307 147.26 48.7474 147.058 48.7863C146.858 48.8252 146.66 48.8807 146.469 48.9585C146.277 49.0335 146.097 49.1279 145.922 49.2418C145.749 49.3529 145.588 49.4807 145.441 49.6223C145.294 49.7668 145.161 49.9223 145.041 50.0889C144.924 50.2584 144.824 50.4361 144.741 50.625C144.658 50.8139 144.594 51.0083 144.547 51.2083C144.502 51.4083 144.477 51.6138 144.469 51.8193C144.422 53.5858 144.361 55.719 144.288 58.0604C116.897 59.1909 89.1437 59.3325 61.7685 58.4798C61.6879 55.9689 61.6213 53.6858 61.5713 51.8193C61.5657 51.6138 61.5407 51.411 61.4935 51.2138C61.4491 51.0139 61.3852 50.8194 61.3046 50.6333C61.2213 50.4472 61.1213 50.2695 61.0047 50.1001C60.888 49.9334 60.7575 49.7779 60.6103 49.6334C60.463 49.4918 60.3047 49.364 60.1325 49.2529C59.9631 49.139 59.7826 49.0446 59.5937 48.9696C59.4048 48.8918 59.2104 48.8335 59.0076 48.7919C58.8077 48.753 58.6049 48.7335 58.4021 48.7307H58.3716L56.9134 48.7446C56.7023 48.7474 56.4912 48.7696 56.2829 48.8141C56.0746 48.8585 55.8718 48.9252 55.6774 49.0113C55.483 49.0946 55.2969 49.2001 55.1219 49.3224C54.9497 49.4446 54.7886 49.5834 54.6414 49.7362C54.4942 49.8917 54.3664 50.0584 54.2525 50.2389C54.1414 50.4195 54.047 50.6111 53.972 50.8111C53.8998 51.0111 53.8442 51.2138 53.8109 51.4249C53.7776 51.636 53.7665 51.8471 53.7776 52.061C53.8609 53.9414 53.9553 56.0245 54.0553 58.2132C41.2871 57.7299 28.3717 57.0216 15.6395 56.1078L15.9534 43.5062C29.3605 44.4062 42.9897 45.0505 56.8356 45.4422C56.8801 45.4505 56.9245 45.4561 56.9689 45.4561L62.9573 45.6116H62.9767C63.0239 45.6116 63.0711 45.606 63.1184 45.5977C92.7794 46.2726 123.296 45.7977 154.335 44.1617ZM56.8689 25.6218C58.4271 25.7107 59.9936 25.794 61.5657 25.8718C61.8435 33.9155 62.1323 41.6842 62.224 44.1256C60.7102 44.0895 59.1937 44.059 57.6828 44.0173C57.5828 41.7231 57.2411 33.9738 56.8689 25.6218ZM63.0184 25.9385C71.1176 26.3051 79.4335 26.4884 88.0049 26.4884C105.492 26.4884 124.043 25.7218 143.955 24.197C143.661 32.7212 143.347 41.137 143.269 43.2424C116.236 44.4339 89.6269 44.7422 63.6766 44.1617C63.5878 41.8342 63.2989 34.0405 63.0184 25.9385ZM144.727 43.023C144.822 40.5232 145.124 32.3379 145.411 24.0859C146.969 23.9637 148.541 23.8359 150.118 23.7026C149.732 32.3629 149.371 40.551 149.268 42.9063L144.727 43.023ZM22.3611 20.8834C18.4198 20.239 14.5896 19.1974 10.865 17.7615C10.0151 17.2893 5.67937 11.7259 3.58235 8.73733C4.92111 9.51781 6.31542 10.34 7.67918 11.1454C9.58733 12.2759 11.5621 13.4424 13.3592 14.4729C13.437 14.5173 13.5203 14.5479 13.6092 14.5618C40.0372 18.6725 66.6263 20.7279 93.371 20.7251C114.572 20.7223 135.692 19.4363 156.734 16.8727L156.559 15.4311C132.853 18.3336 109.061 19.5919 85.1829 19.2086C61.3046 18.828 37.5652 16.806 13.9647 13.148C12.2065 12.1398 10.2817 11.001 8.418 9.89833C7.6403 9.44004 6.85148 8.97342 6.071 8.51235C32.5046 12.5675 59.091 14.7951 85.8301 15.1978C112.572 15.5978 139.214 14.1701 165.759 10.9121L167.031 20.6917C109.858 26.4273 63.7266 26.4801 22.3611 20.8834ZM168.475 20.5473L167.197 10.7344C168.703 10.5455 170.208 10.3511 171.714 10.1511L172.869 20.089C171.4 20.2446 169.933 20.4001 168.475 20.5473ZM175.083 24.5997C175.005 24.5997 174.93 24.5997 174.855 24.5997L172.494 4.32664L174.497 3.91835C174.849 7.27914 175.238 10.7705 175.616 14.1563C175.996 17.5809 176.388 21.1167 176.746 24.5108C176.194 24.583 175.638 24.6108 175.083 24.5997ZM177.771 20.4834C177.535 18.317 177.294 16.1366 177.055 13.9952C176.885 12.4675 176.713 10.9177 176.544 9.3706L178.485 9.15118C178.927 12.5759 179.28 16.9671 179.496 19.6613L179.549 20.3001L177.771 20.4834ZM210.749 17.0393C201.05 18.0587 191.053 19.1086 180.99 20.1501L180.943 19.5446C180.849 18.3781 180.729 16.8893 180.588 15.3006L182.449 18.1475C182.593 18.367 182.793 18.4781 183.054 18.4781C183.09 18.4753 183.126 18.4753 183.162 18.4697C183.304 18.4475 183.426 18.392 183.535 18.2975C183.64 18.2031 183.712 18.0892 183.754 17.9531C184.071 16.8477 184.418 15.6506 184.768 14.4535C184.823 14.2646 184.804 14.0868 184.715 13.9146L182.821 10.2983C182.754 10.1705 182.657 10.0705 182.529 9.99832C182.404 9.92888 182.268 9.90111 182.124 9.91222C181.979 9.92333 181.849 9.97332 181.735 10.0622C181.618 10.1511 181.538 10.265 181.493 10.4011L180.429 13.5563C180.279 11.9954 180.113 10.4122 179.929 8.99008L241.993 2.01297L243.473 13.623C232.411 14.7618 221.403 15.9228 210.749 17.0393ZM181.69 14.3396L182.324 12.4731L183.293 14.3257C183.126 14.9006 182.96 15.4728 182.796 16.0311L181.69 14.3396ZM244.44 9.74001L243.926 5.72928C244.284 5.52375 244.657 5.49042 245.045 5.62929C245.395 5.77095 245.695 5.98482 245.94 6.27368C246.184 6.55976 246.348 6.89028 246.431 7.25969C246.523 7.593 246.537 7.92907 246.47 8.26793C246.404 8.60679 246.265 8.91509 246.054 9.19007C245.601 9.62336 245.065 9.80945 244.44 9.74279V9.74001ZM244.904 13.398L244.626 11.1982C245.098 11.2121 245.554 11.126 245.99 10.9455C246.429 10.7649 246.809 10.5011 247.134 10.1566C247.498 9.70946 247.745 9.20673 247.87 8.6429C247.998 8.07906 247.992 7.518 247.851 6.95972C247.717 6.34034 247.442 5.79039 247.029 5.31266C246.612 4.83215 246.109 4.4794 245.518 4.2572C244.926 4.04889 244.332 4.04056 243.737 4.23498L243.429 1.81855C244.365 1.74078 245.209 1.97964 245.968 2.53237C246.676 3.08509 247.251 3.75725 247.687 4.54606C248.123 5.3321 248.387 6.17369 248.481 7.07082C248.77 9.59281 247.973 12.6397 244.907 13.398H244.904Z" fill="black"/>
</g>
<path d="M187.743 9.5447C187.676 9.41693 187.579 9.31694 187.451 9.24473C187.326 9.17529 187.19 9.14751 187.046 9.15862C186.898 9.16973 186.771 9.21973 186.657 9.30861C186.54 9.39749 186.46 9.51137 186.415 9.64747L185.126 13.4554C185.051 13.6776 185.079 13.8887 185.207 14.0832L187.371 17.394C187.515 17.6134 187.718 17.7217 187.979 17.7217C188.015 17.7217 188.051 17.7189 188.087 17.7134C188.226 17.6939 188.351 17.6356 188.457 17.5412C188.565 17.4495 188.637 17.3328 188.676 17.1967C188.993 16.0941 189.343 14.897 189.69 13.6971C189.745 13.511 189.729 13.3304 189.637 13.1582L187.743 9.5447ZM187.718 15.2775L186.612 13.586L187.246 11.7195L188.215 13.5721C188.048 14.147 187.882 14.7192 187.718 15.2775Z" fill="black"/>
<path d="M198.042 8.79065C197.973 8.66288 197.875 8.56289 197.75 8.49345C197.623 8.42402 197.486 8.39346 197.342 8.40457C197.198 8.41568 197.067 8.46568 196.953 8.55456C196.839 8.64344 196.759 8.75732 196.712 8.89619L195.426 12.7042C195.351 12.9264 195.376 13.1347 195.503 13.3319L197.667 16.6427C197.811 16.8593 198.014 16.9704 198.275 16.9704C198.311 16.9704 198.348 16.9676 198.384 16.9621C198.523 16.9399 198.647 16.8843 198.753 16.7899C198.859 16.6955 198.934 16.5816 198.972 16.4455C199.289 15.3428 199.639 14.1429 199.986 12.9458C200.042 12.7597 200.022 12.5792 199.933 12.407L198.042 8.79065ZM198.02 14.5262L196.912 12.8347L197.545 10.9654L198.514 12.8208C198.348 13.393 198.178 13.9652 198.02 14.5262Z" fill="black"/>
<path d="M193.12 9.5447C193.053 9.41693 192.956 9.31694 192.828 9.24473C192.701 9.17529 192.565 9.14751 192.42 9.15862C192.276 9.16973 192.145 9.21973 192.031 9.30861C191.917 9.39749 191.837 9.51137 191.79 9.64747L190.504 13.4554C190.429 13.6776 190.454 13.8887 190.581 14.0832L192.745 17.394C192.89 17.6134 193.092 17.7217 193.353 17.7217C193.39 17.7217 193.426 17.7189 193.462 17.7134C193.601 17.6939 193.726 17.6356 193.831 17.5412C193.937 17.4495 194.012 17.3328 194.051 17.1967C194.367 16.0941 194.717 14.897 195.064 13.6971C195.12 13.511 195.1 13.3304 195.012 13.1582L193.12 9.5447ZM193.095 15.2775L191.99 13.586L192.62 11.7195L193.592 13.5721C193.426 14.147 193.259 14.7192 193.095 15.2775Z" fill="black"/>
<path d="M207.73 7.33766C207.66 7.20989 207.566 7.1099 207.438 7.04046C207.31 6.96825 207.174 6.94047 207.03 6.95158C206.885 6.96269 206.755 7.01269 206.641 7.10157C206.527 7.19045 206.446 7.30433 206.399 7.44043L205.113 11.2484C205.038 11.4706 205.063 11.6817 205.194 11.8789L207.355 15.1869C207.499 15.4063 207.702 15.5147 207.963 15.5174C207.999 15.5147 208.035 15.5147 208.071 15.5091C208.21 15.4869 208.335 15.4286 208.441 15.3369C208.549 15.2425 208.621 15.1286 208.66 14.9925C208.954 13.962 209.279 12.8538 209.604 11.7372L209.677 11.4928C209.729 11.3067 209.713 11.1262 209.624 10.954L207.73 7.33766ZM207.705 13.0732L206.599 11.3817L207.23 9.51245L208.202 11.3678C208.035 11.94 207.868 12.5122 207.705 13.0732Z" fill="black"/>
<path d="M202.808 8.08752C202.741 7.95976 202.644 7.85977 202.516 7.79033C202.389 7.72089 202.252 7.69034 202.108 7.70145C201.964 7.71256 201.833 7.76255 201.719 7.85143C201.605 7.94309 201.525 8.05419 201.478 8.19307L200.192 12.0038C200.117 12.226 200.142 12.4343 200.272 12.6315L202.433 15.9423C202.577 16.1618 202.78 16.2701 203.041 16.2701C203.077 16.2701 203.113 16.2673 203.15 16.2617C203.288 16.2423 203.413 16.184 203.519 16.0895C203.625 15.9979 203.7 15.8812 203.738 15.7451C204.027 14.7313 204.349 13.6342 204.672 12.5343L204.755 12.2455C204.808 12.0594 204.791 11.8788 204.702 11.7066L202.808 8.08752ZM203.277 12.1232C203.111 12.6954 202.947 13.2648 202.783 13.8231L201.678 12.1316L202.308 10.2623L203.28 12.1177L203.277 12.1232Z" fill="black"/>
<path d="M218.026 6.57971C217.959 6.45194 217.862 6.35195 217.737 6.28252C217.609 6.21308 217.473 6.18252 217.329 6.19363C217.184 6.20474 217.054 6.25752 216.94 6.3464C216.826 6.43528 216.746 6.54916 216.698 6.68525L215.41 10.4932C215.335 10.7154 215.362 10.9237 215.49 11.1209L217.654 14.4317C217.795 14.6512 217.998 14.7595 218.259 14.7595C218.295 14.7595 218.334 14.7567 218.37 14.7512C218.509 14.7317 218.632 14.6734 218.74 14.5789C218.845 14.4873 218.918 14.3706 218.959 14.2345C219.245 13.2374 219.556 12.1625 219.873 11.0821L219.973 10.7349C220.029 10.5488 220.012 10.3682 219.92 10.196L218.026 6.57971ZM218.482 10.6765C218.32 11.2265 218.159 11.7764 218.004 12.3153L216.898 10.6238L217.529 8.7545L218.501 10.6099L218.482 10.6765Z" fill="black"/>
<path d="M213.104 7.33766C213.037 7.20989 212.94 7.1099 212.812 7.04046C212.687 6.96825 212.551 6.94047 212.407 6.95158C212.262 6.96269 212.132 7.01269 212.018 7.10157C211.904 7.19045 211.824 7.30433 211.776 7.44043L210.49 11.2484C210.415 11.4706 210.443 11.6817 210.571 11.8789L212.735 15.1869C212.876 15.4063 213.079 15.5147 213.34 15.5174C213.376 15.5147 213.412 15.5147 213.448 15.5091C213.59 15.4869 213.712 15.4286 213.821 15.3369C213.926 15.2425 213.998 15.1286 214.037 14.9925C214.323 13.9981 214.637 12.926 214.951 11.8456L215.054 11.4928C215.109 11.3067 215.09 11.1262 215.001 10.954L213.104 7.33766ZM213.557 11.44C213.396 11.99 213.237 12.5372 213.082 13.0732L211.976 11.3817L212.607 9.51245L213.579 11.3678L213.557 11.44Z" fill="black"/>
<path d="M227.869 5.2322C227.803 5.10443 227.705 5.00444 227.578 4.93223C227.453 4.86279 227.317 4.83501 227.172 4.84612C227.028 4.85723 226.897 4.90723 226.783 4.99611C226.667 5.08499 226.589 5.19887 226.542 5.33497L225.253 9.14294C225.178 9.36514 225.206 9.57623 225.333 9.77343L227.497 13.0815C227.639 13.3009 227.841 13.412 228.103 13.412C228.139 13.412 228.175 13.4092 228.211 13.4036C228.353 13.3814 228.475 13.3259 228.583 13.2314C228.689 13.137 228.761 13.0231 228.8 12.887C229.102 11.8343 229.436 10.6928 229.769 9.55123L229.816 9.38736C229.872 9.20126 229.852 9.02073 229.764 8.84852L227.869 5.2322ZM227.844 10.9678L226.739 9.27348L227.369 7.40699L228.341 9.26237C228.175 9.83454 228.008 10.4067 227.844 10.9678Z" fill="black"/>
<path d="M222.948 5.98596C222.881 5.85819 222.784 5.7582 222.656 5.68877C222.531 5.61933 222.395 5.58877 222.251 5.59988C222.106 5.61099 221.976 5.66099 221.862 5.75265C221.748 5.84153 221.667 5.95263 221.62 6.0915L220.334 9.89948C220.256 10.1217 220.284 10.33 220.412 10.5272L222.575 13.838C222.717 14.0574 222.92 14.1657 223.184 14.1657C223.22 14.1657 223.256 14.163 223.292 14.1574C223.431 14.138 223.556 14.0796 223.661 13.988C223.77 13.8935 223.842 13.7769 223.881 13.6408C224.178 12.6103 224.5 11.4993 224.828 10.38L224.897 10.1411C224.953 9.95503 224.934 9.77726 224.845 9.60228L222.948 5.98596ZM222.925 11.7215L221.82 10.03L222.45 8.16075L223.423 10.0161C223.253 10.5911 223.087 11.1632 222.925 11.7215Z" fill="black"/>
<path d="M238.168 4.47424C238.102 4.34648 238.004 4.24648 237.877 4.17705C237.749 4.10761 237.613 4.07706 237.468 4.08817C237.324 4.09928 237.196 4.14927 237.08 4.23815C236.966 4.32981 236.885 4.44091 236.838 4.57979L235.552 8.38776C235.477 8.60996 235.505 8.81827 235.632 9.01548L237.796 12.3263C237.938 12.5429 238.141 12.654 238.402 12.654C238.438 12.654 238.474 12.6512 238.51 12.6457C238.652 12.6235 238.774 12.5679 238.879 12.4735C238.988 12.379 239.06 12.2652 239.099 12.1291C239.41 11.0486 239.752 9.87373 240.096 8.69884L240.115 8.6294C240.171 8.44331 240.151 8.26277 240.063 8.09056L238.168 4.47424ZM238.143 10.2098L237.038 8.5183L237.671 6.64903L238.641 8.50441C238.474 9.07936 238.307 9.64875 238.143 10.2098Z" fill="black"/>
<path d="M233.246 5.2322C233.18 5.10443 233.083 5.00444 232.955 4.93223C232.827 4.86279 232.691 4.83501 232.547 4.84612C232.402 4.85723 232.274 4.90723 232.158 4.99611C232.044 5.08499 231.963 5.19887 231.916 5.33497L230.63 9.14294C230.555 9.36514 230.583 9.57623 230.711 9.77343L232.871 13.0815C233.016 13.3009 233.219 13.412 233.48 13.412C233.516 13.412 233.552 13.4092 233.588 13.4036C233.73 13.3814 233.852 13.3259 233.96 13.2314C234.066 13.137 234.138 13.0231 234.177 12.887C234.469 11.8705 234.788 10.7761 235.11 9.67344L235.194 9.38736C235.249 9.20126 235.23 9.02073 235.141 8.84852L233.246 5.2322ZM233.719 9.26792C233.552 9.84009 233.385 10.4095 233.221 10.965L232.116 9.27348L232.749 7.40699L233.719 9.26237V9.26792Z" fill="black"/>
</svg>
