<svg width="256" height="171" viewBox="0 0 256 171" fill="none" xmlns="http://www.w3.org/2000/svg">
<mask id="mask0_206_784" style="mask-type:luminance" maskUnits="userSpaceOnUse" x="0" y="0" width="256" height="171">
<path d="M0.312012 0H255.206V170.542H0.312012V0Z" fill="white"/>
</mask>
<g mask="url(#mask0_206_784)">
<path d="M247.859 151.849C245.931 154.896 243.139 155.098 239.99 152.966C238.72 154.336 237.198 154.996 235.319 154.439C233.544 153.931 232.476 152.66 231.665 150.984C231.359 151.595 231.157 152.103 230.903 152.609C230.04 154.185 228.67 154.844 226.891 154.439C225.115 154.031 223.54 153.271 222.475 151.695C222.372 151.544 222.069 151.441 221.866 151.492C221.256 151.595 220.647 151.798 219.988 151.949C218.82 152.306 217.804 152.001 217.041 151.036C215.825 149.514 215.571 147.687 215.874 145.908C216.536 142.254 216.179 138.699 215.012 135.247C213.895 131.947 213.438 128.547 213.133 125.092C212.93 122.859 212.219 120.727 211.357 118.645C210.949 117.732 210.238 117.072 209.276 116.767C208.157 116.413 206.989 116.056 205.821 115.853C202.421 115.142 199.731 113.264 197.345 110.828C197.191 110.674 197.039 110.471 196.836 110.32C196.431 111.234 196.074 112.147 195.617 113.01C194.855 114.483 193.687 115.496 192.217 116.259C189.882 117.478 187.495 118.189 184.805 118.086C183.229 118.037 181.656 118.34 180.135 118.594C177.34 119.051 174.547 119.559 171.806 120.119C171.096 120.27 170.385 120.575 169.725 120.929C167.695 122.148 165.665 123.468 163.33 123.976C162.413 124.178 161.451 124.333 160.538 124.23C159.013 124.13 158.405 123.773 157.035 122.554C156.88 122.808 156.729 123.062 156.626 123.316C155.307 126.057 153.58 128.595 151.856 131.133C149.469 134.636 147.336 138.345 146.068 142.405C145.103 145.602 144.695 148.954 144.544 152.357C144.544 152.863 144.695 153.066 145.152 153.22C149.163 154.439 151.196 157.28 151.856 161.239C152.11 162.915 151.499 164.389 150.28 165.608C149.317 166.621 148.15 166.927 146.728 166.47C146.22 167.638 145.306 168.297 144.238 168.805C142.614 169.568 141.041 169.568 139.519 168.754C139.062 168.5 138.757 168.551 138.351 168.957C137.184 170.278 135.659 170.632 133.983 170.378C131.242 169.922 128.502 169.365 125.658 168.805C124.49 170.327 123.068 170.787 121.09 170.076C119.717 169.568 118.346 169.059 117.027 168.4C113.83 166.775 112.61 163.88 112.408 160.48C112.356 159.412 112.508 158.296 112.508 157.18C112.508 156.977 112.508 156.671 112.408 156.569C111.086 155.301 110.581 153.625 110.326 151.898C109.667 147.838 109.767 143.827 110.986 139.918C111.748 137.531 112.508 135.196 113.373 132.861C113.881 131.49 114.589 130.22 115.251 128.849C115.049 128.647 114.843 128.698 114.54 128.952C114.084 129.357 113.575 129.814 113.016 130.017C110.124 131.033 107.28 132.098 104.334 132.912C103.015 133.266 101.542 133.217 100.12 133.166C98.1412 133.063 96.3654 132.301 94.9921 130.882C93.9786 129.814 92.7595 129.663 91.489 129.866C89.6618 130.171 87.8346 130.628 86.0074 131.085C82.0988 131.947 78.1389 132.455 74.1276 131.439C72.6544 131.033 71.284 130.474 70.0164 129.612C69.8108 129.509 69.5082 129.357 69.354 129.409C66.105 130.577 62.8046 130.374 59.507 129.56C57.1202 128.952 54.7848 128.138 52.6521 126.617C52.1953 127.884 51.7385 129.103 51.9412 130.374C52.2953 132.555 52.8034 134.688 53.2117 136.82C53.2603 137.126 53.363 137.429 53.363 137.785C53.2603 141.44 53.9712 145.146 52.8034 148.752C51.1789 153.574 47.83 156.671 43.0564 158.296C41.3805 158.856 39.9102 158.399 38.7425 157.077C36.8125 159.058 33.9175 159.261 31.6848 157.585C31.3794 157.331 31.1767 157.331 30.8712 157.534C28.5871 158.701 25.9976 158.399 24.119 156.723C23.9677 156.569 23.6108 156.52 23.4081 156.569C19.3483 157.891 15.8937 155.655 15.3884 151.392C15.1857 149.514 15.4369 147.635 16.1992 145.908C16.302 145.705 16.4019 145.4 16.302 145.197C15.4369 143.219 15.5911 141.137 16.0479 139.156C16.5047 136.972 17.1128 134.842 17.8237 132.761C18.3833 130.982 18.586 129.206 18.3319 127.427C17.5211 120.524 19.1941 114.026 21.7322 107.679C21.8864 107.374 21.9863 107.02 22.0891 106.663C21.3782 106.663 20.7701 106.766 20.2105 106.663C18.6888 106.409 17.5696 105.495 16.8102 104.228C16.1992 103.314 15.5397 102.654 14.5233 102.198C13.2557 101.587 12.1394 100.673 11.2229 99.5567C9.59839 97.6781 7.92535 95.8994 6.40077 93.9723C5.63848 93.0073 5.13314 91.8909 4.52216 90.8232C4.01397 89.9096 3.50863 88.996 2.94904 88.0823C1.88412 86.3065 0.967657 84.4765 0.716415 82.3951C0.410928 79.9084 1.07044 77.6758 2.79773 75.8457C3.71133 74.9321 4.72487 74.0699 5.79265 73.359C9.59839 70.8209 13.4584 68.3827 17.2156 65.9474C16.8587 64.831 16.3534 63.6633 16.0479 62.4956C15.691 60.8711 15.8937 59.2952 16.8102 57.8733C17.8751 56.0975 18.9914 54.3702 20.1591 52.6458C22.0891 49.7023 24.0676 46.8073 26.1004 43.9123C27.7763 41.477 29.6035 39.1415 32.0389 37.3143C33.9689 35.8925 35.9988 34.7248 38.3342 34.1139C38.9452 33.9625 39.0965 33.657 39.1479 33.1003C39.1479 32.2352 39.1993 31.373 39.3506 30.5108C40.0101 27.4645 41.7859 25.1291 44.1727 23.2505C44.8836 22.6909 45.6459 22.1827 46.4082 21.6774C48.6922 20.2556 50.9762 18.8852 53.2603 17.5119C55.4957 16.1929 57.8311 15.2279 60.4206 14.9252C60.6747 14.8738 60.9774 14.8225 61.2315 14.8739C62.502 15.1279 63.3642 14.517 64.2778 13.6548C66.9187 11.268 69.965 9.59206 73.214 8.12172C81.4879 4.26173 90.0701 2.08049 98.9035 0.961324C101.542 0.607301 104.234 0.504521 106.875 0.555911C108.245 0.555911 109.667 1.06411 110.935 1.5723C112.051 2.0291 113.016 2.83993 114.132 3.55083C114.997 3.04264 116.062 2.43452 117.13 1.87493C120.073 0.301814 123.271 -0.000818473 126.52 0.250424C132.664 0.758618 138.503 2.33459 144.238 4.56722C146.625 5.48083 148.861 6.75131 150.891 8.37582C153.175 10.1516 154.851 12.3357 155.256 15.3307C155.307 15.6847 155.307 16.0416 155.359 16.3956C159.724 15.5334 163.378 17.1065 166.73 19.6446C168.203 20.7638 169.471 22.1342 170.893 23.3019C172.263 24.4696 173.736 25.5859 175.158 26.7536C176.934 28.124 178.713 29.443 180.437 30.8648C181.759 31.9326 182.519 33.3544 182.824 35.1302C184.703 35.233 186.379 36.0952 188.103 36.9061C190.084 37.8197 192.166 38.3279 194.398 38.3793C195.871 38.4306 197.396 38.7333 198.866 39.0902C200.542 39.4956 201.913 40.5633 203.029 41.831C204.402 40.2579 205.773 38.7333 207.092 37.1602C208.311 35.6898 209.53 34.268 210.595 32.692C212.422 30.1025 214.809 28.5294 217.955 27.9727C220.139 27.6158 222.272 27.3103 224.405 26.8535C226.994 26.2968 229.584 25.6373 232.222 25.0263C235.725 24.2669 239.279 23.8586 242.782 24.9749C245.32 25.7886 247.605 27.0591 249.483 28.8863C252.021 31.3216 253.189 34.4707 253.292 37.9225C253.394 41.3742 250.397 43.5583 247.961 43.8124C247.91 44.6746 247.91 45.5368 247.807 46.3505C247.505 49.2426 246.285 51.4781 243.596 52.7971C239.839 54.6757 236.082 56.6057 232.376 58.5842C229.378 60.1602 226.435 61.8847 223.491 63.5606C221.053 64.931 219.428 67.0637 217.955 69.3477C216.433 71.6831 215.063 74.0699 213.641 76.4053C213.387 76.8107 213.438 77.0648 213.792 77.3189C214.098 77.5216 214.403 77.8271 214.706 78.0298C217.855 80.0112 220.953 82.0411 224.099 83.9197C226.029 85.0874 227.856 86.4064 229.532 87.931C231.257 89.5041 233.087 90.9773 234.863 92.4477C237.147 94.4291 239.279 96.5104 241.158 98.8972C243.545 101.892 245.066 105.344 245.726 109.101C246.64 114.583 248.061 119.916 249.637 125.246C250.499 128.138 251.008 131.133 251.564 134.131C251.77 135.145 251.616 136.261 251.616 137.329C251.667 138.953 251.819 140.526 252.938 141.897C254.968 144.386 255.119 147.278 254.257 150.225C253.597 152.457 251.262 153.371 249.078 152.357C248.57 152.255 248.215 152.052 247.859 151.849ZM111.951 116.715C112.964 116.664 113.881 116.615 114.795 116.513C116.722 116.361 118.549 115.905 120.022 114.583C122.003 112.807 122.56 110.523 122.46 107.985C122.358 105.649 122.155 103.314 122.003 100.927C121.901 98.7944 122.612 96.9158 124.085 95.3941C125.05 94.3777 126.063 93.3613 127.028 92.3478C128.045 91.3314 128.196 90.1123 127.891 88.7932C127.791 88.3878 127.639 87.931 127.588 87.5228C127.434 86.5092 127.993 85.5956 128.856 85.2387C129.769 84.8847 130.683 85.2387 131.294 86.101C132.156 87.3714 133.526 87.8282 134.897 87.066C136.116 86.4064 137.232 85.5956 138.4 84.7819C138.705 84.5792 139.011 84.1738 139.162 83.8169C140.076 81.6842 141.7 80.3652 143.733 79.4002C145.001 78.7921 146.271 78.0812 147.539 77.3189C148.758 76.5566 148.809 76.3539 148.504 74.9835C148.452 74.8322 148.452 74.7294 148.452 74.5781C148.301 72.9022 149.52 71.9372 151.093 72.4454C151.804 72.6995 152.515 72.9536 153.226 73.1563C154.291 73.4618 155.256 73.4104 156.118 72.6481C157.237 71.6831 158.454 70.8209 159.47 69.756C160.689 68.4855 162.059 67.5205 163.684 66.9124C164.498 66.6069 165.308 66.3014 166.071 65.896C167.493 65.0851 167.644 64.7283 167.084 63.1551C166.833 62.3928 166.833 61.6819 167.441 61.0224C168.049 60.4143 168.76 60.3115 169.522 60.5656C170.385 60.8711 171.298 61.2251 172.061 61.6819C173.077 62.3415 174.042 62.2415 174.904 61.6306C175.666 61.0738 176.426 60.4629 176.934 59.7034C178.459 57.4165 180.54 55.8948 182.975 54.8784C183.686 54.5758 184.397 54.2703 185.108 53.9648C186.276 53.4566 187.495 52.9998 188.611 52.4431C189.679 51.9349 189.779 51.6294 189.727 50.4103C189.679 49.4482 189.576 48.4832 189.628 47.5696C189.727 46.5018 190.541 45.7909 191.506 45.8423C192.622 45.8937 193.587 46.8587 193.639 47.975C193.639 48.6859 193.639 49.4482 193.639 50.1591C193.639 50.6159 193.842 50.8186 194.35 50.7672C194.755 50.7158 195.109 50.7158 195.517 50.6644C195.82 50.6159 196.177 50.5131 196.328 50.259C197.647 48.6345 198.969 47.01 200.288 45.3341C200.391 45.1828 200.542 45.0315 200.645 44.8773C199.223 43.5583 197.496 42.9473 195.669 42.696C193.687 42.442 191.606 42.3392 189.83 41.3742C188.154 40.4606 186.53 39.3443 184.854 38.3279C184.143 37.8711 183.432 37.4143 182.621 37.1088C181.605 36.7547 180.489 36.5007 179.372 37.1088C179.17 37.2116 178.713 36.9061 178.407 36.8061C178.51 36.5007 178.559 36.1952 178.713 35.9411C178.813 35.7897 179.015 35.6898 179.321 35.4843C178.813 34.8248 178.356 34.1652 177.799 33.657C176.223 32.338 174.499 31.1703 172.923 29.8998C171.25 28.5808 169.625 27.2104 168.049 25.7886C166.933 24.8236 165.968 23.6559 164.903 22.6395C162.668 20.5582 160.081 19.0365 157.083 18.3256C156.118 18.1229 155.105 18.0201 154.191 18.731C153.531 19.2906 152.567 19.0365 152.158 18.2742C151.804 17.6147 151.499 16.8524 151.347 16.1415C150.942 13.8575 149.723 12.133 147.793 10.9139C146.017 9.79762 144.19 8.62992 142.208 7.86762C139.111 6.64853 135.862 5.63214 132.664 4.67C129.264 3.65361 125.809 2.94271 122.206 2.9941C120.633 2.9941 119.057 3.09403 117.738 4.00763C116.062 5.07541 114.386 6.24312 112.865 7.56214C110.275 9.79762 108.499 12.7925 106.315 15.382C105.807 15.9902 105.402 16.7525 105.045 17.4634C104.285 18.8852 104.285 18.8852 105.604 19.8987C107.38 21.2691 109.159 22.6909 110.986 24.0613C111.137 24.1641 111.391 24.2669 111.594 24.2155C114.692 23.4018 117.841 23.2505 121.038 22.9964C125.404 22.6395 129.721 22.7937 134.086 23.556C136.624 24.0128 135.913 24.3154 138.249 22.591C141.346 20.3555 144.695 18.8338 148.404 18.0715C148.961 17.9687 149.572 17.8688 150.18 17.9687C151.042 18.0715 151.55 18.6311 151.602 19.342C151.653 20.0015 151.245 20.5582 150.434 20.8637C149.723 21.1178 149.063 21.3205 148.352 21.4718C144.647 22.4368 141.295 24.0613 138.197 26.2454C138.3 26.2968 138.4 26.3967 138.554 26.4481C143.833 29.2917 146.625 34.0139 148.404 39.4956C148.555 39.9524 148.504 40.5633 148.352 41.0202C148.15 41.7311 147.59 41.9851 146.931 41.6283C146.371 41.3228 145.863 40.866 145.509 40.3606C144.492 38.7847 143.527 37.1602 142.665 35.5357C140.533 31.6271 137.486 28.5808 133.78 26.1426C133.578 25.9913 133.272 25.8914 133.018 25.84C130.988 25.6858 128.907 25.4346 126.877 25.4831C122.968 25.6373 119.108 26.3967 115.3 27.2618C113.727 27.6158 112.154 28.0212 110.581 28.4295C110.378 28.478 110.172 28.6836 110.072 28.8863C109.461 29.8998 108.75 30.8648 108.345 31.9811C106.721 36.3493 105.656 40.9174 105.199 45.5368C104.945 48.0264 105.045 50.5645 104.945 53.0512C104.893 53.7107 104.842 54.3702 104.588 54.9812C104.234 55.8948 103.372 56.0461 102.812 55.2353C102.455 54.7271 102.153 54.119 102.05 53.508C101.796 51.8321 101.542 50.1591 101.542 48.4832C101.39 42.6447 103.118 37.2116 105.553 31.9811C106.315 30.3081 107.483 28.8863 108.802 27.5644C107.634 26.2454 106.518 24.9749 105.453 23.7073C104.539 22.6395 103.674 21.5232 102.761 20.4583C102.661 20.3041 102.507 20.2042 102.355 20.1014C101.644 19.5961 100.882 19.0879 100.171 18.5797C98.2925 17.2606 96.2626 16.8524 94.0785 17.412C91.9972 17.9687 89.9159 18.5797 87.8346 19.2392C84.0774 20.4583 80.4743 22.0828 77.0198 24.0613C74.6843 25.3832 73.0113 27.159 71.9435 29.5972C71.7408 30.1025 71.4867 30.5622 71.284 31.019C68.2377 37.7711 65.5968 44.6746 63.2129 51.6808C62.856 52.7457 62.4506 53.8135 61.9424 54.8784C61.6883 55.438 61.2829 56.1489 60.5206 55.9462C59.7583 55.7435 59.7097 54.9298 59.7583 54.2703C59.8611 53.154 60.0638 51.9863 60.3693 50.9185C62.8046 41.8824 66.4105 33.3544 71.4353 25.3318C68.9486 23.6559 66.3591 21.9315 63.821 20.1528C63.6697 20.0529 63.5669 19.7988 63.467 19.6446C63.6697 19.5961 63.8724 19.4419 64.0751 19.4933C64.8374 19.6446 65.6482 19.8473 66.3591 20.1014C68.7459 21.015 70.8786 22.3883 72.6544 24.2669C72.8086 24.1641 72.9599 24.0613 73.1112 23.9614C76.9712 21.4233 80.777 18.9337 84.991 17.0066C87.6319 15.7875 90.3727 14.7711 93.1649 13.9089C96.3654 12.8925 99.2575 13.7575 101.593 16.1929C101.747 16.3442 101.95 16.4984 102.153 16.7011C102.455 15.1765 103.066 13.9089 104.08 12.8411C105.958 10.9139 107.888 9.03533 109.818 7.15672C110.072 6.90263 110.326 6.75131 110.629 6.49721C110.426 6.39443 110.326 6.29451 110.224 6.24312C108.396 5.27812 106.415 4.61861 104.334 4.76992C101.644 4.92124 98.9035 5.02402 96.2112 5.32951C88.7996 6.08895 81.5393 7.51075 74.6358 10.4571C70.8272 12.0816 67.1728 13.9089 64.786 17.5633C64.2778 18.3256 63.467 18.4284 62.5505 18.2228C61.7397 18.0715 60.8775 17.9687 60.0638 18.0715C58.2366 18.2742 56.5093 18.9851 54.9362 19.8473C52.5008 21.1692 50.114 22.5396 47.7272 23.91C47.219 24.2155 46.7108 24.5181 46.2055 24.8236C44.6809 25.84 43.616 27.2104 42.8537 28.8863C42.1942 30.3566 42.4483 31.8298 42.5482 33.4543C42.7509 33.2002 42.8537 33.0489 43.005 32.8976C44.4782 31.1189 45.9514 29.2917 47.4731 27.5644C48.1326 26.805 48.9463 26.194 49.7086 25.5345C49.8085 25.4346 50.0626 25.4831 50.2653 25.4346C50.2653 25.6373 50.2653 25.84 50.2139 25.9913C50.2139 26.0941 50.114 26.194 50.0112 26.2968C45.9999 31.7784 42.7509 37.7711 39.8588 44.0151C37.6747 48.7373 36.3043 53.7107 34.6798 58.6356C34.3229 59.652 33.8661 60.1602 33.1066 60.1602C32.3444 60.1602 31.6335 59.5492 31.4821 58.5842C31.3794 57.8733 31.3794 57.1139 31.5307 56.403C33.258 49.6994 36.0502 43.5069 39.9102 37.7711C40.0615 37.5656 40.1614 37.3629 40.367 37.0602C38.8424 37.1602 37.5234 37.4656 36.2015 37.9738C32.7498 39.3956 30.3144 41.9851 28.4358 45.1314C26.6086 48.2291 24.73 51.3268 22.8999 54.4216C21.835 56.2488 20.7187 58.0789 19.7537 59.9575C18.94 61.5306 19.1456 63.1551 19.551 64.831C20.3133 64.4742 21.0242 64.1687 21.7322 63.9174C22.1405 63.7633 22.6972 63.3578 23.0027 63.9174C23.3567 64.5256 22.6972 64.7283 22.3432 64.9824C20.4646 66.2015 18.5346 67.3178 16.7074 68.5882C13.5583 70.6696 10.5149 72.8508 7.41715 75.0349C6.60347 75.5945 5.79265 76.254 5.08175 76.9135C2.79773 78.9948 3.00043 81.8384 4.82765 84.1224C5.13314 84.071 5.48716 84.0196 5.79265 84.0196C6.40077 83.9711 7.01174 83.9711 7.61986 83.8683C9.70117 83.4115 11.7825 83.2602 13.8638 83.4629C16.9615 83.8169 19.6024 85.1388 22.189 86.7633C25.4409 88.8446 28.1303 91.5341 30.9226 94.1236C32.3444 95.494 33.9175 96.7131 35.4421 97.9836C35.9988 98.4404 36.5584 98.5403 37.0666 97.8808C37.2693 97.6267 37.5234 97.4754 37.826 97.2727C38.9937 96.5104 40.2128 96.8159 40.8238 98.0835C40.9751 98.3376 41.0265 98.6431 41.1778 98.8972C41.7888 100.47 42.5482 101.943 43.8187 103.06C46.4082 105.344 49.2518 107.325 52.4494 108.644C56.358 110.217 60.2665 111.691 64.1779 113.161C65.9537 113.823 66.5618 113.621 67.681 112.147C68.8972 110.523 70.4732 110.726 71.3354 112.553C71.8436 113.621 72.5031 114.634 73.1112 115.702C73.7222 116.715 74.6358 117.224 75.852 117.224C79.2552 117.224 82.607 117.172 86.0074 117.172C89.1536 117.124 92.2513 117.021 95.4004 117.021C98.7493 117.072 102.101 117.224 105.453 117.375C106.923 117.426 107.837 116.664 108.345 115.496C108.802 114.431 108.956 113.415 108.042 112.247C104.588 107.831 103.166 102.654 102.915 97.1185C102.709 91.7882 102.963 86.4578 103.98 81.2274C104.588 78.1811 105.35 75.1862 106.01 72.1399C106.061 71.8858 106.264 71.6831 106.367 71.429C106.466 71.429 106.518 71.4804 106.621 71.4804C106.621 71.6831 106.669 71.8858 106.669 72.0914C105.858 77.3189 105.147 82.5493 104.996 87.8796C104.893 91.9395 104.996 95.9508 105.91 99.9107C106.923 104.327 108.853 108.239 112.154 111.385C112.508 111.742 112.865 112.147 113.219 112.553C113.727 113.212 113.727 114.077 113.119 114.483C112.254 115.091 112.305 115.905 111.951 116.715ZM225.926 49.5481C225.775 48.94 225.521 48.4832 225.624 48.0749C225.724 47.4668 226.383 47.4154 226.891 47.3669C227.4 47.3155 227.959 47.3155 228.464 47.2641C228.921 47.1613 229.378 47.0614 229.735 46.8073C231.665 45.1828 234 44.3691 236.384 43.7096C238.009 43.2528 239.431 42.5933 240.701 41.4256C242.071 40.1065 243.799 39.8011 245.575 40.512C246.083 40.7147 246.591 41.0202 247.148 41.2229C247.402 41.3228 247.807 41.3228 248.013 41.1715C249.18 40.4606 249.991 39.4442 249.94 37.9738C249.891 35.4843 249.28 33.1003 247.707 31.1189C245.931 28.9348 243.596 27.4131 240.804 26.805C237.806 26.1426 234.863 26.7022 231.968 27.6672C229.33 28.5294 226.74 29.443 224.048 30.054C221.764 30.6107 219.377 30.8134 217.041 31.1703C215.874 31.373 214.658 31.6271 213.792 32.438C212.728 33.403 211.66 34.4193 210.849 35.587C208.919 38.3279 207.195 41.2229 205.364 44.0151C204.451 45.3855 203.589 46.7559 202.524 48.0749C198.107 53.5594 193.385 58.8383 190.136 65.1851C190.084 65.2878 190.033 65.3878 189.933 65.4905C189.068 66.4042 188.357 67.4691 187.392 68.2314C184.854 70.1614 182.165 71.7859 179.17 73.005C176.834 73.9671 174.447 74.4268 171.961 73.9186C171.707 73.8672 171.504 73.6131 171.298 73.4618C171.452 73.2077 171.604 72.9022 171.806 72.7509C172.112 72.5482 172.517 72.4968 172.923 72.4454C176.834 71.7859 179.881 69.5019 182.824 67.0637C182.519 67.1151 182.264 67.1664 181.962 67.2664C179.424 68.0801 176.883 68.5882 174.193 68.4341C173.939 68.4341 173.634 68.3827 173.38 68.2828C173.177 68.18 173.026 67.9259 172.974 67.7232C172.974 67.5719 173.177 67.3178 173.331 67.215C173.685 67.0637 174.091 66.9637 174.447 66.861C178.559 65.796 182.519 64.1687 185.616 61.2251C187.443 59.4979 189.017 57.4679 190.692 55.5893C190.795 55.438 190.895 55.2867 191.049 55.1325C189.425 55.7435 187.8 56.3002 186.224 56.9597C185.008 57.4679 183.789 57.9761 182.673 58.5842C181.91 59.0411 181.251 59.7034 180.591 60.3115C179.929 60.971 179.472 61.7333 178.864 62.3929C177.594 63.7633 176.123 64.7283 174.245 65.0337C173.077 65.2365 172.009 65.0851 170.893 64.5256C170.69 66.2528 169.777 67.4205 168.458 68.2314C167.493 68.8395 166.425 69.3477 165.308 69.756C163.887 70.3127 162.668 71.075 161.705 72.2427C160.486 73.7644 158.913 74.8836 157.286 75.8971C156.17 76.608 154.95 76.8621 153.631 76.6594C153.226 76.608 152.821 76.5566 152.464 76.5081C151.856 78.538 151.245 79.3003 149.469 80.3138C148.758 80.7221 148.047 81.0761 147.336 81.3816C146.22 81.8898 145.103 82.3466 144.036 82.8519C143.071 83.2602 142.36 83.9711 141.803 84.8847C141.346 85.6442 140.787 86.3551 140.076 86.9146C138.808 87.8796 137.486 88.6905 136.116 89.5041C134.897 90.215 133.578 90.3664 132.207 90.0637C132.105 90.0637 132.005 90.0637 131.85 90.0637C131.699 92.4477 130.226 93.8695 128.35 94.9858C127.537 95.4426 126.826 96.0022 126.063 96.5104C124.847 97.3212 124.49 98.4404 124.744 99.8108C125.352 102.754 126.015 105.649 126.674 108.541C126.928 107.882 127.182 107.171 127.434 106.46C128.807 102.449 130.583 98.5917 132.41 94.7317C132.513 94.5804 132.716 94.4805 132.867 94.3263C132.97 94.529 133.172 94.7317 133.121 94.9373C133.07 95.5454 132.918 96.105 132.815 96.6617C132.005 100.013 131.142 103.414 130.38 106.766C129.212 112.096 127.282 117.072 123.931 121.438C123.171 122.454 122.512 123.519 121.901 124.587C120.784 126.617 119.465 128.547 117.992 130.374C117.23 131.339 116.519 132.507 116.114 133.674C115.351 135.855 114.843 138.139 114.235 140.375C113.067 144.792 113.17 149.157 114.084 153.625C114.235 154.285 114.338 154.944 114.438 155.655C114.54 156.62 114.489 157.688 114.692 158.601C115.251 161.239 116.419 163.575 118.957 164.897C120.225 165.556 121.495 166.319 122.763 167.029C122.917 167.129 123.12 167.181 123.323 167.232C123.628 166.116 123.374 165.199 122.612 164.337C122.306 163.983 121.849 163.678 121.595 163.321C121.393 163.018 121.19 162.51 121.344 162.307C121.495 162.053 122.052 161.748 122.358 161.85C122.917 162.002 123.525 162.307 123.931 162.713C125.05 163.678 125.809 164.948 125.963 166.521C126.166 166.521 126.369 166.573 126.572 166.573C129.058 166.521 131.548 166.47 134.035 166.418C134.186 166.418 134.34 166.418 134.491 166.367C135 166.319 135.202 166.116 135.051 165.556C134.745 164.286 134.237 163.169 133.172 162.307C132.716 161.902 132.461 161.394 132.664 160.783C132.867 160.175 133.375 159.869 134.035 159.821C134.391 159.769 134.745 159.821 135.051 159.92C136.675 160.377 137.74 161.494 138.351 162.967C138.857 164.237 139.162 165.556 139.619 166.927C140.687 167.129 141.854 167.029 142.919 166.164C143.527 165.708 143.782 165.151 143.527 164.44C143.225 163.575 142.817 162.764 142.463 161.95C142.26 161.494 141.954 161.037 141.903 160.58C141.854 160.123 142.006 159.515 142.311 159.261C142.614 159.007 143.225 158.904 143.682 159.007C144.087 159.11 144.544 159.464 144.849 159.769C146.117 161.037 146.828 162.561 147.031 164.286C147.031 164.488 147.082 164.643 147.185 165.048C147.59 164.694 147.896 164.488 148.047 164.186C148.555 163.372 148.707 162.51 148.352 161.648C147.896 160.58 147.336 159.515 146.677 158.499C145.914 157.331 144.595 156.926 143.325 156.469C142.157 156.063 140.941 155.809 139.822 155.401C134.186 153.22 128.704 153.22 123.271 156.012C123.12 156.063 122.917 156.012 122.714 156.012C122.714 155.809 122.663 155.606 122.763 155.452C122.917 155.198 123.12 154.944 123.374 154.844C124.593 154.133 125.761 153.271 127.08 152.814C130.023 151.747 133.121 151.187 136.27 151.441C136.421 151.441 136.624 151.441 136.878 151.441C136.727 151.29 136.675 151.238 136.624 151.238C133.121 149.717 129.518 149.26 125.861 150.682C125.658 150.782 125.404 150.682 125.15 150.682C125.304 150.479 125.352 150.122 125.555 150.071C126.774 149.514 127.942 148.803 129.264 148.497C133.224 147.584 137.029 148.092 140.687 149.817C140.889 149.919 141.144 150.019 141.398 150.173C141.446 149.919 141.498 149.768 141.549 149.562C142.36 145.451 143.527 141.491 145.56 137.837C147.387 134.434 149.115 130.982 150.891 127.582C151.145 127.073 151.399 126.565 151.602 126.006C153.175 122.097 154.748 118.189 156.272 114.28C158.659 108.187 158.048 102.298 155.105 96.5618C154.902 96.2049 154.545 95.8509 154.191 95.5968C153.175 94.9858 152.158 94.4805 151.093 93.9209C149.215 92.9559 147.236 92.6504 145.203 92.8046C142.514 93.0073 140.076 93.9209 137.689 95.1914C137.486 95.2913 137.184 95.2399 136.981 95.2913C137.029 95.0372 137.081 94.7317 137.184 94.529C137.284 94.3777 137.486 94.2264 137.64 94.1236C139.568 92.6504 141.7 91.5855 144.036 90.9259C148.909 89.5041 153.075 90.8746 156.781 94.1236C157.286 94.5804 157.643 95.14 157.643 95.8509C157.643 96.1535 157.897 96.4076 157.997 96.7131C158.048 96.7131 158.1 96.6617 158.151 96.6617C157.997 96.2049 157.897 95.6967 157.746 95.2399C156.372 91.4827 154.191 88.5392 150.282 87.066C150.077 86.966 149.823 86.9146 149.672 86.7633C149.52 86.6092 149.469 86.4064 149.366 86.2037C149.572 86.1524 149.723 86.001 149.926 86.001C151.45 86.1524 153.023 86.4064 154.394 87.1173C158.151 89.0987 160.538 92.245 161.805 96.2049C162.162 97.3212 162.162 98.5403 162.059 99.708C161.957 100.724 161.603 101.789 161.146 102.754C160.892 103.263 160.74 103.617 160.84 104.176C161.4 107.425 161.5 110.726 160.538 113.923C160.486 114.026 160.538 114.126 160.538 114.28C161.5 113.823 162.416 113.466 163.279 113.061C170.893 109.609 178.761 107.628 187.141 107.831C188.003 107.831 188.865 107.831 189.679 107.628C190.998 107.322 192.317 106.917 193.587 106.512C193.79 106.46 193.993 106.206 194.096 106.003C194.501 105.241 194.807 104.43 195.312 103.719C197.293 100.824 198.969 97.778 199.477 94.2264C199.526 94.0236 199.78 93.8181 199.934 93.6154C200.034 93.8695 200.288 94.1236 200.288 94.3263C200.237 95.6967 200.237 97.0671 199.934 98.389C199.577 99.9621 198.918 101.487 198.358 103.06C198.715 103.314 198.969 103.111 199.121 102.703C199.983 100.927 200.796 99.1513 201.659 97.3726C202.115 96.3562 202.524 95.3941 203.08 94.3777C203.537 93.564 204.197 93.2614 204.808 93.5155C205.364 93.7182 205.721 94.3777 205.519 95.2399C205.364 96.0536 205.11 96.8159 204.859 97.6267C204.554 98.5403 204.148 99.4539 203.791 100.419C204.351 99.9107 204.859 99.354 205.213 98.6916C206.838 96.0022 208.057 93.1586 208.768 90.1123C209.022 89.1473 209.122 88.1851 209.376 87.2201C209.427 87.0174 209.781 86.8633 209.987 86.6605C210.087 86.8633 210.289 87.1173 210.289 87.3201C210.543 91.0259 209.833 94.529 208.665 98.0321C207.143 102.654 204.148 105.698 199.375 106.917C198.766 107.071 198.258 107.576 197.647 107.933C197.853 108.136 197.901 108.187 198.004 108.239C198.207 108.39 198.358 108.49 198.564 108.644C201.507 110.928 205.062 111.639 208.613 112.045C211.203 112.35 213.792 112.35 216.433 112.35C218.971 112.35 221.458 111.945 223.591 110.42C223.948 110.166 224.302 109.609 224.759 110.117C225.167 110.523 224.759 110.98 224.505 111.334C224.202 111.742 223.845 112.199 223.44 112.453C222.375 113.112 221.256 113.72 220.139 114.329C219.936 114.431 219.734 114.534 219.377 114.685C222.375 115.091 225.064 114.94 227.451 113.061C227.654 112.91 227.908 112.704 228.162 112.656C228.313 112.604 228.516 112.656 228.67 112.755C228.77 112.807 228.77 113.061 228.719 113.161C228.67 113.315 228.567 113.518 228.464 113.621C227.094 115.396 225.418 116.767 223.185 117.326C220.647 117.934 218.109 117.832 215.571 117.629C215.114 117.58 214.658 117.529 214.149 117.478C214.249 117.832 214.301 118.086 214.352 118.34C214.809 120.218 215.317 122.046 215.62 123.924C216.128 127.125 216.89 130.22 218.515 133.063C219.277 134.434 219.785 135.958 220.191 137.48C220.901 140.375 220.85 143.267 219.48 146.059C219.023 146.976 219.023 147.989 219.328 148.954C219.936 148.649 220.496 148.346 221.001 148.041C221.207 147.889 221.41 147.687 221.458 147.433C221.866 146.162 222.22 144.843 222.677 143.573C222.729 143.37 223.083 143.267 223.237 143.116C223.337 143.318 223.542 143.521 223.591 143.775C223.694 144.335 223.694 144.892 223.694 145.4C223.845 147.938 224.913 149.157 227.348 149.919C227.805 150.071 228.008 149.971 228.213 149.562C228.77 148.649 229.227 147.635 230.343 147.127C230.192 146.67 229.989 146.313 229.886 145.908C229.735 145.451 229.632 144.994 229.584 144.538C229.584 144.335 229.735 143.978 229.886 143.929C230.089 143.878 230.394 143.978 230.597 144.081C230.7 144.132 230.8 144.283 230.851 144.386C231.968 145.808 233.087 147.278 234.203 148.7C234.608 149.208 235.168 149.717 235.725 150.071C236.436 150.527 236.944 150.325 237.198 149.514C237.401 148.852 237.503 148.092 237.401 147.433C237.301 146.619 236.995 145.857 236.741 145.046C236.59 144.386 236.384 143.775 236.284 143.116C236.182 142.556 236.436 142.051 236.944 141.745C237.503 141.44 238.012 141.594 238.468 141.897C238.62 141.999 238.771 142.151 238.925 142.305C240.904 144.689 241.766 147.33 241.007 150.376C240.955 150.579 240.904 150.833 240.852 151.036C241.007 151.087 241.158 151.138 241.261 151.138C241.717 151.187 242.174 151.29 242.631 151.29C243.596 151.29 244.153 150.984 244.458 150.019C244.61 149.462 244.712 148.852 244.661 148.295C244.458 147.178 244.101 146.059 243.847 144.994C243.747 144.486 243.596 144.029 243.545 143.521C243.493 142.964 243.696 142.456 244.204 142.099C244.764 141.797 245.32 141.848 245.829 142.202C246.183 142.508 246.591 142.81 246.794 143.219C247.25 144.029 247.707 144.892 247.961 145.757C248.267 146.924 248.418 148.143 248.621 149.411C249.129 149.311 249.94 149.514 250.143 148.7C250.499 146.976 250.854 145.146 249.789 143.521C248.672 141.897 248.013 140.121 247.759 138.191C247.707 137.785 247.605 137.38 247.505 136.923C247.099 137.023 246.794 137.075 246.488 137.126C244.458 137.429 242.68 136.769 241.007 135.804C236.384 133.266 231.713 134.231 226.994 135.347C226.74 135.399 226.486 135.347 226.232 135.299C226.383 135.045 226.486 134.688 226.689 134.588C227.451 134.18 228.262 133.877 229.075 133.571C232.273 132.352 235.522 131.641 238.974 131.998C239.787 132.098 240.55 132.301 241.512 132.507C238.468 130.22 235.217 129.206 231.614 129.612C230.394 129.763 229.227 130.068 228.059 130.322C227.856 130.374 227.654 130.22 227.451 130.171C227.502 129.966 227.502 129.663 227.654 129.509C227.959 129.255 228.313 129.103 228.67 128.952C233.187 126.971 237.655 127.173 242.02 129.255C243.036 129.714 244.053 130.22 245.066 130.628C245.523 130.831 246.031 130.882 246.642 131.033C246.437 129.814 246.285 128.798 246.031 127.784C244.661 121.894 243.442 115.953 242.834 109.912C242.428 105.903 240.65 102.5 237.806 99.6566C235.573 97.424 233.087 95.5454 230.546 93.7182C228.973 92.6018 227.451 91.3314 225.926 90.1637C224.607 89.1473 223.337 88.1851 222.018 87.1687C220.088 85.6442 218.109 84.1738 216.231 82.5978C214.706 81.2788 213.387 79.8056 211.965 78.3353C211.409 79.1975 210.698 80.1111 210.138 81.0761C207.346 85.5442 203.843 89.2501 199.223 91.8909C195.061 94.2264 190.947 96.7131 186.176 97.8294C186.073 97.8294 185.973 97.9322 185.87 97.9836C186.176 99.354 185.414 100.216 184.6 101.078C180.083 105.801 172.366 106.714 166.833 103.211C166.425 102.957 165.765 102.754 166.019 102.146C166.273 101.435 166.933 101.841 167.39 101.943C169.471 102.5 171.604 102.552 173.736 102.4C175.412 102.298 176.986 101.789 178.459 100.876C178.661 100.776 178.813 100.622 179.015 100.47C178.864 100.368 178.761 100.419 178.713 100.419C175.766 100.927 172.874 100.876 170.131 99.6081C168.963 99.0999 167.949 98.3376 166.882 97.6267C166.679 97.4754 166.579 97.0186 166.679 96.8159C166.782 96.6103 167.187 96.5104 167.493 96.5104C167.747 96.5104 168.001 96.6103 168.303 96.7131C170.336 97.3726 172.417 97.6781 174.499 97.3212C177.645 96.7645 180.743 96.105 183.889 95.4426C186.53 94.8859 189.068 94.175 191.455 92.9045C192.725 92.245 194.044 91.6368 195.263 90.8746C199.629 88.2851 203.537 85.2387 206.329 80.7706C209.022 76.4053 212.017 72.1399 215.214 68.1286C217.855 64.831 220.647 61.7847 224.405 59.752C226.486 58.6356 228.365 57.2138 230.394 56.0461C234.152 53.8135 237.96 51.6294 241.817 49.4967C243.596 48.5317 244.764 47.1613 245.372 45.2827C245.626 44.5233 245.777 43.761 245.98 43.0501C246.083 42.6447 245.931 42.442 245.626 42.2364C244.256 41.3742 243.088 41.4256 241.92 42.5933C240.752 43.761 239.382 44.5233 237.806 44.8773C237.349 44.9801 236.892 45.08 236.436 45.2342C234.557 45.7395 232.781 46.4504 231.359 47.8722C230.903 48.329 230.243 48.5831 229.684 48.94C229.532 49.0399 229.378 49.1427 229.278 49.2426C228.516 50.7158 227.297 51.3753 225.672 51.1726C225.37 51.1212 225.013 51.1726 224.659 51.224C223.237 51.4781 222.272 52.3403 221.256 53.3053C220.088 54.4216 218.769 55.3352 217.196 55.792C214.606 56.5543 212.168 55.8434 210.646 53.6593C208.462 50.5131 207.446 47.0614 208.362 43.2014C208.462 42.6932 208.613 42.2364 208.768 41.7796C208.819 41.6283 209.073 41.5255 209.224 41.4256C209.276 41.5769 209.427 41.7796 209.427 41.9338C209.427 42.442 209.376 42.9473 209.376 43.4555C209.173 46.7045 210.492 49.3454 212.525 51.7322C213.49 52.8485 214.706 53.1026 216.128 52.7971C216.485 52.6972 216.839 52.6458 217.196 52.4916C218.463 51.8835 219.682 51.2754 220.953 50.6644C222.169 50.0563 223.337 49.4967 224.759 49.3968C225.115 49.8536 225.624 49.5995 225.926 49.5481ZM22.8514 153.422C23.0027 150.427 23.7136 147.687 25.2354 145.197C25.4409 145.503 25.4894 145.757 25.5408 146.059C25.8463 148.192 25.9976 150.325 26.4031 152.457C26.7599 154.487 28.079 155.25 30.2117 154.741C30.1603 152.56 30.0603 150.376 30.0089 148.192C30.0089 147.687 30.0089 147.127 30.1603 146.619C30.263 146.313 30.6685 145.959 30.9739 145.908C31.2794 145.908 31.6848 146.213 31.8362 146.519C32.0389 146.822 32.0903 147.227 32.0903 147.635C32.193 149.717 32.293 151.798 32.3444 153.879C32.3444 154.641 32.8012 154.944 33.3607 154.996C34.1716 155.098 35.0338 155.352 35.7447 154.641C35.8475 154.539 35.8989 154.336 35.8989 154.185C36.0502 153.525 36.2529 152.863 36.3043 152.152C36.5584 150.173 36.7611 148.143 36.9638 146.162C37.0666 145.3 37.3207 144.486 38.2857 144.184C38.437 144.132 38.5883 143.929 38.7425 143.775C39.9587 142.559 41.4319 141.745 43.1078 141.391C43.7673 141.237 44.4268 141.34 44.935 141.897C45.0863 142.051 45.1891 142.305 45.1377 142.508C45.0863 142.659 44.8322 142.762 44.6295 142.862C44.1727 143.064 43.616 143.167 43.2077 143.473C41.9915 144.283 41.0265 145.351 40.3156 146.619C40.0615 147.076 40.1129 147.635 40.0615 148.192C40.1129 148.192 40.2128 148.192 40.2642 148.243C40.3156 148.143 40.367 148.041 40.4155 147.938C41.3805 146.062 43.0564 145.248 45.0378 145.146C45.4946 145.097 46.1027 145.248 46.4567 145.503C46.7622 145.705 47.0163 146.265 46.9649 146.619C46.9164 146.924 46.4082 147.178 46.0513 147.381C45.8486 147.481 45.4946 147.381 45.2405 147.433C44.5296 147.532 43.7673 147.532 43.1078 147.787C42.5996 147.989 41.9915 148.446 41.7888 148.903C40.9751 150.63 40.8723 152.509 41.2806 154.387C41.4319 155.098 41.7374 155.352 42.4483 155.098C44.2755 154.487 45.9 153.625 47.1676 152.103C48.8949 150.071 49.503 147.687 49.6572 145.146C49.7571 143.421 49.6058 141.643 50.5194 140.172C49.8085 139.513 49.149 138.953 48.5894 138.345C47.83 137.531 46.9649 136.872 45.9 136.669C44.6295 136.415 43.3619 136.212 42.04 136.161C39.9102 136.11 37.9802 136.82 35.9988 137.583C35.7447 137.683 35.4421 137.583 35.188 137.583C35.2879 137.329 35.3393 136.972 35.542 136.872C38.437 134.688 41.686 133.623 45.3404 133.723C47.219 133.774 48.9463 134.334 50.6222 135.501C50.5194 135.096 50.468 134.89 50.4195 134.636C50.0626 133.571 49.7571 132.507 49.4031 131.439C48.8435 129.814 48.6408 128.19 48.8949 126.514C49.2004 124.687 49.6572 122.911 50.114 121.084C50.6707 118.645 51.0276 116.207 50.5708 113.772C50.3681 112.656 49.8085 111.79 48.7436 111.182C46.2055 109.812 44.0214 108.033 41.8887 106.055C40.5697 104.836 39.5533 103.365 38.8938 101.689C38.791 101.487 38.6911 101.281 38.5883 101.03C37.0152 102.4 35.3907 102.198 33.7662 101.333C33.258 101.078 32.7498 100.776 32.3444 100.419C30.6685 98.9971 29.044 97.5753 27.4194 96.0536C25.6436 94.3777 23.9677 92.6018 22.2404 90.8746C22.0891 90.7232 21.9378 90.6205 21.6837 90.4691C21.7322 90.9259 21.7322 91.28 21.7836 91.5855C22.1405 94.1236 23.0027 96.5104 24.0191 98.7944C24.7785 100.47 25.3895 102.298 26.049 104.025C26.1518 104.279 26.3545 104.533 26.6086 104.633C29.6549 106.409 33.0039 106.817 36.4556 106.614C36.9124 106.563 37.3207 106.512 37.7775 106.563C37.9802 106.563 38.1829 106.766 38.3856 106.917C38.2343 107.12 38.1315 107.374 37.9288 107.528C37.7775 107.628 37.5234 107.679 37.3692 107.731C35.6448 107.933 33.9689 108.239 32.2416 108.39C31.0739 108.493 29.8576 108.287 28.6385 108.239C29.6549 108.696 30.6685 109.101 31.7362 109.407C32.5471 109.661 33.4607 109.709 34.2744 109.912C34.5284 109.963 34.7312 110.32 34.9339 110.523C34.6798 110.726 34.4257 110.98 34.1716 111.182C34.1202 111.234 34.0203 111.182 33.9689 111.234C31.1767 111.536 28.4872 111.08 25.8977 110.166C24.5244 109.709 24.4759 109.661 23.8164 110.98C21.2754 115.802 19.8051 120.829 21.0727 126.414C21.5809 128.547 21.7836 130.676 21.2754 132.861C20.8186 134.842 20.4132 136.872 20.0078 138.902C19.8051 140.069 19.6509 141.237 19.4996 142.608C19.7537 142.456 19.8565 142.405 19.905 142.353C21.7322 140.578 23.9677 139.764 26.4031 139.764C29.298 139.764 32.193 139.97 35.0852 140.121C36.4071 140.172 37.6233 140.069 38.7425 139.307C40.2128 138.345 41.8373 137.734 43.5646 137.531C45.4946 137.329 47.219 137.888 48.6408 139.207C49.0976 139.613 49.3517 140.172 48.9977 140.729C48.6408 141.289 48.0841 141.237 47.5245 141.086C47.0163 140.932 46.4567 140.78 45.9514 140.578C44.0728 139.867 42.1942 139.97 40.2642 140.375C39.8074 140.475 39.402 140.578 39.2992 141.137C39.2478 141.391 38.8938 141.643 38.6911 141.797C37.4206 142.71 36.0502 143.167 34.4771 143.064C31.7848 142.862 29.044 142.659 26.3545 142.559C24.2218 142.456 22.189 142.71 20.4646 144.081C20.1591 144.335 19.8051 144.689 19.7023 145.097C18.9914 147.532 19.0428 149.971 20.2619 152.255C20.7701 153.168 21.7322 153.422 22.8514 153.422ZM121.801 117.629C121.09 117.883 120.379 118.189 119.617 118.34C118.5 118.645 117.433 118.899 116.316 119.154C114.54 119.508 112.762 119.662 110.986 119.102C110.581 118.951 110.275 119.051 109.97 119.356C108.853 120.421 107.534 121.132 105.958 121.183C104.488 121.235 103.015 121.235 101.593 121.235C97.633 121.183 93.6731 121.084 89.7646 121.032C85.9046 120.981 81.9961 120.929 78.1389 120.778C74.9898 120.675 72.3004 119.662 70.4218 116.918C70.1163 116.461 69.7109 116.056 69.354 115.599C67.1214 117.072 65.9023 117.375 63.8724 116.818C63.1615 116.615 62.4506 116.413 61.7397 116.107C59.0988 115.142 56.4607 114.126 53.8712 113.161C53.6685 113.112 53.463 113.061 53.2117 112.958C54.3794 116.159 54.4793 119.356 53.9712 122.605C53.7171 124.027 53.7171 124.078 55.0875 124.635C57.8825 125.854 60.8775 126.311 63.9238 126.311C64.786 126.311 65.6482 126.16 66.716 126.006C66.3591 125.6 66.1564 125.295 65.9023 125.043C64.6832 123.57 63.6697 121.997 63.0587 120.167C62.9074 119.71 62.6019 119.154 63.2129 118.797C63.821 118.494 64.1265 119.051 64.3806 119.459C66.2078 122.046 68.5946 124.078 71.2326 125.754C72.3004 126.414 73.568 127.022 74.7871 127.173C76.9198 127.479 79.0525 127.53 81.1852 127.479C84.3829 127.427 87.6319 127.173 90.8295 127.022C90.9837 127.022 91.135 126.971 91.3891 126.971C90.9837 126.514 90.6268 126.108 90.2728 125.703C89.7132 124.941 89.1051 124.23 88.5969 123.419C88.4456 123.213 88.4941 122.708 88.6483 122.503C88.7482 122.351 89.205 122.351 89.5105 122.454C89.7646 122.503 90.0187 122.708 90.2728 122.911C92.0486 124.127 93.8758 125.346 95.6031 126.668C97.8871 128.444 100.425 128.901 103.166 128.392C105.958 127.884 108.651 127.073 111.391 126.414C111.546 126.362 111.697 126.26 111.9 126.16C111.645 125.906 111.443 125.703 111.24 125.449C110.529 124.535 109.818 123.67 109.159 122.757C109.005 122.554 109.159 122.2 109.159 121.894C109.461 121.894 109.767 121.794 110.021 121.946C110.426 122.097 110.732 122.403 111.086 122.657C113.067 123.924 114.997 125.195 117.027 126.514C118.5 123.519 119.717 120.373 121.801 117.629ZM6.24945 85.7469C6.90896 87.2201 7.61986 88.4364 8.07666 89.7582C8.63625 91.3314 9.29576 92.8046 10.3093 94.1236C11.3257 95.3427 12.3421 96.5618 13.407 97.778C14.1693 98.6431 15.1343 99.3026 16.2506 99.6081C17.3669 99.9107 18.2805 100.522 18.94 101.487C19.1941 101.841 19.4996 102.195 19.8565 102.5C20.2619 102.906 20.7701 103.16 21.4296 103.008C21.3782 102.857 21.3782 102.703 21.3782 102.603C20.9214 100.927 20.3133 99.3026 19.9564 97.6267C19.3968 94.9858 19.1456 92.3478 20.1591 89.7582C20.2105 89.6041 20.0592 89.2501 19.905 89.0987C16.4533 86.3065 12.5448 84.9333 8.07666 85.3929C7.46854 85.3929 6.80618 85.6442 6.24945 85.7469ZM191.86 110.269C189.373 110.523 187.089 110.777 184.805 110.98C180.286 111.385 175.921 112.553 171.504 113.621C167.695 114.534 163.887 115.448 160.078 116.413C159.875 116.461 159.673 116.715 159.573 116.969C159.116 118.086 158.708 119.205 158.251 120.27C157.794 121.386 157.845 121.54 159.013 121.843C159.216 121.894 159.47 121.894 159.673 121.946C161.094 122.046 162.365 121.438 163.533 120.727C164.954 119.864 166.376 118.899 167.747 117.934C168.76 117.224 169.877 116.87 171.147 116.818C173.634 116.715 176.123 116.715 178.559 116.159C180.794 115.65 183.027 115.142 185.311 114.737C187.443 114.38 189.119 113.264 190.692 111.893C191.201 111.536 191.455 110.877 191.86 110.269Z" fill="white"/>
</g>
<path d="M73.1098 80.3669C71.7394 79.2505 70.6231 78.3883 69.5553 77.3719C68.085 76.0015 66.7631 74.4769 65.2928 73.1579C63.6683 71.7361 61.941 70.4656 60.2651 69.1466C59.0488 68.233 57.6756 68.1331 56.2052 68.4357C53.1075 69.1466 50.4181 70.6198 47.9285 72.4984C47.3204 72.9552 46.915 73.412 47.0149 74.3256C47.0663 74.9338 46.8122 75.5961 46.6095 76.2556C44.9336 81.5346 43.2577 86.8135 41.5818 92.0953C41.4819 92.3494 41.1764 92.5007 40.9737 92.7548C40.8224 92.5007 40.5683 92.1952 40.5683 91.9411C40.8709 89.8598 41.125 87.73 41.5333 85.6458C42.09 82.7537 42.7495 79.9101 43.3091 77.0151C43.3605 76.8124 43.2063 76.3556 43.055 76.3042C41.3791 75.6447 40.2114 74.377 39.1465 73.0551C38.2843 71.9388 37.4192 70.8739 36.7083 69.6548C34.7298 66.4572 31.7834 64.5786 28.2803 63.5108C27.418 63.2567 26.5558 62.9541 25.6908 62.7C25.3367 62.5972 24.8799 62.4973 25.0312 62.0405C25.134 61.7864 25.5908 61.5323 25.8963 61.5323C27.9262 61.4809 29.9562 61.7864 31.8862 62.3431C34.5756 63.1054 36.911 64.5272 38.7411 66.6085C40.5169 68.5899 42.2442 70.5684 44.02 72.5498C44.5796 73.1579 44.8308 73.1065 45.339 72.447C48.1826 68.9953 51.5858 66.3544 55.797 64.7299C56.1538 64.5786 56.5593 64.4244 56.9161 64.4244C57.9297 64.4758 58.1838 63.9191 58.3379 63.054C58.5892 61.8863 58.9461 60.7186 59.2515 59.5509C59.3001 59.3996 59.3515 59.1969 59.4029 59.0427C59.5542 58.6887 59.7084 58.2319 60.2165 58.3832C60.4678 58.486 60.6734 58.9428 60.6734 59.2483C60.6734 60.8214 60.622 62.3945 60.5192 63.9676C60.5192 64.4244 60.622 64.6785 61.0788 64.8812C64.7846 66.7598 67.7281 69.5035 70.4204 72.5983C71.4853 73.8174 72.6016 75.0365 73.7208 76.3042C74.8371 75.2906 75.9534 74.377 76.9184 73.3606C82.2488 68.0303 88.6469 64.8812 96.0071 63.5108C97.7344 63.2082 99.4103 63.3081 101.035 64.0704C102.608 64.8327 104.232 65.5436 105.857 66.303C108.192 64.019 110.933 64.1218 113.674 65.5436C115.755 66.6599 117.737 67.9275 119.818 69.1466C119.869 68.8925 119.869 68.5385 119.921 68.1816C120.175 65.338 121.645 63.3081 124.083 62.0405C124.743 61.6836 125.454 61.4295 126.113 61.1269C127.384 60.5673 128.6 60.0077 129.819 59.3996C130.987 58.7915 132.155 58.5859 133.425 59.0427C133.628 58.1805 133.83 57.3183 134.033 56.456C134.339 55.0828 135.201 54.1206 136.317 53.2556C137.639 52.2906 138.907 51.1743 140.126 50.0579C141.345 48.993 142.461 47.7739 143.629 46.7061C144.137 46.2493 144.745 45.8439 145.356 45.4899C146.37 44.8789 147.437 44.8275 148.502 45.2358C148.808 45.3357 149.162 45.4899 149.519 45.5898C149.722 44.779 149.924 44.0681 150.127 43.3058C151.295 39.6514 151.497 39.954 154.444 39.1946C157.133 38.4837 159.825 37.5701 162.566 36.9591C165.815 36.2482 169.167 35.74 172.465 35.1833C172.973 35.0805 173.532 35.1833 174.041 35.2832C174.7 35.4374 175.157 35.8428 175.208 36.5537C175.257 37.2646 174.903 37.7728 174.295 37.9755C173.076 38.4323 171.805 38.9405 170.537 39.1432C168.251 39.6 165.915 39.8027 163.631 40.2081C160.788 40.7163 157.947 41.2759 155.103 41.8326C155.052 41.8326 155 41.8326 154.949 41.884C153.225 42.1895 153.173 42.1895 152.868 43.9653C152.614 45.1844 152.462 46.3521 152.665 47.6198C152.919 48.9416 151.751 49.9552 150.432 49.5497C149.57 49.2956 148.757 48.8902 147.946 48.4848C147.386 48.2307 146.929 48.2307 146.472 48.5847C145.305 49.5497 144.137 50.4634 143.021 51.4797C141.396 52.9015 139.772 54.272 137.79 55.237C136.623 55.8451 136.015 57.4182 136.317 58.8914C136.42 59.451 136.623 59.9592 136.725 60.4645C136.825 60.9213 136.928 61.4295 136.928 61.8863C136.928 62.5972 136.571 63.2082 135.912 63.5622C135.252 63.8677 134.644 63.7135 134.033 63.3081C133.576 63.0026 133.171 62.5972 132.663 62.3945C132.357 62.2432 131.9 62.1918 131.598 62.2946C129.871 62.9027 128.143 63.5622 126.419 64.2217C125.911 64.4244 125.454 64.63 124.997 64.8812C123.321 65.7463 122.51 67.2166 122.51 69.0467C122.51 70.2144 122.662 71.3821 122.813 72.4984C122.916 73.1579 122.864 73.7175 122.356 74.1229C121.799 74.5797 121.188 74.6311 120.58 74.3256C119.969 74.0201 119.413 73.6147 118.853 73.2093C116.518 71.5848 114.182 69.9603 111.795 68.3358C110.73 67.6249 109.46 67.4222 108.192 67.5221C107.33 67.6249 107.025 67.879 106.873 68.7412C106.668 69.7576 105.706 70.3143 104.689 69.9603C103.876 69.6548 103.065 69.2494 102.251 68.8925C101.694 68.6384 101.135 68.4357 100.678 68.0817C98.4453 66.4572 95.9557 66.5057 93.469 67.0653C88.6469 68.1331 84.1274 69.9089 80.3702 73.2607C78.9484 74.5283 77.7293 76.0015 76.4102 77.4233C76.2589 77.5746 76.2075 77.8287 76.1561 78.0315C74.9884 83.87 73.8207 89.7085 72.7044 95.547C72.1448 98.442 71.8422 101.386 71.4339 104.281C71.3854 104.532 71.3854 104.786 71.2826 105.04C71.1827 105.294 70.9286 105.448 70.7744 105.651C70.6231 105.448 70.3176 105.243 70.2662 105.04C70.1663 104.483 70.1149 103.924 70.1149 103.364C70.0635 99.4042 70.6745 95.547 71.2826 91.6899C71.9935 87.7785 72.5531 83.9214 73.1098 80.3669Z" fill="white"/>
<path d="M64.7842 61.1735C64.9869 60.7167 65.1382 60.2598 65.3438 59.8544C67.525 55.4377 70.4714 51.5777 74.1258 48.2288C75.8017 46.7042 77.6289 45.3852 79.4047 43.9634C79.6588 43.7607 80.0157 43.558 80.3184 43.5066C80.6752 43.4552 81.0806 43.558 81.4861 43.558C81.3861 43.912 81.3347 44.3203 81.132 44.6229C80.8779 44.9798 80.5211 45.2339 80.167 45.488C76.8666 48.2802 73.669 51.1723 70.8768 54.4727C69.1495 56.5026 67.6278 58.7381 66.0518 60.8708C65.9005 61.0735 65.8006 61.2762 65.6464 61.4276C65.4951 61.5303 65.241 61.6303 65.1382 61.5817C64.9355 61.5817 64.8841 61.3276 64.7842 61.1735Z" fill="white"/>
<path d="M67.0688 52.9998C67.2716 52.4944 67.4257 52.0348 67.6798 51.6294C69.0502 49.5994 70.3693 47.5695 71.891 45.6395C75.2942 41.4769 79.1513 37.7197 83.4681 34.5221C84.0248 34.1138 84.6872 33.8112 85.3467 33.5571C85.498 33.4543 85.9034 33.5571 86.0062 33.7084C86.109 33.8597 86.0062 34.2166 85.9034 34.3679C85.6493 34.7248 85.2953 35.0274 84.9413 35.3329C79.7623 39.801 74.7346 44.369 70.4206 49.6508C69.507 50.7671 68.7447 51.9862 67.9311 53.1539C67.8311 53.3053 67.577 53.4566 67.4743 53.408C67.2716 53.408 67.1716 53.1539 67.0688 52.9998Z" fill="white"/>
<path d="M76.8669 54.1699C76.5129 54.7295 76.3102 55.1863 75.9533 55.5404C75.0397 56.6081 74.0233 57.5731 73.1611 58.638C71.3339 60.9221 69.5552 63.2575 67.728 65.5929C67.4739 65.8984 67.2712 66.4066 66.8658 66.0497C66.6631 65.8984 66.5603 65.2903 66.7145 65.0362C67.2712 63.7657 67.8822 62.498 68.5931 61.3303C70.2176 58.6894 72.2989 56.4054 74.6828 54.424C75.0911 54.07 75.6992 53.9158 76.2074 53.7645C76.3587 53.7131 76.5614 53.9672 76.8669 54.1699Z" fill="white"/>
<path d="M88.6478 111.487C87.8855 111.487 87.5287 110.979 87.8342 110.368C87.9855 110.065 88.2396 109.811 88.4451 109.557C90.3723 107.73 92.3023 105.851 93.7755 103.616C93.9268 103.413 94.2836 103.362 94.5349 103.262C94.5863 103.567 94.7405 103.87 94.6377 104.124C93.5214 106.916 91.7427 109.252 89.3587 111.079C89.1046 111.284 88.7991 111.384 88.6478 111.487Z" fill="white"/>
<path d="M82.1989 112.453C81.9448 112.248 81.5394 112.045 81.488 111.791C81.4395 111.537 81.5908 111.08 81.8449 110.877C82.5558 110.269 83.3666 109.812 84.0775 109.201C85.3994 108.085 86.6156 106.917 87.9375 105.852C88.1402 105.698 88.4943 105.65 88.7483 105.547C88.7997 105.852 88.9025 106.206 88.7997 106.409C88.5456 107.02 88.1916 107.577 87.7834 108.085C86.5671 109.709 84.9911 110.877 83.3181 111.994C83.064 112.148 82.7071 112.248 82.1989 112.453Z" fill="white"/>
<path d="M92.9096 111.236C92.2501 111.185 92.0474 110.93 92.1987 110.474C92.3528 110.168 92.5555 109.866 92.8096 109.56C94.7396 107.225 96.6668 104.889 98.5968 102.554C98.7481 102.351 99.0536 102.3 99.3077 102.148C99.3077 102.451 99.459 102.808 99.3591 103.011C98.3427 104.738 97.3263 106.462 96.1586 108.087C95.4477 109.052 94.5341 109.866 93.6719 110.728C93.4692 111.033 93.1151 111.133 92.9096 111.236Z" fill="white"/>
<path d="M234.607 35.4855C233.796 33.4042 232.374 32.0851 230.088 31.831C227.958 31.6283 226.028 32.1365 224.555 33.9637C224.503 33.9124 224.403 33.861 224.352 33.8124C224.455 33.5583 224.503 33.3042 224.606 33.1015C225.722 31.2229 227.501 30.512 229.531 30.3578C232.172 30.1038 234.353 31.0202 236.029 33.0501C236.537 33.6583 236.791 34.4205 237.045 35.1828C237.248 35.791 237.094 36.4505 236.486 36.9073C236.334 37.0101 236.232 37.3155 236.18 37.5182C235.878 39.5482 235.115 41.2755 233.085 42.0863C230.75 42.9999 228.463 43.0513 226.282 41.6295C225.468 41.0699 224.86 40.3105 224.606 39.3455C224.555 39.1428 224.706 38.8887 224.757 38.6346C224.96 38.7345 225.165 38.7859 225.317 38.94C226.89 40.6131 229.225 41.1727 231.053 40.3105C230.444 40.2077 229.785 40.2077 229.074 40.0564C227.601 39.6995 226.687 38.6346 226.128 37.3641C225.925 36.9073 226.179 36.1478 226.485 35.6396C228.312 32.3906 232.677 32.3392 234.607 35.4855ZM230.139 35.4855C229.125 35.3855 228.209 35.691 227.855 36.2992C228.971 36.6532 229.836 36.4019 230.139 35.4855Z" fill="white"/>
</svg>
