<svg width="236" height="235" viewBox="0 0 236 235" fill="none" xmlns="http://www.w3.org/2000/svg">
<path d="M232.481 12.1612C232.447 12.1298 232.416 12.1298 232.384 12.1298C230.948 9.35182 228.619 7.05639 225.778 5.68312C223.48 4.56681 220.99 4.11857 218.66 3.79881C213.521 3.09647 208.288 2.87378 203.118 3.19354C201.49 2.10863 199.48 1.62899 197.659 1.82027C196.894 1.88594 196.128 2.07723 195.395 2.33132C192.999 1.08653 190.033 0.54408 186.775 0.832437C183.935 1.05513 181.191 1.82027 178.542 2.58828C178.382 2.61968 178.287 2.7139 178.159 2.77956C177.776 2.55402 177.425 2.26851 177.043 2.07723C173.851 0.449864 170.179 -0.061185 166.67 0.703961C166.191 0.798177 165.808 1.11794 165.585 1.53477C165.36 1.94875 165.328 2.4598 165.52 2.87378L167.658 8.01282C168.232 9.35182 168.84 10.8222 169.702 12.1926C167.721 13.0548 166.031 14.842 165.074 17.2374C164.275 19.2787 164.021 21.4171 163.795 23.4928L163.764 23.8753C162.679 33.865 160.572 43.792 157.509 53.3648C157.446 53.5247 157.446 53.716 157.446 53.8759C155.978 55.7916 154.445 57.7387 152.626 59.3033C151.253 60.4824 149.083 61.9842 146.531 62.2697C144.296 62.5266 141.966 61.9185 139.699 61.3132C134.114 59.8115 127.188 57.9614 122.943 53.2392C121.061 51.1636 119.785 48.6112 118.443 45.9304C117.264 43.5978 116.051 41.1739 114.389 39.0041C111.583 35.3953 107.657 32.7487 103.283 31.4697C97.9214 25.2143 90.327 23.1416 82.824 25.9509C81.899 26.2992 80.974 26.7161 80.0489 27.1615C77.7192 28.215 75.518 29.2371 73.3796 28.8859C71.7836 28.6318 70.3476 27.6411 68.783 26.5876C67.6638 25.8224 66.4847 25.023 65.1429 24.4492C58.9846 21.7683 51.8984 24.8974 47.6216 29.1742C44.5895 32.2063 42.3883 35.9064 40.2813 39.4809C39.4191 40.917 38.5569 42.3873 37.6319 43.792C32.8126 51.195 26.2375 57.5132 18.6088 62.047C18.132 62.3353 17.9094 62.8121 17.8751 63.2918C13.5355 68.6221 9.25863 74.4292 6.76905 81.1014C4.88759 86.112 4.31088 91.2167 4.919 95.879C4.88759 95.9418 4.82193 96.0046 4.79052 96.1017C3.16316 100.156 1.47013 104.367 0.67358 108.866C-0.220041 114.037 0.291007 118.793 2.17247 122.656C2.42942 123.199 3.00328 123.55 3.60854 123.55C3.6428 123.55 3.6428 123.55 3.67421 123.55C4.31088 123.518 4.85333 123.133 5.11029 122.559C7.05741 117.806 8.61911 112.826 9.76968 107.813C10.9174 109.794 11.7796 111.741 11.811 113.751C11.6197 113.943 11.4285 114.134 11.3342 114.422C8.42782 122.719 8.84466 132.104 12.5134 140.115C14.4605 144.392 15.2256 149.562 14.4291 153.293C14.4291 153.328 14.4291 153.359 14.4291 153.391C14.3006 153.613 14.2378 153.839 14.2378 154.093C14.1407 156.326 14.3006 158.401 14.4291 160.445C14.5576 162.487 14.6832 164.402 14.589 166.475C14.5576 167.594 14.4919 169.125 15.1314 170.498C15.3541 171.583 15.4826 173.147 15.6111 174.678C15.7367 176.371 15.8966 178.095 16.2163 179.403C16.2163 179.403 16.2163 179.403 16.2163 179.434C17.5896 186.263 17.621 193.509 16.3134 200.276L13.7896 210.265C13.407 210.52 13.1215 210.902 13.0901 211.413C12.993 211.573 12.5134 211.893 12.2279 212.084C11.3342 212.658 9.8639 213.649 10.0894 215.467C10.1837 216.33 10.7918 217.863 13.6325 218.339L21.5152 219.616C21.6095 219.616 21.7065 219.616 21.8007 219.616C22.1833 219.616 22.5688 219.49 22.8543 219.202C24.8984 217.414 27.8991 216.712 30.5143 217.477C31.3451 217.734 32.2387 217.223 32.4928 216.392C32.4928 216.33 32.4928 216.298 32.4928 216.232C32.7498 215.916 32.8754 215.499 32.8126 215.053C32.3329 211.542 31.7905 208.096 31.2166 204.681C32.016 205.86 33.2266 206.66 34.0888 207.233C37.6319 209.466 42.0372 212.244 46.9849 212.467C47.1419 212.467 47.3332 212.467 47.5274 212.467C48.421 212.467 49.5373 212.341 50.5594 211.764C52.0583 210.905 52.8548 209.243 52.5037 207.713C52.1868 206.243 50.9734 205.415 50.1112 204.807C49.6658 204.49 49.0891 204.104 49.0263 203.85C48.9634 203.596 48.835 203.371 48.6751 203.179C48.6437 202.957 48.578 202.734 48.421 202.508C42.1656 193.381 38.4941 178.286 38.1115 168.105C37.7603 158.944 37.3778 149.496 38.7824 140.337C40.3127 130.282 43.9529 121.731 49.2803 115.633C49.6001 115.282 49.6972 114.805 49.6315 114.357C55.2502 115.633 61.0573 116.272 67.1871 116.272C67.2185 116.272 67.2499 116.272 67.2813 116.272C67.3469 117.006 67.3155 117.74 67.3783 118.474C68.783 134.496 68.5917 149.528 66.8045 165.773L62.0794 208.767C59.5584 209.817 57.834 212.595 57.42 216.201C57.2915 217.192 57.2915 218.211 57.2601 219.233C57.2287 220.735 57.1973 222.171 56.8462 223.51C56.6863 224.149 56.4322 224.755 56.2066 225.394C55.9211 226.128 55.6328 226.893 55.4415 227.658C54.899 229.831 55.1531 231.778 56.2066 233.214C56.6549 233.819 57.4828 234.042 58.1852 233.691L60.9003 232.383L60.9317 233.054C60.9317 233.5 61.1544 233.914 61.4742 234.202C61.7597 234.459 62.1451 234.585 62.5277 234.585C62.5905 234.585 62.6219 234.585 62.6875 234.585L74.336 233.5C74.8785 233.437 75.3581 233.148 75.6122 232.672C75.8663 232.192 75.8663 231.618 75.6122 231.17C74.336 228.84 73.0284 226.413 72.5488 223.861C71.9749 220.735 72.6116 217.414 73.2825 214.191C73.3453 213.84 73.2825 213.52 73.154 213.235C73.2511 212.978 73.2825 212.724 73.2197 212.467C70.9842 199.351 75.3895 182.626 83.9118 171.805C84.2287 171.423 84.2943 170.943 84.1973 170.498C84.2287 170.369 84.2629 170.275 84.2629 170.147C84.1659 168.519 83.6862 167.434 83.2723 166.475C82.8897 165.647 82.6013 164.976 82.5385 163.923C82.5071 163.477 82.3158 163.061 81.9647 162.806C81.899 162.584 81.8048 162.327 81.6449 162.073C82.6013 148.825 85.8903 135.995 91.4433 123.932C91.4433 123.901 91.4433 123.867 91.4747 123.835C91.666 123.613 91.8573 123.359 91.8887 123.007C92.3684 120.07 94.7609 117.486 97.6016 116.686C96.2312 129.294 94.187 141.933 91.4747 154.475C90.9951 156.614 90.5183 158.849 90.6125 161.145C90.6439 161.784 90.7096 162.424 90.7724 163.092C90.9637 164.879 91.1236 166.572 90.327 167.689C89.7846 167.88 89.3677 168.359 89.2735 168.965C88.7939 172.317 89.7189 175.54 90.6125 178.603C90.9323 179.722 91.252 180.839 91.5061 181.986C92.848 188.051 92.0486 194.434 91.2206 200.596C90.7096 200.818 90.327 201.329 90.2613 201.903L89.4648 212.532C89.3991 213.52 89.3049 214.862 89.8474 216.138C90.1985 216.966 90.9009 217.669 91.7288 218.085C91.5061 218.211 91.2206 218.339 90.9323 218.468C90.484 218.659 90.0701 218.851 89.6561 219.105C88.3456 219.904 87.1979 221.563 87.8374 223.319C87.9316 223.607 88.1543 223.83 88.3799 224.021C88.7625 225.554 89.8474 226.925 91.4433 227.787C92.8137 228.552 94.3469 228.872 95.783 229.094C98.4324 229.511 101.082 229.702 103.763 229.702C105.773 229.702 107.783 229.574 109.795 229.351C110.658 229.254 111.294 228.458 111.2 227.564C111.166 227.341 111.103 227.15 110.975 226.956C111.134 225.554 110.689 223.541 108.231 221.212L107.688 220.735C106.635 219.744 105.613 218.819 105.359 217.766C105.293 217.512 105.136 217.286 104.976 217.095C105.07 216.775 105.07 216.458 104.976 216.138C99.7743 201.712 99.2946 185.721 103.54 171.04C104.017 170.786 104.337 170.307 104.368 169.733C104.942 158.273 105.581 145.251 111.486 134.593C112.251 133.22 113.082 131.912 113.912 130.602C115.126 128.689 116.371 126.708 117.39 124.603C118.892 121.506 120.359 116.846 118.954 112.284C118.954 112.25 118.923 112.25 118.923 112.218C119.911 111.102 120.999 109.729 122.049 108.358C123.071 107.048 124.062 105.772 124.987 104.718L132.55 104.878C134.369 105.261 136.19 105.452 138.04 105.452C139.316 105.452 140.561 105.358 141.837 105.198C146.785 104.495 151.285 102.486 155.658 100.538C160.7 98.3029 166.382 95.7505 170.596 91.3766C172.446 89.4952 173.914 87.3253 175.35 85.2497L185.405 70.6006C185.405 70.6006 185.405 70.5692 185.436 70.5692C185.722 70.4093 185.947 70.1866 186.107 69.8669C188.468 64.8563 189.807 59.3975 190.127 53.8759C190.35 52.9509 190.83 51.9288 191.629 50.7811C192.012 50.2043 192.425 49.6961 192.839 49.1537C193.67 48.1002 194.501 46.981 195.169 45.7362C196.383 43.4722 196.671 41.1082 196.031 39.1297C197.148 38.907 198.201 38.5244 199.223 37.9506C200.725 37.1198 201.65 36.0349 202.001 34.7587C202.064 34.4703 202.033 34.1848 201.967 33.8965C204.873 33.6424 208.288 33.2255 211.032 31.2156C211.223 31.0871 211.351 30.9272 211.449 30.7359C211.862 30.8016 212.245 30.8644 212.659 30.8644C214.832 30.8644 216.97 30.0679 218.532 28.5347C218.789 28.312 219.011 28.0551 219.234 27.801C219.491 27.5126 219.777 27.1929 220.065 26.9702C220.385 26.7161 220.639 26.6847 220.736 26.6847C221.373 26.9074 222.106 26.6504 222.523 26.1736C223.542 26.4934 224.662 26.6847 225.841 26.7161C225.906 26.7161 225.938 26.7161 226.001 26.7161C227.694 26.7161 229.161 26.3649 230.309 25.6312C231.745 24.7689 232.638 23.3643 232.833 21.8654C233.118 21.7369 233.309 21.5456 233.501 21.2887C233.532 21.2887 233.532 21.3229 233.566 21.3229C233.692 21.3543 233.82 21.3857 233.98 21.3857C234.683 21.3857 235.354 20.9061 235.513 20.1724C236.247 17.3002 235.002 13.9484 232.481 12.1612ZM197.947 4.94938C198.809 4.85231 199.766 5.04359 200.628 5.42617C200.851 5.96862 201.362 6.31979 202.001 6.35405C202.224 6.57674 202.352 6.89651 202.478 7.18201H193.702C194.787 5.96862 196.32 5.10926 197.947 4.94938ZM3.76843 117.103C3.25738 114.262 3.48292 111.485 3.8655 109.378C4.34229 106.571 5.27017 103.825 6.28941 101.112C6.51496 101.718 6.73765 102.294 7.02315 102.868C7.15163 103.122 7.34291 103.411 7.47139 103.665C7.43998 103.73 7.40858 103.762 7.40858 103.825C6.51496 108.324 5.30157 112.792 3.76843 117.103ZM31.2166 199.925C30.9311 200.307 30.7712 200.755 30.6428 201.232C30.1945 198.617 29.7177 195.999 29.2381 193.447C27.9619 186.489 26.6543 179.306 25.6636 171.965C25.281 169.156 25.2154 166.701 25.1525 164.114C25.0897 161.784 24.9927 159.358 24.7072 156.742C24.9927 156.454 25.184 156.04 25.1525 155.592C25.0897 153.613 24.9927 151.603 24.867 149.528C24.4188 141.262 24.0048 132.772 26.4944 124.857C25.3438 136.697 24.9613 147.838 26.9398 160.988C27.3538 163.829 28.0247 167.403 28.727 171.294C30.4829 180.87 32.6213 192.713 32.2387 199.031C31.8561 199.254 31.505 199.542 31.2166 199.925ZM35.6533 139.923C34.2172 149.368 34.5998 158.975 34.951 168.297C35.365 178.923 39.2278 194.754 45.8029 204.393C45.8343 204.424 45.8657 204.455 45.8971 204.49C45.8971 204.521 45.8971 204.553 45.8971 204.584C46.2169 206.083 47.4303 206.882 48.2925 207.488C48.7379 207.807 49.3146 208.19 49.3774 208.447C49.4088 208.541 49.2489 208.861 48.9634 209.021C48.5466 209.243 47.9727 209.34 47.1105 209.309C42.9936 209.115 39.165 206.691 35.7818 204.553C34.7597 203.913 33.8975 203.308 33.6434 202.574C33.5463 202.286 33.7062 201.84 33.7376 201.775C34.5998 201.84 35.365 201.107 35.3992 200.244C35.3992 200.116 35.365 199.987 35.3336 199.827C35.3336 199.765 35.365 199.733 35.365 199.67C35.876 193.03 33.7062 181.19 31.8247 170.689C31.1224 166.861 30.4829 163.317 30.0689 160.477C27.6421 144.04 28.8869 130.73 30.7712 115.09C30.8026 114.899 30.7712 114.739 30.737 114.579C31.505 112.347 31.919 110.048 31.505 107.656C36.4499 110.271 41.5261 112.284 46.825 113.72C41.1435 120.261 37.2807 129.326 35.6533 139.923ZM218.118 24.5777C217.638 24.9288 217.256 25.3742 216.873 25.791C216.682 25.9823 216.522 26.1736 216.331 26.3649C214.766 27.8638 212.151 28.215 210.267 27.1929C209.501 26.7789 208.511 27.0672 208.097 27.8324C207.84 28.312 207.874 28.8545 208.097 29.2999C206.181 30.2906 203.82 30.6417 200.979 30.8644L191.403 31.6952C190.159 31.7894 188.882 31.9179 187.797 31.5668C186.553 31.1842 185.468 30.1935 184.223 28.8231C183.075 27.544 181.765 25.9823 181 24.2579C180.235 22.5677 180.075 20.8433 180.52 19.4386C180.777 18.6078 180.297 17.7142 179.467 17.4287C178.607 17.1717 177.745 17.6514 177.457 18.4822C176.786 20.652 177.011 23.1416 178.096 25.5655C179.053 27.7039 180.551 29.4912 181.862 30.9615C183.232 32.4918 184.797 33.9935 186.872 34.6302C187.766 34.9185 188.691 34.9814 189.553 34.9814C190.287 34.9814 190.989 34.9185 191.66 34.8529L198.744 34.2476C198.552 34.5674 198.201 34.9185 197.659 35.2383C196.128 36.0977 194.341 36.4174 192.585 36.1633C191.723 36.0035 190.892 36.6087 190.767 37.5023C190.638 38.3646 191.212 39.1954 192.106 39.321C192.363 39.3553 192.617 39.3553 192.871 39.3867C192.871 39.5779 192.905 39.7378 192.968 39.9291C193.67 41.5879 192.808 43.535 192.394 44.3002C191.852 45.3223 191.118 46.2787 190.35 47.2694C190.256 47.3979 190.159 47.5235 190.064 47.6834C189.905 45.8647 189.648 44.0147 189.265 42.2274C189.074 41.3652 188.211 40.8227 187.352 41.014C186.49 41.2053 185.947 42.0675 186.139 42.9297C186.904 46.4072 187.192 49.9816 187.001 53.5247C186.841 54.2271 186.775 54.9294 186.81 55.6317C186.81 55.6945 186.841 55.726 186.841 55.7602C186.361 60.1313 185.214 64.4081 183.329 68.4308C183.138 68.5564 182.978 68.6849 182.85 68.8762L172.797 83.5253C171.455 85.5038 170.054 87.548 168.392 89.2382C164.595 93.1639 159.424 95.4622 154.445 97.6976C150.297 99.5477 145.989 101.463 141.486 102.1C138.742 102.486 135.999 102.388 132.998 101.815L123.679 101.592C122.786 101.592 122.083 102.26 122.049 103.154C122.049 103.251 122.083 103.313 122.083 103.411C121.284 104.367 120.453 105.389 119.594 106.474C118.509 107.879 117.421 109.283 116.433 110.368C115.029 111.933 113.561 113.529 111.902 114.739C109.858 116.272 107.4 117.26 104.879 117.611C104.399 117.295 103.763 117.26 103.22 117.549L102.518 117.963C101.878 118.314 101.562 119.082 101.753 119.784C101.944 120.486 102.581 120.932 103.283 120.932C103.315 120.932 103.315 120.932 103.349 120.932C107.08 120.803 110.815 119.527 113.815 117.295C114.709 116.624 115.54 115.89 116.305 115.122C116.625 118.122 115.603 121.123 114.583 123.262C113.655 125.209 112.508 127.027 111.294 128.912C110.432 130.282 109.57 131.655 108.773 133.06C102.646 144.072 101.878 157.094 101.305 168.711C101.05 168.902 100.825 169.156 100.699 169.507C96.0399 185.053 96.5167 202 102.007 217.255C102.07 217.446 102.23 217.574 102.358 217.703C102.261 217.957 102.23 218.245 102.295 218.531C102.772 220.575 104.274 221.914 105.581 223.127L106.092 223.576C106.763 224.181 107.72 225.297 107.783 226.351C103.954 226.67 100.123 226.573 96.3254 225.968C94.9864 225.745 93.9329 225.52 93.0393 225.012C92.1771 224.532 91.5718 223.798 91.4433 223.096C91.3777 222.745 91.1864 222.488 90.9637 222.265C91.0265 222.137 91.155 222.011 91.3777 221.883C91.666 221.723 91.9544 221.594 92.2713 221.437C92.8137 221.212 93.4219 220.926 93.9957 220.478C94.7951 219.873 95.369 218.913 95.4975 217.957C95.5917 217.16 95.4004 216.392 94.9207 215.787C94.5068 215.245 93.8672 215.022 93.2306 215.245C93.1335 215.245 92.9422 215.085 92.848 214.862C92.6225 214.32 92.6567 213.52 92.7195 212.786L93.4533 202.637C93.9329 202.414 94.2841 201.966 94.3469 201.423C95.1777 195.168 96.1341 188.051 94.6666 181.284C94.4097 180.105 94.0585 178.892 93.7416 177.71C92.9736 175.029 92.2713 172.476 92.4968 169.987C92.6567 169.893 92.8137 169.764 92.9422 169.604C94.5068 167.497 94.2527 164.976 94.0271 162.741C93.9643 162.135 93.9015 161.562 93.8672 160.988C93.8044 159.072 94.2184 157.156 94.698 154.955C97.4103 142.444 99.4859 129.645 100.859 116.878C100.891 116.624 100.825 116.367 100.731 116.144C101.593 116.015 102.455 115.89 103.349 115.57C105.804 114.676 107.56 112.667 108.996 111.071C111.326 108.453 114.232 105.166 115.06 101.081C118.029 100.09 121.475 97.7604 123.328 95.4307C123.871 94.7284 123.774 93.7406 123.071 93.1981C122.369 92.6528 121.381 92.7499 120.839 93.4522C119.208 95.4936 115.762 97.729 113.304 98.3029C112.539 98.4942 112.059 99.1651 112.094 99.9303C112.059 100.027 111.997 100.09 111.997 100.187C111.454 103.313 109.347 105.9 106.603 108.964C105.359 110.368 103.954 111.964 102.23 112.569C101.433 112.858 100.508 112.983 99.5173 113.08C98.7208 113.178 97.9214 113.272 97.1248 113.463C95.9428 113.751 94.8265 114.262 93.8044 114.931C93.6445 114.006 93.2306 113.049 92.0172 112.124C91.0265 111.39 89.9416 111.133 88.9537 110.879C88.4427 110.751 87.9316 110.622 87.452 110.431C85.9217 109.76 84.9624 107.719 85.4421 106.091C85.699 105.261 85.2194 104.367 84.3572 104.113C83.4949 103.856 82.6327 104.336 82.3786 105.198C81.4536 108.358 83.1438 112.027 86.1444 113.335C86.7839 113.623 87.452 113.814 88.1543 113.974C88.9537 114.165 89.6247 114.357 90.1015 114.708C90.6782 115.122 90.6782 115.25 90.741 116.304C90.7724 116.655 90.8038 117.069 90.8695 117.517C90.8695 117.549 90.9009 117.611 90.9009 117.646C89.8788 118.985 89.145 120.549 88.8253 122.208C88.7311 122.305 88.634 122.431 88.5712 122.559C82.7612 135.261 79.3466 148.794 78.4216 162.741C78.3902 163.252 78.6129 163.731 78.9954 164.083C79.0582 164.371 79.1867 164.722 79.4751 165.039C79.6664 166.19 80.0175 167.018 80.3687 167.786C80.7513 168.614 81.0368 169.284 81.1024 170.369C72.2604 181.861 67.7295 199.285 70.0906 213.075C70.122 213.235 70.1877 213.329 70.2505 213.457C70.2191 213.52 70.1877 213.552 70.1877 213.617C69.5168 216.969 68.7516 220.735 69.4511 224.501C69.8679 226.702 70.7615 228.746 71.718 230.627L64.155 231.33L64.0894 229.894C64.0579 229.351 63.7724 228.872 63.3242 228.586C62.8446 228.298 62.2707 228.266 61.7939 228.52L58.4421 230.148C58.4107 229.511 58.5363 228.872 58.602 228.552C58.7619 227.884 59.016 227.276 59.2701 226.639C59.5584 225.905 59.8125 225.172 60.0067 224.435C60.4521 222.745 60.4835 221.052 60.5149 219.424C60.5491 218.499 60.5491 217.574 60.6433 216.681C60.7404 215.756 61.2515 212.692 63.387 211.83C63.7724 211.67 64.0265 211.382 64.1864 211.062C64.7289 210.871 65.1771 210.36 65.2399 209.754L69.9964 166.252C71.815 149.785 72.0063 134.527 70.5703 118.314C69.5482 105.869 70.3133 93.3237 72.8029 81.1014C72.9942 80.2392 72.4203 79.4084 71.5581 79.2171C70.6959 79.0258 69.8679 79.5997 69.6766 80.4619C67.4726 91.2167 66.676 102.197 67.1214 113.178C57.9939 113.178 49.7286 111.804 41.8459 108.866C41.8459 108.835 41.8459 108.804 41.8145 108.772C38.4627 101.112 37.2807 92.3045 38.4941 84.0364C38.6225 83.1741 38.0144 82.3462 37.1522 82.2177C36.2586 82.0892 35.462 82.6973 35.3336 83.5596C34.1858 91.4109 35.0481 99.7076 37.7603 107.208C35.9417 106.411 34.1544 105.549 32.3672 104.59C27.1311 101.752 23.5252 98.911 21.0356 95.6877C17.9722 91.6964 16.6646 86.8771 17.5239 82.7602C17.7152 81.8979 17.1414 81.0357 16.2791 80.8758C15.3855 80.6846 14.5576 81.2613 14.3977 82.1206C13.3442 87.1969 14.8431 92.847 18.5146 97.632C20.9414 100.761 24.2589 103.505 28.7584 106.186C28.2817 106.571 28.0561 107.176 28.1846 107.816C28.9497 111.102 27.388 114.422 25.7264 117.963C25.1525 119.176 24.6101 120.358 24.1304 121.571C20.5246 130.73 21.0356 140.4 21.5467 149.753C21.6409 151.572 21.7379 153.328 21.8007 155.084C21.4496 155.435 21.2583 155.88 21.324 156.391C21.7065 159.201 21.7693 161.656 21.835 164.243C21.8978 166.795 21.9606 169.444 22.3775 172.414C23.3653 179.848 24.6729 187.063 25.9834 194.052C27.1625 200.564 28.3759 207.296 29.3352 214.16C26.4944 213.871 23.5252 214.637 21.2269 216.361L14.0779 215.116C13.7896 215.085 13.5983 215.022 13.4384 214.956C13.5983 214.862 13.7582 214.734 13.8866 214.637C14.4919 214.223 15.3541 213.649 15.8023 212.786C16.1535 212.564 16.439 212.275 16.5675 211.861L19.3112 200.915C20.7158 193.669 20.6844 185.978 19.217 178.732V178.7V178.669C18.96 177.584 18.8344 175.922 18.6745 174.326C18.546 172.605 18.3861 170.849 18.0664 169.507C18.035 169.382 18.0036 169.253 17.9408 169.125C17.5896 168.422 17.621 167.403 17.6524 166.509C17.7495 164.274 17.5896 162.198 17.4611 160.157C17.3326 158.147 17.207 156.263 17.3012 154.221C17.364 154.124 17.3983 153.996 17.4297 153.87C18.546 148.571 17.0471 142.57 15.2913 138.71C12.0023 131.527 11.5883 123.133 14.1407 115.633C14.5576 115.379 14.8745 114.931 14.9087 114.422C15.1628 110.719 13.3128 107.656 11.5255 104.655C10.886 103.602 10.2493 102.548 9.73828 101.463C7.12022 96.1017 7.08882 89.0783 9.64121 82.2177C12.0366 75.8339 16.3134 70.121 20.556 64.8877C20.7158 64.6964 20.8129 64.5051 20.8443 64.2796C28.5672 59.5574 35.2393 53.1108 40.1842 45.5135C41.1121 44.0775 42.0057 42.5786 42.8994 41.1111C45.0035 37.568 46.9849 34.1848 49.76 31.4383C53.2717 27.8952 58.9532 25.28 63.7382 27.387C64.7917 27.8324 65.7824 28.5347 66.8359 29.2371C68.5917 30.4504 70.4104 31.6638 72.7087 32.0464C75.8035 32.5574 78.55 31.2784 81.2309 30.0679C82.0903 29.6824 82.9525 29.2685 83.8147 28.9487C90.1985 26.5562 96.4853 28.3434 101.016 33.865C101.05 33.8965 101.113 33.9279 101.145 33.9593C101.21 34.0249 101.305 34.0877 101.402 34.1534C101.496 34.2162 101.593 34.2476 101.687 34.3104C101.753 34.3447 101.784 34.3761 101.847 34.3761C105.741 35.4296 109.253 37.7593 111.743 40.9512C113.21 42.8641 114.326 45.0367 115.477 47.3322C116.879 50.0787 118.283 52.9195 120.453 55.312C125.307 60.7394 132.775 62.7493 138.742 64.3453C140.276 64.7592 141.966 65.2075 143.722 65.3988C144.201 67.1546 144.296 68.9733 143.944 70.7605C143.784 71.4942 144.233 72.1966 144.904 72.5163C144.424 72.5477 143.944 72.739 143.659 73.1844L143.242 73.8239L144.552 74.7176L145.989 75.4199L146.274 74.9717C146.785 74.2379 146.594 73.2501 145.86 72.7704C145.797 72.7076 145.7 72.7076 145.603 72.6734C146.305 72.642 146.914 72.1309 147.073 71.3972C147.456 69.4186 147.425 67.3459 147.008 65.3674C147.679 65.2703 148.381 65.1104 149.052 64.8877C149.243 64.9505 149.435 65.0162 149.626 65.0162C149.914 65.0162 150.297 65.3674 150.488 65.7813C150.774 66.418 150.839 67.3116 150.902 68.1424C150.968 69.0047 151.667 69.6413 152.498 69.6413C152.529 69.6413 152.561 69.6413 152.595 69.6413C153.489 69.5785 154.157 68.8448 154.094 67.9512C154.031 66.9291 153.965 65.6215 153.392 64.4081C153.169 63.9627 152.881 63.5459 152.561 63.1947C153.263 62.7493 153.934 62.2383 154.605 61.6644C156.712 59.8457 158.402 57.6731 159.998 55.5689C160.064 55.5033 160.064 55.409 160.095 55.3434C161.34 55.6317 162.456 56.4625 163.03 57.5789C163.319 58.1213 163.861 58.4411 164.435 58.4411C164.689 58.4411 164.946 58.3754 165.169 58.2498C165.968 57.833 166.253 56.8765 165.84 56.1114C164.849 54.2271 162.999 52.8538 160.957 52.2799C163.764 43.0896 165.742 33.6424 166.765 24.098L166.796 23.7154C167.021 21.7683 167.213 19.9497 167.849 18.2909C168.552 16.5351 169.765 15.2246 171.138 14.8106C171.298 14.7792 171.393 14.6822 171.521 14.5879C173.117 16.0554 175.03 16.8862 176.914 16.8862C177.648 16.8862 178.382 16.7578 179.053 16.5037C179.883 16.1839 180.297 15.2903 180.009 14.4595C179.692 13.6286 178.798 13.2147 177.968 13.503C176.403 14.0769 174.553 13.1519 173.468 12.067C172.063 10.6309 171.233 8.61808 170.436 6.67096L169.094 3.44764C171.298 3.35342 173.5 3.79881 175.415 4.7895C177.905 6.06569 179.978 8.30118 181.094 10.8536C181.445 11.6501 182.373 12.0327 183.201 11.6844C184 11.3332 184.383 10.4053 184.032 9.57737C183.298 7.88434 182.244 6.35405 181 5.0436C182.947 4.53255 184.925 4.05576 186.872 3.89588C188.66 3.73599 190.318 3.89588 191.755 4.30985C190.798 5.20348 189.999 6.28839 189.456 7.53317C189.265 7.95001 189.265 8.4268 189.456 8.84363C190.096 10.214 190.798 11.7786 192.012 13.0548C193.448 14.5565 195.458 15.4816 197.565 15.61C197.693 15.61 197.85 15.61 197.979 15.61C199.926 15.61 201.873 14.9077 203.34 13.6286C204.011 13.0548 204.105 12.067 203.532 11.396C203.406 11.2675 203.277 11.1733 203.149 11.0763C202.766 10.5966 202.095 10.3425 201.459 10.5338C200.34 10.8536 199.16 10.7251 198.076 10.3111H203.851C204.745 10.3111 205.447 9.60878 205.447 8.71515C205.447 8.4582 205.384 8.23551 205.287 8.04422C205.607 7.66165 205.736 7.1506 205.607 6.60815C205.576 6.44827 205.479 6.31979 205.416 6.16276C209.627 6.06569 213.872 6.28838 218.024 6.8651C220.096 7.1506 222.298 7.56458 224.213 8.4582C226.512 9.54597 228.362 11.4274 229.481 13.6943C229.641 14.0141 229.895 14.2368 230.152 14.3652C230.246 14.4595 230.309 14.5879 230.437 14.6822C231.745 15.61 232.447 17.3316 232.225 18.9276C227.788 17.3002 223.225 16.0868 218.566 15.3217C218.149 15.2589 217.767 15.3531 217.447 15.5758C217.447 15.2589 217.416 14.9391 217.224 14.6507C215.979 12.6722 213.778 11.4902 211.351 11.4274C210.458 11.4274 209.755 12.1612 209.755 13.0234C209.755 13.8856 210.489 14.6193 211.351 14.6193C212.533 14.7164 213.841 15.2903 214.481 16.3438C214.797 16.8206 215.309 17.0775 215.82 17.0775C216.108 17.0775 216.393 17.0118 216.682 16.8206C216.682 16.8206 216.682 16.8206 216.713 16.7892C216.682 17.4601 217.064 18.0339 217.672 18.2909C217.161 18.5764 216.81 19.1189 216.842 19.7584C216.936 21.2887 217.607 22.7904 218.692 23.9695C218.66 24.2579 218.372 24.3864 218.118 24.5777ZM228.619 23.0445C227.948 23.4613 227.023 23.6526 225.875 23.6526C224.821 23.6526 223.288 23.4613 222.043 22.5991C220.99 21.8968 220.319 20.7805 220.256 19.727C220.225 19.4072 220.096 19.1503 219.936 18.8962C223.225 19.5357 226.48 20.3951 229.672 21.48C229.641 22.0567 229.255 22.6933 228.619 23.0445Z" fill="white"/>
</svg>
